<svg width="46" height="46" viewBox="0 0 46 46" fill="none" xmlns="http://www.w3.org/2000/svg">
<g clip-path="url(#clip0_273_1833)">
<path d="M22.667 2.20687e-08C18.1839 -0.000197761 13.8014 1.32903 10.0737 3.81959C6.34595 6.31015 3.44051 9.85019 1.72474 13.992C0.00897837 18.1339 -0.440046 22.6915 0.434452 27.0885C1.30895 31.4855 3.46769 35.5245 6.63769 38.6946C9.80769 41.8648 13.8466 44.0237 18.2436 44.8984C22.6405 45.7731 27.1982 45.3243 31.3401 43.6087C35.482 41.8931 39.0222 38.9878 41.5129 35.2602C44.0036 31.5326 45.333 27.1502 45.333 22.667C45.3264 16.6575 42.9363 10.8961 38.6871 6.64667C34.4378 2.39725 28.6765 0.00688189 22.667 2.20687e-08ZM22.667 42.095C18.8245 42.095 15.0683 40.9556 11.8734 38.8208C8.6785 36.686 6.18836 33.6518 4.7179 30.1018C3.24744 26.5518 2.8627 22.6454 3.61234 18.8768C4.36197 15.1081 6.21231 11.6464 8.92936 8.92933C11.6464 6.21228 15.1082 4.36194 18.8768 3.6123C22.6455 2.86267 26.5518 3.24741 30.1018 4.71787C33.6518 6.18833 36.6861 8.67846 38.8208 11.8734C40.9556 15.0683 42.095 18.8245 42.095 22.667C42.0892 27.8178 40.0405 32.756 36.3983 36.3982C32.7561 40.0404 27.8179 42.0892 22.667 42.095Z" fill="#4D4D4D"/>
<path d="M22.6669 11.0381C22.2041 11.0381 21.7602 11.2219 21.433 11.5492C21.1057 11.8764 20.9219 12.3203 20.9219 12.7831V32.5591C20.9219 33.0219 21.1057 33.4657 21.433 33.793C21.7602 34.1202 22.2041 34.3041 22.6669 34.3041C23.1297 34.3041 23.5735 34.1202 23.9008 33.793C24.228 33.4657 24.4119 33.0219 24.4119 32.5591V12.7781C24.4105 12.3161 24.2261 11.8736 23.899 11.5474C23.5719 11.2212 23.1288 11.0381 22.6669 11.0381Z" fill="#4D4D4D"/>
<path d="M32.5542 20.9221H12.7782C12.3154 20.9221 11.8715 21.106 11.5443 21.4332C11.217 21.7605 11.0332 22.2043 11.0332 22.6671C11.0332 23.1299 11.217 23.5738 11.5443 23.901C11.8715 24.2283 12.3154 24.4121 12.7782 24.4121H32.5542C33.017 24.4121 33.4609 24.2283 33.7881 23.901C34.1154 23.5738 34.2992 23.1299 34.2992 22.6671C34.2992 22.2043 34.1154 21.7605 33.7881 21.4332C33.4609 21.106 33.017 20.9221 32.5542 20.9221Z" fill="#4D4D4D"/>
</g>
<defs>
<clipPath id="clip0_273_1833">
<rect width="45.333" height="45.333" fill="white"/>
</clipPath>
</defs>
</svg>
