<svg xmlns="http://www.w3.org/2000/svg" width="17.731" height="16.073" viewBox="0 0 17.731 16.073">
  <g id="attachments" transform="translate(0 -23.936)">
    <g id="Group_15020" data-name="Group 15020" transform="translate(0 23.936)">
      <path id="Path_3942" data-name="Path 3942" d="M16.176,25.492a5.3,5.3,0,0,0-7.506,0l-7.46,7.46A4.135,4.135,0,0,0,7.058,38.8l7.46-7.46a2.963,2.963,0,1,0-4.19-4.19L3.965,33.512a.619.619,0,1,0,.875.875L11.2,28.024a1.726,1.726,0,1,1,2.441,2.441l-7.46,7.46a2.9,2.9,0,0,1-4.1-4.1l7.46-7.46A4.07,4.07,0,1,1,15.3,32.123l-3.316,3.316a.619.619,0,0,0,.875.875L16.176,33A5.3,5.3,0,0,0,16.176,25.492Z" transform="translate(0 -23.936)" fill="#333537"/>
    </g>
  </g>
</svg>
