<svg width="182" height="70" viewBox="0 0 182 70" fill="none" xmlns="http://www.w3.org/2000/svg">
<g clip-path="url(#clip0_1838_10537)">
<path d="M33.3108 43.2115H29.668L35.2186 27.1328H39.5994L45.1421 43.2115H41.4993L37.4718 30.807H37.3462L33.3108 43.2115ZM33.0831 36.8915H41.6877V39.5451H33.0831V36.8915Z" fill="black"/>
<path d="M52.7778 43.2115H47.0781V27.1328H52.8249C54.4422 27.1328 55.8345 27.4547 57.0016 28.0985C58.1688 28.737 59.0664 29.6556 59.6945 30.8541C60.3278 32.0527 60.6445 33.4868 60.6445 35.1565C60.6445 36.8313 60.3278 38.2706 59.6945 39.4745C59.0664 40.6783 58.1636 41.6021 56.9859 42.2458C55.8135 42.8896 54.4108 43.2115 52.7778 43.2115ZM50.4775 40.2988H52.6365C53.6414 40.2988 54.4867 40.1208 55.1724 39.7649C55.8632 39.4038 56.3814 38.8464 56.7268 38.0927C57.0775 37.3338 57.2529 36.355 57.2529 35.1565C57.2529 33.9683 57.0775 32.9974 56.7268 32.2438C56.3814 31.4901 55.8659 30.9353 55.1802 30.5794C54.4946 30.2235 53.6493 30.0455 52.6444 30.0455H50.4775V40.2988Z" fill="black"/>
<path d="M65.0276 43.2115H61.3848L66.9354 27.1328H71.3162L76.859 43.2115H73.2161L69.1886 30.807H69.063L65.0276 43.2115ZM64.8 36.8915H73.4046V39.5451H64.8V36.8915Z" fill="black"/>
<path d="M78.793 27.1328H82.9854L87.4133 37.9357H87.6018L92.0297 27.1328H96.2221V43.2115H92.9247V32.7462H92.7912L88.6302 43.133H86.3849L82.2239 32.707H82.0904V43.2115H78.793V27.1328Z" fill="black"/>
<path d="M118.915 35.1723C118.915 36.9256 118.582 38.4173 117.918 39.6473C117.258 40.8773 116.358 41.8167 115.217 42.4658C114.081 43.1095 112.804 43.4314 111.386 43.4314C109.957 43.4314 108.675 43.1069 107.539 42.4579C106.403 41.8089 105.505 40.8694 104.846 39.6394C104.186 38.4094 103.857 36.9204 103.857 35.1723C103.857 33.4189 104.186 31.9272 104.846 30.6972C105.505 29.4673 106.403 28.5304 107.539 27.8866C108.675 27.2376 109.957 26.9131 111.386 26.9131C112.804 26.9131 114.081 27.2376 115.217 27.8866C116.358 28.5304 117.258 29.4673 117.918 30.6972C118.582 31.9272 118.915 33.4189 118.915 35.1723ZM115.468 35.1723C115.468 34.0365 115.298 33.0787 114.958 32.2988C114.623 31.519 114.149 30.9275 113.537 30.5245C112.924 30.1215 112.207 29.92 111.386 29.92C110.564 29.92 109.847 30.1215 109.235 30.5245C108.622 30.9275 108.146 31.519 107.806 32.2988C107.471 33.0787 107.303 34.0365 107.303 35.1723C107.303 36.308 107.471 37.2658 107.806 38.0457C108.146 38.8255 108.622 39.417 109.235 39.82C109.847 40.223 110.564 40.4245 111.386 40.4245C112.207 40.4245 112.924 40.223 113.537 39.82C114.149 39.417 114.623 38.8255 114.958 38.0457C115.298 37.2658 115.468 36.308 115.468 35.1723Z" fill="black"/>
<path d="M121.434 43.2115V27.1328H127.777C128.992 27.1328 130.028 27.35 130.886 27.7844C131.75 28.2136 132.407 28.8234 132.857 29.6137C133.312 30.3988 133.54 31.3226 133.54 32.3851C133.54 33.4528 133.31 34.3714 132.849 35.1407C132.389 35.9049 131.721 36.4911 130.847 36.8994C129.978 37.3076 128.926 37.5117 127.691 37.5117H123.444V34.7796H127.142C127.791 34.7796 128.33 34.6906 128.759 34.5127C129.188 34.3347 129.507 34.0678 129.717 33.7119C129.931 33.356 130.039 32.9137 130.039 32.3851C130.039 31.8512 129.931 31.4011 129.717 31.0347C129.507 30.6683 129.185 30.3909 128.751 30.2025C128.322 30.0089 127.78 29.912 127.126 29.912H124.833V43.2115H121.434ZM130.117 35.8944L134.113 43.2115H130.36L126.451 35.8944H130.117Z" fill="black"/>
<path d="M141.059 43.2115V27.1328H151.894V29.9356H144.459V33.7668H151.336V36.5696H144.459V40.4087H151.925V43.2115H141.059Z" fill="#EC881D"/>
<path d="M157.501 27.1328L161.387 39.3488H161.536L165.43 27.1328H169.199L163.656 43.2115H159.275L153.725 27.1328H157.501Z" fill="#EC881D"/>
<path d="M171.135 43.2115V27.1328H181.969V29.9356H174.535V33.7668H181.412V36.5696H174.535V40.4087H182.001V43.2115H171.135Z" fill="#EC881D"/>
<path d="M41.5514 56.7841C41.3706 51.1187 21.9213 67.2978 21.0153 51.0488C20.9488 49.8505 19.8036 48.6418 19.1822 48.0648C18.9652 47.8655 18.687 47.735 18.3868 47.6918C17.9978 47.6618 17.6239 47.5368 17.3023 47.3292C16.9807 47.1217 16.7226 46.8388 16.5537 46.5088C15.9821 45.2441 17.7468 44.5272 17.7468 44.5272L16.8893 44.265C16.5462 44.1697 16.248 43.9677 16.0436 43.6923C15.8392 43.4169 15.7408 43.0845 15.7646 42.7497C15.8205 42.0037 15.895 41.1004 15.9634 40.6924C15.9998 40.4873 15.9621 40.2767 15.8563 40.0941C15.7504 39.9114 15.5826 39.7671 15.3793 39.6842L13.4779 38.909C13.2547 38.8185 13.0529 38.6874 12.8841 38.5232C12.7153 38.3591 12.5829 38.1652 12.4945 37.9527C12.4061 37.7403 12.3635 37.5135 12.3691 37.2855C12.3747 37.0576 12.4284 36.8329 12.5271 36.6245L17.057 27.0374C17.3522 26.3963 17.5254 25.7117 17.5691 25.0145C13.4984 24.6369 13.64 22.7259 13.64 22.7259C14.5359 23.2558 15.5711 23.5419 16.6301 23.5523C16.7654 23.5501 16.8987 23.5222 17.022 23.4701C17.1453 23.4179 17.256 23.3428 17.3473 23.2492C17.4385 23.1555 17.5084 23.0455 17.5528 22.9256C17.5971 22.8058 17.6149 22.6787 17.6051 22.5522C17.4634 20.7455 17.1515 18.6888 16.9887 17.8991C16.9327 17.4485 16.914 16.9945 16.9328 16.5412C16.4543 5.32813 34.6112 -0.0977436 30.6965 0.00133232C15.1432 4.18583 0 17.5366 0 35.9053C0 58.3157 11.4236 68.4255 23.4175 69.7467C30.9985 70.5819 38.2065 65.8152 40.9083 59.303C41.2985 58.5116 41.5171 57.6554 41.5514 56.7841Z" fill="#EC881D"/>
<path d="M44.2298 8.7079C43.397 8.70273 42.5674 8.8036 41.7636 9.00771C42.4384 8.22011 42.9511 7.32182 43.2757 6.35861C44.1833 3.75809 42.2562 0.831543 42.2562 0.831543C42.2562 0.831543 38.8574 2.12231 37.9498 4.72282C37.61 5.664 37.456 6.65533 37.4954 7.64826C36.9708 7.02771 36.3573 6.47801 35.6724 6.0147C33.3152 4.4018 29.7521 5.21579 29.7521 5.21579C29.7521 5.21579 30.0117 8.64537 32.3689 10.2583C33.0048 10.6965 33.6979 11.0565 34.4313 11.3296C33.4915 11.6054 32.607 12.0253 31.8139 12.5724C29.449 14.1758 29.1738 17.6042 29.1738 17.6042C29.1738 17.6042 32.7334 18.4322 35.0983 16.8288C36.1261 16.1581 36.9774 15.2768 37.5877 14.2517C37.4338 15.4167 37.5648 16.5992 37.9706 17.7098C38.8639 20.3142 42.2585 21.6178 42.2585 21.6178C42.2585 21.6178 44.1988 18.7007 43.3025 16.0969C43.0166 15.2456 42.5876 14.4425 42.0316 13.718C42.7474 13.8784 43.4808 13.9594 44.2167 13.9592C47.1348 13.9653 49.5075 11.343 49.5075 11.343C49.5075 11.343 47.1485 8.71404 44.2298 8.7079ZM38.6061 12.0018C38.3326 12.0017 38.0653 11.9256 37.838 11.7831C37.6107 11.6406 37.4335 11.4381 37.329 11.2013C37.2244 10.9644 37.197 10.7038 37.2504 10.4524C37.3038 10.201 37.4355 9.97006 37.6288 9.7888C37.8222 9.60754 38.0685 9.48408 38.3367 9.43404C38.6049 9.384 38.8829 9.40963 39.1356 9.50768C39.3882 9.60573 39.6042 9.77181 39.7562 9.9849C39.9082 10.198 39.9894 10.4486 39.9895 10.7049C39.989 11.0485 39.843 11.3779 39.5836 11.6207C39.3242 11.8634 38.9726 11.9997 38.6061 11.9996V12.0018Z" fill="#EC881D"/>
</g>
<defs>
<clipPath id="clip0_1838_10537">
<rect width="182" height="70" fill="white"/>
</clipPath>
</defs>
</svg>
