<svg xmlns="http://www.w3.org/2000/svg" width="19.669" height="26.226" viewBox="0 0 19.669 26.226">
  <path id="bookingsIcon" d="M17.21,3.278h-4.1a3.278,3.278,0,1,0-6.556,0h-4.1A2.459,2.459,0,0,0,0,5.737v18.03a2.459,2.459,0,0,0,2.459,2.459H17.21a2.459,2.459,0,0,0,2.459-2.459V5.737A2.459,2.459,0,0,0,17.21,3.278ZM4.917,21.718a1.226,1.226,0,1,1,.87-.359,1.229,1.229,0,0,1-.87.359Zm0-4.917a1.228,1.228,0,1,1,.87-.36,1.229,1.229,0,0,1-.87.36Zm0-4.917a1.228,1.228,0,1,1,.87-.36,1.229,1.229,0,0,1-.87.36ZM9.835,2.049a1.226,1.226,0,1,1-.871.359A1.229,1.229,0,0,1,9.835,2.049ZM16.391,20.9a.411.411,0,0,1-.41.41H8.6a.411.411,0,0,1-.41-.41v-.82a.411.411,0,0,1,.41-.41h7.376a.411.411,0,0,1,.41.41Zm0-4.917a.411.411,0,0,1-.41.41H8.6a.411.411,0,0,1-.41-.41v-.82a.411.411,0,0,1,.41-.41h7.376a.411.411,0,0,1,.41.41Zm0-4.917a.411.411,0,0,1-.41.41H8.6a.411.411,0,0,1-.41-.41v-.82a.411.411,0,0,1,.41-.41h7.376a.411.411,0,0,1,.41.41Z" fill="#fff"/>
</svg>
