<svg xmlns="http://www.w3.org/2000/svg" width="23.473" height="22.596" viewBox="0 0 23.473 22.596">
  <path id="bookings" d="M18.247,12.2a5.224,5.224,0,1,1-5.222,5.223A5.224,5.224,0,0,1,18.247,12.2ZM13.674.814A.865.865,0,0,1,14.618.05a.872.872,0,0,1,.944.774V4.415a.871.871,0,0,1-.944.774.871.871,0,0,1-.944-.774ZM5.22.814A.865.865,0,0,1,6.164.05a.874.874,0,0,1,.945.774V4.415a.88.88,0,0,1-.945.783.871.871,0,0,1-.944-.774Zm3.948,14.06h2.292a7.258,7.258,0,0,0-.455,2.548,4.776,4.776,0,0,0,.017.5H9.168a.359.359,0,0,1-.357-.357v-2.33a.359.359,0,0,1,.357-.357Zm5.654-4.957h2.8a.361.361,0,0,1,.346.267,7.212,7.212,0,0,0-3.505,1.06v-.972A.357.357,0,0,1,14.822,9.918Zm-5.654,0h2.8a.357.357,0,0,1,.357.355v2.332a.361.361,0,0,1-.357.357h-2.8a.359.359,0,0,1-.357-.357V10.273A.359.359,0,0,1,9.168,9.918Zm-5.65,0h2.8a.357.357,0,0,1,.363.355v2.332a.361.361,0,0,1-.357.357H3.52a.357.357,0,0,1-.357-.357V10.273a.357.357,0,0,1,.357-.355Zm0,4.957h2.8a.357.357,0,0,1,.363.357v2.33a.361.361,0,0,1-.363.357H3.52a.357.357,0,0,1-.357-.357v-2.33a.357.357,0,0,1,.357-.357Zm8.687,6.544H1.956A1.964,1.964,0,0,1,0,19.462V3.964A1.965,1.965,0,0,1,1.956,2.008h1.8V4.415a2.147,2.147,0,0,0,.814,1.671,2.531,2.531,0,0,0,3.184,0,2.147,2.147,0,0,0,.814-1.671V2.008h3.643V4.415a2.145,2.145,0,0,0,.812,1.671,2.533,2.533,0,0,0,3.186,0,2.151,2.151,0,0,0,.812-1.671V2.008H18.91a1.964,1.964,0,0,1,1.956,1.956v6.7a7.323,7.323,0,0,0-.835-.267V7.669H.835V19.046a1.543,1.543,0,0,0,1.538,1.528h9.359a7.661,7.661,0,0,0,.478.835Zm5.318-6.626h.638a.214.214,0,0,1,.214.214v2.46h2.254a.214.214,0,0,1,.214.212v.64a.214.214,0,0,1-.214.212H17.311V15.006a.214.214,0,0,1,.212-.214Zm.724-1.408a4.038,4.038,0,1,1-4.036,4.037,4.038,4.038,0,0,1,4.036-4.037Z" transform="translate(0 -0.05)" fill="#fff" fill-rule="evenodd"/>
</svg>
