<svg xmlns="http://www.w3.org/2000/svg" width="16.669" height="14.997" viewBox="0 0 16.669 14.997">
  <g id="bundle-icon" transform="translate(0.25 -15.152)">
    <path id="Path_3911" data-name="Path 3911" d="M9.857,15.4H.3a.3.3,0,0,0-.3.3V29.6a.3.3,0,0,0,.3.3H15.87a.3.3,0,0,0,.3-.3V15.7a.3.3,0,0,0-.3-.3Zm5.714,10.811H10.156v-.947h5.416Zm-5.416-8.736h2.089a2.5,2.5,0,0,0,.589,1.213.3.3,0,0,0,.047.047,2.486,2.486,0,0,0,1.212.589v2.089a1.967,1.967,0,0,0-1.236.616,2.176,2.176,0,0,0-.608,1.158H10.156Zm0,9.333h5.416v.947H10.156V26.81Zm5.416-2.142H10.156v-.881h2.366a.3.3,0,0,0,.3-.3,1.53,1.53,0,0,1,.458-1.034A1.415,1.415,0,0,1,14.392,22a.3.3,0,0,0,.3-.3V19.049a.3.3,0,0,0-.3-.3,1.568,1.568,0,0,1-1.572-1.572.3.3,0,0,0-.3-.3H10.156V16h5.416ZM9.558,16v8.669H6.611V16ZM6.013,26.213H.6v-.947H6.013ZM.6,26.81H6.013v.947H.6Zm5.416-3.62H3.919a2.168,2.168,0,0,0-.607-1.158,2.118,2.118,0,0,0-1.236-.613v-2.1a2.736,2.736,0,0,0,1.212-.585.309.309,0,0,0,.047-.047,2.49,2.49,0,0,0,.589-1.213h2.09V23.19ZM.6,16H6.013v.881H3.646a.3.3,0,0,0-.3.3,1.709,1.709,0,0,1-.459,1.113,1.9,1.9,0,0,1-1.111.459.3.3,0,0,0-.3.3V21.7a.3.3,0,0,0,.3.3,1.523,1.523,0,0,1,1.113.458,1.526,1.526,0,0,1,.457,1.034.3.3,0,0,0,.3.3H6.013v.881H.6Zm0,12.355H6.013V29.3H.6Zm6.013.947V25.266H9.558V29.3Zm8.961,0H10.156v-.947h5.416Z" fill="#fff" stroke="#fff" stroke-linecap="round" stroke-width="0.5"/>
  </g>
</svg>
