<svg xmlns="http://www.w3.org/2000/svg" width="13" height="14" viewBox="0 0 13 14">
  <path id="calendarIcon" d="M1,1V-1.25H3.25V1ZM3.75,1V-1.25h2.5V1ZM1-1.75v-2.5H3.25v2.5Zm2.75,0v-2.5h2.5v2.5ZM1-4.75V-7H3.25v2.25ZM6.75,1V-1.25h2.5V1Zm-3-5.75V-7h2.5v2.25ZM9.75,1V-1.25H12V1Zm-3-2.75v-2.5h2.5v2.5ZM4-8.5a.257.257,0,0,1-.25.25h-.5A.257.257,0,0,1,3-8.5v-2.25A.257.257,0,0,1,3.25-11h.5a.257.257,0,0,1,.25.25ZM9.75-1.75v-2.5H12v2.5Zm-3-3V-7h2.5v2.25Zm3,0V-7H12v2.25ZM10-8.5a.257.257,0,0,1-.25.25h-.5A.257.257,0,0,1,9-8.5v-2.25A.257.257,0,0,1,9.25-11h.5a.257.257,0,0,1,.25.25ZM13-9a1.007,1.007,0,0,0-1-1H11v-.75A1.254,1.254,0,0,0,9.75-12h-.5A1.254,1.254,0,0,0,8-10.75V-10H5v-.75A1.254,1.254,0,0,0,3.75-12h-.5A1.254,1.254,0,0,0,2-10.75V-10H1A1.007,1.007,0,0,0,0-9V1A1.007,1.007,0,0,0,1,2H12a1.007,1.007,0,0,0,1-1Z" transform="translate(0 12)" fill="#222"/>
</svg>
