<svg width="22" height="22" viewBox="0 0 22 22" fill="none" xmlns="http://www.w3.org/2000/svg">
<path d="M10.3605 13.2521L8.85586 14.7167C8.53867 15.0254 8.03441 15.0254 7.70909 14.7246C7.61962 14.6375 7.53016 14.5583 7.44069 14.4713C6.60298 13.6479 5.8466 12.785 5.17155 11.8825C4.50463 10.98 3.96784 10.0775 3.57745 9.18292C3.1952 8.28042 3 7.4175 3 6.59417C3 6.05583 3.0976 5.54125 3.29279 5.06625C3.48799 4.58333 3.79705 4.14 4.2281 3.74417C4.74862 3.24542 5.31794 3 5.9198 3C6.14752 3 6.37525 3.0475 6.57858 3.1425C6.79004 3.2375 6.9771 3.38 7.1235 3.58583L9.01039 6.17458C9.15679 6.3725 9.26252 6.55458 9.33571 6.72875C9.40891 6.895 9.44958 7.06125 9.44958 7.21167C9.44958 7.40167 9.39265 7.59167 9.27878 7.77375C9.17305 7.95583 9.01852 8.14583 8.82333 8.33583L8.20521 8.96125C8.11574 9.04833 8.07508 9.15125 8.07508 9.27792C8.07508 9.34125 8.08321 9.39667 8.09948 9.46C8.12388 9.52333 8.14828 9.57083 8.16454 9.61833C8.31094 9.87958 8.56307 10.22 8.92092 10.6317C9.28692 11.0433 9.67731 11.4629 10.1002 11.8825C10.1816 11.9617 10.271 12.0408 10.3524 12.12C10.6777 12.4288 10.6858 12.9354 10.3605 13.2521Z" fill="white"/>
<path d="M19.2404 15.9314C19.2404 16.1531 19.1997 16.3827 19.1184 16.6043C19.094 16.6677 19.0696 16.731 19.037 16.7943C18.8988 17.0793 18.7199 17.3485 18.484 17.6018C18.0855 18.0293 17.6463 18.3381 17.1502 18.536C17.142 18.536 17.1339 18.5439 17.1258 18.5439C16.6459 18.7339 16.1254 18.8368 15.5642 18.8368C14.7346 18.8368 13.8481 18.6468 12.9128 18.2589C11.9775 17.871 11.0422 17.3485 10.115 16.6914C9.79781 16.4618 9.48061 16.2322 9.17969 15.9868L11.8392 13.3981C12.067 13.5643 12.2703 13.691 12.4411 13.7781C12.4817 13.7939 12.5305 13.8177 12.5875 13.8414C12.6525 13.8652 12.7176 13.8731 12.7908 13.8731C12.9291 13.8731 13.0348 13.8256 13.1243 13.7385L13.7424 13.1447C13.9457 12.9468 14.1409 12.7964 14.328 12.7014C14.515 12.5906 14.7021 12.5352 14.9054 12.5352C15.0599 12.5352 15.2226 12.5668 15.4015 12.6381C15.5805 12.7093 15.7675 12.8122 15.9709 12.9468L18.6629 14.8072C18.8744 14.9497 19.0208 15.116 19.1102 15.3139C19.1916 15.5118 19.2404 15.7097 19.2404 15.9314Z" fill="white"/>
</svg>
