<svg xmlns="http://www.w3.org/2000/svg" width="35.604" height="40.213" viewBox="0 0 35.604 40.213">
  <path id="cancelledJobs" d="M14.308,40.213H5.689a2.3,2.3,0,0,1-2.264-2.267V35.368H1.851A1.847,1.847,0,0,1,0,33.521V1.849A1.848,1.848,0,0,1,1.848,0H17.734a1,1,0,0,1,.791.38l9.1,8.832a1.038,1.038,0,0,1,.749.982v1.73l-.01.02h2.594a2.22,2.22,0,0,1,1.58.654,2.246,2.246,0,0,1,.654,1.6v5.5H31.234V14.2a.312.312,0,0,0-.317-.32H28.378v5.81H26.313V11.449H17.72a1.028,1.028,0,0,1-.728-.3,1.04,1.04,0,0,1-.309-.738V2.057H2.067V33.291H14.314v2.065H5.355v2.59a.328.328,0,0,0,.327.328h8.626v1.939ZM32.66,40.2H20.517a2.947,2.947,0,0,1-2.944-2.944V25.751a2.947,2.947,0,0,1,2.944-2.944v.01H32.66A2.947,2.947,0,0,1,35.6,25.761v11.5A2.947,2.947,0,0,1,32.66,40.2Zm-5.7-7.3h0l3.18,3.18A.745.745,0,0,0,31.2,35.028l-3.181-3.181L31.2,28.666a.745.745,0,0,0-1.054-1.054l-3.181,3.181L23.78,27.612a.746.746,0,0,0-1.273.527.75.75,0,0,0,.219.527l3.182,3.181-3.182,3.181a.745.745,0,0,0,1.054,1.054l3.181-3.18ZM14.3,28.266H6.542a.653.653,0,0,1-.627-.7.647.647,0,0,1,.166-.481.654.654,0,0,1,.461-.216H14.3v1.392Zm0-4.991H6.542a.7.7,0,0,1,0-1.394H14.3v1.393ZM6.539,18.283a.655.655,0,0,1-.651-.7.67.67,0,0,1,.654-.7h12.1a.655.655,0,0,1,.654.7.672.672,0,0,1-.654.7H6.539Zm0-5a.7.7,0,0,1,0-1.393H13.7a.7.7,0,0,1,0,1.393H6.539ZM10.468,8.3H6.542a.654.654,0,0,1-.627-.7.654.654,0,0,1,.627-.7h3.926a.654.654,0,0,1,.625.7.654.654,0,0,1-.625.7Z" fill="#fff"/>
</svg>
