<svg xmlns="http://www.w3.org/2000/svg" width="48.214" height="33.75" viewBox="0 0 48.214 33.75">
  <path id="cars" d="M40.982,14.3H39.777L31.582,4.06a4.823,4.823,0,0,0-3.765-1.81H11.7A4.821,4.821,0,0,0,7.225,5.281L3.616,14.474A4.81,4.81,0,0,0,0,19.125v8.438a1.205,1.205,0,0,0,1.205,1.205H4.821a7.232,7.232,0,1,0,14.464,0h9.643a7.232,7.232,0,1,0,14.464,0h3.616a1.205,1.205,0,0,0,1.205-1.205V21.536A7.232,7.232,0,0,0,40.982,14.3ZM12.054,32.384a3.616,3.616,0,1,1,3.616-3.616A3.62,3.62,0,0,1,12.054,32.384ZM17.478,14.3H8.809L11.7,7.071h5.776Zm3.616,0V7.071h6.723L33.6,14.3Zm15.067,18.08a3.616,3.616,0,1,1,3.616-3.616A3.62,3.62,0,0,1,36.161,32.384Z" transform="translate(0 -2.25)" fill="#fff"/>
</svg>
