<svg width="27" height="22" viewBox="0 0 27 22" fill="none" xmlns="http://www.w3.org/2000/svg">
<path d="M10.0408 0H6.51204H3.58741C2.59592 0 1.74966 0.347827 1.04864 1.04864C0.347827 1.74966 0 2.59592 0 3.58741V9.88505C0 10.8817 0.347827 11.7282 1.04864 12.429C1.74945 13.1246 2.59592 13.4778 3.58741 13.4778C4.51145 13.4778 5.43569 13.4778 6.35972 13.4778C6.15734 14.2669 5.89781 15.02 5.58114 15.7257C5.26962 16.4371 4.74519 17.1172 4.01323 17.7661C5.41507 17.4028 6.66114 16.8575 7.7564 16.1361C8.85188 15.4196 9.79675 14.5316 10.5859 13.4778C11.3788 13.4778 12.1722 13.4778 12.9652 13.4778C13.9567 13.4778 14.803 13.1246 15.5038 12.429C16.205 11.7282 16.5529 10.8817 16.5529 9.88505V3.58741C16.5529 2.59592 16.205 1.74945 15.5038 1.04864C14.803 0.347827 13.9567 0 12.9652 0H10.0408ZM26.3994 7.23219V13.5298C26.3994 14.1028 26.2974 14.6382 26.0918 15.1366C25.887 15.6338 25.5815 16.0854 25.1753 16.4918C24.9987 16.6667 24.8135 16.8238 24.6201 16.9619C24.4208 17.1037 24.2177 17.2242 24.01 17.3231C23.999 17.3282 23.9876 17.3332 23.9765 17.3377C23.7109 17.4612 23.434 17.5544 23.1465 17.6167C22.8481 17.6816 22.5398 17.7141 22.2204 17.7141H20.3439H20.3401H20.3362H20.3323H20.3289H20.2286C20.2685 17.8408 20.31 17.9665 20.3527 18.0911C20.4748 18.4432 20.6121 18.79 20.7648 19.1303L20.767 19.1348H20.7674C20.9051 19.4491 21.0888 19.7557 21.3182 20.0541C21.555 20.3622 21.844 20.6673 22.1847 20.9696C22.4285 21.1853 22.4511 21.5576 22.2358 21.8012C22.0839 21.9729 21.8541 22.0349 21.6467 21.9812L21.6463 21.9815C20.9146 21.7915 20.223 21.5546 19.5722 21.2705C18.921 20.9867 18.3066 20.6539 17.7289 20.2733L17.7276 20.275C17.1535 19.8996 16.6164 19.4768 16.1176 19.0081C15.6946 18.6106 15.2997 18.1794 14.933 17.7141H14.7336H14.7301H14.7258H14.7224H14.7185H12.8419C12.4513 17.7141 12.0771 17.6653 11.7198 17.5688C11.3621 17.4722 11.0213 17.3252 10.698 17.1288C10.4198 16.9604 10.3308 16.5984 10.4993 16.3202C10.6677 16.042 11.0297 15.953 11.3079 16.1215C11.5294 16.2559 11.7686 16.3582 12.0249 16.4274C12.2797 16.4961 12.5521 16.5309 12.8419 16.5309H14.7185H14.7224H14.7258H14.7301H14.7336H15.2215V16.5333C15.4007 16.5333 15.5773 16.6147 15.6926 16.769C16.0647 17.2659 16.4764 17.7263 16.9258 18.1487C17.3697 18.5657 17.8531 18.9453 18.3743 19.2863L18.373 19.288L18.3743 19.2886C18.8695 19.615 19.4006 19.9042 19.968 20.1562C19.8605 19.9744 19.7664 19.7911 19.6857 19.606C19.5241 19.2448 19.3752 18.8673 19.2388 18.4744C19.1095 18.101 18.9937 17.7171 18.8914 17.3243C18.8688 17.2612 18.8562 17.1933 18.8562 17.1224C18.8562 16.7956 19.1208 16.5309 19.4474 16.5309H20.3287H20.3321H20.336H20.3399H20.3437H22.2201C22.458 16.5309 22.6833 16.5077 22.8965 16.4613C23.0991 16.4175 23.2918 16.3533 23.4742 16.269C23.483 16.2643 23.4922 16.2596 23.5015 16.2553C23.6555 16.1818 23.8007 16.097 23.9356 16.0005C24.0766 15.8997 24.2126 15.7848 24.3428 15.6555C24.6373 15.3611 24.8565 15.0389 25.0008 14.6885C25.1448 14.3396 25.2161 13.9535 25.2161 13.5296V7.23219C25.2161 6.8111 25.1448 6.42632 25.0008 6.07785C24.8565 5.72809 24.6375 5.40604 24.3428 5.1115L24.3406 5.10913C24.0461 4.81459 23.7242 4.59545 23.3743 4.45129C23.026 4.30756 22.6412 4.23602 22.2199 4.23602H20.5285H19.2957C18.969 4.23602 18.7041 3.97112 18.7041 3.64456C18.7041 3.31779 18.9687 3.0531 19.2957 3.0531H20.5285H22.2199C22.7905 3.0531 23.3249 3.15537 23.8224 3.36076C24.3181 3.56529 24.769 3.86993 25.1748 4.27512L25.1757 4.27619L25.177 4.27727L25.1774 4.2777C25.5828 4.68332 25.887 5.13405 26.0914 5.62948C26.2974 6.12748 26.3994 6.66179 26.3994 7.23219Z" fill="white"/>
</svg>
