<svg xmlns="http://www.w3.org/2000/svg" width="20.839" height="20.862" viewBox="0 0 20.839 20.862">
  <g id="chat" transform="translate(8030 14350)">
    <path id="comments-icon" d="M8.87,18.238a6.761,6.761,0,0,0,8.2,1.469l2.584,1.157-.4-2.768c2.4-2.393,1.846-5.719-.073-8.059a9.426,9.426,0,0,1-.812,2.561,9.739,9.739,0,0,1-2.414,3.128,10.275,10.275,0,0,1-3.37,1.94,10.7,10.7,0,0,1-3.708.571ZM9.2.007h.009a9.373,9.373,0,0,1,6.235,2.617,8.132,8.132,0,0,1,2.516,6.047v.011a8.014,8.014,0,0,1-2.834,5.871,9.249,9.249,0,0,1-6.367,2.2,10.033,10.033,0,0,1-1.823-.223,8.336,8.336,0,0,1-1.465-.466l-4.327,1.5,1.3-3.51a8.466,8.466,0,0,1-1.76-2.549A7.914,7.914,0,0,1,0,8.079,8.014,8.014,0,0,1,2.837,2.2,9.251,9.251,0,0,1,9.2.007ZM9.182,1.291H9.174A8.211,8.211,0,0,0,3.518,3.224a6.69,6.69,0,0,0-2.387,4.89,6.5,6.5,0,0,0,.561,2.813,7.261,7.261,0,0,0,1.782,2.436l.336.3-.692,1.871L5.525,14.7l.183.084a7.19,7.19,0,0,0,1.444.478,8.981,8.981,0,0,0,1.642.2,8.211,8.211,0,0,0,5.656-1.934,6.69,6.69,0,0,0,2.387-4.89v-.01A6.79,6.79,0,0,0,14.714,3.6a8.313,8.313,0,0,0-5.532-2.31Z" transform="translate(-8030.001 -14350.002)" fill="#fff" fill-rule="evenodd"/>
    <path id="Icon_awesome-user-tie" data-name="Icon awesome-user-tie" d="M2.968,3.391a1.7,1.7,0,1,0-1.7-1.7A1.7,1.7,0,0,0,2.968,3.391Zm1.269.432L3.6,6.359l-.424-1.8L3.6,3.815H2.332l.424.742-.424,1.8L1.7,3.823A1.777,1.777,0,0,0,0,5.6v.551a.636.636,0,0,0,.636.636H5.3a.636.636,0,0,0,.636-.636V5.6a1.777,1.777,0,0,0-1.7-1.773Z" transform="translate(-8023.91 -14345.547)" fill="#fff"/>
  </g>
</svg>
