<svg xmlns="http://www.w3.org/2000/svg" width="21.703" height="21.703" viewBox="0 0 21.703 21.703">
  <g id="commissionIcon" transform="translate(0.002 0.012)">
    <path id="Path_4575" data-name="Path 4575" d="M3.084,8.755,1.452,5.929A.513.513,0,0,1,1.9,5.161H5.167V1.875a.516.516,0,0,1,.516-.516.524.524,0,0,1,.289.088L8.765,3.07,10.406.246a.512.512,0,0,1,.89,0L12.935,3.07,15.76,1.426a.512.512,0,0,1,.7.188.505.505,0,0,1,.068.257V5.157h3.284a.516.516,0,0,1,.516.516.524.524,0,0,1-.088.289L18.618,8.755l2.825,1.64a.512.512,0,0,1,0,.89l-2.821,1.639,1.644,2.825a.512.512,0,0,1-.188.7.505.505,0,0,1-.257.068H16.533v3.27a.516.516,0,0,1-.814.42L12.934,18.6l-1.64,2.832a.512.512,0,0,1-.89,0L8.765,18.6,5.933,20.236a.513.513,0,0,1-.768-.445h0v-3.27H1.9a.516.516,0,0,1-.42-.814l1.607-2.785L.256,11.286a.512.512,0,0,1,0-.89L3.08,8.756Zm4.8-1.619a2.149,2.149,0,0,1,1.534.542A1.888,1.888,0,0,1,10,9.118a1.888,1.888,0,0,1-.577,1.443,2.149,2.149,0,0,1-1.534.542,2.152,2.152,0,0,1-1.534-.542A1.888,1.888,0,0,1,5.782,9.12a1.888,1.888,0,0,1,.579-1.441A2.145,2.145,0,0,1,7.9,7.137Zm4.627.282h1.716L9.2,14.254H7.489ZM7.888,8.668a.408.408,0,0,0-.314.118.571.571,0,0,0,0,.673.479.479,0,0,0,.63,0,.487.487,0,0,0,.107-.337A.479.479,0,0,0,8.2,8.786a.407.407,0,0,0-.316-.118Zm5.917,1.907a2.152,2.152,0,0,1,1.534.542,1.888,1.888,0,0,1,.579,1.443A1.888,1.888,0,0,1,15.34,14a2.145,2.145,0,0,1-1.534.542A2.149,2.149,0,0,1,12.272,14a1.888,1.888,0,0,1-.577-1.441,1.888,1.888,0,0,1,.577-1.443A2.157,2.157,0,0,1,13.806,10.574Zm0,1.534a.413.413,0,0,0-.316.118.571.571,0,0,0,0,.673.406.406,0,0,0,.316.118.412.412,0,0,0,.314-.118.571.571,0,0,0,0-.673A.4.4,0,0,0,13.806,12.108Z" transform="translate(0 0)" fill="#fff" fill-rule="evenodd"/>
  </g>
</svg>
