<svg xmlns="http://www.w3.org/2000/svg" width="35.604" height="40.213" viewBox="0 0 35.604 40.213">
  <path id="completedJobs" d="M20.517,22.817H32.66A2.944,2.944,0,0,1,35.6,25.761v11.5A2.944,2.944,0,0,1,32.66,40.2H20.517a2.944,2.944,0,0,1-2.944-2.944V25.751a2.944,2.944,0,0,1,2.944-2.944Zm7.851-10.874h2.578a2.231,2.231,0,0,1,1.6.654,2.26,2.26,0,0,1,.654,1.6v5.5H31.234V14.2a.313.313,0,0,0-.324-.321H28.378v5.81H26.314V11.449h-8.58a1.037,1.037,0,0,1-1.05-1.037V2.058H2.067V33.291H14.315v2.064H5.355v2.591a.327.327,0,0,0,.327.327h8.626v1.94H5.689a2.29,2.29,0,0,1-2.264-2.267V35.368H1.851a1.852,1.852,0,0,1-1.308-.54A1.832,1.832,0,0,1,0,33.52V1.848A1.848,1.848,0,0,1,1.851,0H17.733a1.011,1.011,0,0,1,.792.379l9.1,8.832a1.03,1.03,0,0,1,.749.981v1.73ZM6.542,21.881a.7.7,0,0,0,0,1.394H14.3V21.881Zm0,4.992a.7.7,0,0,0,0,1.394H14.3V26.873Zm0-14.979a.7.7,0,0,0,0,1.394H13.7a.7.7,0,0,0,0-1.394Zm0-4.992a.654.654,0,0,0-.628.7.654.654,0,0,0,.628.7h3.925a.654.654,0,0,0,.625-.7.654.654,0,0,0-.625-.7Zm0,9.984a.671.671,0,0,0-.654.7.654.654,0,0,0,.654.7h12.1a.671.671,0,0,0,.654-.7.654.654,0,0,0-.654-.7ZM18.777,3.618,24.94,9.385H18.76V3.618ZM23.854,30,25.4,31.453l3.693-3.746c.327-.327.533-.6.939-.186l1.308,1.344c.432.425.409.674,0,1.073L26.15,35.051c-.857.841-.71.893-1.577.029l-2.944-2.915a.379.379,0,0,1,.033-.592l1.524-1.58c.232-.239.415-.222.654,0Z" fill="#fff" fill-rule="evenodd"/>
</svg>
