<svg xmlns="http://www.w3.org/2000/svg" width="6.25" height="7.317" viewBox="0 0 6.25 7.317">
  <g id="currency-symbol" transform="translate(-16.989 -17.692)">
    <path id="Path_28" data-name="Path 28" d="M16.989,25.007v-.9c.727-.242,1.536-.874,1.536-1.626a2.436,2.436,0,0,0-.04-.441H17.142V20.905h1.1a3.947,3.947,0,0,1-.111-.9c0-1.394,1.262-2.311,3.1-2.311a4.268,4.268,0,0,1,1.618.265L22.5,19.234a2.792,2.792,0,0,0-1.152-.2c-.973,0-1.275.51-1.275,1.038a2.847,2.847,0,0,0,.123.832h1.878v1.138h-1.7a1.711,1.711,0,0,1-.124.787,1.962,1.962,0,0,1-.672.787v.02h3.661V25.01h-6.25Z" fill="#fff"/>
  </g>
</svg>
