<svg width="20" height="20" viewBox="0 0 20 20" fill="none" xmlns="http://www.w3.org/2000/svg">
<path d="M1 4.78947C1 2.6966 2.6966 1 4.78947 1C6.88234 1 8.57895 2.6966 8.57895 4.78947V7.31579C8.57895 7.60947 8.57895 7.7563 8.54664 7.87678C8.45911 8.2037 8.2037 8.45911 7.87678 8.54664C7.7563 8.57895 7.60947 8.57895 7.31579 8.57895H4.78947C2.6966 8.57895 1 6.88234 1 4.78947Z" stroke="#292D32" stroke-width="2"/>
<path d="M11.4209 12.684C11.4209 12.3903 11.4209 12.2435 11.4532 12.1231C11.5407 11.7962 11.7962 11.5407 12.1231 11.4532C12.2435 11.4209 12.3903 11.4209 12.684 11.4209H15.2104C17.3032 11.4209 18.9998 13.1175 18.9998 15.2104C18.9998 17.3032 17.3032 18.9998 15.2104 18.9998C13.1175 18.9998 11.4209 17.3032 11.4209 15.2104V12.684Z" stroke="#292D32" stroke-width="2"/>
<path d="M1 15.2104C1 13.1175 2.6966 11.4209 4.78947 11.4209H7.06316C7.59373 11.4209 7.85902 11.4209 8.06168 11.5242C8.23998 11.615 8.38483 11.7599 8.47569 11.9382C8.57895 12.1408 8.57895 12.4061 8.57895 12.9367V15.2104C8.57895 17.3032 6.88234 18.9998 4.78947 18.9998C2.6966 18.9998 1 17.3032 1 15.2104Z" stroke="#292D32" stroke-width="2"/>
<path d="M11.4209 4.78947C11.4209 2.6966 13.1175 1 15.2104 1C17.3032 1 18.9998 2.6966 18.9998 4.78947C18.9998 6.88234 17.3032 8.57895 15.2104 8.57895H12.5036C12.3779 8.57895 12.315 8.57895 12.2622 8.57298C11.823 8.52353 11.4763 8.17689 11.4269 7.73765C11.4209 7.68478 11.4209 7.62194 11.4209 7.49624V4.78947Z" stroke="#292D32" stroke-width="2"/>
</svg>
