<svg id="delete" xmlns="http://www.w3.org/2000/svg" width="14.269" height="16.489" viewBox="0 0 14.269 16.489">
  <path id="Path_813" data-name="Path 813" d="M47.939,3.171H44.768a3.171,3.171,0,1,0-6.342,0H35.255a.793.793,0,1,0,0,1.585h.317v9.671a2.064,2.064,0,0,0,2.061,2.061H45.56a2.064,2.064,0,0,0,2.061-2.061V4.756h.317a.793.793,0,1,0,0-1.585ZM41.6,1.585a1.586,1.586,0,0,1,1.585,1.585H40.011A1.586,1.586,0,0,1,41.6,1.585Zm4.439,12.842a.476.476,0,0,1-.476.476H37.633a.476.476,0,0,1-.476-.476V4.756h8.879Z" transform="translate(-34.462)" fill="#ff485a"/>
  <g id="Group_13218" data-name="Group 13218" transform="translate(4.598 7.452)">
    <path id="Path_814" data-name="Path 814" d="M178.024,236.141a.793.793,0,0,1-.793-.793v-3.171a.793.793,0,1,1,1.585,0v3.171A.793.793,0,0,1,178.024,236.141Z" transform="translate(-177.231 -231.385)" fill="#ffbbc0"/>
    <path id="Path_815" data-name="Path 815" d="M286.332,236.141a.793.793,0,0,1-.793-.793v-3.171a.793.793,0,1,1,1.585,0v3.171A.793.793,0,0,1,286.332,236.141Z" transform="translate(-282.051 -231.385)" fill="#ffbbc0"/>
  </g>
</svg>
