<svg width="24" height="24" viewBox="0 0 24 24" fill="none" xmlns="http://www.w3.org/2000/svg">
<circle cx="12" cy="12" r="11.5" fill="white" stroke="#FB6A57"/>
<path d="M16.7997 9.18952C15.0237 9.01352 13.237 8.92285 11.4557 8.92285C10.3997 8.92285 9.34371 8.97618 8.28771 9.08285L7.19971 9.18952" stroke="#FB6A57" stroke-width="1.5" stroke-linecap="round" stroke-linejoin="round"/>
<path d="M10.1333 8.65041L10.2506 7.95174C10.336 7.44507 10.4 7.06641 11.3013 7.06641H12.6986C13.6 7.06641 13.6693 7.46641 13.7493 7.95707L13.8666 8.65041" stroke="#FB6A57" stroke-width="1.5" stroke-linecap="round" stroke-linejoin="round"/>
<path d="M15.6533 10.874L15.3067 16.2447C15.248 17.082 15.2 17.7327 13.712 17.7327H10.288C8.80001 17.7327 8.75201 17.082 8.69335 16.2447L8.34668 10.874" stroke="#FB6A57" stroke-width="1.5" stroke-linecap="round" stroke-linejoin="round"/>
<path d="M11.1094 14.7998H12.8854" stroke="#FB6A57" stroke-width="1.5" stroke-linecap="round" stroke-linejoin="round"/>
<path d="M10.667 12.667H13.3337" stroke="#FB6A57" stroke-width="1.5" stroke-linecap="round" stroke-linejoin="round"/>
</svg>
