<svg width="24" height="24" viewBox="0 0 24 24" fill="none" xmlns="http://www.w3.org/2000/svg">
<circle cx="12" cy="12" r="11.5" fill="white" stroke="#211925"/>
<path d="M11.5833 7.83398H10.7499C8.66659 7.83398 7.83325 8.66732 7.83325 10.7507V13.2507C7.83325 15.334 8.66659 16.1673 10.7499 16.1673H13.2499C15.3333 16.1673 16.1666 15.334 16.1666 13.2507V12.4173" stroke="#211925" stroke-linecap="round" stroke-linejoin="round"/>
<path d="M13.6843 8.25819L10.4009 11.5415C10.2759 11.6665 10.1509 11.9124 10.1259 12.0915L9.94676 13.3457C9.88009 13.7999 10.2009 14.1165 10.6551 14.054L11.9093 13.8749C12.0843 13.8499 12.3301 13.7249 12.4593 13.5999L15.7426 10.3165C16.3093 9.74986 16.5759 9.09153 15.7426 8.25819C14.9093 7.42486 14.2509 7.69153 13.6843 8.25819Z" stroke="#211925" stroke-miterlimit="10" stroke-linecap="round" stroke-linejoin="round"/>
<path d="M13.2124 8.72852C13.4916 9.72435 14.2707 10.5035 15.2707 10.7868" stroke="#211925" stroke-miterlimit="10" stroke-linecap="round" stroke-linejoin="round"/>
</svg>
