<svg xmlns="http://www.w3.org/2000/svg" width="14.269" height="14.711" viewBox="0 0 14.269 14.711">
  <path id="edit" d="M12.718,8.231,10.58,6.093,5.236,11.437l2.138,2.138Zm1.069-1.069.534-.534A1.512,1.512,0,0,0,12.184,4.49l-.534.534ZM6.3,14.644l1.069-1.069ZM4.167,12.506l-.534,2.672L6.3,14.644Zm6.176,4.74a.756.756,0,0,1,0-1.512h5.291a.756.756,0,1,1,0,1.512ZM15.39,3.421a3.023,3.023,0,0,1,0,4.275L7.374,15.713a1.512,1.512,0,0,1-.772.413l-2.672.534A1.512,1.512,0,0,1,2.15,14.882l.534-2.672a1.512,1.512,0,0,1,.413-.772l8.016-8.016A3.023,3.023,0,0,1,15.39,3.421Z" transform="translate(-2.12 -2.536)" fill="#727272"/>
</svg>
