<svg width="24" height="24" viewBox="0 0 24 24" fill="none" xmlns="http://www.w3.org/2000/svg">
<circle cx="12" cy="12" r="11.5" fill="white" stroke="#3A2C41"/>
<path d="M11.5 7H10.5C8 7 7 8 7 10.5V13.5C7 16 8 17 10.5 17H13.5C16 17 17 16 17 13.5V12.5" stroke="#3A2C41" stroke-width="1.5" stroke-linecap="round" stroke-linejoin="round"/>
<path d="M14.0199 7.51061L10.0799 11.4506C9.92994 11.6006 9.77994 11.8956 9.74994 12.1106L9.53494 13.6156C9.45494 14.1606 9.83994 14.5406 10.3849 14.4656L11.8899 14.2506C12.0999 14.2206 12.3949 14.0706 12.5499 13.9206L16.4899 9.98061C17.1699 9.30061 17.4899 8.51061 16.4899 7.51061C15.4899 6.51061 14.6999 6.83061 14.0199 7.51061Z" stroke="#3A2C41" stroke-width="1.5" stroke-miterlimit="10" stroke-linecap="round" stroke-linejoin="round"/>
<path d="M13.4551 8.07422C13.7901 9.26922 14.7251 10.2042 15.9251 10.5442" stroke="#3A2C41" stroke-width="1.5" stroke-miterlimit="10" stroke-linecap="round" stroke-linejoin="round"/>
</svg>
