<svg width="21" height="21" viewBox="0 0 21 21" fill="none" xmlns="http://www.w3.org/2000/svg">
<g clip-path="url(#clip0_1947_2716)">
<path d="M10.5 21C16.299 21 21 16.299 21 10.5C21 4.70101 16.299 0 10.5 0C4.70101 0 0 4.70101 0 10.5C0 16.299 4.70101 21 10.5 21Z" fill="#EC881D"/>
<path d="M7.31422 11.3723L7.30019 11.354L7.28098 11.3444C7.26086 11.331 7.2371 11.3237 7.21262 11.3237C7.18144 11.3237 7.15141 11.3355 7.12858 11.3568L7.12635 11.359L6.87473 11.6085L6.86895 11.6142L6.86418 11.6208C6.84879 11.642 6.84051 11.6675 6.84051 11.6938C6.84051 11.7187 6.84799 11.7429 6.86193 11.7635C7.2823 12.4179 7.84617 12.9679 8.51079 13.372C9.14977 13.7558 9.88386 13.9532 10.6291 13.9416C11.3643 13.9247 12.0803 13.6987 12.6919 13.2904C13.2806 12.8915 13.7714 12.3637 14.1265 11.7477C14.1403 11.7275 14.1477 11.7036 14.1477 11.6789C14.1477 11.6502 14.1376 11.6224 14.1191 11.6004L14.1127 11.5935L13.8675 11.3514L13.86 11.3441L13.8513 11.3384C13.8244 11.3212 13.7918 11.315 13.7605 11.3213C13.7292 11.3275 13.7016 11.3456 13.6834 11.3717C13.4815 11.6616 13.2362 11.9186 12.9562 12.1339C12.2804 12.6458 11.4569 12.925 10.609 12.9296H10.6079C9.73996 12.9446 8.88902 12.6885 8.17367 12.1968C7.84684 11.9674 7.55701 11.6894 7.31422 11.3723ZM13.3317 5.58218C13.9772 5.95418 14.5429 6.45006 14.9963 7.04124C15.4497 7.63243 15.7818 8.30733 15.9737 9.02722C16.3137 10.296 16.2032 11.6435 15.6611 12.8399C15.1189 14.0363 14.1787 15.0077 13.0005 15.5885C11.8224 16.1693 10.4793 16.3236 9.20018 16.0251C7.92103 15.7266 6.78499 14.9937 5.98566 13.9514C5.18633 12.9091 4.77318 11.6218 4.81663 10.309C4.86007 8.99626 5.35741 7.73914 6.2239 6.75196C7.09038 5.76478 8.27239 5.10863 9.56847 4.89532C10.8646 4.68201 12.1945 4.92476 13.3317 5.58218ZM13.2202 4.48636C11.8288 3.85707 10.2622 3.72974 8.78749 4.12606C7.95058 4.34966 7.16609 4.73639 6.47907 5.26405C5.79207 5.79169 5.21608 6.44985 4.78416 7.20073C4.0208 8.52334 3.73971 10.0697 3.98878 11.5764C4.23786 13.083 5.00171 14.4567 6.15015 15.4633C7.29859 16.4699 8.76054 17.047 10.2869 17.0964C11.8132 17.1459 13.3094 16.6644 14.5206 15.7342C15.7317 14.8041 16.5828 13.4826 16.9288 11.9952C17.2748 10.5078 17.0942 8.94647 16.418 7.57724C15.7417 6.20802 14.6116 5.11567 13.2202 4.48636ZM12.9351 8.70966C12.9351 8.38113 12.8434 8.07925 12.6898 7.85676C12.5366 7.63468 12.3149 7.48369 12.058 7.48369C11.8011 7.48369 11.5794 7.63501 11.4262 7.85717C11.2727 8.07976 11.1809 8.38163 11.1809 8.70966C11.1809 9.0377 11.2727 9.33932 11.4262 9.56167C11.5795 9.7836 11.8012 9.93458 12.058 9.93458C12.3148 9.93458 12.5365 9.78393 12.6898 9.56208C12.8434 9.33983 12.9351 9.0382 12.9351 8.70966ZM9.80774 8.70966C9.80774 8.38113 9.716 8.07925 9.56248 7.85676C9.40924 7.63468 9.18753 7.48369 8.93066 7.48369C8.67372 7.48369 8.45202 7.63501 8.29883 7.85717C8.14534 8.07976 8.05358 8.38163 8.05358 8.70966C8.05358 9.0377 8.14534 9.33932 8.29886 9.56167C8.4521 9.7836 8.6738 9.93458 8.93066 9.93458C9.18744 9.93458 9.40916 9.78393 9.56244 9.56208C9.71599 9.33983 9.80774 9.0382 9.80774 8.70966Z" fill="white" stroke="white" stroke-width="0.2"/>
</g>
<defs>
<clipPath id="clip0_1947_2716">
<rect width="21" height="21" fill="white"/>
</clipPath>
</defs>
</svg>
