<svg width="22" height="22" viewBox="0 0 22 22" fill="none" xmlns="http://www.w3.org/2000/svg">
<path d="M19.2218 0.916504H16.5268C15.7293 0.916504 15.1427 1.2465 14.8768 1.83317C14.7302 2.099 14.666 2.41067 14.666 2.77734V5.47234C14.666 6.6365 15.3627 7.33317 16.5268 7.33317H19.2218C19.5885 7.33317 19.9002 7.269 20.166 7.12234C20.7527 6.8565 21.0827 6.26984 21.0827 5.47234V2.77734C21.0827 1.61317 20.386 0.916504 19.2218 0.916504ZM20.0835 4.519C19.9918 4.61067 19.8543 4.67484 19.7077 4.684H18.4152V5.1515L18.4243 5.95817C18.4152 6.114 18.3602 6.24234 18.2502 6.35234C18.1585 6.444 18.021 6.50817 17.8743 6.50817C17.5718 6.50817 17.3243 6.26067 17.3243 5.95817V4.67484L16.041 4.684C15.7385 4.684 15.491 4.42734 15.491 4.12484C15.491 3.82234 15.7385 3.57484 16.041 3.57484L16.8477 3.584H17.3243V2.30067C17.3243 1.99817 17.5718 1.7415 17.8743 1.7415C18.1768 1.7415 18.4243 1.99817 18.4243 2.30067L18.4152 2.9515V3.57484H19.7077C20.0102 3.57484 20.2577 3.82234 20.2577 4.12484C20.2485 4.28067 20.1843 4.409 20.0835 4.519Z" fill="#EC881D"/>
<path d="M8.25003 9.51519C9.45493 9.51519 10.4317 8.53842 10.4317 7.33352C10.4317 6.12862 9.45493 5.15186 8.25003 5.15186C7.04512 5.15186 6.06836 6.12862 6.06836 7.33352C6.06836 8.53842 7.04512 9.51519 8.25003 9.51519Z" fill="#EC881D"/>
<path d="M19.2232 7.3335H18.7923V11.5593L18.6732 11.4585C17.9582 10.8443 16.8032 10.8443 16.0882 11.4585L12.2748 14.731C11.5598 15.3452 10.4048 15.3452 9.68982 14.731L9.37815 14.4743C8.72732 13.906 7.69148 13.851 6.95815 14.346L3.52982 16.6468C3.32815 16.1335 3.20898 15.5377 3.20898 14.841V7.15933C3.20898 4.57433 4.57482 3.2085 7.15982 3.2085H14.6673V2.77766C14.6673 2.411 14.7315 2.09933 14.8782 1.8335H7.15982C3.82315 1.8335 1.83398 3.82266 1.83398 7.15933V14.841C1.83398 15.8402 2.00815 16.711 2.34732 17.4443C3.13565 19.186 4.82232 20.1668 7.15982 20.1668H14.8415C18.1782 20.1668 20.1673 18.1777 20.1673 14.841V7.12266C19.9015 7.26933 19.5898 7.3335 19.2232 7.3335Z" fill="#EC881D"/>
</svg>
