<svg id="passport-icon" xmlns="http://www.w3.org/2000/svg" width="13.13" height="18.064" viewBox="0 0 13.13 18.064">
  <path id="Path_2607" data-name="Path 2607" d="M12.773,1.43a.313.313,0,0,1,.1.015.347.347,0,0,1,.259.335V17.717a.348.348,0,0,1-.347.347H.994a1,1,0,0,1-.994-1V.941A.332.332,0,0,1,.038.784,1.062,1.062,0,0,1,1.063,0H12.775a.347.347,0,0,1,0,.694H1.063a.369.369,0,0,0,0,.738h11.71ZM9.541,9.458c.029-.053.057-.106.085-.162s.062-.129.091-.2l0,0h0s0,0,0-.006c.041-.1.079-.2.11-.3a2.838,2.838,0,0,0,.081-.32h0c.016-.084.031-.169.041-.256s.016-.15.019-.225H9.017a3.1,3.1,0,0,1-.131.753,3.71,3.71,0,0,1-.307.72h.961ZM9.72,9.1Zm0,0Zm-.442.764H8.331a5.813,5.813,0,0,1-.545.667,8.047,8.047,0,0,1-.622.591h0c.04-.006.079-.013.121-.022h0c.11-.022.218-.05.323-.082a3.052,3.052,0,0,0,.312-.115h0a3.145,3.145,0,0,0,.3-.146c.1-.053.19-.109.279-.168h0c.09-.06.176-.123.259-.191A3,3,0,0,0,9,10.179H9c.059-.059.116-.121.171-.182.04-.044.076-.088.112-.135ZM6.04,11.119a8.047,8.047,0,0,1-.622-.591,5.942,5.942,0,0,1-.545-.667H3.929c.035.047.074.091.112.135.053.062.11.122.171.182h0c.076.076.156.148.238.218s.169.131.259.191h0q.135.09.278.168c.1.053.2.1.3.146l0,0h0l.006,0c.1.041.2.079.3.11a2.838,2.838,0,0,0,.32.081c.04.009.079.016.118.022ZM5.294,10.9ZM3.662,9.461h.96a3.741,3.741,0,0,1-.309-.723,3.084,3.084,0,0,1-.129-.75H3.228c0,.075.012.15.021.225s.024.171.04.256h0c.022.11.05.218.082.323a3.052,3.052,0,0,0,.115.312h0c.026.065.057.128.088.193s.059.112.088.165ZM3.227,7.588h.964a3.24,3.24,0,0,1,.156-.745,4.167,4.167,0,0,1,.326-.728H3.66c-.031.054-.06.109-.088.166s-.062.128-.088.193l0,0h0s0,0,0,.006c-.041.1-.079.2-.11.3a2.838,2.838,0,0,0-.081.32h0c-.016.084-.031.169-.041.256s-.015.147-.019.223Zm.256-1.111Zm0,0Zm.442-.763h1a6.412,6.412,0,0,1,.535-.663q.273-.3.607-.6l-.019,0c-.044.007-.088.015-.131.024h0c-.11.022-.218.05-.323.082a3.052,3.052,0,0,0-.312.115h0a3.144,3.144,0,0,0-.3.146c-.1.053-.19.109-.281.169s-.176.123-.259.191a3,3,0,0,0-.238.218h0c-.059.059-.116.119-.169.182a1.484,1.484,0,0,0-.115.137ZM7.134,4.451q.333.3.606.6a6.76,6.76,0,0,1,.534.663h1c-.035-.047-.074-.091-.112-.135-.053-.062-.11-.122-.171-.182-.078-.078-.157-.15-.238-.218s-.169-.131-.259-.191h0q-.135-.09-.278-.168c-.1-.053-.2-.1-.3-.146l0,0h0l-.006,0c-.1-.041-.2-.079-.3-.11a2.838,2.838,0,0,0-.32-.081h0c-.047-.009-.091-.018-.134-.024l-.015,0Zm.778.221ZM9.541,6.115H8.528a3.959,3.959,0,0,1,.326.728,3.224,3.224,0,0,1,.156.745h.964c0-.075-.012-.15-.021-.225s-.024-.171-.04-.256h0c-.022-.11-.05-.218-.082-.323a3.052,3.052,0,0,0-.115-.312h0c-.028-.065-.057-.128-.088-.193s-.057-.11-.088-.165Zm-3.7-2.033a3.461,3.461,0,0,1,.373-.056A3.733,3.733,0,0,1,6.6,4.007a3.8,3.8,0,0,1,.759.075h0c.121.024.24.054.357.09A3.335,3.335,0,0,1,8.06,4.3l.009,0h0l.007,0c.11.049.219.1.323.157s.213.122.316.19A3.389,3.389,0,0,1,9,4.866a3.6,3.6,0,0,1,.27.245h0a3.478,3.478,0,0,1,.459.559h0c.068.1.131.206.19.313s.112.218.16.331a3.261,3.261,0,0,1,.129.353q.055.179.093.362a3.461,3.461,0,0,1,.056.373,3.733,3.733,0,0,1,.019.385,3.8,3.8,0,0,1-.075.759h0c-.024.121-.054.24-.09.357a3.335,3.335,0,0,1-.126.344s0,.006,0,.009l0,.007c-.049.113-.1.222-.159.328S9.8,9.8,9.735,9.9a3.389,3.389,0,0,1-.213.288c-.078.094-.159.184-.245.27a3.478,3.478,0,0,1-.559.459h0q-.15.1-.313.19c-.107.059-.218.112-.331.16a3.261,3.261,0,0,1-.353.129q-.179.055-.362.093a3.461,3.461,0,0,1-.373.056,3.905,3.905,0,0,1-.772,0,3.544,3.544,0,0,1-.375-.056h0c-.121-.024-.24-.054-.357-.09a3.335,3.335,0,0,1-.344-.126l-.009,0-.006,0c-.11-.049-.219-.1-.323-.157s-.213-.122-.316-.19a3.389,3.389,0,0,1-.288-.213,3.6,3.6,0,0,1-.27-.245h0A3.478,3.478,0,0,1,3.466,9.9h0c-.068-.1-.131-.206-.19-.313s-.112-.218-.16-.331a3.261,3.261,0,0,1-.129-.353q-.055-.179-.093-.362a3.461,3.461,0,0,1-.056-.373,3.733,3.733,0,0,1-.019-.385,3.829,3.829,0,0,1,.075-.76h0c.024-.121.054-.24.09-.357a3.336,3.336,0,0,1,.126-.344s0-.006,0-.009l0-.007c.049-.113.1-.222.159-.328s.122-.212.188-.312a3.389,3.389,0,0,1,.213-.288c.078-.094.159-.184.245-.27a3.478,3.478,0,0,1,.559-.459h0q.15-.1.313-.19c.107-.059.218-.112.331-.16a3.261,3.261,0,0,1,.353-.129c.119-.035.24-.066.363-.091Zm.96.607V5.714h.978a6.683,6.683,0,0,0-.438-.507C7.177,5.036,7,4.863,6.8,4.689Zm0,1.426V7.588H8.61a2.914,2.914,0,0,0-.168-.717,3.866,3.866,0,0,0-.381-.754H6.8Zm0,1.873V9.461H8.118a3.531,3.531,0,0,0,.36-.745,2.748,2.748,0,0,0,.141-.728Zm0,1.873V10.9q.311-.26.572-.523a6.129,6.129,0,0,0,.462-.519H6.8ZM6.4,10.9V9.862H5.367a6.075,6.075,0,0,0,.46.519q.26.26.573.522Zm0-1.442V7.988H4.584a2.715,2.715,0,0,0,.143.728,3.6,3.6,0,0,0,.359.745Zm0-1.873V6.115H5.141a4.037,4.037,0,0,0-.381.754,2.929,2.929,0,0,0-.168.717H6.4Zm0-1.873V4.689q-.293.26-.54.517a6.409,6.409,0,0,0-.438.507H6.4ZM2.733,13.887a.347.347,0,0,1,0-.694h7.656a.347.347,0,0,1,0,.694ZM4.144,15.7a.347.347,0,0,1,0-.694H8.976a.347.347,0,0,1,0,.694Zm8.294-13.58H1.063a1.059,1.059,0,0,1-.369-.066V17.07a.305.305,0,0,0,.088.213A.3.3,0,0,0,1,17.371H12.439V2.124Z" fill="#fff"/>
</svg>
