<svg id="home" xmlns="http://www.w3.org/2000/svg" width="14.777" height="14.171" viewBox="0 0 14.777 14.171">
  <g id="Group_14694" data-name="Group 14694">
    <path id="Path_3786" data-name="Path 3786" d="M14.609,17.012,8.595,10.958l-.024-.023a1.73,1.73,0,0,0-2.308,0l-.024.023L.17,17.011a.577.577,0,0,0,.815.817l.458-.457v4.984a2.311,2.311,0,0,0,2.309,2.309H5.83a.577.577,0,0,0,.577-.577v-4.7h2.02v4.7A.577.577,0,0,0,9,24.663h2.02a2.311,2.311,0,0,0,2.309-2.309.577.577,0,1,0-1.154,0,1.156,1.156,0,0,1-1.154,1.154H9.582V18.8A.577.577,0,0,0,9,18.227H5.83a.577.577,0,0,0-.577.577v4.7h-1.5A1.156,1.156,0,0,1,2.6,22.354V16.236q0-.009,0-.017l4.443-4.434a.577.577,0,0,1,.749,0l4.39,4.419v3.264a.577.577,0,1,0,1.154,0v-2.1l.456.459a.577.577,0,1,0,.819-.814Z" transform="translate(0 -10.492)" fill="#2c2c2c"/>
  </g>
</svg>
