<svg width="38" height="38" viewBox="0 0 38 38" fill="none" xmlns="http://www.w3.org/2000/svg">
<path d="M33.3766 13.5844V24.4144C33.3766 26.1877 32.4266 27.8344 30.8908 28.7369L21.4858 34.1677C19.9499 35.0544 18.0499 35.0544 16.4983 34.1677L7.09326 28.7369C5.55742 27.8503 4.60742 26.2035 4.60742 24.4144V13.5844C4.60742 11.8111 5.55742 10.1643 7.09326 9.26184L16.4983 3.83102C18.0341 2.94435 19.9341 2.94435 21.4858 3.83102L30.8908 9.26184C32.4266 10.1643 33.3766 11.7952 33.3766 13.5844Z" stroke="#292D32" stroke-width="1.5" stroke-linecap="round" stroke-linejoin="round"/>
<path d="M19.0002 17.4174C21.0377 17.4174 22.6894 15.7656 22.6894 13.7282C22.6894 11.6907 21.0377 10.0391 19.0002 10.0391C16.9627 10.0391 15.311 11.6907 15.311 13.7282C15.311 15.7656 16.9627 17.4174 19.0002 17.4174Z" stroke="#292D32" stroke-width="1.5" stroke-linecap="round" stroke-linejoin="round"/>
<path d="M25.3334 26.3803C25.3334 23.5303 22.4992 21.2188 19.0001 21.2188C15.5009 21.2188 12.6667 23.5303 12.6667 26.3803" stroke="#292D32" stroke-width="1.5" stroke-linecap="round" stroke-linejoin="round"/>
</svg>
