<svg width="34" height="30" viewBox="0 0 34 30" fill="none" xmlns="http://www.w3.org/2000/svg">
<path d="M27.5304 10.0951V22.0241C27.5304 25.6945 25.0664 26.918 22.0243 26.918H11.0122C7.97007 26.918 5.5061 25.6945 5.5061 22.0241V10.0951C5.5061 6.11879 7.97007 5.20117 11.0122 5.20117C11.0122 5.95973 11.3563 6.64488 11.9206 7.14651C12.485 7.64814 13.2559 7.95401 14.1093 7.95401H18.9272C20.634 7.95401 22.0243 6.71829 22.0243 5.20117C25.0664 5.20117 27.5304 6.11879 27.5304 10.0951Z" stroke="#292D32" stroke-width="1.5" stroke-linecap="round" stroke-linejoin="round"/>
<path d="M22.0244 5.20011C22.0244 6.71723 20.6341 7.95295 18.9272 7.95295H14.1094C13.2559 7.95295 12.485 7.64707 11.9207 7.14544C11.3563 6.64381 11.0122 5.95867 11.0122 5.20011C11.0122 3.68299 12.4025 2.44727 14.1094 2.44727H18.9272C19.7806 2.44727 20.5515 2.75314 21.1159 3.25477C21.6803 3.7564 22.0244 4.44155 22.0244 5.20011Z" stroke="#292D32" stroke-width="1.5" stroke-linecap="round" stroke-linejoin="round"/>
<path d="M11.0122 15.9043H16.5183" stroke="#292D32" stroke-width="1.5" stroke-linecap="round" stroke-linejoin="round"/>
<path d="M11.0122 20.8008H22.0244" stroke="#292D32" stroke-width="1.5" stroke-linecap="round" stroke-linejoin="round"/>
</svg>
