<svg xmlns="http://www.w3.org/2000/svg" width="14.599" height="14.599" viewBox="0 0 14.599 14.599">
  <path id="info" d="M7.3,0a7.3,7.3,0,1,0,7.3,7.3A7.3,7.3,0,0,0,7.3,0ZM8.819,11.312q-.564.222-.9.339a2.372,2.372,0,0,1-.78.117,1.554,1.554,0,0,1-1.061-.333A1.075,1.075,0,0,1,5.7,10.59a3.068,3.068,0,0,1,.028-.407c.019-.138.049-.294.091-.469l.47-1.661c.041-.159.077-.311.106-.452a2,2,0,0,0,.042-.391.6.6,0,0,0-.131-.443.744.744,0,0,0-.5-.124A1.318,1.318,0,0,0,5.43,6.7c-.127.039-.237.074-.327.109L5.228,6.3q.462-.188.884-.322a2.611,2.611,0,0,1,.8-.135,1.525,1.525,0,0,1,1.046.328,1.088,1.088,0,0,1,.367.85q0,.108-.025.381a2.551,2.551,0,0,1-.094.5L7.734,9.555c-.038.133-.072.285-.1.455a2.4,2.4,0,0,0-.045.387.556.556,0,0,0,.148.45.827.827,0,0,0,.511.12,1.482,1.482,0,0,0,.387-.06,2.2,2.2,0,0,0,.313-.105ZM8.736,4.591a1.116,1.116,0,0,1-.788.3,1.128,1.128,0,0,1-.791-.3.971.971,0,0,1-.329-.737.98.98,0,0,1,.329-.739,1.12,1.12,0,0,1,.791-.307,1.107,1.107,0,0,1,.788.307,1,1,0,0,1,0,1.476Z" fill="#110358"/>
</svg>
