<svg width="21" height="12" viewBox="0 0 21 12" fill="none" xmlns="http://www.w3.org/2000/svg">
<g clip-path="url(#clip0_1059_2355)">
<path fill-rule="evenodd" clip-rule="evenodd" d="M1.22193 0H15.0186C15.6901 0 16.2405 0.614797 16.2405 1.36516V3.06826L21 1.1685V9.9494L16.2405 8.15466V10.6368C16.2405 11.3871 15.6901 12 15.0186 12H1.22193C0.550293 12 0 11.3871 0 10.6368V1.36516C0 0.614797 0.550293 0 1.22193 0ZM4.47925 3.05681V7.76897H5.30468V8.94511H3.10693V3.05681H4.47925ZM7.07178 3.05681V8.94511H5.69946V3.05681H7.07178ZM10.9289 3.05681L10.2351 8.94511H8.1604L7.36572 3.05681H8.81153C8.97388 4.67971 9.0935 6.05442 9.1687 7.17709C9.24218 6.04105 9.31739 5.03484 9.39429 4.15465L9.48486 3.05681H10.9289ZM11.2246 3.05681H13.5095V4.23294H12.597V5.35752H13.4497V6.47447H12.597V7.76897H13.6035V8.94511H11.2246V3.05681Z" fill="white"/>
</g>
<defs>
<clipPath id="clip0_1059_2355">
<rect width="21" height="12" fill="white"/>
</clipPath>
</defs>
</svg>
