<svg width="222" height="69" viewBox="0 0 222 69" fill="none" xmlns="http://www.w3.org/2000/svg">
<g clip-path="url(#clip0_1947_2723)">
<path d="M40.9199 55.9211C40.7418 50.3418 21.5881 66.275 20.6959 50.2729C20.6304 49.0929 19.5026 47.9025 18.8906 47.3343C18.677 47.138 18.403 47.0095 18.1073 46.967C17.7242 46.9374 17.356 46.8143 17.0393 46.6099C16.7226 46.4055 16.4685 46.1269 16.3021 45.8019C15.7391 44.5564 17.477 43.8505 17.477 43.8505L16.6326 43.5922C16.2948 43.4983 16.0011 43.2995 15.7998 43.0283C15.5985 42.7571 15.5015 42.4297 15.525 42.1C15.58 41.3653 15.6535 40.4757 15.7208 40.0739C15.7566 39.872 15.7195 39.6646 15.6153 39.4847C15.5111 39.3048 15.3457 39.1627 15.1456 39.081L13.273 38.3177C13.0533 38.2285 12.8545 38.0994 12.6883 37.9377C12.5221 37.7761 12.3917 37.5851 12.3046 37.3759C12.2175 37.1667 12.1756 36.9434 12.1811 36.7189C12.1866 36.4943 12.2395 36.2731 12.3367 36.0678L16.7978 26.6265C17.0884 25.9951 17.2591 25.3209 17.302 24.6343C13.2932 24.2624 13.4327 22.3805 13.4327 22.3805C14.3149 22.9023 15.3344 23.1841 16.3774 23.1943C16.5106 23.1922 16.6419 23.1647 16.7633 23.1134C16.8847 23.062 16.9937 22.988 17.0836 22.8958C17.1735 22.8036 17.2423 22.6952 17.286 22.5772C17.3297 22.4592 17.3472 22.334 17.3375 22.2094C17.198 20.4302 16.8908 18.4048 16.7305 17.6271C16.6754 17.1833 16.657 16.7362 16.6754 16.2898C16.2042 5.24715 34.0851 -0.0962581 30.2299 0.00131207C14.913 4.12222 0 17.2701 0 35.3596C0 57.4294 11.2499 67.3856 23.0616 68.6867C30.5273 69.5091 37.6258 64.8149 40.2866 58.4016C40.6708 57.6223 40.8861 56.7791 40.9199 55.9211Z" fill="#EC881D"/>
<path d="M43.5577 8.575C42.7376 8.56992 41.9206 8.66925 41.129 8.87026C41.7935 8.09463 42.2984 7.20999 42.6181 6.26142C43.5119 3.70043 41.614 0.818359 41.614 0.818359C41.614 0.818359 38.2669 2.08951 37.3731 4.6505C37.0385 5.57737 36.8869 6.55363 36.9256 7.53147C36.409 6.92036 35.8049 6.37901 35.1304 5.92274C32.809 4.33436 29.3 5.13597 29.3 5.13597C29.3 5.13597 29.5557 8.51343 31.8771 10.1018C32.5033 10.5333 33.1858 10.8879 33.9081 11.1569C32.9826 11.4284 32.1116 11.842 31.3305 12.3807C29.0015 13.9598 28.7305 17.3361 28.7305 17.3361C28.7305 17.3361 32.236 18.1515 34.565 16.5725C35.5772 15.912 36.4156 15.0441 37.0165 14.0346C36.865 15.1818 36.994 16.3464 37.3936 17.44C38.2734 20.0049 41.6164 21.2887 41.6164 21.2887C41.6164 21.2887 43.5272 18.416 42.6445 15.8517C42.3629 15.0133 41.9404 14.2225 41.3929 13.5089C42.0978 13.667 42.82 13.7467 43.5448 13.7465C46.4186 13.7525 48.7552 11.1701 48.7552 11.1701C48.7552 11.1701 46.4321 8.58105 43.5577 8.575ZM38.0194 11.8188C37.7501 11.8187 37.4869 11.7438 37.263 11.6035C37.0392 11.4632 36.8647 11.2638 36.7617 11.0305C36.6587 10.7972 36.6318 10.5406 36.6844 10.293C36.7369 10.0454 36.8666 9.81799 37.0571 9.63948C37.2475 9.46097 37.4901 9.33939 37.7542 9.29011C38.0183 9.24083 38.2921 9.26607 38.5409 9.36263C38.7897 9.45919 39.0024 9.62274 39.1521 9.8326C39.3018 10.0425 39.3817 10.2892 39.3819 10.5417C39.3814 10.88 39.2376 11.2044 38.9821 11.4435C38.7267 11.6826 38.3804 11.8168 38.0194 11.8166V11.8188Z" fill="#EC881D"/>
<path d="M135.549 30.0309C134.915 29.6838 134.266 29.3971 133.602 29.1707C132.953 28.9444 132.342 28.8312 131.769 28.8312C131.059 28.8312 130.501 28.9745 130.093 29.2613C129.686 29.548 129.482 29.9781 129.482 30.5516C129.482 30.9439 129.633 31.2986 129.935 31.6155C130.252 31.9173 130.652 32.1889 131.135 32.4304C131.633 32.6718 132.146 32.8907 132.674 33.0868C133.157 33.2679 133.632 33.4868 134.1 33.7433C134.583 33.9848 135.013 34.2941 135.39 34.6714C135.768 35.0336 136.069 35.4939 136.296 36.0522C136.522 36.5955 136.635 37.2671 136.635 38.0669C136.635 38.912 136.417 39.6967 135.979 40.4211C135.541 41.1455 134.9 41.734 134.055 42.1867C133.21 42.6244 132.168 42.8432 130.931 42.8432C130.297 42.8432 129.648 42.7828 128.984 42.6621C128.335 42.5263 127.694 42.3301 127.06 42.0736C126.426 41.8019 125.815 41.4624 125.227 41.0549L126.675 38.497C127.068 38.7837 127.49 39.0403 127.943 39.2666C128.411 39.4779 128.879 39.6439 129.346 39.7646C129.814 39.8854 130.244 39.9457 130.637 39.9457C131.029 39.9457 131.421 39.8929 131.814 39.7873C132.221 39.6665 132.553 39.4703 132.81 39.1987C133.081 38.9271 133.217 38.5498 133.217 38.0669C133.217 37.7349 133.104 37.4331 132.878 37.1614C132.666 36.8898 132.372 36.6408 131.995 36.4144C131.633 36.1881 131.233 35.9919 130.795 35.8259C130.282 35.6297 129.754 35.4033 129.211 35.1468C128.667 34.8902 128.154 34.5809 127.671 34.2187C127.204 33.8414 126.819 33.3811 126.517 32.8378C126.23 32.2795 126.087 31.6004 126.087 30.8006C126.087 29.8347 126.298 28.9972 126.721 28.2879C127.158 27.5786 127.769 27.0202 128.554 26.6128C129.339 26.1902 130.244 25.9563 131.271 25.9111C132.614 25.9111 133.7 26.0695 134.53 26.3864C135.375 26.7033 136.13 27.0806 136.794 27.5183L135.549 30.0309Z" fill="#EC881D"/>
<path d="M139.85 26.0015H151.214V29.1706H143.132V32.7246H150.285V35.8937H143.132V39.4929H151.53V42.662H139.85V26.0015Z" fill="#EC881D"/>
<path d="M159.974 26.0015C161.015 26.0015 161.944 26.1373 162.759 26.409C163.573 26.6655 164.253 27.0428 164.796 27.5408C165.354 28.0237 165.777 28.6123 166.063 29.3064C166.35 29.9855 166.494 30.7552 166.494 31.6154C166.494 32.2945 166.388 32.9736 166.177 33.6527C165.98 34.3318 165.648 34.9505 165.181 35.5089C164.728 36.0672 164.124 36.52 163.37 36.867C162.615 37.199 161.68 37.3651 160.563 37.3651H158.209V42.662H154.926V26.0015H159.974ZM160.54 34.1959C161.038 34.1959 161.453 34.1129 161.785 33.9469C162.117 33.7809 162.374 33.5697 162.555 33.3131C162.751 33.0566 162.887 32.7925 162.962 32.5208C163.053 32.2341 163.098 31.97 163.098 31.7286C163.098 31.5475 163.068 31.3211 163.008 31.0495C162.962 30.7627 162.857 30.476 162.691 30.1893C162.525 29.9025 162.268 29.6611 161.921 29.4649C161.589 29.2687 161.136 29.1706 160.563 29.1706H158.209V34.1959H160.54ZM163.619 36.2332L167.739 42.662H163.913L159.703 36.3238L163.619 36.2332Z" fill="#EC881D"/>
<path d="M172.05 26.0015L176.917 37.9989L175.015 37.6141L179.43 26.0015H183.323L175.717 43.4316L168.111 26.0015H172.05Z" fill="#EC881D"/>
<path d="M186.205 26.0015H189.488V42.662H186.205V26.0015Z" fill="#EC881D"/>
<path d="M206.284 41.2811C206.103 41.432 205.763 41.6357 205.265 41.8923C204.782 42.1488 204.186 42.3752 203.477 42.5714C202.768 42.7675 201.983 42.8581 201.123 42.843C199.81 42.8128 198.633 42.5789 197.592 42.1413C196.565 41.6885 195.69 41.0773 194.966 40.3077C194.256 39.5381 193.713 38.6552 193.336 37.6592C192.959 36.6632 192.77 35.5993 192.77 34.4675C192.77 33.1998 192.959 32.0378 193.336 30.9814C193.728 29.9251 194.279 29.0121 194.988 28.2424C195.713 27.4728 196.573 26.8767 197.569 26.4541C198.565 26.0316 199.667 25.8203 200.874 25.8203C201.991 25.8203 202.979 25.9712 203.839 26.273C204.699 26.5749 205.401 26.8993 205.944 27.2464L204.654 30.3476C204.277 30.0609 203.771 29.7666 203.138 29.4648C202.519 29.1479 201.802 28.9894 200.987 28.9894C200.353 28.9894 199.742 29.1252 199.153 29.3969C198.58 29.6534 198.067 30.0232 197.614 30.5061C197.177 30.989 196.829 31.5549 196.573 32.2038C196.316 32.8376 196.188 33.5318 196.188 34.2864C196.188 35.0862 196.301 35.8181 196.528 36.4821C196.769 37.1461 197.109 37.7196 197.546 38.2025C197.984 38.6703 198.505 39.0325 199.108 39.2891C199.727 39.5456 200.421 39.6739 201.191 39.6739C202.081 39.6739 202.843 39.5305 203.477 39.2438C204.111 38.9571 204.594 38.6552 204.926 38.3383L206.284 41.2811Z" fill="#EC881D"/>
<path d="M209.57 26.0015H220.934V29.1706H212.853V32.7246H220.006V35.8937H212.853V39.4929H221.251V42.662H209.57V26.0015Z" fill="#EC881D"/>
<path d="M30.8809 26.0015H42.2445V29.1706H34.1632V32.7246H41.3164V35.8937H34.1632V39.4929H42.5614V42.662H30.8809V26.0015Z" fill="black"/>
<path d="M54.8535 30.0309C54.2197 29.6838 53.5708 29.3971 52.9067 29.1707C52.2578 28.9444 51.6466 28.8312 51.0732 28.8312C50.3639 28.8312 49.8055 28.9745 49.3981 29.2613C48.9906 29.548 48.7869 29.9781 48.7869 30.5516C48.7869 30.9439 48.9378 31.2986 49.2396 31.6155C49.5565 31.9173 49.9565 32.1889 50.4394 32.4304C50.9374 32.6718 51.4505 32.8907 51.9787 33.0868C52.4616 33.2679 52.9369 33.4868 53.4049 33.7433C53.8877 33.9848 54.3178 34.2941 54.695 34.6714C55.0723 35.0336 55.3741 35.4939 55.6005 36.0522C55.8269 36.5955 55.94 37.2671 55.94 38.0669C55.94 38.912 55.7212 39.6967 55.2836 40.4211C54.8459 41.1455 54.2046 41.734 53.3595 42.1867C52.5144 42.6244 51.4731 42.8432 50.2356 42.8432C49.6018 42.8432 48.9529 42.7828 48.2889 42.6621C47.64 42.5263 46.9986 42.3301 46.3648 42.0736C45.731 41.8019 45.1198 41.4624 44.5312 41.0549L45.98 38.497C46.3723 38.7837 46.795 39.0403 47.2477 39.2666C47.7155 39.4779 48.1833 39.6439 48.6511 39.7646C49.1189 39.8854 49.549 39.9457 49.9414 39.9457C50.3337 39.9457 50.7261 39.8929 51.1185 39.7873C51.5259 39.6665 51.8579 39.4703 52.1145 39.1987C52.3861 38.9271 52.5219 38.5498 52.5219 38.0669C52.5219 37.7349 52.4087 37.4331 52.1824 37.1614C51.9711 36.8898 51.6768 36.6408 51.2996 36.4144C50.9374 36.1881 50.5375 35.9919 50.0998 35.8259C49.5867 35.6297 49.0586 35.4033 48.5154 35.1468C47.9721 34.8902 47.4589 34.5809 46.976 34.2187C46.5082 33.8414 46.1233 33.3811 45.8215 32.8378C45.5348 32.2795 45.3914 31.6004 45.3914 30.8006C45.3914 29.8347 45.6027 28.9972 46.0252 28.2879C46.4629 27.5786 47.0741 27.0202 47.8588 26.6128C48.6435 26.1902 49.549 25.9563 50.5752 25.9111C51.9183 25.9111 53.0049 26.0695 53.8349 26.3864C54.68 26.7033 55.4345 27.0806 56.0985 27.5183L54.8535 30.0309Z" fill="black"/>
<path d="M71.6507 41.2811C71.4696 41.432 71.13 41.6357 70.632 41.8923C70.1491 42.1488 69.553 42.3752 68.8437 42.5714C68.1345 42.7675 67.3497 42.8581 66.4896 42.843C65.1766 42.8128 63.9995 42.5789 62.9583 42.1413C61.9321 41.6885 61.0568 41.0773 60.3324 40.3077C59.6231 39.5381 59.0799 38.6552 58.7026 37.6592C58.3253 36.6632 58.1367 35.5993 58.1367 34.4675C58.1367 33.1998 58.3253 32.0378 58.7026 30.9814C59.0949 29.9251 59.6458 29.0121 60.355 28.2424C61.0794 27.4728 61.9396 26.8767 62.9356 26.4541C63.9316 26.0316 65.0333 25.8203 66.2406 25.8203C67.3573 25.8203 68.3458 25.9712 69.2059 26.273C70.0661 26.5749 70.7679 26.8993 71.3111 27.2464L70.0209 30.3476C69.6436 30.0609 69.138 29.7666 68.5042 29.4648C67.8855 29.1479 67.1687 28.9894 66.3537 28.9894C65.7199 28.9894 65.1087 29.1252 64.5202 29.3969C63.9467 29.6534 63.4336 30.0232 62.9809 30.5061C62.5432 30.989 62.1962 31.5549 61.9396 32.2038C61.6831 32.8376 61.5548 33.5318 61.5548 34.2864C61.5548 35.0862 61.668 35.8181 61.8943 36.4821C62.1358 37.1461 62.4753 37.7196 62.913 38.2025C63.3506 38.6703 63.8713 39.0325 64.4749 39.2891C65.0936 39.5456 65.7878 39.6739 66.5575 39.6739C67.4478 39.6739 68.2099 39.5305 68.8437 39.2438C69.4776 38.9571 69.9605 38.6552 70.2925 38.3383L71.6507 41.2811Z" fill="black"/>
<path d="M73.9199 34.3543C73.9199 33.2074 74.1388 32.1208 74.5764 31.0946C75.014 30.0684 75.6177 29.163 76.3873 28.3782C77.1721 27.5784 78.0775 26.9521 79.1037 26.4994C80.1299 26.0467 81.2316 25.8203 82.4087 25.8203C83.5707 25.8203 84.6648 26.0467 85.691 26.4994C86.7171 26.9521 87.6226 27.5784 88.4073 28.3782C89.2072 29.163 89.8259 30.0684 90.2635 31.0946C90.7163 32.1208 90.9426 33.2074 90.9426 34.3543C90.9426 35.5314 90.7163 36.633 90.2635 37.6592C89.8259 38.6854 89.2072 39.5909 88.4073 40.3756C87.6226 41.1453 86.7171 41.7489 85.691 42.1865C84.6648 42.6242 83.5707 42.843 82.4087 42.843C81.2316 42.843 80.1299 42.6242 79.1037 42.1865C78.0775 41.7489 77.1721 41.1453 76.3873 40.3756C75.6177 39.5909 75.014 38.6854 74.5764 37.6592C74.1388 36.633 73.9199 35.5314 73.9199 34.3543ZM77.3154 34.3543C77.3154 35.0938 77.4437 35.7879 77.7003 36.4369C77.9719 37.0707 78.3416 37.6366 78.8094 38.1346C79.2924 38.6175 79.8432 38.9948 80.4619 39.2664C81.0957 39.5381 81.7824 39.6739 82.5218 39.6739C83.2311 39.6739 83.8876 39.5381 84.4912 39.2664C85.11 38.9948 85.6457 38.6175 86.0984 38.1346C86.5511 37.6366 86.9058 37.0707 87.1623 36.4369C87.4189 35.7879 87.5472 35.0938 87.5472 34.3543C87.5472 33.5997 87.4113 32.898 87.1397 32.2491C86.8831 31.6002 86.521 31.0343 86.0531 30.5514C85.6004 30.0533 85.0647 29.6685 84.4459 29.3969C83.8272 29.1252 83.1557 28.9894 82.4313 28.9894C81.7069 28.9894 81.0354 29.1252 80.4166 29.3969C79.7979 29.6685 79.2546 30.0533 78.7868 30.5514C78.319 31.0343 77.9568 31.6002 77.7003 32.2491C77.4437 32.898 77.3154 33.5997 77.3154 34.3543Z" fill="black"/>
<path d="M99.2628 26.0015C100.304 26.0015 101.232 26.1373 102.047 26.409C102.862 26.6655 103.541 27.0428 104.084 27.5408C104.642 28.0237 105.065 28.6123 105.352 29.3064C105.638 29.9855 105.782 30.7552 105.782 31.6154C105.782 32.2945 105.676 32.9736 105.465 33.6527C105.269 34.3318 104.937 34.9505 104.469 35.5089C104.016 36.0672 103.413 36.52 102.658 36.867C101.903 37.199 100.968 37.3651 99.8513 37.3651H97.4971V42.662H94.2148V26.0015H99.2628ZM99.8287 34.1959C100.326 34.1959 100.741 34.1129 101.073 33.9469C101.405 33.7809 101.662 33.5697 101.843 33.3131C102.039 33.0566 102.175 32.7925 102.251 32.5208C102.341 32.2341 102.386 31.97 102.386 31.7286C102.386 31.5475 102.356 31.3211 102.296 31.0495C102.251 30.7627 102.145 30.476 101.979 30.1893C101.813 29.9025 101.556 29.6611 101.209 29.4649C100.877 29.2687 100.424 29.1706 99.8513 29.1706H97.4971V34.1959H99.8287ZM102.907 36.2332L107.027 42.662H103.201L98.9911 36.3238L102.907 36.2332Z" fill="black"/>
<path d="M108.271 26.0015H119.498V29.1706H115.446V42.662H112.164V29.1706H108.271V26.0015Z" fill="black"/>
</g>
<defs>
<clipPath id="clip0_1947_2723">
<rect width="222" height="69" fill="white"/>
</clipPath>
</defs>
</svg>
