<svg xmlns="http://www.w3.org/2000/svg" width="354.183" height="552.12" viewBox="0 0 354.183 552.12">
  <g id="login-bg" opacity="0.04">
    <rect id="Rectangle_32" data-name="Rectangle 32" width="63.999" height="63.999" rx="6" transform="translate(184.615 45.254) rotate(-45)" fill="#110358"/>
    <rect id="Rectangle_33" data-name="Rectangle 33" width="43.789" height="43.789" rx="6" transform="translate(168.591 121.472) rotate(-45)" fill="#110358"/>
    <rect id="Rectangle_34" data-name="Rectangle 34" width="43.789" height="43.789" rx="6" transform="translate(87.75 134.946) rotate(-45)" fill="#110358"/>
    <rect id="Rectangle_35" data-name="Rectangle 35" width="70.941" height="70.941" rx="6" transform="translate(130.477 224.881) rotate(-45)" fill="#110358"/>
    <rect id="Rectangle_36" data-name="Rectangle 36" width="64.205" height="64.205" rx="6" transform="translate(195.871 351.484) rotate(-45)" fill="#110358"/>
    <rect id="Rectangle_37" data-name="Rectangle 37" width="83.465" height="83.465" rx="6" transform="translate(236.146 493.102) rotate(-45)" fill="#110358"/>
    <rect id="Rectangle_38" data-name="Rectangle 38" width="39.676" height="39.676" rx="6" transform="translate(143.729 421.718) rotate(-45)" fill="#110358"/>
    <rect id="Rectangle_39" data-name="Rectangle 39" width="53.149" height="53.149" rx="6" transform="translate(97.15 336.931) rotate(-45)" fill="#110358"/>
    <rect id="Rectangle_40" data-name="Rectangle 40" width="29.571" height="29.571" rx="6" transform="translate(49.823 303.416) rotate(-45)" fill="#110358"/>
    <rect id="Rectangle_41" data-name="Rectangle 41" width="32.939" height="32.939" rx="6" transform="translate(52.949 235.062) rotate(-45)" fill="#110358"/>
    <rect id="Rectangle_42" data-name="Rectangle 42" width="22.075" height="22.075" rx="6" transform="translate(0 254.327) rotate(-45)" fill="#110358"/>
  </g>
</svg>
