<svg width="222" height="69" viewBox="0 0 222 69" fill="none" xmlns="http://www.w3.org/2000/svg">
<g clip-path="url(#clip0_1947_2740)">
<path d="M40.9199 55.9211C40.7418 50.3418 21.5881 66.275 20.6959 50.2729C20.6304 49.0929 19.5026 47.9025 18.8906 47.3343C18.677 47.138 18.403 47.0095 18.1073 46.967C17.7242 46.9374 17.356 46.8143 17.0393 46.6099C16.7226 46.4055 16.4685 46.1269 16.3021 45.8019C15.7391 44.5564 17.477 43.8505 17.477 43.8505L16.6326 43.5922C16.2948 43.4983 16.0011 43.2995 15.7998 43.0283C15.5985 42.7571 15.5015 42.4297 15.525 42.1C15.58 41.3653 15.6535 40.4757 15.7208 40.0739C15.7566 39.872 15.7195 39.6646 15.6153 39.4847C15.5111 39.3048 15.3457 39.1627 15.1456 39.081L13.273 38.3177C13.0533 38.2285 12.8545 38.0994 12.6883 37.9377C12.5221 37.7761 12.3917 37.5851 12.3046 37.3759C12.2175 37.1667 12.1756 36.9434 12.1811 36.7189C12.1866 36.4943 12.2395 36.2731 12.3367 36.0678L16.7978 26.6265C17.0884 25.9951 17.2591 25.3209 17.302 24.6343C13.2932 24.2624 13.4327 22.3805 13.4327 22.3805C14.3149 22.9023 15.3344 23.1841 16.3774 23.1943C16.5106 23.1922 16.6419 23.1647 16.7633 23.1134C16.8847 23.062 16.9937 22.988 17.0836 22.8958C17.1735 22.8036 17.2423 22.6952 17.286 22.5772C17.3297 22.4592 17.3472 22.334 17.3375 22.2094C17.198 20.4302 16.8908 18.4048 16.7305 17.6271C16.6754 17.1833 16.657 16.7362 16.6754 16.2898C16.2042 5.24715 34.0851 -0.0962581 30.2299 0.00131207C14.913 4.12222 0 17.2701 0 35.3596C0 57.4294 11.2499 67.3856 23.0616 68.6867C30.5273 69.5091 37.6258 64.8149 40.2866 58.4016C40.6708 57.6223 40.8861 56.7791 40.9199 55.9211Z" fill="#EC881D"/>
<path d="M43.5576 8.575C42.7375 8.56992 41.9205 8.66925 41.1289 8.87026C41.7934 8.09463 42.2983 7.20999 42.618 6.26142C43.5119 3.70043 41.614 0.818359 41.614 0.818359C41.614 0.818359 38.2668 2.08951 37.373 4.6505C37.0384 5.57737 36.8868 6.55363 36.9255 7.53147C36.4089 6.92036 35.8048 6.37901 35.1303 5.92274C32.809 4.33436 29.3 5.13597 29.3 5.13597C29.3 5.13597 29.5557 8.51343 31.877 10.1018C32.5032 10.5333 33.1858 10.8879 33.908 11.1569C32.9825 11.4284 32.1115 11.842 31.3304 12.3807C29.0014 13.9598 28.7305 17.3361 28.7305 17.3361C28.7305 17.3361 32.2359 18.1515 34.5649 16.5725C35.5771 15.912 36.4155 15.0441 37.0164 14.0346C36.8649 15.1818 36.9939 16.3464 37.3936 17.44C38.2733 20.0049 41.6163 21.2887 41.6163 21.2887C41.6163 21.2887 43.5271 18.416 42.6444 15.8517C42.3628 15.0133 41.9403 14.2225 41.3929 13.5089C42.0977 13.667 42.82 13.7467 43.5447 13.7465C46.4185 13.7525 48.7551 11.1701 48.7551 11.1701C48.7551 11.1701 46.432 8.58105 43.5576 8.575ZM38.0194 11.8188C37.7501 11.8187 37.4868 11.7438 37.263 11.6035C37.0391 11.4632 36.8647 11.2638 36.7617 11.0305C36.6587 10.7972 36.6317 10.5406 36.6843 10.293C36.7369 10.0454 36.8666 9.81799 37.057 9.63948C37.2474 9.46097 37.49 9.33939 37.7541 9.29011C38.0182 9.24083 38.292 9.26607 38.5408 9.36263C38.7896 9.45919 39.0023 9.62274 39.152 9.8326C39.3017 10.0425 39.3817 10.2892 39.3818 10.5417C39.3813 10.88 39.2375 11.2044 38.9821 11.4435C38.7266 11.6826 38.3803 11.8168 38.0194 11.8166V11.8188Z" fill="#EC881D"/>
<path d="M135.549 30.0295C134.915 29.6824 134.266 29.3957 133.602 29.1693C132.953 28.943 132.342 28.8298 131.769 28.8298C131.059 28.8298 130.501 28.9732 130.093 29.2599C129.686 29.5466 129.482 29.9767 129.482 30.5502C129.482 30.9425 129.633 31.2972 129.935 31.6141C130.252 31.9159 130.652 32.1876 131.135 32.429C131.633 32.6705 132.146 32.8893 132.674 33.0855C133.157 33.2666 133.632 33.4854 134.1 33.7419C134.583 33.9834 135.013 34.2927 135.39 34.67C135.768 35.0322 136.069 35.4925 136.296 36.0509C136.522 36.5941 136.635 37.2657 136.635 38.0655C136.635 38.9106 136.417 39.6953 135.979 40.4197C135.541 41.1441 134.9 41.7326 134.055 42.1854C133.21 42.623 132.168 42.8418 130.931 42.8418C130.297 42.8418 129.648 42.7815 128.984 42.6607C128.335 42.5249 127.694 42.3287 127.06 42.0722C126.426 41.8005 125.815 41.461 125.227 41.0535L126.675 38.4956C127.068 38.7823 127.49 39.0389 127.943 39.2652C128.411 39.4765 128.879 39.6425 129.346 39.7632C129.814 39.884 130.244 39.9443 130.637 39.9443C131.029 39.9443 131.421 39.8915 131.814 39.7859C132.221 39.6652 132.553 39.469 132.81 39.1973C133.081 38.9257 133.217 38.5484 133.217 38.0655C133.217 37.7335 133.104 37.4317 132.878 37.16C132.666 36.8884 132.372 36.6394 131.995 36.413C131.633 36.1867 131.233 35.9905 130.795 35.8245C130.282 35.6283 129.754 35.4019 129.211 35.1454C128.667 34.8888 128.154 34.5795 127.671 34.2173C127.203 33.84 126.819 33.3797 126.517 32.8365C126.23 32.2781 126.087 31.599 126.087 30.7992C126.087 29.8333 126.298 28.9958 126.721 28.2865C127.158 27.5772 127.769 27.0189 128.554 26.6114C129.339 26.1889 130.244 25.955 131.271 25.9097C132.614 25.9097 133.7 26.0681 134.53 26.385C135.375 26.702 136.13 27.0792 136.794 27.5169L135.549 30.0295Z" fill="#EC881D"/>
<path d="M139.85 26.0005H151.213V29.1696H143.132V32.7236H150.285V35.8927H143.132V39.4919H151.53V42.661H139.85V26.0005Z" fill="#EC881D"/>
<path d="M159.974 26.0005C161.015 26.0005 161.944 26.1363 162.758 26.408C163.573 26.6645 164.252 27.0418 164.796 27.5398C165.354 28.0227 165.777 28.6113 166.063 29.3055C166.35 29.9846 166.494 30.7542 166.494 31.6144C166.494 32.2935 166.388 32.9726 166.177 33.6517C165.98 34.3308 165.648 34.9495 165.181 35.5079C164.728 36.0662 164.124 36.519 163.37 36.8661C162.615 37.1981 161.679 37.3641 160.563 37.3641H158.209V42.661H154.926V26.0005H159.974ZM160.54 34.195C161.038 34.195 161.453 34.112 161.785 33.946C162.117 33.78 162.374 33.5687 162.555 33.3121C162.751 33.0556 162.887 32.7915 162.962 32.5199C163.053 32.2331 163.098 31.969 163.098 31.7276C163.098 31.5465 163.068 31.3201 163.007 31.0485C162.962 30.7617 162.857 30.475 162.691 30.1883C162.525 29.9016 162.268 29.6601 161.921 29.4639C161.589 29.2677 161.136 29.1696 160.563 29.1696H158.209V34.195H160.54ZM163.619 36.2322L167.739 42.661H163.913L159.703 36.3228L163.619 36.2322Z" fill="#EC881D"/>
<path d="M172.05 26.0005L176.917 37.9979L175.015 37.6131L179.429 26.0005H183.323L175.717 43.4307L168.111 26.0005H172.05Z" fill="#EC881D"/>
<path d="M186.205 26.0005H189.488V42.661H186.205V26.0005Z" fill="#EC881D"/>
<path d="M206.284 41.2801C206.103 41.431 205.763 41.6347 205.265 41.8913C204.782 42.1478 204.186 42.3742 203.477 42.5704C202.768 42.7666 201.983 42.8571 201.123 42.842C199.81 42.8118 198.633 42.5779 197.592 42.1403C196.565 41.6876 195.69 41.0764 194.966 40.3067C194.256 39.5371 193.713 38.6543 193.336 37.6582C192.959 36.6622 192.77 35.5983 192.77 34.4665C192.77 33.1988 192.959 32.0368 193.336 30.9805C193.728 29.9241 194.279 29.0111 194.988 28.2414C195.713 27.4718 196.573 26.8757 197.569 26.4532C198.565 26.0306 199.667 25.8193 200.874 25.8193C201.991 25.8193 202.979 25.9702 203.839 26.2721C204.699 26.5739 205.401 26.8983 205.944 27.2454L204.654 30.3466C204.277 30.0599 203.771 29.7656 203.137 29.4638C202.519 29.1469 201.802 28.9885 200.987 28.9885C200.353 28.9885 199.742 29.1243 199.153 29.3959C198.58 29.6525 198.067 30.0222 197.614 30.5051C197.177 30.988 196.829 31.5539 196.573 32.2028C196.316 32.8367 196.188 33.5309 196.188 34.2854C196.188 35.0852 196.301 35.8171 196.528 36.4811C196.769 37.1452 197.109 37.7186 197.546 38.2015C197.984 38.6693 198.505 39.0315 199.108 39.2881C199.727 39.5446 200.421 39.6729 201.191 39.6729C202.081 39.6729 202.843 39.5295 203.477 39.2428C204.111 38.9561 204.594 38.6543 204.926 38.3373L206.284 41.2801Z" fill="#EC881D"/>
<path d="M209.572 26.0005H220.936V29.1696H212.855V32.7236H220.008V35.8927H212.855V39.4919H221.253V42.661H209.572V26.0005Z" fill="#EC881D"/>
<path d="M30.8828 26.0005H42.2464V29.1696H34.1651V32.7236H41.3183V35.8927H34.1651V39.4919H42.5633V42.661H30.8828V26.0005Z" fill="white"/>
<path d="M54.8555 30.0295C54.2216 29.6824 53.5727 29.3957 52.9087 29.1693C52.2598 28.943 51.6486 28.8298 51.0752 28.8298C50.3659 28.8298 49.8075 28.9732 49.4001 29.2599C48.9926 29.5466 48.7889 29.9767 48.7889 30.5502C48.7889 30.9425 48.9398 31.2972 49.2416 31.6141C49.5585 31.9159 49.9584 32.1876 50.4413 32.429C50.9393 32.6705 51.4524 32.8893 51.9806 33.0855C52.4635 33.2666 52.9389 33.4854 53.4067 33.7419C53.8896 33.9834 54.3197 34.2927 54.697 34.67C55.0743 35.0322 55.3761 35.4925 55.6025 36.0509C55.8288 36.5941 55.942 37.2657 55.942 38.0655C55.942 38.9106 55.7232 39.6953 55.2856 40.4197C54.8479 41.1441 54.2066 41.7326 53.3615 42.1854C52.5164 42.623 51.4751 42.8418 50.2376 42.8418C49.6038 42.8418 48.9549 42.7815 48.2909 42.6607C47.642 42.5249 47.0006 42.3287 46.3668 42.0722C45.7329 41.8005 45.1218 41.461 44.5332 41.0535L45.9819 38.4956C46.3743 38.7823 46.7969 39.0389 47.2496 39.2652C47.7174 39.4765 48.1852 39.6425 48.6531 39.7632C49.1209 39.884 49.551 39.9443 49.9433 39.9443C50.3357 39.9443 50.7281 39.8915 51.1204 39.7859C51.5279 39.6652 51.8599 39.469 52.1164 39.1973C52.3881 38.9257 52.5239 38.5484 52.5239 38.0655C52.5239 37.7335 52.4107 37.4317 52.1844 37.16C51.9731 36.8884 51.6788 36.6394 51.3015 36.413C50.9393 36.1867 50.5394 35.9905 50.1018 35.8245C49.5887 35.6283 49.0605 35.4019 48.5172 35.1454C47.974 34.8888 47.4609 34.5795 46.9779 34.2173C46.5101 33.84 46.1253 33.3797 45.8235 32.8365C45.5368 32.2781 45.3934 31.599 45.3934 30.7992C45.3934 29.8333 45.6047 28.9958 46.0272 28.2865C46.4649 27.5772 47.076 27.0189 47.8608 26.6114C48.6455 26.1889 49.551 25.955 50.5772 25.9097C51.9203 25.9097 53.0068 26.0681 53.8368 26.385C54.6819 26.702 55.4365 27.0792 56.1005 27.5169L54.8555 30.0295Z" fill="white"/>
<path d="M71.6528 41.2801C71.4717 41.431 71.1321 41.6347 70.6341 41.8913C70.1512 42.1478 69.5551 42.3742 68.8458 42.5704C68.1365 42.7666 67.3518 42.8571 66.4916 42.842C65.1787 42.8118 64.0016 42.5779 62.9603 42.1403C61.9341 41.6876 61.0589 41.0764 60.3345 40.3067C59.6252 39.5371 59.0819 38.6543 58.7047 37.6582C58.3274 36.6622 58.1387 35.5983 58.1387 34.4665C58.1387 33.1988 58.3274 32.0368 58.7047 30.9805C59.097 29.9241 59.6478 29.0111 60.3571 28.2414C61.0815 27.4718 61.9417 26.8757 62.9377 26.4532C63.9337 26.0306 65.0353 25.8193 66.2426 25.8193C67.3594 25.8193 68.3478 25.9702 69.208 26.2721C70.0682 26.5739 70.7699 26.8983 71.3132 27.2454L70.0229 30.3466C69.6457 30.0599 69.1401 29.7656 68.5063 29.4638C67.8875 29.1469 67.1707 28.9885 66.3558 28.9885C65.722 28.9885 65.1108 29.1243 64.5222 29.3959C63.9488 29.6525 63.4357 30.0222 62.983 30.5051C62.5453 30.988 62.1982 31.5539 61.9417 32.2028C61.6851 32.8367 61.5569 33.5309 61.5569 34.2854C61.5569 35.0852 61.67 35.8171 61.8964 36.4811C62.1379 37.1452 62.4774 37.7186 62.9151 38.2015C63.3527 38.6693 63.8733 39.0315 64.477 39.2881C65.0957 39.5446 65.7899 39.6729 66.5595 39.6729C67.4499 39.6729 68.212 39.5295 68.8458 39.2428C69.4796 38.9561 69.9626 38.6543 70.2946 38.3373L71.6528 41.2801Z" fill="white"/>
<path d="M73.9219 34.3533C73.9219 33.2064 74.1407 32.1198 74.5784 31.0937C75.016 30.0675 75.6197 29.162 76.3893 28.3773C77.174 27.5774 78.0795 26.9512 79.1057 26.4984C80.1319 26.0457 81.2335 25.8193 82.4106 25.8193C83.5726 25.8193 84.6667 26.0457 85.6929 26.4984C86.7191 26.9512 87.6246 27.5774 88.4093 28.3773C89.2091 29.162 89.8279 30.0675 90.2655 31.0937C90.7182 32.1198 90.9446 33.2064 90.9446 34.3533C90.9446 35.5304 90.7182 36.6321 90.2655 37.6582C89.8279 38.6844 89.2091 39.5899 88.4093 40.3746C87.6246 41.1443 86.7191 41.7479 85.6929 42.1856C84.6667 42.6232 83.5726 42.842 82.4106 42.842C81.2335 42.842 80.1319 42.6232 79.1057 42.1856C78.0795 41.7479 77.174 41.1443 76.3893 40.3746C75.6197 39.5899 75.016 38.6844 74.5784 37.6582C74.1407 36.6321 73.9219 35.5304 73.9219 34.3533ZM77.3174 34.3533C77.3174 35.0928 77.4457 35.787 77.7022 36.4359C77.9739 37.0697 78.3436 37.6356 78.8114 38.1336C79.2943 38.6165 79.8452 38.9938 80.4639 39.2654C81.0977 39.5371 81.7844 39.6729 82.5238 39.6729C83.2331 39.6729 83.8896 39.5371 84.4932 39.2654C85.1119 38.9938 85.6477 38.6165 86.1004 38.1336C86.5531 37.6356 86.9078 37.0697 87.1643 36.4359C87.4209 35.787 87.5491 35.0928 87.5491 34.3533C87.5491 33.5988 87.4133 32.897 87.1417 32.2481C86.8851 31.5992 86.5229 31.0333 86.0551 30.5504C85.6024 30.0524 85.0667 29.6675 84.4479 29.3959C83.8292 29.1243 83.1576 28.9885 82.4333 28.9885C81.7089 28.9885 81.0373 29.1243 80.4186 29.3959C79.7999 29.6675 79.2566 30.0524 78.7888 30.5504C78.321 31.0333 77.9588 31.5992 77.7022 32.2481C77.4457 32.897 77.3174 33.5988 77.3174 34.3533Z" fill="white"/>
<path d="M99.2648 26.0005C100.306 26.0005 101.234 26.1363 102.049 26.408C102.864 26.6645 103.543 27.0418 104.086 27.5398C104.644 28.0227 105.067 28.6113 105.354 29.3055C105.64 29.9846 105.784 30.7542 105.784 31.6144C105.784 32.2935 105.678 32.9726 105.467 33.6517C105.271 34.3308 104.939 34.9495 104.471 35.5079C104.018 36.0662 103.414 36.519 102.66 36.8661C101.905 37.1981 100.97 37.3641 99.8533 37.3641H97.4991V42.661H94.2168V26.0005H99.2648ZM99.8307 34.195C100.328 34.195 100.743 34.112 101.075 33.946C101.407 33.78 101.664 33.5687 101.845 33.3121C102.041 33.0556 102.177 32.7915 102.252 32.5199C102.343 32.2331 102.388 31.969 102.388 31.7276C102.388 31.5465 102.358 31.3201 102.298 31.0485C102.252 30.7617 102.147 30.475 101.981 30.1883C101.815 29.9016 101.558 29.6601 101.211 29.4639C100.879 29.2677 100.426 29.1696 99.8533 29.1696H97.4991V34.195H99.8307ZM102.909 36.2322L107.029 42.661H103.203L98.9931 36.3228L102.909 36.2322Z" fill="white"/>
<path d="M108.271 26.0005H119.499V29.1696H115.447V42.661H112.165V29.1696H108.271V26.0005Z" fill="white"/>
</g>
<defs>
<clipPath id="clip0_1947_2740">
<rect width="222" height="69" fill="white"/>
</clipPath>
</defs>
</svg>
