<svg xmlns="http://www.w3.org/2000/svg" width="17.574" height="17.5" viewBox="0 0 17.574 17.5">
  <g id="manager-icon" transform="translate(0.252 -0.79)">
    <g id="Group_14964" data-name="Group 14964" transform="translate(7.547 13.581)">
      <g id="Group_14963" data-name="Group 14963">
        <path id="Path_3917" data-name="Path 3917" d="M226.873,377.266a.289.289,0,0,0-.4.062l-.036.048a.289.289,0,0,0,.465.342l.036-.049A.289.289,0,0,0,226.873,377.266Z" transform="translate(-226.377 -377.21)" fill="#fff" stroke="#fff" stroke-width="0.5"/>
      </g>
    </g>
    <g id="Group_14966" data-name="Group 14966" transform="translate(6.745 13.63)">
      <g id="Group_14965" data-name="Group 14965">
        <path id="Path_3918" data-name="Path 3918" d="M203.69,381.421l-.742-1.35.693-.944a.289.289,0,1,0-.465-.342l-.8,1.092a.289.289,0,0,0-.02.31l.831,1.511h0a.289.289,0,1,0,.506-.278Z" transform="translate(-202.318 -378.668)" fill="#fff" stroke="#fff" stroke-width="0.5"/>
      </g>
    </g>
    <g id="Group_14968" data-name="Group 14968" transform="translate(8.921 13.634)">
      <g id="Group_14967" data-name="Group 14967">
        <path id="Path_3919" data-name="Path 3919" d="M268.938,380.01l-.8-1.088a.289.289,0,0,0-.465.342l.69.939-.737,1.34a.289.289,0,1,0,.506.278l.826-1.5A.289.289,0,0,0,268.938,380.01Z" transform="translate(-267.591 -378.804)" fill="#fff" stroke="#fff" stroke-width="0.5"/>
      </g>
    </g>
    <g id="Group_14970" data-name="Group 14970" transform="translate(6.189 10.271)">
      <g id="Group_14969" data-name="Group 14969">
        <path id="Path_3920" data-name="Path 3920" d="M190.187,277.972a.289.289,0,0,0-.3.018,4.6,4.6,0,0,0-.473.372,2.035,2.035,0,0,1-1.543.6.282.282,0,0,0-.053,0,2.929,2.929,0,0,1-1.446-.732c-.09-.07-.181-.137-.273-.2a.289.289,0,0,0-.45.239v.99a.289.289,0,0,0,.108.225l.025.018,2.046,1.367h0l.005,0a.289.289,0,0,0,.3.014l.026-.016,0,0,0,0,2.042-1.364.024-.017a.289.289,0,0,0,.111-.227v-1.032A.289.289,0,0,0,190.187,277.972Zm-.423,1.133L188,280.286l-1.768-1.182v-.262a3.157,3.157,0,0,0,1.58.7h0a2.622,2.622,0,0,0,1.953-.714v.28Z" transform="translate(-185.651 -277.939)" fill="#fff" stroke="#fff" stroke-width="0.5"/>
      </g>
    </g>
    <g id="Group_14972" data-name="Group 14972" transform="translate(7.583 12.678)">
      <g id="Group_14971" data-name="Group 14971">
        <path id="Path_3921" data-name="Path 3921" d="M228.683,350.351a.289.289,0,0,0-.517-.123l-.663.9a.289.289,0,1,0,.465.342l.66-.9a.288.288,0,0,0,.059-.175A.293.293,0,0,0,228.683,350.351Z" transform="translate(-227.446 -350.11)" fill="#fff" stroke="#fff" stroke-width="0.5"/>
      </g>
    </g>
    <g id="Group_14974" data-name="Group 14974" transform="translate(4.148 1.04)">
      <g id="Group_14973" data-name="Group 14973" transform="translate(0 0)">
        <path id="Path_3922" data-name="Path 3922" d="M133.217,3.615a1.853,1.853,0,0,0-1.059-1.406.992.992,0,0,0-.085-.606,1.132,1.132,0,0,0-.858-.558.288.288,0,0,0-.055-.005h-3.874a2.856,2.856,0,0,0-2.852,2.853v1.52a1.741,1.741,0,0,0,.38,1.087,1.4,1.4,0,0,1,.294.815.289.289,0,0,0,.577-.016V5.317a1.269,1.269,0,0,1,.98-.989h1.253a1.409,1.409,0,0,0,.431-.067c.238-.076.616-.217.891-.322a.837.837,0,0,1,.574-.007l1.341.471a1.227,1.227,0,0,1,.805.929V7.709a.288.288,0,0,0,.267.288h.022a.289.289,0,0,0,.285-.246,4.079,4.079,0,0,1,.488-1.348,1.293,1.293,0,0,0,.2-.684V3.651A.288.288,0,0,0,133.217,3.615Zm-.575,2.105a.716.716,0,0,1-.105.371V5.311a.284.284,0,0,0,0-.031,1.8,1.8,0,0,0-1.183-1.42h0L130,3.387a1.414,1.414,0,0,0-.97.012c-.385.146-.684.254-.863.311a.833.833,0,0,1-.255.039h-1.276l-.037,0a1.837,1.837,0,0,0-1.49,1.468.289.289,0,0,0-.007.063v.594a1.173,1.173,0,0,1-.1-.465V3.893a2.278,2.278,0,0,1,2.275-2.275h3.844a.616.616,0,0,1,.426.245.559.559,0,0,1-.013.412.288.288,0,0,0,.194.4,1.238,1.238,0,0,1,.9,1V5.72Z" transform="translate(-124.434 -1.04)" fill="#fff" stroke="#fff" stroke-width="0.5"/>
      </g>
    </g>
    <g id="Group_14976" data-name="Group 14976" transform="translate(4.822 3.307)">
      <g id="Group_14975" data-name="Group 14975">
        <path id="Path_3923" data-name="Path 3923" d="M152.056,71.018a1.8,1.8,0,0,0-1.183-1.42h0l-1.343-.472a1.415,1.415,0,0,0-.97.012c-.385.146-.684.254-.863.312a.833.833,0,0,1-.255.039h-1.276l-.037,0a1.837,1.837,0,0,0-1.49,1.468.288.288,0,0,0-.007.063V73.5s0,0,0,.006a4.064,4.064,0,0,0,1.469,3.052l.007.005.018.013c.08.054.161.113.239.175a3.56,3.56,0,0,0,1.791.856h0a1.6,1.6,0,0,0,.172.009,2.727,2.727,0,0,0,1.819-.757,4.023,4.023,0,0,1,.414-.325l.022-.015.021-.015a3.82,3.82,0,0,0,1.452-3.033c0-.009,0-.017,0-.026v-2.4A.309.309,0,0,0,152.056,71.018Zm-.576,2.416a3.29,3.29,0,0,1-1.2,2.592l-.033.023-.016.011a4.6,4.6,0,0,0-.473.372,2.036,2.036,0,0,1-1.545.6.29.29,0,0,0-.051,0,2.929,2.929,0,0,1-1.446-.732c-.09-.07-.181-.137-.273-.2l-.007-.005-.022-.015a3.536,3.536,0,0,1-1.212-2.582V71.055a1.269,1.269,0,0,1,.979-.989h1.253a1.409,1.409,0,0,0,.431-.067c.238-.076.616-.217.891-.322a.837.837,0,0,1,.574-.007l1.341.471a1.227,1.227,0,0,1,.805.929v2.365Z" transform="translate(-144.628 -69.046)" fill="#fff" stroke="#fff" stroke-width="0.5"/>
      </g>
    </g>
    <g id="Group_14978" data-name="Group 14978" transform="translate(7.555 12.678)">
      <g id="Group_14977" data-name="Group 14977">
        <path id="Path_3924" data-name="Path 3924" d="M227.844,350.273a.289.289,0,0,0-.491-.042l-.691.942a.289.289,0,0,0,.465.342l.691-.938a.3.3,0,0,0,.056-.175A.289.289,0,0,0,227.844,350.273Z" transform="translate(-226.606 -350.113)" fill="#fff" stroke="#fff" stroke-width="0.5"/>
      </g>
    </g>
    <g id="Group_14980" data-name="Group 14980" transform="translate(8.248 17.395)">
      <g id="Group_14979" data-name="Group 14979" transform="translate(0 0)">
        <path id="Path_3925" data-name="Path 3925" d="M247.969,491.691a.289.289,0,0,0-.4-.013l-.066.06a.289.289,0,0,0-.057.354l0,0a.288.288,0,0,0,.212.145l.04,0a.289.289,0,0,0,.2-.085l.064-.064A.289.289,0,0,0,247.969,491.691Z" transform="translate(-247.406 -491.602)" fill="#fff" stroke="#fff" stroke-width="0.5"/>
      </g>
    </g>
    <g id="Group_14982" data-name="Group 14982" transform="translate(8.178 17.395)">
      <g id="Group_14981" data-name="Group 14981" transform="translate(0 0)">
        <path id="Path_3926" data-name="Path 3926" d="M245.85,491.739l-.066-.06a.289.289,0,0,0-.4.417l.064.064a.288.288,0,0,0,.2.085l.041,0a.289.289,0,0,0,.212-.147l0,0A.289.289,0,0,0,245.85,491.739Z" transform="translate(-245.301 -491.603)" fill="#fff" stroke="#fff" stroke-width="0.5"/>
      </g>
    </g>
    <g id="Group_14984" data-name="Group 14984" transform="translate(8.243 17.457)">
      <g id="Group_14983" data-name="Group 14983" transform="translate(0 0)">
        <path id="Path_3927" data-name="Path 3927" d="M247.741,493.55h0a.289.289,0,0,0-.394,0h0a.289.289,0,0,0-.009.418l0,0a.289.289,0,0,0,.408,0l0,0a.289.289,0,0,0-.01-.417Z" transform="translate(-247.252 -493.472)" fill="#fff" stroke="#fff" stroke-width="0.5"/>
      </g>
    </g>
    <g id="Group_14986" data-name="Group 14986" transform="translate(8.252 12.673)">
      <g id="Group_14985" data-name="Group 14985">
        <path id="Path_3928" data-name="Path 3928" d="M247.888,349.994a.289.289,0,1,0,.2.275h0A.288.288,0,0,0,247.888,349.994Z" transform="translate(-247.512 -349.981)" fill="#fff" stroke="#fff" stroke-width="0.5"/>
      </g>
    </g>
    <g id="Group_14988" data-name="Group 14988" transform="translate(8.246 12.673)">
      <g id="Group_14987" data-name="Group 14987">
        <path id="Path_3929" data-name="Path 3929" d="M247.866,350.081l0,0a.289.289,0,0,0-.521.172v0a.289.289,0,0,0,.289.287.292.292,0,0,0,.161-.048.289.289,0,0,0,.073-.412Z" transform="translate(-247.343 -349.961)" fill="#fff" stroke="#fff" stroke-width="0.5"/>
      </g>
    </g>
    <g id="Group_14990" data-name="Group 14990" transform="translate(8.246 11.303)">
      <g id="Group_14989" data-name="Group 14989">
        <path id="Path_3930" data-name="Path 3930" d="M251.066,309.47a.288.288,0,0,0-.173-.169l-1.107-.4-.028-.008a.288.288,0,0,0-.23.04l-2.05,1.37h0l.161.239-.165-.237a.289.289,0,0,0-.073.412l1.5,2.044a.288.288,0,0,0,.233.118h.019a.289.289,0,0,0,.234-.149l1.662-3.022A.288.288,0,0,0,251.066,309.47Zm-1.967,2.589-1.055-1.437,1.685-1.126.651.233Z" transform="translate(-247.344 -308.887)" fill="#fff" stroke="#fff" stroke-width="0.5"/>
      </g>
    </g>
    <g id="Group_14992" data-name="Group 14992" transform="translate(5.083 11.303)">
      <g id="Group_14991" data-name="Group 14991">
        <path id="Path_3931" data-name="Path 3931" d="M156.2,310.5a.288.288,0,0,0-.123-.19l-2.057-1.375a.289.289,0,0,0-.223-.042l-.035.01-1.107.4a.289.289,0,0,0-.155.411l1.662,3.022a.289.289,0,0,0,.234.149h.019a.289.289,0,0,0,.233-.118l.8-1.092,0,0,.7-.949A.289.289,0,0,0,156.2,310.5Zm-1.216.831,0,0-.533.725-1.281-2.329.651-.233,1.685,1.126Z" transform="translate(-152.461 -308.889)" fill="#fff" stroke="#fff" stroke-width="0.5"/>
      </g>
    </g>
    <g id="Group_14994" data-name="Group 14994" transform="translate(8.25 11.7)">
      <g id="Group_14993" data-name="Group 14993">
        <path id="Path_3932" data-name="Path 3932" d="M256.271,325.9l-.372-2.248a1.99,1.99,0,0,0-1.285-1.545l-3.6-1.3a.289.289,0,0,0-.356.4l.752,1.508-.738.011a.289.289,0,0,0-.251.422l.3.578-3.1,2.833-.009.009-.064.064a.289.289,0,0,0-.049.343l0,0a.289.289,0,0,0,.253.15h7.474a1.055,1.055,0,0,0,1.04-1.227Zm-.676.481a.477.477,0,0,1-.364.169h-6.743l2.787-2.55a.288.288,0,0,0,.061-.347l-.188-.359.728-.011a.289.289,0,0,0,.254-.417l-.635-1.273,2.923,1.058a1.412,1.412,0,0,1,.912,1.1l.372,2.248h0A.477.477,0,0,1,255.595,326.382Z" transform="translate(-247.466 -320.787)" fill="#fff" stroke="#fff" stroke-width="0.5"/>
      </g>
    </g>
    <g id="Group_14996" data-name="Group 14996" transform="translate(8.246 17.46)">
      <g id="Group_14995" data-name="Group 14995" transform="translate(0 0)">
        <path id="Path_3933" data-name="Path 3933" d="M247.832,493.633l0,0a.289.289,0,0,0-.4.01l0,0a.289.289,0,0,0,.2.492h.006a.289.289,0,0,0,.194-.5Z" transform="translate(-247.343 -493.556)" fill="#fff" stroke="#fff" stroke-width="0.5"/>
      </g>
    </g>
    <g id="Group_14998" data-name="Group 14998" transform="translate(8.242 17.455)">
      <g id="Group_14997" data-name="Group 14997">
        <path id="Path_3934" data-name="Path 3934" d="M247.7,493.487a.289.289,0,0,0-.446.076l0,0a.289.289,0,0,0,.046.339h0a.288.288,0,0,0,.4.012l0,0a.288.288,0,0,0,.064-.084A.292.292,0,0,0,247.7,493.487Z" transform="translate(-247.22 -493.413)" fill="#fff" stroke="#fff" stroke-width="0.5"/>
      </g>
    </g>
    <g id="Group_15000" data-name="Group 15000" transform="translate(0 11.7)">
      <g id="Group_14999" data-name="Group 14999" transform="translate(0)">
        <path id="Path_3935" data-name="Path 3935" d="M8.738,326.633h0l0,0-.064-.064-.009-.009-3.1-2.833.3-.578a.289.289,0,0,0-.251-.422l-.738-.011.752-1.508a.289.289,0,0,0-.356-.4l-3.6,1.3a1.99,1.99,0,0,0-1.285,1.545L.014,325.9a1.055,1.055,0,0,0,1.041,1.227h7.48a.289.289,0,0,0,.2-.493Zm-7.683-.084a.478.478,0,0,1-.471-.556l.372-2.248a1.412,1.412,0,0,1,.912-1.1l2.923-1.058-.635,1.273a.289.289,0,0,0,.254.417l.728.011-.188.359A.289.289,0,0,0,5.01,324l2.787,2.55Z" transform="translate(0 -320.786)" fill="#fff" stroke="#fff" stroke-width="0.5"/>
      </g>
    </g>
    <g id="Group_15002" data-name="Group 15002" transform="translate(7.547 12.679)">
      <g id="Group_15001" data-name="Group 15001">
        <path id="Path_3936" data-name="Path 3936" d="M228.346,351.469a.289.289,0,0,0-.047-.241l-.7-.956a.289.289,0,0,0-.474.016l-.689.936a.289.289,0,0,0,0,.337l.294.422-.313,1.972a.289.289,0,0,0,.032.184l.67,1.218a.289.289,0,0,0,.506,0l.675-1.227a.289.289,0,0,0,.036-.139h0a.293.293,0,0,0,0-.045l-.311-1.962.29-.417A.292.292,0,0,0,228.346,351.469Zm-.982,3.148-.37-.672.316-1.989a.288.288,0,0,0-.048-.21l-.242-.347.345-.468.347.472-.239.343a.289.289,0,0,0-.048.21l.314,1.98Z" transform="translate(-226.376 -350.155)" fill="#fff" stroke="#fff" stroke-width="0.5"/>
      </g>
    </g>
  </g>
</svg>
