<svg xmlns="http://www.w3.org/2000/svg" width="18.012" height="15.375" viewBox="0 0 18.012 15.375">
  <path id="chat" d="M12.441,5.274c-4.973,0-9.006,3-9.006,6.7a6.367,6.367,0,0,0,3.7,5.415c-.006.019-1.786,3.257-1.786,3.257s5.435-2.073,5.45-2.081a12,12,0,0,0,1.644.111c4.973,0,9.006-3,9.006-6.7s-4.033-6.7-9.006-6.7ZM8.117,12.693a.717.717,0,1,1,.717-.717A.717.717,0,0,1,8.117,12.693Zm2.852.03a.717.717,0,1,1,.717-.717A.717.717,0,0,1,10.969,12.723Zm2.9,0a.717.717,0,1,1,.717-.717A.717.717,0,0,1,13.865,12.723Zm2.867,0a.717.717,0,1,1,.717-.717A.717.717,0,0,1,16.732,12.723Z" transform="translate(-3.435 -5.274)" fill="#265456"/>
</svg>
