<svg xmlns="http://www.w3.org/2000/svg" width="21.034" height="19.751" viewBox="0 0 21.034 19.751">
  <g id="note" transform="translate(0.25 -15.75)">
    <path id="Path_3965" data-name="Path 3965" d="M17.887,16H2.647A2.65,2.65,0,0,0,0,18.647V32.6a2.65,2.65,0,0,0,2.647,2.647h13.4a2.946,2.946,0,0,0,2.1-.869l1.526-1.526a2.946,2.946,0,0,0,.869-2.1V18.647A2.65,2.65,0,0,0,17.887,16ZM2.647,17.283h15.24a1.365,1.365,0,0,1,1.364,1.364v1.845H1.283V18.647A1.365,1.365,0,0,1,2.647,17.283ZM1.283,32.6V21.775H19.251v8.342H17.246A1.847,1.847,0,0,0,15.4,31.962v2.005H2.647A1.365,1.365,0,0,1,1.283,32.6Zm17.475-.655-1.526,1.526a1.68,1.68,0,0,1-.548.366V31.962a.562.562,0,0,1,.561-.561h1.879A1.68,1.68,0,0,1,18.758,31.948Z" fill="#333537" stroke="#333537" stroke-width="0.5"/>
    <path id="Path_3966" data-name="Path 3966" d="M123.55,208.642a.642.642,0,0,0-.642-.642H112.642a.642.642,0,1,0,0,1.283h10.267A.642.642,0,0,0,123.55,208.642Z" transform="translate(-107.508 -184.3)" fill="#333537" stroke="#333537" stroke-width="0.5"/>
    <path id="Path_3967" data-name="Path 3967" d="M152.342,288h-7.7a.642.642,0,1,0,0,1.283h7.7a.642.642,0,0,0,0-1.283Z" transform="translate(-138.225 -261.091)" fill="#333537" stroke="#333537" stroke-width="0.5"/>
  </g>
</svg>
