<svg xmlns="http://www.w3.org/2000/svg" width="19.567" height="15.612" viewBox="0 0 19.567 15.612">
  <g id="payment-icon" transform="translate(0.25 -52.849)">
    <path id="Path_3953" data-name="Path 3953" d="M18.727,54.728a1.423,1.423,0,0,0-.974-.5L4.327,53.1a1.432,1.432,0,0,0-1.546,1.3l-.27,2.534H1.432A1.434,1.434,0,0,0,0,58.374v8.4a1.434,1.434,0,0,0,1.432,1.432H14.905a1.434,1.434,0,0,0,1.432-1.432V65.416l.478.04q.06.005.12.005a1.434,1.434,0,0,0,1.426-1.313l.7-8.376a1.423,1.423,0,0,0-.334-1.044Zm-17.3,2.959H14.905a.688.688,0,0,1,.687.687v.766H.745v-.766a.688.688,0,0,1,.687-.687Zm-.687,2.2H15.593V61.43H.745Zm14.161,7.581H1.432a.688.688,0,0,1-.687-.687v-4.6H15.593v4.6a.688.688,0,0,1-.687.687ZM18.319,55.71l-.7,8.376a.688.688,0,0,1-.742.628l-.54-.045V58.374a1.434,1.434,0,0,0-1.432-1.432H3.26l.262-2.459v-.008a.688.688,0,0,1,.742-.628l13.427,1.121a.687.687,0,0,1,.628.742Z" fill="#fff" stroke="#fff" stroke-width="0.5"/>
    <path id="Path_3954" data-name="Path 3954" d="M274.587,326.532H271a.372.372,0,0,0-.372.372v2.338a.372.372,0,0,0,.372.372h3.584a.372.372,0,0,0,.372-.372V326.9A.372.372,0,0,0,274.587,326.532Zm-.372,2.338h-2.839v-1.593h2.839Z" transform="translate(-260.553 -263.25)" fill="#fff" stroke="#fff" stroke-width="0.5"/>
  </g>
</svg>
