<svg xmlns="http://www.w3.org/2000/svg" width="16.894" height="18.5" viewBox="0 0 16.894 18.5">
  <g id="pda-icon" transform="translate(-22.227)">
    <path id="Path_3959" data-name="Path 3959" d="M39.121,7.435A7.436,7.436,0,0,0,24.609,5.147l-.013.039-.324,2L22.227,10.9v1.386h1.7l.686,3.747h3.864l.583,2.468h8.832l-1.022-5.737a7.448,7.448,0,0,0,2.249-5.328Zm-9.2,9.981-.583-2.468H25.519L24.833,11.2H23.311v-.023l2-3.631.34-2.105A6.352,6.352,0,0,1,38.037,7.435,6.54,6.54,0,0,1,35.7,12.366l.9,5.05Z" transform="translate(0 0)" fill="#fff"/>
    <path id="Path_3960" data-name="Path 3960" d="M236.6,120.5a1.684,1.684,0,0,0-1.251.468,1.7,1.7,0,0,0-.525,1.227h1.084a.612.612,0,0,1,.642-.612.612.612,0,0,1,.332,1.105,2.254,2.254,0,0,0-.9,1.815h1.084a1.167,1.167,0,0,1,.462-.941,1.7,1.7,0,0,0-.925-3.061Z" transform="translate(-204.918 -116.146)" fill="#fff"/>
    <path id="Path_3961" data-name="Path 3961" d="M266.771,256.748h1.084v1.088h-1.084Z" transform="translate(-235.708 -247.471)" fill="#fff"/>
    <path id="Path_3962" data-name="Path 3962" d="M153,66.666a4.94,4.94,0,1,0,4.94,4.94A4.945,4.945,0,0,0,153,66.666Zm0,8.8a3.856,3.856,0,1,1,3.856-3.856A3.86,3.86,0,0,1,153,75.462Z" transform="translate(-121.283 -64.257)" fill="#fff"/>
  </g>
</svg>
