<svg xmlns="http://www.w3.org/2000/svg" width="19.614" height="13.688" viewBox="0 0 19.614 13.688">
  <g id="product-icon" transform="translate(-66.681 -287.75)">
    <path id="Path_3912" data-name="Path 3912" d="M84.254,288H68.722l-1.668,4.058h1.509v9.13h15.85v-9.13h1.509Zm-.516,1.015.834,2.029H78l-.834-2.029Zm-14.5,0h6.575l-.834,2.029H68.4Zm14.341,11.159H76.905v-3.551h-.834v3.551H69.4v-8.116h6.1l.576-1.4V295.1h.834v-4.446l.576,1.4h6.1Zm0,0" fill="#fff" stroke="#fff" stroke-width="0.5"/>
    <path id="Path_3913" data-name="Path 3913" d="M128,416h3.043v1.014H128Zm0,0" transform="translate(-57.873 -119.884)" fill="#fff" stroke="#fff" stroke-width="0.5"/>
    <path id="Path_3914" data-name="Path 3914" d="M128,448h3.043v1.015H128Zm0,0" transform="translate(-57.873 -149.855)" fill="#fff" stroke="#fff" stroke-width="0.5"/>
    <path id="Path_3915" data-name="Path 3915" d="M192,448h1.014v1.015H192Zm0,0" transform="translate(-118.497 -149.855)" fill="#fff" stroke="#fff" stroke-width="0.5"/>
  </g>
</svg>
