<svg width="25" height="24" viewBox="0 0 25 24" fill="none" xmlns="http://www.w3.org/2000/svg">
<path d="M16.9268 16.9C19.6268 14.2 19.6268 9.7 16.9268 7" stroke="white" stroke-width="1.5" stroke-miterlimit="10" stroke-linecap="round" stroke-linejoin="round"/>
<path d="M7.12632 7.09961C4.42632 9.79961 4.42632 14.2996 7.12632 16.9996" stroke="white" stroke-width="1.5" stroke-miterlimit="10" stroke-linecap="round" stroke-linejoin="round"/>
<path d="M9.72632 13.5998C9.72632 14.4998 10.4263 15.1998 11.3263 15.1998H13.0263C13.7263 15.1998 14.4263 14.5998 14.4263 13.7998C14.4263 12.8998 14.0263 12.5998 13.5263 12.3998L10.7263 11.3998C10.0263 11.2998 9.72632 10.9998 9.72632 10.1998C9.72632 9.3998 10.3263 8.7998 11.1263 8.7998H12.9263C13.8263 8.7998 14.5263 9.4998 14.5263 10.3998" stroke="white" stroke-width="1.5" stroke-linecap="round" stroke-linejoin="round"/>
<path d="M12.0264 7.7998V16.1998" stroke="white" stroke-width="1.5" stroke-linecap="round" stroke-linejoin="round"/>
<path d="M12.0264 22C17.5492 22 22.0264 17.5228 22.0264 12C22.0264 6.47715 17.5492 2 12.0264 2C6.50352 2 2.02637 6.47715 2.02637 12C2.02637 17.5228 6.50352 22 12.0264 22Z" stroke="white" stroke-width="1.5" stroke-miterlimit="10" stroke-linecap="round" stroke-linejoin="round"/>
</svg>
