<svg xmlns="http://www.w3.org/2000/svg" width="17.33" height="19.689" viewBox="0 0 17.33 19.689">
  <g id="refund-icon" transform="translate(-11.608)">
    <g id="Group_15127" data-name="Group 15127" transform="translate(11.608)">
      <g id="Group_15126" data-name="Group 15126" transform="translate(0)">
        <path id="Path_3963" data-name="Path 3963" d="M25.588,4.177l-.95,1.22a7.124,7.124,0,1,1-3.975-1.483l-1.337,1.4.992.946,2.11-2.215h0l.945-.993-.991-.945h0L20.169,0l-.946.993,1.443,1.374a8.664,8.664,0,0,0-1.739,17.215,8.757,8.757,0,0,0,1.365.107,8.668,8.668,0,0,0,5.3-15.512Z" transform="translate(-11.608)" fill="#fff"/>
        <path id="Path_3964" data-name="Path 3964" d="M72.318,78.251h0v-.89A2.118,2.118,0,0,0,74.4,75.311c0-1.719-1.6-1.916-2.766-2.06-.747-.089-1.318-.193-1.318-.645,0-.629.886-.7,1.267-.7a1.72,1.72,0,0,1,1.374.605l.06.1,1.173-.543-.058-.118A2.315,2.315,0,0,0,72.318,70.7v-.783H70.945v.78c-1.278.189-2.038.9-2.038,1.913,0,1.655,1.5,1.823,2.6,1.946.977.115,1.432.357,1.432.759,0,.768-1.064.829-1.391.829a1.79,1.79,0,0,1-1.629-.843l-.05-.119-1.274.54.051.119a2.687,2.687,0,0,0,2.3,1.567v.847Z" transform="translate(-62.805 -62.809)" fill="#fff"/>
      </g>
    </g>
  </g>
</svg>
