<svg width="20" height="20" viewBox="0 0 20 20" fill="none" xmlns="http://www.w3.org/2000/svg">
<g clip-path="url(#clip0_283_1878)">
<mask id="mask0_283_1878" style="mask-type:luminance" maskUnits="userSpaceOnUse" x="0" y="0" width="20" height="20">
<path d="M20 0H0V20H20V0Z" fill="white"/>
</mask>
<g mask="url(#mask0_283_1878)">
<path fill-rule="evenodd" clip-rule="evenodd" d="M16.1043 10.3573C18.2566 10.3573 20 12.0686 20 14.1784C20 16.2898 18.2555 18 16.1043 18C13.9524 18 12.209 16.2891 12.209 14.1784C12.209 12.0671 13.9531 10.3573 16.1043 10.3573ZM9.09884 0C10.3281 0 11.5051 0.24141 12.5789 0.677864L12.6145 0.693957C13.7125 1.14574 14.7012 1.80291 15.5293 2.61566C16.3707 3.44182 17.0469 4.42431 17.5066 5.51296C17.952 6.56637 18.1976 7.72052 18.1976 8.92566C18.1976 9.23949 18.1809 9.55026 18.148 9.85566C17.7264 9.66319 17.2785 9.53179 16.8184 9.46557C16.8313 9.2874 16.8375 9.10731 16.8375 8.92566C16.8375 7.89527 16.6297 6.91468 16.2527 6.02337C15.8632 5.10142 15.2923 4.26376 14.5726 3.55832C13.8656 2.86359 13.0254 2.30451 12.0926 1.92055L12.0586 1.90791C11.1496 1.53813 10.1504 1.33427 9.09884 1.33427C8.04764 1.33427 7.04803 1.53813 6.13945 1.90791C5.19181 2.29186 4.33984 2.85592 3.62735 3.55601C2.91914 4.24958 2.34922 5.07458 1.95781 5.98926L1.94492 6.02261C1.56797 6.91389 1.36015 7.89448 1.36015 8.92566C1.36015 9.95722 1.56797 10.9378 1.94492 11.8291C2.17935 12.3855 2.48084 12.9123 2.84297 13.3983C3.6379 12.9135 5.57148 12.6235 6.37032 12.3752C7.16758 12.1268 7.24494 12.0667 7.46913 11.4122C7.18126 11.1708 6.90313 10.793 6.85664 10.2948L6.81835 10.2952C6.73087 10.2944 6.64648 10.2745 6.56758 10.2304C6.441 10.1595 6.35197 10.0384 6.29181 9.90164C6.08868 9.50848 5.85039 8.55856 6.384 8.64439L6.31758 8.52177C6.30506 8.36965 6.30197 8.18612 6.29845 7.99298C6.2871 7.28368 6.27226 6.42382 5.691 6.25137L5.44142 6.17741C6.70352 4.64198 8.99142 2.41257 10.8285 4.60671C12.6836 4.78377 13.2754 7.5155 12.0027 8.72141C12.0789 8.72409 12.1512 8.74172 12.2148 8.77506C12.457 8.90229 12.4648 9.17817 12.4012 9.41078C12.3383 9.60429 12.2586 9.82885 12.1828 10.0174C12.091 10.2726 11.957 10.3201 11.6976 10.2925C11.6863 10.8435 11.3215 11.1068 10.9629 11.4122C11.2531 11.821 11.3504 12.0011 11.6945 12.1809C11.4082 12.7886 11.2476 13.4653 11.2476 14.1784C11.2476 14.8598 11.3934 15.5077 11.6563 16.094L11.6652 16.1139L11.6703 16.1247L11.6742 16.1331L11.6836 16.153L11.6863 16.1588L11.6922 16.1722L11.7015 16.1917L11.7024 16.1929L11.7109 16.2109L11.7184 16.227L11.7203 16.2304L11.7297 16.2496L11.7395 16.2691L11.7492 16.2887L11.752 16.2944L11.7586 16.3074L11.7684 16.3266L11.7687 16.3281L11.7785 16.3458L11.7863 16.3615L11.7883 16.3646L11.798 16.3833L11.8043 16.3944L11.8086 16.4029L11.8187 16.4212L11.8223 16.4278L11.8289 16.44L11.8395 16.4592L11.8398 16.4603L11.85 16.478L11.8582 16.4933L11.8605 16.4964L11.8711 16.5147L11.8774 16.5259C12.0254 16.7818 12.1965 17.0236 12.3898 17.2478C11.3405 17.6474 10.2245 17.8522 9.09884 17.8517C7.87032 17.8517 6.69335 17.6103 5.61913 17.1735L5.58319 17.1578C4.48477 16.706 3.49648 16.0484 2.66836 15.2361C1.82891 14.4122 1.15313 13.4297 0.692187 12.3391C0.246094 11.2861 0 10.1319 0 8.92566C0 7.71976 0.246094 6.56558 0.691016 5.5122L0.707032 5.47696C1.16797 4.3998 1.83789 3.42995 2.66641 2.61796C3.50626 1.7941 4.50703 1.13118 5.61952 0.679014C6.69297 0.24141 7.86952 0 9.09884 0ZM15.4563 12.5196C15.4547 12.3318 15.4371 12.1977 15.6742 12.2012L16.443 12.2104C16.6906 12.2088 16.7566 12.2859 16.7535 12.5142V13.5423H17.7957C17.9867 13.5404 18.1235 13.5236 18.1199 13.7562L18.1105 14.5099C18.1121 14.7532 18.0336 14.8176 17.8012 14.8149H16.7535V15.8422C16.7566 16.0706 16.6906 16.1476 16.443 16.1461L15.6742 16.1553C15.4371 16.1588 15.4547 16.0246 15.4563 15.8369V14.8149H14.4082C14.1758 14.8176 14.0973 14.7532 14.0988 14.5099L14.0895 13.7562C14.0859 13.5236 14.2226 13.5404 14.4137 13.5423H15.4563V12.5196Z" fill="white"/>
</g>
</g>
<defs>
<clipPath id="clip0_283_1878">
<rect width="20" height="20" fill="white"/>
</clipPath>
</defs>
</svg>
