<svg xmlns="http://www.w3.org/2000/svg" width="15.436" height="19.5" viewBox="0 0 15.436 19.5">
  <path id="sessionsIcon" d="M1.473,1.306H2.829V.452a.454.454,0,0,1,.906,0v.854H5.727V.452a.452.452,0,1,1,.9,0v.854H8.623V.452a.454.454,0,0,1,.906,0v.854h1.992V.452a.452.452,0,1,1,.9,0v.854h1.539a1.474,1.474,0,0,1,1.471,1.473V18.027A1.479,1.479,0,0,1,13.965,19.5H1.473A1.476,1.476,0,0,1,0,18.027V2.779A1.474,1.474,0,0,1,1.473,1.306Zm1.9,14.331a.44.44,0,1,1,0-.879h8.684a.44.44,0,1,1,0,.879Zm0-2.9a.44.44,0,0,1,0-.878h8.684a.44.44,0,0,1,0,.878Zm0-2.9a.44.44,0,0,1,0-.879h8.684a.44.44,0,0,1,0,.874Zm0-2.9a.44.44,0,0,1,0-.878h8.684a.44.44,0,0,1,0,.878Zm9.055-4.761v.854a.452.452,0,0,1-.9,0V2.184h-2v.854a.454.454,0,0,1-.906,0V2.184H6.632v.854a.452.452,0,1,1-.9,0V2.184H3.736v.854a.454.454,0,0,1-.906,0V2.184H1.473a.587.587,0,0,0-.419.175.6.6,0,0,0-.176.421V18.027a.6.6,0,0,0,.6.6H13.965a.6.6,0,0,0,.594-.6V2.779a.6.6,0,0,0-.594-.6Z" fill="#fff"/>
</svg>
