<svg xmlns="http://www.w3.org/2000/svg" width="38.554" height="24.875" viewBox="0 0 38.554 24.875">
  <g id="serviceProviders" transform="translate(-4406.089 -503)">
    <path id="civil-engineering-icon" d="M10.38,1.417a.446.446,0,0,1-.165-.026,5.393,5.393,0,0,0-2.992,4.52.5.5,0,0,1-.564.419.488.488,0,0,1-.438-.539A6.308,6.308,0,0,1,9.824.5,6.214,6.214,0,0,1,12.674,0a6.936,6.936,0,0,1,2.794.765,5.918,5.918,0,0,1,3.315,5.068.5.5,0,0,1-1.007.039A4.979,4.979,0,0,0,14.99,1.623l-.2-.1a.509.509,0,0,1-.179.028c-.46-.012-.58.814-.611,1.909-.014.493,0,1.038,0,1.594,0,.442.016.893.016,1.193a.5.5,0,0,1-1,0c0-.488,0-.836-.012-1.178-.012-.568-.022-1.121-.01-1.628A4.451,4.451,0,0,1,13.5,1.1a5.729,5.729,0,0,0-.877-.124,5.577,5.577,0,0,0-1.121.049,4.744,4.744,0,0,1,.474,2.326c.014.527,0,1.1,0,1.693,0,.352-.012.71-.012,1.207a.49.49,0,1,1-.979,0c0-.311,0-.769.018-1.221,0-.578.02-1.144,0-1.655-.026-1.13-.149-1.966-.611-1.954Zm7.964,6.568c.039.094.075.189.11.285.055.145.1.293.147.444V8.73c.053.285.088.431.11.521a1.052,1.052,0,0,1,.031.163,1.453,1.453,0,0,1,0,.2c0,.1,0,.25,0,.5v.014a3.724,3.724,0,0,1-.081.539,5.768,5.768,0,0,1-.159.572h0a2.8,2.8,0,0,1-.474.869,1.105,1.105,0,0,1-.523.368l-.037.13-.061.242a5.994,5.994,0,0,1-1.864,3.01,4.451,4.451,0,0,1-3.018,1.077h0a4.6,4.6,0,0,1-3.035-1.172,7,7,0,0,1-1.946-3.189v-.018c-.014-.051-.035-.112-.055-.173v-.031a.957.957,0,0,1-.456-.236,1.97,1.97,0,0,1-.45-.635h0a3.9,3.9,0,0,1-.22-.611,4.071,4.071,0,0,1-.12-.647,3.281,3.281,0,0,1,.122-1.144,7.4,7.4,0,0,1,.315-.955C6.6,8.089,6.519,8.042,6.444,8a2.829,2.829,0,0,1-1.1-1.152l.918-.407h0A1.893,1.893,0,0,0,7,7.179,10.645,10.645,0,0,0,12.13,8.223a13.839,13.839,0,0,0,5.5-.965,2.649,2.649,0,0,0,1.132-.869l.867.5a3.313,3.313,0,0,1-1.276,1.1ZM7.693,8.563h0a1.848,1.848,0,0,0-.374.692,2.267,2.267,0,0,0-.157.859,3.981,3.981,0,0,0,.1.539,2.792,2.792,0,0,0,.169.466v.014a1.274,1.274,0,0,0,.261.381.183.183,0,0,0,.134.063.35.35,0,0,1,.279.031.393.393,0,0,1,.173.2h0c.043.13.071.222.1.305s.041.132.059.2a5.172,5.172,0,0,0,2.035,2.825,3.991,3.991,0,0,0,2.131.672,3.635,3.635,0,0,0,2.088-.627,4.631,4.631,0,0,0,1.787-2.581c.037-.147.077-.289.124-.446l.047-.169a.427.427,0,0,1,.14-.2H16.8a.336.336,0,0,1,.256-.055h0c.051,0,.118-.045.191-.134a2.259,2.259,0,0,0,.332-.637,4.34,4.34,0,0,0,.136-.478,3.079,3.079,0,0,0,.071-.436,1.384,1.384,0,0,0-.136-.7A3.7,3.7,0,0,1,17.528,9c-.028-.088-.057-.169-.085-.242s-.061-.161-.094-.236a.218.218,0,0,1-.014-.079,17.147,17.147,0,0,1-9.645.142Zm17.316,16.3c-.283-3.686.44-5.123-2.646-6.281a29.66,29.66,0,0,1-4.927-2.192L14.79,24.861ZM0,24.861c.283-3.686-.44-5.127,2.646-6.281a29.66,29.66,0,0,0,4.927-2.192l2.646,8.473ZM13.245,19.61h.368A.611.611,0,0,0,14.224,19v-.981a.611.611,0,0,0-.611-.611H11.42a.611.611,0,0,0-.611.611V19a.611.611,0,0,0,.611.611h.372l-.714,5.251h2.86l-.692-5.251Z" transform="translate(4412.241 503.009)" fill="#fff"/>
    <path id="construction-worker-icon" d="M6.363.74A.262.262,0,0,1,6.276.725,2.822,2.822,0,0,0,4.712,3.081a.261.261,0,0,1-.294.22.256.256,0,0,1-.229-.283A3.3,3.3,0,0,1,6.073.26,3.238,3.238,0,0,1,7.559,0,3.592,3.592,0,0,1,9.012.4a3.094,3.094,0,0,1,1.73,2.647.263.263,0,0,1-.526.02A2.591,2.591,0,0,0,8.763.852L8.662.8A.269.269,0,0,1,8.568.81c-.241,0-.3.421-.318,1v.83c0,.231.01.466.01.622a.262.262,0,0,1-.525,0V2.644c0-.3-.011-.585,0-.852A2.284,2.284,0,0,1,8,.57,3.053,3.053,0,0,0,7.537.508a2.963,2.963,0,0,0-.585.025A2.419,2.419,0,0,1,7.2,1.746v.883c0,.183-.006.371-.006.629a.255.255,0,0,1-.51,0c0-.161,0-.4.008-.638,0-.3.011-.6,0-.861C6.679,1.168,6.615.733,6.371.74ZM9.426,7.846a2.971,2.971,0,0,0,2.6,2.185c1.409.371,2.755.722,2.755,3.635a.2.2,0,0,1-.2.2H.2a.2.2,0,0,1-.2-.2c0-2.905,1.416-3.248,2.887-3.6,1.119-.268,2.271-.545,2.706-2.21h0a3.939,3.939,0,0,1-.678-1.305,1.323,1.323,0,0,0-.042-.134.57.57,0,0,1-.395-.307,2.076,2.076,0,0,1-.248-.781,1.708,1.708,0,0,1,.063-.586,4.051,4.051,0,0,1,.171-.5c-.052-.028-.1-.057-.149-.087a1.469,1.469,0,0,1-.574-.6l.481-.209h0A.986.986,0,0,0,4.6,3.74a5.607,5.607,0,0,0,2.677.545,7.176,7.176,0,0,0,2.864-.5,1.382,1.382,0,0,0,.589-.452l.454.26a1.744,1.744,0,0,1-.692.589c.02.047.038.1.057.143h0q.042.114.076.227v.008c.029.148.047.224.058.269h0c.007.036.012.054.014.078a.863.863,0,0,1,0,.1c0,.052,0,.131,0,.265h0a1.925,1.925,0,0,1-.042.277,2.593,2.593,0,0,1-.082.295h0a1.46,1.46,0,0,1-.241.443.547.547,0,0,1-.278.188L10,6.68a3.255,3.255,0,0,1-.568,1.151ZM4.781,9.8a5.024,5.024,0,0,0,2.642.663,4.875,4.875,0,0,0,2.647-.825,2.981,2.981,0,0,1-.948-1.415,1.844,1.844,0,0,1-.426.268,2.246,2.246,0,0,1-1.2.309A2.37,2.37,0,0,1,6.4,8.525a2.511,2.511,0,0,1-.361-.182c-.045-.028-.088-.057-.131-.087A2.839,2.839,0,0,1,4.793,9.795Zm.152-5.346a1.034,1.034,0,0,0-.2.78,1.949,1.949,0,0,0,.1.506A.639.639,0,0,0,5,6.028H5a.07.07,0,0,0,.052.016.153.153,0,0,1,.12.014.171.171,0,0,1,.078.093c.03.082.055.177.082.262A2.746,2.746,0,0,0,6.4,7.911a2.066,2.066,0,0,0,1.109.352,1.865,1.865,0,0,0,1.091-.327,2.448,2.448,0,0,0,.936-1.361c.02-.081.042-.154.065-.241l.026-.093A.186.186,0,0,1,9.7,6.15h0a.154.154,0,0,1,.12-.025c.043.008.1-.025.153-.085a1.009,1.009,0,0,0,.183-.325,1.91,1.91,0,0,0,.047-.665,3.311,3.311,0,0,0-.174-.63.069.069,0,0,1,0-.031h0A8.98,8.98,0,0,1,4.932,4.454Z" transform="translate(4429.858 509.907)" fill="#fff"/>
    <g id="handyman-worker-icon" transform="translate(4406.089 509.903)">
      <path id="Path_4570" data-name="Path 4570" d="M11.221,3.1l0,.013a18.546,18.546,0,0,0-3.338-.225,20.929,20.929,0,0,0-3.8.359V3.246C3.1-1.387,12.522-.725,11.221,3.1ZM3.662,11.888a.341.341,0,1,1-.341.341.342.342,0,0,1,.341-.341Zm8.231,0a.341.341,0,1,1-.341.341.342.342,0,0,1,.341-.341ZM5.747,8.118a4.243,4.243,0,0,1-1.756.659l.833,2.363h6.057l.656-2.347A3.876,3.876,0,0,1,10.151,8.5a1.688,1.688,0,0,1-.462-.447l-.024-.39a2.382,2.382,0,0,0,.377-.385,2.792,2.792,0,0,0,.468-1.047c.024-.087.048-.173.077-.26.236-.024.443-.289.569-.617a2.266,2.266,0,0,0,.136-.574.87.87,0,0,0-.068-.492.3.3,0,0,0-.246-.168,1.98,1.98,0,0,1,.094-.517,18.308,18.308,0,0,0-3.188-.2,20.455,20.455,0,0,0-3.695.349l.107.511a.962.962,0,0,0-.077.574,1.952,1.952,0,0,0,.188.646c.126.246.3.419.511.419.019.058.044.12.063.183a3.439,3.439,0,0,0,.6,1.23,2.213,2.213,0,0,0,.285.289l-.024.438c-.03.029-.06.055-.092.082Zm-2.722.838C1.948,9.2,1,9.731.472,12.066L0,13.874H2.56V11.638a.5.5,0,0,1,.5-.5h.532a8.37,8.37,0,0,0-.566-2.184Zm9.97,4.917h2.427l-.5-1.942c-.464-2.091-1.4-2.736-2.382-2.983a10.392,10.392,0,0,0-.419,2.19H12.5a.5.5,0,0,1,.5.5v2.237Zm-6.3-12.2H8.729a.087.087,0,0,1,.087.087v.469a.087.087,0,0,1-.087.087H6.693a.087.087,0,0,1-.087-.087V1.76a.087.087,0,0,1,.087-.087ZM9.36,7.815a2.338,2.338,0,0,1-1.58.545,2.706,2.706,0,0,1-1.59-.589,1.593,1.593,0,1,0,3.17.044Zm.816-1.659c.029-.1.063-.207.1-.333a.11.11,0,0,1,.12-.082c.159.029.319-.2.429-.482a2.075,2.075,0,0,0,.126-.516.7.7,0,0,0-.044-.371c-.043-.08-.162-.033-.251-.11C10.2,5.473,6.22,6.021,4.591,4.354a.748.748,0,0,0-.048.439,1.782,1.782,0,0,0,.168.574c.1.2.231.333.361.3a.11.11,0,0,1,.131.068c.039.107.063.188.092.27.843,2.479,4.053,2.673,4.881.153Z" transform="translate(0 0.001)" fill="#fff" fill-rule="evenodd"/>
    </g>
  </g>
</svg>
