<svg xmlns="http://www.w3.org/2000/svg" width="16.491" height="18.704" viewBox="0 0 16.491 18.704">
  <path id="ourCoachesIcon" d="M7.746,8.852A4.426,4.426,0,1,0,3.32,4.426,4.426,4.426,0,0,0,7.746,8.852Zm3.313,1.127L9.405,16.6,8.3,11.895,9.405,9.959H6.086l1.107,1.936L6.086,16.6,4.433,9.979A4.639,4.639,0,0,0,0,14.606v1.438A1.66,1.66,0,0,0,1.66,17.7H13.831a1.66,1.66,0,0,0,1.66-1.66V14.606a4.639,4.639,0,0,0-4.433-4.627Z" transform="translate(0.5 0.5)" fill="none" stroke="#fff" stroke-width="1"/>
</svg>
