<svg width="22" height="23" viewBox="0 0 22 23" fill="none" xmlns="http://www.w3.org/2000/svg">
<path d="M15.582 3.68652H6.41536C3.66536 3.68652 1.83203 5.06152 1.83203 8.26986V14.6865C1.83203 17.8949 3.66536 19.2699 6.41536 19.2699H15.582C18.332 19.2699 20.1654 17.8949 20.1654 14.6865V8.26986C20.1654 5.06152 18.332 3.68652 15.582 3.68652ZM16.0129 9.26902L13.1437 11.5607C12.5387 12.0465 11.7687 12.2849 10.9987 12.2849C10.2287 12.2849 9.44953 12.0465 8.8537 11.5607L5.98453 9.26902C5.6912 9.03069 5.64536 8.59069 5.87453 8.29736C6.11286 8.00402 6.5437 7.94902 6.83703 8.18736L9.7062 10.479C10.4029 11.0382 11.5854 11.0382 12.282 10.479L15.1512 8.18736C15.4445 7.94902 15.8845 7.99486 16.1137 8.29736C16.352 8.59069 16.3062 9.03069 16.0129 9.26902Z" fill="white"/>
</svg>
