<svg width="38" height="38" viewBox="0 0 38 38" fill="none" xmlns="http://www.w3.org/2000/svg">
<rect width="37.5789" height="37.5789" rx="18.7894" fill="#F7F400"/>
<path d="M29.6837 24.0845C29.5877 23.7664 29.1274 23.5424 29.1274 23.5424H29.1279C29.0854 23.5187 29.0461 23.4986 29.0132 23.483C28.2476 23.1123 27.5697 22.6681 26.9979 22.1621C26.5386 21.7562 26.1455 21.3083 25.8292 20.832C25.4439 20.251 25.2633 19.7661 25.1847 19.5033C25.1417 19.3323 25.1486 19.2642 25.1847 19.1751C25.2153 19.1006 25.3026 19.0279 25.3456 18.9955C25.6048 18.8126 26.0207 18.543 26.2762 18.3775C26.4974 18.2344 26.688 18.1106 26.7991 18.0333C27.1588 17.7819 27.4043 17.526 27.5496 17.2504C27.7379 16.8934 27.7599 16.5003 27.6136 16.1136C27.4161 15.5921 26.9294 15.2808 26.3114 15.2808C26.1734 15.2808 26.0326 15.2964 25.8918 15.327C25.538 15.4038 25.2016 15.5295 24.9201 15.6392C24.9153 15.641 24.9102 15.6417 24.9052 15.6411C24.9001 15.6404 24.8953 15.6386 24.8912 15.6356C24.887 15.6327 24.8837 15.6287 24.8815 15.6242C24.8793 15.6196 24.8782 15.6145 24.8785 15.6095C24.9086 14.9124 24.9415 13.9763 24.8643 13.0855C24.7948 12.2806 24.6294 11.6023 24.3583 11.0113C24.0859 10.4175 23.733 9.97738 23.4561 9.66063C23.1914 9.35804 22.7288 8.91331 22.03 8.51337C21.0459 7.95025 19.9261 7.66504 18.7016 7.66504C17.4803 7.66504 16.3613 7.95025 15.3759 8.51337C14.6363 8.93571 14.1633 9.41381 13.9475 9.66063C13.6705 9.97738 13.3172 10.4175 13.0448 11.0113C12.7738 11.6023 12.6083 12.2806 12.5388 13.0855C12.4616 13.9782 12.4927 14.8402 12.5247 15.609C12.5256 15.6314 12.5036 15.6474 12.4826 15.6392C12.2015 15.5295 11.8646 15.4038 11.5113 15.327C11.371 15.2964 11.2298 15.2808 11.0917 15.2808C10.4738 15.2808 9.98698 15.5921 9.78952 16.1136C9.64326 16.5003 9.66565 16.8934 9.85351 17.2504C9.99886 17.526 10.2448 17.7819 10.604 18.0333C10.7151 18.1106 10.9062 18.2344 11.1269 18.3775C11.3774 18.5398 11.7815 18.8017 12.0415 18.984C12.0735 19.0069 12.1828 19.0896 12.218 19.1751C12.255 19.2665 12.2614 19.3355 12.2143 19.517C12.1339 19.7825 11.9529 20.2611 11.5744 20.832C11.2581 21.3083 10.8646 21.7562 10.4052 22.1621C9.8334 22.6681 9.15556 23.1123 8.38996 23.483C8.35431 23.5004 8.31088 23.5223 8.26381 23.5493V23.5488C8.26381 23.5488 7.80719 23.7829 7.7208 24.0845C7.59328 24.5302 7.93243 24.9475 8.2798 25.1715C8.84658 25.5371 9.53676 25.7337 9.93716 25.8402C10.0487 25.8699 10.1497 25.8968 10.2416 25.9256C10.2992 25.9448 10.4431 25.9992 10.5048 26.0783C10.5825 26.1779 10.5917 26.3023 10.6196 26.4412C10.6644 26.6757 10.7617 26.9673 11.052 27.1675C11.371 27.3883 11.7764 27.4038 12.2897 27.4235C12.8268 27.444 13.495 27.4696 14.2597 27.7219C14.6139 27.8389 14.9353 28.0364 15.3069 28.2649C16.0834 28.7421 17.0502 29.3359 18.7016 29.3359C20.3539 29.3359 21.327 28.7389 22.1091 28.259C22.4784 28.0323 22.7974 27.8362 23.1439 27.7219C23.9086 27.4692 24.5768 27.444 25.1139 27.4235C25.6267 27.4038 26.0321 27.3883 26.3516 27.1675C26.662 26.9531 26.752 26.6336 26.7922 26.3918C26.8142 26.273 26.8293 26.1661 26.8978 26.0783C26.9559 26.0033 27.0889 25.9503 27.152 25.9288C27.2461 25.8991 27.3508 25.8708 27.4664 25.8402C27.8668 25.7337 28.3682 25.6066 28.9793 25.2615C29.7097 24.8488 29.7596 24.3364 29.6837 24.0845Z" fill="white"/>
<path d="M28.6786 24.7158C27.6785 25.2674 27.013 25.2089 26.4961 25.5417C26.0568 25.8242 26.3164 26.4344 25.9974 26.6547C25.6057 26.9257 24.4456 26.635 22.9487 27.13C21.7137 27.5382 20.9252 28.7124 18.702 28.7124C16.4738 28.7124 15.7086 27.5437 14.4553 27.13C12.958 26.6355 11.7984 26.9257 11.4062 26.6547C11.0876 26.4344 11.3472 25.8242 10.908 25.5417C10.391 25.2089 9.72554 25.2674 8.72546 24.7158C8.08829 24.3638 8.44938 24.1462 8.66192 24.0434C12.2856 22.2891 12.8634 19.5805 12.8894 19.3767C12.9205 19.133 12.9552 18.942 12.6874 18.6943C12.4282 18.4547 11.2796 17.744 10.9615 17.5219C10.434 17.1539 10.2018 16.7855 10.3728 16.3335C10.4911 16.0213 10.7837 15.9034 11.0922 15.9034C11.1882 15.9034 11.2855 15.9148 11.3792 15.9354C11.9583 16.061 12.5205 16.3508 12.8455 16.4295C12.8899 16.4404 12.9296 16.4454 12.9648 16.4454C13.1376 16.4454 13.1988 16.3581 13.1874 16.1598C13.1504 15.5267 13.0604 14.2922 13.16 13.139C13.2971 11.5525 13.8086 10.7658 14.417 10.0706C14.709 9.73651 16.0798 8.28758 18.702 8.28758C21.3311 8.28758 22.695 9.73651 22.9871 10.0706C23.5955 10.7658 24.1069 11.5525 24.2441 13.139C24.3437 14.2922 24.2578 15.5272 24.2166 16.1598C24.2034 16.3682 24.266 16.4454 24.4392 16.4454C24.4744 16.4454 24.5142 16.4404 24.5585 16.4295C24.8835 16.3508 25.4457 16.061 26.0248 15.9354C26.1185 15.9148 26.2159 15.9034 26.3119 15.9034C26.6199 15.9034 26.9129 16.0213 27.0313 16.3335C27.2022 16.7855 26.9701 17.1539 26.4426 17.5219C26.124 17.744 24.9758 18.4547 24.7167 18.6943C24.4488 18.942 24.4836 19.133 24.5146 19.3767C24.5407 19.5805 25.1184 22.2891 28.7421 24.0434C28.9547 24.1462 29.3158 24.3638 28.6786 24.7158ZM19.2926 7H18.1119C16.9967 7.07953 15.9646 7.38714 15.0363 7.91781C14.251 8.3662 13.7304 8.86761 13.4315 9.20904C12.7139 10.0304 12.026 11.0611 11.8564 13.0261C11.808 13.5846 11.7961 14.1564 11.8043 14.6912C11.7559 14.6789 11.707 14.6674 11.6571 14.6565C11.4693 14.6158 11.2791 14.5948 11.0922 14.5948C10.1913 14.5948 9.44672 15.0838 9.14917 15.8704C8.93434 16.4381 8.96953 17.0415 9.24744 17.5694C9.44535 17.9442 9.76073 18.2797 10.2123 18.5946C10.3325 18.6787 10.519 18.7994 10.7544 18.9525C10.8819 19.0348 11.068 19.1554 11.2508 19.2761C11.2782 19.2953 11.3769 19.3671 11.4099 19.4356C11.4473 19.5138 11.4487 19.5988 11.3925 19.7542C11.2956 19.9677 11.1576 20.2277 10.961 20.5152C10.3787 21.3672 9.54545 22.0894 8.48092 22.6658C7.91689 22.9661 7.33092 23.1644 7.08364 23.8368C7.02788 23.9876 7 24.1444 7 24.3035C7.00046 24.6797 7.15998 25.0668 7.49318 25.4091L7.49364 25.4082C7.6495 25.576 7.84559 25.7245 8.09287 25.8612C8.67381 26.1816 9.16745 26.3388 9.55596 26.4467C9.62407 26.4668 9.78221 26.518 9.85123 26.5788C10.024 26.7296 9.99932 26.9577 10.2301 27.2909C10.3691 27.4984 10.5304 27.6397 10.6625 27.7311C11.1457 28.0652 11.6887 28.0858 12.2637 28.1077C12.7834 28.1278 13.3725 28.1502 14.0449 28.3724C14.3237 28.4647 14.613 28.6425 14.9485 28.8486C15.6703 29.292 16.6315 29.8825 18.1522 30H19.2505C20.7735 29.8821 21.7411 29.2888 22.4679 28.8427C22.8006 28.6384 23.0886 28.4619 23.3592 28.3724C24.032 28.1502 24.6207 28.1274 25.1404 28.1077C25.7154 28.0858 26.2579 28.0652 26.7415 27.7311C26.8933 27.626 27.0834 27.4555 27.2342 27.194C27.3997 26.9129 27.3956 26.7145 27.551 26.5788C27.6145 26.523 27.7535 26.475 27.8284 26.4522C28.2202 26.3443 28.7206 26.1871 29.3112 25.8612C29.5731 25.7163 29.7783 25.5586 29.9388 25.3785L29.9447 25.3712C30.389 24.8926 30.501 24.3318 30.3186 23.8368C30.1559 23.3944 29.8464 23.1576 29.4936 22.9615C29.4358 22.9281 29.3768 22.8969 29.3167 22.8678C29.2111 22.8139 29.1037 22.7609 28.9967 22.7051C27.897 22.1223 27.0386 21.3869 26.4426 20.5152C26.2419 20.2209 26.1016 19.9553 26.0047 19.7391C25.954 19.5933 25.9563 19.511 25.9924 19.4356C26.0202 19.378 26.0938 19.3186 26.1331 19.2894C26.3219 19.1646 26.5175 19.0375 26.6492 18.9525C26.885 18.7994 27.0711 18.6787 27.1917 18.5946C27.6433 18.2797 27.9587 17.9442 28.1562 17.5694C28.4345 17.0415 28.4697 16.4381 28.2549 15.8704C27.9573 15.0838 27.2128 14.5948 26.3119 14.5948C26.1249 14.5948 25.9352 14.6158 25.7469 14.6565C25.6971 14.6674 25.6482 14.6789 25.5997 14.6912C25.6075 14.1564 25.5961 13.5846 25.5476 13.0261C25.3781 11.0611 24.6902 10.0304 23.9721 9.20904C23.6732 8.86669 23.1521 8.36483 22.3705 7.91781C21.4431 7.3876 20.4101 7.07953 19.2926 7Z" fill="black"/>
</svg>
