<svg width="23" height="22" viewBox="0 0 23 22" fill="none" xmlns="http://www.w3.org/2000/svg">
<mask id="path-1-outside-1_706_2303" maskUnits="userSpaceOnUse" x="0" y="0" width="23" height="22" fill="black">
<rect fill="white" width="23" height="22"/>
<path d="M8.49276 13.4981C8.17242 13.0573 7.92633 12.5514 7.77662 11.9939C7.74545 11.8762 7.71879 11.7585 7.69705 11.6409L6.08799 11.8274C6.072 12.2148 5.96618 12.6043 5.76315 12.9651L5.74838 12.993C5.39728 13.601 4.83249 14.0093 4.20372 14.1778C3.58479 14.3434 2.90228 14.2762 2.29976 13.9376L2.27228 13.9228C1.66401 13.5719 1.25508 13.0073 1.08692 12.3788C0.920801 11.7598 0.988477 11.078 1.32727 10.4757L1.34162 10.4483C1.69313 9.84027 2.25792 9.43153 2.8867 9.26303C3.50563 9.0974 4.18813 9.16505 4.79066 9.50369L4.81814 9.51804C5.37596 9.84027 5.76561 10.3417 5.95674 10.9074L7.61748 10.7143H7.62117C7.63799 9.93416 7.85496 9.18227 8.23518 8.52385V8.5218C8.47102 8.11388 8.76962 7.74162 9.12153 7.42143L8.13428 5.9447C7.89816 6.05225 7.64721 6.1237 7.38984 6.15666L7.38738 6.15707C6.67985 6.24809 6.00104 6.04433 5.47685 5.64009C4.95226 5.23627 4.58148 4.63156 4.48919 3.92148V3.91902C4.39772 3.21141 4.60157 2.53331 5.00599 2.00896C5.41 1.4846 6.01539 1.11399 6.72579 1.02174C7.43455 0.929907 8.11377 1.13407 8.63878 1.53831C9.16337 1.94213 9.53415 2.54725 9.62644 3.25733C9.71832 3.96576 9.51447 4.64468 9.10964 5.16985C9.07601 5.21372 9.04073 5.25636 9.00423 5.29818L10.0042 6.79376C10.3167 6.62321 10.6547 6.48669 11.014 6.39035C12.1625 6.08287 13.3273 6.24153 14.3072 6.75071L14.8215 5.99677C14.4594 5.59705 14.2206 5.07966 14.1731 4.50119L14.1726 4.49955C14.1156 3.80095 14.347 3.14417 14.7678 2.6477C15.1894 2.1504 15.8002 1.81381 16.4999 1.756C17.1996 1.6982 17.8571 1.92983 18.3542 2.35088C18.8518 2.77192 19.1885 3.38237 19.2463 4.08219C19.3042 4.7812 19.0724 5.43839 18.6516 5.93569C18.2299 6.43257 17.6192 6.76916 16.9195 6.82697L16.917 6.82738C16.4876 6.86223 16.0733 6.78843 15.703 6.62813L15.2034 7.35993C15.8691 7.93759 16.3752 8.71244 16.6201 9.62627C16.8194 10.3683 16.8231 11.1178 16.6631 11.8196L17.2411 12.0295C17.2562 12.0058 17.2722 11.9828 17.2882 11.9598C17.6693 11.417 18.2574 11.0198 18.9621 10.8968C19.6663 10.7738 20.3546 10.948 20.8976 11.3293C21.4403 11.7102 21.8377 12.2981 21.9608 13.002C22.0842 13.7059 21.9099 14.3939 21.5285 14.9371C21.1474 15.4795 20.5592 15.8767 19.8546 15.9997C19.1503 16.1231 18.4621 15.9485 17.919 15.5676C17.3764 15.1867 16.979 14.5988 16.8555 13.8945C16.8058 13.6118 16.8036 13.3228 16.8489 13.0393L16.2997 12.8392C16.2784 12.8819 16.2571 12.9241 16.2345 12.9659C15.4634 14.4074 13.8269 15.4795 12.1748 15.4795C12.1001 15.4795 12.0259 15.4774 11.952 15.4737L11.8528 16.1063C12.3515 16.3121 12.7888 16.6778 13.0804 17.18C13.4327 17.7876 13.5057 18.4801 13.3384 19.1081C13.171 19.7379 12.7633 20.304 12.1555 20.6562L12.1502 20.6595C11.5439 21.0088 10.8532 21.0809 10.2265 20.9145C9.5965 20.7472 9.03048 20.3397 8.67774 19.7321L8.672 19.7219C8.32459 19.1167 8.25364 18.4284 8.41975 17.8036C8.5871 17.1739 8.99479 16.6081 9.60265 16.256L9.60839 16.2527C9.96775 16.0448 10.3727 15.9284 10.7876 15.9136L10.8877 15.2761C9.98738 14.983 9.04811 14.2631 8.49276 13.4981ZM14.5898 13.3767C14.8736 13.1123 15.1107 12.8027 15.292 12.4633C15.6972 11.7065 15.826 10.7988 15.5856 9.90259C15.3346 8.96621 14.7292 8.22129 13.9536 7.7736C13.1768 7.32509 12.2273 7.1734 11.2905 7.4243C10.3549 7.67479 9.60962 8.28114 9.16091 9.05763L9.15968 9.05723C8.71219 9.83331 8.56044 10.7816 8.81145 11.7175C8.92589 12.1447 9.11456 12.5326 9.35984 12.87C9.48781 13.0463 9.63095 13.209 9.78681 13.3566C10.2232 13.2623 10.6945 13.2135 11.044 12.9696C11.0759 12.9216 11.1104 12.8524 11.1436 12.7765C11.1937 12.6625 11.2388 12.5383 11.2679 12.453C11.1461 12.31 11.0419 12.148 10.9418 11.9885L10.6121 11.4642C10.4915 11.2846 10.4287 11.1202 10.4246 10.9849C10.4226 10.9218 10.4336 10.864 10.457 10.8136C10.4816 10.7603 10.5194 10.7164 10.5706 10.682C10.5944 10.6656 10.6215 10.652 10.6506 10.6414C10.6289 10.3564 10.6215 9.99893 10.635 9.69842C10.6416 9.6275 10.6559 9.55616 10.6756 9.48483C10.7601 9.18432 10.9709 8.94161 11.2326 8.77557C11.3766 8.68333 11.5349 8.61486 11.6998 8.56813C11.8044 8.5382 11.6104 8.20407 11.7183 8.19218C12.2428 8.13806 13.0898 8.6165 13.4553 9.01213C13.6386 9.21014 13.7539 9.47253 13.7789 9.82019L13.7584 10.6758C13.8499 10.7037 13.9085 10.7615 13.9323 10.8554C13.9581 10.9595 13.9302 11.1063 13.8417 11.3055C13.84 11.3088 13.838 11.3129 13.8359 11.3162L13.4602 11.9352C13.322 12.1624 13.1817 12.3907 12.9988 12.5703C13.0152 12.5941 13.0324 12.6178 13.0484 12.642C13.1226 12.7511 13.1981 12.8606 13.2937 12.9577C13.2974 12.961 13.3002 12.9647 13.3019 12.9676C13.5845 13.1672 14.1316 13.2681 14.5898 13.3767ZM2.73863 13.1652C3.12869 13.3824 3.57125 13.4251 3.97362 13.3173C4.38255 13.2078 4.75005 12.9421 4.9781 12.5469L4.99041 12.5268C5.20779 12.1369 5.25045 11.6946 5.14257 11.2924C5.03306 10.8837 4.76728 10.5163 4.37188 10.2884L4.35179 10.2757C3.96172 10.0584 3.51916 10.0162 3.1168 10.1236C2.70787 10.2334 2.34036 10.4991 2.11231 10.8943L2.0996 10.9144C1.88221 11.3043 1.83997 11.7462 1.94743 12.1488C2.05735 12.5576 2.32314 12.9245 2.71853 13.1529L2.73863 13.1652ZM8.4058 4.62623C8.67118 4.28144 8.8053 3.83498 8.7446 3.36884C8.68471 2.90475 8.44067 2.5079 8.09531 2.24223C7.75037 1.97698 7.30371 1.84292 6.83735 1.90318C6.37305 1.96345 5.97602 2.20738 5.71024 2.55258C5.44212 2.89954 5.31892 3.33684 5.36652 3.77266C5.37144 3.79562 5.37472 3.8194 5.37596 3.84359C5.44322 4.29333 5.68358 4.67707 6.02073 4.93658C6.35624 5.19486 6.78855 5.32851 7.24136 5.27973C7.26433 5.27481 7.28812 5.27153 7.31232 5.27071C7.76185 5.20306 8.14617 4.96282 8.4058 4.62623ZM20.8 14.4246C20.9283 14.242 21.0193 14.0359 21.0678 13.8181C21.1163 13.6003 21.1214 13.3751 21.0826 13.1553C21.0018 12.6929 20.7409 12.3071 20.3853 12.0574C20.2027 11.929 19.9966 11.8379 19.7786 11.7894C19.5607 11.7408 19.3354 11.7358 19.1155 11.7745C18.6528 11.8557 18.2669 12.116 18.0167 12.4719C17.8883 12.6544 17.7972 12.8605 17.7487 13.0784C17.7002 13.2962 17.6952 13.5214 17.7341 13.7412C17.8149 14.2036 18.0757 14.5894 18.4313 14.8391C18.6139 14.9675 18.8201 15.0586 19.038 15.1071C19.256 15.1557 19.4813 15.1607 19.7012 15.122C20.1639 15.0412 20.5502 14.7805 20.8 14.4246ZM9.43449 19.2615C9.44474 19.2775 9.45458 19.2939 9.4632 19.3111C9.69289 19.6919 10.0534 19.9478 10.4529 20.0539C10.8545 20.1605 11.2958 20.1171 11.685 19.9002C11.7006 19.8895 11.717 19.8801 11.7343 19.8719C12.1153 19.6419 12.3712 19.2816 12.4775 18.8818C12.5866 18.4723 12.5394 18.0213 12.3101 17.6261C12.2015 17.4382 12.0568 17.2737 11.8844 17.1419C11.7119 17.0101 11.5151 16.9137 11.3052 16.8582C10.9041 16.7516 10.4623 16.7951 10.0735 17.0119C10.0575 17.0226 10.0411 17.032 10.0243 17.0402C9.64285 17.2702 9.38691 17.6306 9.28068 18.0303C9.17403 18.4313 9.2171 18.8724 9.43449 19.2615ZM17.972 5.36049C18.1125 5.19487 18.2189 5.00313 18.2851 4.79628C18.3512 4.58943 18.3758 4.37156 18.3575 4.15517C18.3198 3.69969 18.1016 3.30283 17.7792 3.0302C17.4564 2.75716 17.029 2.6067 16.5729 2.64442C16.1176 2.68213 15.7206 2.90024 15.4474 3.22248C15.167 3.5531 15.028 3.9808 15.0606 4.41304L15.0631 4.44256C15.1041 4.89189 15.3211 5.28301 15.6402 5.55318C15.9709 5.83358 16.3989 5.97247 16.8313 5.93979L16.8608 5.93733C17.31 5.89633 17.7017 5.67945 17.972 5.36049Z"/>
</mask>
<path d="M8.49276 13.4981C8.17242 13.0573 7.92633 12.5514 7.77662 11.9939C7.74545 11.8762 7.71879 11.7585 7.69705 11.6409L6.08799 11.8274C6.072 12.2148 5.96618 12.6043 5.76315 12.9651L5.74838 12.993C5.39728 13.601 4.83249 14.0093 4.20372 14.1778C3.58479 14.3434 2.90228 14.2762 2.29976 13.9376L2.27228 13.9228C1.66401 13.5719 1.25508 13.0073 1.08692 12.3788C0.920801 11.7598 0.988477 11.078 1.32727 10.4757L1.34162 10.4483C1.69313 9.84027 2.25792 9.43153 2.8867 9.26303C3.50563 9.0974 4.18813 9.16505 4.79066 9.50369L4.81814 9.51804C5.37596 9.84027 5.76561 10.3417 5.95674 10.9074L7.61748 10.7143H7.62117C7.63799 9.93416 7.85496 9.18227 8.23518 8.52385V8.5218C8.47102 8.11388 8.76962 7.74162 9.12153 7.42143L8.13428 5.9447C7.89816 6.05225 7.64721 6.1237 7.38984 6.15666L7.38738 6.15707C6.67985 6.24809 6.00104 6.04433 5.47685 5.64009C4.95226 5.23627 4.58148 4.63156 4.48919 3.92148V3.91902C4.39772 3.21141 4.60157 2.53331 5.00599 2.00896C5.41 1.4846 6.01539 1.11399 6.72579 1.02174C7.43455 0.929907 8.11377 1.13407 8.63878 1.53831C9.16337 1.94213 9.53415 2.54725 9.62644 3.25733C9.71832 3.96576 9.51447 4.64468 9.10964 5.16985C9.07601 5.21372 9.04073 5.25636 9.00423 5.29818L10.0042 6.79376C10.3167 6.62321 10.6547 6.48669 11.014 6.39035C12.1625 6.08287 13.3273 6.24153 14.3072 6.75071L14.8215 5.99677C14.4594 5.59705 14.2206 5.07966 14.1731 4.50119L14.1726 4.49955C14.1156 3.80095 14.347 3.14417 14.7678 2.6477C15.1894 2.1504 15.8002 1.81381 16.4999 1.756C17.1996 1.6982 17.8571 1.92983 18.3542 2.35088C18.8518 2.77192 19.1885 3.38237 19.2463 4.08219C19.3042 4.7812 19.0724 5.43839 18.6516 5.93569C18.2299 6.43257 17.6192 6.76916 16.9195 6.82697L16.917 6.82738C16.4876 6.86223 16.0733 6.78843 15.703 6.62813L15.2034 7.35993C15.8691 7.93759 16.3752 8.71244 16.6201 9.62627C16.8194 10.3683 16.8231 11.1178 16.6631 11.8196L17.2411 12.0295C17.2562 12.0058 17.2722 11.9828 17.2882 11.9598C17.6693 11.417 18.2574 11.0198 18.9621 10.8968C19.6663 10.7738 20.3546 10.948 20.8976 11.3293C21.4403 11.7102 21.8377 12.2981 21.9608 13.002C22.0842 13.7059 21.9099 14.3939 21.5285 14.9371C21.1474 15.4795 20.5592 15.8767 19.8546 15.9997C19.1503 16.1231 18.4621 15.9485 17.919 15.5676C17.3764 15.1867 16.979 14.5988 16.8555 13.8945C16.8058 13.6118 16.8036 13.3228 16.8489 13.0393L16.2997 12.8392C16.2784 12.8819 16.2571 12.9241 16.2345 12.9659C15.4634 14.4074 13.8269 15.4795 12.1748 15.4795C12.1001 15.4795 12.0259 15.4774 11.952 15.4737L11.8528 16.1063C12.3515 16.3121 12.7888 16.6778 13.0804 17.18C13.4327 17.7876 13.5057 18.4801 13.3384 19.1081C13.171 19.7379 12.7633 20.304 12.1555 20.6562L12.1502 20.6595C11.5439 21.0088 10.8532 21.0809 10.2265 20.9145C9.5965 20.7472 9.03048 20.3397 8.67774 19.7321L8.672 19.7219C8.32459 19.1167 8.25364 18.4284 8.41975 17.8036C8.5871 17.1739 8.99479 16.6081 9.60265 16.256L9.60839 16.2527C9.96775 16.0448 10.3727 15.9284 10.7876 15.9136L10.8877 15.2761C9.98738 14.983 9.04811 14.2631 8.49276 13.4981ZM14.5898 13.3767C14.8736 13.1123 15.1107 12.8027 15.292 12.4633C15.6972 11.7065 15.826 10.7988 15.5856 9.90259C15.3346 8.96621 14.7292 8.22129 13.9536 7.7736C13.1768 7.32509 12.2273 7.1734 11.2905 7.4243C10.3549 7.67479 9.60962 8.28114 9.16091 9.05763L9.15968 9.05723C8.71219 9.83331 8.56044 10.7816 8.81145 11.7175C8.92589 12.1447 9.11456 12.5326 9.35984 12.87C9.48781 13.0463 9.63095 13.209 9.78681 13.3566C10.2232 13.2623 10.6945 13.2135 11.044 12.9696C11.0759 12.9216 11.1104 12.8524 11.1436 12.7765C11.1937 12.6625 11.2388 12.5383 11.2679 12.453C11.1461 12.31 11.0419 12.148 10.9418 11.9885L10.6121 11.4642C10.4915 11.2846 10.4287 11.1202 10.4246 10.9849C10.4226 10.9218 10.4336 10.864 10.457 10.8136C10.4816 10.7603 10.5194 10.7164 10.5706 10.682C10.5944 10.6656 10.6215 10.652 10.6506 10.6414C10.6289 10.3564 10.6215 9.99893 10.635 9.69842C10.6416 9.6275 10.6559 9.55616 10.6756 9.48483C10.7601 9.18432 10.9709 8.94161 11.2326 8.77557C11.3766 8.68333 11.5349 8.61486 11.6998 8.56813C11.8044 8.5382 11.6104 8.20407 11.7183 8.19218C12.2428 8.13806 13.0898 8.6165 13.4553 9.01213C13.6386 9.21014 13.7539 9.47253 13.7789 9.82019L13.7584 10.6758C13.8499 10.7037 13.9085 10.7615 13.9323 10.8554C13.9581 10.9595 13.9302 11.1063 13.8417 11.3055C13.84 11.3088 13.838 11.3129 13.8359 11.3162L13.4602 11.9352C13.322 12.1624 13.1817 12.3907 12.9988 12.5703C13.0152 12.5941 13.0324 12.6178 13.0484 12.642C13.1226 12.7511 13.1981 12.8606 13.2937 12.9577C13.2974 12.961 13.3002 12.9647 13.3019 12.9676C13.5845 13.1672 14.1316 13.2681 14.5898 13.3767ZM2.73863 13.1652C3.12869 13.3824 3.57125 13.4251 3.97362 13.3173C4.38255 13.2078 4.75005 12.9421 4.9781 12.5469L4.99041 12.5268C5.20779 12.1369 5.25045 11.6946 5.14257 11.2924C5.03306 10.8837 4.76728 10.5163 4.37188 10.2884L4.35179 10.2757C3.96172 10.0584 3.51916 10.0162 3.1168 10.1236C2.70787 10.2334 2.34036 10.4991 2.11231 10.8943L2.0996 10.9144C1.88221 11.3043 1.83997 11.7462 1.94743 12.1488C2.05735 12.5576 2.32314 12.9245 2.71853 13.1529L2.73863 13.1652ZM8.4058 4.62623C8.67118 4.28144 8.8053 3.83498 8.7446 3.36884C8.68471 2.90475 8.44067 2.5079 8.09531 2.24223C7.75037 1.97698 7.30371 1.84292 6.83735 1.90318C6.37305 1.96345 5.97602 2.20738 5.71024 2.55258C5.44212 2.89954 5.31892 3.33684 5.36652 3.77266C5.37144 3.79562 5.37472 3.8194 5.37596 3.84359C5.44322 4.29333 5.68358 4.67707 6.02073 4.93658C6.35624 5.19486 6.78855 5.32851 7.24136 5.27973C7.26433 5.27481 7.28812 5.27153 7.31232 5.27071C7.76185 5.20306 8.14617 4.96282 8.4058 4.62623ZM20.8 14.4246C20.9283 14.242 21.0193 14.0359 21.0678 13.8181C21.1163 13.6003 21.1214 13.3751 21.0826 13.1553C21.0018 12.6929 20.7409 12.3071 20.3853 12.0574C20.2027 11.929 19.9966 11.8379 19.7786 11.7894C19.5607 11.7408 19.3354 11.7358 19.1155 11.7745C18.6528 11.8557 18.2669 12.116 18.0167 12.4719C17.8883 12.6544 17.7972 12.8605 17.7487 13.0784C17.7002 13.2962 17.6952 13.5214 17.7341 13.7412C17.8149 14.2036 18.0757 14.5894 18.4313 14.8391C18.6139 14.9675 18.8201 15.0586 19.038 15.1071C19.256 15.1557 19.4813 15.1607 19.7012 15.122C20.1639 15.0412 20.5502 14.7805 20.8 14.4246ZM9.43449 19.2615C9.44474 19.2775 9.45458 19.2939 9.4632 19.3111C9.69289 19.6919 10.0534 19.9478 10.4529 20.0539C10.8545 20.1605 11.2958 20.1171 11.685 19.9002C11.7006 19.8895 11.717 19.8801 11.7343 19.8719C12.1153 19.6419 12.3712 19.2816 12.4775 18.8818C12.5866 18.4723 12.5394 18.0213 12.3101 17.6261C12.2015 17.4382 12.0568 17.2737 11.8844 17.1419C11.7119 17.0101 11.5151 16.9137 11.3052 16.8582C10.9041 16.7516 10.4623 16.7951 10.0735 17.0119C10.0575 17.0226 10.0411 17.032 10.0243 17.0402C9.64285 17.2702 9.38691 17.6306 9.28068 18.0303C9.17403 18.4313 9.2171 18.8724 9.43449 19.2615ZM17.972 5.36049C18.1125 5.19487 18.2189 5.00313 18.2851 4.79628C18.3512 4.58943 18.3758 4.37156 18.3575 4.15517C18.3198 3.69969 18.1016 3.30283 17.7792 3.0302C17.4564 2.75716 17.029 2.6067 16.5729 2.64442C16.1176 2.68213 15.7206 2.90024 15.4474 3.22248C15.167 3.5531 15.028 3.9808 15.0606 4.41304L15.0631 4.44256C15.1041 4.89189 15.3211 5.28301 15.6402 5.55318C15.9709 5.83358 16.3989 5.97247 16.8313 5.93979L16.8608 5.93733C17.31 5.89633 17.7017 5.67945 17.972 5.36049Z" fill="white"/>
<path d="M8.49276 13.4981C8.17242 13.0573 7.92633 12.5514 7.77662 11.9939C7.74545 11.8762 7.71879 11.7585 7.69705 11.6409L6.08799 11.8274C6.072 12.2148 5.96618 12.6043 5.76315 12.9651L5.74838 12.993C5.39728 13.601 4.83249 14.0093 4.20372 14.1778C3.58479 14.3434 2.90228 14.2762 2.29976 13.9376L2.27228 13.9228C1.66401 13.5719 1.25508 13.0073 1.08692 12.3788C0.920801 11.7598 0.988477 11.078 1.32727 10.4757L1.34162 10.4483C1.69313 9.84027 2.25792 9.43153 2.8867 9.26303C3.50563 9.0974 4.18813 9.16505 4.79066 9.50369L4.81814 9.51804C5.37596 9.84027 5.76561 10.3417 5.95674 10.9074L7.61748 10.7143H7.62117C7.63799 9.93416 7.85496 9.18227 8.23518 8.52385V8.5218C8.47102 8.11388 8.76962 7.74162 9.12153 7.42143L8.13428 5.9447C7.89816 6.05225 7.64721 6.1237 7.38984 6.15666L7.38738 6.15707C6.67985 6.24809 6.00104 6.04433 5.47685 5.64009C4.95226 5.23627 4.58148 4.63156 4.48919 3.92148V3.91902C4.39772 3.21141 4.60157 2.53331 5.00599 2.00896C5.41 1.4846 6.01539 1.11399 6.72579 1.02174C7.43455 0.929907 8.11377 1.13407 8.63878 1.53831C9.16337 1.94213 9.53415 2.54725 9.62644 3.25733C9.71832 3.96576 9.51447 4.64468 9.10964 5.16985C9.07601 5.21372 9.04073 5.25636 9.00423 5.29818L10.0042 6.79376C10.3167 6.62321 10.6547 6.48669 11.014 6.39035C12.1625 6.08287 13.3273 6.24153 14.3072 6.75071L14.8215 5.99677C14.4594 5.59705 14.2206 5.07966 14.1731 4.50119L14.1726 4.49955C14.1156 3.80095 14.347 3.14417 14.7678 2.6477C15.1894 2.1504 15.8002 1.81381 16.4999 1.756C17.1996 1.6982 17.8571 1.92983 18.3542 2.35088C18.8518 2.77192 19.1885 3.38237 19.2463 4.08219C19.3042 4.7812 19.0724 5.43839 18.6516 5.93569C18.2299 6.43257 17.6192 6.76916 16.9195 6.82697L16.917 6.82738C16.4876 6.86223 16.0733 6.78843 15.703 6.62813L15.2034 7.35993C15.8691 7.93759 16.3752 8.71244 16.6201 9.62627C16.8194 10.3683 16.8231 11.1178 16.6631 11.8196L17.2411 12.0295C17.2562 12.0058 17.2722 11.9828 17.2882 11.9598C17.6693 11.417 18.2574 11.0198 18.9621 10.8968C19.6663 10.7738 20.3546 10.948 20.8976 11.3293C21.4403 11.7102 21.8377 12.2981 21.9608 13.002C22.0842 13.7059 21.9099 14.3939 21.5285 14.9371C21.1474 15.4795 20.5592 15.8767 19.8546 15.9997C19.1503 16.1231 18.4621 15.9485 17.919 15.5676C17.3764 15.1867 16.979 14.5988 16.8555 13.8945C16.8058 13.6118 16.8036 13.3228 16.8489 13.0393L16.2997 12.8392C16.2784 12.8819 16.2571 12.9241 16.2345 12.9659C15.4634 14.4074 13.8269 15.4795 12.1748 15.4795C12.1001 15.4795 12.0259 15.4774 11.952 15.4737L11.8528 16.1063C12.3515 16.3121 12.7888 16.6778 13.0804 17.18C13.4327 17.7876 13.5057 18.4801 13.3384 19.1081C13.171 19.7379 12.7633 20.304 12.1555 20.6562L12.1502 20.6595C11.5439 21.0088 10.8532 21.0809 10.2265 20.9145C9.5965 20.7472 9.03048 20.3397 8.67774 19.7321L8.672 19.7219C8.32459 19.1167 8.25364 18.4284 8.41975 17.8036C8.5871 17.1739 8.99479 16.6081 9.60265 16.256L9.60839 16.2527C9.96775 16.0448 10.3727 15.9284 10.7876 15.9136L10.8877 15.2761C9.98738 14.983 9.04811 14.2631 8.49276 13.4981ZM14.5898 13.3767C14.8736 13.1123 15.1107 12.8027 15.292 12.4633C15.6972 11.7065 15.826 10.7988 15.5856 9.90259C15.3346 8.96621 14.7292 8.22129 13.9536 7.7736C13.1768 7.32509 12.2273 7.1734 11.2905 7.4243C10.3549 7.67479 9.60962 8.28114 9.16091 9.05763L9.15968 9.05723C8.71219 9.83331 8.56044 10.7816 8.81145 11.7175C8.92589 12.1447 9.11456 12.5326 9.35984 12.87C9.48781 13.0463 9.63095 13.209 9.78681 13.3566C10.2232 13.2623 10.6945 13.2135 11.044 12.9696C11.0759 12.9216 11.1104 12.8524 11.1436 12.7765C11.1937 12.6625 11.2388 12.5383 11.2679 12.453C11.1461 12.31 11.0419 12.148 10.9418 11.9885L10.6121 11.4642C10.4915 11.2846 10.4287 11.1202 10.4246 10.9849C10.4226 10.9218 10.4336 10.864 10.457 10.8136C10.4816 10.7603 10.5194 10.7164 10.5706 10.682C10.5944 10.6656 10.6215 10.652 10.6506 10.6414C10.6289 10.3564 10.6215 9.99893 10.635 9.69842C10.6416 9.6275 10.6559 9.55616 10.6756 9.48483C10.7601 9.18432 10.9709 8.94161 11.2326 8.77557C11.3766 8.68333 11.5349 8.61486 11.6998 8.56813C11.8044 8.5382 11.6104 8.20407 11.7183 8.19218C12.2428 8.13806 13.0898 8.6165 13.4553 9.01213C13.6386 9.21014 13.7539 9.47253 13.7789 9.82019L13.7584 10.6758C13.8499 10.7037 13.9085 10.7615 13.9323 10.8554C13.9581 10.9595 13.9302 11.1063 13.8417 11.3055C13.84 11.3088 13.838 11.3129 13.8359 11.3162L13.4602 11.9352C13.322 12.1624 13.1817 12.3907 12.9988 12.5703C13.0152 12.5941 13.0324 12.6178 13.0484 12.642C13.1226 12.7511 13.1981 12.8606 13.2937 12.9577C13.2974 12.961 13.3002 12.9647 13.3019 12.9676C13.5845 13.1672 14.1316 13.2681 14.5898 13.3767ZM2.73863 13.1652C3.12869 13.3824 3.57125 13.4251 3.97362 13.3173C4.38255 13.2078 4.75005 12.9421 4.9781 12.5469L4.99041 12.5268C5.20779 12.1369 5.25045 11.6946 5.14257 11.2924C5.03306 10.8837 4.76728 10.5163 4.37188 10.2884L4.35179 10.2757C3.96172 10.0584 3.51916 10.0162 3.1168 10.1236C2.70787 10.2334 2.34036 10.4991 2.11231 10.8943L2.0996 10.9144C1.88221 11.3043 1.83997 11.7462 1.94743 12.1488C2.05735 12.5576 2.32314 12.9245 2.71853 13.1529L2.73863 13.1652ZM8.4058 4.62623C8.67118 4.28144 8.8053 3.83498 8.7446 3.36884C8.68471 2.90475 8.44067 2.5079 8.09531 2.24223C7.75037 1.97698 7.30371 1.84292 6.83735 1.90318C6.37305 1.96345 5.97602 2.20738 5.71024 2.55258C5.44212 2.89954 5.31892 3.33684 5.36652 3.77266C5.37144 3.79562 5.37472 3.8194 5.37596 3.84359C5.44322 4.29333 5.68358 4.67707 6.02073 4.93658C6.35624 5.19486 6.78855 5.32851 7.24136 5.27973C7.26433 5.27481 7.28812 5.27153 7.31232 5.27071C7.76185 5.20306 8.14617 4.96282 8.4058 4.62623ZM20.8 14.4246C20.9283 14.242 21.0193 14.0359 21.0678 13.8181C21.1163 13.6003 21.1214 13.3751 21.0826 13.1553C21.0018 12.6929 20.7409 12.3071 20.3853 12.0574C20.2027 11.929 19.9966 11.8379 19.7786 11.7894C19.5607 11.7408 19.3354 11.7358 19.1155 11.7745C18.6528 11.8557 18.2669 12.116 18.0167 12.4719C17.8883 12.6544 17.7972 12.8605 17.7487 13.0784C17.7002 13.2962 17.6952 13.5214 17.7341 13.7412C17.8149 14.2036 18.0757 14.5894 18.4313 14.8391C18.6139 14.9675 18.8201 15.0586 19.038 15.1071C19.256 15.1557 19.4813 15.1607 19.7012 15.122C20.1639 15.0412 20.5502 14.7805 20.8 14.4246ZM9.43449 19.2615C9.44474 19.2775 9.45458 19.2939 9.4632 19.3111C9.69289 19.6919 10.0534 19.9478 10.4529 20.0539C10.8545 20.1605 11.2958 20.1171 11.685 19.9002C11.7006 19.8895 11.717 19.8801 11.7343 19.8719C12.1153 19.6419 12.3712 19.2816 12.4775 18.8818C12.5866 18.4723 12.5394 18.0213 12.3101 17.6261C12.2015 17.4382 12.0568 17.2737 11.8844 17.1419C11.7119 17.0101 11.5151 16.9137 11.3052 16.8582C10.9041 16.7516 10.4623 16.7951 10.0735 17.0119C10.0575 17.0226 10.0411 17.032 10.0243 17.0402C9.64285 17.2702 9.38691 17.6306 9.28068 18.0303C9.17403 18.4313 9.2171 18.8724 9.43449 19.2615ZM17.972 5.36049C18.1125 5.19487 18.2189 5.00313 18.2851 4.79628C18.3512 4.58943 18.3758 4.37156 18.3575 4.15517C18.3198 3.69969 18.1016 3.30283 17.7792 3.0302C17.4564 2.75716 17.029 2.6067 16.5729 2.64442C16.1176 2.68213 15.7206 2.90024 15.4474 3.22248C15.167 3.5531 15.028 3.9808 15.0606 4.41304L15.0631 4.44256C15.1041 4.89189 15.3211 5.28301 15.6402 5.55318C15.9709 5.83358 16.3989 5.97247 16.8313 5.93979L16.8608 5.93733C17.31 5.89633 17.7017 5.67945 17.972 5.36049Z" stroke="white" stroke-width="0.4" mask="url(#path-1-outside-1_706_2303)"/>
</svg>
