<svg xmlns="http://www.w3.org/2000/svg" width="16.796" height="16.796" viewBox="0 0 16.796 16.796">
  <g id="subadmin-icon" transform="translate(0 -0.011)">
    <g id="Group_14962" data-name="Group 14962" transform="translate(0 0.011)">
      <path id="Path_3916" data-name="Path 3916" d="M14.466,2.595A8.394,8.394,0,1,0,2.584,14.451s.007.012.011.016c.049.047.1.086.151.131.135.12.27.244.412.36.076.06.155.12.233.175.134.1.269.2.409.293.1.06.194.12.291.18.13.078.258.156.392.228.113.06.229.112.344.166s.25.12.379.174.258.1.389.143.243.09.369.128c.142.043.287.076.431.111.12.029.236.063.36.087.165.033.333.054.5.077.1.014.205.035.31.045.275.027.552.042.831.042s.556-.015.831-.042c.1-.01.206-.031.31-.045.168-.023.336-.044.5-.077.12-.024.24-.06.36-.087.144-.035.289-.068.431-.111.125-.038.246-.085.369-.128s.261-.09.389-.143.253-.115.379-.174.231-.106.344-.166c.134-.071.263-.15.392-.228.1-.06.2-.115.291-.18.14-.092.275-.192.409-.293.078-.06.157-.114.233-.175.142-.114.277-.235.412-.36.049-.045.1-.085.151-.131,0,0,.007-.011.011-.016A8.385,8.385,0,0,0,14.466,2.595ZM13.118,13.823c-.109.1-.222.187-.336.275-.067.052-.134.1-.2.152-.109.079-.219.153-.331.224-.082.052-.165.1-.249.152l-.321.18c-.1.049-.194.1-.292.141s-.207.094-.313.137-.219.083-.33.12-.2.071-.305.1c-.12.036-.245.065-.369.1-.1.023-.193.049-.291.068-.142.028-.287.047-.433.067-.083.011-.165.026-.248.034-.23.022-.464.035-.7.035s-.469-.013-.7-.035c-.083-.008-.165-.023-.248-.034-.146-.02-.291-.039-.433-.067-.1-.019-.194-.045-.291-.068-.124-.03-.248-.06-.369-.1-.1-.031-.2-.067-.305-.1s-.222-.077-.33-.12-.21-.089-.313-.137-.2-.092-.292-.141-.216-.116-.321-.18c-.084-.049-.167-.1-.249-.152-.112-.071-.222-.146-.331-.224-.069-.049-.136-.1-.2-.152-.114-.088-.227-.18-.336-.275-.026-.02-.05-.045-.076-.068A4.811,4.811,0,0,1,6.868,9.26a3.556,3.556,0,0,0,3.055,0,4.811,4.811,0,0,1,3.27,4.495C13.168,13.778,13.144,13.8,13.118,13.823Zm-6.814-9A2.4,2.4,0,1,1,9.571,8.085a.013.013,0,0,0-.01,0,2.541,2.541,0,0,1-.5.212c-.031.009-.06.021-.093.029-.06.016-.123.026-.185.037A2.429,2.429,0,0,1,8.43,8.4H8.361a2.429,2.429,0,0,1-.352-.035c-.06-.011-.124-.022-.185-.037-.032-.008-.06-.02-.093-.029a2.539,2.539,0,0,1-.5-.212l-.011,0A2.4,2.4,0,0,1,6.3,4.819Zm7.952,7.747h0a6.027,6.027,0,0,0-3.211-4.133,3.6,3.6,0,1,0-5.3,0,6.027,6.027,0,0,0-3.211,4.133,7.2,7.2,0,1,1,11.722,0Z" transform="translate(0 -0.011)" fill="#fff"/>
    </g>
  </g>
</svg>
