<svg width="14" height="12" viewBox="0 0 14 12" fill="none" xmlns="http://www.w3.org/2000/svg">
<g clip-path="url(#clip0_152_804)">
<mask id="mask0_152_804" style="mask-type:luminance" maskUnits="userSpaceOnUse" x="0" y="0" width="14" height="12">
<path d="M14 0H0V12H14V0Z" fill="white"/>
</mask>
<g mask="url(#mask0_152_804)">
<path d="M13.1558 7.11617C12.8835 8.50248 12.1121 9.72072 11.0286 10.593C9.93835 11.4706 8.53465 11.9989 7.00342 11.9989C5.56446 11.9989 4.23714 11.5328 3.17871 10.749C2.09635 9.94888 1.29655 8.81688 0.942216 7.51133L1.7238 7.31702C2.03142 8.45336 2.72868 9.43912 3.6709 10.1366C4.59147 10.8178 5.74675 11.2228 7.00228 11.2228C8.33873 11.2228 9.56233 10.7632 10.5091 10.0013C11.4149 9.27208 12.07 8.26456 12.3297 7.11507H11.4947L12.7468 5.65342L13.9988 7.11507H13.1558V7.11617ZM6.98291 7.5397V6.16974C6.47933 6.04749 6.11133 5.863 5.87777 5.6163C5.64306 5.3685 5.52458 5.06832 5.52458 4.71464C5.52458 4.35659 5.65788 4.0553 5.92334 3.81297C6.1888 3.56954 6.54199 3.42982 6.98291 3.3927V3.07068H7.54574V3.3927C7.95817 3.43418 8.28512 3.55317 8.53012 3.74857C8.77281 3.94397 8.92887 4.20595 8.99607 4.53343L8.01286 4.64041C7.95248 4.38279 7.79639 4.20814 7.54574 4.11644V5.3947C8.16781 5.53552 8.59164 5.72 8.81605 5.94487C9.04169 6.17083 9.15444 6.46011 9.15444 6.81379C9.15444 7.20895 9.0132 7.5408 8.72949 7.81152C8.44579 8.08224 8.0516 8.25032 7.54574 8.31696V8.92824H6.98291V8.32456C6.53858 8.27872 6.17855 8.14008 5.89941 7.90649C5.62028 7.67288 5.44369 7.34213 5.36621 6.91531L6.37223 6.81488C6.41325 6.98954 6.49072 7.13909 6.60466 7.26571C6.71859 7.39234 6.84392 7.48294 6.98291 7.5397ZM6.98291 4.10443C6.83138 4.15028 6.71175 4.2256 6.62403 4.33039C6.53516 4.43518 6.49187 4.5509 6.49187 4.67752C6.49187 4.79323 6.53174 4.90021 6.61263 4.99954C6.69352 5.09779 6.81771 5.17857 6.98405 5.23861V4.10443H6.98291ZM7.54574 7.59429C7.73942 7.55826 7.89892 7.47967 8.01969 7.35959C8.14274 7.23842 8.20313 7.09652 8.20313 6.93169C8.20313 6.7865 8.15185 6.65987 8.04818 6.55508C7.94678 6.44919 7.7793 6.36842 7.5446 6.31166V7.59429H7.54574ZM0.849932 4.88383C1.11995 3.5095 1.87989 2.3011 2.94743 1.43C4.04118 0.538161 5.45736 0 7.00228 0C8.36146 0 9.61932 0.41481 10.6458 1.11998C11.6997 1.84372 12.5086 2.8731 12.9336 4.07386L12.5508 4.1983L12.168 4.32275C12.1577 4.29218 12.1463 4.26162 12.135 4.23214C11.7578 3.22678 11.0663 2.36442 10.1753 1.75202C9.28208 1.13854 8.18718 0.777222 7.00342 0.777222C5.65446 0.777222 4.42057 1.24443 3.47038 2.01946C2.57714 2.74757 1.93343 3.74638 1.6748 4.88383H2.50537L1.25212 6.3455L0 4.88383H0.849932Z" fill="#292D32"/>
<path d="M13.1558 7.11617C12.8835 8.50248 12.1121 9.72072 11.0286 10.593C9.93835 11.4706 8.53465 11.9989 7.00342 11.9989C5.56446 11.9989 4.23714 11.5328 3.17871 10.749C2.09635 9.94888 1.29655 8.81688 0.942216 7.51133L1.7238 7.31702C2.03142 8.45336 2.72868 9.43912 3.6709 10.1366C4.59147 10.8178 5.74675 11.2228 7.00228 11.2228C8.33873 11.2228 9.56233 10.7632 10.5091 10.0013C11.4149 9.27208 12.07 8.26456 12.3297 7.11507H11.4947L12.7468 5.65342L13.9988 7.11507H13.1558V7.11617ZM6.98291 7.5397V6.16974C6.47933 6.04749 6.11133 5.863 5.87777 5.6163C5.64306 5.3685 5.52458 5.06832 5.52458 4.71464C5.52458 4.35659 5.65788 4.0553 5.92334 3.81297C6.1888 3.56954 6.54199 3.42982 6.98291 3.3927V3.07068H7.54574V3.3927C7.95817 3.43418 8.28512 3.55317 8.53012 3.74857C8.77281 3.94397 8.92887 4.20595 8.99607 4.53343L8.01286 4.64041C7.95248 4.38279 7.79639 4.20814 7.54574 4.11644V5.3947C8.16781 5.53552 8.59164 5.72 8.81605 5.94487C9.04169 6.17083 9.15444 6.46011 9.15444 6.81379C9.15444 7.20895 9.0132 7.5408 8.72949 7.81152C8.44579 8.08224 8.0516 8.25032 7.54574 8.31696V8.92824H6.98291V8.32456C6.53858 8.27872 6.17855 8.14008 5.89941 7.90649C5.62028 7.67288 5.44369 7.34213 5.36621 6.91531L6.37223 6.81488C6.41325 6.98954 6.49072 7.13909 6.60466 7.26571C6.71859 7.39234 6.84392 7.48294 6.98291 7.5397ZM6.98291 4.10443C6.83138 4.15028 6.71175 4.2256 6.62403 4.33039C6.53516 4.43518 6.49187 4.5509 6.49187 4.67752C6.49187 4.79323 6.53174 4.90021 6.61263 4.99954C6.69352 5.09779 6.81771 5.17857 6.98405 5.23861V4.10443H6.98291ZM7.54574 7.59429C7.73942 7.55826 7.89892 7.47967 8.01969 7.35959C8.14274 7.23842 8.20313 7.09652 8.20313 6.93169C8.20313 6.7865 8.15185 6.65987 8.04818 6.55508C7.94678 6.44919 7.7793 6.36842 7.5446 6.31166V7.59429H7.54574ZM0.849932 4.88383C1.11995 3.5095 1.87989 2.3011 2.94743 1.43C4.04118 0.538161 5.45736 0 7.00228 0C8.36146 0 9.61932 0.41481 10.6458 1.11998C11.6997 1.84372 12.5086 2.8731 12.9336 4.07386L12.5508 4.1983L12.168 4.32275C12.1577 4.29218 12.1463 4.26162 12.135 4.23214C11.7578 3.22678 11.0663 2.36442 10.1753 1.75202C9.28208 1.13854 8.18718 0.777222 7.00342 0.777222C5.65446 0.777222 4.42057 1.24443 3.47038 2.01946C2.57714 2.74757 1.93343 3.74638 1.6748 4.88383H2.50537L1.25212 6.3455L0 4.88383H0.849932Z" stroke="#292D32" stroke-width="0.1"/>
</g>
</g>
<defs>
<clipPath id="clip0_152_804">
<rect width="14" height="12" fill="white"/>
</clipPath>
</defs>
</svg>
