<svg width="27" height="23" viewBox="0 0 27 23" fill="none" xmlns="http://www.w3.org/2000/svg">
<path d="M0.97339 13.9814C0.342981 13.376 0.0171203 12.5707 0.00064044 11.7599C-0.0156197 10.9493 0.277721 10.1312 0.882861 9.50083C1.48756 8.87086 2.29288 8.54478 3.10346 8.52852C3.91449 8.51182 4.73211 8.80428 5.36296 9.41008L10.8094 14.6509L21.6529 0.87638L22.0414 1.1728L21.6525 0.875061C21.6835 0.83485 21.7186 0.800572 21.7578 0.772666C22.4029 0.21389 23.2126 -0.0383612 24.0041 0.00470615V0.00382723L24.0427 0.00734292C24.8388 0.0600784 25.6165 0.413846 26.1906 1.05458C26.7747 1.70608 27.0394 2.53359 26.9953 3.34242H26.9961L26.9926 3.38109C26.9408 4.1629 26.5991 4.9269 25.9799 5.49755L12.9665 21.338L12.9674 21.3388C12.943 21.3698 12.9156 21.3964 12.8857 21.4197C12.2764 21.9547 11.5069 22.2171 10.7418 22.2039C9.97028 22.1905 9.20034 21.8972 8.60136 21.3215L0.97339 13.9814Z" fill="white"/>
</svg>
