<svg width="22" height="22" viewBox="0 0 22 22" fill="none" xmlns="http://www.w3.org/2000/svg">
<path fill-rule="evenodd" clip-rule="evenodd" d="M20.1673 11.0007C20.1673 16.0423 16.0423 20.1673 11.0007 20.1673C5.95898 20.1673 1.83398 16.0423 1.83398 11.0007C1.83398 5.95898 5.95898 1.83398 11.0007 1.83398C16.0423 1.83398 20.1673 5.95898 20.1673 11.0007ZM15.6017 9.11398C15.9925 8.7238 15.9931 8.09064 15.6029 7.69977C15.2127 7.3089 14.5796 7.30834 14.1887 7.69852L9.69831 12.181L7.81062 10.2933C7.4201 9.90279 6.78693 9.90279 6.39641 10.2933C6.00588 10.6838 6.00588 11.317 6.39641 11.7075L8.99058 14.3017C9.38086 14.692 10.0135 14.6923 10.4042 14.3023L15.6017 9.11398Z" fill="white"/>
</svg>
