<svg width="38" height="38" viewBox="0 0 38 38" fill="none" xmlns="http://www.w3.org/2000/svg">
<rect width="37.5789" height="37.5789" rx="18.7894" fill="black"/>
<path d="M26.1617 12.4096C24.9882 11.6369 24.1415 10.4003 23.8772 8.9596C23.8202 8.64841 23.7885 8.32784 23.7885 8H20.043L20.0367 23.1577C19.9741 24.8554 18.5905 26.2175 16.8944 26.2175C16.3673 26.2175 15.871 26.0848 15.4339 25.8521C14.4316 25.3198 13.7455 24.259 13.7455 23.0386C13.7455 21.2855 15.1583 19.8589 16.894 19.8589C17.2183 19.8589 17.529 19.9131 17.8228 20.0057V16.1447C17.5184 16.1024 17.2094 16.0768 16.894 16.0768C13.0928 16.0768 10 19.1993 10 23.0386C10 25.3937 11.1651 27.4781 12.9435 28.7382C14.0629 29.5326 15.4254 30 16.8944 30C20.6961 30 23.7885 26.877 23.7885 23.0386V15.352C25.2575 16.4166 27.0575 17.0441 29 17.0441V13.2616C27.9537 13.2616 26.9793 12.9478 26.1617 12.4096Z" fill="white"/>
</svg>
