<svg id="totalEarning" xmlns="http://www.w3.org/2000/svg" width="40.5" height="29.933" viewBox="0 0 40.5 29.933">
  <path id="Path_4572" data-name="Path 4572" d="M40.068,13.233a2.876,2.876,0,0,1,.432,1.486c0,2.749-4.252,4.977-9.492,4.977s-9.492-2.228-9.492-4.977a2.876,2.876,0,0,1,.432-1.486c1.206,2.02,4.805,3.49,9.06,3.49s7.854-1.467,9.06-3.49ZM18.552,20.645a2.885,2.885,0,0,1,.432,1.486c0,2.749-4.252,4.977-9.492,4.977S0,24.88,0,22.132a2.876,2.876,0,0,1,.432-1.486c1.206,2.02,4.809,3.49,9.06,3.49s7.854-1.467,9.06-3.49ZM10.87,13.368l-.02-1.233a1.036,1.036,0,0,0,.682-.254.841.841,0,0,0,.293-.573.832.832,0,0,0-.254-.679,1.435,1.435,0,0,0-.92-.349,1.3,1.3,0,0,0-.906.188.877.877,0,0,0-.353.662,1.261,1.261,0,0,0,.386.989l-.231.982-3.276-.92.28-3.243,1.147.1-.2,2.314,1.071.287a1.886,1.886,0,0,1,.58-2.188,2.147,2.147,0,0,1,1.592-.432,2.3,2.3,0,0,1,1.368.58,2.037,2.037,0,0,1,.7,1.806,2.172,2.172,0,0,1-.6,1.4,1.92,1.92,0,0,1-1.335.56ZM9.492,8.424c4.308,0,7.8,1.371,7.8,3.059s-3.494,3.059-7.8,3.059-7.8-1.364-7.8-3.055,3.494-3.062,7.8-3.062Zm0-1.012c5.24,0,9.492,2.228,9.492,4.977s-4.252,4.977-9.492,4.977S0,15.135,0,12.389,4.252,7.412,9.492,7.412ZM18.585,15.7a2.873,2.873,0,0,1,.4,1.427c0,2.749-4.252,4.977-9.492,4.977S0,19.881,0,17.135a2.83,2.83,0,0,1,.4-1.427c1.173,2.05,4.8,3.546,9.093,3.546s7.923-1.5,9.093-3.55ZM34.435,2.95l-.109,1.236-4.66-.405a4.231,4.231,0,0,1,.8,1.678l-1.121-.1a3.567,3.567,0,0,0-.508-1.1,2.281,2.281,0,0,0-.966-.867l.089-1,6.476.56ZM31.007,1.015c4.308,0,7.8,1.371,7.8,3.059s-3.494,3.059-7.8,3.059-7.8-1.371-7.8-3.059,3.494-3.059,7.8-3.059Zm0-1.015C36.248,0,40.5,2.228,40.5,4.977s-4.252,4.977-9.492,4.977-9.492-2.228-9.492-4.977S25.767,0,31.007,0ZM40.1,8.292a2.873,2.873,0,0,1,.4,1.427c0,2.749-4.252,4.977-9.492,4.977s-9.492-2.228-9.492-4.977a2.83,2.83,0,0,1,.4-1.427c1.17,2.05,4.8,3.546,9.093,3.546s7.923-1.493,9.093-3.546Zm-.092,15.082a2.928,2.928,0,0,1,.491,1.582c0,2.749-4.252,4.977-9.492,4.977s-9.492-2.228-9.492-4.977a2.9,2.9,0,0,1,.491-1.582c1.262,1.971,4.815,3.395,9,3.395s7.742-1.421,9-3.395Zm.046-5.118a2.879,2.879,0,0,1,.445,1.51c0,2.749-4.252,4.977-9.492,4.977s-9.492-2.228-9.492-4.977a2.9,2.9,0,0,1,.445-1.51c1.219,2.01,4.809,3.464,9.047,3.464s7.824-1.453,9.047-3.464Z" fill="#fff" fill-rule="evenodd"/>
</svg>
