<svg xmlns="http://www.w3.org/2000/svg" width="21.788" height="21.639" viewBox="0 0 21.788 21.639">
  <path id="transaction-llist" d="M7.559,11.206a.608.608,0,0,1,0-1.2h6.659a.608.608,0,0,1,0,1.2Zm10.981-.018v.8a.14.14,0,0,1-.117.138.9.9,0,0,0-.191.034,3.049,3.049,0,0,0-.355.09,2.65,2.65,0,0,0-.62.285,2.275,2.275,0,0,0-.261.19,2.1,2.1,0,0,0-.225.218,2.075,2.075,0,0,0-.2.252,2.177,2.177,0,0,0-.355,1.241,3.607,3.607,0,0,0,.02.378,2.837,2.837,0,0,0,.062.34,2.127,2.127,0,0,0,.1.3,1.668,1.668,0,0,0,.14.261l.011.016a2.4,2.4,0,0,0,.394.449,3.026,3.026,0,0,0,.246.2,3.168,3.168,0,0,0,.275.177c.193.1.415.232.613.321l.339.16.5.222c.085.043.156.078.239.124l.1.069c.03.021.057.043.08.062a.617.617,0,0,1,.067.069l.05.064a.583.583,0,0,1,.051.092.463.463,0,0,1,.028.074h0a.672.672,0,0,1,.025.094h0a.811.811,0,0,1,.014.117v.213a1.159,1.159,0,0,1-.032.156.725.725,0,0,1-.06.137.532.532,0,0,1-.1.122l-.06.044a.58.58,0,0,1-.163.064h0a.851.851,0,0,1-.374.018.943.943,0,0,1-.319-.113.676.676,0,0,1-.066-.048l-.066-.059a.57.57,0,0,1-.059-.067.721.721,0,0,1-.051-.076c-.016-.028-.034-.06-.048-.09a.863.863,0,0,1-.037-.094h0a.863.863,0,0,1-.032-.108h0A1.182,1.182,0,0,1,18.091,18c0-.043-.011-.09-.014-.14h0V17.7a.079.079,0,0,0-.08-.078H16a.078.078,0,0,0-.055.023.074.074,0,0,0-.023.055,2.867,2.867,0,0,0,.016.379c.016.117.028.234.05.355a2.437,2.437,0,0,0,.083.312,2.332,2.332,0,0,0,.112.282l.011.021a2.361,2.361,0,0,0,.142.255,2.725,2.725,0,0,0,.167.23,2.285,2.285,0,0,0,.188.2,2.071,2.071,0,0,0,.2.177l.016.012a2.551,2.551,0,0,0,.223.147c.078.048.158.09.241.131s.165.073.252.106.177.059.261.083.14.035.209.05.145.03.213.041a.138.138,0,0,1,.117.137v.762a.484.484,0,0,0,.064.206c.014.027,0,.048.016.048h.92a.078.078,0,0,0,.08-.08v-.932a.138.138,0,0,1,.115-.137l.117-.02a3.545,3.545,0,0,0,.355-.087,2.939,2.939,0,0,0,.62-.273,1.95,1.95,0,0,0,.252-.177h0a2.06,2.06,0,0,0,.229-.216,1.95,1.95,0,0,0,.2-.252,1.76,1.76,0,0,0,.156-.278,2.234,2.234,0,0,0,.112-.3,2.463,2.463,0,0,0,.066-.333,2.872,2.872,0,0,0,.023-.355,3.127,3.127,0,0,0-.021-.374,2.732,2.732,0,0,0-.064-.339,1.95,1.95,0,0,0-.108-.307,1.711,1.711,0,0,0-.145-.262h0a2.426,2.426,0,0,0-.177-.238,2.523,2.523,0,0,0-.216-.22,2.819,2.819,0,0,0-.238-.193c-.085-.062-.177-.122-.269-.177h-.012c-.094-.055-.193-.112-.3-.177s-.2-.106-.312-.165-.215-.108-.323-.16c-.177-.078-.34-.154-.509-.238l-.137-.074-.115-.067a2.181,2.181,0,0,1-.177-.131.9.9,0,0,1-.128-.144.376.376,0,0,1-.043-.071h0a.723.723,0,0,1-.03-.074.761.761,0,0,1-.023-.078.769.769,0,0,1-.012-.092v-.184a1.344,1.344,0,0,1,.032-.168l.028-.082a.413.413,0,0,1,.034-.069.427.427,0,0,1,.044-.062.532.532,0,0,1,.117-.108A.575.575,0,0,1,18.7,13.9l.076-.025a.55.55,0,0,1,.094-.018,1,1,0,0,1,.1,0,.693.693,0,0,1,.135.012.635.635,0,0,1,.117.034h.009a.6.6,0,0,1,.11.06.606.606,0,0,1,.1.082l.011.011a.555.555,0,0,1,.089.124.9.9,0,0,1,.055.144v.018a1.453,1.453,0,0,1,.039.223c0,.078.012.167.014.262a.082.082,0,0,0,.018.051h0a.078.078,0,0,0,.055.023H21.71a.079.079,0,0,0,.078-.08,3.3,3.3,0,0,0-.023-.4,3.044,3.044,0,0,0-.066-.374,2.542,2.542,0,0,0-.108-.34,2.3,2.3,0,0,0-.149-.3l-.012-.023a2.411,2.411,0,0,0-.2-.282,2.168,2.168,0,0,0-.229-.248,2.228,2.228,0,0,0-.264-.264,2.5,2.5,0,0,0-.3-.177,2.916,2.916,0,0,0-.667-.239h-.039a.138.138,0,0,1-.115-.137V11.2a.085.085,0,0,0-.018-.051h0a.078.078,0,0,0-.057-.023h-.934a.082.082,0,0,0-.057.023.078.078,0,0,0-.023.055Zm-4.833,8.823a.6.6,0,1,1,0,1.2H1.4a1.4,1.4,0,0,1-1.4-1.4V1.4A1.4,1.4,0,0,1,1.4,0H18.575a1.4,1.4,0,0,1,1.4,1.4V8.034a.6.6,0,1,1-1.2,0V1.4a.2.2,0,0,0-.059-.138.2.2,0,0,0-.138-.059H1.4a.211.211,0,0,0-.14.057A.215.215,0,0,0,1.2,1.4V19.813a.2.2,0,0,0,.2.2H13.707Zm-6.148-4.4a.62.62,0,0,1,0-1.218h5.235a.619.619,0,0,1,0,1.218Zm0-8.807a.558.558,0,0,1-.5-.6.557.557,0,0,1,.5-.6h6.659a.558.558,0,0,1,.5.6.557.557,0,0,1-.5.6ZM4.671,14.182a.709.709,0,1,1-.709.709A.709.709,0,0,1,4.671,14.182Zm0-4.342a.709.709,0,1,1-.709.709A.709.709,0,0,1,4.671,9.841Zm0-4.34a.709.709,0,1,1-.709.709A.709.709,0,0,1,4.671,5.5Z" fill="#fff" fill-rule="evenodd"/>
</svg>
