<svg xmlns="http://www.w3.org/2000/svg" width="17.069" height="19.862" viewBox="0 0 17.069 19.862">
  <g id="usage-icon" transform="translate(-0.5 0)">
    <path id="Path_3938" data-name="Path 3938" d="M17.395,4.152,13.337.167A.582.582,0,0,0,12.929,0H2.671A2.174,2.174,0,0,0,.5,2.171V17.691a2.174,2.174,0,0,0,2.171,2.171H15.4a2.174,2.174,0,0,0,2.171-2.171V4.567a.582.582,0,0,0-.174-.415ZM13.511,1.969l2.053,2.016H13.7a.185.185,0,0,1-.185-.185ZM15.4,18.7H2.671a1.009,1.009,0,0,1-1.007-1.007V2.171A1.008,1.008,0,0,1,2.671,1.164h9.677V3.8A1.35,1.35,0,0,0,13.7,5.149h2.709V17.691A1.008,1.008,0,0,1,15.4,18.7Zm0,0" fill="#fff"/>
    <path id="Path_3939" data-name="Path 3939" d="M106.977,238h-8.2a.582.582,0,1,0,0,1.164h8.2a.582.582,0,1,0,0-1.164Zm0,0" transform="translate(-93.903 -228.767)" fill="#fff"/>
    <path id="Path_3940" data-name="Path 3940" d="M98.773,299.164h6.688a.582.582,0,1,0,0-1.164H98.773a.582.582,0,0,0,0,1.164Zm0,0" transform="translate(-93.902 -286.44)" fill="#fff"/>
    <path id="Path_3941" data-name="Path 3941" d="M106.268,358h-7.5a.582.582,0,0,0,0,1.164h7.5a.582.582,0,1,0,0-1.164Zm0,0" transform="translate(-93.902 -344.112)" fill="#fff"/>
  </g>
</svg>
