<svg width="16" height="18" viewBox="0 0 16 18" fill="none" xmlns="http://www.w3.org/2000/svg">
<g clip-path="url(#clip0_1317_2766)">
<path d="M13.232 6.61508H2.20195C1.61793 6.61667 1.05836 6.84979 0.645953 7.26332C0.233544 7.67686 0.00195096 8.23705 0.00195313 8.82108V9.92108C0.0022674 10.3065 0.104102 10.685 0.297207 11.0186C0.490312 11.3521 0.767873 11.6289 1.10195 11.8211V15.4351H5.51195V17.6401H9.92195V15.4361H14.332V11.8231C14.666 11.6309 14.9436 11.3541 15.1367 11.0206C15.3298 10.687 15.4316 10.3085 15.432 9.92308V8.82308C15.4325 8.23871 15.2011 7.678 14.7887 7.26403C14.3762 6.85006 13.8163 6.61667 13.232 6.61508ZM4.41095 14.3331H2.20195V9.92308H1.10195V8.82308C1.10195 8.53134 1.21785 8.25156 1.42414 8.04527C1.63043 7.83898 1.91021 7.72308 2.20195 7.72308H3.61395C3.41639 8.05615 3.31111 8.43583 3.30895 8.82308V11.0281C3.30927 11.4135 3.4111 11.792 3.60421 12.1256C3.79731 12.4591 4.07487 12.7359 4.40895 12.9281V14.3361L4.41095 14.3331ZM9.92395 12.1281V9.92308H8.82395V16.5381H6.61595V9.92308H5.51595V12.1281C5.22421 12.1281 4.94443 12.0122 4.73814 11.8059C4.53185 11.5996 4.41595 11.3198 4.41595 11.0281V8.82108C4.41595 8.52934 4.53185 8.24956 4.73814 8.04327C4.94443 7.83698 5.22421 7.72108 5.51595 7.72108H9.92595C10.2177 7.72108 10.4975 7.83698 10.7038 8.04327C10.9101 8.24956 11.026 8.52934 11.026 8.82108V11.0261C11.026 11.3178 10.9101 11.5976 10.7038 11.8039C10.4975 12.0102 10.2177 12.1261 9.92595 12.1261L9.92395 12.1281ZM14.334 9.92308H13.234V14.3331H11.026V12.9251C11.36 12.7329 11.6376 12.4561 11.8307 12.1226C12.0238 11.789 12.1256 11.4105 12.126 11.0251V8.82108C12.1234 8.43375 12.0178 8.05407 11.82 7.72108H13.232C13.5237 7.72108 13.8035 7.83698 14.0098 8.04327C14.2161 8.24956 14.332 8.52934 14.332 8.82108V9.92108L14.334 9.92308ZM5.23295 5.47208C5.53956 5.83194 5.92064 6.12094 6.34985 6.31912C6.77907 6.5173 7.24619 6.61993 7.71895 6.61993C8.19171 6.61993 8.65884 6.5173 9.08805 6.31912C9.51727 6.12094 9.89835 5.83194 10.205 5.47208C10.4181 5.85923 10.7429 6.17322 11.137 6.37314C11.5311 6.57306 11.9763 6.64965 12.4146 6.59292C12.8529 6.53619 13.2639 6.34878 13.5942 6.05509C13.9244 5.76141 14.1586 5.37508 14.2661 4.94642C14.3736 4.51777 14.3496 4.06666 14.1971 3.65188C14.0445 3.23709 13.7706 2.87785 13.411 2.62096C13.0514 2.36408 12.6228 2.22145 12.181 2.21166C11.7391 2.20187 11.3046 2.32537 10.934 2.56608C10.767 1.83836 10.3582 1.18876 9.77441 0.723381C9.19057 0.258007 8.46617 0.00437121 7.71955 0.00390689C6.97292 0.00344257 6.24821 0.256177 5.66379 0.720825C5.07937 1.18547 4.66979 1.83457 4.50195 2.56208C4.1302 2.31997 3.6941 2.19552 3.25056 2.20495C2.80702 2.21439 2.37661 2.35729 2.01549 2.61499C1.65437 2.8727 1.37931 3.23326 1.22617 3.64964C1.07303 4.06601 1.04893 4.51888 1.15702 4.94915C1.2651 5.37943 1.50036 5.76714 1.83209 6.06172C2.16382 6.3563 2.57663 6.54406 3.01667 6.60051C3.4567 6.65697 3.90354 6.5795 4.29889 6.3782C4.69424 6.17691 5.01975 5.86114 5.23295 5.47208ZM12.133 3.31208C12.3505 3.31208 12.5632 3.3766 12.7441 3.49747C12.925 3.61834 13.066 3.79013 13.1492 3.99113C13.2325 4.19213 13.2543 4.4133 13.2118 4.62668C13.1694 4.84006 13.0646 5.03606 12.9108 5.1899C12.7569 5.34374 12.5609 5.4485 12.3476 5.49095C12.1342 5.53339 11.913 5.51161 11.712 5.42835C11.511 5.34509 11.3392 5.2041 11.2183 5.02321C11.0975 4.84232 11.033 4.62964 11.033 4.41208C11.0324 4.26763 11.0604 4.12448 11.1152 3.99082C11.1699 3.85717 11.2505 3.73561 11.3523 3.63309C11.4541 3.53057 11.575 3.44911 11.7083 3.39334C11.8416 3.33758 11.9845 3.30861 12.129 3.30808L12.133 3.31208ZM7.72295 1.10708C8.15906 1.10708 8.58538 1.2364 8.94799 1.47869C9.3106 1.72098 9.59322 2.06535 9.76011 2.46827C9.927 2.87118 9.97067 3.31453 9.88558 3.74226C9.8005 4.16998 9.5905 4.56288 9.28212 4.87125C8.97375 5.17963 8.58086 5.38963 8.15313 5.47471C7.7254 5.55979 7.28205 5.51613 6.87914 5.34924C6.47623 5.18235 6.13185 4.89973 5.88956 4.53711C5.64727 4.1745 5.51795 3.74819 5.51795 3.31208C5.51822 2.72736 5.75061 2.16666 6.16407 1.7532C6.57754 1.33974 7.13823 1.10735 7.72295 1.10708ZM3.31295 5.51708C3.09539 5.51708 2.88272 5.45257 2.70183 5.3317C2.52093 5.21083 2.37994 5.03903 2.29669 4.83803C2.21343 4.63703 2.19165 4.41586 2.23409 4.20248C2.27653 3.9891 2.3813 3.7931 2.53514 3.63926C2.68897 3.48543 2.88497 3.38066 3.09835 3.33822C3.31173 3.29577 3.53291 3.31756 3.7339 3.40081C3.9349 3.48407 4.1067 3.62506 4.22757 3.80595C4.34844 3.98685 4.41295 4.19952 4.41295 4.41708C4.41243 4.56162 4.38342 4.70464 4.3276 4.83796C4.27177 4.97129 4.19021 5.0923 4.08759 5.19409C3.98497 5.29587 3.86329 5.37643 3.72952 5.43117C3.59574 5.48591 3.45249 5.51374 3.30795 5.51308L3.31295 5.51708Z" fill="#292D32"/>
</g>
<defs>
<clipPath id="clip0_1317_2766">
<rect width="15.436" height="17.641" fill="white"/>
</clipPath>
</defs>
</svg>
