<svg xmlns="http://www.w3.org/2000/svg" width="19.066" height="16.608" viewBox="0 0 19.066 16.608">
  <g id="User-icon" transform="translate(0 -33)">
    <path id="Path_3792" data-name="Path 3792" d="M172.24,39.48A3.24,3.24,0,1,0,169,36.24,3.243,3.243,0,0,0,172.24,39.48Zm0-5.362a2.123,2.123,0,1,1-2.123,2.123A2.125,2.125,0,0,1,172.24,34.117Z" transform="translate(-162.707)" fill="#fff"/>
    <path id="Path_3793" data-name="Path 3793" d="M379.048,101.1A2.048,2.048,0,1,0,377,99.048,2.05,2.05,0,0,0,379.048,101.1Zm0-2.979a.931.931,0,1,1-.931.931A.932.932,0,0,1,379.048,98.117Z" transform="translate(-362.961 -61.617)" fill="#fff"/>
    <path id="Path_3794" data-name="Path 3794" d="M16.538,241h-.864a2.532,2.532,0,0,0-2.3,1.465A4.5,4.5,0,0,0,10.054,241H9.013a4.5,4.5,0,0,0-3.323,1.465A2.532,2.532,0,0,0,3.392,241H2.529A2.524,2.524,0,0,0,0,243.513v4.067a1.094,1.094,0,0,0,1.1,1.091H4.511a1.306,1.306,0,0,0,1.3,1.192h7.446a1.306,1.306,0,0,0,1.3-1.192h3.377a1.133,1.133,0,0,0,1.134-1.13v-4.028A2.524,2.524,0,0,0,16.538,241Zm-15.42,2.513a1.405,1.405,0,0,1,1.411-1.4h.864a1.405,1.405,0,0,1,1.411,1.4v.382c-.376.978-.3,1.564-.3,3.658H1.117Zm12.326,5.045a.187.187,0,0,1-.187.187H5.81a.187.187,0,0,1-.187-.187v-3.052a3.393,3.393,0,0,1,3.389-3.39h1.041a3.393,3.393,0,0,1,3.39,3.389Zm4.506-1.017c0,.019.208.013-3.389.013,0-2.11.077-2.682-.3-3.658v-.382a1.405,1.405,0,0,1,1.411-1.4h.864a1.405,1.405,0,0,1,1.411,1.4Z" transform="translate(0 -200.254)" fill="#fff"/>
    <path id="Path_3795" data-name="Path 3795" d="M27.048,101.1A2.048,2.048,0,1,0,25,99.048,2.05,2.05,0,0,0,27.048,101.1Zm0-2.979a.931.931,0,1,1-.931.931A.932.932,0,0,1,27.048,98.117Z" transform="translate(-24.069 -61.617)" fill="#fff"/>
  </g>
</svg>
