<svg xmlns="http://www.w3.org/2000/svg" width="15.436" height="17.641" viewBox="0 0 15.436 17.641">
  <path id="organizationIcon" d="M17.73,8.543H6.7A2.206,2.206,0,0,0,4.5,10.749v1.1a2.194,2.194,0,0,0,1.1,1.9v3.614h4.41v2.205h4.41V17.364h4.41V13.751a2.194,2.194,0,0,0,1.1-1.9v-1.1A2.206,2.206,0,0,0,17.73,8.543ZM8.909,16.261H6.7v-4.41H5.6v-1.1a1.1,1.1,0,0,1,1.1-1.1H8.112a2.18,2.18,0,0,0-.305,1.1v2.205a2.194,2.194,0,0,0,1.1,1.9v1.408Zm5.513-2.205V11.851h-1.1v6.615H11.114V11.851h-1.1v2.205a1.1,1.1,0,0,1-1.1-1.1V10.749a1.1,1.1,0,0,1,1.1-1.1h4.41a1.1,1.1,0,0,1,1.1,1.1v2.205a1.1,1.1,0,0,1-1.1,1.1Zm4.41-2.205h-1.1v4.41H15.524V14.853a2.194,2.194,0,0,0,1.1-1.9V10.749a2.181,2.181,0,0,0-.306-1.1H17.73a1.1,1.1,0,0,1,1.1,1.1v1.1ZM9.731,7.4a3.266,3.266,0,0,0,4.972,0,2.2,2.2,0,1,0,.729-2.906A3.3,3.3,0,0,0,9,4.49,2.207,2.207,0,1,0,9.731,7.4Zm6.9-2.16a1.1,1.1,0,1,1-1.1,1.1A1.1,1.1,0,0,1,16.627,5.236Zm-4.41-2.205a2.205,2.205,0,1,1-2.205,2.205,2.206,2.206,0,0,1,2.205-2.205Zm-4.41,4.41a1.1,1.1,0,1,1,1.1-1.1A1.1,1.1,0,0,1,7.806,7.441Z" transform="translate(-4.499 -1.928)" fill="#fff"/>
</svg>
