<svg width="48" height="48" viewBox="0 0 48 48" fill="none" xmlns="http://www.w3.org/2000/svg">
<path fill-rule="evenodd" clip-rule="evenodd" d="M24 0C37.2539 0 48 10.7461 48 24C48 37.2539 37.2539 48 24 48C10.7461 48 0 37.2539 0 24C0 10.7461 10.7461 0 24 0ZM32.543 25.4844C33.7656 24.6953 33.7617 23.8164 32.543 23.1172L19.9141 15.8594C18.918 15.2344 17.8789 15.6016 17.9062 16.9023L17.9453 31.5703C18.0312 32.9805 18.8359 33.3672 20.0234 32.7148L32.543 25.4844ZM24 4.875C34.5625 4.875 43.125 13.4375 43.125 24C43.125 34.5625 34.5625 43.125 24 43.125C13.4375 43.125 4.875 34.5625 4.875 24C4.875 13.4375 13.4375 4.875 24 4.875Z" fill="white"/>
</svg>
