<svg width="17" height="14" viewBox="0 0 17 14" fill="none" xmlns="http://www.w3.org/2000/svg">
<path d="M16.3625 4.67484C14.399 1.70811 11.526 0 8.5 0C6.987 0 5.5165 0.424985 4.1735 1.21775C2.8305 2.01868 1.6235 3.18739 0.6375 4.67484C-0.2125 5.95797 -0.2125 8.04203 0.6375 9.32516C2.601 12.3001 5.474 14 8.5 14C10.013 14 11.4835 13.575 12.8265 12.7823C14.1695 11.9813 15.3765 10.8126 16.3625 9.32516C17.2125 8.0502 17.2125 5.95797 16.3625 4.67484ZM8.5 10.3059C6.596 10.3059 5.066 8.82662 5.066 7.00409C5.066 5.18155 6.596 3.70228 8.5 3.70228C10.404 3.70228 11.934 5.18155 11.934 7.00409C11.934 8.82662 10.404 10.3059 8.5 10.3059Z" fill="white"/>
<path d="M8.49562 5C7.12084 5 6 5.89667 6 7.0035C6 8.10333 7.12084 9 8.49562 9C9.8704 9 11 8.10333 11 7.0035C11 5.90368 9.8704 5 8.49562 5Z" fill="white"/>
</svg>
