<svg width="24" height="24" viewBox="0 0 24 24" fill="none" xmlns="http://www.w3.org/2000/svg">
<circle cx="12" cy="12" r="11.5" fill="white" stroke="#3A2C41"/>
<path d="M13.79 12C13.79 12.99 12.99 13.79 12 13.79C11.01 13.79 10.21 12.99 10.21 12C10.21 11.01 11.01 10.21 12 10.21C12.99 10.21 13.79 11.01 13.79 12Z" stroke="#3A2C41" stroke-linecap="round" stroke-linejoin="round"/>
<path d="M11.9999 16.1344C13.7649 16.1344 15.4099 15.0944 16.5549 13.2944C17.0049 12.5894 17.0049 11.4044 16.5549 10.6994C15.4099 8.89937 13.7649 7.85938 11.9999 7.85938C10.2349 7.85938 8.58992 8.89937 7.44492 10.6994C6.99492 11.4044 6.99492 12.5894 7.44492 13.2944C8.58992 15.0944 10.2349 16.1344 11.9999 16.1344Z" stroke="#3A2C41" stroke-linecap="round" stroke-linejoin="round"/>
</svg>
