<svg width="24" height="24" viewBox="0 0 24 24" fill="none" xmlns="http://www.w3.org/2000/svg">
<circle cx="12" cy="12" r="11.5" stroke="#211925"/>
<path d="M14.4391 11.4997C14.4391 12.5722 13.5725 13.4389 12.5 13.4389C11.4275 13.4389 10.5608 12.5722 10.5608 11.4997C10.5608 10.4272 11.4275 9.56055 12.5 9.56055C13.5725 9.56055 14.4391 10.4272 14.4391 11.4997Z" stroke="#211925" stroke-linecap="round" stroke-linejoin="round"/>
<path d="M12.4999 15.9802C14.412 15.9802 16.1941 14.8535 17.4345 12.9035C17.922 12.1398 17.922 10.856 17.4345 10.0923C16.1941 8.14229 14.412 7.01562 12.4999 7.01562C10.5878 7.01562 8.80575 8.14229 7.56533 10.0923C7.07783 10.856 7.07783 12.1398 7.56533 12.9035C8.80575 14.8535 10.5878 15.9802 12.4999 15.9802Z" stroke="#211925" stroke-linecap="round" stroke-linejoin="round"/>
</svg>
