<svg xmlns="http://www.w3.org/2000/svg" width="20" height="12.857" viewBox="0 0 20 12.857">
  <g id="view" transform="translate(0 -91.365)">
    <path id="Path_3943" data-name="Path 3943" d="M19.777,97.024a11.92,11.92,0,0,0-4.2-4.107,10.792,10.792,0,0,0-11.149,0,11.917,11.917,0,0,0-4.2,4.107,1.44,1.44,0,0,0,0,1.54,11.914,11.914,0,0,0,4.2,4.107,10.81,10.81,0,0,0,11.149.006,11.841,11.841,0,0,0,4.2-4.113,1.44,1.44,0,0,0,0-1.54Zm-4.927,4.414a9.349,9.349,0,0,1-9.7,0,11.519,11.519,0,0,1-3.722-3.644,10.969,10.969,0,0,1,4.252-3.94c-.454.774,3.25-2.384,8.638,0a10.97,10.97,0,0,1,4.252,3.94A11.517,11.517,0,0,1,14.849,101.438Z" transform="translate(0)" fill="#727272"/>
    <g id="Ellipse_24" data-name="Ellipse 24" transform="translate(7 94.365)" fill="#fff" stroke="#707070" stroke-width="2">
      <circle cx="3.5" cy="3.5" r="3.5" stroke="none"/>
      <circle cx="3.5" cy="3.5" r="2.5" fill="none"/>
    </g>
  </g>
</svg>
