<svg width="180" height="69" viewBox="0 0 180 69" fill="none" xmlns="http://www.w3.org/2000/svg">
<g clip-path="url(#clip0_1838_10525)">
<path d="M139.359 42.6906V26.8057H150.063V29.5747H142.718V33.3597H149.512V36.1287H142.718V39.9216H150.094V42.6906H139.359Z" fill="#EC881D"/>
<path d="M155.602 26.8057L159.441 38.8745H159.589L163.436 26.8057H167.159L161.683 42.6906H157.355L151.871 26.8057H155.602Z" fill="#EC881D"/>
<path d="M169.072 42.6906V26.8057H179.775V29.5747H172.43V33.3597H179.225V36.1287H172.43V39.9216H179.807V42.6906H169.072Z" fill="#EC881D"/>
<path d="M32.9095 42.6911H29.3105L34.7942 26.8062H39.1222L44.5982 42.6911H40.9993L37.0203 30.4362H36.8962L32.9095 42.6911ZM32.6845 36.4473H41.1854V39.0689H32.6845V36.4473Z" fill="white"/>
<path d="M52.1409 42.6911H46.5098V26.8062H52.1874C53.7852 26.8062 55.1607 27.1243 56.3138 27.7603C57.4669 28.3911 58.3537 29.2986 58.9742 30.4827C59.5999 31.6669 59.9127 33.0837 59.9127 34.7332C59.9127 36.3879 59.5999 37.8098 58.9742 38.9991C58.3537 40.1884 57.4617 41.1011 56.2983 41.7371C55.14 42.3731 53.7542 42.6911 52.1409 42.6911ZM49.8683 39.8136H52.0013C52.9941 39.8136 53.8292 39.6377 54.5066 39.2861C55.1891 38.9293 55.701 38.3786 56.0423 37.634C56.3888 36.8843 56.562 35.9173 56.562 34.7332C56.562 33.5594 56.3888 32.6002 56.0423 31.8556C55.701 31.111 55.1917 30.5629 54.5143 30.2113C53.8369 29.8596 53.0018 29.6838 52.009 29.6838H49.8683V39.8136Z" fill="white"/>
<path d="M64.2435 42.6911H60.6445L66.1282 26.8062H70.4562L75.9322 42.6911H72.3333L68.3543 30.4362H68.2302L64.2435 42.6911ZM64.0185 36.4473H72.5194V39.0689H64.0185V36.4473Z" fill="white"/>
<path d="M77.8438 26.8062H81.9856L86.3601 37.4789H86.5463L90.9209 26.8062H95.0628V42.6911H91.805V32.352H91.6732L87.5624 42.6136H85.3441L81.2332 32.3132H81.1014V42.6911H77.8438V26.8062Z" fill="white"/>
<path d="M117.482 34.7485C117.482 36.4807 117.153 37.9544 116.497 39.1696C115.845 40.3847 114.956 41.3129 113.828 41.9541C112.706 42.5901 111.445 42.9081 110.043 42.9081C108.632 42.9081 107.365 42.5875 106.243 41.9463C105.121 41.3051 104.234 40.377 103.582 39.1618C102.931 37.9467 102.605 36.4756 102.605 34.7485C102.605 33.0163 102.931 31.5426 103.582 30.3274C104.234 29.1122 105.121 28.1867 106.243 27.5506C107.365 26.9095 108.632 26.5889 110.043 26.5889C111.445 26.5889 112.706 26.9095 113.828 27.5506C114.956 28.1867 115.845 29.1122 116.497 30.3274C117.153 31.5426 117.482 33.0163 117.482 34.7485ZM114.077 34.7485C114.077 33.6264 113.909 32.6801 113.572 31.9097C113.242 31.1392 112.774 30.5549 112.169 30.1568C111.564 29.7586 110.855 29.5595 110.043 29.5595C109.232 29.5595 108.523 29.7586 107.918 30.1568C107.313 30.5549 106.843 31.1392 106.506 31.9097C106.176 32.6801 106.01 33.6264 106.01 34.7485C106.01 35.8706 106.176 36.8168 106.506 37.5873C106.843 38.3578 107.313 38.9421 107.918 39.3402C108.523 39.7384 109.232 39.9375 110.043 39.9375C110.855 39.9375 111.564 39.7384 112.169 39.3402C112.774 38.9421 113.242 38.3578 113.572 37.5873C113.909 36.8168 114.077 35.8706 114.077 34.7485Z" fill="white"/>
<path d="M119.971 42.6911V26.8062H126.239C127.438 26.8062 128.462 27.0208 129.31 27.45C130.163 27.874 130.812 28.4764 131.257 29.2572C131.707 30.0329 131.932 30.9455 131.932 31.9952C131.932 33.0501 131.704 33.9575 131.249 34.7177C130.794 35.4726 130.135 36.0517 129.271 36.4551C128.413 36.8584 127.374 37.0601 126.153 37.0601H121.957V34.3609H125.61C126.252 34.3609 126.784 34.273 127.208 34.0972C127.632 33.9214 127.948 33.6576 128.154 33.306C128.366 32.9544 128.472 32.5175 128.472 31.9952C128.472 31.4678 128.366 31.0231 128.154 30.6611C127.948 30.2992 127.63 30.0251 127.2 29.839C126.776 29.6476 126.241 29.552 125.595 29.552H123.33V42.6911H119.971ZM128.55 35.4623L132.498 42.6911H128.79L124.928 35.4623H128.55Z" fill="white"/>
<path d="M41.0506 56.0997C40.872 50.5026 21.657 66.4867 20.762 50.4335C20.6963 49.2497 19.5649 48.0555 18.951 47.4855C18.7366 47.2886 18.4618 47.1597 18.1652 47.117C17.7808 47.0873 17.4115 46.9638 17.0938 46.7588C16.7761 46.5537 16.5211 46.2743 16.3542 45.9482C15.7894 44.6988 17.5329 43.9906 17.5329 43.9906L16.6857 43.7315C16.3468 43.6373 16.0522 43.4378 15.8502 43.1657C15.6483 42.8936 15.5511 42.5652 15.5745 42.2345C15.6298 41.4975 15.7035 40.605 15.771 40.202C15.807 39.9994 15.7697 39.7913 15.6652 39.6108C15.5606 39.4303 15.3948 39.2878 15.1939 39.2059L13.3154 38.4401C13.095 38.3506 12.8956 38.2211 12.7288 38.0589C12.5621 37.8967 12.4313 37.7052 12.3439 37.4953C12.2566 37.2854 12.2145 37.0614 12.22 36.8362C12.2255 36.6109 12.2786 36.3889 12.3762 36.1831L16.8515 26.7115C17.143 26.0781 17.3142 25.4018 17.3573 24.713C13.3357 24.3399 13.4756 22.452 13.4756 22.452C14.3607 22.9755 15.3834 23.2582 16.4297 23.2684C16.5633 23.2663 16.695 23.2387 16.8169 23.1872C16.9387 23.1357 17.048 23.0614 17.1382 22.9689C17.2283 22.8765 17.2974 22.7677 17.3412 22.6493C17.385 22.5309 17.4026 22.4054 17.3929 22.2804C17.2529 20.4955 16.9448 18.4636 16.7839 17.6834C16.7286 17.2382 16.7102 16.7897 16.7287 16.3418C16.256 5.26391 34.194 -0.0965656 30.3265 0.00131626C14.9607 4.13538 0 17.3253 0 35.4726C0 57.6128 11.2859 67.6008 23.1353 68.9061C30.6248 69.7312 37.746 65.0219 40.4153 58.5882C40.8008 57.8064 41.0167 56.9605 41.0506 56.0997Z" fill="#EC881D"/>
<path d="M43.6968 8.60271C42.8741 8.59761 42.0544 8.69726 41.2603 8.89891C41.9269 8.1208 42.4335 7.23334 42.7542 6.28174C43.6509 3.71257 41.7469 0.821289 41.7469 0.821289C41.7469 0.821289 38.3891 2.0965 37.4924 4.66567C37.1568 5.5955 37.0046 6.57489 37.0435 7.55584C36.5252 6.94278 35.9192 6.3997 35.2425 5.94198C32.9138 4.34852 29.3936 5.1527 29.3936 5.1527C29.3936 5.1527 29.6501 8.54094 31.9788 10.1344C32.607 10.5673 33.2918 10.923 34.0164 11.1929C33.0879 11.4653 32.2141 11.8801 31.4305 12.4206C29.0941 14.0047 28.8223 17.3918 28.8223 17.3918C28.8223 17.3918 32.3389 18.2098 34.6753 16.6257C35.6907 15.9632 36.5318 15.0925 37.1347 14.0797C36.9827 15.2307 37.1121 16.3989 37.513 17.4961C38.3956 20.0691 41.7493 21.357 41.7493 21.357C41.7493 21.357 43.6662 18.4751 42.7807 15.9026C42.4982 15.0616 42.0743 14.2682 41.5251 13.5524C42.2322 13.7109 42.9568 13.7909 43.6838 13.7907C46.5668 13.7968 48.9109 11.2061 48.9109 11.2061C48.9109 11.2061 46.5803 8.60878 43.6968 8.60271ZM38.1408 11.8569C37.8707 11.8568 37.6066 11.7816 37.382 11.6409C37.1574 11.5001 36.9824 11.3001 36.8791 11.0661C36.7758 10.8321 36.7488 10.5746 36.8015 10.3262C36.8542 10.0778 36.9843 9.84967 37.1754 9.67059C37.3664 9.49151 37.6098 9.36954 37.8747 9.32011C38.1397 9.27067 38.4143 9.29599 38.6639 9.39285C38.9136 9.48972 39.1269 9.6538 39.2771 9.86433C39.4273 10.0749 39.5075 10.3224 39.5076 10.5756C39.5071 10.9151 39.3629 11.2405 39.1066 11.4804C38.8503 11.7202 38.5029 11.8549 38.1408 11.8547V11.8569Z" fill="#EC881D"/>
</g>
<defs>
<clipPath id="clip0_1838_10525">
<rect width="180" height="69" fill="white"/>
</clipPath>
</defs>
</svg>
