<svg width="32" height="32" viewBox="0 0 32 32" fill="none" xmlns="http://www.w3.org/2000/svg">
<path fill-rule="evenodd" clip-rule="evenodd" d="M16 0C19.1645 0 22.2579 0.938384 24.8891 2.69649C27.5203 4.45459 29.5711 6.95345 30.7821 9.87706C31.9931 12.8007 32.3099 16.0177 31.6926 19.1214C31.0752 22.2251 29.5513 25.0761 27.3137 27.3137C25.0761 29.5513 22.2251 31.0752 19.1214 31.6926C16.0177 32.3099 12.8007 31.9931 9.87706 30.7821C6.95345 29.5711 4.45459 27.5203 2.69649 24.8891C0.938384 22.2579 0 19.1645 0 16C0 11.7565 1.68571 7.68687 4.68629 4.68629C7.68687 1.68571 11.7565 0 16 0ZM8.91406 13.0885C8.91406 13.2011 8.8919 13.3125 8.84884 13.4164C8.80579 13.5204 8.74268 13.6148 8.66312 13.6944C8.58356 13.7739 8.48911 13.837 8.38516 13.8801C8.28121 13.9231 8.1698 13.9453 8.05729 13.9453C7.94478 13.9453 7.83337 13.9231 7.72942 13.8801C7.62547 13.837 7.53102 13.7739 7.45146 13.6944C7.3719 13.6148 7.30879 13.5204 7.26574 13.4164C7.22268 13.3125 7.20052 13.2011 7.20052 13.0885V9.19792C7.19949 9.08475 7.22089 8.9725 7.26348 8.86764C7.30608 8.76279 7.36902 8.66742 7.44868 8.58703C7.52834 8.50664 7.62314 8.44283 7.7276 8.39929C7.83206 8.35574 7.94412 8.33333 8.05729 8.33333H12.0208C12.2481 8.33333 12.466 8.4236 12.6267 8.58427C12.7873 8.74495 12.8776 8.96287 12.8776 9.1901C12.8776 9.41733 12.7873 9.63526 12.6267 9.79593C12.466 9.95661 12.2481 10.0469 12.0208 10.0469H10.1276L13.5417 13.4505C13.6212 13.5297 13.6843 13.6237 13.7275 13.7273C13.7706 13.8309 13.793 13.9419 13.7932 14.0541C13.7935 14.1664 13.7716 14.2775 13.7289 14.3813C13.6862 14.485 13.6234 14.5793 13.5443 14.6589C13.4651 14.7384 13.371 14.8015 13.2675 14.8447C13.1639 14.8878 13.0528 14.9102 12.9406 14.9104C12.8284 14.9106 12.7173 14.8888 12.6135 14.8461C12.5098 14.8034 12.4154 14.7406 12.3359 14.6615L8.91406 11.2604V13.0833V13.0885ZM12.3906 22.3958C12.61 22.4079 12.8165 22.5036 12.9675 22.6632C13.1185 22.8228 13.2027 23.0342 13.2027 23.2539C13.2027 23.4736 13.1185 23.685 12.9675 23.8446C12.8165 24.0042 12.61 24.0999 12.3906 24.112H8.5C8.27277 24.112 8.05485 24.0217 7.89417 23.861C7.7335 23.7004 7.64323 23.4824 7.64323 23.2552V19.2708C7.64323 19.0436 7.7335 18.8257 7.89417 18.665C8.05485 18.5043 8.27277 18.4141 8.5 18.4141C8.72723 18.4141 8.94515 18.5043 9.10583 18.665C9.2665 18.8257 9.35677 19.0436 9.35677 19.2708V21.1719L12.7604 17.7682C12.8396 17.6887 12.9336 17.6256 13.0372 17.5824C13.1408 17.5393 13.2518 17.5169 13.364 17.5167C13.4762 17.5164 13.5874 17.5383 13.6912 17.581C13.7949 17.6237 13.8892 17.6865 13.9687 17.7656C14.0483 17.8448 14.1114 17.9388 14.1546 18.0424C14.1977 18.146 14.2201 18.257 14.2203 18.3692C14.2205 18.4815 14.1987 18.5926 14.156 18.6964C14.1133 18.8001 14.0505 18.8944 13.9714 18.974L10.5625 22.3958H12.3906ZM23.0859 18.9115C23.0859 18.6842 23.1762 18.4663 23.3369 18.3056C23.4976 18.145 23.7155 18.0547 23.9427 18.0547C24.1699 18.0547 24.3879 18.145 24.5485 18.3056C24.7092 18.4663 24.7995 18.6842 24.7995 18.9115V22.8021C24.7995 23.0293 24.7092 23.2472 24.5485 23.4079C24.3879 23.5686 24.1699 23.6588 23.9427 23.6588H19.9792C19.7519 23.6588 19.534 23.5686 19.3733 23.4079C19.2127 23.2472 19.1224 23.0293 19.1224 22.8021C19.1224 22.5749 19.2127 22.3569 19.3733 22.1963C19.534 22.0356 19.7519 21.9453 19.9792 21.9453H21.875L18.4687 18.5599C18.3082 18.4 18.2177 18.1829 18.2172 17.9563C18.2167 17.7297 18.3063 17.5121 18.4661 17.3516C18.626 17.191 18.8432 17.1005 19.0698 17.1C19.2964 17.0995 19.5139 17.1891 19.6745 17.349L23.0859 20.7396V18.9167V18.9115ZM19.6094 9.61458C19.39 9.60249 19.1835 9.50682 19.0325 9.34722C18.8815 9.18763 18.7973 8.97624 18.7973 8.75651C18.7973 8.53677 18.8815 8.32539 19.0325 8.1658C19.1835 8.0062 19.39 7.91053 19.6094 7.89844H23.5C23.7272 7.89844 23.9452 7.9887 24.1058 8.14938C24.2665 8.31005 24.3568 8.52798 24.3568 8.75521V12.7187C24.3568 12.946 24.2665 13.1639 24.1058 13.3246C23.9452 13.4853 23.7272 13.5755 23.5 13.5755C23.2728 13.5755 23.0548 13.4853 22.8942 13.3246C22.7335 13.1639 22.6432 12.946 22.6432 12.7187V10.8281L19.2578 14.2318C19.1783 14.312 19.0838 14.3757 18.9796 14.4194C18.8755 14.463 18.7637 14.4858 18.6508 14.4862C18.5379 14.4867 18.426 14.465 18.3214 14.4222C18.2169 14.3794 18.1219 14.3165 18.0417 14.237C17.9615 14.1575 17.8977 14.0629 17.8541 13.9588C17.8104 13.8546 17.7877 13.7429 17.7872 13.63C17.7867 13.5171 17.8085 13.4051 17.8512 13.3006C17.894 13.1961 17.9569 13.101 18.0365 13.0208L21.4375 9.60937L19.6094 9.61458Z" fill="white"/>
</svg>
