<?xml version="1.0" standalone="no"?>
<!DOCTYPE svg PUBLIC "-//W3C//DTD SVG 1.1//EN" "http://www.w3.org/Graphics/SVG/1.1/DTD/svg11.dtd" >
<svg xmlns="http://www.w3.org/2000/svg" xmlns:xlink="http://www.w3.org/1999/xlink" version="1.1">
<metadata>
Created by FontForge 20170731 at Thu May 16 07:58:00 2019
 By Aleksey,,,
Copyright (c) 2015 by Luzi Type. All rights reserved. |DCNT
</metadata>
<defs>
<font id="MessinaSans-BookItalic" horiz-adv-x="600" >
  <font-face 
    font-family="Messina Sans Book"
    font-weight="350"
    font-style="italic"
    font-stretch="normal"
    units-per-em="1000"
    panose-1="0 0 4 0 0 0 0 0 0 0"
    ascent="757"
    descent="-243"
    x-height="501"
    cap-height="700"
    bbox="-110 -330 1262 1091"
    underline-thickness="50"
    underline-position="-250"
    slope="-13"
    unicode-range="U+000D-25CA"
  />
<missing-glyph horiz-adv-x="467" 
 />
    <glyph glyph-name=".notdef" horiz-adv-x="467" 
 />
    <glyph glyph-name=".null" horiz-adv-x="0" 
 />
    <glyph glyph-name="nonmarkingreturn" horiz-adv-x="333" 
 />
    <glyph glyph-name="CR" unicode="&#xd;" horiz-adv-x="485" 
 />
    <glyph glyph-name="space" unicode=" " horiz-adv-x="267" 
 />
    <glyph glyph-name="exclam" unicode="!" horiz-adv-x="291" 
d="M219 394l-61 -196h-41l28 196l71 306h74zM163 99l-22 -99h-97l23 99h96z" />
    <glyph glyph-name="quotedbl" unicode="&#x22;" horiz-adv-x="377" 
d="M285 735l-85 -272h-51l43 272h93zM434 735l-85 -272h-51l43 272h93z" />
    <glyph glyph-name="numbersign" unicode="#" horiz-adv-x="655" 
d="M620 428h-135l-33 -145h153v-45h-162l-55 -238h-56l56 238h-134l-55 -238h-55l55 238h-116v45h126l34 145h-145v45h155l51 217h54l-51 -217h135l50 217h54l-50 -217h124v-45zM398 283l33 145h-134l-34 -145h135z" />
    <glyph glyph-name="dollar" unicode="$" horiz-adv-x="594" 
d="M528 192q0 -91 -73 -147t-173 -56h-15l-27 -116h-66l29 125q-83 21 -124 80q-40 59 -40 125q0 14 1 17h68v-13q0 -50 28 -90.5t81 -57.5l64 279q-80 33 -118 74.5t-38 109.5q0 87 60 138t164 51h18l21 90h66l-24 -100q69 -18 110 -65t46 -113h-70q-12 89 -99 117
l-62 -265q91 -36 130.5 -72.5t42.5 -110.5zM295 399l58 252h-6q-71 0 -113.5 -35t-42.5 -94q0 -42 25 -70t79 -53zM457 185q0 46 -27.5 73.5t-88.5 54.5l-60 -264h8q75 0 121.5 38t46.5 98z" />
    <glyph glyph-name="percent" unicode="%" horiz-adv-x="945" 
d="M285 713q73 0 121 -46.5t48 -120.5q0 -72 -48.5 -119.5t-120.5 -47.5q-69 0 -117 47.5t-48 119.5q0 73 47.5 120t117.5 47zM839 700l-601 -700h-76l602 700h75zM286 657q-45 0 -73.5 -30.5t-28.5 -79.5t28.5 -80.5t73.5 -31.5t74.5 31.5t29.5 80.5q0 48 -29.5 79
t-74.5 31zM701 318q73 0 121 -46.5t48 -120.5q0 -72 -48.5 -119.5t-120.5 -47.5q-69 0 -117 48t-48 119q0 73 47.5 120t117.5 47zM702 262q-45 0 -73.5 -30.5t-28.5 -79.5t28.5 -80.5t73.5 -31.5t74.5 31.5t29.5 80.5q0 48 -29.5 79t-74.5 31z" />
    <glyph glyph-name="ampersand" unicode="&#x26;" horiz-adv-x="731" 
d="M641 336l-3 -13q-34 -130 -95 -198l93 -127h-86l-55 75q-93 -84 -212 -84q-91 0 -149.5 52.5t-58.5 132.5q0 72 48 130q50 59 148 75l-16 22q-45 62 -45 127q0 75 53 123.5t134 48.5q78 0 124 -43q48 -43 48 -110q0 -70 -53.5 -125.5t-141.5 -70.5l133 -177q26 36 42 68
q15 28 23 76l3 18h66zM278 528q0 -51 35 -98l27 -35q75 9 118.5 51.5t43.5 96.5q0 45 -29.5 72.5t-75.5 27.5q-52 0 -85.5 -31t-33.5 -84zM459 125l-156 208q-79 -15 -117.5 -53.5t-38.5 -93.5q0 -59 40.5 -95.5t104.5 -36.5q96 0 167 71z" />
    <glyph glyph-name="quotesingle" unicode="'" horiz-adv-x="227" 
d="M272 735l-85 -272h-51l43 272h93z" />
    <glyph glyph-name="parenleft" unicode="(" horiz-adv-x="395" 
d="M451 811l25 -51q-106 -50 -185.5 -140.5t-119.5 -197.5t-39 -215q0 -202 130 -341l-38 -40q-79 67 -119.5 167.5t-40.5 216.5q0 183 104.5 347.5t282.5 253.5z" />
    <glyph glyph-name="parenright" unicode=")" horiz-adv-x="395" 
d="M-25 -177l-25 51q106 50 185.5 140.5t119.5 197.5t39 215q0 202 -130 341l38 40q79 -67 119.5 -167.5t40.5 -216.5q0 -183 -104.5 -347.5t-282.5 -253.5z" />
    <glyph glyph-name="asterisk" unicode="*" horiz-adv-x="415" 
d="M199 455l-45 38l81 85l-100 33l25 56l99 -38l11 111h62l-21 -111l105 36l15 -55l-111 -33l57 -84l-54 -37l-48 92z" />
    <glyph glyph-name="plus" unicode="+" 
d="M523 344l-15 -63h-168l-41 -178h-65l41 178h-169l15 63h169l41 179h65l-41 -179h168z" />
    <glyph glyph-name="comma" unicode="," horiz-adv-x="229" 
d="M157 99l-21 -92q-18 -78 -60 -114.5t-118 -45.5l-4 44q57 8 86.5 35.5t38.5 79.5h-43l22 93h99z" />
    <glyph glyph-name="hyphen" unicode="-" horiz-adv-x="381" 
d="M343 289h-287l14 61h287z" />
    <glyph glyph-name="period" unicode="." horiz-adv-x="211" 
d="M128 99l-22 -99h-97l23 99h96z" />
    <glyph glyph-name="slash" unicode="/" horiz-adv-x="447" 
d="M-41 -86l509 860h63l-509 -860h-63z" />
    <glyph glyph-name="zero" unicode="0" horiz-adv-x="574" 
d="M74 235q0 105 30 211t95 180t164 74q180 0 180 -250q1 -79 -17 -159.5t-52.5 -149.5t-92 -111.5t-128.5 -40.5q-179 0 -179 246zM472 456q0 178 -118 178q-76 0 -122 -69q-46 -67 -66 -162t-20 -172q0 -176 115 -176q75 0 122 68q49 70 68 162q21 93 21 171z" />
    <glyph glyph-name="one" unicode="1" horiz-adv-x="399" 
d="M373 688l-160 -688h-67l140 607q-74 -55 -189 -74l15 62q108 21 196 93h65z" />
    <glyph glyph-name="two" unicode="2" horiz-adv-x="604" 
d="M139 63h377l-13 -63h-471l15 63l185 150q50 41 82 64q62 47 106 86q81 73 81 148q0 58 -38.5 90.5t-100.5 32.5q-70 0 -126 -42q-55 -42 -65 -118h-72q16 107 92.5 166.5t174.5 59.5q88 0 147 -48.5t59 -130.5q0 -58 -30 -107q-28 -50 -78 -93q-47 -42 -143 -116l-22 -17
z" />
    <glyph glyph-name="three" unicode="3" horiz-adv-x="593" 
d="M53 214h73q-2 -26 -2 -29q0 -62 39 -96t107 -34q71 0 124 40t53 102q0 54 -42 87.5t-122 33.5h-20l15 67h12q96 0 154.5 41t58.5 104q0 50 -37.5 77t-104.5 27q-69 0 -119 -35t-57 -120h-73q11 108 85 164.5t175 56.5q87 0 145 -43q58 -42 58 -120q0 -66 -44 -116.5
t-121 -72.5q110 -39 110 -148q0 -90 -74 -150.5t-181 -60.5q-98 0 -155.5 53t-57.5 145q0 21 1 27z" />
    <glyph glyph-name="four" unicode="4" horiz-adv-x="594" 
d="M387 0h-68l39 171h-343l14 65l421 452h95l-106 -457h127l-13 -62h-128zM460 611l-354 -380h266z" />
    <glyph glyph-name="five" unicode="5" horiz-adv-x="577" 
d="M55 214h72q-1 -5 -1 -23q0 -63 39.5 -99.5t105.5 -36.5q82 0 131.5 54.5t49.5 131.5q0 66 -37.5 104t-103.5 38q-75 0 -137 -54h-61l106 359h346l-14 -63h-287l-63 -220q53 43 131 43q89 0 140 -55t51 -140q2 -103 -69.5 -184.5t-183.5 -79.5q-97 0 -156.5 57t-59.5 148
q0 15 1 20z" />
    <glyph glyph-name="six" unicode="6" horiz-adv-x="619" 
d="M605 515h-72q-7 58 -43 88.5t-96 30.5q-99 0 -167 -80t-77 -223q32 56 87 86.5t122 30.5q93 0 148.5 -56.5t55.5 -147.5q2 -102 -71.5 -179.5t-183.5 -75.5q-110 0 -168.5 78.5t-58.5 223.5q-2 185 91 298t227 111q88 0 143.5 -48.5t62.5 -136.5zM161 205q0 -67 42 -108
t111 -41q76 0 127.5 50.5t51.5 126.5q0 68 -40.5 108.5t-107.5 40.5q-78 0 -131 -50.5t-53 -126.5z" />
    <glyph glyph-name="seven" unicode="7" horiz-adv-x="575" 
d="M619 688l-16 -66l-393 -622h-75l392 619h-429l16 69h505z" />
    <glyph glyph-name="eight" unicode="8" horiz-adv-x="581" 
d="M400 354q107 -43 107 -154q0 -96 -73.5 -153.5t-174.5 -57.5q-91 0 -154 46t-63 128q0 74 49.5 128t132.5 71q-101 45 -101 150q0 85 68 136.5t160 51.5q86 0 145 -43.5t59 -119.5q0 -64 -43 -114t-112 -69zM325 391q63 0 110.5 37.5t47.5 96.5q0 51 -39 80t-99 29
q-62 0 -107 -33q-44 -32 -44 -92q0 -53 37.5 -85.5t93.5 -32.5zM435 195q0 59 -42 94.5t-104 35.5q-69 0 -122 -42t-53 -110q0 -57 40.5 -87.5t108.5 -30.5q73 0 122 36q50 38 50 104z" />
    <glyph glyph-name="nine" unicode="9" horiz-adv-x="629" 
d="M65 174h72q7 -56 47 -87.5t102 -31.5q97 0 161 79.5t73 223.5q-32 -56 -87 -86.5t-122 -30.5q-93 0 -148.5 56.5t-55.5 147.5q-2 102 71.5 179.5t183.5 75.5q110 0 168.5 -78.5t58.5 -223.5q0 -189 -87 -299t-221 -110q-90 0 -149.5 49.5t-66.5 135.5zM509 484
q0 67 -42 108t-111 41q-76 0 -127.5 -50.5t-51.5 -126.5q0 -68 40.5 -108.5t107.5 -40.5q78 0 131 50.5t53 126.5z" />
    <glyph glyph-name="colon" unicode=":" horiz-adv-x="221" 
d="M128 99l-22 -99h-97l23 99h96zM219 492l-22 -99h-97l23 99h96z" />
    <glyph glyph-name="semicolon" unicode=";" horiz-adv-x="264" 
d="M262 492l-22 -99h-97l23 99h96zM167 99l-21 -92q-18 -78 -60 -114.5t-118 -45.5l-4 44q57 8 86.5 35.5t38.5 79.5h-43l22 93h99z" />
    <glyph glyph-name="less" unicode="&#x3c;" 
d="M573 512l-400 -170l320 -172l-32 -53l-358 190l16 76l429 186z" />
    <glyph glyph-name="equal" unicode="=" 
d="M539 414l-14 -60h-402l14 60h402zM506 271l-14 -60h-402l14 60h402z" />
    <glyph glyph-name="greater" unicode="&#x3e;" 
d="M152 521l33 55l359 -193l-16 -76l-435 -190l-25 58l406 174z" />
    <glyph glyph-name="question" unicode="?" horiz-adv-x="533" 
d="M196 199l11 45q15 61 45.5 100t80.5 67l69 38q75 42 75 107q0 46 -34 70t-90 24q-64 0 -106 -33t-55 -96h-68q13 94 80 142t160 48q84 0 134.5 -39t50.5 -109q0 -58 -30.5 -96t-92.5 -74l-64 -36q-40 -22 -61.5 -50.5t-31.5 -72.5l-8 -35h-65zM256 99l-22 -99h-97l23 99
h96z" />
    <glyph glyph-name="at" unicode="@" horiz-adv-x="863" 
d="M848 391q1 -78 -32 -155t-88 -124t-113 -45q-44 0 -71 25.5t-27 67.5q-28 -44 -71.5 -68.5t-93.5 -24.5q-64 0 -97.5 41t-33.5 110q-2 103 68.5 190t173.5 84q104 0 125 -83l29 74h69l-109 -265q-10 -24 -10 -45q0 -26 15.5 -41t42.5 -15q42 -3 82 43t62.5 111.5
t21.5 123.5q0 101 -70 161.5t-187 60.5q-114 3 -216 -59.5t-160 -161.5t-56 -203q0 -112 66 -178.5t176 -66.5q65 0 128 24l15 -43q-71 -34 -150 -34q-58 0 -109 17.5t-92.5 52t-66 92.5t-24.5 132q0 129 67 238q68 109 180 174q113 65 244 65q136 0 224 -71t88 -204z
M549 348q0 44 -22.5 68.5t-63.5 24.5q-72 2 -126 -68t-52 -147q0 -50 22 -78t62 -28q44 -2 87.5 36t68.5 92t24 100z" />
    <glyph glyph-name="A" unicode="A" horiz-adv-x="690" 
d="M549 0l-37 198h-334l-120 -198h-79l430 700h73l137 -700h-70zM216 261h284l-67 360z" />
    <glyph glyph-name="B" unicode="B" horiz-adv-x="677" 
d="M608 221q0 -96 -78.5 -158.5t-205.5 -62.5h-279l161 700h274q79 0 124 -41.5t45 -106.5q0 -58 -41 -111q-40 -52 -111 -70q53 -15 82 -53.5t29 -96.5zM207 401h198q75 0 122.5 41.5t47.5 98.5q0 44 -33 70t-93 26h-188zM532 220q0 57 -33 88t-95 31h-212l-62 -275h207
q90 0 142.5 42.5t52.5 113.5z" />
    <glyph glyph-name="C" unicode="C" horiz-adv-x="747" 
d="M612 236h74q-21 -115 -107 -184.5t-203 -69.5q-134 -2 -212.5 93.5t-76.5 231.5q-1 76 24.5 149.5t71.5 132.5t117 94.5t154 33.5q115 0 188 -60.5t73 -165.5h-73q-1 72 -54.5 115.5t-138.5 43.5q-86 2 -154 -48.5t-101.5 -127.5t-32.5 -161q0 -112 58 -187.5t162 -75.5
q84 0 149.5 49.5t81.5 136.5z" />
    <glyph glyph-name="D" unicode="D" horiz-adv-x="706" 
d="M681 411q1 -74 -28.5 -148t-83 -133.5t-136 -95.5t-178.5 -34h-210l161 700h184q139 0 215 -82t76 -207zM606 410q0 100 -57.5 163.5t-166.5 63.5h-120l-131 -573h125q78 -2 146 28.5t112 80.5t68.5 112.5t23.5 124.5z" />
    <glyph glyph-name="E" unicode="E" horiz-adv-x="594" 
d="M206 700h429l-14 -63h-359l-58 -251h327l-15 -64h-326l-59 -258h377l-14 -64h-449z" />
    <glyph glyph-name="F" unicode="F" horiz-adv-x="573" 
d="M45 0l161 700h429l-15 -63h-358l-58 -251h332l-15 -64h-332l-73 -322h-71z" />
    <glyph glyph-name="G" unicode="G" horiz-adv-x="758" 
d="M383 350h304l-79 -350h-67l20 90q-83 -108 -214 -108q-122 0 -192 90.5t-70 224.5q-1 77 24.5 152t72.5 135.5t119.5 97.5t158.5 35q116 0 188.5 -60.5t72.5 -165.5h-73q-2 72 -55.5 115.5t-138.5 43.5q-93 2 -162.5 -51t-102.5 -132t-32 -168q0 -108 53.5 -179.5
t148.5 -71.5q90 0 160 63t87 175h-238z" />
    <glyph glyph-name="H" unicode="H" horiz-adv-x="715" 
d="M727 700l-162 -700h-71l73 321h-378l-73 -321h-71l161 700h71l-72 -316h377l73 316h72z" />
    <glyph glyph-name="I" unicode="I" horiz-adv-x="276" 
d="M49 0l162 700h72l-162 -700h-72z" />
    <glyph glyph-name="J" unicode="J" horiz-adv-x="506" 
d="M34 236h70l-11 -47q-7 -27 -7 -46q0 -45 27.5 -70.5t78.5 -25.5q112 0 144 138l118 515h72l-120 -526q-23 -97 -79 -145t-137 -48q-80 0 -127 43.5t-47 111.5q0 24 6 50z" />
    <glyph glyph-name="K" unicode="K" horiz-adv-x="641" 
d="M703 700l-332 -285l200 -415h-82l-176 367l-140 -122l-57 -245h-71l161 700h71l-80 -350l409 350h97z" />
    <glyph glyph-name="L" unicode="L" horiz-adv-x="548" 
d="M45 0l161 700h72l-147 -636h352l-15 -64h-423z" />
    <glyph glyph-name="M" unicode="M" horiz-adv-x="881" 
d="M889 700l-158 -700h-69l139 617l-384 -617h-56l-105 621l-139 -621h-68l157 700h105l100 -595l365 595h113z" />
    <glyph glyph-name="N" unicode="N" horiz-adv-x="719" 
d="M660 700h69l-160 -700h-74l-241 608l-139 -608h-68l159 700h86l232 -592z" />
    <glyph glyph-name="O" unicode="O" horiz-adv-x="783" 
d="M751 393q2 -170 -102 -292t-267 -119q-134 0 -214.5 90t-80.5 234q-2 110 43 204t131 151.5t195 55.5q134 0 214.5 -90t80.5 -234zM679 389q0 122 -59.5 191.5t-166.5 69.5q-134 0 -214 -96t-80 -244q0 -122 59.5 -191.5t166.5 -69.5q134 0 214 96t80 244z" />
    <glyph glyph-name="P" unicode="P" horiz-adv-x="611" 
d="M206 700h237q86 0 135 -51t49 -125q2 -90 -70.5 -160t-188.5 -68h-185l-68 -296h-70zM261 637l-64 -279h183q79 0 127 48t48 111q0 54 -33.5 87t-94.5 33h-166z" />
    <glyph glyph-name="Q" unicode="Q" horiz-adv-x="783" 
d="M560 27l68 -153h-73l-57 126q-53 -18 -116 -18q-134 0 -214.5 90t-80.5 234q-2 110 43 204t131 151.5t195 55.5q134 0 214.5 -90t80.5 -234q0 -118 -51 -216.5t-140 -149.5zM679 389q0 122 -59.5 191.5t-166.5 69.5q-134 0 -214 -96t-80 -244q0 -122 59.5 -191.5
t166.5 -69.5q47 0 86 12l-98 217h76l84 -190q69 41 107.5 121t38.5 180z" />
    <glyph glyph-name="R" unicode="R" horiz-adv-x="643" 
d="M45 0l161 700h242q88 0 136.5 -47.5t48.5 -123.5q0 -82 -55.5 -143t-148.5 -71l134 -315h-76l-129 303h-173l-70 -303h-70zM560 518q0 54 -33.5 86.5t-97.5 32.5h-168l-62 -271h183q76 0 127 43.5t51 108.5z" />
    <glyph glyph-name="S" unicode="S" horiz-adv-x="610" 
d="M51 223h76q-2 -18 -2 -22q0 -62 46.5 -108t132.5 -46q76 0 122 37t46 96q0 38 -19 63q-17 24 -43.5 39.5t-85.5 39.5q-63 26 -102 48q-91 52 -91 153q0 89 61.5 141.5t168.5 52.5q109 0 173.5 -54.5t69.5 -141.5h-73q-4 57 -50 94.5t-122 37.5q-73 0 -115.5 -35
t-42.5 -94q0 -37 19 -62q19 -23 48 -39.5t90 -41.5q64 -27 102 -48q88 -48 88 -145q0 -93 -74 -149.5t-180 -56.5q-59 0 -107 19.5t-77 51t-44.5 69t-15.5 76.5q0 18 1 25z" />
    <glyph glyph-name="T" unicode="T" horiz-adv-x="618" 
d="M690 700l-15 -63h-239l-147 -637h-71l147 637h-238l14 63h549z" />
    <glyph glyph-name="U" unicode="U" horiz-adv-x="702" 
d="M330 -18q-108 0 -175 59.5t-67 159.5q0 27 9 68l99 431h71l-98 -428q-9 -39 -9 -71q0 -74 45 -113t124 -39q85 0 141 46t76 134l107 471h69l-106 -467q-29 -124 -103.5 -187.5t-182.5 -63.5z" />
    <glyph glyph-name="V" unicode="V" horiz-adv-x="632" 
d="M704 700l-373 -700h-75l-130 700h72l107 -615l322 615h77z" />
    <glyph glyph-name="W" unicode="W" horiz-adv-x="958" 
d="M1020 700l-311 -700h-74l-79 597l-286 -597h-74l-65 700h69l50 -606l286 606h73l79 -606l256 606h76z" />
    <glyph glyph-name="X" unicode="X" horiz-adv-x="651" 
d="M409 351l151 -351h-80l-122 296l-272 -296h-97l337 363l-144 337h80l115 -286l255 286h91z" />
    <glyph glyph-name="Y" unicode="Y" horiz-adv-x="594" 
d="M344 270l-61 -270h-71l62 272l-148 428h73l121 -366l272 366h84z" />
    <glyph glyph-name="Z" unicode="Z" horiz-adv-x="644" 
d="M23 0l15 64l519 573h-406l15 63h494l-14 -63l-520 -573h433l-15 -64h-521z" />
    <glyph glyph-name="bracketleft" unicode="[" horiz-adv-x="335" 
d="M411 787l-14 -60h-121l-188 -818h121l-14 -60h-191l218 938h189z" />
    <glyph glyph-name="backslash" unicode="\" horiz-adv-x="446" 
d="M268 -86l-110 860h63l110 -860h-63z" />
    <glyph glyph-name="bracketright" unicode="]" horiz-adv-x="335" 
d="M-45 -152l14 60h121l188 818h-121l14 60h191l-218 -938h-189z" />
    <glyph glyph-name="asciicircum" unicode="^" horiz-adv-x="481" 
d="M400 436l-67 194l-154 -194h-79l213 264h64l90 -264h-67z" />
    <glyph glyph-name="underscore" unicode="_" horiz-adv-x="601" 
d="M5 -20h467l-15 -61h-467z" />
    <glyph glyph-name="grave" unicode="`" horiz-adv-x="159" 
d="M188 602l-70 159l65 25l57 -184h-52z" />
    <glyph glyph-name="a" unicode="a" horiz-adv-x="526" 
d="M308 510q80 0 124.5 -35t44.5 -97q0 -22 -9 -63l-72 -315h-67l20 84q-26 -43 -77 -69t-106 -26q-62 0 -102 34t-40 97q0 65 43 107t122 54l130 20q46 6 68 20t22 52q0 76 -105 76q-115 0 -147 -89h-70q22 72 80 111t141 39zM286 241l-58 -8q-65 -9 -101 -33t-36 -73
q0 -77 90 -77q64 0 122 47t75 125l10 43q-36 -15 -102 -24z" />
    <glyph glyph-name="b" unicode="b" horiz-adv-x="593" 
d="M548 298q1 -74 -31 -145.5t-93 -118.5t-135 -45q-59 0 -103.5 29t-65.5 82l-23 -100h-68l164 711h68l-64 -280q28 37 72.5 58t95.5 21q85 0 134 -61t49 -151zM479 287q0 70 -36 114.5t-100 44.5q-85 2 -140.5 -71t-53.5 -163q0 -71 36 -116.5t100 -45.5q55 -2 101 34.5
t70 91.5t23 111z" />
    <glyph glyph-name="c" unicode="c" horiz-adv-x="528" 
d="M397 175h67q-18 -85 -75.5 -135.5t-140.5 -50.5q-94 0 -146 58t-52 155q-1 73 28.5 143t92 118.5t143.5 46.5q82 0 131.5 -43t49.5 -119v-13h-67q0 56 -31.5 85.5t-84.5 29.5q-58 1 -103.5 -37t-68 -94.5t-21.5 -114.5q0 -70 34.5 -110.5t99.5 -40.5q112 0 144 122z" />
    <glyph glyph-name="d" unicode="d" horiz-adv-x="596" 
d="M620 711l-164 -711h-67l18 82q-24 -43 -69 -68t-101 -25q-89 0 -138 61.5t-49 154.5q-1 75 30.5 145t94.5 116t140 44q64 0 107 -29.5t59 -76.5l71 307h68zM450 293q0 71 -35.5 114.5t-100.5 43.5q-84 3 -140.5 -74t-55.5 -167q0 -71 35 -115t100 -44q84 -2 141 74.5
t56 167.5z" />
    <glyph glyph-name="e" unicode="e" horiz-adv-x="537" 
d="M486 234h-366q-2 -32 -2 -37q0 -66 36.5 -105t99.5 -39q98 0 137 91h67q-61 -155 -212 -155q-93 0 -144 55t-51 157q-2 126 74 218.5t192 90.5q86 0 133.5 -51t47.5 -136q0 -43 -12 -89zM131 292h295q4 17 4 40q0 55 -32.5 86.5t-89.5 31.5q-66 0 -110.5 -42.5
t-66.5 -115.5z" />
    <glyph glyph-name="f" unicode="f" horiz-adv-x="333" 
d="M62 0l102 440h-83l14 61h83l19 86q15 68 49.5 96t99.5 28h71l-14 -61h-53q-43 0 -60.5 -15.5t-26.5 -56.5l-17 -77h108l-14 -61h-108l-102 -440h-68z" />
    <glyph glyph-name="g" unicode="g" horiz-adv-x="570" 
d="M555 501l-112 -486q-49 -218 -247 -218q-88 0 -141.5 44.5t-54.5 128.5h65q7 -112 132 -112q145 0 179 157l18 79q-60 -74 -150 -74q-86 0 -139.5 56.5t-53.5 153.5q-2 111 69 196.5t182 83.5q59 0 102.5 -25.5t61.5 -74.5l21 91h68zM434 299q0 71 -36 112.5t-96 41.5
q-76 0 -130 -62.5t-54 -153.5q0 -74 38 -116t99 -42q75 0 127 65t52 155z" />
    <glyph glyph-name="h" unicode="h" horiz-adv-x="570" 
d="M522 377q0 -15 -5 -40l-77 -337h-68l74 324q5 25 5 38q0 40 -24 63.5t-71 23.5q-70 0 -124.5 -54t-75.5 -147l-57 -248h-68l162 711h68l-69 -302q72 101 180 101q70 0 110 -37.5t40 -95.5z" />
    <glyph glyph-name="i" unicode="i" horiz-adv-x="249" 
d="M168 621l20 89h77l-20 -89h-77zM33 0l116 501h68l-116 -501h-68z" />
    <glyph glyph-name="j" unicode="j" horiz-adv-x="246" 
d="M173 621l20 89h77l-20 -89h-77zM154 501h68l-132 -574q-27 -119 -148 -119h-42l14 60h28q68 0 85 76z" />
    <glyph glyph-name="k" unicode="k" horiz-adv-x="523" 
d="M553 501l-254 -215l149 -286h-72l-127 243l-119 -101l-33 -142h-68l164 711h68l-110 -475l307 265h95z" />
    <glyph glyph-name="l" unicode="l" horiz-adv-x="232" 
d="M29 0l164 711h68l-164 -711h-68z" />
    <glyph glyph-name="m" unicode="m" horiz-adv-x="844" 
d="M798 388q0 -15 -5 -37l-79 -351h-68l74 327q5 25 5 37q0 40 -21.5 63t-64.5 23q-61 0 -106.5 -48t-64.5 -133l-61 -269h-68l73 327q5 25 5 38q0 39 -21.5 62t-64.5 23q-60 0 -105.5 -48.5t-64.5 -131.5l-62 -270h-68l114 501h66l-18 -80q54 89 156 89q57 0 93 -28.5
t38 -76.5q22 49 68.5 77t107.5 28q68 0 105 -33.5t37 -88.5z" />
    <glyph glyph-name="n" unicode="n" horiz-adv-x="570" 
d="M522 377q0 -15 -5 -40l-77 -337h-68l73 320q6 27 6 42q0 40 -24 63.5t-71 23.5q-70 0 -124.5 -54t-75.5 -147l-57 -248h-68l114 501h69l-21 -87q73 96 179 96q70 0 110 -37.5t40 -95.5z" />
    <glyph glyph-name="o" unicode="o" horiz-adv-x="565" 
d="M53 212q-2 121 73.5 210.5t189.5 87.5q94 0 147.5 -60t53.5 -163q2 -121 -73.5 -210.5t-189.5 -87.5q-94 0 -147.5 60t-53.5 163zM448 280q0 77 -37 122.5t-102 45.5q-79 2 -134 -68.5t-53 -162.5q0 -76 37 -121t102 -45q81 0 134 67.5t53 161.5z" />
    <glyph glyph-name="p" unicode="p" horiz-adv-x="592" 
d="M548 302q2 -73 -31 -144t-94.5 -118t-134.5 -45q-58 0 -102 29.5t-63 82.5l-69 -299h-68l159 693h70l-18 -74q64 83 171 83q84 0 132 -60t48 -148zM152 219q0 -72 35.5 -117t100.5 -45q81 -3 137 72.5t55 164.5q0 69 -33.5 111t-97.5 42q-86 2 -142.5 -69.5t-54.5 -158.5
z" />
    <glyph glyph-name="q" unicode="q" horiz-adv-x="589" 
d="M570 501l-161 -693h-69l60 258q-54 -70 -154 -70q-89 0 -143.5 65t-54.5 157q-2 112 75.5 203.5t189.5 88.5q63 0 106.5 -28t60.5 -72l21 91h69zM450 284q0 71 -37 118q-37 48 -106 48q-79 2 -136 -69.5t-55 -156.5q0 -73 37 -118.5t107 -45.5q85 0 137.5 68t52.5 156z
" />
    <glyph glyph-name="r" unicode="r" horiz-adv-x="360" 
d="M159 265l-61 -265h-68l115 501h68l-21 -89q52 95 177 95h23l-15 -65h-25q-73 0 -123 -45.5t-70 -131.5z" />
    <glyph glyph-name="s" unicode="s" horiz-adv-x="486" 
d="M421 145q0 -72 -58.5 -114t-139.5 -42q-80 0 -137.5 44.5t-60.5 120.5h71q5 -49 41.5 -76.5t90.5 -27.5q52 0 87.5 23t35.5 62q0 30 -24.5 48t-80.5 35q-49 15 -83 30q-77 38 -77 117q0 69 53 107t133 38q81 0 133 -39q53 -39 55 -111h-69q-5 42 -38 66t-85 24
q-50 0 -81 -22t-31 -60q3 -37 26.5 -52.5t85.5 -35.5q48 -14 80 -29q73 -31 73 -106z" />
    <glyph glyph-name="t" unicode="t" horiz-adv-x="356" 
d="M261 0h-64q-52 0 -80.5 22t-28.5 64q0 13 5 38l72 316h-99l14 61h98l33 141l73 19l-37 -160h118l-13 -61h-119l-69 -301q-5 -25 -5 -36q0 -41 52 -41h64z" />
    <glyph glyph-name="u" unicode="u" horiz-adv-x="563" 
d="M543 501l-115 -501h-68l23 94q-63 -100 -177 -100q-69 0 -107 38.5t-38 98.5q0 27 6 51l73 319h68l-73 -318q-5 -25 -5 -39q0 -41 22.5 -65.5t66.5 -24.5q67 0 121.5 51.5t75.5 140.5l59 255h68z" />
    <glyph glyph-name="v" unicode="v" horiz-adv-x="522" 
d="M558 501l-304 -501h-73l-91 501h66l76 -430l253 430h73z" />
    <glyph glyph-name="w" unicode="w" horiz-adv-x="814" 
d="M845 501l-274 -501h-69l-53 397l-219 -397h-70l-65 501h69l49 -413l220 413h71l49 -413l221 413h71z" />
    <glyph glyph-name="x" unicode="x" horiz-adv-x="546" 
d="M320 252l136 -252h-74l-109 200l-192 -200h-92l250 255l-134 246h78l103 -199l187 199h88z" />
    <glyph glyph-name="y" unicode="y" horiz-adv-x="499" 
d="M466 501h74l-320 -553q-65 -112 -192 -112h-36l14 60h21q51 0 82.5 19.5t61.5 69.5l16 26l-102 490h69l78 -415z" />
    <glyph glyph-name="z" unicode="z" horiz-adv-x="503" 
d="M13 0l14 62l374 378h-295l15 61h381l-14 -61l-375 -378h309l-14 -62h-395z" />
    <glyph glyph-name="braceleft" unicode="{" horiz-adv-x="340" 
d="M209 -193h-63q-42 0 -66 22.5t-24 67.5q0 20 7 49l51 221q7 29 7 46q0 30 -19 45.5t-67 27.5l12 53q66 11 92.5 34t41.5 84l58 251q14 59 45 80t87 21h70l-12 -51h-30q-44 0 -64 -12.5t-28 -46.5l-63 -271q-14 -55 -50.5 -85.5t-85.5 -36.5q34 -10 58 -34.5t24 -58.5
q0 -13 -3 -28l-56 -244q-6 -24 -6 -40q0 -26 14 -34.5t51 -8.5h32z" />
    <glyph glyph-name="bar" unicode="|" horiz-adv-x="243" 
d="M286 812l-214 -924h-69l214 924h69z" />
    <glyph glyph-name="braceright" unicode="}" horiz-adv-x="340" 
d="M157 808h63q42 0 66 -22.5t24 -67.5q0 -20 -7 -49l-51 -221q-7 -29 -7 -46q0 -30 19 -45.5t67 -27.5l-12 -53q-66 -11 -92.5 -34t-41.5 -84l-58 -251q-14 -59 -45 -80t-87 -21h-70l12 51h30q44 0 64 12.5t28 46.5l63 271q14 55 50.5 85.5t85.5 36.5q-34 10 -58 34.5
t-24 58.5q0 13 3 28l56 244q6 24 6 40q0 26 -14 34.5t-51 8.5h-32z" />
    <glyph glyph-name="asciitilde" unicode="~" 
d="M412 260q-37 0 -104 40q-50 32 -76 32q-46 0 -60 -65h-57q5 61 36 98.5t74 37.5q36 0 100 -39q53 -34 83 -34q52 0 55 80h57q-1 -71 -30.5 -110.5t-77.5 -39.5z" />
    <glyph glyph-name="exclamdown" unicode="&#xa1;" horiz-adv-x="291" 
d="M133 383l22 99h97l-23 -99h-96zM77 88l61 196h41l-28 -196l-71 -306h-74z" />
    <glyph glyph-name="cent" unicode="&#xa2;" horiz-adv-x="525" 
d="M481 333h-65q0 39 -20.5 68.5t-54.5 41.5l-90 -393q60 0 98 34.5t43 92.5h68q-12 -87 -71.5 -137.5t-151.5 -50.5l-25 -107h-66l28 120q-59 23 -91.5 82t-32.5 139q-1 114 64.5 201t176.5 86l21 90h66l-23 -97q60 -16 93 -60t33 -110zM189 67l89 384q-67 -6 -114.5 -66.5
t-47.5 -158.5q0 -118 73 -159z" />
    <glyph glyph-name="sterling" unicode="&#xa3;" horiz-adv-x="619" 
d="M565 642h-69q-79 0 -100 -90l-32 -132h145l-14 -61h-145l-10 -44q-20 -83 -33 -120q-11 -31 -41 -89q68 -56 122 -56q86 0 111 98h66q-20 -79 -68.5 -119t-113.5 -40q-42 0 -70.5 14t-77.5 53q-56 -67 -116 -67q-44 0 -70 27.5t-26 67.5q0 43 27.5 74t73.5 31
q50 0 96 -40q26 63 45 146l15 64h-117l13 61h117l34 141q33 139 167 139h85zM199 98q-32 35 -72 35q-23 0 -36.5 -12t-13.5 -33q0 -19 13 -31t34 -12q49 0 75 53z" />
    <glyph glyph-name="currency" unicode="&#xa4;" horiz-adv-x="590" 
d="M431 132l59 -103l-56 -36l-60 106q-45 -17 -89 -17q-60 0 -109 33l-126 -122l-47 44l129 124q-31 46 -31 101q0 106 80 169l-59 105l57 35l60 -106q41 16 89 16q62 0 109 -34l128 124l43 -40l-130 -127q33 -50 33 -105q0 -105 -80 -167zM290 147q67 0 111 41
q43 42 43 106q0 54 -34.5 88t-89.5 34q-67 0 -109.5 -40.5t-42.5 -105.5q0 -54 34.5 -88.5t87.5 -34.5z" />
    <glyph glyph-name="yen" unicode="&#xa5;" horiz-adv-x="636" 
d="M381 355l-6 -28h165l-14 -61h-165l-19 -79h165l-14 -61h-164l-28 -126h-71l28 126h-165l13 61h165l19 79h-164l14 61h163l6 25l-120 348h71l93 -288l219 288h81z" />
    <glyph glyph-name="brokenbar" unicode="&#xa6;" horiz-adv-x="243" 
d="M127 423l90 389h69l-90 -389h-69zM162 277l-90 -389h-69l90 389h69z" />
    <glyph glyph-name="section" unicode="&#xa7;" horiz-adv-x="536" 
d="M517 570h-65q-1 43 -34 67t-86 24q-54 0 -87 -23.5t-33 -64.5q3 -41 28.5 -56t92.5 -28q80 -16 119.5 -43t39.5 -82q0 -47 -31 -82t-83 -46q62 -27 62 -95q0 -72 -56.5 -115.5t-140.5 -43.5q-86 0 -140.5 43t-59.5 119h70q1 -51 36 -79.5t90 -28.5q58 0 94.5 25t36.5 67
q-3 36 -24.5 50t-83.5 32q-2 0 -3.5 0.5t-4 1t-4.5 1.5q-81 21 -116 47t-38 85q0 95 112 125q-64 30 -64 99q0 68 53 107t134 39q83 0 134 -40.5t52 -104.5zM423 347q0 48 -50 68q-49 21 -99 21q-49 0 -80 -23t-31 -60q0 -43 42 -66q42 -21 98 -21t88 22.5t32 58.5z" />
    <glyph glyph-name="dieresis" unicode="&#xa8;" horiz-adv-x="261" 
d="M182 689l-20 -87h-81l21 87h80zM362 689l-20 -87h-81l21 87h80z" />
    <glyph glyph-name="copyright" unicode="&#xa9;" horiz-adv-x="860" 
d="M821 350q2 -159 -103 -263t-260 -102q-155 -2 -260.5 102.5t-102.5 262.5q-3 158 102.5 262.5t260.5 102.5q155 2 260 -102t103 -263zM767 350q0 140 -87.5 228t-221.5 88t-221.5 -88t-87.5 -228t87.5 -228t221.5 -88t221.5 88t87.5 228zM574 298h59q0 -76 -50 -120
q-49 -43 -123 -43q-84 0 -135.5 59.5t-51.5 158.5t52.5 158t135.5 59q73 0 120.5 -42.5t47.5 -113.5h-59q-1 46 -31 73.5t-77 27.5q-58 0 -93.5 -43t-35.5 -117t36.5 -119.5t93.5 -45.5q48 0 79.5 29.5t31.5 78.5z" />
    <glyph glyph-name="ordfeminine" unicode="&#xaa;" horiz-adv-x="439" 
d="M437 557l-58 -253h-62l13 58q-20 -32 -55 -49.5t-73 -17.5q-50 0 -81.5 27.5t-31.5 79.5q0 101 123 120l104 16q64 10 64 55q0 51 -77 51q-85 0 -106 -67h-66q37 123 178 123q64 0 98 -27.5t34 -77.5q0 -26 -4 -38zM303 489l-56 -7q-97 -13 -97 -77q0 -53 63 -53
q49 0 87.5 32.5t52.5 88.5l7 29q-34 -9 -57 -13z" />
    <glyph glyph-name="guillemotleft" unicode="&#xab;" horiz-adv-x="562" 
d="M143 285l104 -159l-54 -36l-131 203l215 194l40 -51zM357 285l104 -159l-54 -36l-131 203l215 194l40 -51z" />
    <glyph glyph-name="logicalnot" unicode="&#xac;" 
d="M140 281l15 63h334l-56 -241h-65l41 178h-269z" />
    <glyph glyph-name="registered" unicode="&#xae;" horiz-adv-x="555" 
d="M560 487q0 -98 -65.5 -163t-161.5 -65q-97 0 -162.5 65t-65.5 163q0 99 65.5 164.5t162.5 65.5t162 -65.5t65 -164.5zM519 487q0 84 -53 137.5t-133 53.5q-79 0 -133 -53.5t-54 -137.5q0 -82 54 -135.5t133 -53.5t132.5 53t53.5 136zM383 460l53 -83h-48l-49 77h-43v-77
h-42v231h91q40 0 62 -22.5t22 -56.5q0 -51 -46 -69zM296 568v-75h51q18 0 29 10t11 26q0 39 -40 39h-51z" />
    <glyph glyph-name="overscore" unicode="&#xaf;" horiz-adv-x="299" 
d="M93 655h299l-12 -53h-299z" />
    <glyph glyph-name="degree" unicode="&#xb0;" horiz-adv-x="458" 
d="M305 756q73 0 121 -46.5t48 -120.5q0 -72 -48.5 -119.5t-120.5 -47.5q-69 0 -117 48t-48 119q0 73 47.5 120t117.5 47zM306 700q-45 0 -73.5 -30.5t-28.5 -79.5t28.5 -80.5t73.5 -31.5t74.5 31.5t29.5 80.5q0 48 -29.5 79t-74.5 31z" />
    <glyph glyph-name="plusminus" unicode="&#xb1;" 
d="M561 504l-15 -63h-168l-41 -178h-65l41 178h-169l15 63h169l41 179h65l-41 -179h168zM483 173l-15 -63h-402l15 63h402z" />
    <glyph glyph-name="uni00B2" unicode="&#xb2;" horiz-adv-x="357" 
d="M147 329h209l-14 -58h-295l13 54l111 91q19 16 50 40q57 44 77.5 69t20.5 54q0 28 -17.5 44t-49.5 16q-39 0 -65.5 -22.5t-32.5 -61.5h-64q11 71 58 108q49 37 111 37q57 0 91.5 -31.5t34.5 -82.5q0 -33 -17 -62q-15 -26 -39.5 -49t-79.5 -66l-33 -26z" />
    <glyph glyph-name="uni00B3" unicode="&#xb3;" horiz-adv-x="358" 
d="M66 406h65l-1 -10q0 -72 73 -72q40 0 64.5 19t24.5 51q0 61 -81 61h-26l14 57h18q49 0 79 21.5t30 55.5q0 50 -67 50q-84 0 -94 -82h-64q6 70 53 106q47 37 108 37q57 0 93.5 -28.5t36.5 -75.5q0 -41 -27.5 -72t-70.5 -41q30 -7 47.5 -29.5t17.5 -57.5q0 -56 -46.5 -94
t-112.5 -38q-61 0 -98.5 32t-37.5 86q0 2 2 24z" />
    <glyph glyph-name="acute" unicode="&#xb4;" horiz-adv-x="174" 
d="M280 711l-130 -109h-69l149 162z" />
    <glyph glyph-name="paragraph" unicode="&#xb6;" horiz-adv-x="670" 
d="M550 701l-191 -832h-65l98 427h-62q-97 0 -152 53.5t-55 139.5q0 92 58.5 152t165.5 60h203zM681 701l-191 -831h-65l191 831h65zM193 486q0 -59 39.5 -94t109.5 -35h65l65 281h-123q-72 0 -114 -44t-42 -108z" />
    <glyph glyph-name="middot" unicode="&#xb7;" horiz-adv-x="211" 
d="M195 389l-22 -99h-97l23 99h96z" />
    <glyph glyph-name="cedilla" unicode="&#xb8;" horiz-adv-x="201" 
d="M115 -114q0 -39 -33 -66.5t-82 -27.5q-60 0 -97 39l33 37q32 -32 70 -32q26 0 42.5 13t16.5 32q0 42 -87 43l19 77h44l-10 -51q84 -5 84 -64z" />
    <glyph glyph-name="uni00B9" unicode="&#xb9;" horiz-adv-x="362" 
d="M345 329l-13 -58h-292l13 58h113l65 279q-51 -29 -107 -35l14 60q62 10 119 55h56l-84 -359h116z" />
    <glyph glyph-name="ordmasculine" unicode="&#xba;" horiz-adv-x="463" 
d="M473 532q0 -101 -59.5 -169t-149.5 -68q-70 0 -112.5 44.5t-42.5 124.5q0 100 59.5 168t149.5 68q71 0 113 -44t42 -124zM173 469q0 -56 27 -86.5t72 -30.5q59 0 98 50t39 123q0 58 -26 87.5t-71 29.5q-59 0 -99 -50.5t-40 -122.5z" />
    <glyph glyph-name="guillemotright" unicode="&#xbb;" horiz-adv-x="561" 
d="M222 291l-104 159l54 36l131 -203l-215 -194l-40 51zM436 291l-104 159l54 36l131 -203l-215 -194l-40 51z" />
    <glyph glyph-name="onequarter" unicode="&#xbc;" horiz-adv-x="1062" 
d="M919 700l-582 -700h-81l583 700h80zM412 328l-13 -58h-292l13 58h113l65 279q-51 -29 -107 -35l14 60q62 10 119 55h56l-84 -359h116zM943 142l-12 -59h-67l-19 -84h-64l20 85h-202l12 52l246 280h84l-64 -274h66zM861 341l-177 -199h131z" />
    <glyph glyph-name="onehalf" unicode="&#xbd;" horiz-adv-x="1094" 
d="M748 57h209l-14 -58h-295l13 54l111 91q19 16 50 40q57 44 77.5 69t20.5 54q0 28 -17.5 44t-49.5 16q-39 0 -65.5 -22.5t-32.5 -61.5h-64q11 71 58 108q49 37 111 37q57 0 91.5 -31.5t34.5 -82.5q0 -33 -17 -62q-15 -26 -39.5 -49t-79.5 -66l-33 -26zM919 700l-582 -700
h-81l583 700h80zM412 328l-13 -58h-292l13 58h113l65 279q-51 -29 -107 -35l14 60q62 10 119 55h56l-84 -359h116z" />
    <glyph glyph-name="threequarters" unicode="&#xbe;" horiz-adv-x="1060" 
d="M140 406h65l-1 -10q0 -72 73 -72q40 0 64.5 19t24.5 51q0 61 -81 61h-26l14 57h18q49 0 79 21.5t30 55.5q0 50 -67 50q-84 0 -94 -82h-64q6 70 53 106q47 37 108 37q57 0 93.5 -28.5t36.5 -75.5q0 -41 -27.5 -72t-70.5 -41q30 -7 47.5 -29.5t17.5 -57.5q0 -56 -46.5 -94
t-112.5 -38q-61 0 -98.5 32t-37.5 86q0 2 2 24zM924 700l-582 -700h-81l583 700h80zM941 142l-12 -59h-67l-19 -84h-64l20 85h-202l12 52l246 280h84l-64 -274h66zM859 341l-177 -199h131z" />
    <glyph glyph-name="questiondown" unicode="&#xbf;" horiz-adv-x="533" 
d="M288 409l22 99h97l-23 -99h-96zM348 309l-11 -45q-15 -61 -45.5 -100t-80.5 -67l-69 -38q-75 -42 -75 -107q0 -46 34 -70t90 -24q64 0 106 33t55 96h68q-13 -94 -81 -142q-66 -48 -159 -48q-84 0 -134.5 39t-50.5 109q0 58 30.5 96t92.5 74l64 36q40 22 61.5 50.5
t31.5 72.5l8 35h65z" />
    <glyph glyph-name="Agrave" unicode="&#xc0;" horiz-adv-x="690" 
d="M549 0l-37 198h-334l-120 -198h-79l430 700h73l137 -700h-70zM216 261h284l-67 360zM419 776l-70 160l68 21l54 -181h-52z" />
    <glyph glyph-name="Aacute" unicode="&#xc1;" horiz-adv-x="690" 
d="M549 0l-37 198h-334l-120 -198h-79l430 700h73l137 -700h-70zM216 261h284l-67 360zM631 885l-131 -109h-69l151 163z" />
    <glyph glyph-name="Acircumflex" unicode="&#xc2;" horiz-adv-x="690" 
d="M549 0l-37 198h-334l-120 -198h-79l430 700h73l137 -700h-70zM216 261h284l-67 360zM534 776l-52 92l-94 -92h-76l156 152h46l85 -152h-65z" />
    <glyph glyph-name="Atilde" unicode="&#xc3;" horiz-adv-x="690" 
d="M538 776q-25 0 -73 35q-33 27 -49 27q-32 0 -43 -57h-48q5 55 29 87t58 32q25 0 72 -35q34 -27 51 -27q35 0 42 60h43q0 -56 -23.5 -89t-58.5 -33zM549 0l-37 198h-334l-120 -198h-79l430 700h73l137 -700h-70zM216 261h284l-67 360z" />
    <glyph glyph-name="Adieresis" unicode="&#xc4;" horiz-adv-x="690" 
d="M429 863l-21 -87h-80l20 87h81zM609 863l-20 -87h-81l20 87h81zM549 0l-37 198h-334l-120 -198h-79l430 700h73l137 -700h-70zM216 261h284l-67 360z" />
    <glyph glyph-name="Aring" unicode="&#xc5;" horiz-adv-x="690" 
d="M384 859q0 41 25.5 66t65.5 25t66.5 -25t26.5 -66q0 -40 -27 -66.5t-66 -26.5t-65 26.5t-26 66.5zM525 859q0 22 -14.5 36.5t-35.5 14.5t-35 -14.5t-14 -36.5t14 -37.5t35 -15.5t35.5 15.5t14.5 37.5zM549 0l-37 198h-334l-120 -198h-79l430 700h73l137 -700h-70z
M216 261h284l-67 360z" />
    <glyph glyph-name="AE" unicode="&#xc6;" horiz-adv-x="973" 
d="M1000 637h-359l-58 -251h327l-15 -64h-326l-59 -258h377l-14 -64h-449l47 206h-271l-145 -206h-76l493 700h542zM486 270l88 381h-63l-267 -381h242z" />
    <glyph glyph-name="Ccedilla" unicode="&#xc7;" horiz-adv-x="747" 
d="M612 236h74q-21 -115 -107 -184.5t-203 -69.5q-16 0 -21 1l-6 -33q84 -5 84 -64q0 -39 -33 -66.5t-82 -27.5q-60 0 -97 39l33 37q32 -32 70 -32q26 0 42.5 13t16.5 32q0 42 -87 43l16 64q-107 22 -166 111t-59 208q-1 76 24.5 149.5t71.5 132.5t117 94.5t154 33.5
q115 0 188 -60.5t73 -165.5h-73q-1 72 -54.5 115.5t-138.5 43.5q-86 2 -154 -48.5t-101.5 -127.5t-32.5 -161q0 -112 58 -187.5t162 -75.5q84 0 149.5 49.5t81.5 136.5z" />
    <glyph glyph-name="Egrave" unicode="&#xc8;" horiz-adv-x="594" 
d="M206 700h429l-14 -63h-359l-58 -251h327l-15 -64h-326l-59 -258h377l-14 -64h-449zM408 776l-70 160l68 21l54 -181h-52z" />
    <glyph glyph-name="Eacute" unicode="&#xc9;" horiz-adv-x="594" 
d="M206 700h429l-14 -63h-359l-58 -251h327l-15 -64h-326l-59 -258h377l-14 -64h-449zM572 885l-131 -109h-69l151 163z" />
    <glyph glyph-name="Ecircumflex" unicode="&#xca;" horiz-adv-x="594" 
d="M206 700h429l-14 -63h-359l-58 -251h327l-15 -64h-326l-59 -258h377l-14 -64h-449zM514 776l-52 92l-94 -92h-76l156 152h46l85 -152h-65z" />
    <glyph glyph-name="Edieresis" unicode="&#xcb;" horiz-adv-x="594" 
d="M206 700h429l-14 -63h-359l-58 -251h327l-15 -64h-326l-59 -258h377l-14 -64h-449zM406 863l-21 -87h-80l20 87h81zM586 863l-20 -87h-81l20 87h81z" />
    <glyph glyph-name="Igrave" unicode="&#xcc;" horiz-adv-x="276" 
d="M49 0l162 700h72l-162 -700h-72zM224 776l-70 160l68 21l54 -181h-52z" />
    <glyph glyph-name="Iacute" unicode="&#xcd;" horiz-adv-x="276" 
d="M49 0l162 700h72l-162 -700h-72zM432 885l-131 -109h-69l151 163z" />
    <glyph glyph-name="Icircumflex" unicode="&#xce;" horiz-adv-x="276" 
d="M49 0l162 700h72l-162 -700h-72zM338 776l-52 92l-94 -92h-76l156 152h46l85 -152h-65z" />
    <glyph glyph-name="Idieresis" unicode="&#xcf;" horiz-adv-x="276" 
d="M49 0l162 700h72l-162 -700h-72zM239 863l-21 -87h-80l20 87h81zM419 863l-20 -87h-81l20 87h81z" />
    <glyph glyph-name="Eth" unicode="&#xd0;" horiz-adv-x="720" 
d="M695 411q1 -74 -28.5 -148t-83 -133.5t-136 -95.5t-178.5 -34h-210l76 329h-100l12 54h100l73 317h184q139 0 215 -82t76 -207zM620 410q0 100 -57.5 163.5t-166.5 63.5h-120l-58 -254h182l-12 -54h-182l-61 -265h125q78 -2 146 28.5t112 80.5t68.5 112.5t23.5 124.5z
" />
    <glyph glyph-name="Ntilde" unicode="&#xd1;" horiz-adv-x="719" 
d="M660 700h69l-160 -700h-74l-241 608l-139 -608h-68l159 700h86l232 -592zM560 776q-25 0 -73 35q-33 27 -49 27q-33 0 -43 -57h-48q5 55 29 87t58 32q25 0 72 -35q34 -27 51 -27q35 0 42 60h43q0 -56 -23.5 -89t-58.5 -33z" />
    <glyph glyph-name="Ograve" unicode="&#xd2;" horiz-adv-x="783" 
d="M751 393q2 -170 -102 -292t-267 -119q-134 0 -214.5 90t-80.5 234q-2 110 43 204t131 151.5t195 55.5q134 0 214.5 -90t80.5 -234zM679 389q0 122 -59.5 191.5t-166.5 69.5q-134 0 -214 -96t-80 -244q0 -122 59.5 -191.5t166.5 -69.5q134 0 214 96t80 244zM456 776
l-70 160l68 21l54 -181h-52z" />
    <glyph glyph-name="Oacute" unicode="&#xd3;" horiz-adv-x="783" 
d="M751 393q2 -170 -102 -292t-267 -119q-134 0 -214.5 90t-80.5 234q-2 110 43 204t131 151.5t195 55.5q134 0 214.5 -90t80.5 -234zM679 389q0 122 -59.5 191.5t-166.5 69.5q-134 0 -214 -96t-80 -244q0 -122 59.5 -191.5t166.5 -69.5q134 0 214 96t80 244zM647 885
l-131 -109h-69l151 163z" />
    <glyph glyph-name="Ocircumflex" unicode="&#xd4;" horiz-adv-x="783" 
d="M751 393q2 -170 -102 -292t-267 -119q-134 0 -214.5 90t-80.5 234q-2 110 43 204t131 151.5t195 55.5q134 0 214.5 -90t80.5 -234zM679 389q0 122 -59.5 191.5t-166.5 69.5q-134 0 -214 -96t-80 -244q0 -122 59.5 -191.5t166.5 -69.5q134 0 214 96t80 244zM574 776
l-52 92l-94 -92h-76l156 152h46l85 -152h-65z" />
    <glyph glyph-name="Otilde" unicode="&#xd5;" horiz-adv-x="783" 
d="M751 393q2 -170 -102 -292t-267 -119q-134 0 -214.5 90t-80.5 234q-2 110 43 204t131 151.5t195 55.5q134 0 214.5 -90t80.5 -234zM679 389q0 122 -59.5 191.5t-166.5 69.5q-134 0 -214 -96t-80 -244q0 -122 59.5 -191.5t166.5 -69.5q134 0 214 96t80 244zM553 776
q-25 0 -73 35q-33 27 -49 27q-33 0 -43 -57h-48q5 55 29 87t58 32q25 0 72 -35q34 -27 51 -27q34 0 42 60h43q0 -56 -23.5 -89t-58.5 -33z" />
    <glyph glyph-name="Odieresis" unicode="&#xd6;" horiz-adv-x="783" 
d="M751 393q2 -170 -102 -292t-267 -119q-134 0 -214.5 90t-80.5 234q-2 110 43 204t131 151.5t195 55.5q134 0 214.5 -90t80.5 -234zM679 389q0 122 -59.5 191.5t-166.5 69.5q-134 0 -214 -96t-80 -244q0 -122 59.5 -191.5t166.5 -69.5q134 0 214 96t80 244zM475 863
l-21 -87h-80l20 87h81zM655 863l-20 -87h-81l20 87h81z" />
    <glyph glyph-name="multiply" unicode="&#xd7;" 
d="M515 439l-157 -128l97 -126l-51 -41l-97 126l-157 -128l-36 45l157 128l-97 126l51 41l97 -126l157 128z" />
    <glyph glyph-name="Oslash" unicode="&#xd8;" horiz-adv-x="783" 
d="M751 393q2 -170 -102 -292t-267 -119q-100 0 -168 49l-53 -73l-44 33l55 75q-85 91 -85 240q-2 110 43 204t131 151.5t195 55.5q87 0 157 -41l49 67l44 -33l-49 -68q94 -89 94 -249zM214 125l359 495q-53 30 -120 30q-134 0 -214 -96t-80 -244q0 -117 55 -185zM679 389
q0 126 -64 196l-361 -498q53 -38 131 -38q134 0 214 96t80 244z" />
    <glyph glyph-name="Ugrave" unicode="&#xd9;" horiz-adv-x="702" 
d="M330 -18q-108 0 -175 59.5t-67 159.5q0 27 9 68l99 431h71l-98 -428q-9 -39 -9 -71q0 -74 45 -113t124 -39q85 0 141 46t76 134l107 471h69l-106 -467q-29 -124 -103.5 -187.5t-182.5 -63.5zM430 776l-70 160l68 21l54 -181h-52z" />
    <glyph glyph-name="Uacute" unicode="&#xda;" horiz-adv-x="702" 
d="M330 -18q-108 0 -175 59.5t-67 159.5q0 27 9 68l99 431h71l-98 -428q-9 -39 -9 -71q0 -74 45 -113t124 -39q85 0 141 46t76 134l107 471h69l-106 -467q-29 -124 -103.5 -187.5t-182.5 -63.5zM607 885l-131 -109h-69l151 163z" />
    <glyph glyph-name="Ucircumflex" unicode="&#xdb;" horiz-adv-x="702" 
d="M330 -18q-108 0 -175 59.5t-67 159.5q0 27 9 68l99 431h71l-98 -428q-9 -39 -9 -71q0 -74 45 -113t124 -39q85 0 141 46t76 134l107 471h69l-106 -467q-29 -124 -103.5 -187.5t-182.5 -63.5zM535 776l-52 92l-94 -92h-76l156 152h46l85 -152h-65z" />
    <glyph glyph-name="Udieresis" unicode="&#xdc;" horiz-adv-x="702" 
d="M330 -18q-108 0 -175 59.5t-67 159.5q0 27 9 68l99 431h71l-98 -428q-9 -39 -9 -71q0 -74 45 -113t124 -39q85 0 141 46t76 134l107 471h69l-106 -467q-29 -124 -103.5 -187.5t-182.5 -63.5zM437 863l-21 -87h-80l20 87h81zM617 863l-20 -87h-81l20 87h81z" />
    <glyph glyph-name="Yacute" unicode="&#xdd;" horiz-adv-x="594" 
d="M344 270l-61 -270h-71l62 272l-148 428h73l121 -366l272 366h84zM544 885l-131 -109h-69l151 163z" />
    <glyph glyph-name="Thorn" unicode="&#xde;" 
d="M44 0l164 711h70l-24 -105h156q87 0 135.5 -50.5t48.5 -124.5q0 -91 -70.5 -160t-187.5 -69h-176l-46 -202h-70zM522 424q0 53 -33.5 86.5t-93.5 33.5h-156l-65 -279h174q79 0 126.5 48t47.5 111z" />
    <glyph glyph-name="germandbls" unicode="&#xdf;" horiz-adv-x="608" 
d="M544 198q0 -80 -64.5 -139t-170.5 -59h-68l13 57h54q73 0 120 40t47 99q0 53 -42 89t-116 42l14 59q82 16 127.5 55.5t45.5 98.5q0 51 -33.5 80t-93.5 29q-59 0 -101.5 -34.5t-57.5 -98.5l-121 -516h-68l124 534q20 85 81 131.5t146 46.5q90 0 141.5 -43.5t51.5 -120.5
q0 -76 -50 -126q-49 -48 -115 -66q64 -14 100 -57t36 -101z" />
    <glyph glyph-name="agrave" unicode="&#xe0;" horiz-adv-x="526" 
d="M308 510q80 0 124.5 -35t44.5 -97q0 -22 -9 -63l-72 -315h-67l20 84q-26 -43 -77 -69t-106 -26q-62 0 -102 34t-40 97q0 65 43 107t122 54l130 20q46 6 68 20t22 52q0 76 -105 76q-115 0 -147 -89h-70q22 72 80 111t141 39zM286 241l-58 -8q-65 -9 -101 -33t-36 -73
q0 -77 90 -77q64 0 122 47t75 125l10 43q-36 -15 -102 -24zM318 602l-70 159l65 25l57 -184h-52z" />
    <glyph glyph-name="aacute" unicode="&#xe1;" horiz-adv-x="526" 
d="M308 510q80 0 124.5 -35t44.5 -97q0 -22 -9 -63l-72 -315h-67l20 84q-26 -43 -77 -69t-106 -26q-62 0 -102 34t-40 97q0 65 43 107t122 54l130 20q46 6 68 20t22 52q0 76 -105 76q-115 0 -147 -89h-70q22 72 80 111t141 39zM286 241l-58 -8q-65 -9 -101 -33t-36 -73
q0 -77 90 -77q64 0 122 47t75 125l10 43q-36 -15 -102 -24zM507 711l-130 -109h-69l149 162z" />
    <glyph glyph-name="acircumflex" unicode="&#xe2;" horiz-adv-x="526" 
d="M308 510q80 0 124.5 -35t44.5 -97q0 -22 -9 -63l-72 -315h-67l20 84q-26 -43 -77 -69t-106 -26q-62 0 -102 34t-40 97q0 65 43 107t122 54l130 20q46 6 68 20t22 52q0 76 -105 76q-115 0 -147 -89h-70q22 72 80 111t141 39zM286 241l-58 -8q-65 -9 -101 -33t-36 -73
q0 -77 90 -77q64 0 122 47t75 125l10 43q-36 -15 -102 -24zM418 602l-52 91l-94 -91h-76l156 152h46l85 -152h-65z" />
    <glyph glyph-name="atilde" unicode="&#xe3;" horiz-adv-x="526" 
d="M308 510q80 0 124.5 -35t44.5 -97q0 -22 -9 -63l-72 -315h-67l20 84q-26 -43 -77 -69t-106 -26q-62 0 -102 34t-40 97q0 65 43 107t122 54l130 20q46 6 68 20t22 52q0 76 -105 76q-115 0 -147 -89h-70q22 72 80 111t141 39zM286 241l-58 -8q-65 -9 -101 -33t-36 -73
q0 -77 90 -77q64 0 122 47t75 125l10 43q-36 -15 -102 -24zM424 602q-27 0 -72 35q-34 26 -51 26q-33 0 -43 -57h-47q4 56 28 88t59 32q25 0 72 -35q34 -28 51 -28q35 0 42 61h43q0 -56 -23.5 -89t-58.5 -33z" />
    <glyph glyph-name="adieresis" unicode="&#xe4;" horiz-adv-x="526" 
d="M308 510q80 0 124.5 -35t44.5 -97q0 -22 -9 -63l-72 -315h-67l20 84q-26 -43 -77 -69t-106 -26q-62 0 -102 34t-40 97q0 65 43 107t122 54l130 20q46 6 68 20t22 52q0 76 -105 76q-115 0 -147 -89h-70q22 72 80 111t141 39zM286 241l-58 -8q-65 -9 -101 -33t-36 -73
q0 -77 90 -77q64 0 122 47t75 125l10 43q-36 -15 -102 -24zM318 689l-20 -87h-81l21 87h80zM498 689l-20 -87h-81l21 87h80z" />
    <glyph glyph-name="aring" unicode="&#xe5;" horiz-adv-x="526" 
d="M308 510q80 0 124.5 -35t44.5 -97q0 -22 -9 -63l-72 -315h-67l20 84q-26 -43 -77 -69t-106 -26q-62 0 -102 34t-40 97q0 65 43 107t122 54l130 20q46 6 68 20t22 52q0 76 -105 76q-115 0 -147 -89h-70q22 72 80 111t141 39zM286 241l-58 -8q-65 -9 -101 -33t-36 -73
q0 -77 90 -77q64 0 122 47t75 125l10 43q-36 -15 -102 -24zM279 694q0 41 26 66.5t66 25.5t66 -25.5t26 -66.5q0 -40 -26.5 -66t-65.5 -26t-65.5 26.5t-26.5 65.5zM420 694q0 22 -14 36.5t-35 14.5t-35 -14.5t-14 -36.5t14 -37t35 -15t35 15t14 37z" />
    <glyph glyph-name="ae" unicode="&#xe6;" horiz-adv-x="870" 
d="M819 234h-366q-2 -32 -2 -37q0 -66 36.5 -105t99.5 -39q98 0 137 91h67q-61 -155 -212 -155t-183 141q-68 -141 -230 -141q-62 0 -102 34t-40 97q0 65 43 107t122 54l130 20q46 6 68 20t22 52q0 76 -105 76q-115 0 -147 -89h-70q22 72 80 111t141 39q128 0 157 -84
q73 84 185 84q86 0 133.5 -51t47.5 -136q0 -43 -12 -89zM464 292h295q4 17 4 40q0 55 -32.5 86.5t-89.5 31.5q-66 0 -110.5 -42.5t-66.5 -115.5zM378 222l10 43q-36 -15 -102 -24l-58 -8q-65 -9 -101 -33t-36 -73q0 -77 90 -77q64 0 122 47t75 125z" />
    <glyph glyph-name="ccedilla" unicode="&#xe7;" horiz-adv-x="529" 
d="M119 204q0 -70 34.5 -110.5t99.5 -40.5q112 0 144 122h67q-18 -84 -74 -134t-136 -52l-8 -39q84 -5 84 -64q0 -39 -33 -66.5t-82 -27.5q-60 0 -97 39l33 37q32 -32 70 -32q26 0 42.5 13t16.5 32q0 42 -87 43l17 68q-77 12 -118.5 68t-41.5 142q-1 73 28.5 143t92 118.5
t143.5 46.5q82 0 131.5 -43t49.5 -119v-13h-67q0 56 -31.5 85.5t-84.5 29.5q-58 1 -103.5 -37t-68 -94.5t-21.5 -114.5z" />
    <glyph glyph-name="egrave" unicode="&#xe8;" horiz-adv-x="537" 
d="M486 234h-366q-2 -32 -2 -37q0 -66 36.5 -105t99.5 -39q98 0 137 91h67q-61 -155 -212 -155q-93 0 -144 55t-51 157q-2 126 74 218.5t192 90.5q86 0 133.5 -51t47.5 -136q0 -43 -12 -89zM131 292h295q4 17 4 40q0 55 -32.5 86.5t-89.5 31.5q-66 0 -110.5 -42.5
t-66.5 -115.5zM309 602l-70 159l65 25l57 -184h-52z" />
    <glyph glyph-name="eacute" unicode="&#xe9;" horiz-adv-x="537" 
d="M486 234h-366q-2 -32 -2 -37q0 -66 36.5 -105t99.5 -39q98 0 137 91h67q-61 -155 -212 -155q-93 0 -144 55t-51 157q-2 126 74 218.5t192 90.5q86 0 133.5 -51t47.5 -136q0 -43 -12 -89zM131 292h295q4 17 4 40q0 55 -32.5 86.5t-89.5 31.5q-66 0 -110.5 -42.5
t-66.5 -115.5zM494 711l-130 -109h-69l149 162z" />
    <glyph glyph-name="ecircumflex" unicode="&#xea;" horiz-adv-x="537" 
d="M486 234h-366q-2 -32 -2 -37q0 -66 36.5 -105t99.5 -39q98 0 137 91h67q-61 -155 -212 -155q-93 0 -144 55t-51 157q-2 126 74 218.5t192 90.5q86 0 133.5 -51t47.5 -136q0 -43 -12 -89zM131 292h295q4 17 4 40q0 55 -32.5 86.5t-89.5 31.5q-66 0 -110.5 -42.5
t-66.5 -115.5zM424 602l-52 91l-94 -91h-76l156 152h46l85 -152h-65z" />
    <glyph glyph-name="edieresis" unicode="&#xeb;" horiz-adv-x="537" 
d="M486 234h-366q-2 -32 -2 -37q0 -66 36.5 -105t99.5 -39q98 0 137 91h67q-61 -155 -212 -155q-93 0 -144 55t-51 157q-2 126 74 218.5t192 90.5q86 0 133.5 -51t47.5 -136q0 -43 -12 -89zM131 292h295q4 17 4 40q0 55 -32.5 86.5t-89.5 31.5q-66 0 -110.5 -42.5
t-66.5 -115.5zM311 689l-20 -87h-81l21 87h80zM491 689l-20 -87h-81l21 87h80z" />
    <glyph glyph-name="igrave" unicode="&#xec;" horiz-adv-x="249" 
d="M32 0l116 501h68l-115 -501h-69zM169 602l-70 159l65 25l57 -184h-52z" />
    <glyph glyph-name="iacute" unicode="&#xed;" horiz-adv-x="249" 
d="M32 0l116 501h68l-115 -501h-69zM369 711l-130 -109h-69l149 162z" />
    <glyph glyph-name="icircumflex" unicode="&#xee;" horiz-adv-x="249" 
d="M32 0l116 501h68l-115 -501h-69zM276 602l-52 91l-94 -91h-76l156 152h46l85 -152h-65z" />
    <glyph glyph-name="idieresis" unicode="&#xef;" horiz-adv-x="249" 
d="M32 0l116 501h68l-115 -501h-69zM184 689l-20 -87h-81l21 87h80zM364 689l-20 -87h-81l21 87h80z" />
    <glyph glyph-name="eth" unicode="&#xf0;" horiz-adv-x="587" 
d="M556 397q1 -187 -83 -298.5t-207 -109.5q-92 0 -153.5 59.5t-61.5 160.5q0 104 66 170.5t164 66.5q67 0 125 -37q57 -35 77 -100q9 59 9 104q0 109 -45 167l-94 -66l-30 44l84 58q-36 21 -80 21q-56 0 -95 -31t-48 -82h-69q17 84 72.5 130t139.5 46q86 0 139 -43l76 53
v-64l-40 -28q54 -76 54 -221zM440 226q0 74 -45.5 115t-110.5 41q-67 0 -115 -44.5t-48 -121.5t44.5 -120.5t107.5 -43.5q67 0 117 48t50 126z" />
    <glyph glyph-name="ntilde" unicode="&#xf1;" horiz-adv-x="570" 
d="M522 377q0 -15 -5 -40l-77 -337h-68l73 320q6 27 6 42q0 40 -24 63.5t-71 23.5q-70 0 -124.5 -54t-75.5 -147l-57 -248h-68l114 501h69l-21 -87q73 96 179 96q70 0 110 -37.5t40 -95.5zM450 602q-27 0 -72 35q-34 26 -51 26q-33 0 -43 -57h-47q4 56 28 88t59 32
q25 0 72 -35q34 -28 51 -28q35 0 42 61h43q0 -56 -23.5 -89t-58.5 -33z" />
    <glyph glyph-name="ograve" unicode="&#xf2;" horiz-adv-x="565" 
d="M53 212q-2 121 73.5 210.5t189.5 87.5q94 0 147.5 -60t53.5 -163q2 -121 -73.5 -210.5t-189.5 -87.5q-94 0 -147.5 60t-53.5 163zM448 280q0 77 -37 122.5t-102 45.5q-79 2 -134 -68.5t-53 -162.5q0 -76 37 -121t102 -45q81 0 134 67.5t53 161.5zM317 602l-70 159l65 25
l57 -184h-52z" />
    <glyph glyph-name="oacute" unicode="&#xf3;" horiz-adv-x="565" 
d="M53 212q-2 121 73.5 210.5t189.5 87.5q94 0 147.5 -60t53.5 -163q2 -121 -73.5 -210.5t-189.5 -87.5q-94 0 -147.5 60t-53.5 163zM448 280q0 77 -37 122.5t-102 45.5q-79 2 -134 -68.5t-53 -162.5q0 -76 37 -121t102 -45q81 0 134 67.5t53 161.5zM498 711l-130 -109h-69
l149 162z" />
    <glyph glyph-name="ocircumflex" unicode="&#xf4;" horiz-adv-x="565" 
d="M53 212q-2 121 73.5 210.5t189.5 87.5q94 0 147.5 -60t53.5 -163q2 -121 -73.5 -210.5t-189.5 -87.5q-94 0 -147.5 60t-53.5 163zM448 280q0 77 -37 122.5t-102 45.5q-79 2 -134 -68.5t-53 -162.5q0 -76 37 -121t102 -45q81 0 134 67.5t53 161.5zM412 602l-52 91l-94 -91
h-76l156 152h46l85 -152h-65z" />
    <glyph glyph-name="otilde" unicode="&#xf5;" horiz-adv-x="565" 
d="M53 212q-2 121 73.5 210.5t189.5 87.5q94 0 147.5 -60t53.5 -163q2 -121 -73.5 -210.5t-189.5 -87.5q-94 0 -147.5 60t-53.5 163zM448 280q0 77 -37 122.5t-102 45.5q-79 2 -134 -68.5t-53 -162.5q0 -76 37 -121t102 -45q81 0 134 67.5t53 161.5zM429 602q-27 0 -72 35
q-34 26 -51 26q-32 0 -43 -57h-47q4 56 28 88t59 32q25 0 72 -35q34 -28 51 -28q35 0 42 61h43q0 -56 -23.5 -89t-58.5 -33z" />
    <glyph glyph-name="odieresis" unicode="&#xf6;" horiz-adv-x="565" 
d="M53 212q-2 121 73.5 210.5t189.5 87.5q94 0 147.5 -60t53.5 -163q2 -121 -73.5 -210.5t-189.5 -87.5q-94 0 -147.5 60t-53.5 163zM448 280q0 77 -37 122.5t-102 45.5q-79 2 -134 -68.5t-53 -162.5q0 -76 37 -121t102 -45q81 0 134 67.5t53 161.5zM320 689l-20 -87h-81
l21 87h80zM500 689l-20 -87h-81l21 87h80z" />
    <glyph glyph-name="divide" unicode="&#xf7;" 
d="M400 513l-20 -89h-87l21 89h86zM523 344l-15 -63h-402l15 63h402zM330 200l-20 -89h-87l21 89h86z" />
    <glyph glyph-name="oslash" unicode="&#xf8;" horiz-adv-x="565" 
d="M517 287q2 -121 -73.5 -210.5t-189.5 -87.5q-64 0 -107 27l-52 -72l-44 33l54 74q-52 59 -52 161q-2 121 73.5 210.5t189.5 87.5q60 0 104 -25l45 62l44 -32l-46 -64q54 -60 54 -164zM148 111l232 319q-30 18 -71 18q-79 2 -134 -68.5t-53 -162.5q0 -62 26 -106zM448 280
q0 67 -29 111l-232 -320q32 -20 74 -20q81 0 134 67.5t53 161.5z" />
    <glyph glyph-name="ugrave" unicode="&#xf9;" horiz-adv-x="563" 
d="M543 501l-115 -501h-68l23 94q-63 -100 -177 -100q-69 0 -107 38.5t-38 98.5q0 27 6 51l73 319h68l-73 -318q-5 -25 -5 -39q0 -41 22.5 -65.5t66.5 -24.5q67 0 121.5 51.5t75.5 140.5l59 255h68zM312 602l-70 159l65 25l57 -184h-52z" />
    <glyph glyph-name="uacute" unicode="&#xfa;" horiz-adv-x="563" 
d="M543 501l-115 -501h-68l23 94q-63 -100 -177 -100q-69 0 -107 38.5t-38 98.5q0 27 6 51l73 319h68l-73 -318q-5 -25 -5 -39q0 -41 22.5 -65.5t66.5 -24.5q67 0 121.5 51.5t75.5 140.5l59 255h68zM481 711l-130 -109h-69l149 162z" />
    <glyph glyph-name="ucircumflex" unicode="&#xfb;" horiz-adv-x="563" 
d="M543 501l-115 -501h-68l23 94q-63 -100 -177 -100q-69 0 -107 38.5t-38 98.5q0 27 6 51l73 319h68l-73 -318q-5 -25 -5 -39q0 -41 22.5 -65.5t66.5 -24.5q67 0 121.5 51.5t75.5 140.5l59 255h68zM429 602l-52 91l-94 -91h-76l156 152h46l85 -152h-65z" />
    <glyph glyph-name="udieresis" unicode="&#xfc;" horiz-adv-x="563" 
d="M543 501l-115 -501h-68l23 94q-63 -100 -177 -100q-69 0 -107 38.5t-38 98.5q0 27 6 51l73 319h68l-73 -318q-5 -25 -5 -39q0 -41 22.5 -65.5t66.5 -24.5q67 0 121.5 51.5t75.5 140.5l59 255h68zM322 689l-20 -87h-81l21 87h80zM502 689l-20 -87h-81l21 87h80z" />
    <glyph glyph-name="yacute" unicode="&#xfd;" horiz-adv-x="499" 
d="M466 501h74l-320 -553q-65 -112 -192 -112h-36l14 60h21q51 0 82.5 19.5t61.5 69.5l16 26l-102 490h69l78 -415zM445 711l-130 -109h-69l149 162z" />
    <glyph glyph-name="thorn" unicode="&#xfe;" horiz-adv-x="592" 
d="M548 302q2 -73 -31 -144t-94.5 -118t-134.5 -45q-58 0 -102 29.5t-63 82.5l-69 -299h-69l208 903h69l-49 -210h2l-18 -74q64 83 171 83q84 0 132 -60t48 -148zM480 294q0 69 -33.5 111t-97.5 42q-86 2 -142.5 -69.5t-54.5 -158.5q0 -72 35.5 -117t100.5 -45
q81 -3 137 72.5t55 164.5z" />
    <glyph glyph-name="ydieresis" unicode="&#xff;" horiz-adv-x="499" 
d="M466 501h74l-320 -553q-65 -112 -192 -112h-36l14 60h21q51 0 82.5 19.5t61.5 69.5l16 26l-102 490h69l78 -415zM301 689l-20 -87h-81l21 87h80zM481 689l-20 -87h-81l21 87h80z" />
    <glyph glyph-name="Amacron" unicode="&#x100;" horiz-adv-x="690" 
d="M549 0l-37 198h-334l-120 -198h-79l430 700h73l137 -700h-70zM216 261h284l-67 360zM331 829h298l-12 -53h-298z" />
    <glyph glyph-name="amacron" unicode="&#x101;" horiz-adv-x="526" 
d="M308 510q80 0 124.5 -35t44.5 -97q0 -22 -9 -63l-72 -315h-67l20 84q-26 -43 -77 -69t-106 -26q-62 0 -102 34t-40 97q0 65 43 107t122 54l130 20q46 6 68 20t22 52q0 76 -105 76q-115 0 -147 -89h-70q22 72 80 111t141 39zM286 241l-58 -8q-65 -9 -101 -33t-36 -73
q0 -77 90 -77q64 0 122 47t75 125l10 43q-36 -15 -102 -24zM213 655h299l-12 -53h-299z" />
    <glyph glyph-name="Abreve" unicode="&#x102;" horiz-adv-x="690" 
d="M549 0l-37 198h-334l-120 -198h-79l430 700h73l137 -700h-70zM216 261h284l-67 360zM588 900q0 -46 -33.5 -85t-94.5 -39q-44 0 -66.5 21t-22.5 55q0 33 18 62h47q-14 -30 -14 -49q0 -44 47 -44q32 0 50 25t18 58v10h50q1 -3 1 -14z" />
    <glyph glyph-name="abreve" unicode="&#x103;" horiz-adv-x="526" 
d="M308 510q80 0 124.5 -35t44.5 -97q0 -22 -9 -63l-72 -315h-67l20 84q-26 -43 -77 -69t-106 -26q-62 0 -102 34t-40 97q0 65 43 107t122 54l130 20q46 6 68 20t22 52q0 76 -105 76q-115 0 -147 -89h-70q22 72 80 111t141 39zM286 241l-58 -8q-65 -9 -101 -33t-36 -73
q0 -77 90 -77q64 0 122 47t75 125l10 43q-36 -15 -102 -24zM477 726q0 -46 -33 -85t-94 -39q-44 0 -66.5 20.5t-22.5 54.5q0 31 17 63h47q-14 -36 -14 -50q0 -43 48 -43q31 0 48.5 24t17.5 59v10h51q1 -3 1 -14z" />
    <glyph glyph-name="Aogonek" unicode="&#x104;" horiz-adv-x="721" 
d="M623 -116l-11 -50q-48 5 -79.5 31t-31.5 62q0 48 47 77l-36 194h-334l-120 -198h-79l430 700h73l137 -700h-23q-41 -27 -41 -63q0 -22 19.5 -36t48.5 -17zM216 261h284l-67 360z" />
    <glyph glyph-name="aogonek" unicode="&#x105;" horiz-adv-x="526" 
d="M341 -63q0 -22 19.5 -36t48.5 -17l-11 -50q-48 5 -79.5 31t-31.5 62q0 45 42 74l20 83q-26 -43 -77 -69t-106 -26q-62 0 -102 34t-40 97q0 65 43 107t122 54l130 20q46 6 68 20t22 52q0 76 -105 76q-115 0 -147 -89h-70q22 72 80 111t141 39q80 0 124.5 -35t44.5 -97
q0 -22 -9 -63l-72 -315h-14q-41 -27 -41 -63zM378 222l10 43q-36 -15 -102 -24l-58 -8q-65 -9 -101 -33t-36 -73q0 -77 90 -77q64 0 122 47t75 125z" />
    <glyph glyph-name="Cacute" unicode="&#x106;" horiz-adv-x="747" 
d="M612 236h74q-21 -115 -107 -184.5t-203 -69.5q-134 -2 -212.5 93.5t-76.5 231.5q-1 76 24.5 149.5t71.5 132.5t117 94.5t154 33.5q115 0 188 -60.5t73 -165.5h-73q-1 72 -54.5 115.5t-138.5 43.5q-86 2 -154 -48.5t-101.5 -127.5t-32.5 -161q0 -112 58 -187.5t162 -75.5
q84 0 149.5 49.5t81.5 136.5zM640 885l-131 -109h-69l151 163z" />
    <glyph glyph-name="cacute" unicode="&#x107;" horiz-adv-x="529" 
d="M397 175h67q-18 -85 -75.5 -135.5t-140.5 -50.5q-94 0 -146 58t-52 155q-1 73 28.5 143t92 118.5t143.5 46.5q82 0 131.5 -43t49.5 -119v-13h-67q0 56 -31.5 85.5t-84.5 29.5q-58 1 -103.5 -37t-68 -94.5t-21.5 -114.5q0 -70 34.5 -110.5t99.5 -40.5q112 0 144 122z
M504 711l-130 -109h-69l149 162z" />
    <glyph glyph-name="Ccircumflex" unicode="&#x108;" horiz-adv-x="747" 
d="M612 236h74q-21 -115 -107 -184.5t-203 -69.5q-134 -2 -212.5 93.5t-76.5 231.5q-1 76 24.5 149.5t71.5 132.5t117 94.5t154 33.5q115 0 188 -60.5t73 -165.5h-73q-1 72 -54.5 115.5t-138.5 43.5q-86 2 -154 -48.5t-101.5 -127.5t-32.5 -161q0 -112 58 -187.5t162 -75.5
q84 0 149.5 49.5t81.5 136.5zM561 776l-52 92l-94 -92h-76l156 152h46l85 -152h-65z" />
    <glyph glyph-name="ccircumflex" unicode="&#x109;" horiz-adv-x="529" 
d="M397 175h67q-18 -85 -75.5 -135.5t-140.5 -50.5q-94 0 -146 58t-52 155q-1 73 28.5 143t92 118.5t143.5 46.5q82 0 131.5 -43t49.5 -119v-13h-67q0 56 -31.5 85.5t-84.5 29.5q-58 1 -103.5 -37t-68 -94.5t-21.5 -114.5q0 -70 34.5 -110.5t99.5 -40.5q112 0 144 122z
M421 602l-52 91l-94 -91h-76l156 152h46l85 -152h-65z" />
    <glyph glyph-name="Cdotaccent" unicode="&#x10a;" horiz-adv-x="747" 
d="M612 236h74q-21 -115 -107 -184.5t-203 -69.5q-134 -2 -212.5 93.5t-76.5 231.5q-1 76 24.5 149.5t71.5 132.5t117 94.5t154 33.5q115 0 188 -60.5t73 -165.5h-73q-1 72 -54.5 115.5t-138.5 43.5q-86 2 -154 -48.5t-101.5 -127.5t-32.5 -161q0 -112 58 -187.5t162 -75.5
q84 0 149.5 49.5t81.5 136.5zM550 875l-22 -99h-97l23 99h96z" />
    <glyph glyph-name="cdotaccent" unicode="&#x10b;" horiz-adv-x="529" 
d="M397 175h67q-18 -85 -75.5 -135.5t-140.5 -50.5q-94 0 -146 58t-52 155q-1 73 28.5 143t92 118.5t143.5 46.5q82 0 131.5 -43t49.5 -119v-13h-67q0 56 -31.5 85.5t-84.5 29.5q-58 1 -103.5 -37t-68 -94.5t-21.5 -114.5q0 -70 34.5 -110.5t99.5 -40.5q112 0 144 122z
M405 701l-22 -99h-97l23 99h96z" />
    <glyph glyph-name="Ccaron" unicode="&#x10c;" horiz-adv-x="747" 
d="M612 236h74q-21 -115 -107 -184.5t-203 -69.5q-134 -2 -212.5 93.5t-76.5 231.5q-1 76 24.5 149.5t71.5 132.5t117 94.5t154 33.5q115 0 188 -60.5t73 -165.5h-73q-1 72 -54.5 115.5t-138.5 43.5q-86 2 -154 -48.5t-101.5 -127.5t-32.5 -161q0 -112 58 -187.5t162 -75.5
q84 0 149.5 49.5t81.5 136.5zM448 928l52 -91l95 91h75l-156 -152h-45l-85 152h64z" />
    <glyph glyph-name="ccaron" unicode="&#x10d;" horiz-adv-x="529" 
d="M397 175h67q-18 -85 -75.5 -135.5t-140.5 -50.5q-94 0 -146 58t-52 155q-1 73 28.5 143t92 118.5t143.5 46.5q82 0 131.5 -43t49.5 -119v-13h-67q0 56 -31.5 85.5t-84.5 29.5q-58 1 -103.5 -37t-68 -94.5t-21.5 -114.5q0 -70 34.5 -110.5t99.5 -40.5q112 0 144 122z
M297 754l52 -92l94 92h76l-156 -152h-45l-85 152h64z" />
    <glyph glyph-name="Dcaron" unicode="&#x10e;" horiz-adv-x="706" 
d="M681 411q1 -74 -28.5 -148t-83 -133.5t-136 -95.5t-178.5 -34h-210l161 700h184q139 0 215 -82t76 -207zM606 410q0 100 -57.5 163.5t-166.5 63.5h-120l-131 -573h125q78 -2 146 28.5t112 80.5t68.5 112.5t23.5 124.5zM362 928l52 -91l95 91h75l-156 -152h-45l-85 152h64
z" />
    <glyph glyph-name="dcaron" unicode="&#x10f;" horiz-adv-x="757" 
d="M620 711l-164 -711h-67l18 82q-24 -43 -69 -68t-101 -25q-89 0 -138 61.5t-49 154.5q-1 75 30.5 145t94.5 116t140 44q64 0 107 -29.5t59 -76.5l71 307h68zM450 293q0 71 -35.5 114.5t-100.5 43.5q-84 3 -140.5 -74t-55.5 -167q0 -71 35 -115t100 -44q84 -2 141 74.5
t56 167.5zM827 717l-21 -92q-18 -78 -60 -114.5t-118 -45.5l-4 44q57 8 86.5 35.5t38.5 79.5h-43l22 93h99z" />
    <glyph glyph-name="Dcroat" unicode="&#x110;" horiz-adv-x="720" 
d="M695 411q1 -74 -28.5 -148t-83 -133.5t-136 -95.5t-178.5 -34h-210l76 329h-100l12 54h100l73 317h184q139 0 215 -82t76 -207zM620 410q0 100 -57.5 163.5t-166.5 63.5h-120l-58 -254h182l-12 -54h-182l-61 -265h125q78 -2 146 28.5t112 80.5t68.5 112.5t23.5 124.5z
" />
    <glyph glyph-name="dslash" unicode="&#x111;" horiz-adv-x="611" 
d="M661 632l-11 -52h-60l-134 -580h-67l18 82q-24 -43 -69 -68t-101 -25q-89 0 -138 61.5t-49 154.5q-1 75 30.5 145t94.5 116t140 44q64 0 107 -29.5t59 -76.5l41 176h-132l11 52h133l18 79h68l-18 -79h59zM450 293q0 71 -35.5 114.5t-100.5 43.5q-84 3 -140.5 -74
t-55.5 -167q0 -71 35 -115t100 -44q84 -2 141 74.5t56 167.5z" />
    <glyph glyph-name="Emacron" unicode="&#x112;" horiz-adv-x="594" 
d="M206 700h429l-14 -63h-359l-58 -251h327l-15 -64h-326l-59 -258h377l-14 -64h-449zM295 829h298l-12 -53h-298z" />
    <glyph glyph-name="emacron" unicode="&#x113;" horiz-adv-x="537" 
d="M486 234h-366q-2 -32 -2 -37q0 -66 36.5 -105t99.5 -39q98 0 137 91h67q-61 -155 -212 -155q-93 0 -144 55t-51 157q-2 126 74 218.5t192 90.5q86 0 133.5 -51t47.5 -136q0 -43 -12 -89zM131 292h295q4 17 4 40q0 55 -32.5 86.5t-89.5 31.5q-66 0 -110.5 -42.5
t-66.5 -115.5zM214 655h299l-12 -53h-299z" />
    <glyph glyph-name="Ebreve" unicode="&#x114;" horiz-adv-x="594" 
d="M206 700h429l-14 -63h-359l-58 -251h327l-15 -64h-326l-59 -258h377l-14 -64h-449zM551 900q0 -46 -33.5 -85t-94.5 -39q-44 0 -66.5 21t-22.5 55q0 33 18 62h47q-14 -30 -14 -49q0 -44 47 -44q32 0 50 25t18 58v10h50q1 -3 1 -14z" />
    <glyph glyph-name="ebreve" unicode="&#x115;" horiz-adv-x="537" 
d="M486 234h-366q-2 -32 -2 -37q0 -66 36.5 -105t99.5 -39q98 0 137 91h67q-61 -155 -212 -155q-93 0 -144 55t-51 157q-2 126 74 218.5t192 90.5q86 0 133.5 -51t47.5 -136q0 -43 -12 -89zM131 292h295q4 17 4 40q0 55 -32.5 86.5t-89.5 31.5q-66 0 -110.5 -42.5
t-66.5 -115.5zM476 726q0 -46 -33 -85t-94 -39q-44 0 -66.5 20.5t-22.5 54.5q0 31 17 63h47q-14 -36 -14 -50q0 -43 48 -43q31 0 48.5 24t17.5 59v10h51q1 -3 1 -14z" />
    <glyph glyph-name="Edotaccent" unicode="&#x116;" horiz-adv-x="594" 
d="M206 700h429l-14 -63h-359l-58 -251h327l-15 -64h-326l-59 -258h377l-14 -64h-449zM509 875l-22 -99h-97l23 99h96z" />
    <glyph glyph-name="edotaccent" unicode="&#x117;" horiz-adv-x="537" 
d="M486 234h-366q-2 -32 -2 -37q0 -66 36.5 -105t99.5 -39q98 0 137 91h67q-61 -155 -212 -155q-93 0 -144 55t-51 157q-2 126 74 218.5t192 90.5q86 0 133.5 -51t47.5 -136q0 -43 -12 -89zM131 292h295q4 17 4 40q0 55 -32.5 86.5t-89.5 31.5q-66 0 -110.5 -42.5
t-66.5 -115.5zM409 701l-22 -99h-97l23 99h96z" />
    <glyph glyph-name="Eogonek" unicode="&#x118;" horiz-adv-x="596" 
d="M621 637h-359l-58 -251h327l-15 -64h-326l-59 -258h377l-14 -64h-52q-41 -27 -41 -63q0 -22 19.5 -36t48.5 -17l-11 -50q-48 5 -79.5 31t-31.5 62q0 45 41 73h-343l161 700h429z" />
    <glyph glyph-name="eogonek" unicode="&#x119;" horiz-adv-x="537" 
d="M486 234h-366q-2 -32 -2 -37q0 -66 36.5 -105t99.5 -39q98 0 137 91h67q-61 -155 -212 -155q-21 0 -26 1q-27 -22 -27 -53q0 -22 19.5 -36t48.5 -17l-11 -50q-48 5 -79.5 31t-31.5 62q0 44 39 71q-127 38 -127 203q-2 126 74 218.5t192 90.5q86 0 133.5 -51t47.5 -136
q0 -43 -12 -89zM131 292h295q4 17 4 40q0 55 -32.5 86.5t-89.5 31.5q-66 0 -110.5 -42.5t-66.5 -115.5z" />
    <glyph glyph-name="Ecaron" unicode="&#x11a;" horiz-adv-x="594" 
d="M206 700h429l-14 -63h-359l-58 -251h327l-15 -64h-326l-59 -258h377l-14 -64h-449zM388 928l52 -91l95 91h75l-156 -152h-45l-85 152h64z" />
    <glyph glyph-name="ecaron" unicode="&#x11b;" horiz-adv-x="537" 
d="M486 234h-366q-2 -32 -2 -37q0 -66 36.5 -105t99.5 -39q98 0 137 91h67q-61 -155 -212 -155q-93 0 -144 55t-51 157q-2 126 74 218.5t192 90.5q86 0 133.5 -51t47.5 -136q0 -43 -12 -89zM131 292h295q4 17 4 40q0 55 -32.5 86.5t-89.5 31.5q-66 0 -110.5 -42.5
t-66.5 -115.5zM306 754l52 -92l94 92h76l-156 -152h-45l-85 152h64z" />
    <glyph glyph-name="Gcircumflex" unicode="&#x11c;" horiz-adv-x="758" 
d="M383 350h304l-79 -350h-67l20 90q-83 -108 -214 -108q-122 0 -192 90.5t-70 224.5q-1 77 24.5 152t72.5 135.5t119.5 97.5t158.5 35q116 0 188.5 -60.5t72.5 -165.5h-73q-2 72 -55.5 115.5t-138.5 43.5q-93 2 -162.5 -51t-102.5 -132t-32 -168q0 -108 53.5 -179.5
t148.5 -71.5q90 0 160 63t87 175h-238zM561 776l-52 92l-94 -92h-76l156 152h46l85 -152h-65z" />
    <glyph glyph-name="gcircumflex" unicode="&#x11d;" horiz-adv-x="567" 
d="M555 501l-112 -486q-49 -218 -247 -218q-88 0 -141.5 44.5t-54.5 128.5h65q7 -112 132 -112q145 0 179 157l18 79q-60 -74 -150 -74q-86 0 -139.5 56.5t-53.5 153.5q-2 111 69 196.5t182 83.5q59 0 102.5 -25.5t61.5 -74.5l21 91h68zM434 299q0 71 -36 112.5t-96 41.5
q-76 0 -130 -62.5t-54 -153.5q0 -74 38 -116t99 -42q75 0 127 65t52 155zM426 602l-52 91l-94 -91h-76l156 152h46l85 -152h-65z" />
    <glyph glyph-name="Gbreve" unicode="&#x11e;" horiz-adv-x="758" 
d="M383 350h304l-79 -350h-67l20 90q-83 -108 -214 -108q-122 0 -192 90.5t-70 224.5q-1 77 24.5 152t72.5 135.5t119.5 97.5t158.5 35q116 0 188.5 -60.5t72.5 -165.5h-73q-2 72 -55.5 115.5t-138.5 43.5q-93 2 -162.5 -51t-102.5 -132t-32 -168q0 -108 53.5 -179.5
t148.5 -71.5q90 0 160 63t87 175h-238zM625 900q0 -46 -33.5 -85t-94.5 -39q-44 0 -66.5 21t-22.5 55q0 33 18 62h47q-14 -30 -14 -49q0 -44 47 -44q32 0 50 25t18 58v10h50q1 -3 1 -14z" />
    <glyph glyph-name="gbreve" unicode="&#x11f;" horiz-adv-x="567" 
d="M555 501l-112 -486q-49 -218 -247 -218q-88 0 -141.5 44.5t-54.5 128.5h65q7 -112 132 -112q145 0 179 157l18 79q-60 -74 -150 -74q-86 0 -139.5 56.5t-53.5 153.5q-2 111 69 196.5t182 83.5q59 0 102.5 -25.5t61.5 -74.5l21 91h68zM434 299q0 71 -36 112.5t-96 41.5
q-76 0 -130 -62.5t-54 -153.5q0 -74 38 -116t99 -42q75 0 127 65t52 155zM480 726q0 -46 -33 -85t-94 -39q-44 0 -66.5 20.5t-22.5 54.5q0 31 17 63h47q-14 -36 -14 -50q0 -43 48 -43q31 0 48.5 24t17.5 59v10h51q1 -3 1 -14z" />
    <glyph glyph-name="Gdotaccent" unicode="&#x120;" horiz-adv-x="758" 
d="M383 350h304l-79 -350h-67l20 90q-83 -108 -214 -108q-122 0 -192 90.5t-70 224.5q-1 77 24.5 152t72.5 135.5t119.5 97.5t158.5 35q116 0 188.5 -60.5t72.5 -165.5h-73q-2 72 -55.5 115.5t-138.5 43.5q-93 2 -162.5 -51t-102.5 -132t-32 -168q0 -108 53.5 -179.5
t148.5 -71.5q90 0 160 63t87 175h-238zM553 875l-22 -99h-97l23 99h96z" />
    <glyph glyph-name="gdotaccent" unicode="&#x121;" horiz-adv-x="567" 
d="M555 501l-112 -486q-49 -218 -247 -218q-88 0 -141.5 44.5t-54.5 128.5h65q7 -112 132 -112q145 0 179 157l18 79q-60 -74 -150 -74q-86 0 -139.5 56.5t-53.5 153.5q-2 111 69 196.5t182 83.5q59 0 102.5 -25.5t61.5 -74.5l21 91h68zM434 299q0 71 -36 112.5t-96 41.5
q-76 0 -130 -62.5t-54 -153.5q0 -74 38 -116t99 -42q75 0 127 65t52 155zM412 701l-22 -99h-97l23 99h96z" />
    <glyph glyph-name="uni0122" unicode="&#x122;" horiz-adv-x="758" 
d="M383 350h304l-79 -350h-67l20 90q-83 -108 -214 -108q-122 0 -192 90.5t-70 224.5q-1 77 24.5 152t72.5 135.5t119.5 97.5t158.5 35q116 0 188.5 -60.5t72.5 -165.5h-73q-2 72 -55.5 115.5t-138.5 43.5q-93 2 -162.5 -51t-102.5 -132t-32 -168q0 -108 53.5 -179.5
t148.5 -71.5q90 0 160 63t87 175h-238zM368 -78l-21 -92q-18 -78 -60 -114.5t-118 -45.5l-4 44q57 8 86.5 35.5t38.5 79.5h-43l22 93h99z" />
    <glyph glyph-name="uni0123" unicode="&#x123;" horiz-adv-x="570" 
d="M287 592l21 92q18 78 60 114.5t118 45.5l4 -44q-57 -8 -86.5 -35.5t-38.5 -79.5h43l-22 -93h-99zM555 501l-112 -486q-49 -218 -247 -218q-88 0 -141.5 44.5t-54.5 128.5h65q7 -112 132 -112q145 0 179 157l18 79q-60 -74 -150 -74q-86 0 -139.5 56.5t-53.5 153.5
q-2 111 69 196.5t182 83.5q59 0 102.5 -25.5t61.5 -74.5l21 91h68zM434 299q0 71 -36 112.5t-96 41.5q-76 0 -130 -62.5t-54 -153.5q0 -74 38 -116t99 -42q75 0 127 65t52 155z" />
    <glyph glyph-name="Hcircumflex" unicode="&#x124;" horiz-adv-x="715" 
d="M727 700l-162 -700h-71l73 321h-378l-73 -321h-71l161 700h71l-72 -316h377l73 316h72zM533 776l-52 92l-94 -92h-76l156 152h46l85 -152h-65z" />
    <glyph glyph-name="hcircumflex" unicode="&#x125;" horiz-adv-x="570" 
d="M522 377q0 -15 -5 -40l-77 -337h-68l74 324q5 25 5 38q0 40 -24 63.5t-71 23.5q-70 0 -124.5 -54t-75.5 -147l-57 -248h-68l162 711h68l-69 -302q72 101 180 101q70 0 110 -37.5t40 -95.5zM480 602l-52 91l-94 -91h-76l156 152h46l85 -152h-65z" />
    <glyph glyph-name="Hbar" unicode="&#x126;" horiz-adv-x="768" 
d="M807 542l-10 -49h-92l-114 -493h-71l73 321h-378l-73 -321h-71l113 493h-101l11 49h102l36 158h71l-36 -158h378l36 158h72l-37 -158h91zM608 384l25 109h-377l-25 -109h377z" />
    <glyph glyph-name="hbar" unicode="&#x127;" horiz-adv-x="597" 
d="M549 377q0 -15 -5 -40l-77 -337h-68l74 324q5 25 5 38q0 40 -24 63.5t-71 23.5q-70 0 -124.5 -54t-75.5 -147l-57 -248h-68l132 580h-77l12 52h77l18 79h68l-18 -79h116l-13 -52h-115l-39 -171q72 101 180 101q70 0 110 -37.5t40 -95.5z" />
    <glyph glyph-name="Itilde" unicode="&#x128;" horiz-adv-x="276" 
d="M49 0l162 700h72l-162 -700h-72zM338 776q-25 0 -73 35q-33 27 -49 27q-32 0 -43 -57h-48q5 55 29 87t58 32q25 0 72 -35q34 -27 51 -27q35 0 42 60h43q0 -56 -23.5 -89t-58.5 -33z" />
    <glyph glyph-name="itilde" unicode="&#x129;" horiz-adv-x="249" 
d="M32 0l116 501h68l-115 -501h-69zM272 602q-27 0 -72 35q-34 26 -51 26q-33 0 -43 -57h-47q4 56 28 88t59 32q25 0 72 -35q34 -28 51 -28q35 0 42 61h43q0 -56 -23.5 -89t-58.5 -33z" />
    <glyph glyph-name="Imacron" unicode="&#x12a;" horiz-adv-x="276" 
d="M49 0l162 700h72l-162 -700h-72zM138 829h298l-12 -53h-298z" />
    <glyph glyph-name="imacron" unicode="&#x12b;" horiz-adv-x="249" 
d="M32 0l116 501h68l-115 -501h-69zM61 655h299l-12 -53h-299z" />
    <glyph glyph-name="Iogonek" unicode="&#x12e;" horiz-adv-x="276" 
d="M122 -116l-11 -50q-48 5 -79.5 31t-31.5 62q0 50 50 79l161 694h72l-162 -700h-26q-41 -27 -41 -63q0 -22 19.5 -36t48.5 -17z" />
    <glyph glyph-name="iogonek" unicode="&#x12f;" horiz-adv-x="249" 
d="M188 710h77l-20 -89h-77zM40 -63q0 -22 19.5 -36t48.5 -17l-11 -50q-48 5 -79.5 31t-31.5 62q0 50 48 77l115 497h68l-116 -501h-20q-41 -27 -41 -63z" />
    <glyph glyph-name="Idot" unicode="&#x130;" horiz-adv-x="276" 
d="M49 0l162 700h72l-162 -700h-72zM335 875l-22 -99h-97l23 99h96z" />
    <glyph glyph-name="dotlessi" unicode="&#x131;" horiz-adv-x="249" 
d="M32 0l116 501h68l-115 -501h-69z" />
    <glyph glyph-name="IJ" unicode="&#x132;" horiz-adv-x="782" 
d="M49 0l162 700h72l-162 -700h-72zM310 236h70l-11 -47q-7 -27 -7 -46q0 -45 27.5 -70.5t78.5 -25.5q112 0 144 138l118 515h72l-120 -526q-23 -97 -79 -145t-137 -48q-80 0 -127 43.5t-47 111.5q0 24 6 50z" />
    <glyph glyph-name="ij" unicode="&#x133;" horiz-adv-x="495" 
d="M168 621l20 89h77l-20 -89h-77zM33 0l116 501h68l-116 -501h-68zM422 621l20 89h77l-20 -89h-77zM403 501h68l-132 -574q-27 -119 -148 -119h-42l14 60h28q68 0 85 76z" />
    <glyph glyph-name="Jcircumflex" unicode="&#x134;" horiz-adv-x="506" 
d="M34 236h70l-11 -47q-7 -27 -7 -46q0 -45 27.5 -70.5t78.5 -25.5q112 0 144 138l118 515h72l-120 -526q-23 -97 -79 -145t-137 -48q-80 0 -127 43.5t-47 111.5q0 24 6 50zM576 776l-52 92l-94 -92h-76l156 152h46l85 -152h-65z" />
    <glyph glyph-name="jcircumflex" unicode="&#x135;" horiz-adv-x="246" 
d="M285 602l-52 91l-94 -91h-76l156 152h46l85 -152h-65zM-100 -192l14 60h28q68 0 85 76l127 557h68l-132 -574q-27 -119 -148 -119h-42z" />
    <glyph glyph-name="uni0136" unicode="&#x136;" horiz-adv-x="641" 
d="M703 700l-332 -285l200 -415h-82l-176 367l-140 -122l-57 -245h-71l161 700h71l-80 -350l409 350h97zM319 -78l-21 -92q-18 -78 -60 -114.5t-118 -45.5l-4 44q57 8 86.5 35.5t38.5 79.5h-43l22 93h99z" />
    <glyph glyph-name="uni0137" unicode="&#x137;" horiz-adv-x="523" 
d="M553 501l-254 -215l149 -286h-72l-127 243l-119 -101l-33 -142h-68l164 711h68l-110 -475l307 265h95zM243 -78l-21 -92q-18 -78 -60 -114.5t-118 -45.5l-4 44q57 8 86.5 35.5t38.5 79.5h-43l22 93h99z" />
    <glyph glyph-name="kgreenlandic" unicode="&#x138;" horiz-adv-x="523" 
d="M553 501l-254 -215l149 -286h-72l-127 243l-119 -101l-33 -142h-68l116 501h68l-62 -265l307 265h95z" />
    <glyph glyph-name="Lacute" unicode="&#x139;" horiz-adv-x="548" 
d="M45 0l161 700h72l-147 -636h352l-15 -64h-423zM433 885l-131 -109h-69l151 163z" />
    <glyph glyph-name="lacute" unicode="&#x13a;" horiz-adv-x="232" 
d="M29 0l164 711h68l-164 -711h-68zM412 885l-131 -109h-69l151 163z" />
    <glyph glyph-name="uni013B" unicode="&#x13b;" horiz-adv-x="548" 
d="M45 0l161 700h72l-147 -636h352l-15 -64h-423zM295 -78l-21 -92q-18 -78 -60 -114.5t-118 -45.5l-4 44q57 8 86.5 35.5t38.5 79.5h-43l22 93h99z" />
    <glyph glyph-name="uni013C" unicode="&#x13c;" horiz-adv-x="229" 
d="M29 0l164 711h68l-164 -711h-68zM93 -78l-21 -92q-18 -78 -60 -114.5t-118 -45.5l-4 44q57 8 86.5 35.5t38.5 79.5h-43l22 93h99z" />
    <glyph glyph-name="Lcaron" unicode="&#x13d;" horiz-adv-x="596" 
d="M45 0l161 700h72l-147 -636h352l-15 -64h-423zM667 717l-21 -92q-18 -78 -60 -114.5t-118 -45.5l-4 44q57 8 86.5 35.5t38.5 79.5h-43l22 93h99z" />
    <glyph glyph-name="lcaron" unicode="&#x13e;" horiz-adv-x="406" 
d="M29 0l164 711h68l-164 -711h-68zM477 718l-21 -92q-18 -78 -60 -114.5t-118 -45.5l-4 44q57 8 86.5 35.5t38.5 79.5h-43l22 93h99z" />
    <glyph glyph-name="Ldot" unicode="&#x13f;" horiz-adv-x="548" 
d="M45 0l161 700h72l-147 -636h352l-15 -64h-423zM582 501l-22 -99h-97l23 99h96z" />
    <glyph glyph-name="ldot" unicode="&#x140;" horiz-adv-x="397" 
d="M29 0l164 711h68l-164 -711h-68zM417 501l-22 -99h-97l23 99h96z" />
    <glyph glyph-name="Lslash" unicode="&#x141;" horiz-adv-x="582" 
d="M165 64h352l-15 -64h-423l61 266l-121 -64v56l136 72l85 370h72l-76 -328l174 92v-56l-188 -99z" />
    <glyph glyph-name="lslash" unicode="&#x142;" horiz-adv-x="255" 
d="M282 424v-56l-113 -51l-73 -317h-68l65 282l-81 -37v56l95 43l85 367h68l-77 -332z" />
    <glyph glyph-name="Nacute" unicode="&#x143;" horiz-adv-x="719" 
d="M660 700h69l-160 -700h-74l-241 608l-139 -608h-68l159 700h86l232 -592zM627 885l-131 -109h-69l151 163z" />
    <glyph glyph-name="nacute" unicode="&#x144;" horiz-adv-x="570" 
d="M522 377q0 -15 -5 -40l-77 -337h-68l73 320q6 27 6 42q0 40 -24 63.5t-71 23.5q-70 0 -124.5 -54t-75.5 -147l-57 -248h-68l114 501h69l-21 -87q73 96 179 96q70 0 110 -37.5t40 -95.5zM537 711l-130 -109h-69l149 162z" />
    <glyph glyph-name="uni0145" unicode="&#x145;" horiz-adv-x="719" 
d="M660 700h69l-160 -700h-74l-241 608l-139 -608h-68l159 700h86l232 -592zM335 -78l-21 -92q-18 -78 -60 -114.5t-118 -45.5l-4 44q57 8 86.5 35.5t38.5 79.5h-43l22 93h99z" />
    <glyph glyph-name="uni0146" unicode="&#x146;" horiz-adv-x="570" 
d="M522 377q0 -15 -5 -40l-77 -337h-68l73 320q6 27 6 42q0 40 -24 63.5t-71 23.5q-70 0 -124.5 -54t-75.5 -147l-57 -248h-68l114 501h69l-21 -87q73 96 179 96q70 0 110 -37.5t40 -95.5zM264 -78l-21 -92q-18 -78 -60 -114.5t-118 -45.5l-4 44q57 8 86.5 35.5t38.5 79.5
h-43l22 93h99z" />
    <glyph glyph-name="Ncaron" unicode="&#x147;" horiz-adv-x="719" 
d="M660 700h69l-160 -700h-74l-241 608l-139 -608h-68l159 700h86l232 -592zM424 928l52 -91l95 91h75l-156 -152h-45l-85 152h64z" />
    <glyph glyph-name="ncaron" unicode="&#x148;" horiz-adv-x="570" 
d="M522 377q0 -15 -5 -40l-77 -337h-68l73 320q6 27 6 42q0 40 -24 63.5t-71 23.5q-70 0 -124.5 -54t-75.5 -147l-57 -248h-68l114 501h69l-21 -87q73 96 179 96q70 0 110 -37.5t40 -95.5zM338 754l52 -92l94 92h76l-156 -152h-45l-85 152h64z" />
    <glyph glyph-name="napostrophe" unicode="&#x149;" horiz-adv-x="746" 
d="M698 377q0 -15 -5 -40l-77 -337h-68l73 320q6 27 6 42q0 40 -24 63.5t-71 23.5q-70 0 -124.5 -54t-75.5 -147l-57 -248h-68l114 501h69l-21 -87q74 96 179 96q70 0 110 -37.5t40 -95.5zM300 718l-21 -92q-18 -78 -60 -114.5t-118 -45.5l-4 44q57 8 86.5 35.5t38.5 79.5
h-43l22 93h99z" />
    <glyph glyph-name="Eng" unicode="&#x14a;" horiz-adv-x="719" 
d="M729 700l-177 -773q-27 -119 -148 -119h-42l14 60h28q67 0 84 76l14 62l-248 602l-139 -608h-68l159 700h86l235 -579l133 579h69z" />
    <glyph glyph-name="eng" unicode="&#x14b;" horiz-adv-x="579" 
d="M522 377q0 -15 -5 -40l-94 -410q-27 -119 -148 -119h-42l14 60h28q67 0 84 76l87 381q5 25 5 37q0 40 -24 63.5t-71 23.5q-70 0 -124.5 -54t-75.5 -147l-57 -248h-68l114 501h69l-21 -87q73 96 179 96q70 0 110 -37.5t40 -95.5z" />
    <glyph glyph-name="Omacron" unicode="&#x14c;" horiz-adv-x="783" 
d="M751 393q2 -170 -102 -292t-267 -119q-134 0 -214.5 90t-80.5 234q-2 110 43 204t131 151.5t195 55.5q134 0 214.5 -90t80.5 -234zM679 389q0 122 -59.5 191.5t-166.5 69.5q-134 0 -214 -96t-80 -244q0 -122 59.5 -191.5t166.5 -69.5q134 0 214 96t80 244zM350 829h298
l-12 -53h-298z" />
    <glyph glyph-name="omacron" unicode="&#x14d;" horiz-adv-x="565" 
d="M53 212q-2 121 73.5 210.5t189.5 87.5q94 0 147.5 -60t53.5 -163q2 -121 -73.5 -210.5t-189.5 -87.5q-94 0 -147.5 60t-53.5 163zM448 280q0 77 -37 122.5t-102 45.5q-79 2 -134 -68.5t-53 -162.5q0 -76 37 -121t102 -45q81 0 134 67.5t53 161.5zM206 655h299l-12 -53
h-299z" />
    <glyph glyph-name="Obreve" unicode="&#x14e;" horiz-adv-x="783" 
d="M751 393q2 -170 -102 -292t-267 -119q-134 0 -214.5 90t-80.5 234q-2 110 43 204t131 151.5t195 55.5q134 0 214.5 -90t80.5 -234zM679 389q0 122 -59.5 191.5t-166.5 69.5q-134 0 -214 -96t-80 -244q0 -122 59.5 -191.5t166.5 -69.5q134 0 214 96t80 244zM633 900
q0 -46 -33.5 -85t-94.5 -39q-44 0 -66.5 21t-22.5 55q0 33 18 62h47q-14 -30 -14 -49q0 -44 47 -44q32 0 50 25t18 58v10h50q1 -3 1 -14z" />
    <glyph glyph-name="obreve" unicode="&#x14f;" horiz-adv-x="565" 
d="M53 212q-2 121 73.5 210.5t189.5 87.5q94 0 147.5 -60t53.5 -163q2 -121 -73.5 -210.5t-189.5 -87.5q-94 0 -147.5 60t-53.5 163zM448 280q0 77 -37 122.5t-102 45.5q-79 2 -134 -68.5t-53 -162.5q0 -76 37 -121t102 -45q81 0 134 67.5t53 161.5zM482 726q0 -46 -33 -85
t-94 -39q-44 0 -66.5 20.5t-22.5 54.5q0 31 17 63h47q-14 -36 -14 -50q0 -43 48 -43q31 0 48.5 24t17.5 59v10h51q1 -3 1 -14z" />
    <glyph glyph-name="Ohungarumlaut" unicode="&#x150;" horiz-adv-x="783" 
d="M751 393q2 -170 -102 -292t-267 -119q-134 0 -214.5 90t-80.5 234q-2 110 43 204t131 151.5t195 55.5q134 0 214.5 -90t80.5 -234zM679 389q0 122 -59.5 191.5t-166.5 69.5q-134 0 -214 -96t-80 -244q0 -122 59.5 -191.5t166.5 -69.5q134 0 214 96t80 244zM399 776
l75 150h65l-86 -150h-54zM520 776l74 150h66l-86 -150h-54z" />
    <glyph glyph-name="ohungarumlaut" unicode="&#x151;" horiz-adv-x="565" 
d="M53 212q-2 121 73.5 210.5t189.5 87.5q94 0 147.5 -60t53.5 -163q2 -121 -73.5 -210.5t-189.5 -87.5q-94 0 -147.5 60t-53.5 163zM448 280q0 77 -37 122.5t-102 45.5q-79 2 -134 -68.5t-53 -162.5q0 -76 37 -121t102 -45q81 0 134 67.5t53 161.5zM237 602l73 155h74
l-84 -155h-63zM364 602l73 155h74l-84 -155h-63z" />
    <glyph glyph-name="OE" unicode="&#x152;" horiz-adv-x="1063" 
d="M1105 700l-14 -63h-431q91 -91 91 -243v-8h242l-15 -64h-233q-25 -161 -141 -258h373l-14 -64h-472q-51 -18 -110 -18q-131 0 -213 90.5t-82 233.5q-2 107 46 202.5t134.5 153t188.5 55.5q55 0 104 -17h546zM453 649q-125 2 -211 -98t-84 -241q0 -120 60.5 -190
t166.5 -70q126 -2 210.5 99.5t82.5 241.5q0 119 -59.5 188.5t-165.5 69.5z" />
    <glyph glyph-name="oe" unicode="&#x153;" horiz-adv-x="933" 
d="M882 234h-368q-3 -20 -3 -38q0 -65 36.5 -105t97.5 -40q101 0 141 93h68q-29 -76 -86.5 -115.5t-130.5 -39.5q-130 0 -172 119q-34 -56 -89 -87.5t-122 -31.5q-94 0 -147.5 60t-53.5 163q-2 121 73.5 210.5t189.5 87.5q138 0 182 -120q75 120 215 120q86 0 132 -49.5
t46 -140.5q0 -41 -9 -86zM525 292h297q4 17 4 40q0 55 -32 86.5t-88 31.5q-64 0 -112.5 -40.5t-68.5 -117.5zM448 280q0 77 -37 122.5t-102 45.5q-79 2 -134 -68.5t-53 -162.5q0 -76 37 -121t102 -45q81 0 134 67.5t53 161.5z" />
    <glyph glyph-name="Racute" unicode="&#x154;" horiz-adv-x="643" 
d="M45 0l161 700h242q88 0 136.5 -47.5t48.5 -123.5q0 -82 -55.5 -143t-148.5 -71l134 -315h-76l-129 303h-173l-70 -303h-70zM560 518q0 54 -33.5 86.5t-97.5 32.5h-168l-62 -271h183q76 0 127 43.5t51 108.5zM565 885l-131 -109h-69l151 163z" />
    <glyph glyph-name="racute" unicode="&#x155;" horiz-adv-x="360" 
d="M159 265l-61 -265h-68l115 501h68l-21 -89q52 95 177 95h23l-15 -65h-25q-73 0 -123 -45.5t-70 -131.5zM439 711l-130 -109h-69l149 162z" />
    <glyph glyph-name="uni0156" unicode="&#x156;" horiz-adv-x="643" 
d="M45 0l161 700h242q88 0 136.5 -47.5t48.5 -123.5q0 -82 -55.5 -143t-148.5 -71l134 -315h-76l-129 303h-173l-70 -303h-70zM560 518q0 54 -33.5 86.5t-97.5 32.5h-168l-62 -271h183q76 0 127 43.5t51 108.5zM317 -78l-21 -92q-18 -78 -60 -114.5t-118 -45.5l-4 44
q57 8 86.5 35.5t38.5 79.5h-43l22 93h99z" />
    <glyph glyph-name="uni0157" unicode="&#x157;" horiz-adv-x="360" 
d="M159 265l-61 -265h-68l115 501h68l-21 -89q52 95 177 95h23l-15 -65h-25q-73 0 -123 -45.5t-70 -131.5zM99 -78l-21 -92q-18 -78 -60 -114.5t-118 -45.5l-4 44q57 8 86.5 35.5t38.5 79.5h-43l22 93h99z" />
    <glyph glyph-name="Rcaron" unicode="&#x158;" horiz-adv-x="643" 
d="M45 0l161 700h242q88 0 136.5 -47.5t48.5 -123.5q0 -82 -55.5 -143t-148.5 -71l134 -315h-76l-129 303h-173l-70 -303h-70zM560 518q0 54 -33.5 86.5t-97.5 32.5h-168l-62 -271h183q76 0 127 43.5t51 108.5zM353 928l52 -91l95 91h75l-156 -152h-45l-85 152h64z" />
    <glyph glyph-name="rcaron" unicode="&#x159;" horiz-adv-x="360" 
d="M159 265l-61 -265h-68l115 501h68l-21 -89q52 95 177 95h23l-15 -65h-25q-73 0 -123 -45.5t-70 -131.5zM228 754l52 -92l94 92h76l-156 -152h-45l-85 152h64z" />
    <glyph glyph-name="Sacute" unicode="&#x15a;" horiz-adv-x="610" 
d="M51 223h76q-2 -18 -2 -22q0 -62 46.5 -108t132.5 -46q76 0 122 37t46 96q0 38 -19 63q-17 24 -43.5 39.5t-85.5 39.5q-63 26 -102 48q-91 52 -91 153q0 89 61.5 141.5t168.5 52.5q109 0 173.5 -54.5t69.5 -141.5h-73q-4 57 -50 94.5t-122 37.5q-73 0 -115.5 -35
t-42.5 -94q0 -37 19 -62q19 -23 48 -39.5t90 -41.5q64 -27 102 -48q88 -48 88 -145q0 -93 -74 -149.5t-180 -56.5q-59 0 -107 19.5t-77 51t-44.5 69t-15.5 76.5q0 18 1 25zM565 885l-131 -109h-69l151 163z" />
    <glyph glyph-name="sacute" unicode="&#x15b;" horiz-adv-x="486" 
d="M421 145q0 -72 -58.5 -114t-139.5 -42q-80 0 -137.5 44.5t-60.5 120.5h71q5 -49 41.5 -76.5t90.5 -27.5q52 0 87.5 23t35.5 62q0 30 -24.5 48t-80.5 35q-49 15 -83 30q-77 38 -77 117q0 69 53 107t133 38q81 0 133 -39q53 -39 55 -111h-69q-5 42 -38 66t-85 24
q-50 0 -81 -22t-31 -60q3 -37 26.5 -52.5t85.5 -35.5q48 -14 80 -29q73 -31 73 -106zM452 711l-130 -109h-69l149 162z" />
    <glyph glyph-name="Scircumflex" unicode="&#x15c;" horiz-adv-x="610" 
d="M51 223h76q-2 -18 -2 -22q0 -62 46.5 -108t132.5 -46q76 0 122 37t46 96q0 38 -19 63q-17 24 -43.5 39.5t-85.5 39.5q-63 26 -102 48q-91 52 -91 153q0 89 61.5 141.5t168.5 52.5q109 0 173.5 -54.5t69.5 -141.5h-73q-4 57 -50 94.5t-122 37.5q-73 0 -115.5 -35
t-42.5 -94q0 -37 19 -62q19 -23 48 -39.5t90 -41.5q64 -27 102 -48q88 -48 88 -145q0 -93 -74 -149.5t-180 -56.5q-59 0 -107 19.5t-77 51t-44.5 69t-15.5 76.5q0 18 1 25zM478 776l-52 92l-94 -92h-76l156 152h46l85 -152h-65z" />
    <glyph glyph-name="scircumflex" unicode="&#x15d;" horiz-adv-x="486" 
d="M421 145q0 -72 -58.5 -114t-139.5 -42q-80 0 -137.5 44.5t-60.5 120.5h71q5 -49 41.5 -76.5t90.5 -27.5q52 0 87.5 23t35.5 62q0 30 -24.5 48t-80.5 35q-49 15 -83 30q-77 38 -77 117q0 69 53 107t133 38q81 0 133 -39q53 -39 55 -111h-69q-5 42 -38 66t-85 24
q-50 0 -81 -22t-31 -60q3 -37 26.5 -52.5t85.5 -35.5q48 -14 80 -29q73 -31 73 -106zM390 602l-52 91l-94 -91h-76l156 152h46l85 -152h-65z" />
    <glyph glyph-name="Scedilla" unicode="&#x15e;" horiz-adv-x="610" 
d="M548 188q0 -93 -72.5 -148.5t-177.5 -57.5l-6 -32q84 -5 84 -64q0 -39 -33 -66.5t-82 -27.5q-60 0 -97 39l33 37q32 -32 70 -32q26 0 42.5 13t16.5 32q0 42 -87 43l15 60q-97 11 -150.5 75t-53.5 139q0 18 1 25h76q-2 -18 -2 -22q0 -62 46.5 -108t132.5 -46q76 0 122 37
t46 96q0 38 -19 63q-17 24 -43.5 39.5t-85.5 39.5q-63 26 -102 48q-91 52 -91 153q0 89 61.5 141.5t168.5 52.5q109 0 173.5 -54.5t69.5 -141.5h-73q-4 57 -50 94.5t-122 37.5q-73 0 -115.5 -35t-42.5 -94q0 -37 19 -62q19 -23 48 -39.5t90 -41.5q64 -27 102 -48
q88 -48 88 -145z" />
    <glyph glyph-name="scedilla" unicode="&#x15f;" horiz-adv-x="486" 
d="M421 145q0 -71 -57.5 -112.5t-138.5 -43.5l-8 -39q84 -5 84 -64q0 -39 -33 -66.5t-82 -27.5q-60 0 -97 39l33 37q32 -32 70 -32q26 0 42.5 13t16.5 32q0 42 -87 43l17 68q-68 12 -111 54.5t-45 107.5h71q5 -49 41.5 -76.5t90.5 -27.5q52 0 87.5 23t35.5 62q0 30 -24.5 48
t-80.5 35q-49 15 -83 30q-77 38 -77 117q0 69 53 107t133 38q81 0 133 -39q53 -39 55 -111h-69q-5 42 -38 66t-85 24q-50 0 -81 -22t-31 -60q3 -37 26.5 -52.5t85.5 -35.5q48 -14 80 -29q73 -31 73 -106z" />
    <glyph glyph-name="Scaron" unicode="&#x160;" horiz-adv-x="610" 
d="M51 223h76q-2 -18 -2 -22q0 -62 46.5 -108t132.5 -46q76 0 122 37t46 96q0 38 -19 63q-17 24 -43.5 39.5t-85.5 39.5q-63 26 -102 48q-91 52 -91 153q0 89 61.5 141.5t168.5 52.5q109 0 173.5 -54.5t69.5 -141.5h-73q-4 57 -50 94.5t-122 37.5q-73 0 -115.5 -35
t-42.5 -94q0 -37 19 -62q19 -23 48 -39.5t90 -41.5q64 -27 102 -48q88 -48 88 -145q0 -93 -74 -149.5t-180 -56.5q-59 0 -107 19.5t-77 51t-44.5 69t-15.5 76.5q0 18 1 25zM359 928l52 -91l95 91h75l-156 -152h-45l-85 152h64z" />
    <glyph glyph-name="scaron" unicode="&#x161;" horiz-adv-x="486" 
d="M421 145q0 -72 -58.5 -114t-139.5 -42q-80 0 -137.5 44.5t-60.5 120.5h71q5 -49 41.5 -76.5t90.5 -27.5q52 0 87.5 23t35.5 62q0 30 -24.5 48t-80.5 35q-49 15 -83 30q-77 38 -77 117q0 69 53 107t133 38q81 0 133 -39q53 -39 55 -111h-69q-5 42 -38 66t-85 24
q-50 0 -81 -22t-31 -60q3 -37 26.5 -52.5t85.5 -35.5q48 -14 80 -29q73 -31 73 -106zM266 754l52 -92l94 92h76l-156 -152h-45l-85 152h64z" />
    <glyph glyph-name="uni0162" unicode="&#x162;" horiz-adv-x="618" 
d="M141 700h549l-15 -63h-239l-147 -637h-27l-10 -50q84 -5 84 -64q0 -39 -33 -66.5t-82 -27.5q-60 0 -97 39l33 37q32 -32 70 -32q26 0 42.5 13t16.5 32q0 42 -87 43l19 77l147 636h-238z" />
    <glyph glyph-name="uni0163" unicode="&#x163;" horiz-adv-x="367" 
d="M233 440l-69 -301q-5 -25 -5 -36q0 -41 52 -41h64l-14 -62h-64q-14 0 -17 1l-8 -41q84 -5 84 -64q0 -39 -33 -66.5t-82 -27.5q-60 0 -97 39l33 37q32 -32 70 -32q26 0 42.5 13t16.5 32q0 42 -87 43l19 76q-50 20 -50 76q0 13 5 38l72 316h-99l14 61h98l33 141l73 19
l-37 -160h118l-13 -61h-119z" />
    <glyph glyph-name="Tcaron" unicode="&#x164;" horiz-adv-x="618" 
d="M690 700l-15 -63h-239l-147 -637h-71l147 637h-238l14 63h549zM379 928l52 -91l95 91h75l-156 -152h-45l-85 152h64z" />
    <glyph glyph-name="tcaron" unicode="&#x165;" horiz-adv-x="548" 
d="M261 0h-64q-52 0 -80.5 22t-28.5 64q0 13 5 38l72 316h-99l14 61h98l33 141l73 19l-37 -160h118l-13 -61h-119l-69 -301q-5 -25 -5 -36q0 -41 52 -41h64zM617 712l-21 -92q-18 -78 -60 -114.5t-118 -45.5l-4 44q57 8 86.5 35.5t38.5 79.5h-43l22 93h99z" />
    <glyph glyph-name="Tbar" unicode="&#x166;" horiz-adv-x="618" 
d="M675 637h-239l-43 -188h184l-12 -50h-184l-92 -399h-71l92 399h-178l12 50h178l43 188h-238l14 63h549z" />
    <glyph glyph-name="tbar" unicode="&#x167;" horiz-adv-x="356" 
d="M352 440h-119l-26 -113h121l-15 -60h-120l-29 -128q-5 -25 -5 -36q0 -41 52 -41h64l-14 -62h-64q-52 0 -80.5 22t-28.5 64q0 13 5 38l33 143h-99l14 60h98l26 113h-99l14 61h98l33 141l73 19l-37 -160h118z" />
    <glyph glyph-name="Utilde" unicode="&#x168;" horiz-adv-x="702" 
d="M330 -18q-108 0 -175 59.5t-67 159.5q0 27 9 68l99 431h71l-98 -428q-9 -39 -9 -71q0 -74 45 -113t124 -39q85 0 141 46t76 134l107 471h69l-106 -467q-29 -124 -103.5 -187.5t-182.5 -63.5zM540 776q-25 0 -73 35q-33 27 -49 27q-32 0 -43 -57h-48q5 55 29 87t58 32
q25 0 72 -35q34 -27 51 -27q35 0 42 60h43q0 -56 -23.5 -89t-58.5 -33z" />
    <glyph glyph-name="utilde" unicode="&#x169;" horiz-adv-x="563" 
d="M543 501l-115 -501h-68l23 94q-63 -100 -177 -100q-69 0 -107 38.5t-38 98.5q0 27 6 51l73 319h68l-73 -318q-5 -25 -5 -39q0 -41 22.5 -65.5t66.5 -24.5q67 0 121.5 51.5t75.5 140.5l59 255h68zM439 602q-27 0 -72 35q-34 26 -51 26q-32 0 -43 -57h-47q4 56 28 88t59 32
q25 0 72 -35q34 -28 51 -28q35 0 42 61h43q0 -56 -23.5 -89t-58.5 -33z" />
    <glyph glyph-name="Umacron" unicode="&#x16a;" horiz-adv-x="702" 
d="M330 -18q-108 0 -175 59.5t-67 159.5q0 27 9 68l99 431h71l-98 -428q-9 -39 -9 -71q0 -74 45 -113t124 -39q85 0 141 46t76 134l107 471h69l-106 -467q-29 -124 -103.5 -187.5t-182.5 -63.5zM332 829h298l-12 -53h-298z" />
    <glyph glyph-name="umacron" unicode="&#x16b;" horiz-adv-x="563" 
d="M543 501l-115 -501h-68l23 94q-63 -100 -177 -100q-69 0 -107 38.5t-38 98.5q0 27 6 51l73 319h68l-73 -318q-5 -25 -5 -39q0 -41 22.5 -65.5t66.5 -24.5q67 0 121.5 51.5t75.5 140.5l59 255h68zM206 655h299l-12 -53h-299z" />
    <glyph glyph-name="Ubreve" unicode="&#x16c;" horiz-adv-x="702" 
d="M330 -18q-108 0 -175 59.5t-67 159.5q0 27 9 68l99 431h71l-98 -428q-9 -39 -9 -71q0 -74 45 -113t124 -39q85 0 141 46t76 134l107 471h69l-106 -467q-29 -124 -103.5 -187.5t-182.5 -63.5zM592 900q0 -46 -33.5 -85t-94.5 -39q-44 0 -66.5 21t-22.5 55q0 33 18 62h47
q-14 -30 -14 -49q0 -44 47 -44q32 0 50 25t18 58v10h50q1 -3 1 -14z" />
    <glyph glyph-name="ubreve" unicode="&#x16d;" horiz-adv-x="563" 
d="M543 501l-115 -501h-68l23 94q-63 -100 -177 -100q-69 0 -107 38.5t-38 98.5q0 27 6 51l73 319h68l-73 -318q-5 -25 -5 -39q0 -41 22.5 -65.5t66.5 -24.5q67 0 121.5 51.5t75.5 140.5l59 255h68zM490 726q0 -46 -33 -85t-94 -39q-44 0 -66.5 20.5t-22.5 54.5q0 31 17 63
h47q-14 -36 -14 -50q0 -43 48 -43q31 0 48.5 24t17.5 59v10h51q1 -3 1 -14z" />
    <glyph glyph-name="Uring" unicode="&#x16e;" horiz-adv-x="702" 
d="M330 -18q-108 0 -175 59.5t-67 159.5q0 27 9 68l99 431h71l-98 -428q-9 -39 -9 -71q0 -74 45 -113t124 -39q85 0 141 46t76 134l107 471h69l-106 -467q-29 -124 -103.5 -187.5t-182.5 -63.5zM377 859q0 41 25.5 66t65.5 25t66.5 -25t26.5 -66q0 -40 -27 -66.5t-66 -26.5
t-65 26.5t-26 66.5zM518 859q0 22 -14.5 36.5t-35.5 14.5t-35 -14.5t-14 -36.5t14 -37.5t35 -15.5t35.5 15.5t14.5 37.5z" />
    <glyph glyph-name="uring" unicode="&#x16f;" horiz-adv-x="563" 
d="M543 501l-115 -501h-68l23 94q-63 -100 -177 -100q-69 0 -107 38.5t-38 98.5q0 27 6 51l73 319h68l-73 -318q-5 -25 -5 -39q0 -41 22.5 -65.5t66.5 -24.5q67 0 121.5 51.5t75.5 140.5l59 255h68zM266 694q0 41 26 66.5t66 25.5t66 -25.5t26 -66.5q0 -40 -26.5 -66
t-65.5 -26t-65.5 26.5t-26.5 65.5zM407 694q0 22 -14 36.5t-35 14.5t-35 -14.5t-14 -36.5t14 -37t35 -15t35 15t14 37z" />
    <glyph glyph-name="Uhungarumlaut" unicode="&#x170;" horiz-adv-x="702" 
d="M330 -18q-108 0 -175 59.5t-67 159.5q0 27 9 68l99 431h71l-98 -428q-9 -39 -9 -71q0 -74 45 -113t124 -39q85 0 141 46t76 134l107 471h69l-106 -467q-29 -124 -103.5 -187.5t-182.5 -63.5zM356 776l75 150h65l-86 -150h-54zM477 776l74 150h66l-86 -150h-54z" />
    <glyph glyph-name="uhungarumlaut" unicode="&#x171;" horiz-adv-x="563" 
d="M543 501l-115 -501h-68l23 94q-63 -100 -177 -100q-69 0 -107 38.5t-38 98.5q0 27 6 51l73 319h68l-73 -318q-5 -25 -5 -39q0 -41 22.5 -65.5t66.5 -24.5q67 0 121.5 51.5t75.5 140.5l59 255h68zM251 602l73 155h74l-84 -155h-63zM378 602l73 155h74l-84 -155h-63z" />
    <glyph glyph-name="Uogonek" unicode="&#x172;" horiz-adv-x="702" 
d="M653 700h69l-106 -467q-29 -124 -103.5 -187.5t-182.5 -63.5h-9q-19 -19 -19 -45q0 -22 19.5 -36t48.5 -17l-11 -50q-48 5 -79.5 31t-31.5 62q0 34 25 60q-86 15 -135.5 71.5t-49.5 142.5q0 27 9 68l99 431h71l-98 -428q-9 -39 -9 -71q0 -74 45 -113t124 -39q85 0 141 46
t76 134z" />
    <glyph glyph-name="uogonek" unicode="&#x173;" horiz-adv-x="563" 
d="M431 -116l-11 -50q-48 5 -79.5 31t-31.5 62q0 53 53 80l21 87q-63 -100 -177 -100q-69 0 -107 38.5t-38 98.5q0 27 6 51l73 319h68l-73 -318q-5 -25 -5 -39q0 -41 22.5 -65.5t66.5 -24.5q67 0 121.5 51.5t75.5 140.5l59 255h68l-115 -501h-24q-41 -27 -41 -63
q0 -22 19.5 -36t48.5 -17z" />
    <glyph glyph-name="Wcircumflex" unicode="&#x174;" horiz-adv-x="958" 
d="M1020 700l-311 -700h-74l-79 597l-286 -597h-74l-65 700h69l50 -606l286 606h73l79 -606l256 606h76zM651 776l-52 92l-94 -92h-76l156 152h46l85 -152h-65z" />
    <glyph glyph-name="wcircumflex" unicode="&#x175;" horiz-adv-x="814" 
d="M845 501l-274 -501h-69l-53 397l-219 -397h-70l-65 501h69l49 -413l220 413h71l49 -413l221 413h71zM547 602l-52 91l-94 -91h-76l156 152h46l85 -152h-65z" />
    <glyph glyph-name="Ycircumflex" unicode="&#x176;" horiz-adv-x="594" 
d="M344 270l-61 -270h-71l62 272l-148 428h73l121 -366l272 366h84zM480 776l-52 92l-94 -92h-76l156 152h46l85 -152h-65z" />
    <glyph glyph-name="ycircumflex" unicode="&#x177;" horiz-adv-x="499" 
d="M466 501h74l-320 -553q-65 -112 -192 -112h-36l14 60h21q51 0 82.5 19.5t61.5 69.5l16 26l-102 490h69l78 -415zM388 602l-52 91l-94 -91h-76l156 152h46l85 -152h-65z" />
    <glyph glyph-name="Ydieresis" unicode="&#x178;" horiz-adv-x="594" 
d="M344 270l-61 -270h-71l62 272l-148 428h73l121 -366l272 366h84zM374 863l-21 -87h-80l20 87h81zM554 863l-20 -87h-81l20 87h81z" />
    <glyph glyph-name="Zacute" unicode="&#x179;" horiz-adv-x="644" 
d="M23 0l15 64l519 573h-406l15 63h494l-14 -63l-520 -573h433l-15 -64h-521zM569 885l-131 -109h-69l151 163z" />
    <glyph glyph-name="zacute" unicode="&#x17a;" horiz-adv-x="503" 
d="M13 0l14 62l374 378h-295l15 61h381l-14 -61l-375 -378h309l-14 -62h-395zM482 711l-130 -109h-69l149 162z" />
    <glyph glyph-name="Zdotaccent" unicode="&#x17b;" horiz-adv-x="644" 
d="M23 0l15 64l519 573h-406l15 63h494l-14 -63l-520 -573h433l-15 -64h-521zM500 875l-22 -99h-97l23 99h96z" />
    <glyph glyph-name="zdotaccent" unicode="&#x17c;" horiz-adv-x="503" 
d="M13 0l14 62l374 378h-295l15 61h381l-14 -61l-375 -378h309l-14 -62h-395zM402 701l-22 -99h-97l23 99h96z" />
    <glyph glyph-name="Zcaron" unicode="&#x17d;" horiz-adv-x="644" 
d="M23 0l15 64l519 573h-406l15 63h494l-14 -63l-520 -573h433l-15 -64h-521zM372 928l52 -91l95 91h75l-156 -152h-45l-85 152h64z" />
    <glyph glyph-name="zcaron" unicode="&#x17e;" horiz-adv-x="503" 
d="M13 0l14 62l374 378h-295l15 61h381l-14 -61l-375 -378h309l-14 -62h-395zM300 754l52 -92l94 92h76l-156 -152h-45l-85 152h64z" />
    <glyph glyph-name="longs" unicode="&#x17f;" horiz-adv-x="333" 
d="M62 0l102 440h-83l14 61h83l19 86q15 68 50 96t99 28h71l-14 -61h-53q-41 0 -59 -15.5t-27 -56.5l-133 -578h-69z" />
    <glyph glyph-name="florin" unicode="&#x192;" horiz-adv-x="344" 
d="M274 578l-17 -77h108l-14 -61h-108l-74 -321q-27 -119 -148 -119h-42l14 60h28q37 0 56.5 19t28.5 57l69 304h-83l14 61h83l19 86q15 68 49.5 96t99.5 28h71l-14 -61h-53q-43 0 -60.5 -15.5t-26.5 -56.5z" />
    <glyph glyph-name="Aringacute" unicode="&#x1fa;" horiz-adv-x="690" 
d="M611 1048l-105 -87h-55l121 130zM378 834q0 38 24.5 62.5t61.5 24.5q38 0 63.5 -24.5t25.5 -62.5t-25.5 -63t-63.5 -25q-36 0 -61 25t-25 63zM512 834q0 21 -14 35t-34 14t-33 -14t-13 -35q0 -20 13.5 -35t32.5 -15q20 0 34 15t14 35zM549 0l-37 198h-334l-120 -198h-79
l430 700h73l137 -700h-70zM216 261h284l-67 360z" />
    <glyph glyph-name="aringacute" unicode="&#x1fb;" horiz-adv-x="526" 
d="M530 867l-118 -99h-62l136 147zM269 641q0 36 23 59t59 23t59.5 -23t23.5 -59t-24 -60t-59 -24t-58.5 24t-23.5 60zM396 641q0 19 -13 32.5t-32 13.5t-31.5 -13t-12.5 -33t12.5 -34t31.5 -14t32 14t13 34zM308 510q80 0 124.5 -35t44.5 -97q0 -22 -9 -63l-72 -315h-67
l20 84q-26 -43 -77 -69t-106 -26q-62 0 -102 34t-40 97q0 65 43 107t122 54l130 20q46 6 68 20t22 52q0 76 -105 76q-115 0 -147 -89h-70q22 72 80 111t141 39zM286 241l-58 -8q-65 -9 -101 -33t-36 -73q0 -77 90 -77q64 0 122 47t75 125l10 43q-36 -15 -102 -24z" />
    <glyph glyph-name="AEacute" unicode="&#x1fc;" horiz-adv-x="973" 
d="M1000 637h-359l-58 -251h327l-15 -64h-326l-59 -258h377l-14 -64h-449l47 206h-271l-145 -206h-76l493 700h542zM486 270l88 381h-63l-267 -381h242zM801 885l-131 -109h-69l151 163z" />
    <glyph glyph-name="aeacute" unicode="&#x1fd;" horiz-adv-x="868" 
d="M819 234h-366q-2 -32 -2 -37q0 -66 36.5 -105t99.5 -39q98 0 137 91h67q-61 -155 -212 -155t-183 141q-68 -141 -230 -141q-62 0 -102 34t-40 97q0 65 43 107t122 54l130 20q46 6 68 20t22 52q0 76 -105 76q-115 0 -147 -89h-70q22 72 80 111t141 39q128 0 157 -84
q73 84 185 84q86 0 133.5 -51t47.5 -136q0 -43 -12 -89zM464 292h295q4 17 4 40q0 55 -32.5 86.5t-89.5 31.5q-66 0 -110.5 -42.5t-66.5 -115.5zM378 222l10 43q-36 -15 -102 -24l-58 -8q-65 -9 -101 -33t-36 -73q0 -77 90 -77q64 0 122 47t75 125zM660 711l-130 -109h-69
l149 162z" />
    <glyph glyph-name="Oslashacute" unicode="&#x1fe;" horiz-adv-x="783" 
d="M751 393q2 -170 -102 -292t-267 -119q-100 0 -168 49l-53 -73l-44 33l55 75q-85 91 -85 240q-2 110 43 204t131 151.5t195 55.5q87 0 157 -41l49 67l44 -33l-49 -68q94 -89 94 -249zM214 125l359 495q-53 30 -120 30q-134 0 -214 -96t-80 -244q0 -117 55 -185zM679 389
q0 126 -64 196l-361 -498q53 -38 131 -38q134 0 214 96t80 244zM631 885l-131 -109h-69l151 163z" />
    <glyph glyph-name="oslashacute" unicode="&#x1ff;" horiz-adv-x="565" 
d="M517 287q2 -121 -73.5 -210.5t-189.5 -87.5q-64 0 -107 27l-52 -72l-44 33l54 74q-52 59 -52 161q-2 121 73.5 210.5t189.5 87.5q60 0 104 -25l45 62l44 -32l-46 -64q54 -60 54 -164zM148 111l232 319q-30 18 -71 18q-79 2 -134 -68.5t-53 -162.5q0 -62 26 -106zM448 280
q0 67 -29 111l-232 -320q32 -20 74 -20q81 0 134 67.5t53 161.5zM481 711l-130 -109h-69l149 162z" />
    <glyph glyph-name="uni0218" unicode="&#x218;" horiz-adv-x="610" 
d="M51 223h76q-2 -18 -2 -22q0 -62 46.5 -108t132.5 -46q76 0 122 37t46 96q0 38 -19 63q-17 24 -43.5 39.5t-85.5 39.5q-63 26 -102 48q-91 52 -91 153q0 89 61.5 141.5t168.5 52.5q109 0 173.5 -54.5t69.5 -141.5h-73q-4 57 -50 94.5t-122 37.5q-73 0 -115.5 -35
t-42.5 -94q0 -37 19 -62q19 -23 48 -39.5t90 -41.5q64 -27 102 -48q88 -48 88 -145q0 -93 -74 -149.5t-180 -56.5q-59 0 -107 19.5t-77 51t-44.5 69t-15.5 76.5q0 18 1 25zM313 -78l-21 -92q-18 -78 -60 -114.5t-118 -45.5l-4 44q57 8 86.5 35.5t38.5 79.5h-43l22 93h99z
" />
    <glyph glyph-name="uni0219" unicode="&#x219;" horiz-adv-x="486" 
d="M421 145q0 -72 -58.5 -114t-139.5 -42q-80 0 -137.5 44.5t-60.5 120.5h71q5 -49 41.5 -76.5t90.5 -27.5q52 0 87.5 23t35.5 62q0 30 -24.5 48t-80.5 35q-49 15 -83 30q-77 38 -77 117q0 69 53 107t133 38q81 0 133 -39q53 -39 55 -111h-69q-5 42 -38 66t-85 24
q-50 0 -81 -22t-31 -60q3 -37 26.5 -52.5t85.5 -35.5q48 -14 80 -29q73 -31 73 -106zM243 -78l-21 -92q-18 -78 -60 -114.5t-118 -45.5l-4 44q57 8 86.5 35.5t38.5 79.5h-43l22 93h99z" />
    <glyph glyph-name="uni021A" unicode="&#x21a;" horiz-adv-x="618" 
d="M690 700l-15 -63h-239l-147 -637h-71l147 637h-238l14 63h549zM284 -78l-21 -92q-18 -78 -60 -114.5t-118 -45.5l-4 44q57 8 86.5 35.5t38.5 79.5h-43l22 93h99z" />
    <glyph glyph-name="uni021B" unicode="&#x21b;" horiz-adv-x="356" 
d="M261 0h-64q-52 0 -80.5 22t-28.5 64q0 13 5 38l72 316h-99l14 61h98l33 141l73 19l-37 -160h118l-13 -61h-119l-69 -301q-5 -25 -5 -36q0 -41 52 -41h64zM213 -78l-21 -92q-18 -78 -60 -114.5t-118 -45.5l-4 44q57 8 86.5 35.5t38.5 79.5h-43l22 93h99z" />
    <glyph glyph-name="circumflex" unicode="&#x2c6;" horiz-adv-x="287" 
d="M303 602l-52 91l-94 -91h-76l156 152h46l85 -152h-65z" />
    <glyph glyph-name="caron" unicode="&#x2c7;" horiz-adv-x="286" 
d="M180 754l52 -92l94 92h76l-156 -152h-45l-85 152h64z" />
    <glyph glyph-name="uni02C9" unicode="&#x2c9;" horiz-adv-x="300" 
d="M134 829h299l-12 -53h-299z" />
    <glyph glyph-name="breve" unicode="&#x2d8;" horiz-adv-x="211" 
d="M318 726q0 -46 -33 -85t-94 -39q-44 0 -66.5 20.5t-22.5 54.5q0 31 17 63h47q-14 -36 -14 -50q0 -43 48 -43q31 0 48.5 24t17.5 59v10h51q1 -3 1 -14z" />
    <glyph glyph-name="dotaccent" unicode="&#x2d9;" horiz-adv-x="97" 
d="M200 701l-22 -99h-97l23 99h96z" />
    <glyph glyph-name="ring" unicode="&#x2da;" horiz-adv-x="189" 
d="M105 694q0 41 26 66.5t66 25.5t66 -25.5t26 -66.5q0 -40 -26.5 -66t-65.5 -26t-65.5 26.5t-26.5 65.5zM246 694q0 22 -14 36.5t-35 14.5t-35 -14.5t-14 -36.5t14 -37t35 -15t35 15t14 37z" />
    <glyph glyph-name="ogonek" unicode="&#x2db;" horiz-adv-x="134" 
d="M49 -116l-11 -50q-48 5 -79.5 31t-31.5 62q0 53 53 80h53q-52 -31 -52 -70q0 -22 19.5 -36t48.5 -17z" />
    <glyph glyph-name="tilde" unicode="&#x2dc;" horiz-adv-x="276" 
d="M298 602q-27 0 -72 35q-34 26 -51 26q-33 0 -43 -57h-47q4 56 28 88t59 32q25 0 72 -35q34 -28 51 -28q35 0 42 61h43q0 -56 -23.5 -89t-58.5 -33z" />
    <glyph glyph-name="hungarumlaut" unicode="&#x2dd;" horiz-adv-x="238" 
d="M81 602l73 155h74l-84 -155h-63zM208 602l73 155h74l-84 -155h-63z" />
    <glyph glyph-name="uni0394" unicode="&#x394;" horiz-adv-x="687" 
d="M-21 0l15 66l427 634h72l138 -634l-16 -66h-636zM72 65h488l-117 558z" />
    <glyph glyph-name="uni0394" unicode="&#x3b4;" horiz-adv-x="687" 
d="M-21 0l15 66l427 634h72l138 -634l-16 -66h-636zM72 65h488l-117 558z" />
    <glyph glyph-name="uni03A9" unicode="&#x3a9;" horiz-adv-x="770" 
d="M88 0l15 65h151l17 72q-82 30 -126 98t-44 153q-1 61 24.5 120.5t71.5 106.5t116 75t152 27q140 0 218 -72.5t78 -180.5q0 -110 -80.5 -205t-217.5 -125l-15 -69h151l-15 -65h-215l41 177q83 10 149 55.5t99 105.5t32 121q0 85 -60 140.5t-170 55.5q-132 0 -210.5 -78.5
t-78.5 -185.5q0 -77 44 -139q45 -60 128 -77l-41 -175h-214z" />
    <glyph glyph-name="uni03A9" unicode="&#x3c9;" horiz-adv-x="770" 
d="M88 0l15 65h151l17 72q-82 30 -126 98t-44 153q-1 61 24.5 120.5t71.5 106.5t116 75t152 27q140 0 218 -72.5t78 -180.5q0 -110 -80.5 -205t-217.5 -125l-15 -69h151l-15 -65h-215l41 177q83 10 149 55.5t99 105.5t32 121q0 85 -60 140.5t-170 55.5q-132 0 -210.5 -78.5
t-78.5 -185.5q0 -77 44 -139q45 -60 128 -77l-41 -175h-214z" />
    <glyph glyph-name="uni03BC" unicode="&#x3bc;" horiz-adv-x="634" 
d="M-15 -192l162 698h68l-72 -315q-6 -29 -6 -51q0 -44 27.5 -67t76.5 -23q61 0 109 46t66 129l65 281h68l-92 -395q-3 -12 -3 -21q0 -32 37 -32h21l-13 -58h-42q-71 0 -79 59q-54 -70 -158 -70q-81 0 -111 59l-55 -240h-69z" />
    <glyph glyph-name="pi" unicode="&#x3c0;" horiz-adv-x="695" 
d="M135 0l101 441h-135l14 60h358q151 0 232 43l-15 -68q-54 -28 -159 -35l-72 -310q-4 -13 -4 -30q0 -42 55 -42h31l-14 -59h-47q-93 0 -93 83q0 29 4 44l73 314h-160l-102 -441h-67z" />
    <glyph glyph-name="uni1E02" unicode="&#x1e02;" horiz-adv-x="677" 
d="M608 221q0 -96 -78.5 -158.5t-205.5 -62.5h-279l161 700h274q79 0 124 -41.5t45 -106.5q0 -58 -41 -111q-40 -52 -111 -70q53 -15 82 -53.5t29 -96.5zM207 401h198q75 0 122.5 41.5t47.5 98.5q0 44 -33 70t-93 26h-188zM532 220q0 57 -33 88t-95 31h-212l-62 -275h207
q90 0 142.5 42.5t52.5 113.5zM482 875l-22 -99h-97l23 99h96z" />
    <glyph glyph-name="uni1E03" unicode="&#x1e03;" horiz-adv-x="593" 
d="M548 298q1 -74 -31 -145.5t-93 -118.5t-135 -45q-59 0 -103.5 29t-65.5 82l-23 -100h-68l164 711h68l-64 -280q28 37 72.5 58t95.5 21q85 0 134 -61t49 -151zM479 287q0 70 -36 114.5t-100 44.5q-85 2 -140.5 -71t-53.5 -163q0 -71 36 -116.5t100 -45.5q55 -2 101 34.5
t70 91.5t23 111zM482 701l-22 -99h-97l23 99h96z" />
    <glyph glyph-name="uni1E0A" unicode="&#x1e0a;" horiz-adv-x="706" 
d="M681 411q1 -74 -28.5 -148t-83 -133.5t-136 -95.5t-178.5 -34h-210l161 700h184q139 0 215 -82t76 -207zM606 410q0 100 -57.5 163.5t-166.5 63.5h-120l-131 -573h125q78 -2 146 28.5t112 80.5t68.5 112.5t23.5 124.5zM464 875l-22 -99h-97l23 99h96z" />
    <glyph glyph-name="uni1E0B" unicode="&#x1e0b;" horiz-adv-x="596" 
d="M620 711l-164 -711h-67l18 82q-24 -43 -69 -68t-101 -25q-89 0 -138 61.5t-49 154.5q-1 75 30.5 145t94.5 116t140 44q64 0 107 -29.5t59 -76.5l71 307h68zM450 293q0 71 -35.5 114.5t-100.5 43.5q-84 3 -140.5 -74t-55.5 -167q0 -71 35 -115t100 -44q84 -2 141 74.5
t56 167.5zM385 701l-22 -99h-97l23 99h96z" />
    <glyph glyph-name="uni1E1E" unicode="&#x1e1e;" horiz-adv-x="573" 
d="M45 0l161 700h429l-15 -63h-358l-58 -251h332l-15 -64h-332l-73 -322h-71zM491 875l-22 -99h-97l23 99h96z" />
    <glyph glyph-name="uni1E1F" unicode="&#x1e1f;" horiz-adv-x="323" 
d="M62 0l102 440h-83l14 61h83l19 86q15 68 49.5 96t99.5 28h71l-14 -61h-53q-43 0 -60.5 -15.5t-26.5 -56.5l-17 -77h108l-14 -61h-108l-102 -440h-68zM415 875l-22 -99h-97l23 99h96z" />
    <glyph glyph-name="uni1E40" unicode="&#x1e40;" horiz-adv-x="881" 
d="M889 700l-158 -700h-69l139 617l-384 -617h-56l-105 621l-139 -621h-68l157 700h105l100 -595l365 595h113zM602 875l-22 -99h-97l23 99h96z" />
    <glyph glyph-name="uni1E41" unicode="&#x1e41;" horiz-adv-x="844" 
d="M798 388q0 -15 -5 -37l-79 -351h-68l74 327q5 25 5 37q0 40 -21.5 63t-64.5 23q-61 0 -106.5 -48t-64.5 -133l-61 -269h-68l73 327q5 25 5 38q0 39 -21.5 62t-64.5 23q-60 0 -105.5 -48.5t-64.5 -131.5l-62 -270h-68l114 501h66l-18 -80q54 89 156 89q57 0 93 -28.5
t38 -76.5q22 49 68.5 77t107.5 28q68 0 105 -33.5t37 -88.5zM575 701l-22 -99h-97l23 99h96z" />
    <glyph glyph-name="uni1E56" unicode="&#x1e56;" horiz-adv-x="611" 
d="M206 700h237q86 0 135 -51t49 -125q2 -90 -70.5 -160t-188.5 -68h-185l-68 -296h-70zM261 637l-64 -279h183q79 0 127 48t48 111q0 54 -33.5 87t-94.5 33h-166zM464 875l-22 -99h-97l23 99h96z" />
    <glyph glyph-name="uni1E57" unicode="&#x1e57;" horiz-adv-x="592" 
d="M548 302q2 -73 -31 -144t-94.5 -118t-134.5 -45q-58 0 -102 29.5t-63 82.5l-69 -299h-68l159 693h70l-18 -74q64 83 171 83q84 0 132 -60t48 -148zM152 219q0 -72 35.5 -117t100.5 -45q81 -3 137 72.5t55 164.5q0 69 -33.5 111t-97.5 42q-86 2 -142.5 -69.5t-54.5 -158.5
zM447 701l-22 -99h-97l23 99h96z" />
    <glyph glyph-name="uni1E60" unicode="&#x1e60;" horiz-adv-x="610" 
d="M51 223h76q-2 -18 -2 -22q0 -62 46.5 -108t132.5 -46q76 0 122 37t46 96q0 38 -19 63q-17 24 -43.5 39.5t-85.5 39.5q-63 26 -102 48q-91 52 -91 153q0 89 61.5 141.5t168.5 52.5q109 0 173.5 -54.5t69.5 -141.5h-73q-4 57 -50 94.5t-122 37.5q-73 0 -115.5 -35
t-42.5 -94q0 -37 19 -62q19 -23 48 -39.5t90 -41.5q64 -27 102 -48q88 -48 88 -145q0 -93 -74 -149.5t-180 -56.5q-59 0 -107 19.5t-77 51t-44.5 69t-15.5 76.5q0 18 1 25zM479 875l-22 -99h-97l23 99h96z" />
    <glyph glyph-name="uni1E61" unicode="&#x1e61;" horiz-adv-x="486" 
d="M421 145q0 -72 -58.5 -114t-139.5 -42q-80 0 -137.5 44.5t-60.5 120.5h71q5 -49 41.5 -76.5t90.5 -27.5q52 0 87.5 23t35.5 62q0 30 -24.5 48t-80.5 35q-49 15 -83 30q-77 38 -77 117q0 69 53 107t133 38q81 0 133 -39q53 -39 55 -111h-69q-5 42 -38 66t-85 24
q-50 0 -81 -22t-31 -60q3 -37 26.5 -52.5t85.5 -35.5q48 -14 80 -29q73 -31 73 -106zM367 701l-22 -99h-97l23 99h96z" />
    <glyph glyph-name="uni1E6A" unicode="&#x1e6a;" horiz-adv-x="618" 
d="M690 700l-15 -63h-239l-147 -637h-71l147 637h-238l14 63h549zM501 875l-22 -99h-97l23 99h96z" />
    <glyph glyph-name="uni1E6B" unicode="&#x1e6b;" horiz-adv-x="356" 
d="M261 0h-64q-52 0 -80.5 22t-28.5 64q0 13 5 38l72 316h-99l14 61h98l33 141l73 19l-37 -160h118l-13 -61h-119l-69 -301q-5 -25 -5 -36q0 -41 52 -41h64zM323 799l-22 -99h-97l23 99h96z" />
    <glyph glyph-name="Wgrave" unicode="&#x1e80;" horiz-adv-x="958" 
d="M1020 700l-311 -700h-74l-79 597l-286 -597h-74l-65 700h69l50 -606l286 606h73l79 -606l256 606h76zM542 776l-70 160l68 21l54 -181h-52z" />
    <glyph glyph-name="wgrave" unicode="&#x1e81;" horiz-adv-x="814" 
d="M845 501l-274 -501h-69l-53 397l-219 -397h-70l-65 501h69l49 -413l220 413h71l49 -413l221 413h71zM444 602l-70 159l65 25l57 -184h-52z" />
    <glyph glyph-name="Wacute" unicode="&#x1e82;" horiz-adv-x="958" 
d="M1020 700l-311 -700h-74l-79 597l-286 -597h-74l-65 700h69l50 -606l286 606h73l79 -606l256 606h76zM757 885l-131 -109h-69l151 163z" />
    <glyph glyph-name="wacute" unicode="&#x1e83;" horiz-adv-x="814" 
d="M845 501l-274 -501h-69l-53 397l-219 -397h-70l-65 501h69l49 -413l220 413h71l49 -413l221 413h71zM650 711l-130 -109h-69l149 162z" />
    <glyph glyph-name="Wdieresis" unicode="&#x1e84;" horiz-adv-x="958" 
d="M1020 700l-311 -700h-74l-79 597l-286 -597h-74l-65 700h69l50 -606l286 606h73l79 -606l256 606h76zM553 863l-21 -87h-80l20 87h81zM733 863l-20 -87h-81l20 87h81z" />
    <glyph glyph-name="wdieresis" unicode="&#x1e85;" horiz-adv-x="814" 
d="M845 501l-274 -501h-69l-53 397l-219 -397h-70l-65 501h69l49 -413l220 413h71l49 -413l221 413h71zM454 689l-20 -87h-81l21 87h80zM634 689l-20 -87h-81l21 87h80z" />
    <glyph glyph-name="Ygrave" unicode="&#x1ef2;" horiz-adv-x="594" 
d="M344 270l-61 -270h-71l62 272l-148 428h73l121 -366l272 366h84zM356 776l-70 160l68 21l54 -181h-52z" />
    <glyph glyph-name="ygrave" unicode="&#x1ef3;" horiz-adv-x="499" 
d="M466 501h74l-320 -553q-65 -112 -192 -112h-36l14 60h21q51 0 82.5 19.5t61.5 69.5l16 26l-102 490h69l78 -415zM294 602l-70 159l65 25l57 -184h-52z" />
    <glyph glyph-name="endash" unicode="&#x2013;" horiz-adv-x="561" 
d="M517 263h-467l14 60h467z" />
    <glyph glyph-name="emdash" unicode="&#x2014;" horiz-adv-x="1027" 
d="M983 263h-933l14 60h933z" />
    <glyph glyph-name="quoteleft" unicode="&#x2018;" horiz-adv-x="229" 
d="M90 479l21 92q18 78 60 114.5t118 45.5l4 -44q-57 -8 -86.5 -35.5t-38.5 -79.5h43l-22 -93h-99z" />
    <glyph glyph-name="quoteright" unicode="&#x2019;" horiz-adv-x="229" 
d="M297 706l-21 -92q-18 -78 -60 -114.5t-118 -45.5l-4 44q57 8 86.5 35.5t38.5 79.5h-43l22 93h99z" />
    <glyph glyph-name="quotesinglbase" unicode="&#x201a;" horiz-adv-x="229" 
d="M157 99l-21 -92q-18 -78 -60 -114.5t-118 -45.5l-4 44q57 8 86.5 35.5t38.5 79.5h-43l22 93h99z" />
    <glyph glyph-name="quotedblleft" unicode="&#x201c;" horiz-adv-x="425" 
d="M90 479l21 92q18 78 60 114.5t118 45.5l4 -44q-57 -8 -86.5 -35.5t-38.5 -79.5h43l-22 -93h-99zM286 479l21 92q18 78 60 114.5t118 45.5l4 -44q-57 -8 -86.5 -35.5t-38.5 -79.5h43l-22 -93h-99z" />
    <glyph glyph-name="quotedblright" unicode="&#x201d;" horiz-adv-x="425" 
d="M299 712l-21 -92q-18 -78 -60 -114.5t-118 -45.5l-4 44q57 8 86.5 35.5t38.5 79.5h-43l22 93h99zM495 713l-21 -92q-18 -78 -60 -114.5t-118 -45.5l-4 44q57 8 86.5 35.5t38.5 79.5h-43l22 93h99z" />
    <glyph glyph-name="quotedblbase" unicode="&#x201e;" horiz-adv-x="426" 
d="M157 99l-21 -92q-18 -78 -60 -114.5t-118 -45.5l-4 44q57 8 86.5 35.5t38.5 79.5h-43l22 93h99zM354 99l-21 -92q-18 -78 -60 -114.5t-118 -45.5l-4 44q57 8 86.5 35.5t38.5 79.5h-43l22 93h99z" />
    <glyph glyph-name="dagger" unicode="&#x2020;" horiz-adv-x="511" 
d="M260 419h-174l15 65h174l50 216h69l-50 -216h174l-15 -65h-174l-119 -512h-69z" />
    <glyph glyph-name="daggerdbl" unicode="&#x2021;" horiz-adv-x="511" 
d="M505 429h-174l-58 -251h174l-15 -65h-174l-48 -206h-69l48 206h-174l15 65h174l58 251h-174l15 65h174l48 206h69l-48 -206h174z" />
    <glyph glyph-name="bullet" unicode="&#x2022;" horiz-adv-x="270" 
d="M227 358l-31 -137h-135l31 137h135z" />
    <glyph glyph-name="ellipsis" unicode="&#x2026;" horiz-adv-x="942" 
d="M181 98l-24 -98h-93l23 98h94zM483 98l-23 -98h-94l24 98h93zM785 98l-23 -98h-93l23 98h93z" />
    <glyph glyph-name="perthousand" unicode="&#x2030;" horiz-adv-x="1337" 
d="M1093 318q73 0 121 -46.5t48 -120.5q0 -72 -48.5 -119.5t-120.5 -47.5q-69 0 -117 48t-48 119q0 73 47.5 120t117.5 47zM1094 262q-45 0 -73.5 -30.5t-28.5 -79.5t28.5 -80.5t73.5 -31.5t74.5 31.5t29.5 80.5q0 48 -29.5 79t-74.5 31zM285 713q73 0 121 -46.5t48 -120.5
q0 -72 -48.5 -119.5t-120.5 -47.5q-69 0 -117 47.5t-48 119.5q0 73 47.5 120t117.5 47zM839 700l-601 -700h-76l602 700h75zM286 657q-45 0 -73.5 -30.5t-28.5 -79.5t28.5 -80.5t73.5 -31.5t74.5 31.5t29.5 80.5q0 48 -29.5 79t-74.5 31zM701 318q73 0 121 -46.5t48 -120.5
q0 -72 -48.5 -119.5t-120.5 -47.5q-69 0 -117 48t-48 119q0 73 47.5 120t117.5 47zM702 262q-45 0 -73.5 -30.5t-28.5 -79.5t28.5 -80.5t73.5 -31.5t74.5 31.5t29.5 80.5q0 48 -29.5 79t-74.5 31z" />
    <glyph glyph-name="guilsinglleft" unicode="&#x2039;" horiz-adv-x="348" 
d="M143 285l104 -159l-54 -36l-131 203l215 194l40 -51z" />
    <glyph glyph-name="guilsinglright" unicode="&#x203a;" horiz-adv-x="348" 
d="M220 282l-104 159l54 36l131 -203l-215 -194l-40 51z" />
    <glyph glyph-name="fraction" unicode="&#x2044;" horiz-adv-x="661" 
d="M695 700l-582 -700h-81l583 700h80z" />
    <glyph glyph-name="Euro" unicode="&#x20ac;" horiz-adv-x="633" 
d="M643 472h-70q2 24 2 27q0 65 -41 101.5t-109 36.5q-72 0 -123.5 -47.5t-79.5 -131.5h258l-15 -61h-260q-10 -42 -13 -98h251l-14 -61h-238q7 -185 166 -185q73 0 116.5 45.5t55.5 128.5h70q-18 -116 -84 -177t-165 -61q-107 0 -164.5 63t-62.5 186h-98l14 61h85
q3 50 12 98h-75l15 61h75q35 113 107 177.5t175 64.5q97 0 155 -50t58 -138q0 -19 -3 -40z" />
    <glyph glyph-name="uni2113" unicode="&#x2113;" horiz-adv-x="400" 
d="M142 85q0 -42 37 -42q27 0 64.5 27.5t69.5 71.5l21 -19q-88 -134 -182 -134q-36 0 -57.5 22.5t-21.5 61.5q0 21 7 50l59 256l-82 -43l12 52l81 41l29 129q17 74 60 113.5t97 39.5q42 0 70.5 -23t28.5 -65q0 -46 -32.5 -90.5t-94.5 -76.5l-95 -50l-68 -296q-3 -14 -3 -25z
M225 459l49 25q107 56 107 128q0 26 -13.5 40t-35.5 14q-27 0 -48.5 -23t-30.5 -62z" />
    <glyph glyph-name="uni2116" unicode="&#x2116;" horiz-adv-x="1148" 
d="M660 700h69l-160 -700h-74l-241 608l-139 -608h-68l159 700h86l232 -592zM986 717q73 0 121 -46.5t48 -120.5q0 -72 -48.5 -119.5t-120.5 -47.5q-70 0 -117.5 47.5t-47.5 119.5q0 73 47.5 120t117.5 47zM987 661q-45 0 -73.5 -30.5t-28.5 -79.5t28.5 -80.5t73.5 -31.5
t74.5 31.5t29.5 80.5q0 48 -29.5 79t-74.5 31z" />
    <glyph glyph-name="trademark" unicode="&#x2122;" horiz-adv-x="729" 
d="M154 655h263l-10 -43h-108l-57 -248h-46l57 248h-109zM771 655l-67 -291h-47l56 241l-145 -241h-49l-33 241l-56 -241h-46l67 291h74l29 -233l138 233h79z" />
    <glyph glyph-name="estimated" unicode="&#x212e;" horiz-adv-x="526" 
d="M410 141h43q-9 -73 -60 -112.5t-126 -39.5q-91 0 -150.5 62t-59.5 179q0 119 59 183.5t149 64.5q82 0 137.5 -53t55.5 -147q0 -32 -3 -48h-323v-121q42 -80 139 -80q118 0 139 112zM132 273h241v112q-36 53 -108 53q-41 0 -77 -19t-56 -53v-93z" />
    <glyph glyph-name="uni2153" unicode="&#x2153;" horiz-adv-x="1097" 
d="M928 700l-582 -700h-81l583 700h80zM412 328l-13 -58h-292l13 58h113l65 279q-51 -29 -107 -35l14 60q62 10 119 55h56l-84 -359h116zM680 134h65l-1 -10q0 -72 73 -72q40 0 64.5 19t24.5 51q0 61 -81 61h-26l14 57h18q49 0 79 21.5t30 55.5q0 50 -67 50q-84 0 -94 -82
h-64q6 70 53 106q47 37 108 37q57 0 93.5 -28.5t36.5 -75.5q0 -41 -27.5 -72t-70.5 -41q30 -7 47.5 -29.5t17.5 -57.5q0 -56 -46.5 -94t-112.5 -38q-61 0 -98.5 32t-37.5 86q0 2 2 24z" />
    <glyph glyph-name="uni2154" unicode="&#x2154;" horiz-adv-x="1098" 
d="M681 134h65l-1 -10q0 -72 73 -72q40 0 64.5 19t24.5 51q0 61 -81 61h-26l14 57h18q49 0 79 21.5t30 55.5q0 50 -67 50q-84 0 -94 -82h-64q6 70 53 106q47 37 108 37q57 0 93.5 -28.5t36.5 -75.5q0 -41 -27.5 -72t-70.5 -41q30 -7 47.5 -29.5t17.5 -57.5q0 -56 -46.5 -94
t-112.5 -38q-61 0 -98.5 32t-37.5 86q0 2 2 24zM936 700l-582 -700h-81l583 700h80zM230 329h209l-14 -58h-295l13 54l111 91q19 16 50 40q57 44 77.5 69t20.5 54q0 28 -17.5 44t-49.5 16q-39 0 -65.5 -22.5t-32.5 -61.5h-64q11 71 58 108q49 37 111 37q57 0 91.5 -31.5
t34.5 -82.5q0 -33 -17 -62q-15 -26 -39.5 -49t-79.5 -66l-33 -26z" />
    <glyph glyph-name="uni2155" unicode="&#x2155;" horiz-adv-x="1066" 
d="M909 700l-582 -700h-81l583 700h80zM412 328l-13 -58h-292l13 58h113l65 279q-51 -29 -107 -35l14 60q62 10 119 55h56l-84 -359h116zM647 131h66q-1 -3 -1 -13q0 -32 20.5 -48.5t57.5 -16.5q42 0 67 26t25 65q0 33 -19.5 52.5t-50.5 19.5q-39 0 -74 -28h-60l70 228h223
l-13 -59h-170l-32 -108q29 24 73 24q55 0 86.5 -34t31.5 -87q0 -64 -43.5 -112t-113.5 -48q-65 0 -105 33.5t-40 86.5q0 3 2 19z" />
    <glyph glyph-name="uni2156" unicode="&#x2156;" horiz-adv-x="1084" 
d="M927 700l-582 -700h-81l583 700h80zM665 131h66q-1 -3 -1 -13q0 -32 20.5 -48.5t57.5 -16.5q42 0 67 26t25 65q0 33 -19.5 52.5t-50.5 19.5q-39 0 -74 -28h-60l70 228h223l-13 -59h-170l-32 -108q28 24 73 24q55 0 86.5 -34t31.5 -87q0 -64 -43.5 -112t-113.5 -48
q-65 0 -105 33.5t-40 86.5q0 3 2 19zM230 329h209l-14 -58h-295l13 54l111 91q19 16 50 40q57 44 77.5 69t20.5 54q0 28 -17.5 44t-49.5 16q-39 0 -65.5 -22.5t-32.5 -61.5h-64q11 71 58 108q49 37 111 37q57 0 91.5 -31.5t34.5 -82.5q0 -33 -17 -62q-15 -26 -39.5 -49
t-79.5 -66l-33 -26z" />
    <glyph glyph-name="uni2157" unicode="&#x2157;" horiz-adv-x="1052" 
d="M896 700l-582 -700h-81l583 700h80zM633 131h66q-1 -3 -1 -13q0 -32 20.5 -48.5t57.5 -16.5q42 0 67 26t25 65q0 33 -19.5 52.5t-50.5 19.5q-39 0 -74 -28h-60l70 228h223l-13 -59h-170l-32 -108q28 24 73 24q55 0 86.5 -34t31.5 -87q0 -64 -43.5 -112t-113.5 -48
q-65 0 -105 33.5t-40 86.5q0 3 2 19zM140 406h65l-1 -10q0 -72 73 -72q40 0 64.5 19t24.5 51q0 61 -81 61h-26l14 57h18q49 0 79 21.5t30 55.5q0 50 -67 50q-84 0 -94 -82h-64q6 70 53 106q47 37 108 37q57 0 93.5 -28.5t36.5 -75.5q0 -41 -27.5 -72t-70.5 -41
q30 -7 47.5 -29.5t17.5 -57.5q0 -56 -46.5 -94t-112.5 -38q-61 0 -98.5 32t-37.5 86q0 2 2 24z" />
    <glyph glyph-name="uni2158" unicode="&#x2158;" horiz-adv-x="1091" 
d="M925 700l-582 -700h-81l583 700h80zM672 131h66q-1 -3 -1 -13q0 -32 20.5 -48.5t57.5 -16.5q42 0 67 26t25 65q0 33 -19.5 52.5t-50.5 19.5q-39 0 -74 -28h-60l70 228h223l-13 -59h-170l-32 -108q29 24 73 24q55 0 86.5 -34t31.5 -87q0 -64 -43.5 -112t-113.5 -48
q-65 0 -105 33.5t-40 86.5q0 3 2 19zM470 414l-12 -59h-67l-19 -84h-64l20 85h-202l12 52l246 280h84l-64 -274h66zM388 613l-177 -199h131z" />
    <glyph glyph-name="uni2159" unicode="&#x2159;" horiz-adv-x="1093" 
d="M921 700l-582 -700h-81l583 700h80zM412 328l-13 -58h-292l13 58h113l65 279q-51 -29 -107 -35l14 60q62 10 119 55h56l-84 -359h116zM1002 309h-66q-4 27 -23.5 42.5t-48.5 15.5q-47 0 -84.5 -39t-43.5 -108q35 58 114 58q56 0 90 -32.5t34 -91.5q0 -70 -44.5 -116
t-113.5 -46q-70 0 -107.5 47.5t-37.5 135.5q0 112 58 182.5t141 70.5q57 0 93.5 -32.5t38.5 -86.5zM742 131q0 -36 22 -56t57 -20t61 24t26 65q0 35 -20.5 55t-51.5 20q-39 0 -66.5 -24t-27.5 -64z" />
    <glyph glyph-name="uni215A" unicode="&#x215a;" horiz-adv-x="1070" 
d="M898 700l-582 -700h-81l583 700h80zM979 309h-66q-4 27 -23.5 42.5t-48.5 15.5q-47 0 -84.5 -39t-43.5 -108q35 58 114 58q56 0 90 -32.5t34 -91.5q0 -70 -44.5 -116t-113.5 -46q-70 0 -107.5 47.5t-37.5 135.5q0 112 58 182.5t141 70.5q57 0 93.5 -32.5t38.5 -86.5z
M719 131q0 -36 22 -56t57 -20t61 24t26 65q0 35 -20.5 55t-51.5 20q-39 0 -66.5 -24t-27.5 -64zM137 403h66q-1 -3 -1 -13q0 -32 20.5 -48.5t57.5 -16.5q42 0 67 26t25 65q0 33 -19.5 52.5t-50.5 19.5q-39 0 -74 -28h-60l70 228h223l-13 -59h-170l-32 -108q28 24 73 24
q55 0 86.5 -34t31.5 -87q0 -64 -43.5 -112t-113.5 -48q-65 0 -105 33.5t-40 86.5q0 3 2 19z" />
    <glyph glyph-name="oneeighth" unicode="&#x215b;" horiz-adv-x="1083" 
d="M910 700l-582 -700h-81l583 700h80zM412 328l-13 -58h-292l13 58h113l65 279q-51 -29 -107 -35l14 60q62 10 119 55h56l-84 -359h116zM902 218q57 -27 57 -92q0 -61 -46.5 -97.5t-111.5 -36.5q-58 0 -96.5 30.5t-38.5 82.5q0 44 27 74.5t73 42.5q-53 26 -53 86
q0 56 42 88q44 32 102 32q56 0 92.5 -28.5t36.5 -77.5q0 -37 -23 -64t-61 -40zM841 245q34 0 56.5 17.5t22.5 47.5q0 27 -18 42t-48 15q-32 0 -54 -18t-22 -49q0 -27 17.5 -41t45.5 -14zM893 127q0 31 -20 47.5t-53 16.5q-37 0 -62 -20.5t-25 -55.5q0 -62 72 -62
q38 0 63 19.5t25 54.5z" />
    <glyph glyph-name="threeeighths" unicode="&#x215c;" horiz-adv-x="1058" 
d="M895 700l-582 -700h-81l583 700h80zM877 218q57 -27 57 -92q0 -61 -46.5 -97.5t-111.5 -36.5q-58 0 -96.5 30.5t-38.5 82.5q0 44 27 74.5t73 42.5q-53 26 -53 86q0 56 42 88q44 32 102 32q56 0 92.5 -28.5t36.5 -77.5q0 -37 -23 -64t-61 -40zM816 245q34 0 56.5 17.5
t22.5 47.5q0 27 -18 42t-48 15q-32 0 -54 -18t-22 -49q0 -27 17.5 -41t45.5 -14zM868 127q0 31 -20 47.5t-53 16.5q-37 0 -62 -20.5t-25 -55.5q0 -62 72 -62q38 0 63 19.5t25 54.5zM140 406h65l-1 -10q0 -72 73 -72q40 0 64.5 19t24.5 51q0 61 -81 61h-26l14 57h18
q49 0 79 21.5t30 55.5q0 50 -67 50q-84 0 -94 -82h-64q6 70 53 106q47 37 108 37q57 0 93.5 -28.5t36.5 -75.5q0 -41 -27.5 -72t-70.5 -41q30 -7 47.5 -29.5t17.5 -57.5q0 -56 -46.5 -94t-112.5 -38q-61 0 -98.5 32t-37.5 86q0 2 2 24z" />
    <glyph glyph-name="fiveeighths" unicode="&#x215d;" horiz-adv-x="1040" 
d="M859 218q57 -27 57 -92q0 -61 -46.5 -97.5t-111.5 -36.5q-58 0 -96.5 30.5t-38.5 82.5q0 44 27 74.5t73 42.5q-53 26 -53 86q0 56 42 88q44 32 102 32q56 0 92.5 -28.5t36.5 -77.5q0 -37 -23 -64t-61 -40zM798 245q34 0 56.5 17.5t22.5 47.5q0 27 -18 42t-48 15
q-32 0 -54 -18t-22 -49q0 -27 17.5 -41t45.5 -14zM850 127q0 31 -20 47.5t-53 16.5q-37 0 -62 -20.5t-25 -55.5q0 -62 72 -62q38 0 63 19.5t25 54.5zM888 700l-582 -700h-81l583 700h80zM137 403h66q-1 -3 -1 -13q0 -32 20.5 -48.5t57.5 -16.5q42 0 67 26t25 65
q0 33 -19.5 52.5t-50.5 19.5q-39 0 -74 -28h-60l70 228h223l-13 -59h-170l-32 -108q28 24 73 24q55 0 86.5 -34t31.5 -87q0 -64 -43.5 -112t-113.5 -48q-65 0 -105 33.5t-40 86.5q0 3 2 19z" />
    <glyph glyph-name="seveneighths" unicode="&#x215e;" horiz-adv-x="1067" 
d="M885 700l-582 -700h-81l583 700h80zM886 218q57 -27 57 -92q0 -61 -46.5 -97.5t-111.5 -36.5q-58 0 -96.5 30.5t-38.5 82.5q0 44 27 74.5t73 42.5q-53 26 -53 86q0 56 42 88q44 32 102 32q56 0 92.5 -28.5t36.5 -77.5q0 -37 -23 -64t-61 -40zM825 245q34 0 56.5 17.5
t22.5 47.5q0 27 -18 42t-48 15q-32 0 -54 -18t-22 -49q0 -27 17.5 -41t45.5 -14zM877 127q0 31 -20 47.5t-53 16.5q-37 0 -62 -20.5t-25 -55.5q0 -62 72 -62q38 0 63 19.5t25 54.5zM203 688h318l-13 -53l-232 -364h-68l226 353h-245z" />
    <glyph glyph-name="arrowleft" unicode="&#x2190;" horiz-adv-x="677" 
d="M309 39l-252 252l252 252l43 -43l-183 -178h463v-63h-463l183 -177z" />
    <glyph glyph-name="arrowup" unicode="&#x2191;" horiz-adv-x="598" 
d="M568 323l-43 -43l-177 183v-463h-63v463l-178 -183l-43 43l252 252z" />
    <glyph glyph-name="arrowright" unicode="&#x2192;" horiz-adv-x="673" 
d="M385 39l-43 43l183 177h-463v63h463l-183 178l43 43l252 -252z" />
    <glyph glyph-name="arrowdown" unicode="&#x2193;" horiz-adv-x="597" 
d="M544 252l-252 -252l-252 252l43 43l178 -183v463h63v-463l177 183z" />
    <glyph glyph-name="partialdiff" unicode="&#x2202;" horiz-adv-x="601" 
d="M327 700q96 0 166 -64q72 -64 72 -239q1 -187 -82.5 -298.5t-207.5 -109.5q-92 0 -153.5 59.5t-61.5 160.5q0 104 66 170.5t164 66.5q67 0 125 -37q57 -35 77 -100q9 54 9 99q0 113 -49.5 171t-124.5 58q-56 0 -95 -31t-48 -82h-69q17 84 72.5 130t139.5 46zM449 226
q0 73 -45.5 114.5t-109.5 41.5q-68 0 -116 -44.5t-48 -121.5t44.5 -120.5t107.5 -43.5q67 0 117 48t50 126z" />
    <glyph glyph-name="product" unicode="&#x220f;" horiz-adv-x="819" 
d="M497 0l148 640h-280l-148 -640h-67l148 640h-106l14 60h625l-14 -60h-105l-148 -640h-67z" />
    <glyph glyph-name="summation" unicode="&#x2211;" horiz-adv-x="657" 
d="M4 0l16 63l368 284l-217 291l15 62h502l-16 -63h-408l220 -300l-355 -273h443l-15 -64h-553z" />
    <glyph glyph-name="minus" unicode="&#x2212;" 
d="M523 344l-15 -63h-402l15 63h402z" />
    <glyph glyph-name="radical" unicode="&#x221a;" horiz-adv-x="601" 
d="M189 0l-99 501h76l73 -414l359 613h75l-415 -700h-69z" />
    <glyph glyph-name="infinity" unicode="&#x221e;" horiz-adv-x="784" 
d="M742 306q2 -91 -58 -165t-152 -72q-63 0 -104 32.5t-51 80.5q-53 -113 -164 -113q-77 0 -117 54q-40 53 -40 130q0 95 58 164.5t152 69.5q61 0 98 -30.5t49 -83.5q28 53 72.5 83.5t98.5 30.5q76 0 117 -53t41 -128zM364 299q0 58 -28.5 89.5t-75.5 31.5q-61 0 -101.5 -51
t-40.5 -114q0 -52 27.5 -86t74.5 -34q57 0 100.5 47t43.5 117zM681 301q0 52 -27.5 85.5t-74.5 33.5q-58 0 -103 -48t-45 -120q0 -57 28.5 -87t76.5 -30q65 0 105 51t40 115z" />
    <glyph glyph-name="integral" unicode="&#x222b;" horiz-adv-x="321" 
d="M-74 -192l13 57h29q35 0 54 17t27 54l148 648q17 69 50.5 95t93.5 26h68l-13 -57h-48q-39 0 -57 -16t-27 -56l-149 -649q-15 -67 -50.5 -93t-92.5 -26h-46z" />
    <glyph glyph-name="approxequal" unicode="&#x2248;" 
d="M438 387q63 0 101 27l-14 -60q-47 -20 -102 -20q-32 0 -92 21q-53 22 -96 22q-65 0 -114 -32l13 57q50 29 116 29q39 0 92 -22q54 -22 96 -22zM408 246q60 0 98 26l-14 -60q-47 -20 -102 -20q-32 0 -92 21q-53 22 -96 22q-65 0 -114 -32l13 57q50 29 116 29q39 0 92 -21
q59 -22 99 -22z" />
    <glyph glyph-name="notequal" unicode="&#x2260;" 
d="M525 354h-167l-46 -83h194l-14 -60h-213l-66 -120l-43 25l52 95h-132l14 60h152l45 83h-178l14 60h198l72 131l42 -25l-58 -106h148z" />
    <glyph glyph-name="lessequal" unicode="&#x2264;" 
d="M580 569l-400 -170l320 -172l-32 -53l-358 190l16 76l429 186zM475 63l-14 -63h-424l14 63h424z" />
    <glyph glyph-name="greaterequal" unicode="&#x2265;" 
d="M158 577l33 55l359 -193l-16 -76l-435 -190l-25 58l406 174zM477 63l-14 -63h-424l14 63h424z" />
    <glyph glyph-name="lozenge" unicode="&#x25ca;" horiz-adv-x="581" 
d="M566 336l-333 -347l-174 347l334 346zM375 577l-236 -248l111 -234l236 249z" />
    <glyph glyph-name="NULL" horiz-adv-x="19" 
 />
    <glyph glyph-name="zero.osf" horiz-adv-x="651" 
d="M307 -11q-102 0 -171.5 67t-69.5 191q-2 93 43 167.5t113 112.5t141 37q99 0 166.5 -68.5t67.5 -189.5q2 -138 -88 -228.5t-202 -88.5zM355 498q-89 0 -155.5 -67.5t-66.5 -179.5q0 -91 47 -145.5t124 -54.5q90 0 158.5 69.5t68.5 179.5q0 90 -48.5 144t-127.5 54z" />
    <glyph glyph-name="one.osf" horiz-adv-x="537" 
d="M422 0h-423l14 61h177l101 431h-178l14 60h423l-14 -60h-177l-101 -431h177z" />
    <glyph glyph-name="two.osf" horiz-adv-x="535" 
d="M133 61l301 1l-14 -62h-411l14 60l167 111q85 56 130 91q93 75 93 141q0 45 -30 71.5t-76 26.5q-56 0 -102 -38q-44 -37 -52 -102h-70q14 96 79.5 149.5t147.5 53.5q73 0 122.5 -42t49.5 -111q0 -49 -27 -89q-27 -43 -72 -79q-55 -45 -135 -100z" />
    <glyph glyph-name="three.osf" horiz-adv-x="594" 
d="M12 77h73q-2 -26 -2 -29q0 -62 39 -96t107 -34q71 0 124 40t53 102q0 54 -42 87.5t-122 33.5h-20l15 67h12q96 0 154.5 41t58.5 104q0 50 -37.5 77t-104.5 27q-69 0 -119 -35q-49 -34 -57 -120h-73q11 108 85 164.5t175 56.5q87 0 145 -43q58 -42 58 -120
q0 -66 -44 -116.5t-121 -72.5q110 -39 110 -148q0 -90 -74 -150.5t-181 -60.5q-98 0 -155.5 53t-57.5 145q0 21 1 27z" />
    <glyph glyph-name="four.osf" horiz-adv-x="644" 
d="M365 -139h-68l39 171h-343l14 65l421 452h95l-106 -457h127l-13 -62h-128zM438 472l-354 -380h266z" />
    <glyph glyph-name="five.osf" horiz-adv-x="590" 
d="M11 74h72q-1 -5 -1 -23q0 -63 39.5 -99.5t105.5 -36.5q82 0 131.5 54.5t49.5 131.5q0 66 -37.5 104t-103.5 38q-76 0 -137 -54h-61l106 359h346l-14 -63h-287l-63 -220q53 43 131 43q89 0 140 -55t51 -140q2 -103 -69.5 -184.5t-183.5 -79.5q-97 0 -156.5 57t-59.5 148
q0 15 1 20z" />
    <glyph glyph-name="six.osf" horiz-adv-x="629" 
d="M595 515h-72q-7 58 -43 88.5t-96 30.5q-99 0 -167 -80t-77 -223q32 56 87 86.5t122 30.5q93 0 148.5 -56.5t55.5 -147.5q2 -102 -71.5 -179.5t-183.5 -75.5q-110 0 -168.5 78.5t-58.5 223.5q-2 185 91 298t227 111q88 0 143.5 -48.5t62.5 -136.5zM151 205q0 -67 42 -108
t111 -41q76 0 127.5 50.5t51.5 126.5q0 68 -40.5 108.5t-107.5 40.5q-78 0 -131 -50.5t-53 -126.5z" />
    <glyph glyph-name="seven.osf" horiz-adv-x="579" 
d="M591 549l-16 -66l-393 -622h-75l392 619h-429l16 69h505z" />
    <glyph glyph-name="eight.osf" horiz-adv-x="581" 
d="M400 354q107 -43 107 -154q0 -96 -73.5 -153.5t-174.5 -57.5q-91 0 -154 46t-63 128q0 74 49.5 128t132.5 71q-101 45 -101 150q0 85 68 136.5t160 51.5q86 0 145 -43.5t59 -119.5q0 -64 -43 -114t-112 -69zM325 391q63 0 110.5 37.5t47.5 96.5q0 51 -39 80t-99 29
q-62 0 -107 -33q-44 -32 -44 -92q0 -53 37.5 -85.5t93.5 -32.5zM435 195q0 59 -42 94.5t-104 35.5q-69 0 -122 -42t-53 -110q0 -57 40.5 -87.5t108.5 -30.5q73 0 122 36q50 38 50 104z" />
    <glyph glyph-name="nine.osf" horiz-adv-x="615" 
d="M37 38h72q7 -56 47 -87.5t102 -31.5q97 0 161 79.5t73 223.5q-32 -56 -87 -86.5t-122 -30.5q-93 0 -148.5 56.5t-55.5 147.5q-2 102 71.5 179.5t183.5 75.5q110 0 168.5 -78.5t58.5 -223.5q0 -189 -87 -299t-221 -110q-90 0 -149.5 49.5t-66.5 135.5zM481 348
q0 67 -42 108t-111 41q-76 0 -127.5 -50.5t-51.5 -126.5q0 -68 40.5 -108.5t107.5 -40.5q78 0 131 50.5t53 126.5z" />
    <glyph glyph-name="zero.tf" 
d="M87 235q0 105 30 211t95 180t164 74q180 0 180 -250q1 -79 -17 -159.5t-52.5 -149.5t-92 -111.5t-128.5 -40.5q-179 0 -179 246zM485 456q0 178 -118 178q-75 0 -122 -69q-47 -67 -66 -162q-20 -95 -20 -172q0 -176 115 -176q75 0 122 68q49 70 68 162q21 93 21 171z" />
    <glyph glyph-name="one.tf" 
d="M310 61h172l-14 -61h-411l13 61h172l127 546q-74 -55 -189 -74l15 62q108 21 196 93h65z" />
    <glyph glyph-name="two.tf" 
d="M135 63h377l-13 -63h-471l15 63l185 150q50 41 82 64q62 47 106 86q81 73 81 148q0 58 -38.5 90.5t-100.5 32.5q-70 0 -126 -42q-55 -42 -65 -118h-72q16 107 92.5 166.5t174.5 59.5q88 0 147 -48.5t59 -130.5q0 -58 -30 -107q-28 -50 -78 -93q-47 -42 -143 -116l-22 -17
z" />
    <glyph glyph-name="three.tf" 
d="M56 214h73q-2 -26 -2 -29q0 -62 39 -96t107 -34q71 0 124 40t53 102q0 54 -42 87.5t-122 33.5h-20l15 67h12q96 0 154.5 41t58.5 104q0 50 -37.5 77t-104.5 27q-69 0 -119 -35q-49 -35 -57 -120h-73q11 108 85 164.5t175 56.5q87 0 145 -43q58 -42 58 -120
q0 -66 -44 -116.5t-121 -72.5q110 -39 110 -148q0 -90 -74 -150.5t-181 -60.5q-98 0 -155.5 53t-57.5 145q0 21 1 27z" />
    <glyph glyph-name="four.tf" 
d="M385 0h-68l39 171h-343l14 65l421 452h95l-106 -457h127l-13 -62h-128zM458 611l-354 -380h266z" />
    <glyph glyph-name="five.tf" 
d="M59 214h72q-1 -5 -1 -23q0 -63 39.5 -99.5t105.5 -36.5q82 0 131.5 54.5t49.5 131.5q0 66 -37.5 104t-103.5 38q-75 0 -137 -54h-61l106 359h346l-14 -63h-287l-63 -220q53 43 131 43q89 0 140 -55t51 -140q2 -103 -69.5 -184.5t-183.5 -79.5q-97 0 -156.5 57t-59.5 148
q0 15 1 20z" />
    <glyph glyph-name="six.tf" 
d="M591 515h-72q-7 58 -43 88.5t-96 30.5q-99 0 -167 -80t-77 -223q32 56 87 86.5t122 30.5q93 0 148.5 -56.5t55.5 -147.5q2 -102 -71.5 -179.5t-183.5 -75.5q-110 0 -168.5 78.5t-58.5 223.5q-2 185 91 298t227 111q88 0 143.5 -48.5t62.5 -136.5zM147 205q0 -67 42 -108
t111 -41q76 0 127.5 50.5t51.5 126.5q0 68 -40.5 108.5t-107.5 40.5q-78 0 -131 -50.5t-53 -126.5z" />
    <glyph glyph-name="seven.tf" 
d="M654 688l-16 -66l-393 -622h-75l392 619h-429l16 69h505z" />
    <glyph glyph-name="eight.tf" 
d="M410 354q107 -43 107 -154q0 -96 -73.5 -153.5t-174.5 -57.5q-91 0 -154 46t-63 128q0 74 49.5 128t132.5 71q-101 45 -101 150q0 85 68 136.5t160 51.5q86 0 145 -43.5t59 -119.5q0 -64 -43 -114t-112 -69zM335 391q63 0 110.5 37.5t47.5 96.5q0 51 -39 80t-99 29
q-62 0 -107 -33q-44 -32 -44 -92q0 -53 37.5 -85.5t93.5 -32.5zM445 195q0 59 -42 94.5t-104 35.5q-69 0 -122 -42t-53 -110q0 -57 40.5 -87.5t108.5 -30.5q73 0 122 36q50 38 50 104z" />
    <glyph glyph-name="nine.tf" 
d="M51 174h72q7 -56 47 -87.5t102 -31.5q97 0 161 79.5t73 223.5q-32 -56 -87 -86.5t-122 -30.5q-93 0 -148.5 56.5t-55.5 147.5q-2 102 71.5 179.5t183.5 75.5q110 0 168.5 -78.5t58.5 -223.5q0 -189 -87 -299t-221 -110q-90 0 -149.5 49.5t-66.5 135.5zM495 484
q0 67 -42 108t-111 41q-76 0 -127.5 -50.5t-51.5 -126.5q0 -68 40.5 -108.5t107.5 -40.5q78 0 131 50.5t53 126.5z" />
    <glyph glyph-name="zero.dnom" horiz-adv-x="360" 
d="M21 149q0 47 10.5 95t31 90.5t56.5 68.5t82 25q118 0 118 -160q0 -48 -10.5 -95.5t-32 -89t-57.5 -67t-81 -24.5q-117 0 -117 157zM254 270q0 97 -61 97q-27 1 -49 -20.5t-34 -56t-18.5 -71.5t-6.5 -71q0 -95 60 -95q52 -2 80.5 68t28.5 149z" />
    <glyph glyph-name="one.dnom" horiz-adv-x="362" 
d="M282 57l-13 -58h-292l13 58h113l65 279q-51 -29 -107 -35l14 60q62 10 119 55h56l-84 -359h116z" />
    <glyph glyph-name="two.dnom" horiz-adv-x="357" 
d="M84 57h209l-14 -58h-295l13 54l111 91q19 16 50 40q57 44 77.5 69t20.5 54q0 28 -17.5 44t-49.5 16q-39 0 -65.5 -22.5t-32.5 -61.5h-64q11 71 58 108q49 37 111 37q57 0 91.5 -31.5t34.5 -82.5q0 -33 -17 -62q-15 -26 -39.5 -49t-79.5 -66l-33 -26z" />
    <glyph glyph-name="three.dnom" horiz-adv-x="358" 
d="M3 134h65l-1 -10q0 -72 73 -72q40 0 64.5 19t24.5 51q0 61 -81 61h-26l14 57h18q49 0 79 21.5t30 55.5q0 50 -67 50q-84 0 -94 -82h-64q6 70 53 106q47 37 108 37q57 0 93.5 -28.5t36.5 -75.5q0 -41 -27.5 -72t-70.5 -41q30 -7 47.5 -29.5t17.5 -57.5q0 -56 -46.5 -94
t-112.5 -38q-61 0 -98.5 32t-37.5 86q0 2 2 24z" />
    <glyph glyph-name="four.dnom" horiz-adv-x="356" 
d="M317 142l-12 -59h-67l-19 -84h-64l20 85h-202l12 52l246 280h84l-64 -274h66zM235 341l-177 -199h131z" />
    <glyph glyph-name="five.dnom" horiz-adv-x="359" 
d="M2 131h66q-1 -3 -1 -13q0 -32 20.5 -48.5t57.5 -16.5q42 0 67 26t25 65q0 33 -19.5 52.5t-50.5 19.5q-39 0 -74 -28h-60l70 228h223l-13 -59h-170l-32 -108q29 24 73 24q55 0 86.5 -34t31.5 -87q0 -64 -43.5 -112t-113.5 -48q-65 0 -105 33.5t-40 86.5q0 3 2 19z" />
    <glyph glyph-name="six.dnom" horiz-adv-x="357" 
d="M340 309h-66q-4 27 -23.5 42.5t-48.5 15.5q-47 0 -84.5 -39t-43.5 -108q35 58 114 58q56 0 90 -32.5t34 -91.5q0 -70 -44.5 -116t-113.5 -46q-70 0 -107.5 47.5t-37.5 135.5q0 112 58 182.5t141 70.5q57 0 93.5 -32.5t38.5 -86.5zM80 131q0 -36 22 -56t57 -20t61 24
t26 65q0 35 -20.5 55t-51.5 20q-39 0 -66.5 -24t-27.5 -64z" />
    <glyph glyph-name="seven.dnom" horiz-adv-x="358" 
d="M58 416h318l-13 -53l-232 -364h-68l226 353h-245z" />
    <glyph glyph-name="eight.dnom" horiz-adv-x="360" 
d="M238 218q57 -27 57 -92q0 -61 -46.5 -97.5t-111.5 -36.5q-58 0 -96.5 30.5t-38.5 82.5q0 44 27 74.5t73 42.5q-53 26 -53 86q0 56 42 88q44 32 102 32q56 0 92.5 -28.5t36.5 -77.5q0 -37 -23 -64t-61 -40zM177 245q34 0 56.5 17.5t22.5 47.5q0 27 -18 42t-48 15
q-32 0 -54 -18t-22 -49q0 -27 17.5 -41t45.5 -14zM229 127q0 31 -20 47.5t-53 16.5q-37 0 -62 -20.5t-25 -55.5q0 -62 72 -62q38 0 63 19.5t25 54.5z" />
    <glyph glyph-name="nine.dnom" horiz-adv-x="358" 
d="M-2 111h66q5 -27 27.5 -42.5t53.5 -15.5q46 0 79.5 38.5t39.5 108.5q-35 -59 -114 -59q-56 0 -90 33t-34 92q0 68 45 115t114 47t106.5 -48.5t37.5 -138.5q0 -112 -54.5 -180.5t-137.5 -68.5q-58 0 -96.5 32.5t-42.5 86.5zM259 289q0 36 -22 56t-55 20q-37 0 -63 -24
t-26 -65q0 -37 20.5 -56t52.5 -19q38 0 65.5 24t27.5 64z" />
    <glyph glyph-name="zero.numr" horiz-adv-x="360" 
d="M84 421q0 47 10.5 95t31 90.5t56.5 68.5t82 25q118 0 118 -160q0 -48 -10.5 -95.5t-32 -89t-57.5 -67t-81 -24.5q-117 0 -117 157zM317 542q0 97 -61 97q-27 1 -49 -20.5t-34 -56t-18.5 -71.5t-6.5 -71q0 -95 60 -95q52 -2 80.5 68t28.5 149z" />
    <glyph glyph-name="one.numr" horiz-adv-x="362" 
d="M345 329l-13 -58h-292l13 58h113l65 279q-51 -29 -107 -35l14 60q62 10 119 55h56l-84 -359h116z" />
    <glyph glyph-name="two.numr" horiz-adv-x="357" 
d="M147 329h209l-14 -58h-295l13 54l111 91q19 16 50 40q57 44 77.5 69t20.5 54q0 28 -17.5 44t-49.5 16q-39 0 -65.5 -22.5t-32.5 -61.5h-64q11 71 58 108q49 37 111 37q57 0 91.5 -31.5t34.5 -82.5q0 -33 -17 -62q-15 -26 -39.5 -49t-79.5 -66l-33 -26z" />
    <glyph glyph-name="three.numr" horiz-adv-x="358" 
d="M66 406h65l-1 -10q0 -72 73 -72q40 0 64.5 19t24.5 51q0 61 -81 61h-26l14 57h18q49 0 79 21.5t30 55.5q0 50 -67 50q-84 0 -94 -82h-64q6 70 53 106q47 37 108 37q57 0 93.5 -28.5t36.5 -75.5q0 -41 -27.5 -72t-70.5 -41q30 -7 47.5 -29.5t17.5 -57.5q0 -56 -46.5 -94
t-112.5 -38q-61 0 -98.5 32t-37.5 86q0 2 2 24z" />
    <glyph glyph-name="four.numr" horiz-adv-x="356" 
d="M380 414l-12 -59h-67l-19 -84h-64l20 85h-202l12 52l246 280h84l-64 -274h66zM298 613l-177 -199h131z" />
    <glyph glyph-name="five.numr" horiz-adv-x="359" 
d="M65 403h66q-1 -3 -1 -13q0 -32 20.5 -48.5t57.5 -16.5q42 0 67 26t25 65q0 33 -19.5 52.5t-50.5 19.5q-39 0 -74 -28h-60l70 228h223l-13 -59h-170l-32 -108q28 24 73 24q55 0 86.5 -34t31.5 -87q0 -64 -43.5 -112t-113.5 -48q-65 0 -105 33.5t-40 86.5q0 3 2 19z" />
    <glyph glyph-name="six.numr" horiz-adv-x="357" 
d="M403 581h-66q-4 27 -23.5 42.5t-48.5 15.5q-47 0 -84.5 -39t-43.5 -108q35 58 114 58q56 0 90 -32.5t34 -91.5q0 -70 -44.5 -116t-113.5 -46q-70 0 -107.5 47.5t-37.5 135.5q0 112 58 182.5t141 70.5q57 0 93.5 -32.5t38.5 -86.5zM143 403q0 -36 22 -56t57 -20t61 24
t26 65q0 35 -20.5 55t-51.5 20q-39 0 -66.5 -24t-27.5 -64z" />
    <glyph glyph-name="seven.numr" horiz-adv-x="358" 
d="M121 688h318l-13 -53l-232 -364h-68l226 353h-245z" />
    <glyph glyph-name="eight.numr" horiz-adv-x="360" 
d="M301 490q57 -27 57 -92q0 -61 -46.5 -97.5t-111.5 -36.5q-58 0 -96.5 30.5t-38.5 82.5q0 44 27 74.5t73 42.5q-53 26 -53 86q0 56 42 88q44 32 102 32q56 0 92.5 -28.5t36.5 -77.5q0 -37 -23 -64t-61 -40zM240 517q34 0 56.5 17.5t22.5 47.5q0 27 -18 42t-48 15
q-32 0 -54 -18t-22 -49q0 -27 17.5 -41t45.5 -14zM292 399q0 31 -20 47.5t-53 16.5q-37 0 -62 -20.5t-25 -55.5q0 -62 72 -62q38 0 63 19.5t25 54.5z" />
    <glyph glyph-name="nine.numr" horiz-adv-x="358" 
d="M61 383h66q5 -27 27.5 -42.5t53.5 -15.5q46 0 79.5 38.5t39.5 108.5q-35 -59 -114 -59q-56 0 -90 33t-34 92q0 68 45 115t114 47t106.5 -48.5t37.5 -138.5q0 -112 -54.5 -180.5t-137.5 -68.5q-58 0 -96.5 32.5t-42.5 86.5zM322 561q0 36 -22 56t-55 20q-37 0 -63 -24
t-26 -65q0 -37 20.5 -56t52.5 -19q38 0 65.5 24t27.5 64z" />
    <glyph glyph-name="exclamdown.cap" horiz-adv-x="291" 
d="M172 551l22 99h97l-23 -99h-96zM116 256l61 196h41l-28 -196l-71 -306h-74z" />
    <glyph glyph-name="questiondown.cap" horiz-adv-x="510" 
d="M311 568l22 99h97l-23 -99h-96zM371 468l-11 -45q-15 -61 -45.5 -100t-80.5 -67l-69 -38q-75 -42 -75 -107q0 -46 34 -70t90 -24q64 0 106 33t55 96h68q-13 -94 -81 -142q-66 -48 -159 -48q-84 0 -134.5 39t-50.5 109q0 58 30.5 96t92.5 74l64 36q40 22 61.5 50.5
t31.5 72.5l8 35h65z" />
    <glyph glyph-name="periodcentered.cap" horiz-adv-x="211" 
d="M207 439l-22 -99h-97l23 99h96z" />
    <glyph glyph-name="bullet.cap" horiz-adv-x="249" 
d="M238 408l-31 -137h-135l31 137h135z" />
    <glyph glyph-name="hyphen.cap" horiz-adv-x="381" 
d="M353 333h-287l14 61h287z" />
    <glyph glyph-name="endash.cap" horiz-adv-x="562" 
d="M534 335h-467l14 60h467z" />
    <glyph glyph-name="emdash.cap" horiz-adv-x="1028" 
d="M1000 335h-933l14 60h933z" />
    <glyph glyph-name="guillemotleft.cap" horiz-adv-x="562" 
d="M158 350l104 -159l-54 -36l-131 203l215 194l40 -51zM372 350l104 -159l-54 -36l-131 203l215 194l40 -51z" />
    <glyph glyph-name="guillemotright.cap" horiz-adv-x="561" 
d="M237 356l-104 159l54 36l131 -203l-215 -194l-40 51zM451 356l-104 159l54 36l131 -203l-215 -194l-40 51z" />
    <glyph glyph-name="guilsinglleft.cap" horiz-adv-x="348" 
d="M158 350l104 -159l-54 -36l-131 203l215 194l40 -51z" />
    <glyph glyph-name="guilsinglright.cap" horiz-adv-x="348" 
d="M235 347l-104 159l54 36l131 -203l-215 -194l-40 51z" />
    <glyph glyph-name="at.cap" horiz-adv-x="891" 
d="M875 448q1 -78 -32 -155t-88 -124t-113 -45q-44 0 -71 25.5t-27 67.5q-28 -44 -71.5 -68.5t-93.5 -24.5q-64 0 -97.5 41t-33.5 110q-2 103 68.5 190t173.5 84q104 0 125 -83l29 74h69l-109 -265q-10 -24 -10 -45q0 -26 15.5 -41t42.5 -15q42 -3 82 43t62.5 111.5
t21.5 123.5q0 101 -70 161.5t-187 60.5q-114 3 -216 -59.5t-160 -161.5t-56 -203q0 -112 66 -178.5t176 -66.5q65 0 128 24l15 -43q-71 -34 -150 -34q-58 0 -109 17.5t-92.5 52t-66 92.5t-24.5 132q0 129 67 238q67 110 180 174q113 65 244 65q136 0 224 -71t88 -204z
M576 405q0 44 -22.5 68.5t-63.5 24.5q-72 2 -126 -68t-52 -147q0 -50 22 -78t62 -28q44 -2 87.5 36t68.5 92t24 100z" />
    <glyph glyph-name="acute.cap" horiz-adv-x="175" 
d="M321 885l-131 -109h-69l151 163z" />
    <glyph glyph-name="breve.cap" horiz-adv-x="212" 
d="M359 900q0 -46 -33.5 -85t-94.5 -39q-44 0 -66.5 21t-22.5 55q0 33 18 62h47q-14 -30 -14 -49q0 -44 47 -44q32 0 50 25t18 58v10h50q1 -3 1 -14z" />
    <glyph glyph-name="caron.cap" horiz-adv-x="286" 
d="M220 928l52 -91l95 91h75l-156 -152h-45l-85 152h64z" />
    <glyph glyph-name="cedilla.cap" horiz-adv-x="201" 
d="M115 -114q0 -39 -33 -66.5t-82 -27.5q-60 0 -97 39l33 37q32 -32 70 -32q26 0 42.5 13t16.5 32q0 42 -87 43l19 77h44l-10 -51q84 -5 84 -64z" />
    <glyph glyph-name="circumflex.cap" horiz-adv-x="287" 
d="M343 776l-52 92l-94 -92h-76l156 152h46l85 -152h-65z" />
    <glyph glyph-name="dieresis.cap" horiz-adv-x="261" 
d="M222 863l-21 -87h-80l20 87h81zM402 863l-20 -87h-81l20 87h81z" />
    <glyph glyph-name="dotaccent.cap" horiz-adv-x="97" 
d="M240 875l-22 -99h-97l23 99h96z" />
    <glyph glyph-name="grave.cap" horiz-adv-x="159" 
d="M228 776l-70 160l68 21l54 -181h-52z" />
    <glyph glyph-name="hungarumlaut.cap" horiz-adv-x="226" 
d="M121 776l75 150h65l-86 -150h-54zM242 776l74 150h66l-86 -150h-54z" />
    <glyph glyph-name="macron.cap" horiz-adv-x="299" 
d="M134 829h298l-12 -53h-298z" />
    <glyph glyph-name="ring.cap" horiz-adv-x="189" 
d="M143 859q0 41 25.5 66t65.5 25t66.5 -25t26.5 -66q0 -40 -27 -66.5t-66 -26.5t-65 26.5t-26 66.5zM284 859q0 22 -14.5 36.5t-35.5 14.5t-35 -14.5t-14 -36.5t14 -37.5t35 -15.5t35.5 15.5t14.5 37.5z" />
    <glyph glyph-name="tilde.cap" horiz-adv-x="276" 
d="M338 776q-25 0 -73 35q-33 27 -49 27q-32 0 -43 -57h-48q5 55 29 87t58 32q25 0 72 -35q34 -27 51 -27q35 0 42 60h43q0 -56 -23.5 -89t-58.5 -33z" />
    </font>
</defs>
</svg>
