<?xml version="1.0" standalone="no"?>
<!DOCTYPE svg PUBLIC "-//W3C//DTD SVG 1.1//EN" "http://www.w3.org/Graphics/SVG/1.1/DTD/svg11.dtd" >
<svg xmlns="http://www.w3.org/2000/svg" xmlns:xlink="http://www.w3.org/1999/xlink" version="1.1">
<metadata>
Created by FontForge 20170731 at Thu May 16 07:53:19 2019
 By Aleksey,,,
Copyright (c) 2015 by Luzi Type. All rights reserved. |DCNT
</metadata>
<defs>
<font id="MessinaSans-BoldItalic" horiz-adv-x="600" >
  <font-face 
    font-family="Messina Sans"
    font-weight="700"
    font-style="italic"
    font-stretch="normal"
    units-per-em="1000"
    panose-1="0 0 8 0 0 0 0 0 0 0"
    ascent="757"
    descent="-243"
    x-height="515"
    cap-height="700"
    bbox="-108 -300 1305 1100"
    underline-thickness="50"
    underline-position="-250"
    slope="-13"
    unicode-range="U+000D-25CA"
  />
<missing-glyph horiz-adv-x="448" 
 />
    <glyph glyph-name=".notdef" horiz-adv-x="448" 
 />
    <glyph glyph-name=".null" horiz-adv-x="0" 
 />
    <glyph glyph-name="nonmarkingreturn" horiz-adv-x="333" 
 />
    <glyph glyph-name="CR" unicode="&#xd;" horiz-adv-x="467" 
 />
    <glyph glyph-name="space" unicode=" " horiz-adv-x="260" 
 />
    <glyph glyph-name="exclam" unicode="!" horiz-adv-x="320" 
d="M110 207l25 202l67 291h132l-71 -306l-65 -187h-88zM209 144l-33 -144h-140l33 144h140z" />
    <glyph glyph-name="quotedbl" unicode="&#x22;" horiz-adv-x="408" 
d="M303 735l-77 -272h-81l39 272h119zM471 735l-77 -272h-81l39 272h119z" />
    <glyph glyph-name="numbersign" unicode="#" horiz-adv-x="644" 
d="M615 428h-117l-33 -141h132v-58h-145l-53 -229h-71l53 229h-122l-53 -229h-71l53 229h-113v58h127l32 141h-141v59h155l47 203h70l-47 -203h123l47 203h70l-47 -203h104v-59zM395 287l32 141h-122l-33 -141h123z" />
    <glyph glyph-name="dollar" unicode="$" horiz-adv-x="601" 
d="M543 203q0 -98 -73 -156t-177 -58q-17 0 -22 1l-27 -117h-66l30 128q-80 22 -126.5 80.5t-46.5 146.5v7h127q-1 -5 -1 -20q0 -77 71 -110l45 201l1 1q-86 34 -124.5 73t-41.5 120q0 95 65.5 153t174.5 58h19l21 90h66l-24 -100q72 -18 113.5 -69.5t47.5 -125.5h-123
q-7 60 -62 88l-45 -198q58 -22 93 -43q85 -49 85 -150zM304 421l43 187q-49 0 -82 -27.5t-33 -74.5q0 -32 16.5 -50.5t55.5 -34.5zM417 189q0 32 -18 52.5t-61 39.5l-45 -191h7q49 0 83 26.5t34 72.5z" />
    <glyph glyph-name="percent" unicode="%" horiz-adv-x="968" 
d="M288 723q77 0 128.5 -49.5t51.5 -127.5t-51.5 -128t-128.5 -50q-75 0 -125.5 50.5t-50.5 127.5t50.5 127t125.5 50zM848 700l-582 -700h-111l582 700h111zM290 640q-40 0 -64.5 -25.5t-24.5 -67.5q0 -43 24.5 -69t64.5 -26q39 0 64 26.5t25 68.5t-25 67.5t-64 25.5z
M720 337q77 0 128.5 -49.5t51.5 -127.5t-51.5 -128t-128.5 -50q-75 0 -125.5 50.5t-50.5 127.5t50.5 127t125.5 50zM722 254q-40 0 -64.5 -25.5t-24.5 -67.5q0 -43 24.5 -69t64.5 -26q39 0 64 26.5t25 68.5t-25 67.5t-64 25.5z" />
    <glyph glyph-name="ampersand" unicode="&#x26;" horiz-adv-x="783" 
d="M694 0h-137l-46 60q-77 -71 -203 -71q-100 0 -170 52t-70 143q0 76 50 130t140 69l-9 13q-43 61 -43 127q0 81 60 129t143 48q79 0 133.5 -42.5t54.5 -120.5q0 -70 -47 -122.5t-126 -70.5l97 -122q25 46 39 99l10 39h113l-10 -39q-29 -111 -88 -181zM321 518
q0 -35 23 -67l28 -40q52 6 83 39t31 74q0 34 -22 56t-58 22q-39 0 -62 -22.5t-23 -61.5zM322 91q79 0 127 46l-137 176q-58 -9 -91.5 -43.5t-33.5 -77.5q0 -46 38.5 -73.5t96.5 -27.5z" />
    <glyph glyph-name="quotesingle" unicode="'" horiz-adv-x="239" 
d="M289 735l-77 -272h-81l39 272h119z" />
    <glyph glyph-name="parenleft" unicode="(" horiz-adv-x="395" 
d="M164 208q0 -182 111 -328l-61 -54q-79 68 -119.5 167t-40.5 212q-1 118 44.5 235t135 216t208.5 155l35 -69q-143 -76 -229 -226t-84 -308z" />
    <glyph glyph-name="parenright" unicode=")" horiz-adv-x="396" 
d="M259 426q0 182 -111 328l61 54q79 -68 119.5 -167t40.5 -212q1 -118 -44.5 -235t-135 -216t-208.5 -155l-35 69q143 76 229 226t84 308z" />
    <glyph glyph-name="asterisk" unicode="*" horiz-adv-x="425" 
d="M443 597l-101 -33l49 -74l-79 -52l-41 80l-66 -80l-65 52l68 74l-86 27l37 85l86 -30l12 94h88l-18 -94l96 27z" />
    <glyph glyph-name="plus" unicode="+" 
d="M535 362l-23 -100h-159l-39 -169h-104l39 169h-159l23 100h159l40 171h104l-40 -171h159z" />
    <glyph glyph-name="comma" unicode="," horiz-adv-x="245" 
d="M188 140l-27 -118q-21 -93 -74.5 -138t-138.5 -51l-1 63q56 8 87.5 35t43.5 77h-64l32 132h142z" />
    <glyph glyph-name="hyphen" unicode="-" horiz-adv-x="368" 
d="M354 370l-25 -110h-288l25 110h288z" />
    <glyph glyph-name="period" unicode="." horiz-adv-x="240" 
d="M174 144l-33 -144h-140l34 144h139z" />
    <glyph glyph-name="slash" unicode="/" horiz-adv-x="477" 
d="M566 774l-501 -860h-114l501 860h114z" />
    <glyph glyph-name="zero" unicode="0" horiz-adv-x="589" 
d="M66 245q0 100 30 205q30 106 97 177q67 73 173 73q95 0 146 -65t51 -194q0 -104 -31 -206q-32 -105 -99 -175q-68 -71 -171 -71q-95 0 -145.5 64t-50.5 192zM432 444q0 74 -18.5 107t-60.5 33q-39 1 -70.5 -32t-49.5 -85.5t-27 -110t-9 -112.5q0 -74 18 -106.5t58 -32.5
q40 -2 72 30.5t50 85.5t27.5 110.5t9.5 112.5z" />
    <glyph glyph-name="one" unicode="1" horiz-adv-x="427" 
d="M406 688l-160 -685h-125l123 524q-74 -38 -167 -45l28 118q101 13 191 88h110z" />
    <glyph glyph-name="two" unicode="2" horiz-adv-x="601" 
d="M224 116h309l-27 -116h-488l24 104l179 146l74 59q55 42 88 72q66 59 66 116q0 40 -26 63.5t-73 23.5q-57 0 -92.5 -33.5t-43.5 -93.5h-127q17 116 97.5 179.5t183.5 63.5q92 0 151 -53t59 -138q0 -54 -26 -100q-27 -46 -65 -81q-36 -33 -116 -96l-66 -51z" />
    <glyph glyph-name="three" unicode="3" horiz-adv-x="598" 
d="M530 205q2 -93 -75.5 -155.5t-185.5 -60.5q-102 0 -165 56.5t-63 149.5q0 20 1 26h129q-1 -4 -1 -16q0 -100 106 -100q56 0 90.5 27t34.5 73q0 81 -115 81h-55l26 112h43q70 0 111 30t41 78q0 35 -24.5 56.5t-69.5 21.5q-54 0 -89 -31t-40 -89h-127q9 111 86 173.5
t183 62.5q91 0 151 -48.5t60 -126.5q0 -68 -46 -119.5t-109 -60.5q103 -28 103 -140z" />
    <glyph glyph-name="four" unicode="4" horiz-adv-x="578" 
d="M412 0h-123l31 134h-324l24 103l389 451h163l-103 -440h90l-25 -116h-91zM417 541l-257 -293h188z" />
    <glyph glyph-name="five" unicode="5" horiz-adv-x="595" 
d="M561 572h-273l-48 -149q47 40 110 40q94 0 146 -61t52 -149q0 -109 -74 -186.5t-194 -77.5q-107 0 -172 63t-61 166h126q0 -56 30 -84.5t83 -28.5q61 0 96.5 36.5t35.5 94.5q0 51 -28.5 82.5t-77.5 31.5q-54 0 -97 -40h-125l120 378h377z" />
    <glyph glyph-name="six" unicode="6" horiz-adv-x="625" 
d="M578 258q0 -112 -76 -190.5t-187 -78.5q-107 0 -175 77t-68 237q0 174 81 285.5t222 111.5q98 0 155 -54t59 -145h-126q-2 45 -26 69t-66 24q-67 0 -111.5 -55t-55.5 -161q65 86 168 86q86 0 146 -55t60 -151zM449 241q0 50 -30.5 80t-76.5 30q-54 0 -93.5 -41t-39.5 -97
q0 -50 32.5 -79t77.5 -29q53 0 91.5 40t38.5 96z" />
    <glyph glyph-name="seven" unicode="7" horiz-adv-x="577" 
d="M626 688l-24 -100l-371 -588h-133l357 564h-379l28 124h522z" />
    <glyph glyph-name="eight" unicode="8" horiz-adv-x="607" 
d="M540 210q0 -101 -76.5 -161t-191.5 -60q-102 0 -168.5 49.5t-66.5 139.5q0 69 40 117t112 72q-78 38 -78 133q0 89 70 144.5t177 55.5q99 0 161 -46q64 -46 64 -131q0 -63 -35.5 -106.5t-91.5 -58.5q84 -46 84 -148zM239 486q0 -38 26.5 -58t72.5 -20q53 0 84 25t31 68
q0 39 -27.5 61t-71.5 22q-51 0 -83 -27t-32 -71zM412 209q0 46 -31.5 70.5t-84.5 24.5q-59 0 -94.5 -29.5t-35.5 -78.5q0 -91 117 -91q59 0 94 27.5t35 76.5z" />
    <glyph glyph-name="nine" unicode="9" horiz-adv-x="631" 
d="M89 431q0 112 76 190.5t187 78.5q107 0 175 -77t68 -237q0 -177 -75.5 -287t-215.5 -110q-99 0 -162 55.5t-64 143.5h126q2 -43 31 -68t73 -25q133 0 155 216q-65 -86 -168 -86q-86 0 -146 55t-60 151zM218 448q0 -50 30.5 -80t76.5 -30q54 0 93.5 41t39.5 97
q0 50 -32.5 79t-77.5 29q-53 0 -91.5 -40t-38.5 -96z" />
    <glyph glyph-name="colon" unicode=":" horiz-adv-x="251" 
d="M174 144l-33 -144h-140l34 144h139zM260 515l-33 -144h-140l34 144h139z" />
    <glyph glyph-name="semicolon" unicode=";" horiz-adv-x="283" 
d="M292 515l-33 -144h-140l34 144h139zM198 140l-27 -118q-21 -93 -74.5 -138t-138.5 -51l-1 63q56 8 87.5 35t43.5 77h-64l32 132h142z" />
    <glyph glyph-name="less" unicode="&#x3c;" 
d="M556 458l-341 -139l278 -140l-53 -84l-345 179l22 104l403 175z" />
    <glyph glyph-name="equal" unicode="=" 
d="M554 442l-22 -94h-422l22 94h422zM515 276l-22 -94h-422l22 94h422z" />
    <glyph glyph-name="greater" unicode="&#x3e;" 
d="M204 557l335 -181l-22 -104l-408 -177l-39 95l350 143l-269 139z" />
    <glyph glyph-name="question" unicode="?" horiz-adv-x="570" 
d="M380 711q99 0 153 -44t54 -121q0 -70 -37 -108q-38 -40 -88 -64l-62 -31q-43 -21 -61 -39q-17 -18 -28 -58l-5 -20h-118l11 43q12 44 19 62q23 56 115 103l53 27q64 31 64 81q0 60 -82 60q-99 0 -129 -98h-127q23 103 93 155t175 52zM300 144l-34 -144h-140l34 144h140z
" />
    <glyph glyph-name="at" unicode="@" horiz-adv-x="880" 
d="M870 386q2 -125 -75.5 -224t-171.5 -96q-43 0 -74 20.5t-39 53.5q-44 -74 -137 -74q-70 0 -108 47t-38 115q-2 96 69.5 181t169.5 82q84 0 109 -60l20 51h112l-80 -210q-20 -52 -20 -79q0 -36 34 -36q48 -2 89.5 70.5t40.5 156.5q0 99 -60.5 153t-169.5 54
q-82 1 -158.5 -31.5t-131.5 -87t-87 -127.5t-31 -150q0 -107 57.5 -165.5t162.5 -58.5q67 0 133 30l27 -81q-88 -41 -172 -41q-138 0 -221 84.5t-83 227.5q-2 94 39.5 185t110.5 158.5t164 107.5t194 38q148 0 236.5 -79.5t88.5 -214.5zM540 324q0 79 -72 79
q-56 0 -94.5 -49t-38.5 -108q0 -38 20 -63.5t55 -25.5q53 -3 92.5 53.5t37.5 113.5z" />
    <glyph glyph-name="A" unicode="A" horiz-adv-x="724" 
d="M528 0l-28 155h-290l-91 -155h-148l422 700h129l138 -700h-132zM281 277h198l-47 259z" />
    <glyph glyph-name="B" unicode="B" horiz-adv-x="690" 
d="M628 227q0 -90 -78 -158.5t-197 -68.5h-317l161 700h283q86 0 134.5 -47.5t48.5 -116.5q0 -57 -35 -109q-35 -50 -103 -65q50 -12 76.5 -48.5t26.5 -86.5zM535 508q0 31 -22 50.5t-62 19.5h-150l-36 -159h156q51 0 82.5 26t31.5 63zM497 228q0 35 -23.5 57.5t-64.5 22.5
h-172l-43 -187h171q61 0 96.5 32t35.5 75z" />
    <glyph glyph-name="C" unicode="C" horiz-adv-x="766" 
d="M581 258h134q-18 -124 -111 -200t-221 -76q-142 0 -223.5 94t-81.5 233q-1 77 26 151t75 131.5t120.5 92t155.5 32.5q124 0 204.5 -66t80.5 -170l-1 -13h-133q-1 59 -42.5 93t-109.5 34q-107 2 -177.5 -84t-68.5 -197q0 -89 47 -148q46 -58 136 -58q71 0 121.5 39.5
t68.5 111.5z" />
    <glyph glyph-name="D" unicode="D" horiz-adv-x="725" 
d="M704 408q1 -74 -27.5 -147t-80.5 -132t-133.5 -95t-177.5 -34h-249l161 700h216q140 0 215.5 -83t75.5 -209zM573 401q0 80 -43.5 128.5t-125.5 48.5h-105l-104 -456h98q123 -3 202.5 85t77.5 194z" />
    <glyph glyph-name="E" unicode="E" horiz-adv-x="608" 
d="M197 700h461l-29 -122h-329l-38 -163h305l-28 -122h-305l-39 -171h347l-28 -122h-477z" />
    <glyph glyph-name="F" unicode="F" horiz-adv-x="591" 
d="M37 0l160 700h461l-29 -122h-329l-38 -163h305l-28 -122h-305l-67 -293h-130z" />
    <glyph glyph-name="G" unicode="G" horiz-adv-x="784" 
d="M206 297q0 -83 45 -138q46 -55 127 -55q75 0 125 39t67 111h-208l28 121h335l-86 -375h-124l13 59q-68 -77 -180 -77q-126 0 -199 90.5t-73 223.5q-1 76 25.5 151t74.5 136t123 98t163 35q121 0 203 -64.5t82 -172.5v-12h-134q0 59 -42 93t-112 34q-76 2 -135.5 -44
t-89 -114t-28.5 -139z" />
    <glyph glyph-name="H" unicode="H" horiz-adv-x="725" 
d="M742 700l-161 -700h-130l66 292h-285l-66 -292h-130l161 700h130l-66 -287h285l66 287h130z" />
    <glyph glyph-name="I" unicode="I" horiz-adv-x="320" 
d="M41 0l161 700h130l-162 -700h-129z" />
    <glyph glyph-name="J" unicode="J" horiz-adv-x="525" 
d="M162 258l-14 -56q-6 -24 -6 -34q0 -61 68 -61q40 0 63.5 25.5t36.5 82.5l112 485h130l-119 -512q-48 -206 -230 -206q-97 0 -145 50q-47 52 -47 123q0 25 8 54l13 49h130z" />
    <glyph glyph-name="K" unicode="K" horiz-adv-x="670" 
d="M762 700l-350 -299l194 -401h-146l-152 313l-87 -75l-55 -238h-130l161 700h130l-64 -276l315 276h184z" />
    <glyph glyph-name="L" unicode="L" horiz-adv-x="561" 
d="M36 0l161 700h129l-133 -578h322l-28 -122h-451z" />
    <glyph glyph-name="M" unicode="M" horiz-adv-x="875" 
d="M891 700l-160 -700h-122l105 461l-283 -461h-97l-72 465l-105 -465h-119l159 700h146l77 -528l311 528h160z" />
    <glyph glyph-name="N" unicode="N" horiz-adv-x="723" 
d="M738 700l-159 -700h-119l-184 480l-109 -480h-129l159 700h132l176 -460l105 460h128z" />
    <glyph glyph-name="O" unicode="O" horiz-adv-x="781" 
d="M754 391q2 -108 -44.5 -202.5t-134 -151.5t-195.5 -55q-135 0 -218 90t-83 236q-2 108 44.5 202.5t134 151.5t195.5 55q135 0 218 -90t83 -236zM624 386q0 96 -47 151t-129 55q-108 0 -173.5 -78.5t-65.5 -200.5q0 -96 47 -151t129 -55q108 0 173.5 78.5t65.5 200.5z" />
    <glyph glyph-name="P" unicode="P" horiz-adv-x="629" 
d="M644 504q0 -101 -74 -173.5t-200 -72.5h-145l-59 -258h-129l160 700h246q95 0 148 -55.5t53 -140.5zM514 494q0 39 -22.5 61.5t-64.5 22.5h-128l-45 -199h137q56 0 89.5 33t33.5 82z" />
    <glyph glyph-name="Q" unicode="Q" horiz-adv-x="781" 
d="M578 41l71 -159h-125l-51 114q-48 -14 -93 -14q-135 0 -218 90t-83 236q-2 108 44.5 202.5t134 151.5t195.5 55q135 0 218 -90t83 -236q0 -110 -46.5 -202.5t-129.5 -147.5zM421 110l-91 202h127l71 -159q96 73 96 233q0 96 -47 151t-129 55q-108 0 -173.5 -78.5
t-65.5 -200.5q0 -96 47 -151t129 -55q19 0 36 3z" />
    <glyph glyph-name="R" unicode="R" horiz-adv-x="671" 
d="M470 297l127 -297h-140l-117 279h-109l-65 -279h-129l160 700h248q95 0 147.5 -54t52.5 -134q0 -73 -47.5 -134.5t-127.5 -80.5zM515 501q0 35 -24 56t-67 21h-125l-41 -180h137q54 0 87 30t33 73z" />
    <glyph glyph-name="S" unicode="S" horiz-adv-x="625" 
d="M627 495h-132q0 55 -34 81.5t-91 26.5q-54 0 -86.5 -24.5t-32.5 -70.5q0 -36 26 -56q29 -21 96 -47q67 -25 105 -45q93 -47 93 -158q0 -101 -75.5 -160.5t-184.5 -59.5q-113 0 -190 63t-77 171l1 22h130q-2 -18 -2 -24q0 -55 42 -88t104 -33q53 0 86 25t33 70
q-2 40 -25 58.5t-93 47.5q-65 25 -104 47q-94 52 -94 161q0 97 67.5 156t183.5 59t183 -59.5t71 -162.5z" />
    <glyph glyph-name="T" unicode="T" horiz-adv-x="618" 
d="M451 578l-134 -578h-130l133 578h-216l28 122h563l-28 -122h-216z" />
    <glyph glyph-name="U" unicode="U" horiz-adv-x="710" 
d="M327 -18q-108 0 -176.5 61.5t-68.5 163.5q0 37 9 78l96 415h131l-97 -425q-8 -34 -8 -54q0 -57 33 -86t93 -29q133 0 168 152l100 442h129l-103 -452q-31 -133 -115 -200q-82 -66 -191 -66z" />
    <glyph glyph-name="V" unicode="V" horiz-adv-x="677" 
d="M612 700h142l-378 -700h-123l-136 700h134l94 -503z" />
    <glyph glyph-name="W" unicode="W" horiz-adv-x="961" 
d="M1028 700l-314 -700h-117l-64 468l-226 -468h-117l-68 700h130l41 -464l219 464h116l63 -466l197 466h140z" />
    <glyph glyph-name="X" unicode="X" horiz-adv-x="714" 
d="M475 347l148 -347h-142l-102 245l-225 -245h-173l340 367l-144 333h148l92 -236l211 236h163z" />
    <glyph glyph-name="Y" unicode="Y" horiz-adv-x="640" 
d="M727 700l-335 -432l-61 -268h-130l62 277l-146 423h136l97 -297l221 297h156z" />
    <glyph glyph-name="Z" unicode="Z" horiz-adv-x="646" 
d="M13 0l25 109l431 469h-340l28 122h515l-25 -108l-434 -470h367l-28 -122h-539z" />
    <glyph glyph-name="bracketleft" unicode="[" horiz-adv-x="328" 
d="M410 787l-18 -75h-87l-181 -788h87l-18 -75h-197l217 938h197z" />
    <glyph glyph-name="backslash" unicode="\" horiz-adv-x="458" 
d="M349 -86h-114l-86 860h114z" />
    <glyph glyph-name="bracketright" unicode="]" horiz-adv-x="328" 
d="M-54 -152l18 75h87l181 788h-87l18 75h197l-217 -938h-197z" />
    <glyph glyph-name="asciicircum" unicode="^" horiz-adv-x="515" 
d="M504 425h-108l-55 158l-126 -158h-126l222 275h98z" />
    <glyph glyph-name="underscore" unicode="_" horiz-adv-x="588" 
d="M-3 -20h467l-26 -110h-467z" />
    <glyph glyph-name="grave" unicode="`" horiz-adv-x="198" 
d="M279 607h-86l-75 162l107 38z" />
    <glyph glyph-name="a" unicode="a" horiz-adv-x="538" 
d="M493 376q0 -24 -6 -51l-73 -325h-117l17 71q-24 -39 -65 -60.5t-89 -21.5q-63 0 -102.5 36.5t-39.5 102.5q0 147 179 171l104 13q36 4 56 20t20 41q0 49 -74 49q-86 0 -112 -71h-120q26 87 89.5 130t153.5 43q85 0 132 -38.5t47 -109.5zM343 223l3 15q-6 -1 -61 -11
l-51 -7q-48 -7 -71 -22t-23 -49q0 -58 69 -58q106 0 134 132z" />
    <glyph glyph-name="b" unicode="b" horiz-adv-x="619" 
d="M579 299q1 -76 -31 -147t-95.5 -118t-140.5 -45q-64 0 -105 28.5t-46 65.5l-21 -83h-119l164 711h123l-58 -253q46 66 140 66q88 0 138.5 -65t50.5 -160zM457 294q0 54 -26.5 86t-75.5 32q-71 0 -117.5 -58t-46.5 -130q0 -56 29 -91.5t81 -35.5q68 0 112 59t44 138z" />
    <glyph glyph-name="c" unicode="c" horiz-adv-x="540" 
d="M361 183h122q-20 -88 -85 -141q-67 -53 -154 -53q-95 0 -147.5 62.5t-52.5 160.5q-1 75 30 145.5t95.5 119.5t147.5 47q88 0 140.5 -47.5t52.5 -125.5q0 -16 -1 -22h-119v10q0 35 -22.5 53t-58.5 18q-66 0 -105 -60.5t-39 -133.5q0 -53 23.5 -82.5t68.5 -29.5
q78 0 104 79z" />
    <glyph glyph-name="d" unicode="d" horiz-adv-x="619" 
d="M649 711l-165 -711h-116l20 77q-21 -40 -62.5 -64t-91.5 -24q-86 0 -138 64.5t-52 159.5q-1 74 30.5 145.5t94.5 119.5t141 46q58 0 99.5 -22.5t54.5 -55.5l62 265h123zM431 293q0 55 -28.5 88.5t-83.5 33.5q-60 0 -106.5 -53.5t-46.5 -139.5q0 -57 28.5 -89.5
t84.5 -32.5q62 0 107 61t45 132z" />
    <glyph glyph-name="e" unicode="e" horiz-adv-x="548" 
d="M160 205q0 -50 27.5 -79t76.5 -29q71 0 99 58h116q-30 -81 -88.5 -123.5t-137.5 -42.5q-96 0 -151.5 60t-55.5 168q0 127 72 217t192 90q95 0 147.5 -55.5t52.5 -155.5q0 -44 -11 -93h-338q-1 -3 -1 -15zM177 311h215q3 13 3 27q0 38 -24.5 58.5t-68.5 20.5
q-97 0 -125 -106z" />
    <glyph glyph-name="f" unicode="f" horiz-adv-x="353" 
d="M296 549l-8 -34h98l-26 -112h-98l-93 -403h-123l92 403h-74l26 112h74l17 73q28 123 159 123h103l-26 -110h-58q-29 0 -42.5 -11.5t-20.5 -40.5z" />
    <glyph glyph-name="g" unicode="g" horiz-adv-x="590" 
d="M583 515l-113 -494q-51 -224 -254 -224q-95 0 -152 47t-61 140h118q2 -86 97 -86q58 0 86.5 31t45.5 94l19 69q-37 -73 -133 -73q-88 0 -141 61.5t-53 152.5q-1 70 30.5 137t93 111.5t135.5 42.5q58 0 95 -23.5t49 -63.5l18 78h120zM408 310q0 49 -25 78t-72 29
q-63 0 -105.5 -52.5t-42.5 -117.5q0 -52 28 -86.5t75 -34.5q60 0 101 56.5t41 127.5z" />
    <glyph glyph-name="h" unicode="h" horiz-adv-x="588" 
d="M544 372q0 -17 -5 -42l-75 -330h-125l75 324q3 14 3 27q0 29 -21.5 45.5t-55.5 16.5q-48 0 -81.5 -33t-47.5 -95l-66 -285h-124l164 711h124l-60 -261q48 74 139 74q72 0 114 -45t42 -107z" />
    <glyph glyph-name="i" unicode="i" horiz-adv-x="291" 
d="M153 583l32 141h132l-32 -141h-132zM24 0l119 515h124l-119 -515h-124z" />
    <glyph glyph-name="j" unicode="j" horiz-adv-x="285" 
d="M152 583l32 141h132l-32 -141h-132zM142 515h124l-133 -574q-17 -72 -53.5 -102.5t-96.5 -30.5h-91l25 110h42q25 0 37.5 11t18.5 37z" />
    <glyph glyph-name="k" unicode="k" horiz-adv-x="565" 
d="M619 515l-273 -228l147 -287h-133l-107 208l-74 -61l-34 -147h-123l163 711h123l-89 -392l229 196h171z" />
    <glyph glyph-name="l" unicode="l" horiz-adv-x="274" 
d="M21 0l165 711h123l-165 -711h-123z" />
    <glyph glyph-name="m" unicode="m" horiz-adv-x="836" 
d="M797 393q0 -19 -5 -44l-80 -349h-123l77 334q2 18 2 21q0 57 -62 57q-81 0 -110 -122l-67 -290h-124l77 334q3 11 3 22q0 26 -16 41t-47 15q-83 0 -111 -121l-66 -291h-123l117 515h121l-15 -65q19 32 54 53t81 21q48 0 79.5 -24.5t37.5 -65.5q49 90 155 90
q70 0 107.5 -36t37.5 -95z" />
    <glyph glyph-name="n" unicode="n" horiz-adv-x="588" 
d="M544 372q0 -17 -5 -42l-75 -330h-125l75 324q3 14 3 27q0 29 -21.5 45.5t-55.5 16.5q-48 0 -81.5 -33t-47.5 -95l-66 -285h-124l118 515h120l-18 -75q48 84 147 84q72 0 114 -45t42 -107z" />
    <glyph glyph-name="o" unicode="o" horiz-adv-x="577" 
d="M536 296q0 -128 -79.5 -217.5t-195.5 -89.5q-98 0 -157 59.5t-59 167.5q-2 127 79 217.5t195 88.5q98 0 157.5 -59t59.5 -167zM315 408q-62 0 -105.5 -54.5t-43.5 -132.5q0 -58 27 -87.5t74 -29.5q61 0 103.5 54t42.5 132q0 58 -26 88t-72 30z" />
    <glyph glyph-name="p" unicode="p" horiz-adv-x="613" 
d="M576 306q1 -74 -32 -145.5t-96 -119t-139 -45.5q-57 0 -96.5 25t-48.5 67l-65 -280h-123l163 707h121l-15 -64q51 73 141 73q89 0 139.5 -63t50.5 -155zM452 290q0 53 -26 87.5t-72 34.5q-69 0 -115 -57.5t-46 -128.5q0 -54 28.5 -87.5t80.5 -33.5q64 0 107 57t43 128z
" />
    <glyph glyph-name="q" unicode="q" horiz-adv-x="590" 
d="M578 515l-162 -707h-123l59 254q-38 -66 -125 -66q-90 0 -138.5 64t-48.5 158q-1 73 29.5 143t92 117.5t138.5 45.5q109 0 138 -81l17 72h123zM408 297q0 53 -27 86t-74 33q-64 0 -104 -58t-40 -134q0 -55 23 -86t69 -31q66 0 109.5 59t43.5 131z" />
    <glyph glyph-name="r" unicode="r" horiz-adv-x="394" 
d="M430 521l-28 -121h-39q-127 0 -158 -138l-61 -262h-123l118 515h124l-21 -90q43 96 133 96h55z" />
    <glyph glyph-name="s" unicode="s" horiz-adv-x="494" 
d="M472 350h-121q-1 33 -22 52t-59 19q-34 0 -54.5 -14.5t-20.5 -37.5q0 -22 19 -33.5t77 -31.5q76 -26 110 -55t36 -90q0 -77 -62.5 -123.5t-146.5 -46.5t-145 47t-64 129h125q7 -73 90 -73q79 0 79 52q0 20 -14 31t-51 24l-61 20q-53 18 -83.5 55t-30.5 89q0 77 57 119
t140 42q88 0 144 -46q57 -46 58 -128z" />
    <glyph glyph-name="t" unicode="t" horiz-adv-x="376" 
d="M208 155q0 -44 52 -44h52l-25 -111h-79q-60 0 -95 31.5t-35 86.5q0 12 5 40l56 245h-90l26 112h90l29 122l130 35l-36 -157h107l-26 -112h-107l-49 -212q-5 -22 -5 -36z" />
    <glyph glyph-name="u" unicode="u" horiz-adv-x="578" 
d="M567 515l-118 -515h-118l19 81q-45 -87 -146 -87q-68 0 -109.5 40.5t-41.5 107.5q0 21 5 44l77 329h123l-75 -326q-2 -14 -2 -19q0 -29 18 -47.5t53 -18.5q94 0 132 156l60 255h123z" />
    <glyph glyph-name="v" unicode="v" horiz-adv-x="575" 
d="M624 515l-315 -515h-129l-96 515h120l67 -373l217 373h136z" />
    <glyph glyph-name="w" unicode="w" horiz-adv-x="838" 
d="M877 515l-284 -515h-110l-44 309l-171 -309h-111l-68 515h125l38 -319l171 319h114l39 -319l171 319h130z" />
    <glyph glyph-name="x" unicode="x" horiz-adv-x="610" 
d="M385 259l141 -259h-136l-89 165l-158 -165h-162l258 266l-136 249h142l82 -160l149 160h158z" />
    <glyph glyph-name="y" unicode="y" horiz-adv-x="542" 
d="M454 515h137l-312 -539q-44 -76 -101.5 -108t-140.5 -32h-42l24 110h23q91 0 130 69l9 16l-102 484h124l67 -338z" />
    <glyph glyph-name="z" unicode="z" horiz-adv-x="513" 
d="M193 108h255l-25 -108h-420l23 103l311 304h-247l25 108h406l-23 -103z" />
    <glyph glyph-name="braceleft" unicode="{" horiz-adv-x="351" 
d="M458 808l-15 -63h-18q-43 0 -62 -11.5t-27 -44.5l-60 -262q-12 -52 -52.5 -83t-96.5 -38q41 -9 68 -36t27 -63q0 -11 -3 -23l-56 -242q-5 -25 -5 -35q0 -22 13 -29t50 -7h21l-15 -63h-84q-43 0 -68 24t-25 71q0 21 6 48l50 217q7 29 7 44q0 27 -18 40.5t-70 26.5l15 65
q67 11 92.5 32t40.5 82l57 247q14 60 48 81.5t93 21.5h87z" />
    <glyph glyph-name="bar" unicode="|" horiz-adv-x="271" 
d="M319 812l-214 -924h-110l214 924h110z" />
    <glyph glyph-name="braceright" unicode="}" horiz-adv-x="351" 
d="M-84 -193l15 63h18q43 0 62 11.5t27 44.5l60 262q12 52 52.5 83t96.5 38q-41 9 -68 36t-27 63q0 11 3 23l56 242q5 25 5 35q0 22 -13 29t-50 7h-21l15 63h84q43 0 68 -24t25 -71q0 -21 -6 -48l-50 -217q-7 -29 -7 -44q0 -27 18 -40.5t70 -26.5l-15 -65q-67 -11 -92.5 -32
t-40.5 -82l-57 -247q-14 -60 -48 -81.5t-93 -21.5h-87z" />
    <glyph glyph-name="asciitilde" unicode="~" 
d="M404 243q-50 0 -111 41q-35 23 -51 23t-27 -16t-11 -40h-103q0 75 37 122.5t94 47.5q40 0 107 -39q37 -25 57 -25q31 0 31 68h105q0 -87 -34 -134.5t-94 -47.5z" />
    <glyph glyph-name="exclamdown" unicode="&#xa1;" horiz-adv-x="320" 
d="M114 338l33 144h140l-33 -144h-140zM213 275l-25 -202l-67 -291h-132l71 306l65 187h88z" />
    <glyph glyph-name="cent" unicode="&#xa2;" horiz-adv-x="527" 
d="M489 320h-99l1 13q0 54 -52 81l-75 -323q45 1 73 28.5t32 72.5h101q-11 -94 -72.5 -148.5t-156.5 -54.5l-25 -107h-67l28 119q-64 21 -99 83t-35 146q-2 117 67.5 206.5t186.5 87.5l18 76h67l-20 -84q60 -18 94.5 -61.5t34.5 -105.5q0 -3 -2 -29zM143 236q0 -99 58 -130
l74 318q-61 -5 -96.5 -53.5t-35.5 -134.5z" />
    <glyph glyph-name="sterling" unicode="&#xa3;" horiz-adv-x="651" 
d="M568 592h-65q-57 0 -71 -63l-26 -109h139l-13 -61h-140l-8 -32q-38 -155 -68 -208q45 -30 84 -30q80 0 96 108h117q-17 -103 -71.5 -155.5t-135.5 -52.5q-80 0 -150 65q-30 -34 -57 -49.5t-64 -15.5q-52 0 -83.5 33t-31.5 82q0 52 33 87.5t85 35.5q50 0 90 -39
q10 28 18 54q12 40 19 74l10 43h-113l14 61h113l26 112q39 168 182 168h96zM199 115q-27 38 -55 38q-19 0 -31 -12t-12 -29t11.5 -28t29.5 -11q29 0 57 42z" />
    <glyph glyph-name="currency" unicode="&#xa4;" horiz-adv-x="597" 
d="M448 119l52 -90l-65 -43l-54 95q-49 -17 -95 -17q-67 0 -118 36l-118 -114l-56 52l122 117q-30 49 -30 106q0 113 85 183l-54 95l65 41l55 -98q48 17 94 17q65 0 115 -34l123 118l52 -47l-126 -120q37 -52 37 -116q0 -114 -84 -181zM296 172q55 0 90 33.5t35 86.5
q0 43 -28 70.5t-72 27.5q-55 0 -89.5 -33t-34.5 -86q0 -44 27.5 -71.5t71.5 -27.5z" />
    <glyph glyph-name="yen" unicode="&#xa5;" horiz-adv-x="666" 
d="M413 359h157l-15 -61h-156l-25 -111h155l-14 -61h-155l-29 -126h-114l28 126h-150l14 61h151l24 111h-149l15 61h148l-118 341h112l79 -248l191 248h126z" />
    <glyph glyph-name="brokenbar" unicode="&#xa6;" horiz-adv-x="271" 
d="M119 423l90 389h110l-90 -389h-110zM196 277l-91 -389h-110l91 389h110z" />
    <glyph glyph-name="section" unicode="&#xa7;" horiz-adv-x="543" 
d="M500 373q0 -44 -25.5 -78.5t-67.5 -48.5q46 -34 46 -98q0 -77 -51 -121.5t-140 -44.5q-88 0 -150 43t-69 132h122q2 -35 26.5 -56t66.5 -21q39 0 64 16.5t25 45.5q0 26 -20.5 38t-77.5 24q-81 17 -120.5 47.5t-39.5 89.5q0 48 26.5 78t72.5 38q-54 35 -54 102
q0 70 53 112q52 43 133 43q76 0 135 -41t67 -118h-113q-1 29 -28 46t-66 17q-77 0 -77 -59q3 -30 19.5 -39.5t77.5 -24.5q89 -20 125.5 -43t39.5 -79zM394 347q0 35 -39 50q-37 15 -78 15q-38 0 -61 -16t-23 -41q0 -31 31.5 -48.5t78.5 -17.5q44 0 67.5 16t23.5 42z" />
    <glyph glyph-name="dieresis" unicode="&#xa8;" horiz-adv-x="303" 
d="M217 719l-27 -112h-108l25 112h110zM410 719l-26 -112h-109l26 112h109z" />
    <glyph glyph-name="copyright" unicode="&#xa9;" horiz-adv-x="873" 
d="M838 350q2 -163 -107 -271t-268 -106q-159 -2 -268 106t-107 271q-2 163 107 271t268 106q159 2 268 -106t107 -271zM763 350q0 136 -85 221.5t-215 85.5t-215 -85.5t-85 -221.5t85 -221.5t215 -85.5t215 85.5t85 221.5zM561 298h88q0 -77 -52 -120q-50 -43 -131 -43
q-92 0 -147.5 56.5t-55.5 163.5q0 110 58 162q59 53 146 53q77 0 128 -42t51 -114h-88q-4 36 -29 57.5t-62 21.5q-50 0 -81.5 -35.5t-31.5 -102.5q0 -69 31 -105.5t81 -36.5q40 0 67 23.5t28 61.5z" />
    <glyph glyph-name="ordfeminine" unicode="&#xaa;" horiz-adv-x="472" 
d="M477 584q0 -15 -5 -43l-57 -251h-112l11 48q-39 -56 -120 -56q-56 0 -86.5 29t-30.5 78q0 51 33.5 86.5t97.5 44.5l87 12q61 8 61 39q0 28 -46 28q-57 0 -78 -41h-117q20 68 75 105t135 37q73 0 112.5 -30t39.5 -86zM329 450l4 20q-23 -8 -54 -12l-22 -3
q-35 -4 -50 -12.5t-15 -30.5q0 -31 42 -31q37 0 63 18t32 51z" />
    <glyph glyph-name="guillemotleft" unicode="&#xab;" horiz-adv-x="598" 
d="M176 276l94 -143l-81 -56l-137 211l223 201l60 -74zM410 276l94 -143l-81 -56l-137 211l223 201l60 -74z" />
    <glyph glyph-name="logicalnot" unicode="&#xac;" 
d="M120 262l23 100h363l-62 -269h-104l39 169h-259z" />
    <glyph glyph-name="registered" unicode="&#xae;" horiz-adv-x="541" 
d="M551 487q0 -98 -65.5 -163t-161.5 -65q-97 0 -162.5 65t-65.5 163q0 99 65.5 164.5t162.5 65.5t162 -65.5t65 -164.5zM510 487q0 84 -53 137.5t-133 53.5q-79 0 -133 -53.5t-54 -137.5q0 -82 54 -135.5t133 -53.5q80 0 133 53t53 136zM374 460l53 -83h-48l-49 77h-43v-77
h-42v231h91q40 0 62 -22.5t22 -56.5q0 -51 -46 -69zM287 568v-75h51q18 0 29 10t11 26q0 39 -40 39h-51z" />
    <glyph glyph-name="overscore" unicode="&#xaf;" horiz-adv-x="299" 
d="M103 701h298l-21 -94h-299z" />
    <glyph glyph-name="degree" unicode="&#xb0;" horiz-adv-x="467" 
d="M308 766q77 0 128.5 -49.5t51.5 -127.5t-51.5 -128t-128.5 -50q-75 0 -125.5 50.5t-50.5 127.5t50.5 127t125.5 50zM310 683q-40 0 -64.5 -25.5t-24.5 -67.5q0 -43 24.5 -69t64.5 -26q39 0 64 26.5t25 68.5t-25 67.5t-64 25.5z" />
    <glyph glyph-name="plusminus" unicode="&#xb1;" 
d="M572 522l-23 -100h-159l-39 -169h-104l39 169h-159l23 100h159l40 171h104l-40 -171h159zM496 193l-23 -100h-422l23 100h422z" />
    <glyph glyph-name="uni00B2" unicode="&#xb2;" horiz-adv-x="357" 
d="M200 362h165l-21 -91h-307l17 79l107 82l19 15q69 53 89 73q25 25 25 50q0 38 -45 38q-28 0 -47.5 -20t-20.5 -52h-98q6 75 58 119.5t120 44.5q59 0 96.5 -32.5t37.5 -86.5q0 -37 -21 -69q-18 -28 -53 -59q-34 -28 -98 -74z" />
    <glyph glyph-name="uni00B3" unicode="&#xb3;" horiz-adv-x="357" 
d="M365 398q0 -57 -47 -95.5t-115 -38.5q-65 0 -103.5 34t-38.5 92q0 16 1 19h99q-3 -24 11 -40t39 -16q23 0 38.5 12.5t15.5 30.5q0 19 -13.5 31t-39.5 12h-34l19 84h25q32 0 52.5 16t20.5 40q0 13 -12 22t-31 9q-25 0 -41.5 -15.5t-20.5 -42.5h-98q4 69 53.5 108.5
t115.5 39.5q58 0 95.5 -31t37.5 -80q0 -38 -23 -68t-57 -39q51 -26 51 -84z" />
    <glyph glyph-name="acute" unicode="&#xb4;" horiz-adv-x="226" 
d="M333 720l-141 -114h-112l179 196z" />
    <glyph glyph-name="paragraph" unicode="&#xb6;" horiz-adv-x="758" 
d="M595 700l-192 -831h-102l92 401h-76q-97 0 -151 59.5t-54 148.5t62.5 155.5t165.5 66.5h255zM774 700l-191 -831h-102l192 831h101zM347 390h73l44 189h-112q-49 0 -78.5 -29t-29.5 -70q0 -42 26.5 -66t76.5 -24z" />
    <glyph glyph-name="middot" unicode="&#xb7;" horiz-adv-x="240" 
d="M241 434l-33 -144h-140l34 144h139z" />
    <glyph glyph-name="cedilla" unicode="&#xb8;" horiz-adv-x="207" 
d="M119 -110q0 -42 -31 -70t-80 -28q-70 0 -107 37l43 48q28 -28 61 -28q21 0 33.5 9.5t12.5 24.5q0 35 -71 35l20 83h54l-10 -47q34 -2 54.5 -19.5t20.5 -44.5z" />
    <glyph glyph-name="uni00B9" unicode="&#xb9;" horiz-adv-x="363" 
d="M254 362h109l-21 -91h-315l21 91h108l46 200q-47 -17 -100 -17l22 91q71 7 122 52h84z" />
    <glyph glyph-name="ordmasculine" unicode="&#xba;" horiz-adv-x="485" 
d="M497 515q0 -100 -59 -166.5t-156 -66.5q-83 0 -132 47t-49 137q0 101 59 167.5t157 66.5q83 0 131.5 -47.5t48.5 -137.5zM374 511q0 74 -62 74q-41 0 -64.5 -32t-23.5 -82q0 -75 62 -75q41 0 64.5 32.5t23.5 82.5z" />
    <glyph glyph-name="guillemotright" unicode="&#xbb;" horiz-adv-x="598" 
d="M202 300l-94 143l81 56l137 -211l-223 -201l-60 74zM436 300l-94 143l81 56l137 -211l-223 -201l-60 74z" />
    <glyph glyph-name="onequarter" unicode="&#xbc;" horiz-adv-x="1078" 
d="M962 700l-577 -700h-125l577 700h125zM325 361h109l-21 -91h-315l21 91h108l46 200q-47 -17 -100 -17l22 91q71 7 122 52h84zM922 162h48l-20 -91h-49l-17 -72h-94l16 73h-185l18 83l227 261h115zM743 162h85l31 132z" />
    <glyph glyph-name="onehalf" unicode="&#xbd;" horiz-adv-x="1144" 
d="M855 90h165l-21 -91h-307l17 79l107 82l19 15q69 53 89 73q25 25 25 50q0 38 -45 38q-28 0 -47.5 -20t-20.5 -52h-98q6 75 58 119.5t120 44.5q59 0 96.5 -32.5t37.5 -86.5q0 -37 -21 -69q-18 -28 -53 -59q-34 -28 -98 -74zM962 700l-577 -700h-125l577 700h125zM325 361
h109l-21 -91h-315l21 91h108l46 200q-47 -17 -100 -17l22 91q71 7 122 52h84z" />
    <glyph glyph-name="threequarters" unicode="&#xbe;" horiz-adv-x="1069" 
d="M439 398q0 -57 -47 -95.5t-115 -38.5q-65 0 -103.5 34t-38.5 92q0 16 1 19h99q-3 -24 11 -40t39 -16q23 0 38.5 12.5t15.5 30.5q0 19 -13.5 31t-39.5 12h-34l19 84h25q32 0 52.5 16t20.5 40q0 13 -12 22t-31 9q-25 0 -41.5 -15.5t-20.5 -42.5h-98q4 69 53.5 108.5
t115.5 39.5q58 0 95.5 -31t37.5 -80q0 -38 -23 -68t-57 -39q51 -26 51 -84zM952 700l-577 -700h-125l577 700h125zM913 162h48l-20 -91h-49l-17 -72h-94l16 73h-185l18 83l227 261h115zM734 162h85l31 132z" />
    <glyph glyph-name="questiondown" unicode="&#xbf;" horiz-adv-x="571" 
d="M279 364l34 144h140l-34 -144h-140zM199 -203q-99 0 -153 44t-54 121q0 69 36 107q39 41 89 65l62 31q43 21 61 39t28 58l5 20h118l-11 -43q-12 -45 -20 -62q-21 -55 -114 -103l-53 -27q-64 -31 -64 -81q0 -60 82 -60q99 0 129 98h127q-23 -103 -93 -155t-175 -52z" />
    <glyph glyph-name="Agrave" unicode="&#xc0;" horiz-adv-x="724" 
d="M528 0l-28 155h-290l-91 -155h-148l422 700h129l138 -700h-132zM281 277h198l-47 259zM498 776h-78l-74 142l107 32z" />
    <glyph glyph-name="Aacute" unicode="&#xc1;" horiz-adv-x="724" 
d="M528 0l-28 155h-290l-91 -155h-148l422 700h129l138 -700h-132zM281 277h198l-47 259zM658 868l-129 -92h-104l160 174z" />
    <glyph glyph-name="Acircumflex" unicode="&#xc2;" horiz-adv-x="724" 
d="M528 0l-28 155h-290l-91 -155h-148l422 700h129l138 -700h-132zM281 277h198l-47 259zM389 767h-118l190 183h66l103 -183h-99l-51 86z" />
    <glyph glyph-name="Atilde" unicode="&#xc3;" horiz-adv-x="724" 
d="M548 776q-31 0 -80 35q-28 22 -41 22q-29 0 -31 -51h-73q0 68 28.5 108.5t73.5 40.5q35 0 80 -36q28 -22 40 -22q27 0 32 54h72q0 -69 -29 -110t-72 -41zM528 0l-28 155h-290l-91 -155h-148l422 700h129l138 -700h-132zM281 277h198l-47 259z" />
    <glyph glyph-name="Adieresis" unicode="&#xc4;" horiz-adv-x="724" 
d="M446 888l-26 -112h-109l26 112h109zM639 888l-25 -112h-110l27 112h108zM528 0l-28 155h-290l-91 -155h-148l422 700h129l138 -700h-132zM281 277h198l-47 259z" />
    <glyph glyph-name="Aring" unicode="&#xc5;" horiz-adv-x="724" 
d="M480 950q45 0 74.5 -29t29.5 -74q0 -46 -29.5 -75t-74.5 -29q-44 0 -73 29.5t-29 74.5t29 74t73 29zM481 900q-23 0 -37 -15t-14 -38q0 -24 13.5 -39t37.5 -15q23 0 37 15t14 39q0 23 -14 38t-37 15zM528 0l-28 155h-290l-91 -155h-148l422 700h129l138 -700h-132z
M281 277h198l-47 259z" />
    <glyph glyph-name="AE" unicode="&#xc6;" horiz-adv-x="1002" 
d="M1023 578h-329l-38 -163h305l-28 -122h-305l-39 -171h347l-28 -122h-477l39 169h-234l-109 -169h-156l466 700h615zM314 291h184l65 287h-64z" />
    <glyph glyph-name="Ccedilla" unicode="&#xc7;" horiz-adv-x="766" 
d="M208 313q0 -89 47 -148q46 -58 136 -58q71 0 121.5 39.5t68.5 111.5h134q-18 -124 -111 -200t-221 -76h-6l-6 -28q34 -2 54.5 -19.5t20.5 -44.5q0 -42 -31 -70t-80 -28q-70 0 -107 37l43 48q28 -28 61 -28q21 0 33.5 9.5t12.5 24.5q0 35 -71 35l17 69q-116 19 -181 109
t-65 213q-1 77 26 151t75 131.5t120.5 92t155.5 32.5q124 0 204.5 -66t80.5 -170l-1 -13h-133q-1 59 -42.5 93t-109.5 34q-107 2 -177.5 -84t-68.5 -197z" />
    <glyph glyph-name="Egrave" unicode="&#xc8;" horiz-adv-x="608" 
d="M197 700h461l-29 -122h-329l-38 -163h305l-28 -122h-305l-39 -171h347l-28 -122h-477zM477 776h-78l-74 142l107 32z" />
    <glyph glyph-name="Eacute" unicode="&#xc9;" horiz-adv-x="608" 
d="M197 700h461l-29 -122h-329l-38 -163h305l-28 -122h-305l-39 -171h347l-28 -122h-477zM579 868l-129 -92h-104l160 174z" />
    <glyph glyph-name="Ecircumflex" unicode="&#xca;" horiz-adv-x="608" 
d="M197 700h461l-29 -122h-329l-38 -163h305l-28 -122h-305l-39 -171h347l-28 -122h-477zM369 767h-118l190 183h66l103 -183h-99l-51 86z" />
    <glyph glyph-name="Edieresis" unicode="&#xcb;" horiz-adv-x="608" 
d="M197 700h461l-29 -122h-329l-38 -163h305l-28 -122h-305l-39 -171h347l-28 -122h-477zM413 888l-26 -112h-109l26 112h109zM606 888l-25 -112h-110l27 112h108z" />
    <glyph glyph-name="Igrave" unicode="&#xcc;" horiz-adv-x="320" 
d="M41 0l161 700h130l-162 -700h-129zM315 776h-78l-74 142l107 32z" />
    <glyph glyph-name="Iacute" unicode="&#xcd;" horiz-adv-x="320" 
d="M41 0l161 700h130l-162 -700h-129zM463 868l-129 -92h-104l160 174z" />
    <glyph glyph-name="Icircumflex" unicode="&#xce;" horiz-adv-x="320" 
d="M41 0l161 700h130l-162 -700h-129zM219 767h-118l190 183h66l103 -183h-99l-51 86z" />
    <glyph glyph-name="Idieresis" unicode="&#xcf;" horiz-adv-x="320" 
d="M41 0l161 700h130l-162 -700h-129zM266 888l-26 -112h-109l26 112h109zM459 888l-25 -112h-110l27 112h108z" />
    <glyph glyph-name="Eth" unicode="&#xd0;" horiz-adv-x="722" 
d="M701 408q1 -74 -27.5 -147t-80.5 -132t-133.5 -95t-177.5 -34h-249l76 329h-83l12 54h83l73 317h216q140 0 215.5 -83t75.5 -209zM570 401q0 80 -43.5 128.5t-125.5 48.5h-105l-44 -195h140l-13 -54h-140l-47 -207h98q123 -3 202.5 85t77.5 194z" />
    <glyph glyph-name="Ntilde" unicode="&#xd1;" horiz-adv-x="723" 
d="M738 700l-159 -700h-119l-184 480l-109 -480h-129l159 700h132l176 -460l105 460h128zM543 776q-31 0 -80 35q-28 22 -41 22q-29 0 -31 -51h-73q0 68 28.5 108.5t73.5 40.5q35 0 80 -36q28 -22 40 -22q28 0 32 54h72q0 -69 -29 -110t-72 -41z" />
    <glyph glyph-name="Ograve" unicode="&#xd2;" horiz-adv-x="781" 
d="M754 391q2 -108 -44.5 -202.5t-134 -151.5t-195.5 -55q-135 0 -218 90t-83 236q-2 108 44.5 202.5t134 151.5t195.5 55q135 0 218 -90t83 -236zM624 386q0 96 -47 151t-129 55q-108 0 -173.5 -78.5t-65.5 -200.5q0 -96 47 -151t129 -55q108 0 173.5 78.5t65.5 200.5z
M507 776h-78l-74 142l107 32z" />
    <glyph glyph-name="Oacute" unicode="&#xd3;" horiz-adv-x="781" 
d="M754 391q2 -108 -44.5 -202.5t-134 -151.5t-195.5 -55q-135 0 -218 90t-83 236q-2 108 44.5 202.5t134 151.5t195.5 55q135 0 218 -90t83 -236zM624 386q0 96 -47 151t-129 55q-108 0 -173.5 -78.5t-65.5 -200.5q0 -96 47 -151t129 -55q108 0 173.5 78.5t65.5 200.5z
M669 868l-129 -92h-104l160 174z" />
    <glyph glyph-name="Ocircumflex" unicode="&#xd4;" horiz-adv-x="781" 
d="M754 391q2 -108 -44.5 -202.5t-134 -151.5t-195.5 -55q-135 0 -218 90t-83 236q-2 108 44.5 202.5t134 151.5t195.5 55q135 0 218 -90t83 -236zM624 386q0 96 -47 151t-129 55q-108 0 -173.5 -78.5t-65.5 -200.5q0 -96 47 -151t129 -55q108 0 173.5 78.5t65.5 200.5z
M418 767h-118l190 183h66l103 -183h-99l-51 86z" />
    <glyph glyph-name="Otilde" unicode="&#xd5;" horiz-adv-x="781" 
d="M754 391q2 -108 -44.5 -202.5t-134 -151.5t-195.5 -55q-135 0 -218 90t-83 236q-2 108 44.5 202.5t134 151.5t195.5 55q135 0 218 -90t83 -236zM624 386q0 96 -47 151t-129 55q-108 0 -173.5 -78.5t-65.5 -200.5q0 -96 47 -151t129 -55q108 0 173.5 78.5t65.5 200.5z
M545 776q-31 0 -80 35q-28 22 -41 22q-29 0 -31 -51h-73q0 68 28.5 108.5t73.5 40.5q35 0 80 -36q28 -22 40 -22q28 0 32 54h72q0 -69 -29 -110t-72 -41z" />
    <glyph glyph-name="Odieresis" unicode="&#xd6;" horiz-adv-x="781" 
d="M754 391q2 -108 -44.5 -202.5t-134 -151.5t-195.5 -55q-135 0 -218 90t-83 236q-2 108 44.5 202.5t134 151.5t195.5 55q135 0 218 -90t83 -236zM624 386q0 96 -47 151t-129 55q-108 0 -173.5 -78.5t-65.5 -200.5q0 -96 47 -151t129 -55q108 0 173.5 78.5t65.5 200.5z
M488 888l-26 -112h-109l26 112h109zM681 888l-25 -112h-110l27 112h108z" />
    <glyph glyph-name="multiply" unicode="&#xd7;" 
d="M532 432l-151 -122l92 -120l-81 -65l-92 119l-151 -122l-55 72l151 122l-92 120l81 65l92 -119l151 122z" />
    <glyph glyph-name="Oslash" unicode="&#xd8;" horiz-adv-x="781" 
d="M754 391q2 -108 -44.5 -202.5t-134 -151.5t-195.5 -55q-82 0 -150 36l-56 -78l-65 48l57 79q-87 89 -87 241q-2 108 44.5 202.5t134 151.5t195.5 55q87 0 156 -39l60 83l65 -48l-62 -86q82 -90 82 -236zM245 176l288 397q-37 19 -85 19q-108 0 -173.5 -78.5t-65.5 -200.5
q0 -85 36 -137zM624 386q0 78 -32 131l-285 -394q33 -16 78 -16q108 0 173.5 78.5t65.5 200.5z" />
    <glyph glyph-name="Ugrave" unicode="&#xd9;" horiz-adv-x="710" 
d="M327 -18q-108 0 -176.5 61.5t-68.5 163.5q0 37 9 78l96 415h131l-97 -425q-8 -34 -8 -54q0 -57 33 -86t93 -29q133 0 168 152l100 442h129l-103 -452q-31 -133 -115 -200q-82 -66 -191 -66zM494 776h-78l-74 142l107 32z" />
    <glyph glyph-name="Uacute" unicode="&#xda;" horiz-adv-x="710" 
d="M327 -18q-108 0 -176.5 61.5t-68.5 163.5q0 37 9 78l96 415h131l-97 -425q-8 -34 -8 -54q0 -57 33 -86t93 -29q133 0 168 152l100 442h129l-103 -452q-31 -133 -115 -200q-82 -66 -191 -66zM625 868l-129 -92h-104l160 174z" />
    <glyph glyph-name="Ucircumflex" unicode="&#xdb;" horiz-adv-x="710" 
d="M327 -18q-108 0 -176.5 61.5t-68.5 163.5q0 37 9 78l96 415h131l-97 -425q-8 -34 -8 -54q0 -57 33 -86t93 -29q133 0 168 152l100 442h129l-103 -452q-31 -133 -115 -200q-82 -66 -191 -66zM389 767h-118l190 183h66l103 -183h-99l-51 86z" />
    <glyph glyph-name="Udieresis" unicode="&#xdc;" horiz-adv-x="710" 
d="M327 -18q-108 0 -176.5 61.5t-68.5 163.5q0 37 9 78l96 415h131l-97 -425q-8 -34 -8 -54q0 -57 33 -86t93 -29q133 0 168 152l100 442h129l-103 -452q-31 -133 -115 -200q-82 -66 -191 -66zM444 888l-26 -112h-109l26 112h109zM637 888l-25 -112h-110l27 112h108z" />
    <glyph glyph-name="Yacute" unicode="&#xdd;" horiz-adv-x="640" 
d="M727 700l-335 -432l-61 -268h-130l62 277l-146 423h136l97 -297l221 297h156zM577 868l-129 -92h-104l160 174z" />
    <glyph glyph-name="Thorn" unicode="&#xde;" horiz-adv-x="616" 
d="M612 416q0 -97 -74.5 -169.5t-199.5 -72.5h-133l-40 -174h-129l164 711h129l-24 -105h106q95 0 148 -54.5t53 -135.5zM482 406q0 37 -22 58t-63 21h-120l-43 -189h126q55 0 88.5 31.5t33.5 78.5z" />
    <glyph glyph-name="germandbls" unicode="&#xdf;" horiz-adv-x="618" 
d="M561 205q0 -81 -65 -143t-168 -62h-88l25 108h59q48 0 79.5 31.5t31.5 71.5q0 38 -33 62.5t-94 24.5l24 100q63 9 97 40t34 79q0 82 -85 82q-91 0 -115 -101l-118 -498h-124l121 519q23 95 84 144t154 49q95 0 152 -48.5t57 -132.5q0 -71 -41 -120.5t-106 -59.5
q59 -15 89 -54t30 -92z" />
    <glyph glyph-name="agrave" unicode="&#xe0;" horiz-adv-x="538" 
d="M493 376q0 -24 -6 -51l-73 -325h-117l17 71q-24 -39 -65 -60.5t-89 -21.5q-63 0 -102.5 36.5t-39.5 102.5q0 147 179 171l104 13q36 4 56 20t20 41q0 49 -74 49q-86 0 -112 -71h-120q26 87 89.5 130t153.5 43q85 0 132 -38.5t47 -109.5zM343 223l3 15q-6 -1 -61 -11
l-51 -7q-48 -7 -71 -22t-23 -49q0 -58 69 -58q106 0 134 132zM398 607h-86l-75 162l107 38z" />
    <glyph glyph-name="aacute" unicode="&#xe1;" horiz-adv-x="538" 
d="M493 376q0 -24 -6 -51l-73 -325h-117l17 71q-24 -39 -65 -60.5t-89 -21.5q-63 0 -102.5 36.5t-39.5 102.5q0 147 179 171l104 13q36 4 56 20t20 41q0 49 -74 49q-86 0 -112 -71h-120q26 87 89.5 130t153.5 43q85 0 132 -38.5t47 -109.5zM343 223l3 15q-6 -1 -61 -11
l-51 -7q-48 -7 -71 -22t-23 -49q0 -58 69 -58q106 0 134 132zM546 720l-141 -114h-112l179 196z" />
    <glyph glyph-name="acircumflex" unicode="&#xe2;" horiz-adv-x="538" 
d="M493 376q0 -24 -6 -51l-73 -325h-117l17 71q-24 -39 -65 -60.5t-89 -21.5q-63 0 -102.5 36.5t-39.5 102.5q0 147 179 171l104 13q36 4 56 20t20 41q0 49 -74 49q-86 0 -112 -71h-120q26 87 89.5 130t153.5 43q85 0 132 -38.5t47 -109.5zM343 223l3 15q-6 -1 -61 -11
l-51 -7q-48 -7 -71 -22t-23 -49q0 -58 69 -58q106 0 134 132zM291 607h-118l190 183h66l102 -183h-98l-51 86z" />
    <glyph glyph-name="atilde" unicode="&#xe3;" horiz-adv-x="538" 
d="M493 376q0 -24 -6 -51l-73 -325h-117l17 71q-24 -39 -65 -60.5t-89 -21.5q-63 0 -102.5 36.5t-39.5 102.5q0 147 179 171l104 13q36 4 56 20t20 41q0 49 -74 49q-86 0 -112 -71h-120q26 87 89.5 130t153.5 43q85 0 132 -38.5t47 -109.5zM343 223l3 15q-6 -1 -61 -11
l-51 -7q-48 -7 -71 -22t-23 -49q0 -58 69 -58q106 0 134 132zM420 607q-32 0 -79 35q-29 22 -42 22t-22 -13.5t-10 -37.5h-72q0 68 28 108.5t73 40.5q34 0 82 -36q28 -22 40 -22q27 0 31 55h73q-1 -70 -29.5 -111t-72.5 -41z" />
    <glyph glyph-name="adieresis" unicode="&#xe4;" horiz-adv-x="538" 
d="M493 376q0 -24 -6 -51l-73 -325h-117l17 71q-24 -39 -65 -60.5t-89 -21.5q-63 0 -102.5 36.5t-39.5 102.5q0 147 179 171l104 13q36 4 56 20t20 41q0 49 -74 49q-86 0 -112 -71h-120q26 87 89.5 130t153.5 43q85 0 132 -38.5t47 -109.5zM343 223l3 15q-6 -1 -61 -11
l-51 -7q-48 -7 -71 -22t-23 -49q0 -58 69 -58q106 0 134 132zM331 719l-27 -112h-108l25 112h110zM524 719l-26 -112h-109l26 112h109z" />
    <glyph glyph-name="aring" unicode="&#xe5;" horiz-adv-x="538" 
d="M493 376q0 -24 -6 -51l-73 -325h-117l17 71q-24 -39 -65 -60.5t-89 -21.5q-63 0 -102.5 36.5t-39.5 102.5q0 147 179 171l104 13q36 4 56 20t20 41q0 49 -74 49q-86 0 -112 -71h-120q26 87 89.5 130t153.5 43q85 0 132 -38.5t47 -109.5zM343 223l3 15q-6 -1 -61 -11
l-51 -7q-48 -7 -71 -22t-23 -49q0 -58 69 -58q106 0 134 132zM374 820q51 0 83.5 -32.5t32.5 -84.5q0 -50 -32.5 -83t-83.5 -33q-49 0 -81.5 33t-32.5 83q0 51 32.5 84t81.5 33zM375 753q-23 0 -36 -14t-13 -36t13 -36.5t36 -14.5t36 14.5t13 36.5t-13 36t-36 14z" />
    <glyph glyph-name="ae" unicode="&#xe6;" horiz-adv-x="851" 
d="M802 220h-338q-1 -3 -1 -15q0 -50 27.5 -79t76.5 -29q71 0 99 58h116q-30 -81 -88.5 -123.5t-137.5 -42.5q-138 0 -186 115q-43 -70 -97 -93q-51 -22 -113 -22q-63 0 -102.5 36.5t-39.5 102.5q0 147 179 171l104 13q36 4 56 20t20 41q0 49 -74 49q-86 0 -112 -71h-120
q26 87 89.5 130t153.5 43q102 0 145 -61q60 61 154 61q95 0 147.5 -55.5t52.5 -155.5q0 -44 -11 -93zM480 311h215q3 13 3 27q0 38 -24.5 58.5t-68.5 20.5q-97 0 -125 -106zM343 223l3 15q-6 -1 -61 -11l-51 -7q-48 -7 -71 -22t-23 -49q0 -58 69 -58q106 0 134 132z" />
    <glyph glyph-name="ccedilla" unicode="&#xe7;" horiz-adv-x="540" 
d="M509 329h-119v10q0 35 -22.5 53t-58.5 18q-66 0 -105 -60.5t-39 -133.5q0 -53 23.5 -82.5t68.5 -29.5q78 0 104 79h122q-18 -83 -80 -136q-63 -54 -145 -58l-8 -35q34 -2 54.5 -19.5t20.5 -44.5q0 -42 -31 -70t-80 -28q-70 0 -107 37l43 48q28 -28 61 -28q21 0 33.5 9.5
t12.5 24.5q0 35 -71 35l18 74q-76 13 -118 72.5t-42 147.5q-1 75 30 145.5t95.5 119.5t147.5 47q88 0 140.5 -47.5t52.5 -125.5q0 -16 -1 -22z" />
    <glyph glyph-name="egrave" unicode="&#xe8;" horiz-adv-x="547" 
d="M160 205q0 -50 27.5 -79t76.5 -29q71 0 99 58h116q-30 -81 -88.5 -123.5t-137.5 -42.5q-96 0 -151.5 60t-55.5 168q0 127 72 217t192 90q95 0 147.5 -55.5t52.5 -155.5q0 -44 -11 -93h-338q-1 -3 -1 -15zM177 311h215q3 13 3 27q0 38 -24.5 58.5t-68.5 20.5
q-97 0 -125 -106zM376 607h-86l-75 162l107 38z" />
    <glyph glyph-name="eacute" unicode="&#xe9;" horiz-adv-x="547" 
d="M160 205q0 -50 27.5 -79t76.5 -29q71 0 99 58h116q-30 -81 -88.5 -123.5t-137.5 -42.5q-96 0 -151.5 60t-55.5 168q0 127 72 217t192 90q95 0 147.5 -55.5t52.5 -155.5q0 -44 -11 -93h-338q-1 -3 -1 -15zM177 311h215q3 13 3 27q0 38 -24.5 58.5t-68.5 20.5
q-97 0 -125 -106zM511 720l-141 -114h-112l179 196z" />
    <glyph glyph-name="ecircumflex" unicode="&#xea;" horiz-adv-x="547" 
d="M160 205q0 -50 27.5 -79t76.5 -29q71 0 99 58h116q-30 -81 -88.5 -123.5t-137.5 -42.5q-96 0 -151.5 60t-55.5 168q0 127 72 217t192 90q95 0 147.5 -55.5t52.5 -155.5q0 -44 -11 -93h-338q-1 -3 -1 -15zM177 311h215q3 13 3 27q0 38 -24.5 58.5t-68.5 20.5
q-97 0 -125 -106zM284 607h-118l190 183h66l102 -183h-98l-51 86z" />
    <glyph glyph-name="edieresis" unicode="&#xeb;" horiz-adv-x="547" 
d="M160 205q0 -50 27.5 -79t76.5 -29q71 0 99 58h116q-30 -81 -88.5 -123.5t-137.5 -42.5q-96 0 -151.5 60t-55.5 168q0 127 72 217t192 90q95 0 147.5 -55.5t52.5 -155.5q0 -44 -11 -93h-338q-1 -3 -1 -15zM177 311h215q3 13 3 27q0 38 -24.5 58.5t-68.5 20.5
q-97 0 -125 -106zM333 719l-27 -112h-108l25 112h110zM526 719l-26 -112h-109l26 112h109z" />
    <glyph glyph-name="igrave" unicode="&#xec;" horiz-adv-x="290" 
d="M148 0h-124l118 515h124zM260 607h-86l-75 162l107 38z" />
    <glyph glyph-name="iacute" unicode="&#xed;" horiz-adv-x="292" 
d="M148 0h-124l118 515h124zM418 720l-141 -114h-112l179 196z" />
    <glyph glyph-name="icircumflex" unicode="&#xee;" horiz-adv-x="290" 
d="M148 0h-124l118 515h124zM162 607h-118l190 183h66l102 -183h-98l-51 86z" />
    <glyph glyph-name="idieresis" unicode="&#xef;" horiz-adv-x="290" 
d="M148 0h-124l118 515h124zM211 719l-27 -112h-108l25 112h110zM404 719l-26 -112h-109l26 112h109z" />
    <glyph glyph-name="eth" unicode="&#xf0;" horiz-adv-x="596" 
d="M569 396q0 -188 -81 -297.5t-206 -109.5q-99 0 -164.5 60t-65.5 162q0 116 67.5 182.5t165.5 66.5q54 0 100 -22t73 -63q3 28 3 52q0 79 -30 123l-64 -44l-32 45l51 35q-24 8 -45 8q-92 0 -112 -84h-125q14 88 75.5 139t153.5 51q90 0 147 -48l74 51v-67l-37 -26
q52 -74 52 -214zM413 230q0 59 -32.5 91.5t-82.5 32.5q-56 0 -91.5 -34.5t-35.5 -96.5q0 -57 35.5 -87.5t92.5 -30.5q46 0 80 34.5t34 90.5z" />
    <glyph glyph-name="ntilde" unicode="&#xf1;" horiz-adv-x="588" 
d="M544 372q0 -17 -5 -42l-75 -330h-125l75 324q3 14 3 27q0 29 -21.5 45.5t-55.5 16.5q-48 0 -81.5 -33t-47.5 -95l-66 -285h-124l118 515h120l-18 -75q48 84 147 84q72 0 114 -45t42 -107zM453 607q-32 0 -79 35q-29 22 -42 22t-22 -13.5t-10 -37.5h-72q0 68 28 108.5
t73 40.5q34 0 82 -36q28 -22 40 -22q27 0 31 55h73q-1 -70 -29.5 -111t-72.5 -41z" />
    <glyph glyph-name="ograve" unicode="&#xf2;" horiz-adv-x="577" 
d="M536 296q0 -128 -79.5 -217.5t-195.5 -89.5q-98 0 -157 59.5t-59 167.5q-2 127 79 217.5t195 88.5q98 0 157.5 -59t59.5 -167zM315 408q-62 0 -105.5 -54.5t-43.5 -132.5q0 -58 27 -87.5t74 -29.5q61 0 103.5 54t42.5 132q0 58 -26 88t-72 30zM393 607h-86l-75 162
l107 38z" />
    <glyph glyph-name="oacute" unicode="&#xf3;" horiz-adv-x="577" 
d="M536 296q0 -128 -79.5 -217.5t-195.5 -89.5q-98 0 -157 59.5t-59 167.5q-2 127 79 217.5t195 88.5q98 0 157.5 -59t59.5 -167zM315 408q-62 0 -105.5 -54.5t-43.5 -132.5q0 -58 27 -87.5t74 -29.5q61 0 103.5 54t42.5 132q0 58 -26 88t-72 30zM546 720l-141 -114h-112
l179 196z" />
    <glyph glyph-name="ocircumflex" unicode="&#xf4;" horiz-adv-x="577" 
d="M536 296q0 -128 -79.5 -217.5t-195.5 -89.5q-98 0 -157 59.5t-59 167.5q-2 127 79 217.5t195 88.5q98 0 157.5 -59t59.5 -167zM315 408q-62 0 -105.5 -54.5t-43.5 -132.5q0 -58 27 -87.5t74 -29.5q61 0 103.5 54t42.5 132q0 58 -26 88t-72 30zM293 607h-118l190 183h66
l102 -183h-98l-51 86z" />
    <glyph glyph-name="otilde" unicode="&#xf5;" horiz-adv-x="577" 
d="M536 296q0 -128 -79.5 -217.5t-195.5 -89.5q-98 0 -157 59.5t-59 167.5q-2 127 79 217.5t195 88.5q98 0 157.5 -59t59.5 -167zM315 408q-62 0 -105.5 -54.5t-43.5 -132.5q0 -58 27 -87.5t74 -29.5q61 0 103.5 54t42.5 132q0 58 -26 88t-72 30zM429 607q-32 0 -79 35
q-29 22 -42 22t-22 -13.5t-10 -37.5h-72q0 68 28 108.5t73 40.5q34 0 82 -36q28 -22 40 -22q27 0 31 55h73q-1 -70 -29.5 -111t-72.5 -41z" />
    <glyph glyph-name="odieresis" unicode="&#xf6;" horiz-adv-x="577" 
d="M536 296q0 -128 -79.5 -217.5t-195.5 -89.5q-98 0 -157 59.5t-59 167.5q-2 127 79 217.5t195 88.5q98 0 157.5 -59t59.5 -167zM315 408q-62 0 -105.5 -54.5t-43.5 -132.5q0 -58 27 -87.5t74 -29.5q61 0 103.5 54t42.5 132q0 58 -26 88t-72 30zM335 719l-27 -112h-108
l25 112h110zM528 719l-26 -112h-109l26 112h109z" />
    <glyph glyph-name="divide" unicode="&#xf7;" 
d="M423 562l-30 -130h-126l31 130h125zM535 362l-23 -100h-422l23 100h422zM348 192l-30 -130h-126l31 130h125z" />
    <glyph glyph-name="oslash" unicode="&#xf8;" horiz-adv-x="577" 
d="M536 296q0 -128 -79.5 -217.5t-195.5 -89.5q-53 0 -101 20l-57 -78l-65 48l57 79q-50 61 -50 158q-2 127 79 217.5t195 88.5q58 0 99 -19l49 67l65 -47l-49 -67q53 -62 53 -160zM174 167l172 237q-11 4 -31 4q-62 0 -105.5 -54.5t-43.5 -132.5q0 -28 8 -54zM413 290
q0 33 -9 57l-172 -238q20 -5 35 -5q61 0 103.5 54t42.5 132z" />
    <glyph glyph-name="ugrave" unicode="&#xf9;" horiz-adv-x="578" 
d="M567 515l-118 -515h-118l19 81q-45 -87 -146 -87q-68 0 -109.5 40.5t-41.5 107.5q0 21 5 44l77 329h123l-75 -326q-2 -14 -2 -19q0 -29 18 -47.5t53 -18.5q94 0 132 156l60 255h123zM388 607h-86l-75 162l107 38z" />
    <glyph glyph-name="uacute" unicode="&#xfa;" horiz-adv-x="578" 
d="M567 515l-118 -515h-118l19 81q-45 -87 -146 -87q-68 0 -109.5 40.5t-41.5 107.5q0 21 5 44l77 329h123l-75 -326q-2 -14 -2 -19q0 -29 18 -47.5t53 -18.5q94 0 132 156l60 255h123zM533 720l-141 -114h-112l179 196z" />
    <glyph glyph-name="ucircumflex" unicode="&#xfb;" horiz-adv-x="578" 
d="M567 515l-118 -515h-118l19 81q-45 -87 -146 -87q-68 0 -109.5 40.5t-41.5 107.5q0 21 5 44l77 329h123l-75 -326q-2 -14 -2 -19q0 -29 18 -47.5t53 -18.5q94 0 132 156l60 255h123zM302 607h-118l190 183h66l102 -183h-98l-51 86z" />
    <glyph glyph-name="udieresis" unicode="&#xfc;" horiz-adv-x="578" 
d="M567 515l-118 -515h-118l19 81q-45 -87 -146 -87q-68 0 -109.5 40.5t-41.5 107.5q0 21 5 44l77 329h123l-75 -326q-2 -14 -2 -19q0 -29 18 -47.5t53 -18.5q94 0 132 156l60 255h123zM346 719l-27 -112h-108l25 112h110zM539 719l-26 -112h-109l26 112h109z" />
    <glyph glyph-name="yacute" unicode="&#xfd;" horiz-adv-x="542" 
d="M454 515h137l-312 -539q-44 -76 -101.5 -108t-140.5 -32h-42l24 110h23q91 0 130 69l9 16l-102 484h124l67 -338zM510 720l-141 -114h-112l179 196z" />
    <glyph glyph-name="thorn" unicode="&#xfe;" horiz-adv-x="613" 
d="M576 306q1 -74 -32 -145.5t-96 -119t-139 -45.5q-57 0 -96.5 25t-48.5 67l-65 -280h-123l209 903h122l-59 -256q51 69 138 69q89 0 139.5 -63t50.5 -155zM452 290q0 53 -26 87.5t-72 34.5q-69 0 -115 -57.5t-46 -128.5q0 -54 28.5 -87.5t80.5 -33.5q64 0 107 57t43 128z
" />
    <glyph glyph-name="ydieresis" unicode="&#xff;" horiz-adv-x="542" 
d="M454 515h137l-312 -539q-44 -76 -101.5 -108t-140.5 -32h-42l24 110h23q91 0 130 69l9 16l-102 484h124l67 -338zM331 719l-27 -112h-108l25 112h110zM524 719l-26 -112h-109l26 112h109z" />
    <glyph glyph-name="Amacron" unicode="&#x100;" horiz-adv-x="724" 
d="M528 0l-28 155h-290l-91 -155h-148l422 700h129l138 -700h-132zM281 277h198l-47 259zM340 870h298l-21 -94h-299z" />
    <glyph glyph-name="amacron" unicode="&#x101;" horiz-adv-x="538" 
d="M493 376q0 -24 -6 -51l-73 -325h-117l17 71q-24 -39 -65 -60.5t-89 -21.5q-63 0 -102.5 36.5t-39.5 102.5q0 147 179 171l104 13q36 4 56 20t20 41q0 49 -74 49q-86 0 -112 -71h-120q26 87 89.5 130t153.5 43q85 0 132 -38.5t47 -109.5zM343 223l3 15q-6 -1 -61 -11
l-51 -7q-48 -7 -71 -22t-23 -49q0 -58 69 -58q106 0 134 132zM232 701h298l-21 -94h-299z" />
    <glyph glyph-name="Abreve" unicode="&#x102;" horiz-adv-x="724" 
d="M528 0l-28 155h-290l-91 -155h-148l422 700h129l138 -700h-132zM281 277h198l-47 259zM638 925q0 -55 -39 -102t-111 -47q-52 0 -81.5 26t-29.5 67q0 42 19 75h76q-12 -27 -12 -50q0 -39 39 -39q27 0 42 22.5t15 54.5v12h81q1 -3 1 -19z" />
    <glyph glyph-name="abreve" unicode="&#x103;" horiz-adv-x="538" 
d="M493 376q0 -24 -6 -51l-73 -325h-117l17 71q-24 -39 -65 -60.5t-89 -21.5q-63 0 -102.5 36.5t-39.5 102.5q0 147 179 171l104 13q36 4 56 20t20 41q0 49 -74 49q-86 0 -112 -71h-120q26 87 89.5 130t153.5 43q85 0 132 -38.5t47 -109.5zM343 223l3 15q-6 -1 -61 -11
l-51 -7q-48 -7 -71 -22t-23 -49q0 -58 69 -58q106 0 134 132zM526 756q0 -55 -39 -102t-112 -47q-52 0 -81.5 26t-29.5 67q0 37 20 75h76q-13 -27 -13 -50q0 -39 40 -39q27 0 42 22.5t15 54.5v12h81q1 -3 1 -19z" />
    <glyph glyph-name="Aogonek" unicode="&#x104;" horiz-adv-x="724" 
d="M612 -105l-13 -59q-47 4 -79 30.5t-32 63.5q0 40 40 72l-28 153h-290l-91 -155h-148l422 700h129l138 -700h-80q-32 -23 -32 -55q0 -21 18.5 -34.5t45.5 -15.5zM281 277h198l-47 259z" />
    <glyph glyph-name="aogonek" unicode="&#x105;" horiz-adv-x="540" 
d="M493 376q0 -24 -6 -51l-73 -325h-64q-32 -23 -32 -55q0 -21 18.5 -34.5t45.5 -15.5l-13 -59q-47 4 -79 30.5t-32 63.5q0 43 39 71l17 70q-24 -39 -65 -60.5t-89 -21.5q-63 0 -102.5 36.5t-39.5 102.5q0 147 179 171l104 13q36 4 56 20t20 41q0 49 -74 49q-86 0 -112 -71
h-120q26 87 89.5 130t153.5 43q85 0 132 -38.5t47 -109.5zM343 223l3 15q-6 -1 -61 -11l-51 -7q-48 -7 -71 -22t-23 -49q0 -58 69 -58q106 0 134 132z" />
    <glyph glyph-name="Cacute" unicode="&#x106;" horiz-adv-x="766" 
d="M581 258h134q-18 -124 -111 -200t-221 -76q-142 0 -223.5 94t-81.5 233q-1 77 26 151t75 131.5t120.5 92t155.5 32.5q124 0 204.5 -66t80.5 -170l-1 -13h-133q-1 59 -42.5 93t-109.5 34q-107 2 -177.5 -84t-68.5 -197q0 -89 47 -148q46 -58 136 -58q71 0 121.5 39.5
t68.5 111.5zM664 868l-129 -92h-104l160 174z" />
    <glyph glyph-name="cacute" unicode="&#x107;" horiz-adv-x="540" 
d="M361 183h122q-20 -88 -85 -141q-67 -53 -154 -53q-95 0 -147.5 62.5t-52.5 160.5q-1 75 30 145.5t95.5 119.5t147.5 47q88 0 140.5 -47.5t52.5 -125.5q0 -16 -1 -22h-119v10q0 35 -22.5 53t-58.5 18q-66 0 -105 -60.5t-39 -133.5q0 -53 23.5 -82.5t68.5 -29.5
q78 0 104 79zM542 720l-141 -114h-112l179 196z" />
    <glyph glyph-name="Ccircumflex" unicode="&#x108;" horiz-adv-x="766" 
d="M581 258h134q-18 -124 -111 -200t-221 -76q-142 0 -223.5 94t-81.5 233q-1 77 26 151t75 131.5t120.5 92t155.5 32.5q124 0 204.5 -66t80.5 -170l-1 -13h-133q-1 59 -42.5 93t-109.5 34q-107 2 -177.5 -84t-68.5 -197q0 -89 47 -148q46 -58 136 -58q71 0 121.5 39.5
t68.5 111.5zM420 767h-118l190 183h66l103 -183h-99l-51 86z" />
    <glyph glyph-name="ccircumflex" unicode="&#x109;" horiz-adv-x="540" 
d="M361 183h122q-20 -88 -85 -141q-67 -53 -154 -53q-95 0 -147.5 62.5t-52.5 160.5q-1 75 30 145.5t95.5 119.5t147.5 47q88 0 140.5 -47.5t52.5 -125.5q0 -16 -1 -22h-119v10q0 35 -22.5 53t-58.5 18q-66 0 -105 -60.5t-39 -133.5q0 -53 23.5 -82.5t68.5 -29.5
q78 0 104 79zM284 607h-118l190 183h66l102 -183h-98l-51 86z" />
    <glyph glyph-name="Cdotaccent" unicode="&#x10a;" horiz-adv-x="766" 
d="M581 258h134q-18 -124 -111 -200t-221 -76q-142 0 -223.5 94t-81.5 233q-1 77 26 151t75 131.5t120.5 92t155.5 32.5q124 0 204.5 -66t80.5 -170l-1 -13h-133q-1 59 -42.5 93t-109.5 34q-107 2 -177.5 -84t-68.5 -197q0 -89 47 -148q46 -58 136 -58q71 0 121.5 39.5
t68.5 111.5zM596 920l-33 -144h-140l34 144h139z" />
    <glyph glyph-name="cdotaccent" unicode="&#x10b;" horiz-adv-x="540" 
d="M361 183h122q-20 -88 -85 -141q-67 -53 -154 -53q-95 0 -147.5 62.5t-52.5 160.5q-1 75 30 145.5t95.5 119.5t147.5 47q88 0 140.5 -47.5t52.5 -125.5q0 -16 -1 -22h-119v10q0 35 -22.5 53t-58.5 18q-66 0 -105 -60.5t-39 -133.5q0 -53 23.5 -82.5t68.5 -29.5
q78 0 104 79zM448 750l-33 -144h-140l34 144h139z" />
    <glyph glyph-name="Ccaron" unicode="&#x10c;" horiz-adv-x="766" 
d="M581 258h134q-18 -124 -111 -200t-221 -76q-142 0 -223.5 94t-81.5 233q-1 77 26 151t75 131.5t120.5 92t155.5 32.5q124 0 204.5 -66t80.5 -170l-1 -13h-133q-1 59 -42.5 93t-109.5 34q-107 2 -177.5 -84t-68.5 -197q0 -89 47 -148q46 -58 136 -58q71 0 121.5 39.5
t68.5 111.5zM595 950h118l-187 -183h-66l-103 183h99l51 -86z" />
    <glyph glyph-name="ccaron" unicode="&#x10d;" horiz-adv-x="540" 
d="M361 183h122q-20 -88 -85 -141q-67 -53 -154 -53q-95 0 -147.5 62.5t-52.5 160.5q-1 75 30 145.5t95.5 119.5t147.5 47q88 0 140.5 -47.5t52.5 -125.5q0 -16 -1 -22h-119v10q0 35 -22.5 53t-58.5 18q-66 0 -105 -60.5t-39 -133.5q0 -53 23.5 -82.5t68.5 -29.5
q78 0 104 79zM446 790h118l-187 -183h-66l-103 183h99l50 -86z" />
    <glyph glyph-name="Dcaron" unicode="&#x10e;" horiz-adv-x="725" 
d="M704 408q1 -74 -27.5 -147t-80.5 -132t-133.5 -95t-177.5 -34h-249l161 700h216q140 0 215.5 -83t75.5 -209zM573 401q0 80 -43.5 128.5t-125.5 48.5h-105l-104 -456h98q123 -3 202.5 85t77.5 194zM503 950h118l-187 -183h-66l-103 183h99l51 -86z" />
    <glyph glyph-name="dcaron" unicode="&#x10f;" horiz-adv-x="824" 
d="M649 711l-165 -711h-116l20 77q-21 -40 -62.5 -64t-91.5 -24q-86 0 -138 64.5t-52 159.5q-1 74 30.5 145.5t94.5 119.5t141 46q58 0 99.5 -22.5t54.5 -55.5l62 265h123zM431 293q0 55 -28.5 88.5t-83.5 33.5q-60 0 -106.5 -53.5t-46.5 -139.5q0 -57 28.5 -89.5
t84.5 -32.5q62 0 107 61t45 132zM900 717l-27 -118q-21 -93 -74.5 -138t-138.5 -51l-1 63q56 8 87.5 35t43.5 77h-64l32 132h142z" />
    <glyph glyph-name="Dcroat" unicode="&#x110;" horiz-adv-x="722" 
d="M701 408q1 -74 -27.5 -147t-80.5 -132t-133.5 -95t-177.5 -34h-249l76 329h-83l12 54h83l73 317h216q140 0 215.5 -83t75.5 -209zM570 401q0 80 -43.5 128.5t-125.5 48.5h-105l-44 -195h140l-13 -54h-140l-47 -207h98q123 -3 202.5 85t77.5 194z" />
    <glyph glyph-name="dslash" unicode="&#x111;" horiz-adv-x="632" 
d="M688 632l-12 -54h-58l-134 -578h-116l20 77q-21 -40 -62.5 -64t-91.5 -24q-86 0 -138 64.5t-52 159.5q-1 74 30.5 145.5t94.5 119.5t141 46q58 0 99.5 -22.5t54.5 -55.5l31 132h-108l12 54h109l18 79h123l-18 -79h57zM431 293q0 55 -28.5 88.5t-83.5 33.5
q-60 0 -106.5 -53.5t-46.5 -139.5q0 -57 28.5 -89.5t84.5 -32.5q62 0 107 61t45 132z" />
    <glyph glyph-name="Emacron" unicode="&#x112;" horiz-adv-x="608" 
d="M197 700h461l-29 -122h-329l-38 -163h305l-28 -122h-305l-39 -171h347l-28 -122h-477zM307 870h298l-21 -94h-299z" />
    <glyph glyph-name="emacron" unicode="&#x113;" horiz-adv-x="547" 
d="M160 205q0 -50 27.5 -79t76.5 -29q71 0 99 58h116q-30 -81 -88.5 -123.5t-137.5 -42.5q-96 0 -151.5 60t-55.5 168q0 127 72 217t192 90q95 0 147.5 -55.5t52.5 -155.5q0 -44 -11 -93h-338q-1 -3 -1 -15zM177 311h215q3 13 3 27q0 38 -24.5 58.5t-68.5 20.5
q-97 0 -125 -106zM207 701h298l-21 -94h-299z" />
    <glyph glyph-name="Ebreve" unicode="&#x114;" horiz-adv-x="608" 
d="M197 700h461l-29 -122h-329l-38 -163h305l-28 -122h-305l-39 -171h347l-28 -122h-477zM587 925q0 -55 -39 -102t-111 -47q-52 0 -81.5 26t-29.5 67q0 42 19 75h76q-12 -27 -12 -50q0 -39 39 -39q27 0 42 22.5t15 54.5v12h81q1 -3 1 -19z" />
    <glyph glyph-name="ebreve" unicode="&#x115;" horiz-adv-x="547" 
d="M160 205q0 -50 27.5 -79t76.5 -29q71 0 99 58h116q-30 -81 -88.5 -123.5t-137.5 -42.5q-96 0 -151.5 60t-55.5 168q0 127 72 217t192 90q95 0 147.5 -55.5t52.5 -155.5q0 -44 -11 -93h-338q-1 -3 -1 -15zM177 311h215q3 13 3 27q0 38 -24.5 58.5t-68.5 20.5
q-97 0 -125 -106zM491 756q0 -55 -39 -102t-112 -47q-52 0 -81.5 26t-29.5 67q0 37 20 75h76q-13 -27 -13 -50q0 -39 40 -39q27 0 42 22.5t15 54.5v12h81q1 -3 1 -19z" />
    <glyph glyph-name="Edotaccent" unicode="&#x116;" horiz-adv-x="608" 
d="M197 700h461l-29 -122h-329l-38 -163h305l-28 -122h-305l-39 -171h347l-28 -122h-477zM542 920l-33 -144h-140l34 144h139z" />
    <glyph glyph-name="edotaccent" unicode="&#x117;" horiz-adv-x="547" 
d="M160 205q0 -50 27.5 -79t76.5 -29q71 0 99 58h116q-30 -81 -88.5 -123.5t-137.5 -42.5q-96 0 -151.5 60t-55.5 168q0 127 72 217t192 90q95 0 147.5 -55.5t52.5 -155.5q0 -44 -11 -93h-338q-1 -3 -1 -15zM177 311h215q3 13 3 27q0 38 -24.5 58.5t-68.5 20.5
q-97 0 -125 -106zM451 750l-33 -144h-140l34 144h139z" />
    <glyph glyph-name="Eogonek" unicode="&#x118;" horiz-adv-x="608" 
d="M629 578h-329l-38 -163h305l-28 -122h-305l-39 -171h347l-28 -122h-58q-32 -23 -32 -55q0 -21 18.5 -34.5t45.5 -15.5l-13 -59q-47 4 -79 30.5t-32 63.5q0 41 38 70h-365l160 700h461z" />
    <glyph glyph-name="eogonek" unicode="&#x119;" horiz-adv-x="547" 
d="M499 220h-338q-1 -3 -1 -15q0 -50 27.5 -79t76.5 -29q71 0 99 58h116q-30 -81 -88.5 -123.5t-137.5 -42.5q-15 0 -19 1q-20 -20 -20 -45q0 -21 18.5 -34.5t45.5 -15.5l-13 -59q-47 4 -79 30.5t-32 63.5q0 40 34 67q-67 18 -104.5 75t-37.5 145q0 127 72 217t192 90
q95 0 147.5 -55.5t52.5 -155.5q0 -44 -11 -93zM177 311h215q3 13 3 27q0 38 -24.5 58.5t-68.5 20.5q-97 0 -125 -106z" />
    <glyph glyph-name="Ecaron" unicode="&#x11a;" horiz-adv-x="608" 
d="M197 700h461l-29 -122h-329l-38 -163h305l-28 -122h-305l-39 -171h347l-28 -122h-477zM534 950h118l-187 -183h-66l-103 183h99l51 -86z" />
    <glyph glyph-name="ecaron" unicode="&#x11b;" horiz-adv-x="547" 
d="M160 205q0 -50 27.5 -79t76.5 -29q71 0 99 58h116q-30 -81 -88.5 -123.5t-137.5 -42.5q-96 0 -151.5 60t-55.5 168q0 127 72 217t192 90q95 0 147.5 -55.5t52.5 -155.5q0 -44 -11 -93h-338q-1 -3 -1 -15zM177 311h215q3 13 3 27q0 38 -24.5 58.5t-68.5 20.5
q-97 0 -125 -106zM458 790h118l-187 -183h-66l-103 183h99l50 -86z" />
    <glyph glyph-name="Gcircumflex" unicode="&#x11c;" horiz-adv-x="784" 
d="M206 297q0 -83 45 -138q46 -55 127 -55q75 0 125 39t67 111h-208l28 121h335l-86 -375h-124l13 59q-68 -77 -180 -77q-126 0 -199 90.5t-73 223.5q-1 76 25.5 151t74.5 136t123 98t163 35q121 0 203 -64.5t82 -172.5v-12h-134q0 59 -42 93t-112 34q-76 2 -135.5 -44
t-89 -114t-28.5 -139zM429 767h-118l190 183h66l103 -183h-99l-51 86z" />
    <glyph glyph-name="gcircumflex" unicode="&#x11d;" horiz-adv-x="586" 
d="M583 515l-113 -494q-51 -224 -254 -224q-95 0 -152 47t-61 140h118q2 -86 97 -86q58 0 86.5 31t45.5 94l19 69q-37 -73 -133 -73q-88 0 -141 61.5t-53 152.5q-1 70 30.5 137t93 111.5t135.5 42.5q58 0 95 -23.5t49 -63.5l18 78h120zM408 310q0 49 -25 78t-72 29
q-63 0 -105.5 -52.5t-42.5 -117.5q0 -52 28 -86.5t75 -34.5q60 0 101 56.5t41 127.5zM287 607h-118l190 183h66l102 -183h-98l-51 86z" />
    <glyph glyph-name="Gbreve" unicode="&#x11e;" horiz-adv-x="784" 
d="M206 297q0 -83 45 -138q46 -55 127 -55q75 0 125 39t67 111h-208l28 121h335l-86 -375h-124l13 59q-68 -77 -180 -77q-126 0 -199 90.5t-73 223.5q-1 76 25.5 151t74.5 136t123 98t163 35q121 0 203 -64.5t82 -172.5v-12h-134q0 59 -42 93t-112 34q-76 2 -135.5 -44
t-89 -114t-28.5 -139zM662 925q0 -55 -39 -102t-111 -47q-52 0 -81.5 26t-29.5 67q0 42 19 75h76q-12 -27 -12 -50q0 -39 39 -39q27 0 42 22.5t15 54.5v12h81q1 -3 1 -19z" />
    <glyph glyph-name="gbreve" unicode="&#x11f;" horiz-adv-x="586" 
d="M583 515l-113 -494q-51 -224 -254 -224q-95 0 -152 47t-61 140h118q2 -86 97 -86q58 0 86.5 31t45.5 94l19 69q-37 -73 -133 -73q-88 0 -141 61.5t-53 152.5q-1 70 30.5 137t93 111.5t135.5 42.5q58 0 95 -23.5t49 -63.5l18 78h120zM408 310q0 49 -25 78t-72 29
q-63 0 -105.5 -52.5t-42.5 -117.5q0 -52 28 -86.5t75 -34.5q60 0 101 56.5t41 127.5zM499 756q0 -55 -39 -102t-112 -47q-52 0 -81.5 26t-29.5 67q0 37 20 75h76q-13 -27 -13 -50q0 -39 40 -39q27 0 42 22.5t15 54.5v12h81q1 -3 1 -19z" />
    <glyph glyph-name="Gdotaccent" unicode="&#x120;" horiz-adv-x="784" 
d="M206 297q0 -83 45 -138q46 -55 127 -55q75 0 125 39t67 111h-208l28 121h335l-86 -375h-124l13 59q-68 -77 -180 -77q-126 0 -199 90.5t-73 223.5q-1 76 25.5 151t74.5 136t123 98t163 35q121 0 203 -64.5t82 -172.5v-12h-134q0 59 -42 93t-112 34q-76 2 -135.5 -44
t-89 -114t-28.5 -139zM600 920l-33 -144h-140l34 144h139z" />
    <glyph glyph-name="gdotaccent" unicode="&#x121;" horiz-adv-x="586" 
d="M583 515l-113 -494q-51 -224 -254 -224q-95 0 -152 47t-61 140h118q2 -86 97 -86q58 0 86.5 31t45.5 94l19 69q-37 -73 -133 -73q-88 0 -141 61.5t-53 152.5q-1 70 30.5 137t93 111.5t135.5 42.5q58 0 95 -23.5t49 -63.5l18 78h120zM408 310q0 49 -25 78t-72 29
q-63 0 -105.5 -52.5t-42.5 -117.5q0 -52 28 -86.5t75 -34.5q60 0 101 56.5t41 127.5zM449 750l-33 -144h-140l34 144h139z" />
    <glyph glyph-name="uni0122" unicode="&#x122;" horiz-adv-x="784" 
d="M206 297q0 -83 45 -138q46 -55 127 -55q75 0 125 39t67 111h-208l28 121h335l-86 -375h-124l13 59q-68 -77 -180 -77q-126 0 -199 90.5t-73 223.5q-1 76 25.5 151t74.5 136t123 98t163 35q121 0 203 -64.5t82 -172.5v-12h-134q0 59 -42 93t-112 34q-76 2 -135.5 -44
t-89 -114t-28.5 -139zM361 -85l-19 -83q-15 -66 -52.5 -97t-96.5 -35l-1 44q75 10 92 79h-45l22 92h100z" />
    <glyph glyph-name="uni0123" unicode="&#x123;" horiz-adv-x="590" 
d="M291 604l19 83q15 66 52.5 97t96.5 35l1 -44q-75 -10 -92 -79h45l-22 -92h-100zM583 515l-113 -494q-51 -224 -254 -224q-95 0 -152 47t-61 140h118q2 -86 97 -86q58 0 86.5 31t45.5 94l19 69q-37 -73 -133 -73q-88 0 -141 61.5t-53 152.5q-1 70 30.5 137t93 111.5
t135.5 42.5q58 0 95 -23.5t49 -63.5l18 78h120zM408 310q0 49 -25 78t-72 29q-63 0 -105.5 -52.5t-42.5 -117.5q0 -52 28 -86.5t75 -34.5q60 0 101 56.5t41 127.5z" />
    <glyph glyph-name="Hcircumflex" unicode="&#x124;" horiz-adv-x="725" 
d="M742 700l-161 -700h-130l66 292h-285l-66 -292h-130l161 700h130l-66 -287h285l66 287h130zM392 767h-118l190 183h66l103 -183h-99l-51 86z" />
    <glyph glyph-name="hcircumflex" unicode="&#x125;" horiz-adv-x="588" 
d="M404 607h-97l157 151h55l84 -151h-81l-42 71zM544 372q0 -17 -5 -42l-75 -330h-125l75 324q3 14 3 27q0 29 -21.5 45.5t-55.5 16.5q-48 0 -81.5 -33t-47.5 -95l-66 -285h-124l164 711h124l-60 -261q48 74 139 74q72 0 114 -45t42 -107z" />
    <glyph glyph-name="Hbar" unicode="&#x126;" horiz-adv-x="755" 
d="M799 542l-10 -49h-92l-113 -493h-130l66 292h-285l-66 -292h-130l113 493h-77l11 49h78l36 158h130l-36 -158h285l36 158h130l-36 -158h90zM549 413l18 80h-285l-18 -80h285z" />
    <glyph glyph-name="hbar" unicode="&#x127;" horiz-adv-x="598" 
d="M554 372q0 -17 -5 -42l-75 -330h-125l75 324q3 14 3 27q0 29 -21.5 45.5t-55.5 16.5q-48 0 -81.5 -33t-47.5 -95l-66 -285h-124l133 578h-60l12 54h61l18 79h124l-18 -79h85l-12 -54h-86l-29 -128q48 74 139 74q72 0 114 -45t42 -107z" />
    <glyph glyph-name="Itilde" unicode="&#x128;" horiz-adv-x="320" 
d="M41 0l161 700h130l-162 -700h-129zM356 776q-31 0 -80 35q-28 22 -41 22q-29 0 -31 -51h-73q0 68 28.5 108.5t73.5 40.5q35 0 80 -36q28 -22 40 -22q27 0 32 54h72q0 -69 -29 -110t-72 -41z" />
    <glyph glyph-name="itilde" unicode="&#x129;" horiz-adv-x="290" 
d="M148 0h-124l118 515h124zM299 607q-32 0 -79 35q-29 22 -42 22t-22 -13.5t-10 -37.5h-72q0 68 28 108.5t73 40.5q34 0 82 -36q28 -22 40 -22q27 0 31 55h73q-1 -70 -29.5 -111t-72.5 -41z" />
    <glyph glyph-name="Imacron" unicode="&#x12a;" horiz-adv-x="320" 
d="M41 0l161 700h130l-162 -700h-129zM152 870h298l-21 -94h-299z" />
    <glyph glyph-name="imacron" unicode="&#x12b;" horiz-adv-x="290" 
d="M148 0h-124l118 515h124zM99 701h298l-21 -94h-299z" />
    <glyph glyph-name="Iogonek" unicode="&#x12e;" horiz-adv-x="320" 
d="M54 -55q0 -21 18.5 -34.5t45.5 -15.5l-13 -59q-47 4 -79 30.5t-32 63.5q0 46 49 78l159 692h130l-162 -700h-84q-32 -23 -32 -55z" />
    <glyph glyph-name="iogonek" unicode="&#x12f;" horiz-adv-x="291" 
d="M185 724h132l-32 -141h-132zM26 7l117 508h124l-119 -515h-78q-32 -23 -32 -55q0 -21 18.5 -34.5t45.5 -15.5l-13 -59q-47 4 -79 30.5t-32 63.5q0 47 48 77z" />
    <glyph glyph-name="Idot" unicode="&#x130;" horiz-adv-x="320" 
d="M41 0l161 700h130l-162 -700h-129zM387 920l-33 -144h-140l34 144h139z" />
    <glyph glyph-name="dotlessi" unicode="&#x131;" horiz-adv-x="290" 
d="M148 0h-124l118 515h124z" />
    <glyph glyph-name="IJ" unicode="&#x132;" horiz-adv-x="845" 
d="M41 0l161 700h130l-162 -700h-129zM482 258l-14 -56q-6 -24 -6 -34q0 -61 68 -61q40 0 63.5 25.5t36.5 82.5l112 485h130l-119 -512q-48 -206 -230 -206q-97 0 -145 50q-47 52 -47 123q0 25 8 54l13 49h130z" />
    <glyph glyph-name="ij" unicode="&#x133;" horiz-adv-x="576" 
d="M153 583l32 141h132l-32 -141h-132zM24 0l119 515h124l-119 -515h-124zM443 583l32 141h132l-32 -141h-132zM433 515h124l-133 -574q-17 -72 -53.5 -102.5t-96.5 -30.5h-91l25 110h42q25 0 37.5 11t18.5 37z" />
    <glyph glyph-name="Jcircumflex" unicode="&#x134;" horiz-adv-x="525" 
d="M162 258l-14 -56q-6 -24 -6 -34q0 -61 68 -61q40 0 63.5 25.5t36.5 82.5l112 485h130l-119 -512q-48 -206 -230 -206q-97 0 -145 50q-47 52 -47 123q0 25 8 54l13 49h130zM424 767h-118l190 183h66l103 -183h-99l-51 86z" />
    <glyph glyph-name="jcircumflex" unicode="&#x135;" horiz-adv-x="285" 
d="M145 607h-118l190 183h66l102 -183h-98l-51 86zM266 515l-133 -574q-17 -72 -53.5 -102.5t-96.5 -30.5h-91l25 110h42q25 0 37.5 11t18.5 37l127 549h124z" />
    <glyph glyph-name="uni0136" unicode="&#x136;" horiz-adv-x="670" 
d="M762 700l-350 -299l194 -401h-146l-152 313l-87 -75l-55 -238h-130l161 700h130l-64 -276l315 276h184zM341 -85l-19 -83q-15 -66 -52.5 -97t-96.5 -35l-1 44q75 10 92 79h-45l22 92h100z" />
    <glyph glyph-name="uni0137" unicode="&#x137;" horiz-adv-x="565" 
d="M619 515l-273 -228l147 -287h-133l-107 208l-74 -61l-34 -147h-123l163 711h123l-89 -392l229 196h171zM291 -85l-19 -83q-15 -66 -52.5 -97t-96.5 -35l-1 44q75 10 92 79h-45l22 92h100z" />
    <glyph glyph-name="kgreenlandic" unicode="&#x138;" horiz-adv-x="564" 
d="M618 515l-273 -228l147 -287h-133l-107 208l-74 -61l-34 -147h-123l118 515h123l-44 -196l229 196h171z" />
    <glyph glyph-name="Lacute" unicode="&#x139;" horiz-adv-x="561" 
d="M36 0l161 700h129l-133 -578h322l-28 -122h-451zM462 868l-129 -92h-104l160 174z" />
    <glyph glyph-name="lacute" unicode="&#x13a;" horiz-adv-x="274" 
d="M21 0l165 711h123l-165 -711h-123zM443 868l-129 -92h-104l160 174z" />
    <glyph glyph-name="uni013B" unicode="&#x13b;" horiz-adv-x="561" 
d="M36 0l161 700h129l-133 -578h322l-28 -122h-451zM281 -85l-19 -83q-15 -66 -52.5 -97t-96.5 -35l-1 44q75 10 92 79h-45l22 92h100z" />
    <glyph glyph-name="uni013C" unicode="&#x13c;" horiz-adv-x="274" 
d="M21 0l165 711h123l-165 -711h-123zM119 -85l-19 -83q-15 -66 -52.5 -97t-96.5 -35l-1 44q75 10 92 79h-45l22 92h100z" />
    <glyph glyph-name="Lcaron" unicode="&#x13d;" horiz-adv-x="574" 
d="M36 0l161 700h129l-133 -578h322l-28 -122h-451zM640 718l-27 -118q-21 -93 -74.5 -138t-138.5 -51l-1 63q56 8 87.5 35t43.5 77h-64l32 132h142z" />
    <glyph glyph-name="lcaron" unicode="&#x13e;" horiz-adv-x="482" 
d="M21 0l165 711h123l-165 -711h-123zM558 717l-27 -118q-21 -93 -74.5 -138t-138.5 -51l-1 63q56 8 87.5 35t43.5 77h-64l32 132h142z" />
    <glyph glyph-name="Ldot" unicode="&#x13f;" horiz-adv-x="561" 
d="M36 0l161 700h129l-133 -578h322l-28 -122h-451zM605 515l-33 -144h-140l34 144h139z" />
    <glyph glyph-name="ldot" unicode="&#x140;" horiz-adv-x="461" 
d="M21 0l165 711h123l-165 -711h-123zM490 515l-33 -144h-140l34 144h139z" />
    <glyph glyph-name="Lslash" unicode="&#x141;" horiz-adv-x="569" 
d="M201 122h322l-28 -122h-451l59 256l-102 -54v58l117 62l87 378h129l-69 -301l127 67v-58l-142 -75z" />
    <glyph glyph-name="lslash" unicode="&#x142;" horiz-adv-x="257" 
d="M289 711l-73 -315l65 29v-62l-81 -37l-76 -326h-123l61 264l-51 -23v62l67 30l88 378h123z" />
    <glyph glyph-name="Nacute" unicode="&#x143;" horiz-adv-x="723" 
d="M738 700l-159 -700h-119l-184 480l-109 -480h-129l159 700h132l176 -460l105 460h128zM627 868l-129 -92h-104l160 174z" />
    <glyph glyph-name="nacute" unicode="&#x144;" horiz-adv-x="588" 
d="M544 372q0 -17 -5 -42l-75 -330h-125l75 324q3 14 3 27q0 29 -21.5 45.5t-55.5 16.5q-48 0 -81.5 -33t-47.5 -95l-66 -285h-124l118 515h120l-18 -75q48 84 147 84q72 0 114 -45t42 -107zM594 720l-141 -114h-112l179 196z" />
    <glyph glyph-name="uni0145" unicode="&#x145;" horiz-adv-x="723" 
d="M738 700l-159 -700h-119l-184 480l-109 -480h-129l159 700h132l176 -460l105 460h128zM351 -85l-19 -83q-15 -66 -52.5 -97t-96.5 -35l-1 44q75 10 92 79h-45l22 92h100z" />
    <glyph glyph-name="uni0146" unicode="&#x146;" horiz-adv-x="588" 
d="M544 372q0 -17 -5 -42l-75 -330h-125l75 324q3 14 3 27q0 29 -21.5 45.5t-55.5 16.5q-48 0 -81.5 -33t-47.5 -95l-66 -285h-124l118 515h120l-18 -75q48 84 147 84q72 0 114 -45t42 -107zM271 -85l-19 -83q-15 -66 -52.5 -97t-96.5 -35l-1 44q75 10 92 79h-45l22 92h100z
" />
    <glyph glyph-name="Ncaron" unicode="&#x147;" horiz-adv-x="723" 
d="M738 700l-159 -700h-119l-184 480l-109 -480h-129l159 700h132l176 -460l105 460h128zM569 950h118l-187 -183h-66l-103 183h99l51 -86z" />
    <glyph glyph-name="ncaron" unicode="&#x148;" horiz-adv-x="588" 
d="M544 372q0 -17 -5 -42l-75 -330h-125l75 324q3 14 3 27q0 29 -21.5 45.5t-55.5 16.5q-48 0 -81.5 -33t-47.5 -95l-66 -285h-124l118 515h120l-18 -75q48 84 147 84q72 0 114 -45t42 -107zM514 790h118l-187 -183h-66l-103 183h99l50 -86z" />
    <glyph glyph-name="napostrophe" unicode="&#x149;" horiz-adv-x="805" 
d="M761 372q0 -17 -5 -42l-75 -330h-125l75 324q3 14 3 27q0 29 -21.5 45.5t-55.5 16.5q-48 0 -81.5 -33t-47.5 -95l-66 -285h-124l118 515h120l-18 -75q48 84 147 84q72 0 114 -45t42 -107zM321 717l-27 -118q-21 -93 -74.5 -138t-138.5 -51l-1 63q56 8 87.5 35t43.5 77
h-64l32 132h142z" />
    <glyph glyph-name="Eng" unicode="&#x14a;" horiz-adv-x="722" 
d="M738 700l-174 -759q-17 -72 -53.5 -102.5t-96.5 -30.5h-92l26 110h42q26 0 37.5 10.5t18.5 38.5l9 34l-179 479l-109 -480h-129l159 700h132l173 -470l107 470h129z" />
    <glyph glyph-name="eng" unicode="&#x14b;" horiz-adv-x="598" 
d="M544 372q0 -17 -5 -42l-90 -389q-17 -72 -53.5 -102.5t-96.5 -30.5h-91l25 110h42q25 0 37.5 11t18.5 37l83 358q3 14 3 27q0 29 -21.5 45.5t-55.5 16.5q-48 0 -81.5 -33t-47.5 -95l-66 -285h-124l118 515h120l-18 -75q48 84 147 84q72 0 114 -45t42 -107z" />
    <glyph glyph-name="Omacron" unicode="&#x14c;" horiz-adv-x="781" 
d="M754 391q2 -108 -44.5 -202.5t-134 -151.5t-195.5 -55q-135 0 -218 90t-83 236q-2 108 44.5 202.5t134 151.5t195.5 55q135 0 218 -90t83 -236zM624 386q0 96 -47 151t-129 55q-108 0 -173.5 -78.5t-65.5 -200.5q0 -96 47 -151t129 -55q108 0 173.5 78.5t65.5 200.5z
M354 870h298l-21 -94h-299z" />
    <glyph glyph-name="omacron" unicode="&#x14d;" horiz-adv-x="577" 
d="M536 296q0 -128 -79.5 -217.5t-195.5 -89.5q-98 0 -157 59.5t-59 167.5q-2 127 79 217.5t195 88.5q98 0 157.5 -59t59.5 -167zM315 408q-62 0 -105.5 -54.5t-43.5 -132.5q0 -58 27 -87.5t74 -29.5q61 0 103.5 54t42.5 132q0 58 -26 88t-72 30zM220 701h298l-21 -94h-299z
" />
    <glyph glyph-name="Obreve" unicode="&#x14e;" horiz-adv-x="781" 
d="M754 391q2 -108 -44.5 -202.5t-134 -151.5t-195.5 -55q-135 0 -218 90t-83 236q-2 108 44.5 202.5t134 151.5t195.5 55q135 0 218 -90t83 -236zM624 386q0 96 -47 151t-129 55q-108 0 -173.5 -78.5t-65.5 -200.5q0 -96 47 -151t129 -55q108 0 173.5 78.5t65.5 200.5z
M648 925q0 -55 -39 -102t-111 -47q-52 0 -81.5 26t-29.5 67q0 42 19 75h76q-12 -27 -12 -50q0 -39 39 -39q27 0 42 22.5t15 54.5v12h81q1 -3 1 -19z" />
    <glyph glyph-name="obreve" unicode="&#x14f;" horiz-adv-x="577" 
d="M536 296q0 -128 -79.5 -217.5t-195.5 -89.5q-98 0 -157 59.5t-59 167.5q-2 127 79 217.5t195 88.5q98 0 157.5 -59t59.5 -167zM315 408q-62 0 -105.5 -54.5t-43.5 -132.5q0 -58 27 -87.5t74 -29.5q61 0 103.5 54t42.5 132q0 58 -26 88t-72 30zM511 756q0 -55 -39 -102
t-112 -47q-52 0 -81.5 26t-29.5 67q0 37 20 75h76q-13 -27 -13 -50q0 -39 40 -39q27 0 42 22.5t15 54.5v12h81q1 -3 1 -19z" />
    <glyph glyph-name="Ohungarumlaut" unicode="&#x150;" horiz-adv-x="781" 
d="M754 391q2 -108 -44.5 -202.5t-134 -151.5t-195.5 -55q-135 0 -218 90t-83 236q-2 108 44.5 202.5t134 151.5t195.5 55q135 0 218 -90t83 -236zM624 386q0 96 -47 151t-129 55q-108 0 -173.5 -78.5t-65.5 -200.5q0 -96 47 -151t129 -55q108 0 173.5 78.5t65.5 200.5z
M360 776l81 161h97l-93 -161h-85zM510 776l80 161h97l-92 -161h-85z" />
    <glyph glyph-name="ohungarumlaut" unicode="&#x151;" horiz-adv-x="577" 
d="M536 296q0 -128 -79.5 -217.5t-195.5 -89.5q-98 0 -157 59.5t-59 167.5q-2 127 79 217.5t195 88.5q98 0 157.5 -59t59.5 -167zM315 408q-62 0 -105.5 -54.5t-43.5 -132.5q0 -58 27 -87.5t74 -29.5q61 0 103.5 54t42.5 132q0 58 -26 88t-72 30zM218 607l80 161h93
l-92 -161h-81zM372 607l80 161h92l-93 -161h-79z" />
    <glyph glyph-name="OE" unicode="&#x152;" horiz-adv-x="1063" 
d="M1084 578h-377q43 -71 47 -163h268l-28 -122h-250q-20 -93 -81 -171h334l-28 -122h-478q-51 -18 -111 -18q-134 0 -217.5 91.5t-83.5 234.5q-2 107 47 202t136.5 152t190.5 55q55 0 106 -17h554zM386 107q103 0 170.5 80.5t67.5 199.5q0 95 -46.5 150t-128.5 55
q-102 1 -172 -81t-68 -198q0 -96 47 -151t130 -55z" />
    <glyph glyph-name="oe" unicode="&#x153;" horiz-adv-x="915" 
d="M866 220h-338q-1 -3 -1 -15q0 -50 27.5 -79t76.5 -29q71 0 99 58h116q-30 -81 -87.5 -123.5t-135.5 -42.5q-118 0 -169 91q-75 -91 -193 -91q-98 0 -157 59.5t-59 167.5q-2 127 79 217.5t195 88.5q117 0 171 -84q69 86 187 86q95 0 147.5 -55.5t52.5 -155.5
q0 -44 -11 -93zM544 311h215q3 13 3 27q0 38 -24.5 58.5t-68.5 20.5q-97 0 -125 -106zM413 290q0 58 -26 88t-72 30q-62 0 -105.5 -54.5t-43.5 -132.5q0 -58 27 -87.5t74 -29.5q61 0 103.5 54t42.5 132z" />
    <glyph glyph-name="Racute" unicode="&#x154;" horiz-adv-x="671" 
d="M470 297l127 -297h-140l-117 279h-109l-65 -279h-129l160 700h248q95 0 147.5 -54t52.5 -134q0 -73 -47.5 -134.5t-127.5 -80.5zM515 501q0 35 -24 56t-67 21h-125l-41 -180h137q54 0 87 30t33 73zM583 868l-129 -92h-104l160 174z" />
    <glyph glyph-name="racute" unicode="&#x155;" horiz-adv-x="394" 
d="M430 521l-28 -121h-39q-127 0 -158 -138l-61 -262h-123l118 515h124l-21 -90q43 96 133 96h55zM499 720l-141 -114h-112l179 196z" />
    <glyph glyph-name="uni0156" unicode="&#x156;" horiz-adv-x="671" 
d="M470 297l127 -297h-140l-117 279h-109l-65 -279h-129l160 700h248q95 0 147.5 -54t52.5 -134q0 -73 -47.5 -134.5t-127.5 -80.5zM515 501q0 35 -24 56t-67 21h-125l-41 -180h137q54 0 87 30t33 73zM341 -85l-19 -83q-15 -66 -52.5 -97t-96.5 -35l-1 44q75 10 92 79h-45
l22 92h100z" />
    <glyph glyph-name="uni0157" unicode="&#x157;" horiz-adv-x="394" 
d="M430 521l-28 -121h-39q-127 0 -158 -138l-61 -262h-123l118 515h124l-21 -90q43 96 133 96h55zM121 -85l-19 -83q-15 -66 -52.5 -97t-96.5 -35l-1 44q75 10 92 79h-45l22 92h100z" />
    <glyph glyph-name="Rcaron" unicode="&#x158;" horiz-adv-x="671" 
d="M470 297l127 -297h-140l-117 279h-109l-65 -279h-129l160 700h248q95 0 147.5 -54t52.5 -134q0 -73 -47.5 -134.5t-127.5 -80.5zM515 501q0 35 -24 56t-67 21h-125l-41 -180h137q54 0 87 30t33 73zM513 950h118l-187 -183h-66l-103 183h99l51 -86z" />
    <glyph glyph-name="rcaron" unicode="&#x159;" horiz-adv-x="394" 
d="M430 521l-28 -121h-39q-127 0 -158 -138l-61 -262h-123l118 515h124l-21 -90q43 96 133 96h55zM413 790h118l-187 -183h-66l-103 183h99l50 -86z" />
    <glyph glyph-name="Sacute" unicode="&#x15a;" horiz-adv-x="625" 
d="M627 495h-132q0 55 -34 81.5t-91 26.5q-54 0 -86.5 -24.5t-32.5 -70.5q0 -36 26 -56q29 -21 96 -47q67 -25 105 -45q93 -47 93 -158q0 -101 -75.5 -160.5t-184.5 -59.5q-113 0 -190 63t-77 171l1 22h130q-2 -18 -2 -24q0 -55 42 -88t104 -33q53 0 86 25t33 70
q-2 40 -25 58.5t-93 47.5q-65 25 -104 47q-94 52 -94 161q0 97 67.5 156t183.5 59t183 -59.5t71 -162.5zM570 868l-129 -92h-104l160 174z" />
    <glyph glyph-name="sacute" unicode="&#x15b;" horiz-adv-x="494" 
d="M472 350h-121q-1 33 -22 52t-59 19q-34 0 -54.5 -14.5t-20.5 -37.5q0 -22 19 -33.5t77 -31.5q76 -26 110 -55t36 -90q0 -77 -62.5 -123.5t-146.5 -46.5t-145 47t-64 129h125q7 -73 90 -73q79 0 79 52q0 20 -14 31t-51 24l-61 20q-53 18 -83.5 55t-30.5 89q0 77 57 119
t140 42q88 0 144 -46q57 -46 58 -128zM486 720l-141 -114h-112l179 196z" />
    <glyph glyph-name="Scircumflex" unicode="&#x15c;" horiz-adv-x="625" 
d="M627 495h-132q0 55 -34 81.5t-91 26.5q-54 0 -86.5 -24.5t-32.5 -70.5q0 -36 26 -56q29 -21 96 -47q67 -25 105 -45q93 -47 93 -158q0 -101 -75.5 -160.5t-184.5 -59.5q-113 0 -190 63t-77 171l1 22h130q-2 -18 -2 -24q0 -55 42 -88t104 -33q53 0 86 25t33 70
q-2 40 -25 58.5t-93 47.5q-65 25 -104 47q-94 52 -94 161q0 97 67.5 156t183.5 59t183 -59.5t71 -162.5zM357 767h-118l190 183h66l103 -183h-99l-51 86z" />
    <glyph glyph-name="scircumflex" unicode="&#x15d;" horiz-adv-x="494" 
d="M472 350h-121q-1 33 -22 52t-59 19q-34 0 -54.5 -14.5t-20.5 -37.5q0 -22 19 -33.5t77 -31.5q76 -26 110 -55t36 -90q0 -77 -62.5 -123.5t-146.5 -46.5t-145 47t-64 129h125q7 -73 90 -73q79 0 79 52q0 20 -14 31t-51 24l-61 20q-53 18 -83.5 55t-30.5 89q0 77 57 119
t140 42q88 0 144 -46q57 -46 58 -128zM259 607h-118l190 183h66l102 -183h-98l-51 86z" />
    <glyph glyph-name="Scedilla" unicode="&#x15e;" horiz-adv-x="625" 
d="M571 202q0 -101 -75.5 -160.5t-184.5 -59.5h-12l-6 -28q34 -2 54.5 -19.5t20.5 -44.5q0 -42 -31 -70t-80 -28q-70 0 -107 37l43 48q28 -28 61 -28q21 0 33.5 9.5t12.5 24.5q0 35 -71 35l17 70q-88 16 -146 76q-56 59 -56 152l1 22h130q-2 -18 -2 -24q0 -55 42 -88
t104 -33q53 0 86 25t33 70q-2 40 -25 58.5t-93 47.5q-65 25 -104 47q-94 52 -94 161q0 97 67.5 156t183.5 59t183 -59.5t71 -162.5h-132q0 55 -34 81.5t-91 26.5q-54 0 -86.5 -24.5t-32.5 -70.5q0 -36 26 -56q29 -21 96 -47q67 -25 105 -45q93 -47 93 -158z" />
    <glyph glyph-name="scedilla" unicode="&#x15f;" horiz-adv-x="494" 
d="M437 159q0 -76 -61.5 -122t-145.5 -48l-7 -35q34 -2 54.5 -19.5t20.5 -44.5q0 -42 -31 -70t-80 -28q-70 0 -107 37l43 48q28 -28 61 -28q21 0 33.5 9.5t12.5 24.5q0 35 -71 35l18 76q-69 13 -112 58t-46 113h125q7 -73 90 -73q79 0 79 52q0 20 -14 31t-51 24l-61 20
q-53 18 -83.5 55t-30.5 89q0 77 57 119t140 42q88 0 144 -46q57 -46 58 -128h-121q-1 33 -22 52t-59 19q-34 0 -54.5 -14.5t-20.5 -37.5q0 -22 19 -33.5t77 -31.5q76 -26 110 -55t36 -90z" />
    <glyph glyph-name="Scaron" unicode="&#x160;" horiz-adv-x="625" 
d="M627 495h-132q0 55 -34 81.5t-91 26.5q-54 0 -86.5 -24.5t-32.5 -70.5q0 -36 26 -56q29 -21 96 -47q67 -25 105 -45q93 -47 93 -158q0 -101 -75.5 -160.5t-184.5 -59.5q-113 0 -190 63t-77 171l1 22h130q-2 -18 -2 -24q0 -55 42 -88t104 -33q53 0 86 25t33 70
q-2 40 -25 58.5t-93 47.5q-65 25 -104 47q-94 52 -94 161q0 97 67.5 156t183.5 59t183 -59.5t71 -162.5zM513 950h118l-187 -183h-66l-103 183h99l51 -86z" />
    <glyph glyph-name="scaron" unicode="&#x161;" horiz-adv-x="494" 
d="M472 350h-121q-1 33 -22 52t-59 19q-34 0 -54.5 -14.5t-20.5 -37.5q0 -22 19 -33.5t77 -31.5q76 -26 110 -55t36 -90q0 -77 -62.5 -123.5t-146.5 -46.5t-145 47t-64 129h125q7 -73 90 -73q79 0 79 52q0 20 -14 31t-51 24l-61 20q-53 18 -83.5 55t-30.5 89q0 77 57 119
t140 42q88 0 144 -46q57 -46 58 -128zM413 790h118l-187 -183h-66l-103 183h99l50 -86z" />
    <glyph glyph-name="uni0162" unicode="&#x162;" horiz-adv-x="618" 
d="M132 700h563l-28 -122h-216l-134 -578h-76l-10 -46q34 -2 54.5 -19.5t20.5 -44.5q0 -42 -31 -70t-80 -28q-70 0 -107 37l43 48q28 -28 61 -28q21 0 33.5 9.5t12.5 24.5q0 35 -71 35l20 83l133 577h-216z" />
    <glyph glyph-name="uni0163" unicode="&#x163;" horiz-adv-x="376" 
d="M262 403l-49 -212q-5 -22 -5 -36q0 -44 52 -44h52l-25 -111h-79h-6l-8 -36q34 -2 54.5 -19.5t20.5 -44.5q0 -42 -31 -70t-80 -28q-70 0 -107 37l43 48q28 -28 61 -28q21 0 33.5 9.5t12.5 24.5q0 35 -71 35l20 82q-72 26 -72 108q0 12 5 40l56 245h-90l26 112h90l29 122
l130 35l-36 -157h107l-26 -112h-107z" />
    <glyph glyph-name="Tcaron" unicode="&#x164;" horiz-adv-x="618" 
d="M451 578l-134 -578h-130l133 578h-216l28 122h563l-28 -122h-216zM520 950h118l-187 -183h-66l-103 183h99l51 -86z" />
    <glyph glyph-name="tcaron" unicode="&#x165;" horiz-adv-x="583" 
d="M208 155q0 -44 52 -44h52l-25 -111h-79q-60 0 -95 31.5t-35 86.5q0 12 5 40l56 245h-90l26 112h90l29 122l130 35l-36 -157h107l-26 -112h-107l-49 -212q-5 -22 -5 -36zM655 701l-27 -118q-21 -93 -74.5 -138t-138.5 -51l-1 63q56 8 87.5 35t43.5 77h-64l32 132h142z" />
    <glyph glyph-name="Tbar" unicode="&#x166;" horiz-adv-x="618" 
d="M667 578h-216l-30 -129h155l-12 -50h-154l-93 -399h-130l92 399h-148l12 50h147l30 129h-216l28 122h563z" />
    <glyph glyph-name="tbar" unicode="&#x167;" horiz-adv-x="376" 
d="M369 403h-107l-17 -75h110l-25 -112h-111l-6 -25q-5 -22 -5 -36q0 -44 52 -44h52l-25 -111h-79q-60 0 -95 31.5t-35 86.5q0 12 5 40l13 58h-89l25 112h90l17 75h-90l26 112h90l29 122l130 35l-36 -157h107z" />
    <glyph glyph-name="Utilde" unicode="&#x168;" horiz-adv-x="710" 
d="M327 -18q-108 0 -176.5 61.5t-68.5 163.5q0 37 9 78l96 415h131l-97 -425q-8 -34 -8 -54q0 -57 33 -86t93 -29q133 0 168 152l100 442h129l-103 -452q-31 -133 -115 -200q-82 -66 -191 -66zM534 776q-31 0 -80 35q-28 22 -41 22q-29 0 -31 -51h-73q0 68 28.5 108.5
t73.5 40.5q35 0 80 -36q28 -22 40 -22q27 0 32 54h72q0 -69 -29 -110t-72 -41z" />
    <glyph glyph-name="utilde" unicode="&#x169;" horiz-adv-x="578" 
d="M567 515l-118 -515h-118l19 81q-45 -87 -146 -87q-68 0 -109.5 40.5t-41.5 107.5q0 21 5 44l77 329h123l-75 -326q-2 -14 -2 -19q0 -29 18 -47.5t53 -18.5q94 0 132 156l60 255h123zM436 607q-32 0 -79 35q-29 22 -42 22t-22 -13.5t-10 -37.5h-72q0 68 28 108.5t73 40.5
q34 0 82 -36q28 -22 40 -22q27 0 31 55h73q-1 -70 -29.5 -111t-72.5 -41z" />
    <glyph glyph-name="Umacron" unicode="&#x16a;" horiz-adv-x="710" 
d="M327 -18q-108 0 -176.5 61.5t-68.5 163.5q0 37 9 78l96 415h131l-97 -425q-8 -34 -8 -54q0 -57 33 -86t93 -29q133 0 168 152l100 442h129l-103 -452q-31 -133 -115 -200q-82 -66 -191 -66zM338 870h298l-21 -94h-299z" />
    <glyph glyph-name="umacron" unicode="&#x16b;" horiz-adv-x="578" 
d="M567 515l-118 -515h-118l19 81q-45 -87 -146 -87q-68 0 -109.5 40.5t-41.5 107.5q0 21 5 44l77 329h123l-75 -326q-2 -14 -2 -19q0 -29 18 -47.5t53 -18.5q94 0 132 156l60 255h123zM231 701h298l-21 -94h-299z" />
    <glyph glyph-name="Ubreve" unicode="&#x16c;" horiz-adv-x="710" 
d="M327 -18q-108 0 -176.5 61.5t-68.5 163.5q0 37 9 78l96 415h131l-97 -425q-8 -34 -8 -54q0 -57 33 -86t93 -29q133 0 168 152l100 442h129l-103 -452q-31 -133 -115 -200q-82 -66 -191 -66zM620 925q0 -55 -39 -102t-111 -47q-52 0 -81.5 26t-29.5 67q0 42 19 75h76
q-12 -27 -12 -50q0 -39 39 -39q27 0 42 22.5t15 54.5v12h81q1 -3 1 -19z" />
    <glyph glyph-name="ubreve" unicode="&#x16d;" horiz-adv-x="578" 
d="M567 515l-118 -515h-118l19 81q-45 -87 -146 -87q-68 0 -109.5 40.5t-41.5 107.5q0 21 5 44l77 329h123l-75 -326q-2 -14 -2 -19q0 -29 18 -47.5t53 -18.5q94 0 132 156l60 255h123zM527 756q0 -55 -39 -102t-112 -47q-52 0 -81.5 26t-29.5 67q0 37 20 75h76
q-13 -27 -13 -50q0 -39 40 -39q27 0 42 22.5t15 54.5v12h81q1 -3 1 -19z" />
    <glyph glyph-name="Uring" unicode="&#x16e;" horiz-adv-x="710" 
d="M327 -18q-108 0 -176.5 61.5t-68.5 163.5q0 37 9 78l96 415h131l-97 -425q-8 -34 -8 -54q0 -57 33 -86t93 -29q133 0 168 152l100 442h129l-103 -452q-31 -133 -115 -200q-82 -66 -191 -66zM463 950q45 0 74.5 -29t29.5 -74q0 -46 -29.5 -75t-74.5 -29q-44 0 -73 29.5
t-29 74.5t29 74t73 29zM464 900q-23 0 -37 -15t-14 -38q0 -24 13.5 -39t37.5 -15q23 0 37 15t14 39q0 23 -14 38t-37 15z" />
    <glyph glyph-name="uring" unicode="&#x16f;" horiz-adv-x="578" 
d="M567 515l-118 -515h-118l19 81q-45 -87 -146 -87q-68 0 -109.5 40.5t-41.5 107.5q0 21 5 44l77 329h123l-75 -326q-2 -14 -2 -19q0 -29 18 -47.5t53 -18.5q94 0 132 156l60 255h123zM365 840q51 0 83.5 -32.5t32.5 -84.5q0 -50 -32.5 -83t-83.5 -33q-49 0 -81.5 33
t-32.5 83q0 51 32.5 84t81.5 33zM366 773q-23 0 -36 -14t-13 -36t13 -36.5t36 -14.5t36 14.5t13 36.5t-13 36t-36 14z" />
    <glyph glyph-name="Uhungarumlaut" unicode="&#x170;" horiz-adv-x="710" 
d="M327 -18q-108 0 -176.5 61.5t-68.5 163.5q0 37 9 78l96 415h131l-97 -425q-8 -34 -8 -54q0 -57 33 -86t93 -29q133 0 168 152l100 442h129l-103 -452q-31 -133 -115 -200q-82 -66 -191 -66zM330 776l81 161h97l-93 -161h-85zM480 776l80 161h97l-92 -161h-85z" />
    <glyph glyph-name="uhungarumlaut" unicode="&#x171;" horiz-adv-x="578" 
d="M567 515l-118 -515h-118l19 81q-45 -87 -146 -87q-68 0 -109.5 40.5t-41.5 107.5q0 21 5 44l77 329h123l-75 -326q-2 -14 -2 -19q0 -29 18 -47.5t53 -18.5q94 0 132 156l60 255h123zM233 607l80 161h93l-92 -161h-81zM387 607l80 161h92l-93 -161h-79z" />
    <glyph glyph-name="Uogonek" unicode="&#x172;" horiz-adv-x="710" 
d="M607 700h129l-103 -452q-31 -133 -115 -200q-82 -66 -191 -66q-18 0 -23 1q-13 -17 -13 -38t18.5 -34.5t45.5 -15.5l-13 -59q-47 4 -79 30.5t-32 63.5q0 34 26 60q-81 18 -128 76t-47 141q0 37 9 78l96 415h131l-97 -425q-8 -34 -8 -54q0 -57 33 -86t93 -29
q133 0 168 152z" />
    <glyph glyph-name="uogonek" unicode="&#x173;" horiz-adv-x="578" 
d="M343 -55q0 -21 18.5 -34.5t45.5 -15.5l-13 -59q-47 4 -79 30.5t-32 63.5q0 49 50 78l17 73q-45 -87 -146 -87q-68 0 -109.5 40.5t-41.5 107.5q0 21 5 44l77 329h123l-75 -326q-2 -14 -2 -19q0 -29 18 -47.5t53 -18.5q94 0 132 156l60 255h123l-118 -515h-74
q-32 -23 -32 -55z" />
    <glyph glyph-name="Wcircumflex" unicode="&#x174;" horiz-adv-x="961" 
d="M1028 700l-314 -700h-117l-64 468l-226 -468h-117l-68 700h130l41 -464l219 464h116l63 -466l197 466h140zM507 767h-118l190 183h66l103 -183h-99l-51 86z" />
    <glyph glyph-name="wcircumflex" unicode="&#x175;" horiz-adv-x="838" 
d="M877 515l-284 -515h-110l-44 309l-171 -309h-111l-68 515h125l38 -319l171 319h114l39 -319l171 319h130zM415 607h-118l190 183h66l102 -183h-98l-51 86z" />
    <glyph glyph-name="Ycircumflex" unicode="&#x176;" horiz-adv-x="640" 
d="M727 700l-335 -432l-61 -268h-130l62 277l-146 423h136l97 -297l221 297h156zM361 767h-118l190 183h66l103 -183h-99l-51 86z" />
    <glyph glyph-name="ycircumflex" unicode="&#x177;" horiz-adv-x="542" 
d="M454 515h137l-312 -539q-44 -76 -101.5 -108t-140.5 -32h-42l24 110h23q91 0 130 69l9 16l-102 484h124l67 -338zM268 607h-118l190 183h66l102 -183h-98l-51 86z" />
    <glyph glyph-name="Ydieresis" unicode="&#x178;" horiz-adv-x="640" 
d="M727 700l-335 -432l-61 -268h-130l62 277l-146 423h136l97 -297l221 297h156zM403 888l-26 -112h-109l26 112h109zM596 888l-25 -112h-110l27 112h108z" />
    <glyph glyph-name="Zacute" unicode="&#x179;" horiz-adv-x="646" 
d="M13 0l25 109l431 469h-340l28 122h515l-25 -108l-434 -470h367l-28 -122h-539zM595 868l-129 -92h-104l160 174z" />
    <glyph glyph-name="zacute" unicode="&#x17a;" horiz-adv-x="513" 
d="M193 108h255l-25 -108h-420l23 103l311 304h-247l25 108h406l-23 -103zM514 720l-141 -114h-112l179 196z" />
    <glyph glyph-name="Zdotaccent" unicode="&#x17b;" horiz-adv-x="646" 
d="M13 0l25 109l431 469h-340l28 122h515l-25 -108l-434 -470h367l-28 -122h-539zM546 920l-33 -144h-140l34 144h139z" />
    <glyph glyph-name="zdotaccent" unicode="&#x17c;" horiz-adv-x="513" 
d="M193 108h255l-25 -108h-420l23 103l311 304h-247l25 108h406l-23 -103zM440 750l-33 -144h-140l34 144h139z" />
    <glyph glyph-name="Zcaron" unicode="&#x17d;" horiz-adv-x="646" 
d="M13 0l25 109l431 469h-340l28 122h515l-25 -108l-434 -470h367l-28 -122h-539zM516 950h118l-187 -183h-66l-103 183h99l51 -86z" />
    <glyph glyph-name="zcaron" unicode="&#x17e;" horiz-adv-x="513" 
d="M193 108h255l-25 -108h-420l23 103l311 304h-247l25 108h406l-23 -103zM446 790h118l-187 -183h-66l-103 183h99l50 -86z" />
    <glyph glyph-name="longs" unicode="&#x17f;" horiz-adv-x="353" 
d="M296 547l-127 -547h-123l92 403h-74l26 112h74l17 73q29 123 159 123h103l-26 -110h-61q-29 0 -41.5 -12t-18.5 -42z" />
    <glyph glyph-name="florin" unicode="&#x192;" horiz-adv-x="366" 
d="M309 547l-8 -32h98l-26 -112h-98l-63 -270q-17 -72 -53.5 -102.5t-96.5 -30.5h-91l25 110h42q25 0 37.5 11t18.5 37l57 245h-74l26 112h74l17 73q28 123 159 123h103l-26 -110h-61q-27 0 -40 -12t-20 -42z" />
    <glyph glyph-name="Aringacute" unicode="&#x1fa;" horiz-adv-x="724" 
d="M643 1034l-103 -73h-83l128 139zM477 931q43 0 71 -27.5t28 -70.5t-28 -71t-71 -28q-42 0 -69.5 28t-27.5 71t27.5 70.5t69.5 27.5zM478 883q-21 0 -35 -14.5t-14 -35.5q0 -23 13.5 -37.5t35.5 -14.5t35 14.5t13 37.5q0 21 -13.5 35.5t-34.5 14.5zM528 0l-28 155h-290
l-91 -155h-148l422 700h129l138 -700h-132zM281 277h198l-47 259z" />
    <glyph glyph-name="aringacute" unicode="&#x1fb;" horiz-adv-x="540" 
d="M547 869l-116 -83h-94l144 157zM357 743q41 0 67.5 -26t26.5 -67t-26.5 -67t-67.5 -26q-39 0 -65.5 26t-26.5 67t26.5 67t65.5 26zM358 698q-21 0 -33.5 -13.5t-12.5 -34.5t12.5 -34.5t33.5 -13.5t33.5 13.5t12.5 34.5t-12.5 34.5t-33.5 13.5zM493 376q0 -24 -6 -51
l-73 -325h-117l17 71q-24 -39 -65 -60.5t-89 -21.5q-63 0 -102.5 36.5t-39.5 102.5q0 147 179 171l104 13q36 4 56 20t20 41q0 49 -74 49q-86 0 -112 -71h-120q26 87 89.5 130t153.5 43q85 0 132 -38.5t47 -109.5zM343 223l3 15q-6 -1 -61 -11l-51 -7q-48 -7 -71 -22
t-23 -49q0 -58 69 -58q106 0 134 132z" />
    <glyph glyph-name="AEacute" unicode="&#x1fc;" horiz-adv-x="1002" 
d="M1023 578h-329l-38 -163h305l-28 -122h-305l-39 -171h347l-28 -122h-477l39 169h-234l-109 -169h-156l466 700h615zM314 291h184l65 287h-64zM833 868l-129 -92h-104l160 174z" />
    <glyph glyph-name="aeacute" unicode="&#x1fd;" horiz-adv-x="849" 
d="M802 220h-338q-1 -3 -1 -15q0 -50 27.5 -79t76.5 -29q71 0 99 58h116q-30 -81 -88.5 -123.5t-137.5 -42.5q-138 0 -186 115q-43 -70 -97 -93q-51 -22 -113 -22q-63 0 -102.5 36.5t-39.5 102.5q0 147 179 171l104 13q36 4 56 20t20 41q0 49 -74 49q-86 0 -112 -71h-120
q26 87 89.5 130t153.5 43q102 0 145 -61q60 61 154 61q95 0 147.5 -55.5t52.5 -155.5q0 -44 -11 -93zM480 311h215q3 13 3 27q0 38 -24.5 58.5t-68.5 20.5q-97 0 -125 -106zM343 223l3 15q-6 -1 -61 -11l-51 -7q-48 -7 -71 -22t-23 -49q0 -58 69 -58q106 0 134 132zM683 720
l-141 -114h-112l179 196z" />
    <glyph glyph-name="Oslashacute" unicode="&#x1fe;" horiz-adv-x="781" 
d="M754 391q2 -108 -44.5 -202.5t-134 -151.5t-195.5 -55q-82 0 -150 36l-56 -78l-65 48l57 79q-87 89 -87 241q-2 108 44.5 202.5t134 151.5t195.5 55q87 0 156 -39l60 83l65 -48l-62 -86q82 -90 82 -236zM245 176l288 397q-37 19 -85 19q-108 0 -173.5 -78.5t-65.5 -200.5
q0 -85 36 -137zM624 386q0 78 -32 131l-285 -394q33 -16 78 -16q108 0 173.5 78.5t65.5 200.5zM633 868l-129 -92h-104l160 174z" />
    <glyph glyph-name="oslashacute" unicode="&#x1ff;" horiz-adv-x="577" 
d="M536 296q0 -128 -79.5 -217.5t-195.5 -89.5q-53 0 -101 20l-57 -78l-65 48l57 79q-50 61 -50 158q-2 127 79 217.5t195 88.5q58 0 99 -19l49 67l65 -47l-49 -67q53 -62 53 -160zM174 167l172 237q-11 4 -31 4q-62 0 -105.5 -54.5t-43.5 -132.5q0 -28 8 -54zM413 290
q0 33 -9 57l-172 -238q20 -5 35 -5q61 0 103.5 54t42.5 132zM522 720l-141 -114h-112l179 196z" />
    <glyph glyph-name="uni0218" unicode="&#x218;" horiz-adv-x="625" 
d="M627 495h-132q0 55 -34 81.5t-91 26.5q-54 0 -86.5 -24.5t-32.5 -70.5q0 -36 26 -56q29 -21 96 -47q67 -25 105 -45q93 -47 93 -158q0 -101 -75.5 -160.5t-184.5 -59.5q-113 0 -190 63t-77 171l1 22h130q-2 -18 -2 -24q0 -55 42 -88t104 -33q53 0 86 25t33 70
q-2 40 -25 58.5t-93 47.5q-65 25 -104 47q-94 52 -94 161q0 97 67.5 156t183.5 59t183 -59.5t71 -162.5zM331 -85l-19 -83q-15 -66 -52.5 -97t-96.5 -35l-1 44q75 10 92 79h-45l22 92h100z" />
    <glyph glyph-name="uni0219" unicode="&#x219;" horiz-adv-x="494" 
d="M472 350h-121q-1 33 -22 52t-59 19q-34 0 -54.5 -14.5t-20.5 -37.5q0 -22 19 -33.5t77 -31.5q76 -26 110 -55t36 -90q0 -77 -62.5 -123.5t-146.5 -46.5t-145 47t-64 129h125q7 -73 90 -73q79 0 79 52q0 20 -14 31t-51 24l-61 20q-53 18 -83.5 55t-30.5 89q0 77 57 119
t140 42q88 0 144 -46q57 -46 58 -128zM251 -85l-19 -83q-15 -66 -52.5 -97t-96.5 -35l-1 44q75 10 92 79h-45l22 92h100z" />
    <glyph glyph-name="uni021A" unicode="&#x21a;" horiz-adv-x="618" 
d="M451 578l-134 -578h-130l133 578h-216l28 122h563l-28 -122h-216zM281 -85l-19 -83q-15 -66 -52.5 -97t-96.5 -35l-1 44q75 10 92 79h-45l22 92h100z" />
    <glyph glyph-name="uni021B" unicode="&#x21b;" horiz-adv-x="376" 
d="M208 155q0 -44 52 -44h52l-25 -111h-79q-60 0 -95 31.5t-35 86.5q0 12 5 40l56 245h-90l26 112h90l29 122l130 35l-36 -157h107l-26 -112h-107l-49 -212q-5 -22 -5 -36zM201 -85l-19 -83q-15 -66 -52.5 -97t-96.5 -35l-1 44q75 10 92 79h-45l22 92h100z" />
    <glyph glyph-name="circumflex" unicode="&#x2c6;" horiz-adv-x="358" 
d="M199 607h-118l190 183h66l102 -183h-98l-51 86z" />
    <glyph glyph-name="caron" unicode="&#x2c7;" horiz-adv-x="356" 
d="M361 790h118l-187 -183h-66l-103 183h99l50 -86z" />
    <glyph glyph-name="uni02C9" unicode="&#x2c9;" horiz-adv-x="299" 
d="M142 871h298l-21 -94h-299z" />
    <glyph glyph-name="breve" unicode="&#x2d8;" horiz-adv-x="256" 
d="M368 756q0 -55 -39 -102t-112 -47q-52 0 -81.5 26t-29.5 67q0 37 20 75h76q-13 -27 -13 -50q0 -39 40 -39q27 0 42 22.5t15 54.5v12h81q1 -3 1 -19z" />
    <glyph glyph-name="dotaccent" unicode="&#x2d9;" horiz-adv-x="140" 
d="M253 750l-33 -144h-140l34 144h139z" />
    <glyph glyph-name="ring" unicode="&#x2da;" horiz-adv-x="237" 
d="M225 840q51 0 83.5 -32.5t32.5 -84.5q0 -50 -32.5 -83t-83.5 -33q-49 0 -81.5 33t-32.5 83q0 51 32.5 84t81.5 33zM226 773q-23 0 -36 -14t-13 -36t13 -36.5t36 -14.5t36 14.5t13 36.5t-13 36t-36 14z" />
    <glyph glyph-name="ogonek" unicode="&#x2db;" horiz-adv-x="134" 
d="M-74 -70q0 51 53 80h53q-46 -30 -46 -65q0 -21 18.5 -34.5t45.5 -15.5l-13 -59q-47 4 -79 30.5t-32 63.5z" />
    <glyph glyph-name="tilde" unicode="&#x2dc;" horiz-adv-x="307" 
d="M314 607q-32 0 -79 35q-29 22 -42 22t-22 -13.5t-10 -37.5h-72q0 68 28 108.5t73 40.5q34 0 82 -36q28 -22 40 -22q27 0 31 55h73q-1 -70 -29.5 -111t-72.5 -41z" />
    <glyph glyph-name="hungarumlaut" unicode="&#x2dd;" horiz-adv-x="289" 
d="M81 607l80 161h93l-92 -161h-81zM235 607l80 161h92l-93 -161h-79z" />
    <glyph glyph-name="uni0394" unicode="&#x394;" horiz-adv-x="672" 
d="M-29 0l28 120l407 580h89l140 -580l-28 -120h-636zM145 123h365l-92 396z" />
    <glyph glyph-name="uni0394" unicode="&#x3b4;" horiz-adv-x="672" 
d="M-29 0l28 120l407 580h89l140 -580l-28 -120h-636zM145 123h365l-92 396z" />
    <glyph glyph-name="uni03A9" unicode="&#x3a9;" horiz-adv-x="777" 
d="M497 142l-9 -38h143l-24 -104h-235l52 216q96 18 154 83.5t58 147.5q0 75 -51.5 117.5t-125.5 42.5q-94 0 -163.5 -62.5t-69.5 -165.5q0 -65 30.5 -108t89.5 -55l-50 -216h-234l24 104h144l10 46q-72 30 -109.5 91t-37.5 142q-2 99 55 178t143 118t180 38
q127 0 213.5 -68.5t86.5 -186.5q0 -106 -71 -194q-70 -85 -203 -126z" />
    <glyph glyph-name="uni03A9" unicode="&#x3c9;" horiz-adv-x="777" 
d="M497 142l-9 -38h143l-24 -104h-235l52 216q96 18 154 83.5t58 147.5q0 75 -51.5 117.5t-125.5 42.5q-94 0 -163.5 -62.5t-69.5 -165.5q0 -65 30.5 -108t89.5 -55l-50 -216h-234l24 104h144l10 46q-72 30 -109.5 91t-37.5 142q-2 99 55 178t143 118t180 38
q127 0 213.5 -68.5t86.5 -186.5q0 -106 -71 -194q-70 -85 -203 -126z" />
    <glyph glyph-name="uni03BC" unicode="&#x3bc;" horiz-adv-x="648" 
d="M485 119q0 -23 26 -23h30l-22 -96h-49q-33 0 -55.5 15.5t-28.5 42.5q-63 -69 -159 -69q-53 0 -88 32l-49 -213h-114l163 707h114l-72 -312q-6 -25 -6 -45q0 -68 80 -68q46 0 86 37t54 96l68 292h112l-86 -370q-4 -17 -4 -26z" />
    <glyph glyph-name="pi" unicode="&#x3c0;" horiz-adv-x="683" 
d="M538 420l-55 -242q-5 -28 -5 -37q0 -23 13.5 -32.5t44.5 -9.5h60l-23 -99h-108q-52 0 -86.5 30.5t-34.5 82.5q0 26 4 43l59 258h-101l-94 -414h-131l95 414h-90l24 101h302q191 0 280 52l-25 -111q-55 -27 -129 -36z" />
    <glyph glyph-name="uni1E02" unicode="&#x1e02;" horiz-adv-x="690" 
d="M628 227q0 -90 -78 -158.5t-197 -68.5h-317l161 700h283q86 0 134.5 -47.5t48.5 -116.5q0 -57 -35 -109q-35 -50 -103 -65q50 -12 76.5 -48.5t26.5 -86.5zM535 508q0 31 -22 50.5t-62 19.5h-150l-36 -159h156q51 0 82.5 26t31.5 63zM497 228q0 35 -23.5 57.5t-64.5 22.5
h-172l-43 -187h171q61 0 96.5 32t35.5 75zM519 920l-33 -144h-140l34 144h139z" />
    <glyph glyph-name="uni1E03" unicode="&#x1e03;" horiz-adv-x="619" 
d="M579 299q1 -76 -31 -147t-95.5 -118t-140.5 -45q-64 0 -105 28.5t-46 65.5l-21 -83h-119l164 711h123l-58 -253q46 66 140 66q88 0 138.5 -65t50.5 -160zM457 294q0 54 -26.5 86t-75.5 32q-71 0 -117.5 -58t-46.5 -130q0 -56 29 -91.5t81 -35.5q68 0 112 59t44 138z
M549 750l-33 -144h-140l34 144h139z" />
    <glyph glyph-name="uni1E0A" unicode="&#x1e0a;" horiz-adv-x="725" 
d="M704 408q1 -74 -27.5 -147t-80.5 -132t-133.5 -95t-177.5 -34h-249l161 700h216q140 0 215.5 -83t75.5 -209zM573 401q0 80 -43.5 128.5t-125.5 48.5h-105l-104 -456h98q123 -3 202.5 85t77.5 194zM508 920l-33 -144h-140l34 144h139z" />
    <glyph glyph-name="uni1E0B" unicode="&#x1e0b;" horiz-adv-x="619" 
d="M649 711l-165 -711h-116l20 77q-21 -40 -62.5 -64t-91.5 -24q-86 0 -138 64.5t-52 159.5q-1 74 30.5 145.5t94.5 119.5t141 46q58 0 99.5 -22.5t54.5 -55.5l62 265h123zM431 293q0 55 -28.5 88.5t-83.5 33.5q-60 0 -106.5 -53.5t-46.5 -139.5q0 -57 28.5 -89.5
t84.5 -32.5q62 0 107 61t45 132zM377 750l-33 -144h-140l34 144h139z" />
    <glyph glyph-name="uni1E1E" unicode="&#x1e1e;" horiz-adv-x="591" 
d="M37 0l160 700h461l-29 -122h-329l-38 -163h305l-28 -122h-305l-67 -293h-130zM537 920l-33 -144h-140l34 144h139z" />
    <glyph glyph-name="uni1E1F" unicode="&#x1e1f;" horiz-adv-x="343" 
d="M296 549l-8 -34h98l-26 -112h-98l-93 -403h-123l92 403h-74l26 112h74l17 73q28 123 159 123h103l-26 -110h-58q-29 0 -42.5 -11.5t-20.5 -40.5zM423 920l-33 -144h-140l34 144h139z" />
    <glyph glyph-name="uni1E40" unicode="&#x1e40;" horiz-adv-x="875" 
d="M891 700l-160 -700h-122l105 461l-283 -461h-97l-72 465l-105 -465h-119l159 700h146l77 -528l311 528h160zM643 920l-33 -144h-140l34 144h139z" />
    <glyph glyph-name="uni1E41" unicode="&#x1e41;" horiz-adv-x="836" 
d="M797 393q0 -19 -5 -44l-80 -349h-123l77 334q2 18 2 21q0 57 -62 57q-81 0 -110 -122l-67 -290h-124l77 334q3 11 3 22q0 26 -16 41t-47 15q-83 0 -111 -121l-66 -291h-123l117 515h121l-15 -65q19 32 54 53t81 21q48 0 79.5 -24.5t37.5 -65.5q49 90 155 90
q70 0 107.5 -36t37.5 -95zM622 750l-33 -144h-140l34 144h139z" />
    <glyph glyph-name="uni1E56" unicode="&#x1e56;" horiz-adv-x="629" 
d="M644 504q0 -101 -74 -173.5t-200 -72.5h-145l-59 -258h-129l160 700h246q95 0 148 -55.5t53 -140.5zM514 494q0 39 -22.5 61.5t-64.5 22.5h-128l-45 -199h137q56 0 89.5 33t33.5 82zM501 920l-33 -144h-140l34 144h139z" />
    <glyph glyph-name="uni1E57" unicode="&#x1e57;" horiz-adv-x="613" 
d="M576 306q1 -74 -32 -145.5t-96 -119t-139 -45.5q-57 0 -96.5 25t-48.5 67l-65 -280h-123l163 707h121l-15 -64q51 73 141 73q89 0 139.5 -63t50.5 -155zM452 290q0 53 -26 87.5t-72 34.5q-69 0 -115 -57.5t-46 -128.5q0 -54 28.5 -87.5t80.5 -33.5q64 0 107 57t43 128z
M508 750l-33 -144h-140l34 144h139z" />
    <glyph glyph-name="uni1E60" unicode="&#x1e60;" horiz-adv-x="625" 
d="M627 495h-132q0 55 -34 81.5t-91 26.5q-54 0 -86.5 -24.5t-32.5 -70.5q0 -36 26 -56q29 -21 96 -47q67 -25 105 -45q93 -47 93 -158q0 -101 -75.5 -160.5t-184.5 -59.5q-113 0 -190 63t-77 171l1 22h130q-2 -18 -2 -24q0 -55 42 -88t104 -33q53 0 86 25t33 70
q-2 40 -25 58.5t-93 47.5q-65 25 -104 47q-94 52 -94 161q0 97 67.5 156t183.5 59t183 -59.5t71 -162.5zM506 920l-33 -144h-140l34 144h139z" />
    <glyph glyph-name="uni1E61" unicode="&#x1e61;" horiz-adv-x="494" 
d="M472 350h-121q-1 33 -22 52t-59 19q-34 0 -54.5 -14.5t-20.5 -37.5q0 -22 19 -33.5t77 -31.5q76 -26 110 -55t36 -90q0 -77 -62.5 -123.5t-146.5 -46.5t-145 47t-64 129h125q7 -73 90 -73q79 0 79 52q0 20 -14 31t-51 24l-61 20q-53 18 -83.5 55t-30.5 89q0 77 57 119
t140 42q88 0 144 -46q57 -46 58 -128zM407 750l-33 -144h-140l34 144h139z" />
    <glyph glyph-name="uni1E6A" unicode="&#x1e6a;" horiz-adv-x="618" 
d="M451 578l-134 -578h-130l133 578h-216l28 122h563l-28 -122h-216zM523 920l-33 -144h-140l34 144h139z" />
    <glyph glyph-name="uni1E6B" unicode="&#x1e6b;" horiz-adv-x="376" 
d="M208 155q0 -44 52 -44h52l-25 -111h-79q-60 0 -95 31.5t-35 86.5q0 12 5 40l56 245h-90l26 112h90l29 122l130 35l-36 -157h107l-26 -112h-107l-49 -212q-5 -22 -5 -36zM368 844l-33 -144h-140l34 144h139z" />
    <glyph glyph-name="Wgrave" unicode="&#x1e80;" horiz-adv-x="961" 
d="M1028 700l-314 -700h-117l-64 468l-226 -468h-117l-68 700h130l41 -464l219 464h116l63 -466l197 466h140zM607 776h-78l-74 142l107 32z" />
    <glyph glyph-name="wgrave" unicode="&#x1e81;" horiz-adv-x="838" 
d="M877 515l-284 -515h-110l-44 309l-171 -309h-111l-68 515h125l38 -319l171 319h114l39 -319l171 319h130zM520 607h-86l-75 162l107 38z" />
    <glyph glyph-name="Wacute" unicode="&#x1e82;" horiz-adv-x="961" 
d="M1028 700l-314 -700h-117l-64 468l-226 -468h-117l-68 700h130l41 -464l219 464h116l63 -466l197 466h140zM761 868l-129 -92h-104l160 174z" />
    <glyph glyph-name="wacute" unicode="&#x1e83;" horiz-adv-x="838" 
d="M877 515l-284 -515h-110l-44 309l-171 -309h-111l-68 515h125l38 -319l171 319h114l39 -319l171 319h130zM686 720l-141 -114h-112l179 196z" />
    <glyph glyph-name="Wdieresis" unicode="&#x1e84;" horiz-adv-x="961" 
d="M1028 700l-314 -700h-117l-64 468l-226 -468h-117l-68 700h130l41 -464l219 464h116l63 -466l197 466h140zM569 888l-26 -112h-109l26 112h109zM762 888l-25 -112h-110l27 112h108z" />
    <glyph glyph-name="wdieresis" unicode="&#x1e85;" horiz-adv-x="838" 
d="M877 515l-284 -515h-110l-44 309l-171 -309h-111l-68 515h125l38 -319l171 319h114l39 -319l171 319h130zM475 719l-27 -112h-108l25 112h110zM668 719l-26 -112h-109l26 112h109z" />
    <glyph glyph-name="Ygrave" unicode="&#x1ef2;" horiz-adv-x="640" 
d="M727 700l-335 -432l-61 -268h-130l62 277l-146 423h136l97 -297l221 297h156zM433 776h-78l-74 142l107 32z" />
    <glyph glyph-name="ygrave" unicode="&#x1ef3;" horiz-adv-x="542" 
d="M454 515h137l-312 -539q-44 -76 -101.5 -108t-140.5 -32h-42l24 110h23q91 0 130 69l9 16l-102 484h124l67 -338zM370 607h-86l-75 162l107 38z" />
    <glyph glyph-name="endash" unicode="&#x2013;" horiz-adv-x="548" 
d="M57 323h467l-27 -110h-467z" />
    <glyph glyph-name="emdash" unicode="&#x2014;" horiz-adv-x="1013" 
d="M56 323h933l-26 -110h-933z" />
    <glyph glyph-name="quoteleft" unicode="&#x2018;" horiz-adv-x="245" 
d="M72 438l27 118q21 93 74.5 138t138.5 51l1 -63q-56 -8 -87.5 -35t-43.5 -77h64l-32 -132h-142z" />
    <glyph glyph-name="quoteright" unicode="&#x2019;" horiz-adv-x="245" 
d="M326 740l-27 -118q-21 -93 -74.5 -138t-138.5 -51l-1 63q56 8 87.5 35t43.5 77h-64l32 132h142z" />
    <glyph glyph-name="quotesinglbase" unicode="&#x201a;" horiz-adv-x="245" 
d="M188 140l-27 -118q-21 -93 -74.5 -138t-138.5 -51l-1 63q56 8 87.5 35t43.5 77h-64l32 132h142z" />
    <glyph glyph-name="quotedblleft" unicode="&#x201c;" horiz-adv-x="460" 
d="M72 438l27 118q21 93 74.5 138t138.5 51l1 -63q-56 -8 -87.5 -35t-43.5 -77h64l-32 -132h-142zM287 438l27 118q21 93 74.5 138t138.5 51l1 -63q-56 -8 -87.5 -35t-43.5 -77h64l-32 -132h-142z" />
    <glyph glyph-name="quotedblright" unicode="&#x201d;" horiz-adv-x="460" 
d="M326 740l-27 -118q-21 -93 -74.5 -138t-138.5 -51l-1 63q56 8 87.5 35t43.5 77h-64l32 132h142zM541 740l-27 -118q-21 -93 -74.5 -138t-138.5 -51l-1 63q56 8 87.5 35t43.5 77h-64l32 132h142z" />
    <glyph glyph-name="quotedblbase" unicode="&#x201e;" horiz-adv-x="460" 
d="M188 140l-27 -118q-21 -93 -74.5 -138t-138.5 -51l-1 63q56 8 87.5 35t43.5 77h-64l32 132h142zM403 140l-27 -118q-21 -93 -74.5 -138t-138.5 -51l-1 63q56 8 87.5 35t43.5 77h-64l32 132h142z" />
    <glyph glyph-name="dagger" unicode="&#x2020;" horiz-adv-x="529" 
d="M240 393h-168l24 105h168l47 202h112l-47 -202h168l-24 -105h-168l-113 -486h-112z" />
    <glyph glyph-name="daggerdbl" unicode="&#x2021;" horiz-adv-x="529" 
d="M520 393h-168l-42 -179h168l-24 -105h-168l-47 -202h-112l47 202h-168l24 105h168l42 179h-168l24 105h168l47 202h112l-47 -202h168z" />
    <glyph glyph-name="bullet" unicode="&#x2022;" horiz-adv-x="297" 
d="M260 361l-41 -181h-176l41 181h176z" />
    <glyph glyph-name="ellipsis" unicode="&#x2026;" horiz-adv-x="1023" 
d="M229 144l-33 -144h-140l34 144h139zM556 144l-33 -144h-140l34 144h139zM882 144l-33 -144h-140l34 144h139z" />
    <glyph glyph-name="perthousand" unicode="&#x2030;" horiz-adv-x="1373" 
d="M1125 337q77 0 128.5 -49.5t51.5 -127.5t-51.5 -128t-128.5 -50q-75 0 -125.5 50.5t-50.5 127.5t50.5 127t125.5 50zM1127 254q-40 0 -64.5 -25.5t-24.5 -67.5q0 -43 24.5 -69t64.5 -26q39 0 64 26.5t25 68.5t-25 67.5t-64 25.5zM288 723q77 0 128.5 -49.5t51.5 -127.5
t-51.5 -128t-128.5 -50q-75 0 -125.5 50.5t-50.5 127.5t50.5 127t125.5 50zM848 700l-582 -700h-111l582 700h111zM290 640q-40 0 -64.5 -25.5t-24.5 -67.5q0 -43 24.5 -69t64.5 -26q39 0 64 26.5t25 68.5t-25 67.5t-64 25.5zM720 337q77 0 128.5 -49.5t51.5 -127.5
t-51.5 -128t-128.5 -50q-75 0 -125.5 50.5t-50.5 127.5t50.5 127t125.5 50zM722 254q-40 0 -64.5 -25.5t-24.5 -67.5q0 -43 24.5 -69t64.5 -26q39 0 64 26.5t25 68.5t-25 67.5t-64 25.5z" />
    <glyph glyph-name="guilsinglleft" unicode="&#x2039;" horiz-adv-x="364" 
d="M176 276l94 -143l-81 -56l-137 211l223 201l60 -74z" />
    <glyph glyph-name="guilsinglright" unicode="&#x203a;" horiz-adv-x="364" 
d="M200 291l-94 143l81 56l137 -211l-223 -201l-60 74z" />
    <glyph glyph-name="fraction" unicode="&#x2044;" horiz-adv-x="701" 
d="M733 700l-577 -700h-125l577 700h125z" />
    <glyph glyph-name="Euro" unicode="&#x20ac;" horiz-adv-x="629" 
d="M642 463h-116q3 18 3 35q0 49 -28 75.5t-80 26.5q-109 0 -162 -142h212l-14 -61h-216q-10 -40 -14 -98h207l-14 -61h-195q2 -147 123 -147q60 0 92.5 36t42.5 109h119q-18 -120 -87.5 -183.5t-171.5 -63.5q-96 0 -162.5 62t-66.5 184v3h-97l14 61h85q3 48 13 98h-75
l14 61h76q35 115 108 178.5t179 63.5q98 0 156 -54t58 -142q0 -20 -3 -41z" />
    <glyph glyph-name="uni2113" unicode="&#x2113;" horiz-adv-x="387" 
d="M174 92q0 -34 26 -34q40 0 104 84l22 -19q-87 -134 -185 -134q-44 0 -69 24.5t-25 64.5q0 22 6 45l57 246l-62 -33l13 52l59 31l32 138q18 77 68 115q50 39 106 39q45 0 72.5 -22.5t27.5 -68.5q0 -92 -127 -164l-53 -30l-67 -293q-5 -23 -5 -41zM257 480l8 4q57 32 82 63
t25 67q0 50 -35 50q-36 0 -49 -55z" />
    <glyph glyph-name="uni2116" unicode="&#x2116;" horiz-adv-x="1147" 
d="M738 700l-159 -700h-119l-184 480l-109 -480h-129l159 700h132l176 -460l105 460h128zM977 717q77 0 128.5 -49.5t51.5 -127.5t-51.5 -128t-128.5 -50q-75 0 -125.5 50.5t-50.5 127.5t50.5 127t125.5 50zM979 634q-40 0 -64.5 -25.5t-24.5 -67.5q0 -43 24.5 -69t64.5 -26
q39 0 64 26.5t25 68.5t-25 67.5t-64 25.5z" />
    <glyph glyph-name="trademark" unicode="&#x2122;" horiz-adv-x="726" 
d="M147 655h268l-11 -48h-108l-57 -243h-51l57 243h-109zM773 655l-68 -291h-51l55 236l-144 -236h-49l-34 236l-55 -236h-50l68 291h83l27 -217l130 217h88z" />
    <glyph glyph-name="estimated" unicode="&#x212e;" horiz-adv-x="513" 
d="M402 141h43q-9 -73 -60 -112.5t-125 -39.5q-92 0 -151.5 62t-59.5 179q0 119 59 183.5t149 64.5q82 0 137.5 -53t55.5 -147q0 -32 -3 -48h-323v-121q42 -80 139 -80q120 0 139 112zM124 273h241v112q-38 53 -108 53q-41 0 -77 -19t-56 -53v-93z" />
    <glyph glyph-name="uni2153" unicode="&#x2153;" horiz-adv-x="1153" 
d="M972 700l-577 -700h-125l577 700h125zM325 361h109l-21 -91h-315l21 91h108l46 200q-47 -17 -100 -17l22 91q71 7 122 52h84zM1034 126q0 -57 -47 -95.5t-115 -38.5q-65 0 -103.5 34t-38.5 92q0 16 1 19h99q-3 -24 11 -40t39 -16q23 0 38.5 12.5t15.5 30.5q0 19 -13.5 31
t-39.5 12h-34l19 84h25q32 0 52.5 16t20.5 40q0 13 -12 22t-31 9q-25 0 -41.5 -15.5t-20.5 -42.5h-98q4 69 53.5 108.5t115.5 39.5q58 0 95.5 -31t37.5 -80q0 -38 -23 -68t-57 -39q51 -26 51 -84z" />
    <glyph glyph-name="uni2154" unicode="&#x2154;" horiz-adv-x="1145" 
d="M1026 126q0 -57 -47 -95.5t-115 -38.5q-65 0 -103.5 34t-38.5 92q0 16 1 19h99q-3 -24 11 -40t39 -16q23 0 38.5 12.5t15.5 30.5q0 19 -13.5 31t-39.5 12h-34l19 84h25q32 0 52.5 16t20.5 40q0 13 -12 22t-31 9q-25 0 -41.5 -15.5t-20.5 -42.5h-98q4 69 53.5 108.5
t115.5 39.5q58 0 95.5 -31t37.5 -80q0 -38 -23 -68t-57 -39q51 -26 51 -84zM972 700l-577 -700h-125l577 700h125zM279 362h165l-21 -91h-307l17 79l107 82l19 15q69 53 89 73q25 25 25 50q0 38 -45 38q-28 0 -47.5 -20t-20.5 -52h-98q6 75 58 119.5t120 44.5
q59 0 96.5 -32.5t37.5 -86.5q0 -37 -21 -69q-18 -28 -53 -59q-34 -28 -98 -74z" />
    <glyph glyph-name="uni2155" unicode="&#x2155;" horiz-adv-x="1141" 
d="M953 700l-577 -700h-125l577 700h125zM325 361h109l-21 -91h-315l21 91h108l46 200q-47 -17 -100 -17l22 91q71 7 122 52h84zM1034 324h-168l-23 -69q22 22 70 22q50 0 82 -34.5t32 -90.5q0 -65 -46.5 -112.5t-121.5 -47.5q-68 0 -107.5 38t-39.5 103h100q0 -57 50 -57
q65 0 65 70q0 56 -47 56q-32 0 -52 -24h-94l75 238h245z" />
    <glyph glyph-name="uni2156" unicode="&#x2156;" horiz-adv-x="1112" 
d="M953 700l-577 -700h-125l577 700h125zM1005 324h-168l-23 -69q22 22 70 22q50 0 82 -34.5t32 -90.5q0 -65 -46.5 -112.5t-121.5 -47.5q-68 0 -107.5 38t-39.5 103h100q0 -57 50 -57q65 0 65 70q0 56 -47 56q-33 0 -52 -24h-94l75 238h245zM279 362h165l-21 -91h-307
l17 79l107 82l19 15q69 53 89 73q25 25 25 50q0 38 -45 38q-28 0 -47.5 -20t-20.5 -52h-98q6 75 58 119.5t120 44.5q59 0 96.5 -32.5t37.5 -86.5q0 -37 -21 -69q-18 -28 -53 -59q-34 -28 -98 -74z" />
    <glyph glyph-name="uni2157" unicode="&#x2157;" horiz-adv-x="1088" 
d="M933 700l-577 -700h-125l577 700h125zM981 324h-168l-23 -69q22 22 70 22q50 0 82 -34.5t32 -90.5q0 -65 -46.5 -112.5t-121.5 -47.5q-68 0 -107.5 38t-39.5 103h100q0 -57 50 -57q65 0 65 70q0 56 -47 56q-33 0 -52 -24h-94l75 238h245zM439 398q0 -57 -47 -95.5
t-115 -38.5q-65 0 -103.5 34t-38.5 92q0 16 1 19h99q-3 -24 11 -40t39 -16q23 0 38.5 12.5t15.5 30.5q0 19 -13.5 31t-39.5 12h-34l19 84h25q32 0 52.5 16t20.5 40q0 13 -12 22t-31 9q-25 0 -41.5 -15.5t-20.5 -42.5h-98q4 69 53.5 108.5t115.5 39.5q58 0 95.5 -31t37.5 -80
q0 -38 -23 -68t-57 -39q51 -26 51 -84z" />
    <glyph glyph-name="uni2158" unicode="&#x2158;" horiz-adv-x="1116" 
d="M949 700l-577 -700h-125l577 700h125zM1009 324h-168l-23 -69q22 22 70 22q50 0 82 -34.5t32 -90.5q0 -65 -46.5 -112.5t-121.5 -47.5q-68 0 -107.5 38t-39.5 103h100q0 -57 50 -57q65 0 65 70q0 56 -47 56q-33 0 -52 -24h-94l75 238h245zM417 434h48l-20 -91h-49
l-17 -72h-94l16 73h-185l18 83l227 261h115zM238 434h85l31 132z" />
    <glyph glyph-name="uni2159" unicode="&#x2159;" horiz-adv-x="1134" 
d="M962 700l-577 -700h-125l577 700h125zM325 361h109l-21 -91h-315l21 91h108l46 200q-47 -17 -100 -17l22 91q71 7 122 52h84zM897 345q-36 0 -60.5 -24.5t-32.5 -71.5q32 34 90 34q54 0 90.5 -33t36.5 -94q0 -69 -46 -116.5t-118 -47.5t-111 49t-39 140q0 112 55 179.5
t140 67.5q58 0 97 -31t44 -87h-99q-7 35 -47 35zM922 143q0 25 -14 41.5t-37 16.5q-29 0 -44.5 -20t-15.5 -51q0 -59 51 -59q28 0 44 21t16 51z" />
    <glyph glyph-name="uni215A" unicode="&#x215a;" horiz-adv-x="1109" 
d="M937 700l-577 -700h-125l577 700h125zM872 345q-36 0 -60.5 -24.5t-32.5 -71.5q32 34 90 34q54 0 90.5 -33t36.5 -94q0 -69 -46 -116.5t-118 -47.5t-111 49t-39 140q0 112 55 179.5t140 67.5q58 0 97 -31t44 -87h-99q-7 35 -47 35zM897 143q0 25 -14 41.5t-37 16.5
q-29 0 -44.5 -20t-15.5 -51q0 -59 51 -59q28 0 44 21t16 51zM451 596h-168l-23 -69q22 22 70 22q50 0 82 -34.5t32 -90.5q0 -65 -46.5 -112.5t-121.5 -47.5q-68 0 -107.5 38t-39.5 103h100q0 -57 50 -57q65 0 65 70q0 56 -47 56q-33 0 -52 -24h-94l75 238h245z" />
    <glyph glyph-name="oneeighth" unicode="&#x215b;" horiz-adv-x="1118" 
d="M952 700l-577 -700h-125l577 700h125zM325 361h109l-21 -91h-315l21 91h108l46 200q-47 -17 -100 -17l22 91q71 7 122 52h84zM999 127q0 -61 -48.5 -98t-116.5 -37q-62 0 -103.5 31.5t-41.5 86.5q0 45 26.5 75t70.5 37q-54 30 -54 84q0 56 43 89t108 33q61 0 101 -29
t40 -81q0 -40 -23.5 -68t-57.5 -34q56 -26 56 -89zM925 302q0 42 -46 42q-22 0 -34.5 -12t-12.5 -34q0 -21 12 -32.5t32 -11.5q21 0 35 13.5t14 34.5zM899 131q0 23 -15.5 36.5t-38.5 13.5q-24 0 -40 -17t-16 -42q0 -23 14.5 -35.5t36.5 -12.5q25 0 42 16t17 41z" />
    <glyph glyph-name="threeeighths" unicode="&#x215c;" horiz-adv-x="1110" 
d="M954 700l-577 -700h-125l577 700h125zM991 127q0 -61 -48.5 -98t-116.5 -37q-62 0 -103.5 31.5t-41.5 86.5q0 45 26.5 75t70.5 37q-54 30 -54 84q0 56 43 89t108 33q61 0 101 -29t40 -81q0 -40 -23.5 -68t-57.5 -34q56 -26 56 -89zM917 302q0 42 -46 42q-22 0 -34.5 -12
t-12.5 -34q0 -21 12 -32.5t32 -11.5q21 0 35 13.5t14 34.5zM891 131q0 23 -15.5 36.5t-38.5 13.5q-24 0 -40 -17t-16 -42q0 -23 14.5 -35.5t36.5 -12.5q25 0 42 16t17 41zM439 398q0 -57 -47 -95.5t-115 -38.5q-65 0 -103.5 34t-38.5 92q0 16 1 19h99q-3 -24 11 -40t39 -16
q23 0 38.5 12.5t15.5 30.5q0 19 -13.5 31t-39.5 12h-34l19 84h25q32 0 52.5 16t20.5 40q0 13 -12 22t-31 9q-25 0 -41.5 -15.5t-20.5 -42.5h-98q4 69 53.5 108.5t115.5 39.5q58 0 95.5 -31t37.5 -80q0 -38 -23 -68t-57 -39q51 -26 51 -84z" />
    <glyph glyph-name="fiveeighths" unicode="&#x215d;" horiz-adv-x="1076" 
d="M957 127q0 -61 -48.5 -98t-116.5 -37q-62 0 -103.5 31.5t-41.5 86.5q0 45 26.5 75t70.5 37q-54 30 -54 84q0 56 43 89t108 33q61 0 101 -29t40 -81q0 -40 -23.5 -68t-57.5 -34q56 -26 56 -89zM883 302q0 42 -46 42q-22 0 -34.5 -12t-12.5 -34q0 -21 12 -32.5t32 -11.5
q21 0 35 13.5t14 34.5zM857 131q0 23 -15.5 36.5t-38.5 13.5q-24 0 -40 -17t-16 -42q0 -23 14.5 -35.5t36.5 -12.5q25 0 42 16t17 41zM927 700l-577 -700h-125l577 700h125zM451 596h-168l-23 -69q22 22 70 22q50 0 82 -34.5t32 -90.5q0 -65 -46.5 -112.5t-121.5 -47.5
q-68 0 -107.5 38t-39.5 103h100q0 -57 50 -57q65 0 65 70q0 56 -47 56q-33 0 -52 -24h-94l75 238h245z" />
    <glyph glyph-name="seveneighths" unicode="&#x215e;" horiz-adv-x="1088" 
d="M933 700l-577 -700h-125l577 700h125zM969 127q0 -61 -48.5 -98t-116.5 -37q-62 0 -103.5 31.5t-41.5 86.5q0 45 26.5 75t70.5 37q-54 30 -54 84q0 56 43 89t108 33q61 0 101 -29t40 -81q0 -40 -23.5 -68t-57.5 -34q56 -26 56 -89zM895 302q0 42 -46 42q-22 0 -34.5 -12
t-12.5 -34q0 -21 12 -32.5t32 -11.5q21 0 35 13.5t14 34.5zM869 131q0 23 -15.5 36.5t-38.5 13.5q-24 0 -40 -17t-16 -42q0 -23 14.5 -35.5t36.5 -12.5q25 0 42 16t17 41zM522 688l-18 -75l-219 -342h-109l213 321h-216l21 96h328z" />
    <glyph glyph-name="arrowleft" unicode="&#x2190;" horiz-adv-x="666" 
d="M330 19l-280 280l280 280l65 -64l-173 -168h403v-96h-403l173 -167z" />
    <glyph glyph-name="arrowup" unicode="&#x2191;" horiz-adv-x="640" 
d="M609 295l-65 -65l-167 173v-403h-96v403l-168 -173l-64 65l280 280z" />
    <glyph glyph-name="arrowright" unicode="&#x2192;" horiz-adv-x="663" 
d="M354 18l-65 65l173 167h-403v96h403l-173 168l65 64l280 -280z" />
    <glyph glyph-name="arrowdown" unicode="&#x2193;" horiz-adv-x="639" 
d="M584 280l-280 -280l-280 280l64 65l168 -173v403h96v-403l167 173z" />
    <glyph glyph-name="partialdiff" unicode="&#x2202;" horiz-adv-x="604" 
d="M573 396q0 -188 -82 -297.5t-205 -109.5q-93 0 -157 60.5t-64 161.5q0 111 67.5 181.5t156.5 70.5q58 0 105.5 -24.5t67.5 -69.5q2 22 2 47q0 86 -32.5 132t-90.5 46q-92 0 -112 -84h-125q14 88 75.5 139t153.5 51q94 0 167 -65q73 -64 73 -239zM416 230q0 54 -32.5 85
t-81.5 31q-50 0 -84 -33.5t-34 -89.5q0 -58 33.5 -88.5t84.5 -30.5q47 0 80.5 35t33.5 91z" />
    <glyph glyph-name="product" unicode="&#x220f;" horiz-adv-x="806" 
d="M453 0l135 592h-205l-135 -592h-122l136 592h-90l25 108h626l-25 -108h-89l-136 -592h-120z" />
    <glyph glyph-name="summation" unicode="&#x2211;" horiz-adv-x="660" 
d="M314 578l179 -240l-277 -216h378l-28 -122h-570l28 123l295 226l-171 229l29 122h521l-29 -122h-355z" />
    <glyph glyph-name="minus" unicode="&#x2212;" 
d="M535 362l-23 -100h-422l23 100h422z" />
    <glyph glyph-name="radical" unicode="&#x221a;" horiz-adv-x="629" 
d="M706 700l-415 -700h-105l-102 515h122l62 -349l312 534h126z" />
    <glyph glyph-name="infinity" unicode="&#x221e;" horiz-adv-x="781" 
d="M744 311q2 -100 -58 -180.5t-154 -78.5q-64 0 -106 35.5t-52 87.5q-57 -123 -166 -123q-76 0 -118 58t-42 143q0 103 58.5 179t154.5 76q62 0 99.5 -33t49.5 -91q28 58 73.5 91t101.5 33q74 0 116.5 -57t42.5 -140zM638 297q0 37 -20.5 60.5t-55.5 23.5q-45 0 -78.5 -34
t-33.5 -87q0 -40 21.5 -61t57.5 -21q49 0 79 36.5t30 82.5zM339 296q0 40 -21 62t-57 22q-45 0 -75 -36t-30 -81q0 -37 19.5 -60.5t55.5 -23.5q42 0 75 33t33 84z" />
    <glyph glyph-name="integral" unicode="&#x222b;" horiz-adv-x="353" 
d="M448 711l-26 -110h-62q-27 0 -40 -12t-20 -42l-141 -606q-17 -72 -53.5 -102.5t-96.5 -30.5h-91l25 110h43q25 0 37.5 11t18.5 37l143 622q28 123 159 123h104z" />
    <glyph glyph-name="approxequal" unicode="&#x2248;" 
d="M449 418q68 0 106 27l-22 -94q-45 -20 -107 -20q-37 0 -95 21q-59 22 -101 22q-71 0 -121 -32l21 91q53 29 122 29q41 0 98 -22t99 -22zM410 251q72 0 106 26l-21 -94q-47 -20 -108 -20q-37 0 -95 21q-59 22 -101 22q-70 0 -120 -32l21 91q53 29 121 29q38 0 98 -21
q57 -22 99 -22z" />
    <glyph glyph-name="notequal" unicode="&#x2260;" 
d="M533 348h-161l-40 -72h184l-22 -94h-214l-65 -117l-75 43l41 74h-109l22 94h139l40 72h-162l22 94h192l72 129l75 -43l-48 -86h131z" />
    <glyph glyph-name="lessequal" unicode="&#x2264;" 
d="M563 533l-341 -139l278 -140l-53 -84l-345 179l22 104l403 175zM485 100l-24 -100h-436l24 100h436z" />
    <glyph glyph-name="greaterequal" unicode="&#x2265;" 
d="M215 632l335 -181l-22 -104l-408 -177l-39 95l350 143l-269 139zM486 100l-24 -100h-436l24 100h436z" />
    <glyph glyph-name="lozenge" unicode="&#x25ca;" horiz-adv-x="567" 
d="M557 336l-333 -347l-174 347l334 346zM256 150l181 192l-84 180l-183 -193z" />
    <glyph glyph-name="NULL" horiz-adv-x="0" 
 />
    <glyph glyph-name="zero.osf" horiz-adv-x="626" 
d="M578 306q2 -80 -32.5 -153t-102 -120.5t-152.5 -45.5q-77 0 -131 37t-78.5 94t-24.5 127q-1 81 33.5 153.5t101.5 119t152 45.5q112 0 173 -74.5t61 -182.5zM455 301q0 65 -31.5 105.5t-87.5 40.5q-68 0 -111.5 -59.5t-43.5 -138.5q0 -64 31.5 -105.5t86.5 -41.5
q68 0 112 60.5t44 138.5z" />
    <glyph glyph-name="one.osf" horiz-adv-x="548" 
d="M438 0h-446l26 116h161l74 321h-162l27 115h447l-27 -115h-161l-74 -321h162z" />
    <glyph glyph-name="two.osf" horiz-adv-x="566" 
d="M230 116h253l-28 -116h-445l25 102l170 106q110 70 149 106.5t41 73.5q0 29 -22 46.5t-56 17.5q-46 0 -81 -31t-41 -81h-125q16 107 89 165.5t168 58.5q81 0 133 -42q54 -42 54 -118q0 -80 -62 -140q-61 -59 -178 -124z" />
    <glyph glyph-name="three.osf" horiz-adv-x="598" 
d="M489 68q2 -93 -75.5 -155.5t-185.5 -60.5q-102 0 -165 56.5t-63 149.5q0 20 1 26h129q-1 -4 -1 -16q0 -100 106 -100q56 0 90.5 27t34.5 73q0 81 -115 81h-55l26 112h43q70 0 111 30t41 78q0 35 -24.5 56.5t-69.5 21.5q-54 0 -89 -31t-40 -89h-127q9 111 86 173.5
t183 62.5q91 0 151 -48.5t60 -126.5q0 -68 -46 -119.5t-109 -60.5q103 -28 103 -140z" />
    <glyph glyph-name="four.osf" horiz-adv-x="628" 
d="M390 -139h-123l31 134h-324l24 103l389 451h163l-103 -440h90l-25 -116h-91zM395 402l-257 -293h188z" />
    <glyph glyph-name="five.osf" horiz-adv-x="611" 
d="M519 432h-273l-48 -149q47 40 110 40q94 0 146 -61t52 -149q0 -109 -74 -186.5t-194 -77.5q-107 0 -172 63t-61 166h126q0 -56 30 -84.5t83 -28.5q61 0 96.5 36.5t35.5 94.5q0 51 -28.5 82.5t-77.5 31.5q-54 0 -97 -40h-125l120 378h377z" />
    <glyph glyph-name="six.osf" horiz-adv-x="626" 
d="M563 258q0 -112 -76 -190.5t-187 -78.5q-107 0 -175 77t-68 237q0 174 81 285.5t222 111.5q98 0 155 -54t59 -145h-126q-2 45 -26 69t-66 24q-67 0 -111.5 -55t-55.5 -161q65 86 168 86q86 0 146 -55t60 -151zM434 241q0 50 -30.5 80t-76.5 30q-54 0 -93.5 -41t-39.5 -97
q0 -50 32.5 -79t77.5 -29q53 0 91.5 40t38.5 96z" />
    <glyph glyph-name="seven.osf" horiz-adv-x="582" 
d="M599 549l-24 -100l-371 -588h-133l357 564h-379l28 124h522z" />
    <glyph glyph-name="eight.osf" horiz-adv-x="586" 
d="M539 210q0 -101 -76.5 -161t-191.5 -60q-102 0 -168.5 49.5t-66.5 139.5q0 69 40 117t112 72q-78 38 -78 133q0 89 70 144.5t177 55.5q99 0 161 -46q64 -46 64 -131q0 -63 -35.5 -106.5t-91.5 -58.5q84 -46 84 -148zM238 486q0 -38 26.5 -58t72.5 -20q53 0 84 25t31 68
q0 39 -27.5 61t-71.5 22q-51 0 -83 -27t-32 -71zM411 209q0 46 -31.5 70.5t-84.5 24.5q-59 0 -94.5 -29.5t-35.5 -78.5q0 -91 117 -91q59 0 94 27.5t35 76.5z" />
    <glyph glyph-name="nine.osf" horiz-adv-x="629" 
d="M47 295q0 112 76 190.5t187 78.5q107 0 175 -77t68 -237q0 -177 -75.5 -287t-215.5 -110q-99 0 -162 55.5t-64 143.5h126q2 -43 31 -68t73 -25q133 0 155 216q-65 -86 -168 -86q-86 0 -146 55t-60 151zM176 312q0 -50 30.5 -80t76.5 -30q54 0 93.5 41t39.5 97
q0 50 -32.5 79t-77.5 29q-53 0 -91.5 -40t-38.5 -96z" />
    <glyph glyph-name="zero.tf" 
d="M72 245q0 100 30 205q30 106 97 177q67 73 173 73q95 0 146 -65t51 -194q0 -104 -31 -206q-32 -105 -99 -175q-68 -71 -171 -71q-95 0 -145.5 64t-50.5 192zM438 444q0 74 -18.5 107t-60.5 33q-39 1 -70.5 -32t-49.5 -85.5t-27 -110t-9 -112.5q0 -74 18 -106.5t58 -32.5
q40 -2 72 30.5t50 85.5t27.5 110.5t9.5 112.5z" />
    <glyph glyph-name="one.tf" 
d="M351 117h155l-26 -114h-436l26 114h156l95 410q-74 -38 -167 -45l28 118q101 13 191 88h110z" />
    <glyph glyph-name="two.tf" 
d="M221 116h309l-27 -116h-488l24 104l179 146l74 59q55 42 88 72q66 59 66 116q0 40 -26 63.5t-73 23.5q-57 0 -92.5 -33.5t-43.5 -93.5h-127q17 116 97.5 179.5t183.5 63.5q92 0 151 -53t59 -138q0 -54 -26 -100q-27 -46 -65 -81q-36 -33 -116 -96l-66 -51z" />
    <glyph glyph-name="three.tf" 
d="M531 205q2 -93 -75.5 -155.5t-185.5 -60.5q-102 0 -165 56.5t-63 149.5q0 20 1 26h129q-1 -4 -1 -16q0 -100 106 -100q56 0 90.5 27t34.5 73q0 81 -115 81h-55l26 112h43q70 0 111 30t41 78q0 35 -24.5 56.5t-69.5 21.5q-54 0 -89 -31t-40 -89h-127q9 111 86 173.5
t183 62.5q91 0 151 -48.5t60 -126.5q0 -68 -46 -119.5t-109 -60.5q103 -28 103 -140z" />
    <glyph glyph-name="four.tf" 
d="M418 0h-123l31 134h-324l24 103l389 451h163l-103 -440h90l-25 -116h-91zM423 541l-257 -293h188z" />
    <glyph glyph-name="five.tf" 
d="M555 572h-273l-48 -149q47 40 110 40q94 0 146 -61t52 -149q0 -109 -74 -186.5t-194 -77.5q-107 0 -172 63t-61 166h126q0 -56 30 -84.5t83 -28.5q61 0 96.5 36.5t35.5 94.5q0 51 -28.5 82.5t-77.5 31.5q-54 0 -97 -40h-125l120 378h377z" />
    <glyph glyph-name="six.tf" 
d="M562 258q0 -112 -76 -190.5t-187 -78.5q-107 0 -175 77t-68 237q0 174 81 285.5t222 111.5q98 0 155 -54t59 -145h-126q-2 45 -26 69t-66 24q-67 0 -111.5 -55t-55.5 -161q65 86 168 86q86 0 146 -55t60 -151zM433 241q0 50 -30.5 80t-76.5 30q-54 0 -93.5 -41t-39.5 -97
q0 -50 32.5 -79t77.5 -29q53 0 91.5 40t38.5 96z" />
    <glyph glyph-name="seven.tf" 
d="M660 688l-24 -100l-371 -588h-133l357 564h-379l28 124h522z" />
    <glyph glyph-name="eight.tf" 
d="M547 210q0 -101 -76.5 -161t-191.5 -60q-102 0 -168.5 49.5t-66.5 139.5q0 69 40 117t112 72q-78 38 -78 133q0 89 70 144.5t177 55.5q99 0 161 -46q64 -46 64 -131q0 -63 -35.5 -106.5t-91.5 -58.5q84 -46 84 -148zM246 486q0 -38 26.5 -58t72.5 -20q53 0 84 25t31 68
q0 39 -27.5 61t-71.5 22q-51 0 -83 -27t-32 -71zM419 209q0 46 -31.5 70.5t-84.5 24.5q-59 0 -94.5 -29.5t-35.5 -78.5q0 -91 117 -91q59 0 94 27.5t35 76.5z" />
    <glyph glyph-name="nine.tf" 
d="M77 431q0 112 76 190.5t187 78.5q107 0 175 -77t68 -237q0 -177 -75.5 -287t-215.5 -110q-99 0 -162 55.5t-64 143.5h126q2 -43 31 -68t73 -25q133 0 155 216q-65 -86 -168 -86q-86 0 -146 55t-60 151zM206 448q0 -50 30.5 -80t76.5 -30q54 0 93.5 41t39.5 97
q0 50 -32.5 79t-77.5 29q-53 0 -91.5 -40t-38.5 -96z" />
    <glyph glyph-name="zero.dnom" horiz-adv-x="360" 
d="M7 151q0 44 11.5 91.5t34 90.5t60.5 69.5t85 25.5q62 0 97 -41t35 -119q0 -46 -12 -94t-34.5 -89.5t-60.5 -67.5t-84 -25q-61 0 -96.5 41t-35.5 118zM229 268q0 70 -39 70q-36 2 -59 -61t-22 -127q0 -38 8.5 -53t27.5 -15q37 -2 60.5 60.5t23.5 125.5z" />
    <glyph glyph-name="one.dnom" horiz-adv-x="363" 
d="M191 90h109l-21 -91h-315l21 91h108l46 200q-47 -17 -100 -17l22 91q71 7 122 52h84z" />
    <glyph glyph-name="two.dnom" horiz-adv-x="357" 
d="M137 90h165l-21 -91h-307l17 79l107 82l19 15q69 53 89 73q25 25 25 50q0 38 -45 38q-28 0 -47.5 -20t-20.5 -52h-98q6 75 58 119.5t120 44.5q59 0 96.5 -32.5t37.5 -86.5q0 -37 -21 -69q-18 -28 -53 -59q-34 -28 -98 -74z" />
    <glyph glyph-name="three.dnom" horiz-adv-x="357" 
d="M302 126q0 -57 -47 -95.5t-115 -38.5q-65 0 -103.5 34t-38.5 92q0 16 1 19h99q-3 -24 11 -40t39 -16q23 0 38.5 12.5t15.5 30.5q0 19 -13.5 31t-39.5 12h-34l19 84h25q32 0 52.5 16t20.5 40q0 13 -12 22t-31 9q-25 0 -41.5 -15.5t-20.5 -42.5h-98q4 69 53.5 108.5
t115.5 39.5q58 0 95.5 -31t37.5 -80q0 -38 -23 -68t-57 -39q51 -26 51 -84z" />
    <glyph glyph-name="four.dnom" horiz-adv-x="356" 
d="M272 162h48l-20 -91h-49l-17 -72h-94l16 73h-185l18 83l227 261h115zM93 162h85l31 132z" />
    <glyph glyph-name="five.dnom" horiz-adv-x="358" 
d="M316 324h-168l-23 -69q22 22 70 22q50 0 82 -34.5t32 -90.5q0 -65 -46.5 -112.5t-121.5 -47.5q-68 0 -107.5 38t-39.5 103h100q0 -57 50 -57q65 0 65 70q0 56 -47 56q-32 0 -52 -24h-94l75 238h245z" />
    <glyph glyph-name="six.dnom" horiz-adv-x="356" 
d="M193 345q-36 0 -60.5 -24.5t-32.5 -71.5q32 34 90 34q54 0 90.5 -33t36.5 -94q0 -69 -46 -116.5t-118 -47.5t-111 49t-39 140q0 112 55 179.5t140 67.5q58 0 97 -31t44 -87h-99q-7 35 -47 35zM218 143q0 25 -14 41.5t-37 16.5q-29 0 -44.5 -20t-15.5 -51q0 -59 51 -59
q28 0 44 21t16 51z" />
    <glyph glyph-name="seven.dnom" horiz-adv-x="357" 
d="M379 416l-18 -75l-219 -342h-109l213 321h-216l21 96h328z" />
    <glyph glyph-name="eight.dnom" horiz-adv-x="359" 
d="M302 127q0 -61 -48.5 -98t-116.5 -37q-62 0 -103.5 31.5t-41.5 86.5q0 45 26.5 75t70.5 37q-54 30 -54 84q0 56 43 89t108 33q61 0 101 -29t40 -81q0 -40 -23.5 -68t-57.5 -34q56 -26 56 -89zM228 302q0 42 -46 42q-22 0 -34.5 -12t-12.5 -34q0 -21 12 -32.5t32 -11.5
q21 0 35 13.5t14 34.5zM202 131q0 23 -15.5 36.5t-38.5 13.5q-24 0 -40 -17t-16 -42q0 -23 14.5 -35.5t36.5 -12.5q25 0 42 16t17 41z" />
    <glyph glyph-name="nine.dnom" horiz-adv-x="357" 
d="M142 75q36 0 60.5 24.5t32.5 71.5q-34 -34 -90 -34q-54 0 -91 33t-37 94q0 70 46 117t119 47q72 0 111 -49t39 -141q0 -111 -55.5 -178.5t-140.5 -67.5q-58 0 -97 31t-44 87h99q7 -35 48 -35zM117 276q0 -25 13.5 -41t36.5 -16q29 0 45 20t16 51q0 59 -51 59
q-28 0 -44 -21.5t-16 -51.5z" />
    <glyph glyph-name="zero.numr" horiz-adv-x="360" 
d="M70 423q0 44 11.5 91.5t34 90.5t60.5 69.5t85 25.5q62 0 97 -41t35 -119q0 -46 -12 -94t-34.5 -89.5t-60.5 -67.5t-84 -25q-61 0 -96.5 41t-35.5 118zM292 540q0 70 -39 70q-36 2 -59 -61t-22 -127q0 -38 8.5 -53t27.5 -15q37 -2 60.5 60.5t23.5 125.5z" />
    <glyph glyph-name="one.numr" horiz-adv-x="363" 
d="M254 362h109l-21 -91h-315l21 91h108l46 200q-47 -17 -100 -17l22 91q71 7 122 52h84z" />
    <glyph glyph-name="two.numr" horiz-adv-x="357" 
d="M200 362h165l-21 -91h-307l17 79l107 82l19 15q69 53 89 73q25 25 25 50q0 38 -45 38q-28 0 -47.5 -20t-20.5 -52h-98q6 75 58 119.5t120 44.5q59 0 96.5 -32.5t37.5 -86.5q0 -37 -21 -69q-18 -28 -53 -59q-34 -28 -98 -74z" />
    <glyph glyph-name="three.numr" horiz-adv-x="357" 
d="M365 398q0 -57 -47 -95.5t-115 -38.5q-65 0 -103.5 34t-38.5 92q0 16 1 19h99q-3 -24 11 -40t39 -16q23 0 38.5 12.5t15.5 30.5q0 19 -13.5 31t-39.5 12h-34l19 84h25q32 0 52.5 16t20.5 40q0 13 -12 22t-31 9q-25 0 -41.5 -15.5t-20.5 -42.5h-98q4 69 53.5 108.5
t115.5 39.5q58 0 95.5 -31t37.5 -80q0 -38 -23 -68t-57 -39q51 -26 51 -84z" />
    <glyph glyph-name="four.numr" horiz-adv-x="356" 
d="M335 434h48l-20 -91h-49l-17 -72h-94l16 73h-185l18 83l227 261h115zM156 434h85l31 132z" />
    <glyph glyph-name="five.numr" horiz-adv-x="358" 
d="M379 596h-168l-23 -69q22 22 70 22q50 0 82 -34.5t32 -90.5q0 -65 -46.5 -112.5t-121.5 -47.5q-68 0 -107.5 38t-39.5 103h100q0 -57 50 -57q65 0 65 70q0 56 -47 56q-33 0 -52 -24h-94l75 238h245z" />
    <glyph glyph-name="six.numr" horiz-adv-x="356" 
d="M256 617q-36 0 -60.5 -24.5t-32.5 -71.5q32 34 90 34q54 0 90.5 -33t36.5 -94q0 -69 -46 -116.5t-118 -47.5t-111 49t-39 140q0 112 55 179.5t140 67.5q58 0 97 -31t44 -87h-99q-7 35 -47 35zM281 415q0 25 -14 41.5t-37 16.5q-29 0 -44.5 -20t-15.5 -51q0 -59 51 -59
q28 0 44 21t16 51z" />
    <glyph glyph-name="seven.numr" horiz-adv-x="357" 
d="M442 688l-18 -75l-219 -342h-109l213 321h-216l21 96h328z" />
    <glyph glyph-name="eight.numr" horiz-adv-x="359" 
d="M365 399q0 -61 -48.5 -98t-116.5 -37q-62 0 -103.5 31.5t-41.5 86.5q0 45 26.5 75t70.5 37q-54 30 -54 84q0 56 43 89t108 33q61 0 101 -29t40 -81q0 -40 -23.5 -68t-57.5 -34q56 -26 56 -89zM291 574q0 42 -46 42q-22 0 -34.5 -12t-12.5 -34q0 -21 12 -32.5t32 -11.5
q21 0 35 13.5t14 34.5zM265 403q0 23 -15.5 36.5t-38.5 13.5q-24 0 -40 -17t-16 -42q0 -23 14.5 -35.5t36.5 -12.5q25 0 42 16t17 41z" />
    <glyph glyph-name="nine.numr" horiz-adv-x="357" 
d="M205 347q36 0 60.5 24.5t32.5 71.5q-34 -34 -90 -34q-54 0 -91 33t-37 94q0 70 46 117t119 47q72 0 111 -49t39 -141q0 -111 -55.5 -178.5t-140.5 -67.5q-58 0 -97 31t-44 87h99q7 -35 48 -35zM180 548q0 -25 13.5 -41t36.5 -16q29 0 45 20t16 51q0 59 -51 59
q-28 0 -44 -21.5t-16 -51.5z" />
    <glyph glyph-name="exclamdown.cap" horiz-adv-x="321" 
d="M153 506l33 144h140l-33 -144h-140zM252 443l-25 -202l-67 -291h-132l71 306l65 187h88z" />
    <glyph glyph-name="questiondown.cap" horiz-adv-x="546" 
d="M301 523l34 144h140l-34 -144h-140zM221 -44q-99 0 -153 44t-54 121q0 69 36 107q39 41 89 65l62 31q43 21 61 39q18 17 28 58l5 20h118l-11 -43q-12 -45 -20 -62q-21 -55 -114 -103l-53 -27q-64 -31 -64 -81q0 -60 82 -60q99 0 129 98h127q-23 -103 -93 -155t-175 -52z
" />
    <glyph glyph-name="periodcentered.cap" horiz-adv-x="240" 
d="M252 484l-33 -144h-140l34 144h139z" />
    <glyph glyph-name="bullet.cap" horiz-adv-x="276" 
d="M271 411l-41 -181h-176l41 181h176z" />
    <glyph glyph-name="hyphen.cap" horiz-adv-x="368" 
d="M364 414l-25 -110h-288l25 110h288z" />
    <glyph glyph-name="endash.cap" horiz-adv-x="547" 
d="M73 395h467l-27 -110h-467z" />
    <glyph glyph-name="emdash.cap" horiz-adv-x="1012" 
d="M72 395h933l-26 -110h-933z" />
    <glyph glyph-name="guillemotleft.cap" horiz-adv-x="598" 
d="M191 341l94 -143l-81 -56l-137 211l223 201l60 -74zM425 341l94 -143l-81 -56l-137 211l223 201l60 -74z" />
    <glyph glyph-name="guillemotright.cap" horiz-adv-x="598" 
d="M217 365l-94 143l81 56l137 -211l-223 -201l-60 74zM451 365l-94 143l81 56l137 -211l-223 -201l-60 74z" />
    <glyph glyph-name="guilsinglleft.cap" horiz-adv-x="364" 
d="M191 341l94 -143l-81 -56l-137 211l223 201l60 -74z" />
    <glyph glyph-name="guilsinglright.cap" horiz-adv-x="364" 
d="M215 356l-94 143l81 56l137 -211l-223 -201l-60 74z" />
    <glyph glyph-name="at.cap" horiz-adv-x="910" 
d="M898 443q2 -125 -75.5 -224t-171.5 -96q-43 0 -74 20.5t-39 53.5q-44 -74 -137 -74q-70 0 -108 47t-38 115q-2 96 69.5 181t169.5 82q84 0 109 -60l20 51h112l-80 -210q-20 -52 -20 -79q0 -36 34 -36q48 -2 89.5 70.5t40.5 156.5q0 99 -60.5 153t-169.5 54
q-82 1 -158.5 -31.5t-131.5 -87t-87 -127.5t-31 -150q0 -107 57.5 -165.5t162.5 -58.5q67 0 133 30l27 -81q-88 -41 -172 -41q-138 0 -221 84.5t-83 227.5q-2 94 39.5 185t110.5 158.5t164 107.5t194 38q148 0 236.5 -79.5t88.5 -214.5zM568 381q0 79 -72 79
q-56 0 -94.5 -49t-38.5 -108q0 -38 20 -63.5t55 -25.5q53 -3 92.5 53.5t37.5 113.5z" />
    <glyph glyph-name="acute.cap" horiz-adv-x="212" 
d="M353 868l-129 -92h-104l160 174z" />
    <glyph glyph-name="breve.cap" horiz-adv-x="256" 
d="M406 925q0 -55 -39 -102t-111 -47q-52 0 -81.5 26t-29.5 67q0 42 19 75h76q-12 -27 -12 -50q0 -39 39 -39q27 0 42 22.5t15 54.5v12h81q1 -3 1 -19z" />
    <glyph glyph-name="caron.cap" horiz-adv-x="356" 
d="M398 950h118l-187 -183h-66l-103 183h99l51 -86z" />
    <glyph glyph-name="cedilla.cap" horiz-adv-x="207" 
d="M119 -110q0 -42 -31 -70t-80 -28q-70 0 -107 37l43 48q28 -28 61 -28q21 0 33.5 9.5t12.5 24.5q0 35 -71 35l20 83h54l-10 -47q34 -2 54.5 -19.5t20.5 -44.5z" />
    <glyph glyph-name="circumflex.cap" horiz-adv-x="359" 
d="M236 767h-118l190 183h66l103 -183h-99l-51 86z" />
    <glyph glyph-name="dieresis.cap" horiz-adv-x="303" 
d="M255 888l-26 -112h-109l26 112h109zM448 888l-25 -112h-110l27 112h108z" />
    <glyph glyph-name="dotaccent.cap" horiz-adv-x="140" 
d="M293 920l-33 -144h-140l34 144h139z" />
    <glyph glyph-name="grave.cap" horiz-adv-x="184" 
d="M304 776h-78l-74 142l107 32z" />
    <glyph glyph-name="hungarumlaut.cap" horiz-adv-x="290" 
d="M120 776l81 161h97l-93 -161h-85zM270 776l80 161h97l-92 -161h-85z" />
    <glyph glyph-name="macron.cap" horiz-adv-x="299" 
d="M142 870h298l-21 -94h-299z" />
    <glyph glyph-name="ring.cap" horiz-adv-x="212" 
d="M241 950q45 0 74.5 -29t29.5 -74q0 -46 -29.5 -75t-74.5 -29q-44 0 -73 29.5t-29 74.5t29 74t73 29zM242 900q-23 0 -37 -15t-14 -38q0 -24 13.5 -39t37.5 -15q23 0 37 15t14 39q0 23 -14 38t-37 15z" />
    <glyph glyph-name="tilde.cap" horiz-adv-x="307" 
d="M353 776q-31 0 -80 35q-28 22 -41 22q-29 0 -31 -51h-73q0 68 28.5 108.5t73.5 40.5q35 0 80 -36q28 -22 40 -22q28 0 32 54h72q0 -69 -29 -110t-72 -41z" />
    </font>
</defs>
</svg>
