<?xml version="1.0" standalone="no"?>
<!DOCTYPE svg PUBLIC "-//W3C//DTD SVG 1.1//EN" "http://www.w3.org/Graphics/SVG/1.1/DTD/svg11.dtd" >
<svg xmlns="http://www.w3.org/2000/svg" xmlns:xlink="http://www.w3.org/1999/xlink" version="1.1">
<metadata>
Created by FontForge 20170731 at Thu May 16 07:51:28 2019
 By Aleksey,,,
Copyright (c) 2015 by Luzi Type. All rights reserved. |DCNT
</metadata>
<defs>
<font id="MessinaSans-RegularItalic" horiz-adv-x="600" >
  <font-face 
    font-family="Messina Sans"
    font-weight="400"
    font-style="italic"
    font-stretch="normal"
    units-per-em="1000"
    panose-1="0 0 5 0 0 0 0 0 0 0"
    ascent="757"
    descent="-243"
    x-height="506"
    cap-height="700"
    bbox="-113 -340 1264 1100"
    underline-thickness="50"
    underline-position="-250"
    slope="-13"
    unicode-range="U+000D-25CA"
  />
<missing-glyph horiz-adv-x="448" 
 />
    <glyph glyph-name=".notdef" horiz-adv-x="448" 
 />
    <glyph glyph-name=".null" horiz-adv-x="0" 
 />
    <glyph glyph-name="nonmarkingreturn" horiz-adv-x="333" 
 />
    <glyph glyph-name="CR" unicode="&#xd;" horiz-adv-x="467" 
 />
    <glyph glyph-name="space" unicode=" " horiz-adv-x="265" 
 />
    <glyph glyph-name="exclam" unicode="!" horiz-adv-x="299" 
d="M230 394l-61 -196h-54l29 196l71 306h85zM176 112l-26 -112h-108l26 112h108z" />
    <glyph glyph-name="quotedbl" unicode="&#x22;" horiz-adv-x="384" 
d="M293 735l-85 -272h-57l39 272h103zM443 735l-85 -272h-57l39 272h103z" />
    <glyph glyph-name="numbersign" unicode="#" horiz-adv-x="651" 
d="M618 428h-133l-32 -141h150v-49h-162l-54 -238h-62l55 238h-122l-55 -238h-62l55 238h-114v49h126l32 141h-143v50h155l49 212h61l-49 -212h123l49 212h60l-49 -212h122v-50zM392 287l32 141h-122l-33 -141h123z" />
    <glyph glyph-name="dollar" unicode="$" horiz-adv-x="599" 
d="M535 196q0 -95 -75 -151t-179 -56h-18l-27 -116h-66l28 125q-80 22 -122 82q-39 60 -39 126q0 14 1 18h81q-1 -3 -1 -14q0 -47 25 -85t73 -55l60 264q-80 32 -117 72.5t-37 108.5q0 90 62.5 143t169.5 53h9l21 90h66l-22 -98q73 -16 115.5 -64t47.5 -118h-81
q-12 88 -99 113l-58 -253q56 -20 95 -42q87 -48 87 -143zM293 405l54 236q-67 -2 -107 -35t-40 -89q0 -39 22 -64.5t71 -47.5zM451 188q0 46 -26 71.5t-88 50.5l-58 -252h12q72 0 116 36t44 94z" />
    <glyph glyph-name="percent" unicode="%" horiz-adv-x="941" 
d="M286 716q74 0 123 -48t49 -122t-49 -122.5t-123 -48.5q-71 0 -119.5 48.5t-48.5 122.5t48 122t120 48zM824 700l-573 -700h-90l574 700h89zM287 651q-42 0 -68.5 -29.5t-26.5 -74.5q0 -47 26.5 -77t68.5 -30t69.5 30.5t27.5 76.5q0 45 -27.5 74.5t-69.5 29.5zM696 323
q74 0 123 -48t49 -122t-49 -122.5t-123 -48.5q-71 0 -119.5 48.5t-48.5 122.5t48 122t120 48zM697 258q-42 0 -68.5 -29.5t-26.5 -74.5q0 -47 26.5 -77t68.5 -30t69.5 30.5t27.5 76.5q0 45 -27.5 74.5t-69.5 29.5z" />
    <glyph glyph-name="ampersand" unicode="&#x26;" horiz-adv-x="742" 
d="M649 341l-4 -20q-21 -108 -95 -190l98 -134h-107l-52 70q-103 -78 -211 -78q-94 0 -150 54.5t-56 131.5q0 72 49 131t138 75l-10 14q-43 57 -43 126q0 73 53 126t140 53q81 0 127.5 -45.5t46.5 -110.5q0 -68 -50.5 -122.5t-137.5 -70.5l121 -161q47 60 61 131l4 20h78z
M290 522q0 -48 34 -94l21 -28q68 8 106 49q39 42 39 93q0 40 -24 65t-66 25q-47 0 -78.5 -30t-31.5 -80zM446 128l-148 197q-69 -14 -104 -51t-35 -86q0 -53 37 -85.5t97 -32.5q86 0 153 58z" />
    <glyph glyph-name="quotesingle" unicode="'" horiz-adv-x="233" 
d="M279 735l-85 -272h-57l39 272h103z" />
    <glyph glyph-name="parenleft" unicode="(" horiz-adv-x="396" 
d="M445 811l30 -63q-154 -79 -242 -230.5t-86 -314.5q0 -200 118 -325l-48 -52q-75 63 -116 168q-39 102 -39 216q0 182 101 343.5t282 257.5z" />
    <glyph glyph-name="parenright" unicode=")" horiz-adv-x="395" 
d="M-20 -177l-30 63q154 79 242 230.5t86 314.5q0 200 -118 325l48 52q76 -64 115 -168q40 -101 40 -216q0 -182 -101 -343.5t-282 -257.5z" />
    <glyph glyph-name="asterisk" unicode="*" horiz-adv-x="415" 
d="M159 670l94 -35l13 105h68l-19 -105l99 34l17 -63l-105 -31l52 -81l-60 -40l-45 86l-74 -87l-49 41l75 81l-94 31z" />
    <glyph glyph-name="plus" unicode="+" 
d="M528 349l-17 -75h-167l-41 -176h-78l41 176h-167l17 75h167l42 179h78l-42 -179h167z" />
    <glyph glyph-name="comma" unicode="," horiz-adv-x="237" 
d="M169 112l-23 -102q-18 -82 -65.5 -120t-127.5 -43v49q59 6 85.5 31t39.5 78h-47l25 107h113z" />
    <glyph glyph-name="hyphen" unicode="-" horiz-adv-x="378" 
d="M355 354l-16 -74h-287l16 74h287z" />
    <glyph glyph-name="period" unicode="." horiz-adv-x="220" 
d="M142 112l-27 -112h-108l26 112h109z" />
    <glyph glyph-name="slash" unicode="/" horiz-adv-x="451" 
d="M536 774l-503 -860h-76l503 860h76z" />
    <glyph glyph-name="zero" unicode="0" horiz-adv-x="579" 
d="M73 246q0 101 29 206q29 106 93 176q65 72 165 72q187 0 187 -262q0 -104 -30 -207q-28 -101 -94 -173q-65 -69 -164 -69q-186 0 -186 257zM463 442q0 181 -115 181q-68 0 -112 -63q-42 -61 -62 -151q-19 -86 -19 -165q0 -178 115 -178q68 0 112 62q44 64 62 150
q19 85 19 164z" />
    <glyph glyph-name="one" unicode="1" horiz-adv-x="406" 
d="M381 688l-160 -688h-83l138 587q-78 -55 -185 -70l19 79q106 19 195 92h76z" />
    <glyph glyph-name="two" unicode="2" horiz-adv-x="599" 
d="M146 75h371l-16 -75h-478l17 74l191 149l65 50q64 48 110 87q83 75 83 149q0 53 -35 83.5t-95 30.5q-70 0 -120 -41.5t-61 -113.5h-82q16 111 92 171.5t176 60.5q90 0 148.5 -49t58.5 -131q0 -62 -33 -115q-32 -50 -86 -97q-72 -60 -155 -121z" />
    <glyph glyph-name="three" unicode="3" horiz-adv-x="596" 
d="M416 348q49 -12 78.5 -50t29.5 -94q0 -94 -77 -154.5t-181 -60.5q-105 0 -159.5 57t-54.5 136q0 29 1 36h85q-2 -26 -2 -31q0 -55 34.5 -88t102.5 -33q67 0 115 36t48 97q0 52 -38 83t-113 31h-29l18 75h16q92 0 146.5 39t54.5 99q0 47 -34 72t-98 25q-63 0 -109 -33
q-47 -32 -55 -112h-86q11 109 85.5 165.5t170.5 56.5q90 0 151 -44q61 -43 61 -122q0 -65 -43 -113.5t-118 -72.5z" />
    <glyph glyph-name="four" unicode="4" horiz-adv-x="589" 
d="M388 0h-83l39 166h-333l16 75l410 447h110l-103 -447h121l-17 -77h-121zM442 592l-322 -351h240z" />
    <glyph glyph-name="five" unicode="5" horiz-adv-x="578" 
d="M272 613l-58 -203q50 43 123 43q88 0 139 -55q51 -56 51 -141q2 -105 -71 -188t-186 -80q-96 0 -157.5 57t-61.5 155q0 12 1 17h83q-1 -5 -1 -15q0 -64 36 -100.5t101 -36.5q78 0 124.5 52.5t46.5 126.5q0 63 -34.5 96.5t-91.5 33.5q-72 0 -135 -53h-71l109 366h348
l-16 -75h-279z" />
    <glyph glyph-name="six" unicode="6" horiz-adv-x="620" 
d="M611 510h-82q0 56 -36 84.5t-96 28.5q-92 0 -159 -72t-77 -200q69 102 199 102q90 0 148.5 -53t58.5 -151q0 -110 -72.5 -185t-184.5 -75q-111 0 -171 78.5t-60 221.5q-2 179 91.5 296t230.5 115q92 0 151 -52t59 -138zM171 209q0 -69 43 -106t106 -37q67 0 115.5 44
t48.5 122q0 68 -38 105.5t-100 37.5q-70 0 -122.5 -45.5t-52.5 -120.5z" />
    <glyph glyph-name="seven" unicode="7" horiz-adv-x="575" 
d="M620 688l-17 -75l-387 -613h-86l382 606h-421l19 82h510z" />
    <glyph glyph-name="eight" unicode="8" horiz-adv-x="583" 
d="M412 354q99 -38 99 -150q0 -98 -75 -156.5t-178 -58.5q-91 0 -154.5 47.5t-63.5 130.5q0 74 48 126.5t129 69.5q-98 42 -98 140q0 92 69 144.5t163 52.5q87 0 147 -44.5t60 -124.5q0 -65 -40 -114t-106 -63zM326 395q60 0 103 33q44 33 44 91q0 49 -36 76.5t-91 27.5
q-59 0 -100 -31q-42 -30 -42 -89q0 -52 34 -80t88 -28zM290 318q-67 0 -115.5 -37.5t-48.5 -100.5q0 -55 38.5 -84.5t99.5 -29.5q67 0 114 35q48 35 48 99q0 56 -38 87t-98 31z" />
    <glyph glyph-name="nine" unicode="9" horiz-adv-x="626" 
d="M57 179h82q6 -55 48 -84t103 -29q89 0 147.5 71t69.5 201q-69 -102 -199 -102q-90 0 -148.5 53t-58.5 151q0 110 72.5 185t184.5 75q111 0 171 -78.5t60 -221.5q0 -184 -84 -297.5t-219 -113.5q-92 0 -157.5 52t-71.5 138zM497 480q0 67 -44 105t-105 38
q-67 0 -115.5 -44t-48.5 -122q0 -68 38 -105.5t100 -37.5q70 0 122.5 45.5t52.5 120.5z" />
    <glyph glyph-name="colon" unicode=":" horiz-adv-x="230" 
d="M142 112l-27 -112h-108l26 112h109zM232 501l-27 -112h-108l26 112h109z" />
    <glyph glyph-name="semicolon" unicode=";" horiz-adv-x="277" 
d="M279 501l-27 -112h-108l26 112h109zM179 112l-23 -102q-18 -82 -65.5 -120t-127.5 -43v49q59 6 85.5 31t39.5 78h-47l25 107h113z" />
    <glyph glyph-name="less" unicode="&#x3c;" 
d="M554 472l-359 -151l290 -151l-39 -63l-341 181l17 78l405 177z" />
    <glyph glyph-name="equal" unicode="=" 
d="M544 419l-16 -71h-412l16 71h412zM511 275l-16 -71h-412l16 71h412z" />
    <glyph glyph-name="greater" unicode="&#x3e;" 
d="M192 551l341 -186l-16 -78l-413 -180l-29 71l370 156l-291 151z" />
    <glyph glyph-name="question" unicode="?" horiz-adv-x="534" 
d="M335 419l58 29q72 34 72 101q0 43 -30 64.5t-81 21.5q-122 0 -150 -120h-84q14 97 81 146q68 50 161 50q86 0 137.5 -40t51.5 -113q0 -61 -32.5 -100t-95.5 -73l-55 -30q-45 -24 -64 -52q-18 -28 -28 -71l-6 -24h-78l9 37q17 68 48.5 107.5t85.5 66.5zM264 112l-26 -112
h-108l26 112h108z" />
    <glyph glyph-name="at" unicode="@" horiz-adv-x="870" 
d="M856 387q2 -122 -72.5 -222.5t-163.5 -97.5q-45 0 -72.5 25t-29.5 67q-64 -92 -165 -92q-66 0 -101.5 42.5t-35.5 111.5q-2 101 70.5 187.5t173.5 83.5q104 0 130 -82l30 73h78l-97 -232q-21 -49 -21 -80q0 -44 42 -44q38 -2 77 37.5t63 101.5t23 122q0 104 -66 162.5
t-180 58.5q-110 2 -210.5 -56t-159.5 -155t-57 -203q0 -112 62.5 -175.5t170.5 -63.5q68 0 132 26l19 -55q-74 -37 -156 -37q-136 0 -216.5 81.5t-80.5 220.5q-3 124 66 236t186 178.5t247 64.5q144 0 229 -76.5t85 -207.5zM546 346q0 84 -82 84q-71 0 -120.5 -62.5
t-49.5 -135.5q0 -48 21 -74.5t59 -26.5q64 -3 119 70.5t53 144.5z" />
    <glyph glyph-name="A" unicode="A" horiz-adv-x="694" 
d="M541 0l-35 189h-319l-115 -189h-95l431 700h80l138 -700h-85zM234 267h258l-60 328z" />
    <glyph glyph-name="B" unicode="B" horiz-adv-x="681" 
d="M615 228q0 -97 -79 -162.5t-206 -65.5h-288l162 700h285q77 0 121.5 -41.5t44.5 -105.5q0 -61 -42 -112t-114 -67q116 -30 116 -146zM221 407h178q72 0 119 38.5t47 91.5q0 41 -31 63.5t-87 22.5h-176zM526 224q0 52 -29 80t-85 28h-208l-59 -255h197q86 0 135 39.5
t49 107.5z" />
    <glyph glyph-name="C" unicode="C" horiz-adv-x="754" 
d="M380 -18q-92 -2 -160.5 44.5t-102 120.5t-32.5 162q-1 75 25 148.5t73 132t118.5 94t155.5 33.5q116 0 191 -61t75 -168v-8h-87q0 71 -51.5 114t-133.5 43q-83 2 -148 -45.5t-97.5 -120.5t-31.5 -154q0 -107 56.5 -180.5t157.5 -73.5q81 0 143 47q62 48 75 136h90
q-18 -117 -107 -190.5t-209 -73.5z" />
    <glyph glyph-name="D" unicode="D" horiz-adv-x="714" 
d="M691 413q1 -74 -28.5 -148t-82.5 -134t-135.5 -96.5t-178.5 -34.5h-224l162 700h196q140 0 215.5 -81.5t75.5 -205.5zM602 410q0 91 -53 152q-52 61 -158 61h-119l-126 -546h122q75 -2 139.5 27.5t106.5 78t65.5 108.5t22.5 119z" />
    <glyph glyph-name="E" unicode="E" 
d="M204 700h440l-18 -77h-353l-54 -230h327l-18 -78h-326l-55 -238h372l-18 -77h-459z" />
    <glyph glyph-name="F" unicode="F" horiz-adv-x="581" 
d="M42 0l162 700h440l-18 -77h-354l-54 -230h328l-18 -78h-327l-73 -315h-86z" />
    <glyph glyph-name="G" unicode="G" horiz-adv-x="770" 
d="M458 637q-87 2 -154.5 -48.5t-100 -127t-31.5 -159.5q0 -102 51 -170.5t143 -68.5q82 0 148 56.5t86 156.5h-232l17 77h317l-81 -353h-82l19 84q-80 -102 -206 -102q-125 0 -197 91t-72 225q-1 76 25.5 151.5t74.5 135.5t122 97t160 35q118 0 192.5 -61t74.5 -167v-9h-87
q0 72 -51.5 114.5t-135.5 42.5z" />
    <glyph glyph-name="H" unicode="H" horiz-adv-x="722" 
d="M735 700l-161 -700h-86l72 314h-360l-72 -314h-86l162 700h85l-71 -309h361l71 309h85z" />
    <glyph glyph-name="I" unicode="I" horiz-adv-x="286" 
d="M47 0l161 700h86l-161 -700h-86z" />
    <glyph glyph-name="J" unicode="J" horiz-adv-x="513" 
d="M193 -18q-90 0 -134 47q-43 46 -43 115q0 26 5 48l13 54h84l-13 -55q-5 -25 -5 -39q0 -42 24.5 -66t72.5 -24q55 0 88.5 33t49.5 105l115 500h85l-118 -517q-46 -201 -224 -201z" />
    <glyph glyph-name="K" unicode="K" horiz-adv-x="648" 
d="M718 700l-337 -288l199 -412h-101l-168 353l-127 -109l-56 -244h-86l162 700h85l-75 -330l386 330h118z" />
    <glyph glyph-name="L" unicode="L" horiz-adv-x="551" 
d="M42 0l162 700h85l-143 -623h344l-18 -77h-430z" />
    <glyph glyph-name="M" unicode="M" horiz-adv-x="883" 
d="M895 700l-160 -700h-83l134 584l-365 -584h-66l-98 584l-133 -584h-81l160 700h117l97 -571l350 571h128z" />
    <glyph glyph-name="N" unicode="N" horiz-adv-x="718" 
d="M730 700l-160 -700h-88l-223 583l-133 -583h-83l160 700h101l215 -562l128 562h83z" />
    <glyph glyph-name="O" unicode="O" horiz-adv-x="787" 
d="M757 394q1 -115 -45.5 -209.5t-133 -149.5t-196.5 -53q-133 0 -215.5 90t-82.5 233q-1 115 45 209.5t133.5 149.5t197.5 53q133 0 215 -90t82 -233zM668 388q0 113 -57 179t-157 66q-126 0 -203.5 -92t-77.5 -230q0 -113 57 -179t157 -66q126 0 203.5 92t77.5 230z" />
    <glyph glyph-name="P" unicode="P" horiz-adv-x="618" 
d="M635 523q2 -92 -70.5 -163.5t-188.5 -69.5h-183l-67 -290h-84l162 700h248q86 0 134.5 -51t48.5 -126zM548 510q0 50 -30 81.5t-87 31.5h-161l-59 -256h179q71 0 114.5 43t43.5 100z" />
    <glyph glyph-name="Q" unicode="Q" horiz-adv-x="787" 
d="M569 29l68 -153h-88l-55 122q-49 -16 -112 -16q-133 0 -215.5 90t-82.5 233q-1 115 45 209.5t133.5 149.5t197.5 53q133 0 215 -90t82 -233q0 -121 -49.5 -217t-138.5 -148zM668 388q0 113 -57 179t-157 66q-126 0 -203.5 -92t-77.5 -230q0 -113 57 -179t157 -66
q39 0 72 9l-95 210h91l79 -178q64 41 99 115t35 166z" />
    <glyph glyph-name="R" unicode="R" horiz-adv-x="649" 
d="M353 298h-158l-69 -298h-84l162 700h239q92 0 142 -47.5t50 -125.5q0 -81 -54.5 -142.5t-143.5 -71.5l134 -313h-92zM548 512q0 52 -30 81.5t-90 29.5h-158l-58 -250h167q70 0 119.5 38.5t49.5 100.5z" />
    <glyph glyph-name="S" unicode="S" horiz-adv-x="612" 
d="M294 -18q-117 0 -181.5 68.5t-64.5 160.5l1 18h92q-2 -14 -2 -27q0 -57 43 -99.5t124 -42.5q71 0 113.5 33.5t42.5 91.5q0 37 -18 59q-16 22 -43 36q-23 12 -79 34q-68 27 -103 47q-94 52 -94 155q0 90 65 145.5t174 55.5q111 0 176 -56.5t68 -145.5h-88q-3 54 -44 89
t-113 35q-70 0 -111 -33t-41 -89q0 -34 17 -57q17 -21 45 -36t87 -38q66 -26 105 -47q88 -45 88 -146q0 -98 -75 -154.5t-184 -56.5z" />
    <glyph glyph-name="T" unicode="T" horiz-adv-x="617" 
d="M439 623l-143 -623h-86l143 623h-233l18 77h552l-18 -77h-233z" />
    <glyph glyph-name="U" unicode="U" horiz-adv-x="707" 
d="M333 -18q-108 0 -177 60t-69 162q0 36 8 70l98 426h86l-97 -424q-8 -34 -8 -66q0 -73 42.5 -110.5t116.5 -37.5q82 0 136 47t74 136l104 455h83l-104 -453q-30 -131 -106.5 -198t-186.5 -67z" />
    <glyph glyph-name="V" unicode="V" horiz-adv-x="642" 
d="M715 700l-373 -700h-88l-131 700h88l102 -595l310 595h92z" />
    <glyph glyph-name="W" unicode="W" horiz-adv-x="955" 
d="M1018 700l-311 -700h-84l-74 569l-273 -569h-84l-64 700h84l47 -575l269 575h84l74 -576l241 576h91z" />
    <glyph glyph-name="X" unicode="X" horiz-adv-x="665" 
d="M424 351l152 -351h-96l-118 284l-260 -284h-115l337 363l-146 337h99l108 -274l245 274h108z" />
    <glyph glyph-name="Y" unicode="Y" horiz-adv-x="604" 
d="M687 700l-331 -427l-61 -273h-86l61 273l-147 427h89l114 -350l262 350h99z" />
    <glyph glyph-name="Z" unicode="Z" horiz-adv-x="644" 
d="M20 0l18 77l497 546h-390l18 77h500l-17 -77l-501 -546h418l-17 -77h-526z" />
    <glyph glyph-name="bracketleft" unicode="[" horiz-adv-x="337" 
d="M415 787l-17 -72h-111l-182 -794h111l-17 -72h-197l216 938h197z" />
    <glyph glyph-name="backslash" unicode="\" horiz-adv-x="451" 
d="M338 -86h-76l-107 860h76z" />
    <glyph glyph-name="bracketright" unicode="]" horiz-adv-x="338" 
d="M-48 -152l17 72h111l182 794h-111l17 72h197l-216 -938h-197z" />
    <glyph glyph-name="asciicircum" unicode="^" horiz-adv-x="487" 
d="M195 436h-98l211 264h75l91 -264h-81l-59 175z" />
    <glyph glyph-name="underscore" unicode="_" horiz-adv-x="597" 
d="M2 -20h467l-18 -73h-466z" />
    <glyph glyph-name="grave" unicode="`" horiz-adv-x="168" 
d="M196 788l53 -182h-65l-66 157z" />
    <glyph glyph-name="a" unicode="a" horiz-adv-x="531" 
d="M478 329l-75 -329h-80l17 75q-27 -42 -72 -64t-95 -22q-66 0 -106.5 35.5t-40.5 102.5q0 66 42 106t118 51l135 20q84 14 84 72q0 66 -101 66q-109 0 -138 -87h-85q24 79 84.5 119.5t148.5 40.5q82 0 126 -34t44 -99q0 -24 -6 -53zM304 241l-72 -10q-49 -6 -88 -27
q-38 -20 -38 -72q0 -69 81 -69q65 0 115.5 42t67.5 115l9 38q-44 -13 -75 -17z" />
    <glyph glyph-name="b" unicode="b" horiz-adv-x="603" 
d="M559 299q1 -75 -30.5 -146t-94 -118.5t-138.5 -45.5q-59 0 -102.5 26t-62.5 72l-21 -87h-83l164 711h83l-61 -266q27 31 70 50.5t90 19.5q88 0 137 -62t49 -154zM476 286q0 68 -34 110.5t-98 42.5q-82 0 -133.5 -66.5t-51.5 -151.5q0 -71 34.5 -115t97.5 -44
q78 -2 132.5 68.5t52.5 155.5z" />
    <glyph glyph-name="c" unicode="c" horiz-adv-x="531" 
d="M388 181h81q-17 -88 -77 -140t-146 -52q-97 0 -147 62q-49 61 -49 159q-1 75 27.5 144t91 116t144.5 45q86 0 135.5 -46.5t49.5 -126.5l-1 -12h-81v12q0 48 -29 74.5t-78 26.5q-83 0 -130 -69.5t-47 -161.5q0 -69 31.5 -108.5t92.5 -39.5q100 0 132 117z" />
    <glyph glyph-name="d" unicode="d" horiz-adv-x="603" 
d="M629 711l-164 -711h-81l20 85q-21 -45 -66 -70.5t-102 -25.5q-93 0 -141 62q-47 62 -47 153q-1 76 32 147.5t96.5 118.5t141.5 45q59 0 102.5 -25t59.5 -65l66 286h83zM130 209q0 -65 32.5 -105t93.5 -40q82 -3 138.5 71.5t54.5 160.5q0 66 -34 107t-95 41
q-79 3 -135.5 -73t-54.5 -162z" />
    <glyph glyph-name="e" unicode="e" horiz-adv-x="542" 
d="M131 232v-16q0 -153 125 -153q94 0 129 84h81q-59 -158 -220 -158q-94 0 -145 60.5t-51 164.5q0 130 72.5 215.5t190.5 85.5q90 0 139 -52.5t49 -148.5q0 -46 -7 -82h-363zM142 299h275q2 18 2 22q0 59 -29 90.5t-83 31.5q-58 0 -101.5 -36.5t-63.5 -107.5z" />
    <glyph glyph-name="f" unicode="f" horiz-adv-x="338" 
d="M271 566l-14 -60h106l-17 -74h-105l-100 -432h-83l99 432h-81l17 74h81l17 74q15 71 54 101t107 30h71l-16 -74h-53q-39 0 -56.5 -16t-26.5 -55z" />
    <glyph glyph-name="g" unicode="g" horiz-adv-x="576" 
d="M562 506l-110 -485q-26 -115 -91 -169.5t-157 -54.5q-87 0 -144 48q-56 46 -58 130h78q5 -105 126 -105q84 0 117 45q33 43 45 102l15 70q-56 -66 -143 -66q-89 0 -140 58t-51 153q-2 111 68.5 198.5t180.5 84.5q58 0 101 -23.5t61 -66.5l19 81h83zM426 302q0 65 -33 104
t-94 39q-77 0 -123 -61t-46 -143q0 -69 33.5 -109t92.5 -40q75 0 122.5 65t47.5 145z" />
    <glyph glyph-name="h" unicode="h" horiz-adv-x="578" 
d="M531 377q0 -26 -4 -41l-78 -336h-83l76 327q4 16 4 36q0 37 -22.5 57t-63.5 20q-67 0 -119.5 -51.5t-72.5 -138.5l-58 -250h-83l164 711h83l-67 -291q71 95 173 95q68 0 109.5 -38t41.5 -100z" />
    <glyph glyph-name="i" unicode="i" horiz-adv-x="259" 
d="M164 620l23 100h93l-23 -100h-93zM29 0l117 506h83l-117 -506h-83z" />
    <glyph glyph-name="j" unicode="j" horiz-adv-x="258" 
d="M171 620l23 100h93l-23 -100h-93zM153 506h83l-133 -573q-28 -125 -159 -125h-47l17 74h27q39 0 57 16.5t27 53.5z" />
    <glyph glyph-name="k" unicode="k" horiz-adv-x="538" 
d="M575 506l-260 -217l150 -289h-89l-124 236l-108 -90l-34 -146h-83l164 711h83l-104 -451l286 246h119z" />
    <glyph glyph-name="l" unicode="l" horiz-adv-x="243" 
d="M27 0l164 711h83l-164 -711h-83z" />
    <glyph glyph-name="m" unicode="m" horiz-adv-x="848" 
d="M806 395q0 -14 -5 -39l-81 -356h-83l76 329q4 15 4 36q0 74 -78 74q-58 0 -100.5 -43t-60.5 -123l-63 -273h-83l75 329q4 15 4 35q0 75 -78 75q-57 0 -99 -43t-61 -122l-63 -274h-83l116 506h80l-19 -82q52 91 151 91q56 0 92 -30t38 -77q17 45 65.5 76t114.5 31
q67 0 104 -33.5t37 -86.5z" />
    <glyph glyph-name="n" unicode="n" horiz-adv-x="578" 
d="M531 377q0 -26 -4 -41l-78 -336h-83l76 327q4 16 4 36q0 37 -22.5 57t-63.5 20q-67 0 -119.5 -51.5t-72.5 -138.5l-58 -250h-83l117 506h82l-20 -84q73 93 174 93q68 0 109.5 -38t41.5 -100z" />
    <glyph glyph-name="o" unicode="o" horiz-adv-x="568" 
d="M523 296q0 -130 -78 -218.5t-194 -88.5q-92 0 -147 57.5t-55 161.5q0 130 78 218.5t194 88.5q92 0 147 -57.5t55 -161.5zM132 215q0 -73 35 -112.5t94 -39.5q77 0 128 65t51 160q0 74 -34 113t-93 39q-77 0 -129 -65.5t-52 -159.5z" />
    <glyph glyph-name="p" unicode="p" horiz-adv-x="598" 
d="M556 305q2 -74 -31.5 -145.5t-96.5 -118.5t-138 -45q-58 0 -99.5 26t-58.5 76l-67 -290h-83l161 698h83l-16 -68q59 77 164 77q86 0 134 -60t48 -150zM160 223q0 -67 35 -110t97 -43q77 0 129.5 67.5t52.5 152.5q0 67 -33 108t-96 41q-82 0 -133.5 -66.5t-51.5 -149.5z
" />
    <glyph glyph-name="q" unicode="q" horiz-adv-x="596" 
d="M496 506h83l-162 -698h-83l57 246q-49 -58 -138 -58q-92 0 -149 68t-57 161q-2 113 73 202.5t189 87.5q61 0 106.5 -25.5t61.5 -64.5zM446 280q0 68 -37 114q-38 47 -107 47q-76 0 -125 -62t-49 -144q0 -67 37 -114q38 -47 107 -47q79 0 126.5 62t47.5 144z" />
    <glyph glyph-name="r" unicode="r" horiz-adv-x="372" 
d="M171 263l-61 -263h-83l117 506h82l-21 -88q61 93 178 93h24l-19 -79h-23q-156 0 -194 -169z" />
    <glyph glyph-name="s" unicode="s" horiz-adv-x="489" 
d="M464 355h-83q-2 41 -30.5 63.5t-79.5 22.5q-47 0 -75.5 -19t-28.5 -54q3 -32 21 -44.5t79 -32.5l20 -7q75 -24 105.5 -50t33.5 -83q0 -74 -60 -118t-143 -44q-81 0 -139 44q-56 45 -61 125h86q4 -46 37 -71t83 -25q48 0 80 20.5t32 55.5q0 27 -19 42t-67 31
q-53 17 -91 34q-81 38 -81 121q0 73 55 110q55 39 137 39q86 0 137.5 -43t51.5 -117z" />
    <glyph glyph-name="t" unicode="t" horiz-adv-x="361" 
d="M84 92q0 16 5 41l69 299h-97l17 74h97l32 135l87 23l-36 -158h116l-17 -74h-116l-66 -287q-4 -15 -4 -31q0 -40 49 -40h65l-17 -74h-66q-58 0 -88 24t-30 68z" />
    <glyph glyph-name="u" unicode="u" horiz-adv-x="570" 
d="M553 506l-117 -506h-80l22 96q-26 -50 -70.5 -76t-100.5 -26q-72 0 -110 41t-38 105q0 19 5 44l74 322h83l-74 -322q-4 -17 -4 -32q0 -38 21.5 -61t61.5 -23q59 0 111.5 48.5t72.5 133.5l60 256h83z" />
    <glyph glyph-name="v" unicode="v" horiz-adv-x="529" 
d="M567 506l-304 -506h-84l-91 506h81l70 -414l239 414h89z" />
    <glyph glyph-name="w" unicode="w" horiz-adv-x="820" 
d="M853 506l-276 -506h-81l-49 376l-208 -376h-80l-66 506h86l44 -387l208 387h85l45 -387l206 387h86z" />
    <glyph glyph-name="x" unicode="x" horiz-adv-x="568" 
d="M340 258l140 -258h-93l-104 191l-185 -191h-111l252 258l-135 248h97l97 -186l175 186h107z" />
    <glyph glyph-name="y" unicode="y" horiz-adv-x="508" 
d="M461 506h90l-320 -554q-68 -116 -205 -116h-36l17 73h25q87 0 135 78l18 30l-102 489h84l77 -393z" />
    <glyph glyph-name="z" unicode="z" horiz-adv-x="505" 
d="M9 0l17 74l358 358h-282l16 74h389l-17 -74l-359 -358h298l-17 -74h-403z" />
    <glyph glyph-name="braceleft" unicode="{" horiz-adv-x="350" 
d="M453 808l-15 -63h-29q-44 0 -63 -11.5t-27 -44.5l-60 -262q-13 -54 -47.5 -85t-85.5 -38q37 -8 58 -32t21 -59q0 -14 -3 -29l-56 -242q-5 -25 -5 -33q0 -23 13 -30.5t50 -7.5h33l-15 -63h-72q-43 0 -68.5 24t-25.5 71q0 21 6 48l50 217q7 29 7 44q0 27 -18 40.5t-70 26.5
l15 65q68 11 93.5 32t40.5 82l56 247q14 60 48 81.5t93 21.5h76z" />
    <glyph glyph-name="bar" unicode="|" horiz-adv-x="256" 
d="M300 812l-214 -924h-85l213 924h86z" />
    <glyph glyph-name="braceright" unicode="}" horiz-adv-x="350" 
d="M-78 -193l15 63h29q44 0 63 11.5t27 44.5l60 262q13 54 47.5 85t85.5 38q-37 8 -58 32t-21 59q0 14 3 29l56 242q5 25 5 33q0 23 -13 30.5t-50 7.5h-33l15 63h72q43 0 68.5 -24t25.5 -71q0 -21 -6 -48l-50 -217q-7 -29 -7 -44q0 -27 18 -40.5t70 -26.5l-15 -65
q-68 -11 -93.5 -32t-40.5 -82l-56 -247q-14 -60 -48 -81.5t-93 -21.5h-76z" />
    <glyph glyph-name="asciitilde" unicode="~" 
d="M411 253q-25 0 -47 9t-59 32q-47 30 -70 30q-45 0 -54 -63h-71q4 67 37 108.5t81 41.5q38 0 102 -39q50 -32 77 -32q46 0 46 75h71q0 -76 -30.5 -119t-82.5 -43z" />
    <glyph glyph-name="exclamdown" unicode="&#xa1;" horiz-adv-x="298" 
d="M127 370l26 112h108l-26 -112h-108zM73 88l61 196h54l-29 -196l-71 -306h-85z" />
    <glyph glyph-name="cent" unicode="&#xa2;" horiz-adv-x="530" 
d="M487 327h-80q0 89 -68 108l-85 -370q60 0 93.5 31.5t37.5 88.5h83q-12 -92 -73 -144t-158 -52l-25 -107h-67l28 120q-60 24 -92.5 84t-32.5 140q-1 72 26.5 137.5t84.5 108.5t132 43l20 85h67l-21 -92q130 -33 130 -181zM191 83l83 359q-60 -10 -102 -66t-42 -147
q0 -109 61 -146z" />
    <glyph glyph-name="sterling" unicode="&#xa3;" horiz-adv-x="619" 
d="M493 156h76q-20 -84 -70 -125.5t-118 -41.5q-42 0 -74 15t-72 49q-52 -64 -117 -64q-49 0 -78.5 31t-29.5 75q0 46 32.5 82.5t84.5 36.5q40 0 96 -46q22 56 38 130l13 61h-114l14 61h114l28 123q34 157 169 157h85l-16 -68h-67q-71 0 -94 -98l-27 -114h147l-14 -61h-149
l-9 -44q-16 -76 -32 -123q-13 -37 -38 -85q61 -48 116 -48q84 0 106 97zM198 111q-32 35 -68 35q-21 0 -34.5 -12t-13.5 -33q0 -18 13 -31t32 -13q47 0 71 54z" />
    <glyph glyph-name="currency" unicode="&#xa4;" horiz-adv-x="597" 
d="M439 130l58 -100l-60 -40l-60 104q-42 -16 -89 -16q-61 0 -110 34l-128 -122l-50 48l130 125q-29 47 -29 99q0 105 80 172l-59 104l59 38l62 -107q38 16 88 16q61 0 108 -33l131 127l47 -43l-134 -128q35 -47 35 -109q0 -105 -79 -169zM440 293q0 50 -32.5 82.5
t-83.5 32.5q-64 0 -104 -38.5t-40 -99.5q0 -52 32 -84t83 -32q64 0 104.5 39t40.5 100z" />
    <glyph glyph-name="yen" unicode="&#xa5;" horiz-adv-x="646" 
d="M388 356l-7 -29h160l-15 -61h-159l-17 -79h158l-14 -61h-159l-28 -126h-84l28 126h-157l14 61h158l17 79h-157l15 61h156l7 29l-118 344h84l87 -275l212 275h95z" />
    <glyph glyph-name="brokenbar" unicode="&#xa6;" horiz-adv-x="256" 
d="M125 423l89 389h86l-90 -389h-85zM176 277l-90 -389h-85l90 389h85z" />
    <glyph glyph-name="section" unicode="&#xa7;" horiz-adv-x="539" 
d="M335 493q83 -15 122 -42.5t39 -80.5q0 -45 -27.5 -79t-74.5 -47q27 -16 39.5 -37t12.5 -56q0 -78 -57.5 -123.5t-142.5 -45.5q-88 0 -143 45.5t-60 121.5h84q1 -48 32.5 -74.5t82.5 -26.5q54 0 87.5 22.5t33.5 60.5q0 31 -24 46.5t-88 30.5q-34 9 -53.5 15t-41.5 17
t-33.5 23.5t-19.5 32t-9 46.5q0 46 26.5 75t82.5 47q-62 29 -62 102q0 68 54 108q56 41 137 41q88 0 137 -41t51 -108h-76q-1 39 -31.5 62t-79.5 23t-79.5 -22t-30.5 -60q3 -36 25.5 -49t86.5 -27zM415 346q0 45 -46 63q-45 18 -92 18q-46 0 -73.5 -20t-27.5 -54
q0 -38 37.5 -59t92.5 -21q52 0 80.5 20t28.5 53z" />
    <glyph glyph-name="dieresis" unicode="&#xa8;" horiz-adv-x="274" 
d="M191 704l-22 -98h-87l22 98h87zM377 704l-22 -98h-87l22 98h87z" />
    <glyph glyph-name="copyright" unicode="&#xa9;" horiz-adv-x="864" 
d="M826 350q3 -160 -103.5 -265.5t-263.5 -103.5q-157 -2 -263.5 103.5t-103.5 265.5q-3 160 103.5 265.5t263.5 103.5q157 2 263.5 -103.5t103.5 -265.5zM765 350q0 139 -87 226t-219 87t-219 -87t-87 -226t87 -226t219 -87t219 87t87 226zM571 298h65q0 -76 -50 -120
q-49 -43 -124 -43q-88 0 -140 62.5t-52 155.5t52.5 155t141.5 62q74 0 121.5 -42.5t47.5 -113.5h-66q-3 45 -31 69.5t-72 24.5q-58 0 -91.5 -42t-33.5 -111q0 -70 33 -113.5t92 -43.5q46 0 76.5 27.5t30.5 72.5z" />
    <glyph glyph-name="ordfeminine" unicode="&#xaa;" horiz-adv-x="444" 
d="M447 592q0 -8 -1.5 -17l-2.5 -15t-1 -7l-57 -253h-76l13 54q-45 -62 -128 -62q-48 0 -77.5 26.5t-29.5 76.5q0 53 34.5 86t96.5 43l80 13q38 6 54.5 16.5t16.5 36.5q0 45 -63 45q-74 0 -97 -63h-77q19 62 65.5 95t114.5 33q65 0 100 -28t35 -80zM343 471l6 22
q-25 -7 -58 -12l-40 -6q-86 -13 -86 -69q0 -47 56 -47q43 0 75 28.5t47 83.5z" />
    <glyph glyph-name="guillemotleft" unicode="&#xab;" horiz-adv-x="567" 
d="M154 282l99 -150l-61 -43l-133 204l216 194l47 -60zM369 282l99 -150l-61 -43l-133 204l216 194l47 -60z" />
    <glyph glyph-name="logicalnot" unicode="&#xac;" 
d="M133 274l17 75h345l-58 -251h-78l41 176h-267z" />
    <glyph glyph-name="registered" unicode="&#xae;" horiz-adv-x="551" 
d="M557 487q0 -98 -65.5 -163t-161.5 -65q-97 0 -162.5 65t-65.5 163q0 99 65.5 164.5t162.5 65.5t162 -65.5t65 -164.5zM516 487q0 84 -53 137.5t-133 53.5q-79 0 -133 -53.5t-54 -137.5q0 -82 54 -135.5t133 -53.5q80 0 133 53t53 136zM380 460l53 -83h-48l-49 77h-43v-77
h-42v231h91q40 0 62 -22.5t22 -56.5q0 -51 -46 -69zM293 568v-75h51q18 0 29 10t11 26q0 39 -40 39h-51z" />
    <glyph glyph-name="overscore" unicode="&#xaf;" horiz-adv-x="299" 
d="M96 669h299l-15 -63h-298z" />
    <glyph glyph-name="degree" unicode="&#xb0;" horiz-adv-x="461" 
d="M306 759q74 0 123 -48t49 -122t-49 -122.5t-123 -48.5q-71 0 -119.5 48.5t-48.5 122.5t48 122t120 48zM307 694q-42 0 -68.5 -29.5t-26.5 -74.5q0 -47 26.5 -77t68.5 -30t69.5 30.5t27.5 76.5q0 45 -27.5 74.5t-69.5 29.5z" />
    <glyph glyph-name="plusminus" unicode="&#xb1;" 
d="M488 178l-17 -75h-412l17 75h412zM566 509l-17 -75h-167l-41 -176h-78l41 176h-167l17 75h167l42 179h78l-42 -179h167z" />
    <glyph glyph-name="uni00B2" unicode="&#xb2;" horiz-adv-x="359" 
d="M166 340h194l-15 -69h-302l14 61l113 92l52 41q53 41 72 62.5t19 47.5q0 25 -16.5 39t-45.5 14q-34 0 -58.5 -21t-29.5 -56h-73q10 73 60 111t110 38q56 0 91.5 -32.5t35.5 -85.5q0 -32 -15 -58q-14 -25 -37 -46.5t-69 -56.5l-49 -39z" />
    <glyph glyph-name="uni00B3" unicode="&#xb3;" horiz-adv-x="359" 
d="M360 396q0 -57 -45.5 -94.5t-110.5 -37.5t-102.5 34.5t-37.5 91.5v16h75v-11q0 -30 18 -47t51 -17t54.5 17.5t21.5 46.5q0 51 -72 51h-34l16 69h26q43 0 69.5 19.5t26.5 49.5q0 22 -15.5 36.5t-42.5 14.5q-34 0 -56.5 -21t-26.5 -59h-74q5 68 51 106.5t113 38.5
q55 0 90.5 -29.5t35.5 -77.5q0 -42 -27 -73.5t-66 -37.5q62 -17 62 -86z" />
    <glyph glyph-name="acute" unicode="&#xb4;" horiz-adv-x="183" 
d="M235 773l54 -59l-129 -108h-79z" />
    <glyph glyph-name="paragraph" unicode="&#xb6;" horiz-adv-x="686" 
d="M346 700h205l-191 -831h-77l97 421h-52q-100 0 -155 55t-55 140q0 93 60 154t168 61zM430 -131l191 831h77l-191 -831h-77zM203 484q0 -55 36 -86t103 -31h56l59 256h-109q-69 0 -107 -39t-38 -100z" />
    <glyph glyph-name="middot" unicode="&#xb7;" horiz-adv-x="220" 
d="M209 402l-27 -112h-108l26 112h109z" />
    <glyph glyph-name="cedilla" unicode="&#xb8;" horiz-adv-x="207" 
d="M121 -113q0 -40 -34 -67.5t-85 -27.5q-66 0 -100 37l40 46q30 -30 65 -30q23 0 38.5 11.5t15.5 27.5q0 18 -21 29t-61 11l19 77h47l-11 -47q87 -5 87 -67z" />
    <glyph glyph-name="uni00B9" unicode="&#xb9;" horiz-adv-x="363" 
d="M245 340h102l-16 -69h-292l16 69h117l60 251q-52 -25 -105 -27l16 70q65 9 117 54h66z" />
    <glyph glyph-name="ordmasculine" unicode="&#xba;" horiz-adv-x="464" 
d="M106 464q0 100 60.5 168t149.5 68q73 0 116 -45t43 -127q0 -99 -60 -167.5t-149 -68.5q-73 0 -116.5 45t-43.5 127zM396 523q0 51 -23 78t-62 27q-53 0 -89.5 -47t-36.5 -113q0 -50 23.5 -76.5t63.5 -26.5q53 0 88.5 46t35.5 112z" />
    <glyph glyph-name="guillemotright" unicode="&#xbb;" horiz-adv-x="567" 
d="M214 294l-99 150l61 43l133 -204l-216 -194l-47 60zM429 294l-99 150l61 43l133 -204l-216 -194l-47 60z" />
    <glyph glyph-name="onequarter" unicode="&#xbc;" horiz-adv-x="1048" 
d="M920 700l-582 -700h-84l582 700h84zM310 339h102l-16 -69h-292l16 69h117l60 251q-52 -25 -105 -27l16 70q64 9 117 54h66zM842 -1h-72l19 82h-201l15 61l240 274h96l-63 -267h58l-16 -69h-57zM848 326l-159 -177h117z" />
    <glyph glyph-name="onehalf" unicode="&#xbd;" horiz-adv-x="1094" 
d="M766 68h194l-15 -69h-302l14 61l113 92l52 41q53 41 72 62.5t19 47.5q0 25 -16.5 39t-45.5 14q-34 0 -58.5 -21t-29.5 -56h-73q10 73 60 111t110 38q56 0 91.5 -32.5t35.5 -85.5q0 -32 -15 -58q-14 -25 -37 -46.5t-69 -56.5l-49 -39zM921 700l-582 -700h-84l582 700h84z
M310 339h102l-16 -69h-292l16 69h117l60 251q-52 -25 -105 -27l16 70q64 9 117 54h66z" />
    <glyph glyph-name="threequarters" unicode="&#xbe;" horiz-adv-x="1040" 
d="M431 396q0 -57 -45.5 -94.5t-110.5 -37.5t-102.5 34.5t-37.5 91.5v16h75v-11q0 -30 18 -47t51 -17t54.5 17.5t21.5 46.5q0 51 -72 51h-34l16 69h26q43 0 69.5 19.5t26.5 49.5q0 22 -15.5 36.5t-42.5 14.5q-34 0 -56.5 -21t-26.5 -59h-74q5 68 51 106.5t113 38.5
q55 0 90.5 -29.5t35.5 -77.5q0 -42 -27 -73.5t-66 -37.5q62 -17 62 -86zM909 700l-582 -700h-84l582 700h84zM834 -1h-72l19 82h-201l15 61l240 274h96l-63 -267h58l-16 -69h-57zM840 326l-159 -177h117z" />
    <glyph glyph-name="questiondown" unicode="&#xbf;" horiz-adv-x="534" 
d="M280 396l26 112h108l-26 -112h-108zM209 89l-58 -29q-72 -34 -72 -101q0 -43 30 -64.5t81 -21.5q122 0 150 120h84q-14 -97 -81 -146q-68 -50 -161 -50q-86 0 -137.5 40t-51.5 113q0 61 32.5 100t95.5 73l55 30q45 25 63 52q19 26 29 71l6 24h78l-9 -37
q-17 -68 -48.5 -107.5t-85.5 -66.5z" />
    <glyph glyph-name="Agrave" unicode="&#xc0;" horiz-adv-x="694" 
d="M541 0l-35 189h-319l-115 -189h-95l431 700h80l138 -700h-85zM234 267h258l-60 328zM422 950l55 -174h-65l-68 149z" />
    <glyph glyph-name="Aacute" unicode="&#xc1;" horiz-adv-x="694" 
d="M541 0l-35 189h-319l-115 -189h-95l431 700h80l138 -700h-85zM234 267h258l-60 328zM578 950l54 -59l-129 -115h-79z" />
    <glyph glyph-name="Acircumflex" unicode="&#xc2;" horiz-adv-x="694" 
d="M541 0l-35 189h-319l-115 -189h-95l431 700h80l138 -700h-85zM234 267h258l-60 328zM392 776h-85l156 152h55l85 -152h-76l-48 84z" />
    <glyph glyph-name="Atilde" unicode="&#xc3;" horiz-adv-x="694" 
d="M536 776q-29 0 -70 32q-34 25 -52 25q-28 0 -37 -51h-54q4 56 28 88.5t59 32.5q27 0 71 -33q31 -25 49 -25q30 0 38 54h52q0 -57 -24.5 -90t-59.5 -33zM541 0l-35 189h-319l-115 -189h-95l431 700h80l138 -700h-85zM234 267h258l-60 328z" />
    <glyph glyph-name="Adieresis" unicode="&#xc4;" horiz-adv-x="694" 
d="M433 874l-22 -98h-87l23 98h86zM619 874l-22 -98h-87l22 98h87zM541 0l-35 189h-319l-115 -189h-95l431 700h80l138 -700h-85zM234 267h258l-60 328z" />
    <glyph glyph-name="Aring" unicode="&#xc5;" horiz-adv-x="694" 
d="M469 950q41 0 67.5 -26t26.5 -68q0 -41 -26.5 -67.5t-67.5 -26.5q-39 0 -65.5 26.5t-26.5 67.5q0 42 26.5 68t65.5 26zM470 904q-20 0 -33 -13.5t-13 -34.5t13 -35t33 -14t32.5 14t12.5 35t-12.5 34.5t-32.5 13.5zM541 0l-35 189h-319l-115 -189h-95l431 700h80l138 -700
h-85zM234 267h258l-60 328z" />
    <glyph glyph-name="AE" unicode="&#xc6;" horiz-adv-x="988" 
d="M1014 623h-353l-54 -230h327l-18 -78h-326l-55 -238h372l-18 -77h-459l49 213h-251l-146 -213h-105l492 700h563zM281 290h216l77 334h-64z" />
    <glyph glyph-name="Ccedilla" unicode="&#xc7;" horiz-adv-x="754" 
d="M174 317q0 -107 56.5 -180.5t157.5 -73.5q81 0 143 47q62 48 75 136h90q-18 -117 -107 -190.5t-209 -73.5h-17l-7 -28q87 -5 87 -67q0 -40 -34 -67.5t-85 -27.5q-66 0 -100 37l40 46q30 -30 65 -30q23 0 38.5 11.5t15.5 27.5q0 18 -21 29t-61 11l16 64q-110 20 -171 110
t-61 211q-1 75 25 148.5t73 132t118.5 94t155.5 33.5q116 0 191 -61t75 -168v-8h-87q0 71 -51.5 114t-133.5 43q-83 2 -148 -45.5t-97.5 -120.5t-31.5 -154z" />
    <glyph glyph-name="Egrave" unicode="&#xc8;" 
d="M204 700h440l-18 -77h-353l-54 -230h327l-18 -78h-326l-55 -238h372l-18 -77h-459zM411 950l55 -174h-65l-68 149z" />
    <glyph glyph-name="Eacute" unicode="&#xc9;" 
d="M204 700h440l-18 -77h-353l-54 -230h327l-18 -78h-326l-55 -238h372l-18 -77h-459zM524 950l54 -59l-129 -115h-79z" />
    <glyph glyph-name="Ecircumflex" unicode="&#xca;" 
d="M204 700h440l-18 -77h-353l-54 -230h327l-18 -78h-326l-55 -238h372l-18 -77h-459zM369 776h-85l156 152h55l85 -152h-76l-48 84z" />
    <glyph glyph-name="Edieresis" unicode="&#xcb;" 
d="M204 700h440l-18 -77h-353l-54 -230h327l-18 -78h-326l-55 -238h372l-18 -77h-459zM406 874l-22 -98h-87l23 98h86zM592 874l-22 -98h-87l22 98h87z" />
    <glyph glyph-name="Igrave" unicode="&#xcc;" horiz-adv-x="286" 
d="M47 0l161 700h86l-161 -700h-86zM229 950l55 -174h-65l-68 149z" />
    <glyph glyph-name="Iacute" unicode="&#xcd;" horiz-adv-x="286" 
d="M47 0l161 700h86l-161 -700h-86zM378 950l54 -59l-129 -115h-79z" />
    <glyph glyph-name="Icircumflex" unicode="&#xce;" horiz-adv-x="286" 
d="M47 0l161 700h86l-161 -700h-86zM196 776h-85l156 152h55l85 -152h-76l-48 84z" />
    <glyph glyph-name="Idieresis" unicode="&#xcf;" horiz-adv-x="286" 
d="M47 0l161 700h86l-161 -700h-86zM246 874l-22 -98h-87l23 98h86zM432 874l-22 -98h-87l22 98h87z" />
    <glyph glyph-name="Eth" unicode="&#xd0;" horiz-adv-x="723" 
d="M700 413q1 -74 -28.5 -148t-82.5 -134t-135.5 -96.5t-178.5 -34.5h-224l76 329h-95l12 54h96l73 317h196q140 0 215.5 -81.5t75.5 -205.5zM611 410q0 91 -53 152q-52 61 -158 61h-119l-55 -240h172l-12 -54h-173l-58 -252h122q75 -2 139.5 27.5t106.5 78t65.5 108.5
t22.5 119z" />
    <glyph glyph-name="Ntilde" unicode="&#xd1;" horiz-adv-x="718" 
d="M730 700l-160 -700h-88l-223 583l-133 -583h-83l160 700h101l215 -562l128 562h83zM559 776q-29 0 -70 32q-34 25 -52 25q-28 0 -37 -51h-54q4 56 28 88.5t59 32.5q27 0 71 -33q31 -25 49 -25q31 0 38 54h52q0 -57 -24.5 -90t-59.5 -33z" />
    <glyph glyph-name="Ograve" unicode="&#xd2;" horiz-adv-x="787" 
d="M757 394q1 -115 -45.5 -209.5t-133 -149.5t-196.5 -53q-133 0 -215.5 90t-82.5 233q-1 115 45 209.5t133.5 149.5t197.5 53q133 0 215 -90t82 -233zM668 388q0 113 -57 179t-157 66q-126 0 -203.5 -92t-77.5 -230q0 -113 57 -179t157 -66q126 0 203.5 92t77.5 230z
M451 950l55 -174h-65l-68 149z" />
    <glyph glyph-name="Oacute" unicode="&#xd3;" horiz-adv-x="787" 
d="M757 394q1 -115 -45.5 -209.5t-133 -149.5t-196.5 -53q-133 0 -215.5 90t-82.5 233q-1 115 45 209.5t133.5 149.5t197.5 53q133 0 215 -90t82 -233zM668 388q0 113 -57 179t-157 66q-126 0 -203.5 -92t-77.5 -230q0 -113 57 -179t157 -66q126 0 203.5 92t77.5 230z
M597 950l54 -59l-129 -115h-79z" />
    <glyph glyph-name="Ocircumflex" unicode="&#xd4;" horiz-adv-x="787" 
d="M757 394q1 -115 -45.5 -209.5t-133 -149.5t-196.5 -53q-133 0 -215.5 90t-82.5 233q-1 115 45 209.5t133.5 149.5t197.5 53q133 0 215 -90t82 -233zM668 388q0 113 -57 179t-157 66q-126 0 -203.5 -92t-77.5 -230q0 -113 57 -179t157 -66q126 0 203.5 92t77.5 230z
M436 776h-85l156 152h55l85 -152h-76l-48 84z" />
    <glyph glyph-name="Otilde" unicode="&#xd5;" horiz-adv-x="787" 
d="M757 394q1 -115 -45.5 -209.5t-133 -149.5t-196.5 -53q-133 0 -215.5 90t-82.5 233q-1 115 45 209.5t133.5 149.5t197.5 53q133 0 215 -90t82 -233zM668 388q0 113 -57 179t-157 66q-126 0 -203.5 -92t-77.5 -230q0 -113 57 -179t157 -66q126 0 203.5 92t77.5 230z
M561 776q-29 0 -70 32q-34 25 -52 25q-28 0 -37 -51h-54q4 56 28 88.5t59 32.5q27 0 71 -33q31 -25 49 -25q31 0 38 54h52q0 -57 -24.5 -90t-59.5 -33z" />
    <glyph glyph-name="Odieresis" unicode="&#xd6;" horiz-adv-x="787" 
d="M757 394q1 -115 -45.5 -209.5t-133 -149.5t-196.5 -53q-133 0 -215.5 90t-82.5 233q-1 115 45 209.5t133.5 149.5t197.5 53q133 0 215 -90t82 -233zM668 388q0 113 -57 179t-157 66q-126 0 -203.5 -92t-77.5 -230q0 -113 57 -179t157 -66q126 0 203.5 92t77.5 230z
M486 874l-22 -98h-87l23 98h86zM672 874l-22 -98h-87l22 98h87z" />
    <glyph glyph-name="multiply" unicode="&#xd7;" 
d="M522 438l-157 -127l96 -125l-61 -50l-96 125l-156 -127l-42 54l157 127l-96 125l61 50l96 -125l156 127z" />
    <glyph glyph-name="Oslash" unicode="&#xd8;" horiz-adv-x="787" 
d="M757 394q1 -115 -45.5 -209.5t-133 -149.5t-196.5 -53q-90 0 -158 42l-52 -72l-51 38l53 73q-90 90 -90 242q-1 115 45 209.5t133.5 149.5t197.5 53q88 0 158 -42l53 74l51 -38l-55 -75q90 -90 90 -242zM227 136l339 468q-47 29 -112 29q-126 0 -203.5 -92t-77.5 -230
q0 -111 54 -175zM668 388q0 107 -53 175l-340 -469q47 -28 112 -28q126 0 203.5 92t77.5 230z" />
    <glyph glyph-name="Ugrave" unicode="&#xd9;" horiz-adv-x="707" 
d="M333 -18q-108 0 -177 60t-69 162q0 36 8 70l98 426h86l-97 -424q-8 -34 -8 -66q0 -73 42.5 -110.5t116.5 -37.5q82 0 136 47t74 136l104 455h83l-104 -453q-30 -131 -106.5 -198t-186.5 -67zM428 950l55 -174h-65l-68 149z" />
    <glyph glyph-name="Uacute" unicode="&#xda;" horiz-adv-x="707" 
d="M333 -18q-108 0 -177 60t-69 162q0 36 8 70l98 426h86l-97 -424q-8 -34 -8 -66q0 -73 42.5 -110.5t116.5 -37.5q82 0 136 47t74 136l104 455h83l-104 -453q-30 -131 -106.5 -198t-186.5 -67zM562 950l54 -59l-129 -115h-79z" />
    <glyph glyph-name="Ucircumflex" unicode="&#xdb;" horiz-adv-x="707" 
d="M333 -18q-108 0 -177 60t-69 162q0 36 8 70l98 426h86l-97 -424q-8 -34 -8 -66q0 -73 42.5 -110.5t116.5 -37.5q82 0 136 47t74 136l104 455h83l-104 -453q-30 -131 -106.5 -198t-186.5 -67zM395 776h-85l156 152h55l85 -152h-76l-48 84z" />
    <glyph glyph-name="Udieresis" unicode="&#xdc;" horiz-adv-x="707" 
d="M333 -18q-108 0 -177 60t-69 162q0 36 8 70l98 426h86l-97 -424q-8 -34 -8 -66q0 -73 42.5 -110.5t116.5 -37.5q82 0 136 47t74 136l104 455h83l-104 -453q-30 -131 -106.5 -198t-186.5 -67zM436 874l-22 -98h-87l23 98h86zM622 874l-22 -98h-87l22 98h87z" />
    <glyph glyph-name="Yacute" unicode="&#xdd;" horiz-adv-x="604" 
d="M687 700l-331 -427l-61 -273h-86l61 273l-147 427h89l114 -350l262 350h99zM492 950l54 -59l-129 -115h-79z" />
    <glyph glyph-name="Thorn" unicode="&#xde;" horiz-adv-x="610" 
d="M605 430q0 -93 -71.5 -163t-188.5 -70h-172l-46 -197h-84l163 711h84l-24 -105h156q87 0 135 -50t48 -126zM517 417q0 51 -30 82t-87 31h-151l-58 -257h168q71 0 114.5 43.5t43.5 100.5z" />
    <glyph glyph-name="germandbls" unicode="&#xdf;" horiz-adv-x="612" 
d="M550 199q0 -81 -63.5 -140t-172.5 -59h-74l15 66h48q72 0 117 37.5t45 97.5q0 109 -153 116l17 72q166 33 166 147q0 47 -30.5 73t-86.5 26q-121 0 -151 -129l-117 -506h-83l123 530q21 87 82.5 134t151.5 47q88 0 141.5 -44t53.5 -119q0 -76 -50 -126q-49 -49 -114 -67
q64 -14 99.5 -56.5t35.5 -99.5z" />
    <glyph glyph-name="agrave" unicode="&#xe0;" horiz-adv-x="531" 
d="M478 329l-75 -329h-80l17 75q-27 -42 -72 -64t-95 -22q-66 0 -106.5 35.5t-40.5 102.5q0 66 42 106t118 51l135 20q84 14 84 72q0 66 -101 66q-109 0 -138 -87h-85q24 79 84.5 119.5t148.5 40.5q82 0 126 -34t44 -99q0 -24 -6 -53zM304 241l-72 -10q-49 -6 -88 -27
q-38 -20 -38 -72q0 -69 81 -69q65 0 115.5 42t67.5 115l9 38q-44 -13 -75 -17zM329 788l53 -182h-65l-66 157z" />
    <glyph glyph-name="aacute" unicode="&#xe1;" horiz-adv-x="531" 
d="M478 329l-75 -329h-80l17 75q-27 -42 -72 -64t-95 -22q-66 0 -106.5 35.5t-40.5 102.5q0 66 42 106t118 51l135 20q84 14 84 72q0 66 -101 66q-109 0 -138 -87h-85q24 79 84.5 119.5t148.5 40.5q82 0 126 -34t44 -99q0 -24 -6 -53zM304 241l-72 -10q-49 -6 -88 -27
q-38 -20 -38 -72q0 -69 81 -69q65 0 115.5 42t67.5 115l9 38q-44 -13 -75 -17zM465 773l54 -59l-129 -108h-79z" />
    <glyph glyph-name="acircumflex" unicode="&#xe2;" horiz-adv-x="531" 
d="M478 329l-75 -329h-80l17 75q-27 -42 -72 -64t-95 -22q-66 0 -106.5 35.5t-40.5 102.5q0 66 42 106t118 51l135 20q84 14 84 72q0 66 -101 66q-109 0 -138 -87h-85q24 79 84.5 119.5t148.5 40.5q82 0 126 -34t44 -99q0 -24 -6 -53zM304 241l-72 -10q-49 -6 -88 -27
q-38 -20 -38 -72q0 -69 81 -69q65 0 115.5 42t67.5 115l9 38q-44 -13 -75 -17zM276 606h-85l156 153h55l85 -153h-76l-48 84z" />
    <glyph glyph-name="atilde" unicode="&#xe3;" horiz-adv-x="531" 
d="M478 329l-75 -329h-80l17 75q-27 -42 -72 -64t-95 -22q-66 0 -106.5 35.5t-40.5 102.5q0 66 42 106t118 51l135 20q84 14 84 72q0 66 -101 66q-109 0 -138 -87h-85q24 79 84.5 119.5t148.5 40.5q82 0 126 -34t44 -99q0 -24 -6 -53zM304 241l-72 -10q-49 -6 -88 -27
q-38 -20 -38 -72q0 -69 81 -69q65 0 115.5 42t67.5 115l9 38q-44 -13 -75 -17zM428 606q-27 0 -70 31q-32 26 -52 26q-28 0 -37 -51h-54q4 56 28 88.5t59 32.5q27 0 71 -33q31 -25 50 -25q30 0 37 55h52q0 -58 -24.5 -91t-59.5 -33z" />
    <glyph glyph-name="adieresis" unicode="&#xe4;" horiz-adv-x="531" 
d="M478 329l-75 -329h-80l17 75q-27 -42 -72 -64t-95 -22q-66 0 -106.5 35.5t-40.5 102.5q0 66 42 106t118 51l135 20q84 14 84 72q0 66 -101 66q-109 0 -138 -87h-85q24 79 84.5 119.5t148.5 40.5q82 0 126 -34t44 -99q0 -24 -6 -53zM304 241l-72 -10q-49 -6 -88 -27
q-38 -20 -38 -72q0 -69 81 -69q65 0 115.5 42t67.5 115l9 38q-44 -13 -75 -17zM321 704l-22 -98h-87l22 98h87zM507 704l-22 -98h-87l22 98h87z" />
    <glyph glyph-name="aring" unicode="&#xe5;" horiz-adv-x="531" 
d="M478 329l-75 -329h-80l17 75q-27 -42 -72 -64t-95 -22q-66 0 -106.5 35.5t-40.5 102.5q0 66 42 106t118 51l135 20q84 14 84 72q0 66 -101 66q-109 0 -138 -87h-85q24 79 84.5 119.5t148.5 40.5q82 0 126 -34t44 -99q0 -24 -6 -53zM304 241l-72 -10q-49 -6 -88 -27
q-38 -20 -38 -72q0 -69 81 -69q65 0 115.5 42t67.5 115l9 38q-44 -13 -75 -17zM369 794q42 0 68.5 -25.5t26.5 -67.5q0 -41 -27 -68t-68 -27q-40 0 -66.5 27t-26.5 68t26.5 67t66.5 26zM370 748q-20 0 -33 -13.5t-13 -33.5q0 -21 13 -35.5t33 -14.5t33 14.5t13 35.5
q0 20 -13 33.5t-33 13.5z" />
    <glyph glyph-name="ae" unicode="&#xe6;" horiz-adv-x="869" 
d="M821 232h-363v-16q0 -153 125 -153q95 0 129 84h81q-29 -77 -85.5 -117.5t-132.5 -40.5q-72 0 -121 35.5t-65 98.5q-74 -134 -215 -134q-66 0 -107 35.5t-41 102.5q0 131 160 156l135 21q84 14 84 72q0 66 -101 66q-109 0 -138 -87h-85q24 79 83.5 119.5t147.5 40.5
q117 0 155 -74q68 74 174 74q89 0 138 -52.5t49 -149.5q0 -45 -7 -81zM469 299h275q2 14 2 19q0 61 -29 93t-83 32q-58 0 -101.5 -36.5t-63.5 -107.5zM370 220l9 38q-23 -9 -75 -17l-72 -10q-49 -6 -88 -27q-38 -20 -38 -72q0 -69 81 -69q65 0 115.5 42t67.5 115z" />
    <glyph glyph-name="ccedilla" unicode="&#xe7;" horiz-adv-x="531" 
d="M497 330h-81v12q0 48 -29 74.5t-78 26.5q-83 0 -130 -69.5t-47 -161.5q0 -69 31.5 -108.5t92.5 -39.5q100 0 132 117h81q-17 -87 -73.5 -138t-140.5 -54l-8 -35q87 -5 87 -67q0 -40 -34 -67.5t-85 -27.5q-66 0 -100 37l40 46q30 -30 65 -30q24 0 39 11.5t15 27.5
q0 18 -21 29t-61 11l17 68q-77 12 -118 70.5t-41 147.5q-1 75 27.5 144t91 116t144.5 45q86 0 135.5 -46.5t49.5 -126.5z" />
    <glyph glyph-name="egrave" unicode="&#xe8;" horiz-adv-x="542" 
d="M131 232v-16q0 -153 125 -153q94 0 129 84h81q-59 -158 -220 -158q-94 0 -145 60.5t-51 164.5q0 130 72.5 215.5t190.5 85.5q90 0 139 -52.5t49 -148.5q0 -46 -7 -82h-363zM142 299h275q2 18 2 22q0 59 -29 90.5t-83 31.5q-58 0 -101.5 -36.5t-63.5 -107.5zM318 788
l53 -182h-65l-66 157z" />
    <glyph glyph-name="eacute" unicode="&#xe9;" horiz-adv-x="542" 
d="M131 232v-16q0 -153 125 -153q94 0 129 84h81q-59 -158 -220 -158q-94 0 -145 60.5t-51 164.5q0 130 72.5 215.5t190.5 85.5q90 0 139 -52.5t49 -148.5q0 -46 -7 -82h-363zM142 299h275q2 18 2 22q0 59 -29 90.5t-83 31.5q-58 0 -101.5 -36.5t-63.5 -107.5zM437 773
l54 -59l-129 -108h-79z" />
    <glyph glyph-name="ecircumflex" unicode="&#xea;" horiz-adv-x="542" 
d="M131 232v-16q0 -153 125 -153q94 0 129 84h81q-59 -158 -220 -158q-94 0 -145 60.5t-51 164.5q0 130 72.5 215.5t190.5 85.5q90 0 139 -52.5t49 -148.5q0 -46 -7 -82h-363zM142 299h275q2 18 2 22q0 59 -29 90.5t-83 31.5q-58 0 -101.5 -36.5t-63.5 -107.5zM290 606h-85
l156 153h55l85 -153h-76l-48 84z" />
    <glyph glyph-name="edieresis" unicode="&#xeb;" horiz-adv-x="542" 
d="M131 232v-16q0 -153 125 -153q94 0 129 84h81q-59 -158 -220 -158q-94 0 -145 60.5t-51 164.5q0 130 72.5 215.5t190.5 85.5q90 0 139 -52.5t49 -148.5q0 -46 -7 -82h-363zM142 299h275q2 18 2 22q0 59 -29 90.5t-83 31.5q-58 0 -101.5 -36.5t-63.5 -107.5zM311 704
l-22 -98h-87l22 98h87zM497 704l-22 -98h-87l22 98h87z" />
    <glyph glyph-name="igrave" unicode="&#xec;" horiz-adv-x="259" 
d="M30 0l116 506h83l-116 -506h-83zM177 788l53 -182h-65l-66 157z" />
    <glyph glyph-name="iacute" unicode="&#xed;" horiz-adv-x="259" 
d="M30 0l116 506h83l-116 -506h-83zM325 773l54 -59l-129 -108h-79z" />
    <glyph glyph-name="icircumflex" unicode="&#xee;" horiz-adv-x="259" 
d="M30 0l116 506h83l-116 -506h-83zM143 606h-85l156 153h55l85 -153h-76l-48 84z" />
    <glyph glyph-name="idieresis" unicode="&#xef;" horiz-adv-x="259" 
d="M30 0l116 506h83l-116 -506h-83zM190 704l-22 -98h-87l22 98h87zM376 704l-22 -98h-87l22 98h87z" />
    <glyph glyph-name="eth" unicode="&#xf0;" horiz-adv-x="587" 
d="M557 396q0 -188 -83 -297.5t-208 -109.5q-93 0 -155.5 60.5t-62.5 161.5q0 104 66 171.5t161 67.5q63 0 121 -32q58 -31 82 -90q6 45 6 82q0 105 -44 163l-86 -61l-32 46l75 52q-31 18 -71 18q-54 0 -90.5 -30.5t-41.5 -78.5h-82q16 85 72.5 133t145.5 48q84 0 136 -42
l75 52v-67l-37 -26q53 -77 53 -221zM432 229q0 70 -44 108q-43 37 -103 37q-65 0 -109.5 -41t-44.5 -115q0 -71 42 -113t100 -42q63 0 111 46t48 120z" />
    <glyph glyph-name="ntilde" unicode="&#xf1;" horiz-adv-x="578" 
d="M531 377q0 -26 -4 -41l-78 -336h-83l76 327q4 16 4 36q0 37 -22.5 57t-63.5 20q-67 0 -119.5 -51.5t-72.5 -138.5l-58 -250h-83l117 506h82l-20 -84q73 93 174 93q68 0 109.5 -38t41.5 -100zM456 606q-27 0 -70 31q-32 26 -52 26q-28 0 -37 -51h-54q4 56 28 88.5t59 32.5
q27 0 71 -33q31 -25 50 -25q30 0 37 55h52q0 -58 -24.5 -91t-59.5 -33z" />
    <glyph glyph-name="ograve" unicode="&#xf2;" horiz-adv-x="568" 
d="M523 296q0 -130 -78 -218.5t-194 -88.5q-92 0 -147 57.5t-55 161.5q0 130 78 218.5t194 88.5q92 0 147 -57.5t55 -161.5zM132 215q0 -73 35 -112.5t94 -39.5q77 0 128 65t51 160q0 74 -34 113t-93 39q-77 0 -129 -65.5t-52 -159.5zM319 788l53 -182h-65l-66 157z" />
    <glyph glyph-name="oacute" unicode="&#xf3;" horiz-adv-x="568" 
d="M523 296q0 -130 -78 -218.5t-194 -88.5q-92 0 -147 57.5t-55 161.5q0 130 78 218.5t194 88.5q92 0 147 -57.5t55 -161.5zM132 215q0 -73 35 -112.5t94 -39.5q77 0 128 65t51 160q0 74 -34 113t-93 39q-77 0 -129 -65.5t-52 -159.5zM451 773l54 -59l-129 -108h-79z" />
    <glyph glyph-name="ocircumflex" unicode="&#xf4;" horiz-adv-x="568" 
d="M523 296q0 -130 -78 -218.5t-194 -88.5q-92 0 -147 57.5t-55 161.5q0 130 78 218.5t194 88.5q92 0 147 -57.5t55 -161.5zM132 215q0 -73 35 -112.5t94 -39.5q77 0 128 65t51 160q0 74 -34 113t-93 39q-77 0 -129 -65.5t-52 -159.5zM273 606h-85l156 153h55l85 -153h-76
l-48 84z" />
    <glyph glyph-name="otilde" unicode="&#xf5;" horiz-adv-x="568" 
d="M523 296q0 -130 -78 -218.5t-194 -88.5q-92 0 -147 57.5t-55 161.5q0 130 78 218.5t194 88.5q92 0 147 -57.5t55 -161.5zM132 215q0 -73 35 -112.5t94 -39.5q77 0 128 65t51 160q0 74 -34 113t-93 39q-77 0 -129 -65.5t-52 -159.5zM433 606q-27 0 -70 31q-32 26 -52 26
q-28 0 -37 -51h-54q4 56 28 88.5t59 32.5q27 0 71 -33q31 -25 50 -25q30 0 37 55h52q0 -58 -24.5 -91t-59.5 -33z" />
    <glyph glyph-name="odieresis" unicode="&#xf6;" horiz-adv-x="568" 
d="M523 296q0 -130 -78 -218.5t-194 -88.5q-92 0 -147 57.5t-55 161.5q0 130 78 218.5t194 88.5q92 0 147 -57.5t55 -161.5zM132 215q0 -73 35 -112.5t94 -39.5q77 0 128 65t51 160q0 74 -34 113t-93 39q-77 0 -129 -65.5t-52 -159.5zM325 704l-22 -98h-87l22 98h87z
M511 704l-22 -98h-87l22 98h87z" />
    <glyph glyph-name="divide" unicode="&#xf7;" 
d="M408 524l-24 -101h-98l24 101h98zM528 349l-17 -75h-412l17 75h412zM338 200l-24 -101h-98l24 101h98z" />
    <glyph glyph-name="oslash" unicode="&#xf8;" horiz-adv-x="568" 
d="M525 516l-49 -67q47 -59 47 -153q0 -130 -78 -218.5t-194 -88.5q-55 0 -94 19l-51 -70l-51 38l50 69q-56 59 -56 163q0 130 78 218.5t194 88.5q60 0 107 -26l46 64zM157 116l223 307q-29 17 -67 17q-77 0 -129 -65.5t-52 -159.5q0 -62 25 -99zM423 375l-218 -301
q28 -11 56 -11q77 0 128 65t51 160q0 50 -17 87z" />
    <glyph glyph-name="ugrave" unicode="&#xf9;" horiz-adv-x="570" 
d="M553 506l-117 -506h-80l22 96q-26 -50 -70.5 -76t-100.5 -26q-72 0 -110 41t-38 105q0 19 5 44l74 322h83l-74 -322q-4 -17 -4 -32q0 -38 21.5 -61t61.5 -23q59 0 111.5 48.5t72.5 133.5l60 256h83zM316 788l53 -182h-65l-66 157z" />
    <glyph glyph-name="uacute" unicode="&#xfa;" horiz-adv-x="570" 
d="M553 506l-117 -506h-80l22 96q-26 -50 -70.5 -76t-100.5 -26q-72 0 -110 41t-38 105q0 19 5 44l74 322h83l-74 -322q-4 -17 -4 -32q0 -38 21.5 -61t61.5 -23q59 0 111.5 48.5t72.5 133.5l60 256h83zM433 773l54 -59l-129 -108h-79z" />
    <glyph glyph-name="ucircumflex" unicode="&#xfb;" horiz-adv-x="570" 
d="M553 506l-117 -506h-80l22 96q-26 -50 -70.5 -76t-100.5 -26q-72 0 -110 41t-38 105q0 19 5 44l74 322h83l-74 -322q-4 -17 -4 -32q0 -38 21.5 -61t61.5 -23q59 0 111.5 48.5t72.5 133.5l60 256h83zM291 606h-85l156 153h55l85 -153h-76l-48 84z" />
    <glyph glyph-name="udieresis" unicode="&#xfc;" horiz-adv-x="570" 
d="M553 506l-117 -506h-80l22 96q-26 -50 -70.5 -76t-100.5 -26q-72 0 -110 41t-38 105q0 19 5 44l74 322h83l-74 -322q-4 -17 -4 -32q0 -38 21.5 -61t61.5 -23q59 0 111.5 48.5t72.5 133.5l60 256h83zM330 704l-22 -98h-87l22 98h87zM516 704l-22 -98h-87l22 98h87z" />
    <glyph glyph-name="yacute" unicode="&#xfd;" horiz-adv-x="508" 
d="M461 506h90l-320 -554q-68 -116 -205 -116h-36l17 73h25q87 0 135 78l18 30l-102 489h84l77 -393zM407 773l54 -59l-129 -108h-79z" />
    <glyph glyph-name="thorn" unicode="&#xfe;" horiz-adv-x="598" 
d="M556 305q2 -74 -31.5 -145.5t-96.5 -118.5t-138 -45q-122 0 -158 101l-66 -289h-84l161 698h1l47 205h83l-62 -271q60 75 162 75q86 0 134 -60t48 -150zM474 290q0 67 -33 108t-96 41q-82 0 -133.5 -66.5t-51.5 -149.5q0 -67 35 -110t97 -43q77 0 129.5 67.5t52.5 152.5z
" />
    <glyph glyph-name="ydieresis" unicode="&#xff;" horiz-adv-x="508" 
d="M461 506h90l-320 -554q-68 -116 -205 -116h-36l17 73h25q87 0 135 78l18 30l-102 489h84l77 -393zM311 704l-22 -98h-87l22 98h87zM497 704l-22 -98h-87l22 98h87z" />
    <glyph glyph-name="Amacron" unicode="&#x100;" horiz-adv-x="694" 
d="M541 0l-35 189h-319l-115 -189h-95l431 700h80l138 -700h-85zM234 267h258l-60 328zM332 839h298l-14 -63h-298z" />
    <glyph glyph-name="amacron" unicode="&#x101;" horiz-adv-x="531" 
d="M478 329l-75 -329h-80l17 75q-27 -42 -72 -64t-95 -22q-66 0 -106.5 35.5t-40.5 102.5q0 66 42 106t118 51l135 20q84 14 84 72q0 66 -101 66q-109 0 -138 -87h-85q24 79 84.5 119.5t148.5 40.5q82 0 126 -34t44 -99q0 -24 -6 -53zM304 241l-72 -10q-49 -6 -88 -27
q-38 -20 -38 -72q0 -69 81 -69q65 0 115.5 42t67.5 115l9 38q-44 -13 -75 -17zM220 669h299l-15 -63h-298z" />
    <glyph glyph-name="Abreve" unicode="&#x102;" horiz-adv-x="694" 
d="M541 0l-35 189h-319l-115 -189h-95l431 700h80l138 -700h-85zM234 267h258l-60 328zM596 900q0 -46 -33.5 -85t-94.5 -39q-44 0 -66.5 21t-22.5 55q0 33 18 62h51q-13 -25 -13 -45q0 -43 44 -43q29 0 45.5 23.5t16.5 55.5v9h54q1 -3 1 -14z" />
    <glyph glyph-name="abreve" unicode="&#x103;" horiz-adv-x="531" 
d="M478 329l-75 -329h-80l17 75q-27 -42 -72 -64t-95 -22q-66 0 -106.5 35.5t-40.5 102.5q0 66 42 106t118 51l135 20q84 14 84 72q0 66 -101 66q-109 0 -138 -87h-85q24 79 84.5 119.5t148.5 40.5q82 0 126 -34t44 -99q0 -24 -6 -53zM304 241l-72 -10q-49 -6 -88 -27
q-38 -20 -38 -72q0 -69 81 -69q65 0 115.5 42t67.5 115l9 38q-44 -13 -75 -17zM480 731q0 -47 -33.5 -86t-94.5 -39q-44 0 -66.5 21t-22.5 55q0 31 17 63h52q-13 -25 -13 -46q0 -43 44 -43q28 0 45 24t17 55v10h54q1 -3 1 -14z" />
    <glyph glyph-name="Aogonek" unicode="&#x104;" horiz-adv-x="710" 
d="M616 -108l-13 -59q-48 5 -79.5 31.5t-31.5 62.5q0 50 48 77l-34 185h-319l-115 -189h-95l431 700h80l138 -700h-39q-35 -23 -35 -58q0 -21 18 -34t46 -16zM234 267h258l-60 328z" />
    <glyph glyph-name="aogonek" unicode="&#x105;" horiz-adv-x="531" 
d="M340 -58q0 -21 18 -34t46 -16l-13 -59q-48 5 -79.5 31.5t-31.5 62.5q0 46 43 74l17 74q-27 -42 -72 -64t-95 -22q-66 0 -106.5 35.5t-40.5 102.5q0 66 42 106t118 51l135 20q84 14 84 72q0 66 -101 66q-109 0 -138 -87h-85q24 79 84.5 119.5t148.5 40.5q82 0 126 -34
t44 -99q0 -24 -6 -53l-75 -329h-28q-35 -23 -35 -58zM370 220l9 38q-44 -13 -75 -17l-72 -10q-49 -6 -88 -27q-38 -20 -38 -72q0 -69 81 -69q65 0 115.5 42t67.5 115z" />
    <glyph glyph-name="Cacute" unicode="&#x106;" horiz-adv-x="754" 
d="M380 -18q-92 -2 -160.5 44.5t-102 120.5t-32.5 162q-1 75 25 148.5t73 132t118.5 94t155.5 33.5q116 0 191 -61t75 -168v-8h-87q0 71 -51.5 114t-133.5 43q-83 2 -148 -45.5t-97.5 -120.5t-31.5 -154q0 -107 56.5 -180.5t157.5 -73.5q81 0 143 47q62 48 75 136h90
q-18 -117 -107 -190.5t-209 -73.5zM598 950l54 -59l-129 -115h-79z" />
    <glyph glyph-name="cacute" unicode="&#x107;" horiz-adv-x="531" 
d="M388 181h81q-17 -88 -77 -140t-146 -52q-97 0 -147 62q-49 61 -49 159q-1 75 27.5 144t91 116t144.5 45q86 0 135.5 -46.5t49.5 -126.5l-1 -12h-81v12q0 48 -29 74.5t-78 26.5q-83 0 -130 -69.5t-47 -161.5q0 -69 31.5 -108.5t92.5 -39.5q100 0 132 117zM448 773l54 -59
l-129 -108h-79z" />
    <glyph glyph-name="Ccircumflex" unicode="&#x108;" horiz-adv-x="754" 
d="M380 -18q-92 -2 -160.5 44.5t-102 120.5t-32.5 162q-1 75 25 148.5t73 132t118.5 94t155.5 33.5q116 0 191 -61t75 -168v-8h-87q0 71 -51.5 114t-133.5 43q-83 2 -148 -45.5t-97.5 -120.5t-31.5 -154q0 -107 56.5 -180.5t157.5 -73.5q81 0 143 47q62 48 75 136h90
q-18 -117 -107 -190.5t-209 -73.5zM422 776h-85l156 152h55l85 -152h-76l-48 84z" />
    <glyph glyph-name="ccircumflex" unicode="&#x109;" horiz-adv-x="531" 
d="M388 181h81q-17 -88 -77 -140t-146 -52q-97 0 -147 62q-49 61 -49 159q-1 75 27.5 144t91 116t144.5 45q86 0 135.5 -46.5t49.5 -126.5l-1 -12h-81v12q0 48 -29 74.5t-78 26.5q-83 0 -130 -69.5t-47 -161.5q0 -69 31.5 -108.5t92.5 -39.5q100 0 132 117zM276 606h-85
l156 153h55l85 -153h-76l-48 84z" />
    <glyph glyph-name="Cdotaccent" unicode="&#x10a;" horiz-adv-x="754" 
d="M380 -18q-92 -2 -160.5 44.5t-102 120.5t-32.5 162q-1 75 25 148.5t73 132t118.5 94t155.5 33.5q116 0 191 -61t75 -168v-8h-87q0 71 -51.5 114t-133.5 43q-83 2 -148 -45.5t-97.5 -120.5t-31.5 -154q0 -107 56.5 -180.5t157.5 -73.5q81 0 143 47q62 48 75 136h90
q-18 -117 -107 -190.5t-209 -73.5zM564 888l-27 -112h-108l26 112h109z" />
    <glyph glyph-name="cdotaccent" unicode="&#x10b;" horiz-adv-x="531" 
d="M388 181h81q-17 -88 -77 -140t-146 -52q-97 0 -147 62q-49 61 -49 159q-1 75 27.5 144t91 116t144.5 45q86 0 135.5 -46.5t49.5 -126.5l-1 -12h-81v12q0 48 -29 74.5t-78 26.5q-83 0 -130 -69.5t-47 -161.5q0 -69 31.5 -108.5t92.5 -39.5q100 0 132 117zM419 718
l-27 -112h-108l26 112h109z" />
    <glyph glyph-name="Ccaron" unicode="&#x10c;" horiz-adv-x="754" 
d="M380 -18q-92 -2 -160.5 44.5t-102 120.5t-32.5 162q-1 75 25 148.5t73 132t118.5 94t155.5 33.5q116 0 191 -61t75 -168v-8h-87q0 71 -51.5 114t-133.5 43q-83 2 -148 -45.5t-97.5 -120.5t-31.5 -154q0 -107 56.5 -180.5t157.5 -73.5q81 0 143 47q62 48 75 136h90
q-18 -117 -107 -190.5t-209 -73.5zM577 928h89l-156 -152h-55l-85 152h73l47 -84z" />
    <glyph glyph-name="ccaron" unicode="&#x10d;" horiz-adv-x="531" 
d="M388 181h81q-17 -88 -77 -140t-146 -52q-97 0 -147 62q-49 61 -49 159q-1 75 27.5 144t91 116t144.5 45q86 0 135.5 -46.5t49.5 -126.5l-1 -12h-81v12q0 48 -29 74.5t-78 26.5q-83 0 -130 -69.5t-47 -161.5q0 -69 31.5 -108.5t92.5 -39.5q100 0 132 117zM434 759h88
l-155 -153h-55l-85 153h72l48 -84z" />
    <glyph glyph-name="Dcaron" unicode="&#x10e;" horiz-adv-x="714" 
d="M691 413q1 -74 -28.5 -148t-82.5 -134t-135.5 -96.5t-178.5 -34.5h-224l162 700h196q140 0 215.5 -81.5t75.5 -205.5zM602 410q0 91 -53 152q-52 61 -158 61h-119l-126 -546h122q75 -2 139.5 27.5t106.5 78t65.5 108.5t22.5 119zM497 928h89l-156 -152h-55l-85 152h73
l47 -84z" />
    <glyph glyph-name="dcaron" unicode="&#x10f;" horiz-adv-x="775" 
d="M629 711l-164 -711h-81l20 85q-21 -45 -66 -70.5t-102 -25.5q-93 0 -141 62q-47 62 -47 153q-1 76 32 147.5t96.5 118.5t141.5 45q59 0 102.5 -25t59.5 -65l66 286h83zM130 209q0 -65 32.5 -105t93.5 -40q82 -3 138.5 71.5t54.5 160.5q0 66 -34 107t-95 41
q-79 3 -135.5 -73t-54.5 -162zM847 717l-23 -102q-18 -82 -65.5 -120t-127.5 -43v49q59 6 85.5 31t39.5 78h-47l25 107h113z" />
    <glyph glyph-name="Dcroat" unicode="&#x110;" horiz-adv-x="723" 
d="M700 413q1 -74 -28.5 -148t-82.5 -134t-135.5 -96.5t-178.5 -34.5h-224l76 329h-95l12 54h96l73 317h196q140 0 215.5 -81.5t75.5 -205.5zM611 410q0 91 -53 152q-52 61 -158 61h-119l-55 -240h172l-12 -54h-173l-58 -252h122q75 -2 139.5 27.5t106.5 78t65.5 108.5
t22.5 119z" />
    <glyph glyph-name="dslash" unicode="&#x111;" horiz-adv-x="621" 
d="M673 632l-12 -54h-63l-133 -578h-81l20 85q-21 -45 -66 -70.5t-102 -25.5q-93 0 -141 62q-47 62 -47 153q-1 76 32 147.5t96.5 118.5t141.5 45q59 0 102.5 -25t59.5 -65l35 153h-133l12 54h134l18 79h83l-18 -79h62zM449 296q0 66 -34 107t-95 41q-79 3 -135.5 -73
t-54.5 -162q0 -65 32.5 -105t93.5 -40q82 -3 138.5 71.5t54.5 160.5z" />
    <glyph glyph-name="Emacron" unicode="&#x112;" 
d="M204 700h440l-18 -77h-353l-54 -230h327l-18 -78h-326l-55 -238h372l-18 -77h-459zM299 839h298l-14 -63h-298z" />
    <glyph glyph-name="emacron" unicode="&#x113;" horiz-adv-x="542" 
d="M131 232v-16q0 -153 125 -153q94 0 129 84h81q-59 -158 -220 -158q-94 0 -145 60.5t-51 164.5q0 130 72.5 215.5t190.5 85.5q90 0 139 -52.5t49 -148.5q0 -46 -7 -82h-363zM142 299h275q2 18 2 22q0 59 -29 90.5t-83 31.5q-58 0 -101.5 -36.5t-63.5 -107.5zM215 669h299
l-15 -63h-298z" />
    <glyph glyph-name="Ebreve" unicode="&#x114;" 
d="M204 700h440l-18 -77h-353l-54 -230h327l-18 -78h-326l-55 -238h372l-18 -77h-459zM549 900q0 -46 -33.5 -85t-94.5 -39q-44 0 -66.5 21t-22.5 55q0 33 18 62h51q-13 -25 -13 -45q0 -43 44 -43q29 0 45.5 23.5t16.5 55.5v9h54q1 -3 1 -14z" />
    <glyph glyph-name="ebreve" unicode="&#x115;" horiz-adv-x="542" 
d="M131 232v-16q0 -153 125 -153q94 0 129 84h81q-59 -158 -220 -158q-94 0 -145 60.5t-51 164.5q0 130 72.5 215.5t190.5 85.5q90 0 139 -52.5t49 -148.5q0 -46 -7 -82h-363zM142 299h275q2 18 2 22q0 59 -29 90.5t-83 31.5q-58 0 -101.5 -36.5t-63.5 -107.5zM475 731
q0 -47 -33.5 -86t-94.5 -39q-44 0 -66.5 21t-22.5 55q0 31 17 63h52q-13 -25 -13 -46q0 -43 44 -43q28 0 45 24t17 55v10h54q1 -3 1 -14z" />
    <glyph glyph-name="Edotaccent" unicode="&#x116;" 
d="M204 700h440l-18 -77h-353l-54 -230h327l-18 -78h-326l-55 -238h372l-18 -77h-459zM519 888l-27 -112h-108l26 112h109z" />
    <glyph glyph-name="edotaccent" unicode="&#x117;" horiz-adv-x="542" 
d="M131 232v-16q0 -153 125 -153q94 0 129 84h81q-59 -158 -220 -158q-94 0 -145 60.5t-51 164.5q0 130 72.5 215.5t190.5 85.5q90 0 139 -52.5t49 -148.5q0 -46 -7 -82h-363zM142 299h275q2 18 2 22q0 59 -29 90.5t-83 31.5q-58 0 -101.5 -36.5t-63.5 -107.5zM429 718
l-27 -112h-108l26 112h109z" />
    <glyph glyph-name="Eogonek" unicode="&#x118;" 
d="M626 623h-353l-54 -230h327l-18 -78h-326l-55 -238h372l-18 -77h-54q-35 -23 -35 -58q0 -21 18 -34t46 -16l-13 -59q-48 5 -79.5 31.5t-31.5 62.5q0 45 41 73h-351l162 700h440z" />
    <glyph glyph-name="eogonek" unicode="&#x119;" horiz-adv-x="542" 
d="M494 232h-363v-16q0 -153 125 -153q94 0 129 84h81q-59 -158 -220 -158q-21 0 -27 1q-22 -19 -22 -48q0 -21 18 -34t46 -16l-13 -59q-48 5 -79.5 31.5t-31.5 62.5q0 44 40 72q-62 20 -94.5 76t-32.5 139q0 130 72.5 215.5t190.5 85.5q90 0 139 -52.5t49 -148.5
q0 -46 -7 -82zM142 299h275q2 18 2 22q0 59 -29 90.5t-83 31.5q-58 0 -101.5 -36.5t-63.5 -107.5z" />
    <glyph glyph-name="Ecaron" unicode="&#x11a;" 
d="M204 700h440l-18 -77h-353l-54 -230h327l-18 -78h-326l-55 -238h372l-18 -77h-459zM535 928h89l-156 -152h-55l-85 152h73l47 -84z" />
    <glyph glyph-name="ecaron" unicode="&#x11b;" horiz-adv-x="542" 
d="M131 232v-16q0 -153 125 -153q94 0 129 84h81q-59 -158 -220 -158q-94 0 -145 60.5t-51 164.5q0 130 72.5 215.5t190.5 85.5q90 0 139 -52.5t49 -148.5q0 -46 -7 -82h-363zM142 299h275q2 18 2 22q0 59 -29 90.5t-83 31.5q-58 0 -101.5 -36.5t-63.5 -107.5zM453 759h88
l-155 -153h-55l-85 153h72l48 -84z" />
    <glyph glyph-name="Gcircumflex" unicode="&#x11c;" horiz-adv-x="770" 
d="M458 637q-87 2 -154.5 -48.5t-100 -127t-31.5 -159.5q0 -102 51 -170.5t143 -68.5q82 0 148 56.5t86 156.5h-232l17 77h317l-81 -353h-82l19 84q-80 -102 -206 -102q-125 0 -197 91t-72 225q-1 76 25.5 151.5t74.5 135.5t122 97t160 35q118 0 192.5 -61t74.5 -167v-9h-87
q0 72 -51.5 114.5t-135.5 42.5zM423 776h-85l156 152h55l85 -152h-76l-48 84z" />
    <glyph glyph-name="gcircumflex" unicode="&#x11d;" horiz-adv-x="573" 
d="M562 506l-110 -485q-26 -115 -91 -169.5t-157 -54.5q-87 0 -144 48q-56 46 -58 130h78q5 -105 126 -105q84 0 117 45q33 43 45 102l15 70q-56 -66 -143 -66q-89 0 -140 58t-51 153q-2 111 68.5 198.5t180.5 84.5q58 0 101 -23.5t61 -66.5l19 81h83zM426 302q0 65 -33 104
t-94 39q-77 0 -123 -61t-46 -143q0 -69 33.5 -109t92.5 -40q75 0 122.5 65t47.5 145zM276 606h-85l156 153h55l85 -153h-76l-48 84z" />
    <glyph glyph-name="Gbreve" unicode="&#x11e;" horiz-adv-x="770" 
d="M458 637q-87 2 -154.5 -48.5t-100 -127t-31.5 -159.5q0 -102 51 -170.5t143 -68.5q82 0 148 56.5t86 156.5h-232l17 77h317l-81 -353h-82l19 84q-80 -102 -206 -102q-125 0 -197 91t-72 225q-1 76 25.5 151.5t74.5 135.5t122 97t160 35q118 0 192.5 -61t74.5 -167v-9h-87
q0 72 -51.5 114.5t-135.5 42.5zM637 900q0 -46 -33.5 -85t-94.5 -39q-44 0 -66.5 21t-22.5 55q0 33 18 62h51q-13 -25 -13 -45q0 -43 44 -43q29 0 45.5 23.5t16.5 55.5v9h54q1 -3 1 -14z" />
    <glyph glyph-name="gbreve" unicode="&#x11f;" horiz-adv-x="573" 
d="M562 506l-110 -485q-26 -115 -91 -169.5t-157 -54.5q-87 0 -144 48q-56 46 -58 130h78q5 -105 126 -105q84 0 117 45q33 43 45 102l15 70q-56 -66 -143 -66q-89 0 -140 58t-51 153q-2 111 68.5 198.5t180.5 84.5q58 0 101 -23.5t61 -66.5l19 81h83zM426 302q0 65 -33 104
t-94 39q-77 0 -123 -61t-46 -143q0 -69 33.5 -109t92.5 -40q75 0 122.5 65t47.5 145zM473 731q0 -47 -33.5 -86t-94.5 -39q-44 0 -66.5 21t-22.5 55q0 31 17 63h52q-13 -25 -13 -46q0 -43 44 -43q28 0 45 24t17 55v10h54q1 -3 1 -14z" />
    <glyph glyph-name="Gdotaccent" unicode="&#x120;" horiz-adv-x="770" 
d="M458 637q-87 2 -154.5 -48.5t-100 -127t-31.5 -159.5q0 -102 51 -170.5t143 -68.5q82 0 148 56.5t86 156.5h-232l17 77h317l-81 -353h-82l19 84q-80 -102 -206 -102q-125 0 -197 91t-72 225q-1 76 25.5 151.5t74.5 135.5t122 97t160 35q118 0 192.5 -61t74.5 -167v-9h-87
q0 72 -51.5 114.5t-135.5 42.5zM567 888l-27 -112h-108l26 112h109z" />
    <glyph glyph-name="gdotaccent" unicode="&#x121;" horiz-adv-x="573" 
d="M562 506l-110 -485q-26 -115 -91 -169.5t-157 -54.5q-87 0 -144 48q-56 46 -58 130h78q5 -105 126 -105q84 0 117 45q33 43 45 102l15 70q-56 -66 -143 -66q-89 0 -140 58t-51 153q-2 111 68.5 198.5t180.5 84.5q58 0 101 -23.5t61 -66.5l19 81h83zM426 302q0 65 -33 104
t-94 39q-77 0 -123 -61t-46 -143q0 -69 33.5 -109t92.5 -40q75 0 122.5 65t47.5 145zM416 718l-27 -112h-108l26 112h109z" />
    <glyph glyph-name="uni0122" unicode="&#x122;" horiz-adv-x="770" 
d="M458 637q-87 2 -154.5 -48.5t-100 -127t-31.5 -159.5q0 -102 51 -170.5t143 -68.5q82 0 148 56.5t86 156.5h-232l17 77h317l-81 -353h-82l19 84q-80 -102 -206 -102q-125 0 -197 91t-72 225q-1 76 25.5 151.5t74.5 135.5t122 97t160 35q118 0 192.5 -61t74.5 -167v-9h-87
q0 72 -51.5 114.5t-135.5 42.5zM372 -75l-23 -102q-18 -82 -65.5 -120t-127.5 -43v49q59 6 85.5 31t39.5 78h-47l25 107h113z" />
    <glyph glyph-name="uni0123" unicode="&#x123;" horiz-adv-x="576" 
d="M270 584l23 102q18 82 65.5 120t127.5 43v-49q-59 -6 -85.5 -31t-39.5 -78h47l-25 -107h-113zM562 506l-110 -485q-26 -115 -91 -169.5t-157 -54.5q-87 0 -144 48q-56 46 -58 130h78q5 -105 126 -105q84 0 117 45q33 43 45 102l15 70q-56 -66 -143 -66q-89 0 -140 58
t-51 153q-2 111 68.5 198.5t180.5 84.5q58 0 101 -23.5t61 -66.5l19 81h83zM426 302q0 65 -33 104t-94 39q-77 0 -123 -61t-46 -143q0 -69 33.5 -109t92.5 -40q75 0 122.5 65t47.5 145z" />
    <glyph glyph-name="Hcircumflex" unicode="&#x124;" horiz-adv-x="722" 
d="M735 700l-161 -700h-86l72 314h-360l-72 -314h-86l162 700h85l-71 -309h361l71 309h85zM394 776h-85l156 152h55l85 -152h-76l-48 84z" />
    <glyph glyph-name="hcircumflex" unicode="&#x125;" horiz-adv-x="578" 
d="M531 377q0 -26 -4 -41l-78 -336h-83l76 327q4 16 4 36q0 37 -22.5 57t-63.5 20q-67 0 -119.5 -51.5t-72.5 -138.5l-58 -250h-83l164 711h83l-67 -291q71 95 173 95q68 0 109.5 -38t41.5 -100zM345 606h-85l156 153h55l85 -153h-76l-48 84z" />
    <glyph glyph-name="Hbar" unicode="&#x126;" horiz-adv-x="765" 
d="M806 542l-11 -49h-91l-113 -493h-86l72 314h-360l-72 -314h-86l114 493h-91l10 49h92l37 158h85l-36 -158h361l36 158h85l-36 -158h90zM596 391l23 102h-361l-23 -102h361z" />
    <glyph glyph-name="hbar" unicode="&#x127;" horiz-adv-x="609" 
d="M562 377q0 -26 -4 -41l-78 -336h-83l76 327q4 16 4 36q0 37 -22.5 57t-63.5 20q-67 0 -119.5 -51.5t-72.5 -138.5l-58 -250h-83l133 578h-81l13 54h81l18 79h83l-18 -79h105l-12 -54h-106l-36 -158q71 95 173 95q68 0 109.5 -38t41.5 -100z" />
    <glyph glyph-name="Itilde" unicode="&#x128;" horiz-adv-x="286" 
d="M47 0l161 700h86l-161 -700h-86zM346 776q-29 0 -70 32q-34 25 -52 25q-28 0 -37 -51h-54q4 56 28 88.5t59 32.5q27 0 71 -33q31 -25 49 -25q30 0 38 54h52q0 -57 -24.5 -90t-59.5 -33z" />
    <glyph glyph-name="itilde" unicode="&#x129;" horiz-adv-x="259" 
d="M30 0l116 506h83l-116 -506h-83zM281 606q-27 0 -70 31q-32 26 -52 26q-28 0 -37 -51h-54q4 56 28 88.5t59 32.5q27 0 71 -33q31 -25 50 -25q30 0 37 55h52q0 -58 -24.5 -91t-59.5 -33z" />
    <glyph glyph-name="Imacron" unicode="&#x12a;" horiz-adv-x="286" 
d="M47 0l161 700h86l-161 -700h-86zM130 839h298l-14 -63h-298z" />
    <glyph glyph-name="imacron" unicode="&#x12b;" horiz-adv-x="259" 
d="M30 0l116 506h83l-116 -506h-83zM70 669h299l-15 -63h-298z" />
    <glyph glyph-name="Iogonek" unicode="&#x12e;" horiz-adv-x="286" 
d="M61 -58q0 -21 18 -34t46 -16l-13 -59q-48 5 -79.5 31.5t-31.5 62.5q0 48 47 77l160 696h86l-161 -700h-37q-35 -23 -35 -58z" />
    <glyph glyph-name="iogonek" unicode="&#x12f;" horiz-adv-x="259" 
d="M187 720h93l-23 -100h-93zM29 1l117 505h83l-117 -506h-31q-35 -23 -35 -58q0 -21 18 -34t46 -16l-13 -59q-48 5 -79.5 31.5t-31.5 62.5q0 46 43 74z" />
    <glyph glyph-name="Idot" unicode="&#x130;" horiz-adv-x="286" 
d="M47 0l161 700h86l-161 -700h-86zM350 888l-27 -112h-108l26 112h109z" />
    <glyph glyph-name="dotlessi" unicode="&#x131;" horiz-adv-x="259" 
d="M30 0l116 506h83l-116 -506h-83z" />
    <glyph glyph-name="IJ" unicode="&#x132;" horiz-adv-x="799" 
d="M47 0l161 700h86l-161 -700h-86zM479 -18q-90 0 -134 47q-43 46 -43 115q0 26 5 48l13 54h84l-13 -55q-5 -25 -5 -39q0 -42 24.5 -66t72.5 -24q55 0 88.5 33t49.5 105l115 500h85l-118 -517q-46 -201 -224 -201z" />
    <glyph glyph-name="ij" unicode="&#x133;" horiz-adv-x="517" 
d="M164 620l23 100h93l-23 -100h-93zM29 0l117 506h83l-117 -506h-83zM430 620l23 100h93l-23 -100h-93zM412 506h83l-133 -573q-28 -125 -159 -125h-47l17 74h27q39 0 57 16.5t27 53.5z" />
    <glyph glyph-name="Jcircumflex" unicode="&#x134;" horiz-adv-x="513" 
d="M193 -18q-90 0 -134 47q-43 46 -43 115q0 26 5 48l13 54h84l-13 -55q-5 -25 -5 -39q0 -42 24.5 -66t72.5 -24q55 0 88.5 33t49.5 105l115 500h85l-118 -517q-46 -201 -224 -201zM441 776h-85l156 152h55l85 -152h-76l-48 84z" />
    <glyph glyph-name="jcircumflex" unicode="&#x135;" horiz-adv-x="258" 
d="M147 606h-85l156 153h55l85 -153h-76l-48 84zM-56 -192h-47l17 74h27q39 0 57 16.5t27 53.5l128 554h83l-133 -573q-28 -125 -159 -125z" />
    <glyph glyph-name="uni0136" unicode="&#x136;" horiz-adv-x="648" 
d="M718 700l-337 -288l199 -412h-101l-168 353l-127 -109l-56 -244h-86l162 700h85l-75 -330l386 330h118zM327 -75l-23 -102q-18 -82 -65.5 -120t-127.5 -43v49q59 6 85.5 31t39.5 78h-47l25 107h113z" />
    <glyph glyph-name="uni0137" unicode="&#x137;" horiz-adv-x="538" 
d="M575 506l-260 -217l150 -289h-89l-124 236l-108 -90l-34 -146h-83l164 711h83l-104 -451l286 246h119zM257 -75l-23 -102q-18 -82 -65.5 -120t-127.5 -43v49q59 6 85.5 31t39.5 78h-47l25 107h113z" />
    <glyph glyph-name="kgreenlandic" unicode="&#x138;" horiz-adv-x="538" 
d="M575 506l-260 -217l150 -289h-89l-124 236l-108 -90l-34 -146h-83l117 506h83l-57 -246l286 246h119z" />
    <glyph glyph-name="Lacute" unicode="&#x139;" horiz-adv-x="551" 
d="M42 0l162 700h85l-143 -623h344l-18 -77h-430zM385 950l54 -59l-129 -115h-79z" />
    <glyph glyph-name="lacute" unicode="&#x13a;" horiz-adv-x="243" 
d="M27 0l164 711h83l-164 -711h-83zM361 950l54 -59l-129 -115h-79z" />
    <glyph glyph-name="uni013B" unicode="&#x13b;" horiz-adv-x="551" 
d="M42 0l162 700h85l-143 -623h344l-18 -77h-430zM299 -75l-23 -102q-18 -82 -65.5 -120t-127.5 -43v49q59 6 85.5 31t39.5 78h-47l25 107h113z" />
    <glyph glyph-name="uni013C" unicode="&#x13c;" horiz-adv-x="236" 
d="M27 0l164 711h83l-164 -711h-83zM103 -75l-23 -102q-18 -82 -65.5 -120t-127.5 -43v49q59 6 85.5 31t39.5 78h-47l25 107h113z" />
    <glyph glyph-name="Lcaron" unicode="&#x13d;" horiz-adv-x="584" 
d="M42 0l162 700h85l-143 -623h344l-18 -77h-430zM658 717l-23 -102q-18 -82 -65.5 -120t-127.5 -43v49q59 6 85.5 31t39.5 78h-47l25 107h113z" />
    <glyph glyph-name="lcaron" unicode="&#x13e;" horiz-adv-x="430" 
d="M27 0l164 711h83l-164 -711h-83zM502 717l-23 -102q-18 -82 -65.5 -120t-127.5 -43v49q59 6 85.5 31t39.5 78h-47l25 107h113z" />
    <glyph glyph-name="Ldot" unicode="&#x13f;" horiz-adv-x="551" 
d="M42 0l162 700h85l-143 -623h344l-18 -77h-430zM588 506l-27 -112h-108l26 112h109z" />
    <glyph glyph-name="ldot" unicode="&#x140;" horiz-adv-x="420" 
d="M27 0l164 711h83l-164 -711h-83zM443 506l-27 -112h-108l26 112h109z" />
    <glyph glyph-name="Lslash" unicode="&#x141;" horiz-adv-x="582" 
d="M177 77h344l-18 -77h-430l61 263l-116 -61v63l132 69l85 366h85l-72 -315l161 85v-62l-177 -94z" />
    <glyph glyph-name="lslash" unicode="&#x142;" horiz-adv-x="257" 
d="M282 425v-62l-105 -48l-73 -315h-83l63 274l-72 -33v62l88 40l85 368h83l-75 -326z" />
    <glyph glyph-name="Nacute" unicode="&#x143;" horiz-adv-x="718" 
d="M730 700l-160 -700h-88l-223 583l-133 -583h-83l160 700h101l215 -562l128 562h83zM569 950l54 -59l-129 -115h-79z" />
    <glyph glyph-name="nacute" unicode="&#x144;" horiz-adv-x="578" 
d="M531 377q0 -26 -4 -41l-78 -336h-83l76 327q4 16 4 36q0 37 -22.5 57t-63.5 20q-67 0 -119.5 -51.5t-72.5 -138.5l-58 -250h-83l117 506h82l-20 -84q73 93 174 93q68 0 109.5 -38t41.5 -100zM500 773l54 -59l-129 -108h-79z" />
    <glyph glyph-name="uni0145" unicode="&#x145;" horiz-adv-x="718" 
d="M730 700l-160 -700h-88l-223 583l-133 -583h-83l160 700h101l215 -562l128 562h83zM341 -75l-23 -102q-18 -82 -65.5 -120t-127.5 -43v49q59 6 85.5 31t39.5 78h-47l25 107h113z" />
    <glyph glyph-name="uni0146" unicode="&#x146;" horiz-adv-x="578" 
d="M531 377q0 -26 -4 -41l-78 -336h-83l76 327q4 16 4 36q0 37 -22.5 57t-63.5 20q-67 0 -119.5 -51.5t-72.5 -138.5l-58 -250h-83l117 506h82l-20 -84q73 93 174 93q68 0 109.5 -38t41.5 -100zM273 -75l-23 -102q-18 -82 -65.5 -120t-127.5 -43v49q59 6 85.5 31t39.5 78
h-47l25 107h113z" />
    <glyph glyph-name="Ncaron" unicode="&#x147;" horiz-adv-x="718" 
d="M730 700l-160 -700h-88l-223 583l-133 -583h-83l160 700h101l215 -562l128 562h83zM566 928h89l-156 -152h-55l-85 152h73l47 -84z" />
    <glyph glyph-name="ncaron" unicode="&#x148;" horiz-adv-x="578" 
d="M531 377q0 -26 -4 -41l-78 -336h-83l76 327q4 16 4 36q0 37 -22.5 57t-63.5 20q-67 0 -119.5 -51.5t-72.5 -138.5l-58 -250h-83l117 506h82l-20 -84q73 93 174 93q68 0 109.5 -38t41.5 -100zM481 759h88l-155 -153h-55l-85 153h72l48 -84z" />
    <glyph glyph-name="napostrophe" unicode="&#x149;" horiz-adv-x="754" 
d="M707 377q0 -26 -4 -41l-78 -336h-83l76 327q4 16 4 36q0 37 -22.5 57t-63.5 20q-67 0 -119.5 -51.5t-72.5 -138.5l-58 -250h-83l117 506h82l-20 -84q73 93 174 93q68 0 109.5 -38t41.5 -100zM308 717l-23 -102q-18 -82 -65.5 -120t-127.5 -43v49q59 6 85.5 31t39.5 78
h-47l25 107h113z" />
    <glyph glyph-name="Eng" unicode="&#x14a;" horiz-adv-x="718" 
d="M730 700l-176 -767q-28 -125 -159 -125h-47l17 74h27q40 0 58.5 16t25.5 53l18 82l-237 538l-131 -571h-83l160 700h92l227 -550l125 550h83z" />
    <glyph glyph-name="eng" unicode="&#x14b;" horiz-adv-x="587" 
d="M531 377q0 -26 -4 -41l-94 -403q-28 -125 -159 -125h-47l17 74h27q39 0 57 16.5t27 53.5l87 375q4 16 4 36q0 37 -22.5 57t-63.5 20q-67 0 -119.5 -51.5t-72.5 -138.5l-58 -250h-83l117 506h82l-20 -84q73 93 174 93q68 0 109.5 -38t41.5 -100z" />
    <glyph glyph-name="Omacron" unicode="&#x14c;" horiz-adv-x="787" 
d="M757 394q1 -115 -45.5 -209.5t-133 -149.5t-196.5 -53q-133 0 -215.5 90t-82.5 233q-1 115 45 209.5t133.5 149.5t197.5 53q133 0 215 -90t82 -233zM668 388q0 113 -57 179t-157 66q-126 0 -203.5 -92t-77.5 -230q0 -113 57 -179t157 -66q126 0 203.5 92t77.5 230z
M356 839h298l-14 -63h-298z" />
    <glyph glyph-name="omacron" unicode="&#x14d;" horiz-adv-x="568" 
d="M523 296q0 -130 -78 -218.5t-194 -88.5q-92 0 -147 57.5t-55 161.5q0 130 78 218.5t194 88.5q92 0 147 -57.5t55 -161.5zM132 215q0 -73 35 -112.5t94 -39.5q77 0 128 65t51 160q0 74 -34 113t-93 39q-77 0 -129 -65.5t-52 -159.5zM207 669h299l-15 -63h-298z" />
    <glyph glyph-name="Obreve" unicode="&#x14e;" horiz-adv-x="787" 
d="M757 394q1 -115 -45.5 -209.5t-133 -149.5t-196.5 -53q-133 0 -215.5 90t-82.5 233q-1 115 45 209.5t133.5 149.5t197.5 53q133 0 215 -90t82 -233zM668 388q0 113 -57 179t-157 66q-126 0 -203.5 -92t-77.5 -230q0 -113 57 -179t157 -66q126 0 203.5 92t77.5 230z
M633 900q0 -46 -33.5 -85t-94.5 -39q-44 0 -66.5 21t-22.5 55q0 33 18 62h51q-13 -25 -13 -45q0 -43 44 -43q29 0 45.5 23.5t16.5 55.5v9h54q1 -3 1 -14z" />
    <glyph glyph-name="obreve" unicode="&#x14f;" horiz-adv-x="568" 
d="M523 296q0 -130 -78 -218.5t-194 -88.5q-92 0 -147 57.5t-55 161.5q0 130 78 218.5t194 88.5q92 0 147 -57.5t55 -161.5zM132 215q0 -73 35 -112.5t94 -39.5q77 0 128 65t51 160q0 74 -34 113t-93 39q-77 0 -129 -65.5t-52 -159.5zM481 731q0 -47 -33.5 -86t-94.5 -39
q-44 0 -66.5 21t-22.5 55q0 31 17 63h52q-13 -25 -13 -46q0 -43 44 -43q28 0 45 24t17 55v10h54q1 -3 1 -14z" />
    <glyph glyph-name="Ohungarumlaut" unicode="&#x150;" horiz-adv-x="787" 
d="M757 394q1 -115 -45.5 -209.5t-133 -149.5t-196.5 -53q-133 0 -215.5 90t-82.5 233q-1 115 45 209.5t133.5 149.5t197.5 53q133 0 215 -90t82 -233zM668 388q0 113 -57 179t-157 66q-126 0 -203.5 -92t-77.5 -230q0 -113 57 -179t157 -66q126 0 203.5 92t77.5 230z
M382 776l75 150h75l-86 -150h-64zM504 776l74 150h75l-86 -150h-63z" />
    <glyph glyph-name="ohungarumlaut" unicode="&#x151;" horiz-adv-x="568" 
d="M523 296q0 -130 -78 -218.5t-194 -88.5q-92 0 -147 57.5t-55 161.5q0 130 78 218.5t194 88.5q92 0 147 -57.5t55 -161.5zM132 215q0 -73 35 -112.5t94 -39.5q77 0 128 65t51 160q0 74 -34 113t-93 39q-77 0 -129 -65.5t-52 -159.5zM221 606l71 161h89l-83 -161h-77z
M360 606l71 161h89l-83 -161h-77z" />
    <glyph glyph-name="OE" unicode="&#x152;" horiz-adv-x="1061" 
d="M1105 700l-17 -77h-410q78 -87 78 -228v-2h252l-18 -78h-241q-26 -144 -128 -238h359l-17 -77h-472q-51 -18 -111 -18q-133 0 -215.5 90t-82.5 233q-2 108 47.5 203.5t137.5 153t191 55.5q54 0 105 -17h542zM667 389q0 113 -56.5 178.5t-157.5 65.5q-120 3 -202 -92.5
t-80 -229.5q0 -114 57 -179.5t158 -65.5q120 -2 201.5 94t79.5 229z" />
    <glyph glyph-name="oe" unicode="&#x153;" horiz-adv-x="932" 
d="M884 232h-364q-3 -18 -3 -34q0 -60 35 -97.5t94 -37.5q92 0 129 84h81q-62 -158 -220 -158q-129 0 -173 114q-78 -114 -212 -114q-92 0 -147 57.5t-55 161.5q0 130 78 218.5t194 88.5q131 0 178 -110q75 110 206 110q89 0 137.5 -54t48.5 -153q0 -41 -7 -76zM532 299h276
q2 24 2 29q0 53 -30 84t-82 31q-57 0 -101.5 -37t-64.5 -107zM440 288q0 74 -34 113t-93 39q-77 0 -129 -65.5t-52 -159.5q0 -73 35 -112.5t94 -39.5q77 0 128 65t51 160z" />
    <glyph glyph-name="Racute" unicode="&#x154;" horiz-adv-x="649" 
d="M353 298h-158l-69 -298h-84l162 700h239q92 0 142 -47.5t50 -125.5q0 -81 -54.5 -142.5t-143.5 -71.5l134 -313h-92zM548 512q0 52 -30 81.5t-90 29.5h-158l-58 -250h167q70 0 119.5 38.5t49.5 100.5zM518 950l54 -59l-129 -115h-79z" />
    <glyph glyph-name="racute" unicode="&#x155;" horiz-adv-x="372" 
d="M171 263l-61 -263h-83l117 506h82l-21 -88q61 93 178 93h24l-19 -79h-23q-156 0 -194 -169zM402 773l54 -59l-129 -108h-79z" />
    <glyph glyph-name="uni0156" unicode="&#x156;" horiz-adv-x="649" 
d="M353 298h-158l-69 -298h-84l162 700h239q92 0 142 -47.5t50 -125.5q0 -81 -54.5 -142.5t-143.5 -71.5l134 -313h-92zM548 512q0 52 -30 81.5t-90 29.5h-158l-58 -250h167q70 0 119.5 38.5t49.5 100.5zM325 -75l-23 -102q-18 -82 -65.5 -120t-127.5 -43v49q59 6 85.5 31
t39.5 78h-47l25 107h113z" />
    <glyph glyph-name="uni0157" unicode="&#x157;" horiz-adv-x="372" 
d="M171 263l-61 -263h-83l117 506h82l-21 -88q61 93 178 93h24l-19 -79h-23q-156 0 -194 -169zM109 -75l-23 -102q-18 -82 -65.5 -120t-127.5 -43v49q59 6 85.5 31t39.5 78h-47l25 107h113z" />
    <glyph glyph-name="Rcaron" unicode="&#x158;" horiz-adv-x="649" 
d="M353 298h-158l-69 -298h-84l162 700h239q92 0 142 -47.5t50 -125.5q0 -81 -54.5 -142.5t-143.5 -71.5l134 -313h-92zM548 512q0 52 -30 81.5t-90 29.5h-158l-58 -250h167q70 0 119.5 38.5t49.5 100.5zM491 928h89l-156 -152h-55l-85 152h73l47 -84z" />
    <glyph glyph-name="rcaron" unicode="&#x159;" horiz-adv-x="372" 
d="M171 263l-61 -263h-83l117 506h82l-21 -88q61 93 178 93h24l-19 -79h-23q-156 0 -194 -169zM371 759h88l-155 -153h-55l-85 153h72l48 -84z" />
    <glyph glyph-name="Sacute" unicode="&#x15a;" horiz-adv-x="612" 
d="M294 -18q-117 0 -181.5 68.5t-64.5 160.5l1 18h92q-2 -14 -2 -27q0 -57 43 -99.5t124 -42.5q71 0 113.5 33.5t42.5 91.5q0 37 -18 59q-16 22 -43 36q-23 12 -79 34q-68 27 -103 47q-94 52 -94 155q0 90 65 145.5t174 55.5q111 0 176 -56.5t68 -145.5h-88q-3 54 -44 89
t-113 35q-70 0 -111 -33t-41 -89q0 -34 17 -57q17 -21 45 -36t87 -38q66 -26 105 -47q88 -45 88 -146q0 -98 -75 -154.5t-184 -56.5zM507 950l54 -59l-129 -115h-79z" />
    <glyph glyph-name="sacute" unicode="&#x15b;" horiz-adv-x="489" 
d="M464 355h-83q-2 41 -30.5 63.5t-79.5 22.5q-47 0 -75.5 -19t-28.5 -54q3 -32 21 -44.5t79 -32.5l20 -7q75 -24 105.5 -50t33.5 -83q0 -74 -60 -118t-143 -44q-81 0 -139 44q-56 45 -61 125h86q4 -46 37 -71t83 -25q48 0 80 20.5t32 55.5q0 27 -19 42t-67 31
q-53 17 -91 34q-81 38 -81 121q0 73 55 110q55 39 137 39q86 0 137.5 -43t51.5 -117zM400 773l54 -59l-129 -108h-79z" />
    <glyph glyph-name="Scircumflex" unicode="&#x15c;" horiz-adv-x="612" 
d="M294 -18q-117 0 -181.5 68.5t-64.5 160.5l1 18h92q-2 -14 -2 -27q0 -57 43 -99.5t124 -42.5q71 0 113.5 33.5t42.5 91.5q0 37 -18 59q-16 22 -43 36q-23 12 -79 34q-68 27 -103 47q-94 52 -94 155q0 90 65 145.5t174 55.5q111 0 176 -56.5t68 -145.5h-88q-3 54 -44 89
t-113 35q-70 0 -111 -33t-41 -89q0 -34 17 -57q17 -21 45 -36t87 -38q66 -26 105 -47q88 -45 88 -146q0 -98 -75 -154.5t-184 -56.5zM339 776h-85l156 152h55l85 -152h-76l-48 84z" />
    <glyph glyph-name="scircumflex" unicode="&#x15d;" horiz-adv-x="489" 
d="M464 355h-83q-2 41 -30.5 63.5t-79.5 22.5q-47 0 -75.5 -19t-28.5 -54q3 -32 21 -44.5t79 -32.5l20 -7q75 -24 105.5 -50t33.5 -83q0 -74 -60 -118t-143 -44q-81 0 -139 44q-56 45 -61 125h86q4 -46 37 -71t83 -25q48 0 80 20.5t32 55.5q0 27 -19 42t-67 31
q-53 17 -91 34q-81 38 -81 121q0 73 55 110q55 39 137 39q86 0 137.5 -43t51.5 -117zM251 606h-85l156 153h55l85 -153h-76l-48 84z" />
    <glyph glyph-name="Scedilla" unicode="&#x15e;" horiz-adv-x="612" 
d="M553 193q0 -98 -74 -153.5t-183 -57.5l-7 -28q87 -5 87 -67q0 -40 -34 -67.5t-85 -27.5q-66 0 -100 37l40 46q30 -30 65 -30q24 0 39 11.5t15 27.5q0 18 -21 29t-61 11l15 61q-96 13 -148.5 78t-52.5 148l1 18h92q-2 -14 -2 -27q0 -57 43 -99.5t124 -42.5
q71 0 113.5 33.5t42.5 91.5q0 37 -18 59q-16 22 -43 36q-23 12 -79 34q-68 27 -103 47q-94 52 -94 155q0 90 65 145.5t174 55.5q111 0 176 -56.5t68 -145.5h-88q-3 54 -44 89t-113 35q-70 0 -111 -33t-41 -89q0 -34 17 -57q17 -21 45 -36t87 -38q66 -26 105 -47
q88 -45 88 -146z" />
    <glyph glyph-name="scedilla" unicode="&#x15f;" horiz-adv-x="489" 
d="M426 151q0 -72 -58.5 -116t-139.5 -46l-8 -35q87 -5 87 -67q0 -40 -34 -67.5t-85 -27.5q-66 0 -100 37l40 46q30 -30 65 -30q23 0 38.5 11.5t15.5 27.5q0 18 -21 29t-61 11l17 68q-69 12 -112 55t-47 111h86q4 -46 37 -71t83 -25q48 0 80 20.5t32 55.5q0 27 -19 42
t-67 31q-53 17 -91 34q-81 38 -81 121q0 73 55 110q55 39 137 39q86 0 137.5 -43t51.5 -117h-83q-2 41 -30.5 63.5t-79.5 22.5q-47 0 -75.5 -19t-28.5 -54q3 -32 21 -44.5t79 -32.5l20 -7q75 -24 105.5 -50t33.5 -83z" />
    <glyph glyph-name="Scaron" unicode="&#x160;" horiz-adv-x="612" 
d="M294 -18q-117 0 -181.5 68.5t-64.5 160.5l1 18h92q-2 -14 -2 -27q0 -57 43 -99.5t124 -42.5q71 0 113.5 33.5t42.5 91.5q0 37 -18 59q-16 22 -43 36q-23 12 -79 34q-68 27 -103 47q-94 52 -94 155q0 90 65 145.5t174 55.5q111 0 176 -56.5t68 -145.5h-88q-3 54 -44 89
t-113 35q-70 0 -111 -33t-41 -89q0 -34 17 -57q17 -21 45 -36t87 -38q66 -26 105 -47q88 -45 88 -146q0 -98 -75 -154.5t-184 -56.5zM501 928h89l-156 -152h-55l-85 152h73l47 -84z" />
    <glyph glyph-name="scaron" unicode="&#x161;" horiz-adv-x="489" 
d="M464 355h-83q-2 41 -30.5 63.5t-79.5 22.5q-47 0 -75.5 -19t-28.5 -54q3 -32 21 -44.5t79 -32.5l20 -7q75 -24 105.5 -50t33.5 -83q0 -74 -60 -118t-143 -44q-81 0 -139 44q-56 45 -61 125h86q4 -46 37 -71t83 -25q48 0 80 20.5t32 55.5q0 27 -19 42t-67 31
q-53 17 -91 34q-81 38 -81 121q0 73 55 110q55 39 137 39q86 0 137.5 -43t51.5 -117zM402 759h88l-155 -153h-55l-85 153h72l48 -84z" />
    <glyph glyph-name="uni0162" unicode="&#x162;" horiz-adv-x="617" 
d="M138 700h552l-18 -77h-233l-143 -623h-39l-11 -46q87 -5 87 -67q0 -40 -34 -67.5t-85 -27.5q-66 0 -100 37l40 46q30 -30 65 -30q23 0 38.5 11.5t15.5 27.5q0 18 -21 29t-61 11l19 77l143 622h-233z" />
    <glyph glyph-name="uni0163" unicode="&#x163;" horiz-adv-x="371" 
d="M241 432l-66 -287q-4 -15 -4 -31q0 -40 49 -40h65l-17 -74h-66q-15 0 -18 1l-9 -37q87 -5 87 -67q0 -40 -34 -67.5t-85 -27.5q-66 0 -100 37l40 46q30 -30 65 -30q24 0 39 11.5t15 27.5q0 18 -21 29t-61 11l19 76q-55 21 -55 82q0 16 5 41l69 299h-97l17 74h97l32 135
l87 23l-36 -158h116l-17 -74h-116z" />
    <glyph glyph-name="Tcaron" unicode="&#x164;" horiz-adv-x="617" 
d="M439 623l-143 -623h-86l143 623h-233l18 77h552l-18 -77h-233zM516 928h89l-156 -152h-55l-85 152h73l47 -84z" />
    <glyph glyph-name="tcaron" unicode="&#x165;" horiz-adv-x="554" 
d="M84 92q0 16 5 41l69 299h-97l17 74h97l32 135l87 23l-36 -158h116l-17 -74h-116l-66 -287q-4 -15 -4 -31q0 -40 49 -40h65l-17 -74h-66q-58 0 -88 24t-30 68zM624 711l-23 -102q-18 -82 -65.5 -120t-127.5 -43v49q59 6 85.5 31t39.5 78h-47l25 107h113z" />
    <glyph glyph-name="Tbar" unicode="&#x166;" horiz-adv-x="617" 
d="M672 623h-233l-40 -174h173l-12 -50h-172l-92 -399h-86l92 399h-175l12 50h174l40 174h-233l18 77h552z" />
    <glyph glyph-name="tbar" unicode="&#x167;" horiz-adv-x="361" 
d="M357 432h-116l-24 -105h121l-17 -73h-121l-25 -109q-4 -15 -4 -31q0 -40 49 -40h65l-17 -74h-66q-58 0 -88 24t-30 68q0 16 5 41l28 121h-95l17 73h95l24 105h-97l17 74h97l32 135l87 23l-36 -158h116z" />
    <glyph glyph-name="Utilde" unicode="&#x168;" horiz-adv-x="707" 
d="M333 -18q-108 0 -177 60t-69 162q0 36 8 70l98 426h86l-97 -424q-8 -34 -8 -66q0 -73 42.5 -110.5t116.5 -37.5q82 0 136 47t74 136l104 455h83l-104 -453q-30 -131 -106.5 -198t-186.5 -67zM543 776q-29 0 -70 32q-34 25 -52 25q-28 0 -37 -51h-54q4 56 28 88.5t59 32.5
q27 0 71 -33q31 -25 49 -25q31 0 38 54h52q0 -57 -24.5 -90t-59.5 -33z" />
    <glyph glyph-name="utilde" unicode="&#x169;" horiz-adv-x="570" 
d="M553 506l-117 -506h-80l22 96q-26 -50 -70.5 -76t-100.5 -26q-72 0 -110 41t-38 105q0 19 5 44l74 322h83l-74 -322q-4 -17 -4 -32q0 -38 21.5 -61t61.5 -23q59 0 111.5 48.5t72.5 133.5l60 256h83zM440 606q-27 0 -70 31q-32 26 -52 26q-28 0 -37 -51h-54q4 56 28 88.5
t59 32.5q27 0 71 -33q31 -25 50 -25q30 0 37 55h52q0 -58 -24.5 -91t-59.5 -33z" />
    <glyph glyph-name="Umacron" unicode="&#x16a;" horiz-adv-x="707" 
d="M333 -18q-108 0 -177 60t-69 162q0 36 8 70l98 426h86l-97 -424q-8 -34 -8 -66q0 -73 42.5 -110.5t116.5 -37.5q82 0 136 47t74 136l104 455h83l-104 -453q-30 -131 -106.5 -198t-186.5 -67zM343 839h298l-14 -63h-298z" />
    <glyph glyph-name="umacron" unicode="&#x16b;" horiz-adv-x="570" 
d="M553 506l-117 -506h-80l22 96q-26 -50 -70.5 -76t-100.5 -26q-72 0 -110 41t-38 105q0 19 5 44l74 322h83l-74 -322q-4 -17 -4 -32q0 -38 21.5 -61t61.5 -23q59 0 111.5 48.5t72.5 133.5l60 256h83zM210 669h299l-15 -63h-298z" />
    <glyph glyph-name="Ubreve" unicode="&#x16c;" horiz-adv-x="707" 
d="M333 -18q-108 0 -177 60t-69 162q0 36 8 70l98 426h86l-97 -424q-8 -34 -8 -66q0 -73 42.5 -110.5t116.5 -37.5q82 0 136 47t74 136l104 455h83l-104 -453q-30 -131 -106.5 -198t-186.5 -67zM594 900q0 -46 -33.5 -85t-94.5 -39q-44 0 -66.5 21t-22.5 55q0 33 18 62h51
q-13 -25 -13 -45q0 -43 44 -43q29 0 45.5 23.5t16.5 55.5v9h54q1 -3 1 -14z" />
    <glyph glyph-name="ubreve" unicode="&#x16d;" horiz-adv-x="570" 
d="M553 506l-117 -506h-80l22 96q-26 -50 -70.5 -76t-100.5 -26q-72 0 -110 41t-38 105q0 19 5 44l74 322h83l-74 -322q-4 -17 -4 -32q0 -38 21.5 -61t61.5 -23q59 0 111.5 48.5t72.5 133.5l60 256h83zM487 731q0 -47 -33.5 -86t-94.5 -39q-44 0 -66.5 21t-22.5 55
q0 31 17 63h52q-13 -25 -13 -46q0 -43 44 -43q28 0 45 24t17 55v10h54q1 -3 1 -14z" />
    <glyph glyph-name="Uring" unicode="&#x16e;" horiz-adv-x="707" 
d="M333 -18q-108 0 -177 60t-69 162q0 36 8 70l98 426h86l-97 -424q-8 -34 -8 -66q0 -73 42.5 -110.5t116.5 -37.5q82 0 136 47t74 136l104 455h83l-104 -453q-30 -131 -106.5 -198t-186.5 -67zM468 950q41 0 67.5 -26t26.5 -68q0 -41 -26.5 -67.5t-67.5 -26.5
q-39 0 -65.5 26.5t-26.5 67.5q0 42 26 68t66 26zM469 904q-20 0 -33 -13.5t-13 -34.5t13 -35t33 -14t32.5 14t12.5 35t-12.5 34.5t-32.5 13.5z" />
    <glyph glyph-name="uring" unicode="&#x16f;" horiz-adv-x="570" 
d="M553 506l-117 -506h-80l22 96q-26 -50 -70.5 -76t-100.5 -26q-72 0 -110 41t-38 105q0 19 5 44l74 322h83l-74 -322q-4 -17 -4 -32q0 -38 21.5 -61t61.5 -23q59 0 111.5 48.5t72.5 133.5l60 256h83zM363 794q42 0 68.5 -25.5t26.5 -67.5q0 -41 -27 -68t-68 -27
q-40 0 -66.5 27t-26.5 68t26.5 67t66.5 26zM364 748q-20 0 -33 -13.5t-13 -33.5q0 -21 13 -35.5t33 -14.5t33 14.5t13 35.5q0 20 -13 33.5t-33 13.5z" />
    <glyph glyph-name="Uhungarumlaut" unicode="&#x170;" horiz-adv-x="707" 
d="M333 -18q-108 0 -177 60t-69 162q0 36 8 70l98 426h86l-97 -424q-8 -34 -8 -66q0 -73 42.5 -110.5t116.5 -37.5q82 0 136 47t74 136l104 455h83l-104 -453q-30 -131 -106.5 -198t-186.5 -67zM354 776l75 150h75l-86 -150h-64zM476 776l74 150h75l-86 -150h-63z" />
    <glyph glyph-name="uhungarumlaut" unicode="&#x171;" horiz-adv-x="570" 
d="M553 506l-117 -506h-80l22 96q-26 -50 -70.5 -76t-100.5 -26q-72 0 -110 41t-38 105q0 19 5 44l74 322h83l-74 -322q-4 -17 -4 -32q0 -38 21.5 -61t61.5 -23q59 0 111.5 48.5t72.5 133.5l60 256h83zM243 606l71 161h89l-83 -161h-77zM382 606l71 161h89l-83 -161h-77z
" />
    <glyph glyph-name="Uogonek" unicode="&#x172;" horiz-adv-x="707" 
d="M647 700h83l-104 -453q-30 -131 -106.5 -198t-186.5 -67h-11q-15 -18 -15 -40q0 -21 18 -34t46 -16l-13 -59q-48 5 -79.5 31.5t-31.5 62.5t26 60q-85 16 -135.5 73.5t-50.5 143.5q0 36 8 70l98 426h86l-97 -424q-8 -34 -8 -66q0 -73 42.5 -110.5t116.5 -37.5q82 0 136 47
t74 136z" />
    <glyph glyph-name="uogonek" unicode="&#x173;" horiz-adv-x="570" 
d="M368 -58q0 -21 18 -34t46 -16l-13 -59q-48 5 -79.5 31.5t-31.5 62.5q0 49 49 78l21 91q-26 -50 -70.5 -76t-100.5 -26q-72 0 -110 41t-38 105q0 19 5 44l74 322h83l-74 -322q-4 -17 -4 -32q0 -38 21.5 -61t61.5 -23q59 0 111.5 48.5t72.5 133.5l60 256h83l-117 -506h-33
q-35 -23 -35 -58z" />
    <glyph glyph-name="Wcircumflex" unicode="&#x174;" horiz-adv-x="955" 
d="M1018 700l-311 -700h-84l-74 569l-273 -569h-84l-64 700h84l47 -575l269 575h84l74 -576l241 576h91zM519 776h-85l156 152h55l85 -152h-76l-48 84z" />
    <glyph glyph-name="wcircumflex" unicode="&#x175;" horiz-adv-x="820" 
d="M853 506l-276 -506h-81l-49 376l-208 -376h-80l-66 506h86l44 -387l208 387h85l45 -387l206 387h86zM408 606h-85l156 153h55l85 -153h-76l-48 84z" />
    <glyph glyph-name="Ycircumflex" unicode="&#x176;" horiz-adv-x="604" 
d="M687 700l-331 -427l-61 -273h-86l61 273l-147 427h89l114 -350l262 350h99zM338 776h-85l156 152h55l85 -152h-76l-48 84z" />
    <glyph glyph-name="ycircumflex" unicode="&#x177;" horiz-adv-x="508" 
d="M461 506h90l-320 -554q-68 -116 -205 -116h-36l17 73h25q87 0 135 78l18 30l-102 489h84l77 -393zM249 606h-85l156 153h55l85 -153h-76l-48 84z" />
    <glyph glyph-name="Ydieresis" unicode="&#x178;" horiz-adv-x="604" 
d="M687 700l-331 -427l-61 -273h-86l61 273l-147 427h89l114 -350l262 350h99zM381 874l-22 -98h-87l23 98h86zM567 874l-22 -98h-87l22 98h87z" />
    <glyph glyph-name="Zacute" unicode="&#x179;" horiz-adv-x="644" 
d="M20 0l18 77l497 546h-390l18 77h500l-17 -77l-501 -546h418l-17 -77h-526zM520 950l54 -59l-129 -115h-79z" />
    <glyph glyph-name="zacute" unicode="&#x17a;" horiz-adv-x="505" 
d="M9 0l17 74l358 358h-282l16 74h389l-17 -74l-359 -358h298l-17 -74h-403zM430 773l54 -59l-129 -108h-79z" />
    <glyph glyph-name="Zdotaccent" unicode="&#x17b;" horiz-adv-x="644" 
d="M20 0l18 77l497 546h-390l18 77h500l-17 -77l-501 -546h418l-17 -77h-526zM507 888l-27 -112h-108l26 112h109z" />
    <glyph glyph-name="zdotaccent" unicode="&#x17c;" horiz-adv-x="505" 
d="M9 0l17 74l358 358h-282l16 74h389l-17 -74l-359 -358h298l-17 -74h-403zM417 718l-27 -112h-108l26 112h109z" />
    <glyph glyph-name="Zcaron" unicode="&#x17d;" horiz-adv-x="644" 
d="M20 0l18 77l497 546h-390l18 77h500l-17 -77l-501 -546h418l-17 -77h-526zM504 928h89l-156 -152h-55l-85 152h73l47 -84z" />
    <glyph glyph-name="zcaron" unicode="&#x17e;" horiz-adv-x="505" 
d="M9 0l17 74l358 358h-282l16 74h389l-17 -74l-359 -358h298l-17 -74h-403zM443 759h88l-155 -153h-55l-85 153h72l48 -84z" />
    <glyph glyph-name="longs" unicode="&#x17f;" horiz-adv-x="338" 
d="M271 566l-130 -566h-83l99 432h-81l17 74h81l17 74q15 71 54 101t107 30h71l-16 -74h-53q-39 0 -56.5 -16t-26.5 -55z" />
    <glyph glyph-name="florin" unicode="&#x192;" horiz-adv-x="351" 
d="M284 566l-14 -60h106l-17 -74h-105l-71 -307q-28 -125 -159 -125h-47l17 74h27q39 0 57 16.5t27 53.5l65 288h-81l17 74h81l17 74q15 71 54 101t107 30h71l-16 -74h-53q-39 0 -56.5 -16t-26.5 -55z" />
    <glyph glyph-name="Aringacute" unicode="&#x1fa;" horiz-adv-x="694" 
d="M584 1100l43 -47l-103 -92h-63zM475 921q40 0 65 -25t25 -65q0 -39 -25 -64t-65 -25q-37 0 -62 25t-25 64t25 64.5t62 25.5zM476 877q-19 0 -31 -13t-12 -33t12 -33t31 -13t31 13t12 33t-12 33t-31 13zM541 0l-35 189h-319l-115 -189h-95l431 700h80l138 -700h-85z
M234 267h258l-60 328z" />
    <glyph glyph-name="aringacute" unicode="&#x1fb;" horiz-adv-x="531" 
d="M489 925l48 -53l-116 -104h-71zM351 723q37 0 60.5 -23.5t23.5 -61.5q0 -37 -23.5 -60.5t-60.5 -23.5q-35 0 -59 24t-24 60q0 38 23.5 61.5t59.5 23.5zM352 682q-19 0 -30.5 -12t-11.5 -32q0 -19 11.5 -31.5t30.5 -12.5q18 0 29 12.5t11 31.5q0 20 -11 32t-29 12z
M478 329l-75 -329h-80l17 75q-27 -42 -72 -64t-95 -22q-66 0 -106.5 35.5t-40.5 102.5q0 66 42 106t118 51l135 20q84 14 84 72q0 66 -101 66q-109 0 -138 -87h-85q24 79 84.5 119.5t148.5 40.5q82 0 126 -34t44 -99q0 -24 -6 -53zM304 241l-72 -10q-49 -6 -88 -27
q-38 -20 -38 -72q0 -69 81 -69q65 0 115.5 42t67.5 115l9 38q-44 -13 -75 -17z" />
    <glyph glyph-name="AEacute" unicode="&#x1fc;" horiz-adv-x="988" 
d="M1014 623h-353l-54 -230h327l-18 -78h-326l-55 -238h372l-18 -77h-459l49 213h-251l-146 -213h-105l492 700h563zM281 290h216l77 334h-64zM755 950l54 -59l-129 -115h-79z" />
    <glyph glyph-name="aeacute" unicode="&#x1fd;" horiz-adv-x="868" 
d="M821 232h-363v-16q0 -153 125 -153q95 0 129 84h81q-29 -77 -85.5 -117.5t-132.5 -40.5q-72 0 -121 35.5t-65 98.5q-74 -134 -215 -134q-66 0 -107 35.5t-41 102.5q0 131 160 156l135 21q84 14 84 72q0 66 -101 66q-109 0 -138 -87h-85q24 79 83.5 119.5t147.5 40.5
q117 0 155 -74q68 74 174 74q89 0 138 -52.5t49 -149.5q0 -45 -7 -81zM469 299h275q2 14 2 19q0 61 -29 93t-83 32q-58 0 -101.5 -36.5t-63.5 -107.5zM370 220l9 38q-23 -9 -75 -17l-72 -10q-49 -6 -88 -27q-38 -20 -38 -72q0 -69 81 -69q65 0 115.5 42t67.5 115zM605 773
l54 -59l-129 -108h-79z" />
    <glyph glyph-name="Oslashacute" unicode="&#x1fe;" horiz-adv-x="787" 
d="M757 394q1 -115 -45.5 -209.5t-133 -149.5t-196.5 -53q-90 0 -158 42l-52 -72l-51 38l53 73q-90 90 -90 242q-1 115 45 209.5t133.5 149.5t197.5 53q88 0 158 -42l53 74l51 -38l-55 -75q90 -90 90 -242zM227 136l339 468q-47 29 -112 29q-126 0 -203.5 -92t-77.5 -230
q0 -111 54 -175zM668 388q0 107 -53 175l-340 -469q47 -28 112 -28q126 0 203.5 92t77.5 230zM585 950l54 -59l-129 -115h-79z" />
    <glyph glyph-name="oslashacute" unicode="&#x1ff;" horiz-adv-x="568" 
d="M525 516l-49 -67q47 -59 47 -153q0 -130 -78 -218.5t-194 -88.5q-55 0 -94 19l-51 -70l-51 38l50 69q-56 59 -56 163q0 130 78 218.5t194 88.5q60 0 107 -26l46 64zM157 116l223 307q-29 17 -67 17q-77 0 -129 -65.5t-52 -159.5q0 -62 25 -99zM423 375l-218 -301
q28 -11 56 -11q77 0 128 65t51 160q0 50 -17 87zM435 773l54 -59l-129 -108h-79z" />
    <glyph glyph-name="uni0218" unicode="&#x218;" horiz-adv-x="612" 
d="M294 -18q-117 0 -181.5 68.5t-64.5 160.5l1 18h92q-2 -14 -2 -27q0 -57 43 -99.5t124 -42.5q71 0 113.5 33.5t42.5 91.5q0 37 -18 59q-16 22 -43 36q-23 12 -79 34q-68 27 -103 47q-94 52 -94 155q0 90 65 145.5t174 55.5q111 0 176 -56.5t68 -145.5h-88q-3 54 -44 89
t-113 35q-70 0 -111 -33t-41 -89q0 -34 17 -57q17 -21 45 -36t87 -38q66 -26 105 -47q88 -45 88 -146q0 -98 -75 -154.5t-184 -56.5zM317 -75l-23 -102q-18 -82 -65.5 -120t-127.5 -43v49q59 6 85.5 31t39.5 78h-47l25 107h113z" />
    <glyph glyph-name="uni0219" unicode="&#x219;" horiz-adv-x="489" 
d="M464 355h-83q-2 41 -30.5 63.5t-79.5 22.5q-47 0 -75.5 -19t-28.5 -54q3 -32 21 -44.5t79 -32.5l20 -7q75 -24 105.5 -50t33.5 -83q0 -74 -60 -118t-143 -44q-81 0 -139 44q-56 45 -61 125h86q4 -46 37 -71t83 -25q48 0 80 20.5t32 55.5q0 27 -19 42t-67 31
q-53 17 -91 34q-81 38 -81 121q0 73 55 110q55 39 137 39q86 0 137.5 -43t51.5 -117zM262 -75l-23 -102q-18 -82 -65.5 -120t-127.5 -43v49q59 6 85.5 31t39.5 78h-47l25 107h113z" />
    <glyph glyph-name="uni021A" unicode="&#x21a;" horiz-adv-x="617" 
d="M439 623l-143 -623h-86l143 623h-233l18 77h552l-18 -77h-233zM295 -75l-23 -102q-18 -82 -65.5 -120t-127.5 -43v49q59 6 85.5 31t39.5 78h-47l25 107h113z" />
    <glyph glyph-name="uni021B" unicode="&#x21b;" horiz-adv-x="361" 
d="M84 92q0 16 5 41l69 299h-97l17 74h97l32 135l87 23l-36 -158h116l-17 -74h-116l-66 -287q-4 -15 -4 -31q0 -40 49 -40h65l-17 -74h-66q-58 0 -88 24t-30 68zM225 -75l-23 -102q-18 -82 -65.5 -120t-127.5 -43v49q59 6 85.5 31t39.5 78h-47l25 107h113z" />
    <glyph glyph-name="circumflex" unicode="&#x2c6;" horiz-adv-x="296" 
d="M166 606h-85l156 153h55l85 -153h-76l-48 84z" />
    <glyph glyph-name="caron" unicode="&#x2c7;" horiz-adv-x="295" 
d="M324 759h88l-155 -153h-55l-85 153h72l48 -84z" />
    <glyph glyph-name="uni02C9" unicode="&#x2c9;" horiz-adv-x="299" 
d="M135 839h299l-15 -63h-298z" />
    <glyph glyph-name="breve" unicode="&#x2d8;" horiz-adv-x="212" 
d="M319 731q0 -47 -33.5 -86t-94.5 -39q-44 0 -66.5 21t-22.5 55q0 31 17 63h52q-13 -25 -13 -46q0 -43 44 -43q28 0 45 24t17 55v10h54q1 -3 1 -14z" />
    <glyph glyph-name="dotaccent" unicode="&#x2d9;" horiz-adv-x="109" 
d="M216 718l-27 -112h-108l26 112h109z" />
    <glyph glyph-name="ring" unicode="&#x2da;" horiz-adv-x="193" 
d="M199 794q42 0 68.5 -25.5t26.5 -67.5q0 -41 -27 -68t-68 -27q-40 0 -66.5 27t-26.5 68t26.5 67t66.5 26zM200 748q-20 0 -33 -13.5t-13 -33.5q0 -21 13 -35.5t33 -14.5t33 14.5t13 35.5q0 20 -13 33.5t-33 13.5z" />
    <glyph glyph-name="ogonek" unicode="&#x2db;" horiz-adv-x="135" 
d="M-73 -73q0 53 53 80h53q-46 -27 -46 -65q0 -21 18 -34t46 -16l-13 -59q-48 5 -79.5 31.5t-31.5 62.5z" />
    <glyph glyph-name="tilde" unicode="&#x2dc;" horiz-adv-x="279" 
d="M299 606q-27 0 -70 31q-32 26 -52 26q-28 0 -37 -51h-54q4 56 28 88.5t59 32.5q27 0 71 -33q31 -25 50 -25q30 0 37 55h52q0 -58 -24.5 -91t-59.5 -33z" />
    <glyph glyph-name="hungarumlaut" unicode="&#x2dd;" horiz-adv-x="261" 
d="M81 606l71 161h89l-83 -161h-77zM220 606l71 161h89l-83 -161h-77z" />
    <glyph glyph-name="uni0394" unicode="&#x394;" horiz-adv-x="682" 
d="M-23 0l19 81l416 619h89l131 -619l-19 -81h-636zM90 81h457l-108 522z" />
    <glyph glyph-name="uni0394" unicode="&#x3b4;" horiz-adv-x="682" 
d="M-23 0l19 81l416 619h89l131 -619l-19 -81h-636zM90 81h457l-108 522z" />
    <glyph glyph-name="uni03A9" unicode="&#x3a9;" horiz-adv-x="779" 
d="M474 136l-13 -55h150l-19 -81h-222l44 189q121 20 194 97.5t73 168.5q0 79 -57 132.5t-162 53.5q-126 0 -201.5 -77t-75.5 -180q0 -76 43 -130t119 -65l-44 -189h-222l19 81h150l14 60q-82 29 -125 94.5t-43 148.5q-1 62 25 121.5t73 107.5t119.5 76.5t156.5 27.5
q142 0 221.5 -73t79.5 -181q0 -109 -80 -201.5t-217 -125.5z" />
    <glyph glyph-name="uni03A9" unicode="&#x3c9;" horiz-adv-x="779" 
d="M474 136l-13 -55h150l-19 -81h-222l44 189q121 20 194 97.5t73 168.5q0 79 -57 132.5t-162 53.5q-126 0 -201.5 -77t-75.5 -180q0 -76 43 -130t119 -65l-44 -189h-222l19 81h150l14 60q-82 29 -125 94.5t-43 148.5q-1 62 25 121.5t73 107.5t119.5 76.5t156.5 27.5
q142 0 221.5 -73t79.5 -181q0 -109 -80 -201.5t-217 -125.5z" />
    <glyph glyph-name="uni03BC" unicode="&#x3bc;" horiz-adv-x="635" 
d="M464 97q0 -31 37 -31h16l-15 -66h-37q-73 0 -85 61q-60 -72 -158 -72q-71 0 -103 49l-54 -230h-83l162 698h83l-73 -314q-6 -24 -6 -43q0 -89 102 -89q50 0 95 39t60 105l70 302h81l-89 -387q-3 -12 -3 -22z" />
    <glyph glyph-name="pi" unicode="&#x3c0;" horiz-adv-x="690" 
d="M531 431l-68 -293q-4 -13 -4 -29q0 -24 15 -33.5t46 -9.5h22l-16 -66h-48q-49 0 -76 18.5t-27 66.5q0 18 7 49l68 296h-143l-100 -430h-81l99 430h-129l17 76h359q159 0 231 43l-19 -84q-55 -27 -153 -34z" />
    <glyph glyph-name="uni1E02" unicode="&#x1e02;" horiz-adv-x="681" 
d="M615 228q0 -97 -79 -162.5t-206 -65.5h-288l162 700h285q77 0 121.5 -41.5t44.5 -105.5q0 -61 -42 -112t-114 -67q116 -30 116 -146zM221 407h178q72 0 119 38.5t47 91.5q0 41 -31 63.5t-87 22.5h-176zM526 224q0 52 -29 80t-85 28h-208l-59 -255h197q86 0 135 39.5
t49 107.5zM497 888l-27 -112h-108l26 112h109z" />
    <glyph glyph-name="uni1E03" unicode="&#x1e03;" horiz-adv-x="603" 
d="M559 299q1 -75 -30.5 -146t-94 -118.5t-138.5 -45.5q-59 0 -102.5 26t-62.5 72l-21 -87h-83l164 711h83l-61 -266q27 31 70 50.5t90 19.5q88 0 137 -62t49 -154zM476 286q0 68 -34 110.5t-98 42.5q-82 0 -133.5 -66.5t-51.5 -151.5q0 -71 34.5 -115t97.5 -44
q78 -2 132.5 68.5t52.5 155.5zM506 718l-27 -112h-108l26 112h109z" />
    <glyph glyph-name="uni1E0A" unicode="&#x1e0a;" horiz-adv-x="714" 
d="M691 413q1 -74 -28.5 -148t-82.5 -134t-135.5 -96.5t-178.5 -34.5h-224l162 700h196q140 0 215.5 -81.5t75.5 -205.5zM602 410q0 91 -53 152q-52 61 -158 61h-119l-126 -546h122q75 -2 139.5 27.5t106.5 78t65.5 108.5t22.5 119zM475 888l-27 -112h-108l26 112h109z" />
    <glyph glyph-name="uni1E0B" unicode="&#x1e0b;" horiz-adv-x="603" 
d="M629 711l-164 -711h-81l20 85q-21 -45 -66 -70.5t-102 -25.5q-93 0 -141 62q-47 62 -47 153q-1 76 32 147.5t96.5 118.5t141.5 45q59 0 102.5 -25t59.5 -65l66 286h83zM130 209q0 -65 32.5 -105t93.5 -40q82 -3 138.5 71.5t54.5 160.5q0 66 -34 107t-95 41
q-79 3 -135.5 -73t-54.5 -162zM374 718l-27 -112h-108l26 112h109z" />
    <glyph glyph-name="uni1E1E" unicode="&#x1e1e;" horiz-adv-x="581" 
d="M42 0l162 700h440l-18 -77h-354l-54 -230h328l-18 -78h-327l-73 -315h-86zM505 888l-27 -112h-108l26 112h109z" />
    <glyph glyph-name="uni1E1F" unicode="&#x1e1f;" horiz-adv-x="328" 
d="M271 566l-14 -60h106l-17 -74h-105l-100 -432h-83l99 432h-81l17 74h81l17 74q15 71 54 101t107 30h71l-16 -74h-53q-39 0 -56.5 -16t-26.5 -55zM413 888l-27 -112h-108l26 112h109z" />
    <glyph glyph-name="uni1E40" unicode="&#x1e40;" horiz-adv-x="883" 
d="M895 700l-160 -700h-83l134 584l-365 -584h-66l-98 584l-133 -584h-81l160 700h117l97 -571l350 571h128zM616 888l-27 -112h-108l26 112h109z" />
    <glyph glyph-name="uni1E41" unicode="&#x1e41;" horiz-adv-x="848" 
d="M806 395q0 -14 -5 -39l-81 -356h-83l76 329q4 15 4 36q0 74 -78 74q-58 0 -100.5 -43t-60.5 -123l-63 -273h-83l75 329q4 15 4 35q0 75 -78 75q-57 0 -99 -43t-61 -122l-63 -274h-83l116 506h80l-19 -82q52 91 151 91q56 0 92 -30t38 -77q17 45 65.5 76t114.5 31
q67 0 104 -33.5t37 -86.5zM590 718l-27 -112h-108l26 112h109z" />
    <glyph glyph-name="uni1E56" unicode="&#x1e56;" horiz-adv-x="618" 
d="M635 523q2 -92 -70.5 -163.5t-188.5 -69.5h-183l-67 -290h-84l162 700h248q86 0 134.5 -51t48.5 -126zM548 510q0 50 -30 81.5t-87 31.5h-161l-59 -256h179q71 0 114.5 43t43.5 100zM468 888l-27 -112h-108l26 112h109z" />
    <glyph glyph-name="uni1E57" unicode="&#x1e57;" horiz-adv-x="598" 
d="M556 305q2 -74 -31.5 -145.5t-96.5 -118.5t-138 -45q-58 0 -99.5 26t-58.5 76l-67 -290h-83l161 698h83l-16 -68q59 77 164 77q86 0 134 -60t48 -150zM160 223q0 -67 35 -110t97 -43q77 0 129.5 67.5t52.5 152.5q0 67 -33 108t-96 41q-82 0 -133.5 -66.5t-51.5 -149.5z
M472 718l-27 -112h-108l26 112h109z" />
    <glyph glyph-name="uni1E60" unicode="&#x1e60;" horiz-adv-x="612" 
d="M294 -18q-117 0 -181.5 68.5t-64.5 160.5l1 18h92q-2 -14 -2 -27q0 -57 43 -99.5t124 -42.5q71 0 113.5 33.5t42.5 91.5q0 37 -18 59q-16 22 -43 36q-23 12 -79 34q-68 27 -103 47q-94 52 -94 155q0 90 65 145.5t174 55.5q111 0 176 -56.5t68 -145.5h-88q-3 54 -44 89
t-113 35q-70 0 -111 -33t-41 -89q0 -34 17 -57q17 -21 45 -36t87 -38q66 -26 105 -47q88 -45 88 -146q0 -98 -75 -154.5t-184 -56.5zM483 888l-27 -112h-108l26 112h109z" />
    <glyph glyph-name="uni1E61" unicode="&#x1e61;" horiz-adv-x="489" 
d="M464 355h-83q-2 41 -30.5 63.5t-79.5 22.5q-47 0 -75.5 -19t-28.5 -54q3 -32 21 -44.5t79 -32.5l20 -7q75 -24 105.5 -50t33.5 -83q0 -74 -60 -118t-143 -44q-81 0 -139 44q-56 45 -61 125h86q4 -46 37 -71t83 -25q48 0 80 20.5t32 55.5q0 27 -19 42t-67 31
q-53 17 -91 34q-81 38 -81 121q0 73 55 110q55 39 137 39q86 0 137.5 -43t51.5 -117zM376 718l-27 -112h-108l26 112h109z" />
    <glyph glyph-name="uni1E6A" unicode="&#x1e6a;" horiz-adv-x="617" 
d="M439 623l-143 -623h-86l143 623h-233l18 77h552l-18 -77h-233zM507 888l-27 -112h-108l26 112h109z" />
    <glyph glyph-name="uni1E6B" unicode="&#x1e6b;" horiz-adv-x="361" 
d="M84 92q0 16 5 41l69 299h-97l17 74h97l32 135l87 23l-36 -158h116l-17 -74h-116l-66 -287q-4 -15 -4 -31q0 -40 49 -40h65l-17 -74h-66q-58 0 -88 24t-30 68zM336 812l-27 -112h-108l26 112h109z" />
    <glyph glyph-name="Wgrave" unicode="&#x1e80;" horiz-adv-x="955" 
d="M1018 700l-311 -700h-84l-74 569l-273 -569h-84l-64 700h84l47 -575l269 575h84l74 -576l241 576h91zM546 950l55 -174h-65l-68 149z" />
    <glyph glyph-name="wgrave" unicode="&#x1e81;" horiz-adv-x="820" 
d="M853 506l-276 -506h-81l-49 376l-208 -376h-80l-66 506h86l44 -387l208 387h85l45 -387l206 387h86zM450 788l53 -182h-65l-66 157z" />
    <glyph glyph-name="Wacute" unicode="&#x1e82;" horiz-adv-x="955" 
d="M1018 700l-311 -700h-84l-74 569l-273 -569h-84l-64 700h84l47 -575l269 575h84l74 -576l241 576h91zM700 950l54 -59l-129 -115h-79z" />
    <glyph glyph-name="wacute" unicode="&#x1e83;" horiz-adv-x="820" 
d="M853 506l-276 -506h-81l-49 376l-208 -376h-80l-66 506h86l44 -387l208 387h85l45 -387l206 387h86zM599 773l54 -59l-129 -108h-79z" />
    <glyph glyph-name="Wdieresis" unicode="&#x1e84;" horiz-adv-x="955" 
d="M1018 700l-311 -700h-84l-74 569l-273 -569h-84l-64 700h84l47 -575l269 575h84l74 -576l241 576h91zM554 874l-22 -98h-87l23 98h86zM740 874l-22 -98h-87l22 98h87z" />
    <glyph glyph-name="wdieresis" unicode="&#x1e85;" horiz-adv-x="820" 
d="M853 506l-276 -506h-81l-49 376l-208 -376h-80l-66 506h86l44 -387l208 387h85l45 -387l206 387h86zM466 704l-22 -98h-87l22 98h87zM652 704l-22 -98h-87l22 98h87z" />
    <glyph glyph-name="Ygrave" unicode="&#x1ef2;" horiz-adv-x="604" 
d="M687 700l-331 -427l-61 -273h-86l61 273l-147 427h89l114 -350l262 350h99zM364 950l55 -174h-65l-68 149z" />
    <glyph glyph-name="ygrave" unicode="&#x1ef3;" horiz-adv-x="508" 
d="M461 506h90l-320 -554q-68 -116 -205 -116h-36l17 73h25q87 0 135 78l18 30l-102 489h84l77 -393zM300 788l53 -182h-65l-66 157z" />
    <glyph glyph-name="endash" unicode="&#x2013;" horiz-adv-x="557" 
d="M61 323h467l-18 -73h-466z" />
    <glyph glyph-name="emdash" unicode="&#x2014;" horiz-adv-x="1023" 
d="M61 323h933l-17 -73h-933z" />
    <glyph glyph-name="quoteleft" unicode="&#x2018;" horiz-adv-x="237" 
d="M85 466l23 102q18 82 65.5 120t127.5 43v-49q-59 -6 -85.5 -31t-39.5 -78h47l-25 -107h-113z" />
    <glyph glyph-name="quoteright" unicode="&#x2019;" horiz-adv-x="237" 
d="M307 711l-23 -102q-18 -82 -65.5 -120t-127.5 -43v49q59 6 85.5 31t39.5 78h-47l25 107h113z" />
    <glyph glyph-name="quotesinglbase" unicode="&#x201a;" horiz-adv-x="237" 
d="M169 112l-23 -102q-18 -82 -65.5 -120t-127.5 -43v49q59 6 85.5 31t39.5 78h-47l25 107h113z" />
    <glyph glyph-name="quotedblleft" unicode="&#x201c;" horiz-adv-x="433" 
d="M85 466l23 102q18 82 65.5 120t127.5 43v-49q-59 -6 -85.5 -31t-39.5 -78h47l-25 -107h-113zM281 466l23 102q18 82 65.5 120t127.5 43v-49q-59 -6 -85.5 -31t-39.5 -78h47l-25 -107h-113z" />
    <glyph glyph-name="quotedblright" unicode="&#x201d;" horiz-adv-x="433" 
d="M307 711l-23 -102q-18 -82 -65.5 -120t-127.5 -43v49q59 6 85.5 31t39.5 78h-47l25 107h113zM503 711l-23 -102q-18 -82 -65.5 -120t-127.5 -43v49q59 6 85.5 31t39.5 78h-47l25 107h113z" />
    <glyph glyph-name="quotedblbase" unicode="&#x201e;" horiz-adv-x="433" 
d="M169 112l-23 -102q-18 -82 -65.5 -120t-127.5 -43v49q59 6 85.5 31t39.5 78h-47l25 107h113zM365 112l-23 -102q-18 -82 -65.5 -120t-127.5 -43v49q59 6 85.5 31t39.5 78h-47l25 107h113z" />
    <glyph glyph-name="dagger" unicode="&#x2020;" horiz-adv-x="510" 
d="M249 410h-167l18 80h167l49 210h85l-49 -210h167l-18 -80h-167l-117 -503h-85z" />
    <glyph glyph-name="daggerdbl" unicode="&#x2021;" horiz-adv-x="510" 
d="M501 410h-167l-50 -213h167l-18 -80h-167l-49 -210h-85l49 210h-167l18 80h167l50 213h-167l18 80h167l49 210h85l-49 -210h167z" />
    <glyph glyph-name="bullet" unicode="&#x2022;" horiz-adv-x="285" 
d="M244 359l-36 -158h-154l35 158h155z" />
    <glyph glyph-name="ellipsis" unicode="&#x2026;" horiz-adv-x="968" 
d="M196 112l-26 -112h-108l26 112h108zM506 112l-26 -112h-109l26 112h109zM815 112l-26 -112h-108l26 112h108z" />
    <glyph glyph-name="perthousand" unicode="&#x2030;" horiz-adv-x="1337" 
d="M1092 323q74 0 123 -48t49 -122t-49 -122.5t-123 -48.5q-71 0 -119.5 48.5t-48.5 122.5t48 122t120 48zM1093 258q-42 0 -68.5 -29.5t-26.5 -74.5q0 -47 26.5 -77t68.5 -30t69.5 30.5t27.5 76.5q0 45 -27.5 74.5t-69.5 29.5zM286 716q74 0 123 -48t49 -122t-49 -122.5
t-123 -48.5q-71 0 -119.5 48.5t-48.5 122.5t48 122t120 48zM824 700l-573 -700h-90l574 700h89zM287 651q-42 0 -68.5 -29.5t-26.5 -74.5q0 -47 26.5 -77t68.5 -30t69.5 30.5t27.5 76.5q0 45 -27.5 74.5t-69.5 29.5zM696 323q74 0 123 -48t49 -122t-49 -122.5t-123 -48.5
q-71 0 -119.5 48.5t-48.5 122.5t48 122t120 48zM697 258q-42 0 -68.5 -29.5t-26.5 -74.5q0 -47 26.5 -77t68.5 -30t69.5 30.5t27.5 76.5q0 45 -27.5 74.5t-69.5 29.5z" />
    <glyph glyph-name="guilsinglleft" unicode="&#x2039;" horiz-adv-x="352" 
d="M154 282l99 -150l-61 -43l-133 204l216 194l47 -60z" />
    <glyph glyph-name="guilsinglright" unicode="&#x203a;" horiz-adv-x="352" 
d="M212 285l-99 150l61 43l133 -204l-216 -194l-47 60z" />
    <glyph glyph-name="fraction" unicode="&#x2044;" horiz-adv-x="665" 
d="M698 700l-582 -700h-84l582 700h84z" />
    <glyph glyph-name="Euro" unicode="&#x20ac;" horiz-adv-x="631" 
d="M643 472h-87q1 5 1 24q0 60 -35.5 94t-96.5 34q-136 0 -192 -166h246l-17 -61h-246q-10 -40 -14 -98h238l-14 -61h-225q1 -172 148 -172q138 0 164 161h86q-18 -117 -86 -177.5t-170 -60.5q-108 0 -166 67t-60 182h-95l14 61h83q3 51 12 98h-73l17 61h71
q36 115 107.5 178.5t176.5 63.5q97 0 156.5 -52t59.5 -137q0 -19 -3 -39z" />
    <glyph glyph-name="uni2113" unicode="&#x2113;" horiz-adv-x="396" 
d="M153 89q0 -38 31 -38q25 0 60 25t65 66l22 -19q-87 -134 -181 -134q-38 0 -59.5 22t-21.5 62q0 20 7 49l60 257l-82 -43l12 52l80 41l30 128q17 75 60 114.5t97 39.5q42 0 70 -23t28 -65q0 -44 -32.5 -88.5t-93.5 -78.5l-81 -45l-68 -295q-3 -15 -3 -27zM236 465l35 19
q106 58 106 127q0 26 -13.5 40t-32.5 14q-22 0 -40 -19.5t-26 -53.5z" />
    <glyph glyph-name="uni2116" unicode="&#x2116;" horiz-adv-x="1151" 
d="M730 700l-160 -700h-88l-223 583l-133 -583h-83l160 700h101l215 -562l128 562h83zM987 717q74 0 123 -48t49 -122t-49 -122.5t-123 -48.5q-71 0 -119.5 48.5t-48.5 122.5t48 122t120 48zM988 652q-42 0 -68.5 -29.5t-26.5 -74.5q0 -47 26.5 -77t68.5 -30t69.5 30.5
t27.5 76.5q0 45 -27.5 74.5t-69.5 29.5z" />
    <glyph glyph-name="trademark" unicode="&#x2122;" horiz-adv-x="733" 
d="M151 655h267l-11 -48h-108l-57 -243h-51l57 243h-108zM777 655l-68 -291h-52l55 236l-144 -236h-49l-34 236l-55 -236h-50l68 291h83l27 -217l130 217h89z" />
    <glyph glyph-name="estimated" unicode="&#x212e;" horiz-adv-x="524" 
d="M409 141h43q-9 -73 -60.5 -112.5t-125.5 -39.5q-92 0 -151.5 62t-59.5 179q0 119 59 183.5t149 64.5q82 0 137.5 -53t55.5 -147q0 -32 -3 -48h-322v-121q42 -80 139 -80q118 0 139 112zM131 273h240v112q-38 53 -108 53q-41 0 -76.5 -19t-55.5 -53v-93z" />
    <glyph glyph-name="uni2153" unicode="&#x2153;" horiz-adv-x="1096" 
d="M930 700l-582 -700h-84l582 700h84zM310 339h102l-16 -69h-292l16 69h117l60 251q-52 -25 -105 -27l16 70q64 9 117 54h66zM973 124q0 -57 -45.5 -94.5t-110.5 -37.5t-102.5 34.5t-37.5 91.5v16h75v-11q0 -30 18 -47t51 -17t54.5 17.5t21.5 46.5q0 51 -72 51h-34l16 69
h26q43 0 69.5 19.5t26.5 49.5q0 22 -15.5 36.5t-42.5 14.5q-34 0 -56.5 -21t-26.5 -59h-74q5 68 51 106.5t113 38.5q55 0 90.5 -29.5t35.5 -77.5q0 -42 -27 -73.5t-66 -37.5q62 -17 62 -86z" />
    <glyph glyph-name="uni2154" unicode="&#x2154;" horiz-adv-x="1095" 
d="M972 124q0 -57 -45.5 -94.5t-110.5 -37.5t-102.5 34.5t-37.5 91.5v16h75v-11q0 -30 18 -47t51 -17t54.5 17.5t21.5 46.5q0 51 -72 51h-34l16 69h26q43 0 69.5 19.5t26.5 49.5q0 22 -15.5 36.5t-42.5 14.5q-34 0 -56.5 -21t-26.5 -59h-74q5 68 51 106.5t113 38.5
q55 0 90.5 -29.5t35.5 -77.5q0 -42 -27 -73.5t-66 -37.5q62 -17 62 -86zM936 700l-582 -700h-84l582 700h84zM246 340h194l-15 -69h-302l14 61l113 92l52 41q53 41 72 62.5t19 47.5q0 25 -16.5 39t-45.5 14q-34 0 -58.5 -21t-29.5 -56h-73q10 73 60 111t110 38
q56 0 91.5 -32.5t35.5 -85.5q0 -32 -15 -58q-14 -25 -37 -46.5t-69 -56.5l-49 -39z" />
    <glyph glyph-name="uni2155" unicode="&#x2155;" horiz-adv-x="1063" 
d="M910 700l-582 -700h-84l582 700h84zM310 339h102l-16 -69h-292l16 69h117l60 251q-52 -25 -105 -27l16 70q64 9 117 54h66zM955 345h-168l-29 -92q29 25 67 25q57 0 88.5 -36t31.5 -92q0 -64 -45 -111t-118 -47q-64 0 -102.5 37.5t-38.5 98.5h74q0 -31 19.5 -48t51.5 -17
q38 0 60.5 22t22.5 54q0 31 -17.5 50.5t-49.5 19.5q-35 0 -60 -25h-74l73 232h230z" />
    <glyph glyph-name="uni2156" unicode="&#x2156;" horiz-adv-x="1080" 
d="M927 700l-582 -700h-84l582 700h84zM972 345h-168l-29 -92q29 25 67 25q57 0 88.5 -36t31.5 -92q0 -64 -45 -111t-118 -47q-64 0 -102.5 37.5t-38.5 98.5h74q0 -31 19.5 -48t51.5 -17q38 0 60.5 22t22.5 54q0 31 -17.5 50.5t-49.5 19.5q-35 0 -60 -25h-74l73 232h230z
M246 340h194l-15 -69h-302l14 61l113 92l52 41q53 41 72 62.5t19 47.5q0 25 -16.5 39t-45.5 14q-34 0 -58.5 -21t-29.5 -56h-73q10 73 60 111t110 38q56 0 91.5 -32.5t35.5 -85.5q0 -32 -15 -58q-14 -25 -37 -46.5t-69 -56.5l-49 -39z" />
    <glyph glyph-name="uni2157" unicode="&#x2157;" horiz-adv-x="1048" 
d="M896 700l-582 -700h-84l582 700h84zM940 345h-168l-29 -92q29 25 67 25q57 0 88.5 -36t31.5 -92q0 -64 -45 -111t-118 -47q-64 0 -102.5 37.5t-38.5 98.5h74q0 -31 19.5 -48t51.5 -17q38 0 60.5 22t22.5 54q0 31 -17.5 50.5t-49.5 19.5q-35 0 -60 -25h-74l73 232h230z
M431 396q0 -57 -45.5 -94.5t-110.5 -37.5t-102.5 34.5t-37.5 91.5v16h75v-11q0 -30 18 -47t51 -17t54.5 17.5t21.5 46.5q0 51 -72 51h-34l16 69h26q43 0 69.5 19.5t26.5 49.5q0 22 -15.5 36.5t-42.5 14.5q-34 0 -56.5 -21t-26.5 -59h-74q5 68 51 106.5t113 38.5
q55 0 90.5 -29.5t35.5 -77.5q0 -42 -27 -73.5t-66 -37.5q62 -17 62 -86z" />
    <glyph glyph-name="uni2158" unicode="&#x2158;" horiz-adv-x="1086" 
d="M924 700l-582 -700h-84l582 700h84zM978 345h-168l-29 -92q29 25 67 25q57 0 88.5 -36t31.5 -92q0 -64 -45 -111t-118 -47q-64 0 -102.5 37.5t-38.5 98.5h74q0 -31 19.5 -48t51.5 -17q38 0 60.5 22t22.5 54q0 31 -17.5 50.5t-49.5 19.5q-35 0 -60 -25h-74l73 232h230z
M377 271h-72l19 82h-201l15 61l240 274h96l-63 -267h58l-16 -69h-57zM383 598l-159 -177h117z" />
    <glyph glyph-name="uni2159" unicode="&#x2159;" horiz-adv-x="1090" 
d="M920 700l-582 -700h-84l582 700h84zM310 339h102l-16 -69h-292l16 69h117l60 251q-52 -25 -105 -27l16 70q64 9 117 54h66zM973 157q0 -69 -46.5 -117t-113.5 -48t-107 48t-40 144q0 108 48 175q50 69 136 69q59 0 93.5 -32.5t36.5 -89.5h-74q-5 57 -58 57
q-43 0 -71.5 -34t-35.5 -99q41 53 107 53q53 0 89 -34t36 -92zM898 146q0 31 -19.5 49.5t-48.5 18.5q-35 0 -59.5 -25t-24.5 -60q0 -31 20.5 -48t49.5 -17q35 0 58.5 24t23.5 58z" />
    <glyph glyph-name="uni215A" unicode="&#x215a;" horiz-adv-x="1072" 
d="M902 700l-582 -700h-84l582 700h84zM955 157q0 -69 -46.5 -117t-113.5 -48t-107 48t-40 144q0 108 48 175q50 69 136 69q59 0 93.5 -32.5t36.5 -89.5h-74q-5 57 -58 57q-43 0 -71.5 -34t-35.5 -99q41 53 107 53q53 0 89 -34t36 -92zM880 146q0 31 -19.5 49.5t-48.5 18.5
q-35 0 -59.5 -25t-24.5 -60q0 -31 20.5 -48t49.5 -17q35 0 58.5 24t23.5 58zM448 617h-168l-29 -92q29 25 67 25q57 0 88.5 -36t31.5 -92q0 -64 -45 -111t-118 -47q-64 0 -102.5 37.5t-38.5 98.5h74q0 -31 19.5 -48t51.5 -17q38 0 60.5 22t22.5 54q0 31 -17.5 50.5
t-49.5 19.5q-35 0 -60 -25h-74l73 232h230z" />
    <glyph glyph-name="oneeighth" unicode="&#x215b;" horiz-adv-x="1058" 
d="M910 700l-582 -700h-84l582 700h84zM310 339h102l-16 -69h-292l16 69h117l60 251q-52 -25 -105 -27l16 70q64 9 117 54h66zM935 127q0 -63 -46 -99q-45 -36 -110 -36q-59 0 -97.5 31t-38.5 85q0 86 91 116q-45 21 -45 81q0 54 40 88.5t103 34.5q58 0 94 -29t36 -80
q0 -39 -21 -65.5t-55 -35.5q49 -28 49 -91zM757 299q0 -24 18.5 -38t44.5 -14q30 0 51 17t21 43q0 23 -18.5 37.5t-45.5 14.5q-29 0 -50 -17.5t-21 -42.5zM866 126q0 28 -21.5 44.5t-52.5 16.5q-34 0 -56.5 -19t-22.5 -48q0 -28 21 -43.5t53 -15.5q33 0 56 18t23 47z" />
    <glyph glyph-name="threeeighths" unicode="&#x215c;" horiz-adv-x="1053" 
d="M895 700l-582 -700h-84l582 700h84zM930 127q0 -63 -46 -99q-45 -36 -110 -36q-59 0 -97.5 31t-38.5 85q0 86 91 116q-45 21 -45 81q0 54 40 88.5t103 34.5q58 0 94 -29t36 -80q0 -39 -21 -65.5t-55 -35.5q49 -28 49 -91zM752 299q0 -24 18.5 -38t44.5 -14q30 0 51 17
t21 43q0 23 -18.5 37.5t-45.5 14.5q-29 0 -50 -17.5t-21 -42.5zM861 126q0 28 -21.5 44.5t-52.5 16.5q-34 0 -56.5 -19t-22.5 -48q0 -28 21 -43.5t53 -15.5q33 0 56 18t23 47zM431 396q0 -57 -45.5 -94.5t-110.5 -37.5t-102.5 34.5t-37.5 91.5v16h75v-11q0 -30 18 -47
t51 -17t54.5 17.5t21.5 46.5q0 51 -72 51h-34l16 69h26q43 0 69.5 19.5t26.5 49.5q0 22 -15.5 36.5t-42.5 14.5q-34 0 -56.5 -21t-26.5 -59h-74q5 68 51 106.5t113 38.5q55 0 90.5 -29.5t35.5 -77.5q0 -42 -27 -73.5t-66 -37.5q62 -17 62 -86z" />
    <glyph glyph-name="fiveeighths" unicode="&#x215d;" horiz-adv-x="1039" 
d="M916 127q0 -63 -46 -99q-45 -36 -110 -36q-59 0 -97.5 31t-38.5 85q0 86 91 116q-45 21 -45 81q0 54 40 88.5t103 34.5q58 0 94 -29t36 -80q0 -39 -21 -65.5t-55 -35.5q49 -28 49 -91zM738 299q0 -24 18.5 -38t44.5 -14q30 0 51 17t21 43q0 23 -18.5 37.5t-45.5 14.5
q-29 0 -50 -17.5t-21 -42.5zM847 126q0 28 -21.5 44.5t-52.5 16.5q-34 0 -56.5 -19t-22.5 -48q0 -28 21 -43.5t53 -15.5q33 0 56 18t23 47zM892 700l-582 -700h-84l582 700h84zM448 617h-168l-29 -92q29 25 67 25q57 0 88.5 -36t31.5 -92q0 -64 -45 -111t-118 -47
q-64 0 -102.5 37.5t-38.5 98.5h74q0 -31 19.5 -48t51.5 -17q38 0 60.5 22t22.5 54q0 31 -17.5 50.5t-49.5 19.5q-35 0 -60 -25h-74l73 232h230z" />
    <glyph glyph-name="seveneighths" unicode="&#x215e;" horiz-adv-x="1064" 
d="M887 700l-582 -700h-84l582 700h84zM941 127q0 -63 -46 -99q-45 -36 -110 -36q-59 0 -97.5 31t-38.5 85q0 86 91 116q-45 21 -45 81q0 54 40 88.5t103 34.5q58 0 94 -29t36 -80q0 -39 -21 -65.5t-55 -35.5q49 -28 49 -91zM763 299q0 -24 18.5 -38t44.5 -14q30 0 51 17
t21 43q0 23 -18.5 37.5t-45.5 14.5q-29 0 -50 -17.5t-21 -42.5zM872 126q0 28 -21.5 44.5t-52.5 16.5q-34 0 -56.5 -19t-22.5 -48q0 -28 21 -43.5t53 -15.5q33 0 56 18t23 47zM520 688l-14 -59l-228 -358h-82l220 343h-232l16 74h320z" />
    <glyph glyph-name="arrowleft" unicode="&#x2190;" horiz-adv-x="673" 
d="M313 42l-257 257l257 256l49 -49l-175 -171h444v-73h-444l175 -170z" />
    <glyph glyph-name="arrowup" unicode="&#x2191;" horiz-adv-x="603" 
d="M573 318l-50 -49l-170 175v-444h-73v444l-171 -175l-49 49l256 257z" />
    <glyph glyph-name="arrowright" unicode="&#x2192;" horiz-adv-x="671" 
d="M381 42l-49 50l175 170h-444v73h444l-175 171l49 49l257 -256z" />
    <glyph glyph-name="arrowdown" unicode="&#x2193;" horiz-adv-x="602" 
d="M548 257l-257 -257l-256 257l49 49l171 -175v444h73v-444l170 175z" />
    <glyph glyph-name="partialdiff" unicode="&#x2202;" 
d="M566 396q0 -188 -83 -297.5t-208 -109.5q-92 0 -154.5 60.5t-62.5 161.5q0 104 66 171.5t161 67.5q63 0 121 -32q57 -32 81 -90q5 38 5 77q0 109 -45.5 166t-120.5 57q-54 0 -90.5 -30.5t-41.5 -78.5h-82q16 85 72.5 133t145.5 48q95 0 165 -64q71 -65 71 -240zM294 374
q-65 0 -109.5 -41t-44.5 -115q0 -71 41.5 -113t101.5 -42q63 0 110.5 46t47.5 120q0 68 -42 106.5t-105 38.5z" />
    <glyph glyph-name="product" unicode="&#x220f;" horiz-adv-x="815" 
d="M484 0l145 627h-261l-145 -627h-81l145 627h-101l17 73h625l-17 -73h-101l-145 -627h-81z" />
    <glyph glyph-name="summation" unicode="&#x2211;" horiz-adv-x="662" 
d="M276 623l207 -285l-326 -261h424l-18 -77h-561l19 78l345 271l-203 274l19 77h512l-19 -77h-399z" />
    <glyph glyph-name="minus" unicode="&#x2212;" 
d="M528 349l-17 -75h-412l17 75h412z" />
    <glyph glyph-name="radical" unicode="&#x221a;" horiz-adv-x="613" 
d="M188 0l-100 506h91l71 -403l349 597h87l-415 -700h-83z" />
    <glyph glyph-name="infinity" unicode="&#x221e;" horiz-adv-x="790" 
d="M750 309q2 -90 -59 -163t-154 -71q-64 0 -106 32t-52 80q-52 -112 -166 -112q-78 0 -119 53q-40 52 -40 129q0 92 58.5 161t153.5 69q62 0 100 -30t50 -82q28 52 73.5 82t100.5 30q75 0 117.5 -51t42.5 -127zM363 300q0 54 -27 82.5t-74 28.5q-60 0 -99 -46.5t-39 -105.5
q0 -48 26 -79t73 -31q55 0 97.5 43t42.5 108zM679 302q0 48 -26.5 78.5t-71.5 30.5q-55 0 -99 -44t-44 -109q0 -53 27.5 -80.5t74.5 -27.5q62 0 100.5 46.5t38.5 105.5z" />
    <glyph glyph-name="integral" unicode="&#x222b;" horiz-adv-x="323" 
d="M276 563l-146 -630q-18 -77 -58 -101q-39 -24 -91 -24h-57l15 66h31q35 0 52 13t26 49l147 639q18 77 58 101t92 24h66l-16 -66h-40q-34 0 -52 -15.5t-27 -55.5z" />
    <glyph glyph-name="approxequal" unicode="&#x2248;" 
d="M441 391q65 0 103 27l-16 -70q-47 -20 -103 -20q-36 0 -96 21q-57 22 -98 22q-67 0 -117 -32l16 67q50 29 118 29q36 0 95 -22q54 -22 98 -22zM410 246q63 0 101 26l-17 -70q-45 -20 -103 -20q-39 0 -95 21q-57 22 -98 22q-68 0 -118 -32l16 67q50 29 118 29q38 0 95 -21
q57 -22 101 -22z" />
    <glyph glyph-name="notequal" unicode="&#x2260;" 
d="M528 348h-166l-40 -73h189l-16 -71h-212l-69 -125l-55 32l52 93h-128l16 71h151l40 73h-174l16 71h198l76 138l54 -32l-58 -106h142z" />
    <glyph glyph-name="lessequal" unicode="&#x2264;" 
d="M563 542l-359 -151l290 -151l-39 -63l-341 181l17 78l405 177zM474 75l-18 -75h-428l18 75h428z" />
    <glyph glyph-name="greaterequal" unicode="&#x2265;" 
d="M196 619l341 -186l-16 -78l-413 -180l-29 71l370 156l-291 151zM478 75l-18 -75h-428l18 75h428z" />
    <glyph glyph-name="lozenge" unicode="&#x25ca;" horiz-adv-x="577" 
d="M563 336l-333 -347l-174 347l334 346zM369 563l-223 -234l105 -220l223 234z" />
    <glyph glyph-name="NULL" horiz-adv-x="0" 
 />
    <glyph glyph-name="zero.osf" horiz-adv-x="648" 
d="M597 310q1 -80 -34 -153.5t-105 -121.5t-157 -46q-115 0 -177 74t-62 181q-2 81 34 154.5t105.5 120.5t156.5 45q115 0 177 -73t62 -181zM513 304q0 81 -42.5 132t-118.5 51q-91 0 -148 -71.5t-57 -167.5q0 -78 40 -131q41 -53 120 -53q90 -2 149 72.5t57 167.5z" />
    <glyph glyph-name="one.osf" horiz-adv-x="539" 
d="M425 0h-428l17 75h172l93 403h-172l18 74h428l-18 -74h-172l-94 -403h173z" />
    <glyph glyph-name="two.osf" horiz-adv-x="542" 
d="M146 75h299l-16 -75h-416l17 71l156 102q127 83 172.5 128.5t48.5 97.5q0 41 -28.5 64.5t-69.5 23.5q-56 0 -96 -34t-48 -93h-84q13 96 80.5 150t153.5 54q76 0 125 -42q51 -40 51 -112q0 -52 -30 -96q-29 -43 -83 -84q-53 -41 -146 -100z" />
    <glyph glyph-name="three.osf" horiz-adv-x="597" 
d="M375 211q49 -12 78.5 -50t29.5 -94q0 -94 -77 -154.5t-181 -60.5q-105 0 -159.5 57t-54.5 136q0 29 1 36h85q-2 -26 -2 -31q0 -55 34.5 -88t102.5 -33q67 0 115 36t48 97q0 52 -38 83t-113 31h-29l18 75h16q92 0 146.5 39t54.5 99q0 47 -34 72t-98 25q-62 0 -109 -33
q-47 -32 -55 -112h-86q11 109 85.5 165.5t170.5 56.5q90 0 151 -44q61 -43 61 -122q0 -65 -43 -113.5t-118 -72.5z" />
    <glyph glyph-name="four.osf" horiz-adv-x="639" 
d="M366 -139h-83l39 166h-333l16 75l410 447h110l-103 -447h121l-17 -77h-121zM420 453l-322 -351h240z" />
    <glyph glyph-name="five.osf" horiz-adv-x="594" 
d="M230 473l-58 -203q50 43 123 43q88 0 139 -55q51 -56 51 -141q2 -105 -71 -188t-186 -80q-96 0 -157.5 57t-61.5 155q0 12 1 17h83q-1 -5 -1 -15q0 -64 36 -100.5t101 -36.5q78 0 124.5 52.5t46.5 126.5q0 63 -34.5 96.5t-91.5 33.5q-72 0 -135 -53h-71l109 366h348
l-16 -75h-279z" />
    <glyph glyph-name="six.osf" horiz-adv-x="630" 
d="M601 510h-82q0 56 -36 84.5t-96 28.5q-92 0 -159 -72t-77 -200q69 102 199 102q90 0 148.5 -53t58.5 -151q0 -110 -72.5 -185t-184.5 -75q-111 0 -171 78.5t-60 221.5q-2 179 91.5 296t230.5 115q92 0 151 -52t59 -138zM161 209q0 -69 43 -106t106 -37q67 0 115.5 44
t48.5 122q0 68 -38 105.5t-100 37.5q-70 0 -122.5 -45.5t-52.5 -120.5z" />
    <glyph glyph-name="seven.osf" horiz-adv-x="580" 
d="M593 549l-17 -75l-387 -613h-86l382 606h-421l19 82h510z" />
    <glyph glyph-name="eight.osf" horiz-adv-x="583" 
d="M412 354q99 -38 99 -150q0 -98 -75 -156.5t-178 -58.5q-91 0 -154.5 47.5t-63.5 130.5q0 74 48 126.5t129 69.5q-98 42 -98 140q0 92 69 144.5t163 52.5q87 0 147 -44.5t60 -124.5q0 -65 -40 -114t-106 -63zM326 395q60 0 103 33q44 33 44 91q0 49 -36 76.5t-91 27.5
q-59 0 -100 -31q-42 -30 -42 -89q0 -52 34 -80t88 -28zM290 318q-67 0 -115.5 -37.5t-48.5 -100.5q0 -55 38.5 -84.5t99.5 -29.5q67 0 114 35q48 35 48 99q0 56 -38 87t-98 31z" />
    <glyph glyph-name="nine.osf" horiz-adv-x="610" 
d="M25 43h82q6 -55 48 -84t103 -29q89 0 147.5 71t69.5 201q-69 -102 -199 -102q-90 0 -148.5 53t-58.5 151q0 110 72.5 185t184.5 75q111 0 171 -78.5t60 -221.5q0 -184 -84 -297.5t-219 -113.5q-92 0 -157.5 52t-71.5 138zM465 344q0 67 -44 105t-105 38q-67 0 -115.5 -44
t-48.5 -122q0 -68 38 -105.5t100 -37.5q70 0 122.5 45.5t52.5 120.5z" />
    <glyph glyph-name="zero.tf" 
d="M84 246q0 101 29 206q29 106 93 176q64 72 165 72q187 0 187 -262q0 -104 -30 -207q-28 -101 -94 -173q-64 -69 -164 -69q-186 0 -186 257zM474 442q0 181 -115 181q-69 0 -112 -63q-42 -61 -62 -151q-19 -86 -19 -165q0 -178 115 -178q68 0 112 62q44 64 62 150
q19 85 19 164z" />
    <glyph glyph-name="one.tf" 
d="M321 75h168l-17 -75h-419l17 75h168l119 512q-78 -55 -185 -70l19 79q106 19 195 92h76z" />
    <glyph glyph-name="two.tf" 
d="M144 75h371l-16 -75h-478l17 74l191 149l65 50q64 48 110 87q83 75 83 149q0 53 -35 83.5t-95 30.5q-70 0 -120 -41.5t-61 -113.5h-82q16 111 92 171.5t176 60.5q90 0 148.5 -49t58.5 -131q0 -62 -33 -115q-32 -50 -86 -97q-72 -60 -155 -121z" />
    <glyph glyph-name="three.tf" 
d="M418 348q49 -12 78.5 -50t29.5 -94q0 -94 -77 -154.5t-181 -60.5q-105 0 -159.5 57t-54.5 136q0 29 1 36h85q-2 -26 -2 -31q0 -55 34.5 -88t102.5 -33q67 0 115 36t48 97q0 52 -38 83t-113 31h-29l18 75h16q92 0 146.5 39t54.5 99q0 47 -34 72t-98 25q-63 0 -109 -33
q-47 -32 -55 -112h-86q11 109 85.5 165.5t170.5 56.5q90 0 151 -44q61 -43 61 -122q0 -65 -43 -113.5t-118 -72.5z" />
    <glyph glyph-name="four.tf" 
d="M389 0h-83l39 166h-333l16 75l410 447h110l-103 -447h121l-17 -77h-121zM443 592l-322 -351h240z" />
    <glyph glyph-name="five.tf" 
d="M276 613l-58 -203q50 43 123 43q88 0 139 -55q51 -56 51 -141q2 -105 -71 -188t-186 -80q-96 0 -157.5 57t-61.5 155q0 12 1 17h83q-1 -5 -1 -15q0 -64 36 -100.5t101 -36.5q78 0 124.5 52.5t46.5 126.5q0 63 -34.5 96.5t-91.5 33.5q-72 0 -135 -53h-71l109 366h348
l-16 -75h-279z" />
    <glyph glyph-name="six.tf" 
d="M595 510h-82q0 56 -36 84.5t-96 28.5q-92 0 -159 -72t-77 -200q69 102 199 102q90 0 148.5 -53t58.5 -151q0 -110 -72.5 -185t-184.5 -75q-111 0 -171 78.5t-60 221.5q-2 179 91.5 296t230.5 115q92 0 151 -52t59 -138zM155 209q0 -69 43 -106t106 -37q67 0 115.5 44
t48.5 122q0 68 -38 105.5t-100 37.5q-70 0 -122.5 -45.5t-52.5 -120.5z" />
    <glyph glyph-name="seven.tf" 
d="M655 688l-17 -75l-387 -613h-86l382 606h-421l19 82h510z" />
    <glyph glyph-name="eight.tf" 
d="M421 354q99 -38 99 -150q0 -98 -75 -156.5t-178 -58.5q-91 0 -154.5 47.5t-63.5 130.5q0 74 48 126.5t129 69.5q-98 42 -98 140q0 92 69 144.5t163 52.5q87 0 147 -44.5t60 -124.5q0 -65 -40 -114t-106 -63zM335 395q59 0 103 33t44 91q0 49 -36 76.5t-91 27.5
q-59 0 -100 -31q-42 -30 -42 -89q0 -52 34 -80t88 -28zM299 318q-67 0 -115.5 -37.5t-48.5 -100.5q0 -55 38.5 -84.5t99.5 -29.5q67 0 114 35q48 35 48 99q0 56 -38 87t-98 31z" />
    <glyph glyph-name="nine.tf" 
d="M46 179h82q6 -55 48 -84t103 -29q89 0 147.5 71t69.5 201q-69 -102 -199 -102q-90 0 -148.5 53t-58.5 151q0 110 72.5 185t184.5 75q111 0 171 -78.5t60 -221.5q0 -184 -84 -297.5t-219 -113.5q-92 0 -157.5 52t-71.5 138zM486 480q0 67 -44 105t-105 38
q-67 0 -115.5 -44t-48.5 -122q0 -68 38 -105.5t100 -37.5q70 0 122.5 45.5t52.5 120.5z" />
    <glyph glyph-name="zero.dnom" horiz-adv-x="360" 
d="M17 149q0 65 17.5 126.5t61.5 107.5t105 45q121 0 121 -159q1 -64 -18 -126t-63 -107.5t-104 -43.5q-120 0 -120 157zM242 271q0 45 -11.5 65.5t-37.5 20.5q-32 1 -55 -34.5t-32 -81.5t-9 -93q0 -86 47 -86q32 -1 55.5 34.5t33 81.5t9.5 93z" />
    <glyph glyph-name="one.dnom" horiz-adv-x="363" 
d="M182 68h102l-16 -69h-292l16 69h117l60 251q-52 -25 -105 -27l16 70q64 9 117 54h66z" />
    <glyph glyph-name="two.dnom" horiz-adv-x="359" 
d="M103 68h194l-15 -69h-302l14 61l113 92l52 41q53 41 72 62.5t19 47.5q0 25 -16.5 39t-45.5 14q-34 0 -58.5 -21t-29.5 -56h-73q11 73 60 111q50 38 110 38q56 0 91.5 -32.5t35.5 -85.5q0 -32 -15 -58q-14 -25 -37 -46.5t-69 -56.5l-49 -39z" />
    <glyph glyph-name="three.dnom" horiz-adv-x="359" 
d="M297 124q0 -57 -45.5 -94.5t-110.5 -37.5t-102.5 34.5t-37.5 91.5v16h75v-11q0 -30 18 -47t51 -17t54.5 17.5t21.5 46.5q0 51 -72 51h-34l16 69h26q43 0 69.5 19.5t26.5 49.5q0 22 -15.5 36.5t-42.5 14.5q-34 0 -56.5 -21t-26.5 -59h-74q5 68 51 106.5t113 38.5
q55 0 90.5 -29.5t35.5 -77.5q0 -42 -27 -73.5t-66 -37.5q62 -17 62 -86z" />
    <glyph glyph-name="four.dnom" horiz-adv-x="358" 
d="M228 -1h-72l19 82h-201l15 61l240 274h96l-63 -267h58l-16 -69h-57zM234 326l-159 -177h117z" />
    <glyph glyph-name="five.dnom" horiz-adv-x="358" 
d="M312 345h-168l-29 -92q29 25 67 25q57 0 88.5 -36t31.5 -92q0 -64 -45 -111t-118 -47q-64 0 -102.5 37.5t-38.5 98.5h74q0 -31 19.5 -48t51.5 -17q38 0 60.5 22t22.5 54q0 31 -17.5 50.5t-49.5 19.5q-35 0 -60 -25h-74l73 232h230z" />
    <glyph glyph-name="six.dnom" horiz-adv-x="356" 
d="M315 157q0 -69 -46.5 -117t-113.5 -48t-107 48t-40 144q0 108 48 175q50 69 136 69q59 0 93.5 -32.5t36.5 -89.5h-74q-5 57 -58 57q-43 0 -71.5 -34t-35.5 -99q41 53 107 53q53 0 89 -34t36 -92zM240 146q0 31 -19.5 49.5t-48.5 18.5q-35 0 -59.5 -25t-24.5 -60
q0 -31 20.5 -48t49.5 -17q35 0 58.5 24t23.5 58z" />
    <glyph glyph-name="seven.dnom" horiz-adv-x="358" 
d="M376 416l-14 -59l-228 -358h-82l220 343h-232l16 74h320z" />
    <glyph glyph-name="eight.dnom" horiz-adv-x="360" 
d="M294 127q0 -63 -46 -99q-45 -36 -110 -36q-59 0 -97.5 31t-38.5 85q0 86 91 116q-45 21 -45 81q0 54 40 88.5t103 34.5q58 0 94 -29t36 -80q0 -39 -21 -65.5t-55 -35.5q49 -28 49 -91zM116 299q0 -24 18.5 -38t44.5 -14q30 0 51 17t21 43q0 23 -18.5 37.5t-45.5 14.5
q-29 0 -50 -17.5t-21 -42.5zM225 126q0 28 -21.5 44.5t-52.5 16.5q-34 0 -56.5 -19t-22.5 -48q0 -28 21 -43.5t53 -15.5q33 0 56 18t23 47z" />
    <glyph glyph-name="nine.dnom" horiz-adv-x="358" 
d="M20 263q0 69 46.5 117t115.5 48q67 0 107.5 -49t40.5 -147q0 -105 -47 -173q-46 -67 -133 -67q-60 0 -97.5 33.5t-39.5 88.5h77q1 -27 18 -42t45 -15q84 0 96 132q-39 -52 -103 -52q-54 0 -90 34t-36 92zM99 273q0 -30 18.5 -48.5t46.5 -18.5q34 0 58 25t24 60
q0 30 -19.5 47.5t-47.5 17.5q-34 0 -57 -24t-23 -59z" />
    <glyph glyph-name="zero.numr" horiz-adv-x="360" 
d="M80 421q0 65 17.5 126.5t61.5 107.5t105 45q121 0 121 -159q1 -64 -18 -126t-63 -107.5t-104 -43.5q-120 0 -120 157zM305 543q0 45 -11.5 65.5t-37.5 20.5q-32 1 -55 -34.5t-32 -81.5t-9 -93q0 -86 47 -86q32 -1 55.5 34.5t33 81.5t9.5 93z" />
    <glyph glyph-name="one.numr" horiz-adv-x="363" 
d="M245 340h102l-16 -69h-292l16 69h117l60 251q-52 -25 -105 -27l16 70q65 9 117 54h66z" />
    <glyph glyph-name="two.numr" horiz-adv-x="359" 
d="M166 340h194l-15 -69h-302l14 61l113 92l52 41q53 41 72 62.5t19 47.5q0 25 -16.5 39t-45.5 14q-34 0 -58.5 -21t-29.5 -56h-73q10 73 60 111t110 38q56 0 91.5 -32.5t35.5 -85.5q0 -32 -15 -58q-14 -25 -37 -46.5t-69 -56.5l-49 -39z" />
    <glyph glyph-name="three.numr" horiz-adv-x="359" 
d="M360 396q0 -57 -45.5 -94.5t-110.5 -37.5t-102.5 34.5t-37.5 91.5v16h75v-11q0 -30 18 -47t51 -17t54.5 17.5t21.5 46.5q0 51 -72 51h-34l16 69h26q43 0 69.5 19.5t26.5 49.5q0 22 -15.5 36.5t-42.5 14.5q-34 0 -56.5 -21t-26.5 -59h-74q5 68 51 106.5t113 38.5
q55 0 90.5 -29.5t35.5 -77.5q0 -42 -27 -73.5t-66 -37.5q62 -17 62 -86z" />
    <glyph glyph-name="four.numr" horiz-adv-x="358" 
d="M291 271h-72l19 82h-201l15 61l240 274h96l-63 -267h58l-16 -69h-57zM297 598l-159 -177h117z" />
    <glyph glyph-name="five.numr" horiz-adv-x="358" 
d="M375 617h-168l-29 -92q29 25 67 25q57 0 88.5 -36t31.5 -92q0 -64 -45 -111t-118 -47q-64 0 -102.5 37.5t-38.5 98.5h74q0 -31 19.5 -48t51.5 -17q38 0 60.5 22t22.5 54q0 31 -17.5 50.5t-49.5 19.5q-35 0 -60 -25h-74l73 232h230z" />
    <glyph glyph-name="six.numr" horiz-adv-x="356" 
d="M378 429q0 -69 -46.5 -117t-113.5 -48t-107 48t-40 144q0 108 48 175q49 69 136 69q59 0 93.5 -32.5t36.5 -89.5h-74q-5 57 -58 57q-43 0 -71.5 -34t-35.5 -99q41 53 107 53q53 0 89 -34t36 -92zM303 418q0 31 -19.5 49.5t-48.5 18.5q-35 0 -59.5 -25t-24.5 -60
q0 -31 20.5 -48t49.5 -17q35 0 58.5 24t23.5 58z" />
    <glyph glyph-name="seven.numr" horiz-adv-x="358" 
d="M439 688l-14 -59l-228 -358h-82l220 343h-232l16 74h320z" />
    <glyph glyph-name="eight.numr" horiz-adv-x="360" 
d="M357 399q0 -63 -46 -99q-45 -36 -110 -36q-59 0 -97.5 31t-38.5 85q0 86 91 116q-45 21 -45 81q0 54 40 88.5t103 34.5q58 0 94 -29t36 -80q0 -39 -21 -65.5t-55 -35.5q49 -28 49 -91zM179 571q0 -24 18.5 -38t44.5 -14q30 0 51 17t21 43q0 23 -18.5 37.5t-45.5 14.5
q-29 0 -50 -17.5t-21 -42.5zM288 398q0 28 -21.5 44.5t-52.5 16.5q-34 0 -56.5 -19t-22.5 -48q0 -28 21 -43.5t53 -15.5q33 0 56 18t23 47z" />
    <glyph glyph-name="nine.numr" horiz-adv-x="358" 
d="M83 535q0 69 46.5 117t115.5 48q67 0 107.5 -49t40.5 -147q0 -105 -47 -173q-46 -67 -133 -67q-60 0 -97.5 33.5t-39.5 88.5h77q1 -27 18 -42t45 -15q84 0 96 132q-39 -52 -103 -52q-54 0 -90 34t-36 92zM162 545q0 -30 18.5 -48.5t46.5 -18.5q34 0 58 25t24 60
q0 30 -19.5 47.5t-47.5 17.5q-34 0 -57 -24t-23 -59z" />
    <glyph glyph-name="exclamdown.cap" horiz-adv-x="298" 
d="M166 538l26 112h108l-26 -112h-108zM112 256l61 196h54l-29 -196l-71 -306h-85z" />
    <glyph glyph-name="questiondown.cap" horiz-adv-x="510" 
d="M303 555l26 112h108l-26 -112h-108zM232 248l-58 -29q-72 -35 -72 -101q0 -43 30 -64.5t81 -21.5q122 0 150 120h84q-14 -97 -81 -146q-68 -50 -161 -50q-86 0 -137.5 40t-51.5 113q0 61 32.5 100t95.5 73l55 30q45 25 63 52q19 26 29 71l6 24h78l-9 -37
q-17 -68 -48.5 -107.5t-85.5 -66.5z" />
    <glyph glyph-name="periodcentered.cap" horiz-adv-x="219" 
d="M220 452l-27 -112h-108l26 112h109z" />
    <glyph glyph-name="bullet.cap" horiz-adv-x="265" 
d="M256 409l-36 -158h-154l35 158h155z" />
    <glyph glyph-name="hyphen.cap" horiz-adv-x="378" 
d="M365 398l-16 -74h-287l16 74h287z" />
    <glyph glyph-name="endash.cap" horiz-adv-x="557" 
d="M78 395h467l-18 -73h-466z" />
    <glyph glyph-name="emdash.cap" horiz-adv-x="1023" 
d="M78 395h933l-17 -73h-933z" />
    <glyph glyph-name="guillemotleft.cap" horiz-adv-x="567" 
d="M169 347l99 -150l-61 -43l-133 204l216 194l47 -60zM384 347l99 -150l-61 -43l-133 204l216 194l47 -60z" />
    <glyph glyph-name="guillemotright.cap" horiz-adv-x="567" 
d="M229 359l-99 150l61 43l133 -204l-216 -194l-47 60zM444 359l-99 150l61 43l133 -204l-216 -194l-47 60z" />
    <glyph glyph-name="guilsinglleft.cap" horiz-adv-x="352" 
d="M169 347l99 -150l-61 -43l-133 204l216 194l47 -60z" />
    <glyph glyph-name="guilsinglright.cap" horiz-adv-x="352" 
d="M227 350l-99 150l61 43l133 -204l-216 -194l-47 60z" />
    <glyph glyph-name="at.cap" horiz-adv-x="897" 
d="M882 444q2 -122 -72.5 -222.5t-163.5 -97.5q-45 0 -72.5 25t-29.5 67q-64 -92 -165 -92q-66 0 -101.5 42.5t-35.5 111.5q-2 101 70.5 187.5t173.5 83.5q104 0 130 -82l30 73h78l-97 -232q-21 -50 -21 -80q0 -44 42 -44q38 -2 77 37.5t63 101.5t23 122q0 104 -66 162.5
t-180 58.5q-110 2 -210.5 -56t-159.5 -155t-57 -203q0 -112 62.5 -175.5t170.5 -63.5q68 0 132 26l19 -55q-74 -37 -156 -37q-136 0 -216.5 81.5t-80.5 220.5q-3 124 66 236t186 178.5t247 64.5q144 0 229 -76.5t85 -207.5zM572 403q0 84 -82 84q-71 0 -120.5 -62.5
t-49.5 -135.5q0 -48 21 -74.5t59 -26.5q64 -3 119 70.5t53 144.5z" />
    <glyph glyph-name="acute.cap" horiz-adv-x="182" 
d="M275 950l54 -59l-129 -115h-79z" />
    <glyph glyph-name="breve.cap" horiz-adv-x="212" 
d="M358 900q0 -46 -33.5 -85t-94.5 -39q-44 0 -66.5 21t-22.5 55q0 33 18 62h51q-13 -25 -13 -45q0 -43 44 -43q29 0 45.5 23.5t16.5 55.5v9h54q1 -3 1 -14z" />
    <glyph glyph-name="caron.cap" horiz-adv-x="296" 
d="M363 928h89l-156 -152h-55l-85 152h73l47 -84z" />
    <glyph glyph-name="cedilla.cap" horiz-adv-x="207" 
d="M121 -113q0 -40 -34 -67.5t-85 -27.5q-66 0 -100 37l40 46q30 -30 65 -30q23 0 38.5 11.5t15.5 27.5q0 18 -21 29t-61 11l19 77h47l-11 -47q87 -5 87 -67z" />
    <glyph glyph-name="circumflex.cap" horiz-adv-x="296" 
d="M206 776h-85l156 152h55l85 -152h-76l-48 84z" />
    <glyph glyph-name="dieresis.cap" horiz-adv-x="273" 
d="M230 874l-22 -98h-87l23 98h86zM416 874l-22 -98h-87l22 98h87z" />
    <glyph glyph-name="dotaccent.cap" horiz-adv-x="109" 
d="M256 888l-27 -112h-108l26 112h109z" />
    <glyph glyph-name="grave.cap" horiz-adv-x="167" 
d="M233 950l55 -174h-65l-68 149z" />
    <glyph glyph-name="hungarumlaut.cap" horiz-adv-x="237" 
d="M121 776l75 150h75l-86 -150h-64zM243 776l74 150h75l-86 -150h-63z" />
    <glyph glyph-name="macron.cap" horiz-adv-x="298" 
d="M135 839h298l-14 -63h-298z" />
    <glyph glyph-name="ring.cap" horiz-adv-x="192" 
d="M234 950q41 0 67.5 -26t26.5 -68q0 -41 -26.5 -67.5t-67.5 -26.5q-39 0 -65.5 26.5t-26.5 67.5q0 42 26 68t66 26zM235 904q-20 0 -33 -13.5t-13 -34.5t13 -35t33 -14t32.5 14t12.5 35t-12.5 34.5t-32.5 13.5z" />
    <glyph glyph-name="tilde.cap" horiz-adv-x="278" 
d="M338 776q-29 0 -70 32q-34 25 -52 25q-28 0 -37 -51h-54q4 56 28 88.5t59 32.5q27 0 71 -33q31 -25 49 -25q30 0 38 54h52q0 -57 -24.5 -90t-59.5 -33z" />
    </font>
</defs>
</svg>
