<?xml version="1.0" standalone="no"?>
<!DOCTYPE svg PUBLIC "-//W3C//DTD SVG 1.1//EN" "http://www.w3.org/Graphics/SVG/1.1/DTD/svg11.dtd" >
<svg xmlns="http://www.w3.org/2000/svg" xmlns:xlink="http://www.w3.org/1999/xlink" version="1.1">
<metadata>
Created by FontForge 20170731 at Thu May 16 08:00:48 2019
 By Aleksey,,,
Copyright (c) 2015 by Luzi Type. All rights reserved. |DCNT
</metadata>
<defs>
<font id="MessinaSans-LightItalic" horiz-adv-x="600" >
  <font-face 
    font-family="Messina Sans Light"
    font-weight="300"
    font-style="italic"
    font-stretch="normal"
    units-per-em="1000"
    panose-1="0 0 4 0 0 0 0 0 0 0"
    ascent="757"
    descent="-243"
    x-height="496"
    cap-height="700"
    bbox="-109 -321 1245 1087"
    underline-thickness="50"
    underline-position="-250"
    slope="-13"
    unicode-range="U+000D-25CA"
  />
<missing-glyph horiz-adv-x="485" 
 />
    <glyph glyph-name=".notdef" horiz-adv-x="485" 
 />
    <glyph glyph-name=".null" horiz-adv-x="0" 
 />
    <glyph glyph-name="nonmarkingreturn" horiz-adv-x="333" 
 />
    <glyph glyph-name="CR" unicode="&#xd;" horiz-adv-x="504" 
 />
    <glyph glyph-name="space" unicode=" " horiz-adv-x="270" 
 />
    <glyph glyph-name="exclam" unicode="!" horiz-adv-x="282" 
d="M210 394l-56 -196h-40l34 196l71 306h62zM149 85l-20 -85h-81l20 85h81z" />
    <glyph glyph-name="quotedbl" unicode="&#x22;" horiz-adv-x="374" 
d="M279 735l-85 -272h-45l47 272h83zM429 735l-85 -272h-45l47 272h83z" />
    <glyph glyph-name="numbersign" unicode="#" horiz-adv-x="660" 
d="M623 428h-136l-35 -150h156v-40h-165l-55 -238h-48l55 238h-145l-55 -238h-48l55 238h-116v40h125l35 150h-145v40h154l51 222h48l-51 -222h145l51 222h48l-51 -222h127v-40zM404 278l35 150h-145l-35 -150h145z" />
    <glyph glyph-name="dollar" unicode="$" horiz-adv-x="592" 
d="M407 653l-64 -279q63 -27 96 -46q84 -49 84 -140q0 -88 -70 -143t-168 -55q-5 0 -31 2l-27 -119h-55l29 127q-79 22 -119 80t-40 120q0 13 1 16h58q-1 -3 -1 -16q0 -50 29.5 -91.5t83.5 -58.5l67 294q-78 35 -114.5 76t-36.5 107q0 84 57 134t158 50q17 0 21 -1l21 91h55
l-22 -98q72 -17 114.5 -63.5t47.5 -113.5h-58q-3 43 -34 78t-82 49zM293 395l61 266h-11q-74 0 -117 -36.5t-43 -96.5q0 -45 26.5 -75t83.5 -58zM330 323l-64 -283q5 -1 22 -1q76 0 126 40.5t50 101.5q0 49 -31.5 79.5t-102.5 62.5z" />
    <glyph glyph-name="percent" unicode="%" horiz-adv-x="939" 
d="M285 709q73 0 119 -45q47 -45 47 -118q0 -71 -47.5 -117.5t-118.5 -46.5q-67 0 -114 47t-47 117q0 72 46.5 117.5t114.5 45.5zM831 700l-602 -700h-65l602 700h65zM287 662q-48 0 -79 -32t-31 -83q0 -52 31 -85t79 -33t79.5 33t31.5 85q0 51 -31.5 83t-79.5 32zM697 314
q73 0 119 -45q47 -45 47 -118q0 -71 -47.5 -117.5t-118.5 -46.5q-67 0 -114 47t-47 117q0 72 46.5 117.5t114.5 45.5zM699 267q-48 0 -79 -32t-31 -83q0 -52 31 -85t79 -33t79.5 33t31.5 85q0 51 -31.5 83t-79.5 32z" />
    <glyph glyph-name="ampersand" unicode="&#x26;" horiz-adv-x="720" 
d="M632 330l-2 -6q-23 -83 -41 -122q-18 -43 -54 -83l88 -119h-64l-58 77q-41 -42 -97.5 -65t-114.5 -23q-89 0 -150 50t-61 135q0 74 49 129q50 58 155 74l-20 28q-50 68 -50 131q0 76 54 120t128 44q72 0 121 -40q50 -41 50 -111q0 -73 -54.5 -129.5t-149.5 -69.5
l146 -192q26 36 39 68q15 34 30 90l4 14h52zM302 431l32 -43q84 9 130.5 52.5t46.5 103.5q0 51 -33 80.5t-85 29.5q-54 0 -90.5 -32.5t-36.5 -87.5t36 -103zM472 121l-166 220q-171 -35 -171 -158q0 -66 44 -105.5t112 -39.5q107 0 181 83z" />
    <glyph glyph-name="quotesingle" unicode="'" horiz-adv-x="223" 
d="M265 735l-85 -272h-45l47 272h83z" />
    <glyph glyph-name="parenleft" unicode="(" horiz-adv-x="397" 
d="M458 811l19 -43q-163 -73 -261.5 -230.5t-96.5 -326.5q0 -202 143 -353l-32 -32q-81 68 -122 168t-41 215q-2 186 107 356t284 246z" />
    <glyph glyph-name="parenright" unicode=")" horiz-adv-x="398" 
d="M-29 -177l-19 43q163 73 261.5 230.5t96.5 326.5q0 202 -143 353l32 32q81 -68 122 -168t41 -215q2 -186 -107 -356t-284 -246z" />
    <glyph glyph-name="asterisk" unicode="*" horiz-adv-x="420" 
d="M317 578l61 -88l-48 -32l-52 96l-77 -98l-40 34l86 90l-107 35l22 48l103 -42l11 119h57l-24 -119l112 40l13 -48z" />
    <glyph glyph-name="plus" unicode="+" 
d="M517 338l-12 -50h-170l-41 -180h-52l41 180h-170l12 50h170l41 180h52l-41 -180h170z" />
    <glyph glyph-name="comma" unicode="," horiz-adv-x="225" 
d="M147 85l-20 -83q-17 -75 -54 -108q-36 -33 -107 -47l-10 38q57 11 87 40t38 82h-40l20 78h86z" />
    <glyph glyph-name="hyphen" unicode="-" horiz-adv-x="388" 
d="M361 346l-11 -49h-288l11 49h288z" />
    <glyph glyph-name="period" unicode="." horiz-adv-x="202" 
d="M114 85l-19 -85h-82l20 85h81z" />
    <glyph glyph-name="slash" unicode="/" horiz-adv-x="445" 
d="M526 774l-507 -860h-56l507 860h56z" />
    <glyph glyph-name="zero" unicode="0" horiz-adv-x="571" 
d="M537 448q0 -104 -30 -211t-94 -178q-65 -71 -160 -71q-174 0 -174 251q0 103 29 211q30 106 93 178q65 72 161 72q175 0 175 -252zM481 444q0 201 -126 201q-68 2 -120 -59.5t-77 -153t-24 -189.5q0 -200 122 -200q68 -2 121 59.5t79 153t25 188.5z" />
    <glyph glyph-name="one" unicode="1" horiz-adv-x="392" 
d="M363 688l-158 -688h-52l145 628q-39 -32 -82.5 -49t-110.5 -31l10 46q106 22 196 94h52z" />
    <glyph glyph-name="two" unicode="2" horiz-adv-x="609" 
d="M128 51h389l-10 -51h-469l12 52l189 150l73 57q65 50 117 94q90 82 90 164q0 62 -41 95.5t-109 33.5q-77 0 -130 -43.5t-67 -122.5h-58q17 104 92.5 162t171.5 58q85 0 141 -47t56 -132q0 -60 -31 -109q-31 -51 -83 -97q-59 -52 -155 -126z" />
    <glyph glyph-name="three" unicode="3" horiz-adv-x="592" 
d="M404 348q48 -15 79.5 -54.5t31.5 -98.5q0 -89 -70 -147.5t-175 -58.5q-97 0 -157.5 53.5t-60.5 138.5q0 4 2 28h57q-2 -24 -2 -28q0 -62 45.5 -100t120.5 -38q77 0 130 41t53 108q0 61 -44.5 97t-129.5 36h-14l13 51h8q100 0 162 45t62 113q0 53 -40 82.5t-109 29.5
q-76 0 -132 -39q-54 -38 -62 -127h-56q10 107 82.5 163.5t175.5 56.5q90 0 143.5 -41.5t53.5 -117.5q0 -69 -44 -121t-123 -72z" />
    <glyph glyph-name="four" unicode="4" horiz-adv-x="599" 
d="M567 222l-10 -49h-134l-39 -173h-53l40 174h-353l13 56l432 458h80l-108 -466h132zM479 638l-387 -416h290z" />
    <glyph glyph-name="five" unicode="5" horiz-adv-x="572" 
d="M559 688l-12 -51h-293l-69 -237q63 45 140 45q89 0 139 -57q50 -58 50 -145q0 -105 -67.5 -179t-181.5 -74q-95 0 -152.5 54.5t-57.5 142.5q0 17 1 22h55q-1 -5 -1 -21q0 -70 40.5 -107.5t113.5 -37.5q89 0 142 57.5t53 138.5q0 69 -38 111.5t-112 42.5q-79 0 -146 -56
h-46l102 351h340z" />
    <glyph glyph-name="six" unicode="6" horiz-adv-x="619" 
d="M600 520h-55q-2 60 -41.5 93t-106.5 33q-106 0 -177.5 -88.5t-80.5 -245.5q33 62 88 96t127 34q97 0 151.5 -59.5t54.5 -145.5q2 -98 -66.5 -174t-178.5 -74q-111 0 -171 77.5t-60 219.5q-1 179 91 298t228 116q89 0 143 -48.5t54 -131.5zM153 199q0 -66 44.5 -111
t122.5 -45q86 0 135 55.5t49 133.5q0 68 -42 112t-117 44q-86 0 -139 -55.5t-53 -133.5z" />
    <glyph glyph-name="seven" unicode="7" horiz-adv-x="574" 
d="M616 688l-14 -56l-400 -632h-62l401 632h-437l13 56h499z" />
    <glyph glyph-name="eight" unicode="8" horiz-adv-x="582" 
d="M505 195q0 -93 -73 -149.5t-173 -56.5q-89 0 -151.5 45.5t-62.5 125.5q0 79 48 135.5t136 73.5q-101 38 -101 147q0 83 66.5 133.5t157.5 50.5q83 0 142 -42.5t59 -117.5q0 -68 -46 -120q-44 -50 -113 -64q52 -21 81.5 -62.5t29.5 -98.5zM328 388q67 0 118.5 38.5
t51.5 100.5q0 57 -46 88q-44 31 -106 31q-67 0 -115 -36.5t-48 -98.5q0 -60 43 -91q44 -32 102 -32zM450 197q0 63 -46.5 100t-112.5 37q-73 0 -131.5 -44.5t-58.5 -116.5q0 -61 45 -95.5t116 -34.5q79 0 133.5 42.5t54.5 111.5z" />
    <glyph glyph-name="nine" unicode="9" horiz-adv-x="620" 
d="M69 169h55q10 -60 51 -93t107 -33q104 0 171.5 87.5t76.5 246.5q-33 -62 -88 -96t-127 -34q-97 0 -151.5 59.5t-54.5 145.5q-2 98 66.5 174t178.5 74q111 0 171 -77.5t60 -219.5q2 -180 -86 -298t-223 -116q-88 0 -144 48.5t-63 131.5zM516 490q0 66 -44.5 111t-122.5 45
q-86 0 -135 -55.5t-49 -133.5q0 -68 42 -112t117 -44q86 0 139 55.5t53 133.5z" />
    <glyph glyph-name="colon" unicode=":" horiz-adv-x="212" 
d="M114 85l-19 -85h-82l20 85h81zM204 477l-19 -85h-82l20 85h81z" />
    <glyph glyph-name="semicolon" unicode=";" horiz-adv-x="255" 
d="M246 477l-19 -85h-82l20 85h81zM157 85l-20 -83q-17 -75 -54 -108q-36 -33 -107 -47l-10 38q57 11 87 40t38 82h-40l20 78h86z" />
    <glyph glyph-name="less" unicode="&#x3c;" 
d="M569 513l-405 -172l325 -174l-26 -41l-354 190l12 58l430 187z" />
    <glyph glyph-name="equal" unicode="=" 
d="M533 408l-11 -48h-392l11 48h392zM500 266l-11 -48h-392l11 48h392z" />
    <glyph glyph-name="greater" unicode="&#x3e;" 
d="M155 509l26 44l354 -182l-12 -58l-429 -177l-17 47l402 163z" />
    <glyph glyph-name="question" unicode="?" horiz-adv-x="533" 
d="M446 411l-89 -50q-37 -21 -58.5 -50t-33.5 -76l-11 -44h-53l13 52q16 60 43.5 97.5t73.5 62.5l60 33q49 27 74.5 56.5t25.5 69.5q0 49 -38 76t-100 27q-69 0 -114.5 -36t-56.5 -103h-53q14 90 74.5 137.5t153.5 47.5q86 0 138.5 -38t52.5 -108q0 -97 -102 -154zM249 85
l-20 -85h-81l20 85h81z" />
    <glyph glyph-name="at" unicode="@" horiz-adv-x="858" 
d="M841 392q1 -76 -29 -151.5t-84 -124t-113 -46.5q-44 0 -71 26.5t-27 66.5q-29 -46 -73 -71.5t-93 -25.5q-61 0 -94.5 39.5t-33.5 111.5q-2 103 67.5 190.5t170.5 84.5q103 0 123 -85l31 76h58l-104 -262q-10 -24 -10 -45q0 -28 17.5 -46.5t44.5 -18.5q45 -2 86.5 44.5
t64.5 113t22 125.5q0 104 -71.5 166t-190.5 62t-220 -62t-159 -161q-58 -100 -58 -208q0 -117 69.5 -182.5t177.5 -65.5q61 0 125 23l12 -34q-72 -32 -145 -32q-57 0 -107 17t-91 51t-64.5 91t-23.5 130q-3 123 64.5 233.5t181 175.5t240.5 63q135 0 221 -69.5t86 -199.5z
M552 350q0 48 -24.5 75t-67.5 27q-73 2 -130 -74t-55 -159q0 -52 23.5 -81.5t64.5 -29.5q69 -4 130 80.5t59 161.5z" />
    <glyph glyph-name="A" unicode="A" horiz-adv-x="686" 
d="M558 0l-38 205h-350l-124 -205h-63l428 700h66l137 -700h-56zM200 255h311l-74 392z" />
    <glyph glyph-name="B" unicode="B" horiz-adv-x="675" 
d="M602 214q0 -94 -77.5 -154t-204.5 -60h-272l162 700h263q81 0 126 -42t45 -107q0 -59 -40 -111q-38 -51 -108 -71q49 -18 77.5 -58t28.5 -97zM195 395h219q76 0 124.5 45t48.5 104q0 47 -35 76.5t-99 29.5h-199zM540 216q0 62 -37.5 95.5t-104.5 33.5h-215l-67 -295h218
q95 0 150.5 45.5t55.5 120.5z" />
    <glyph glyph-name="C" unicode="C" horiz-adv-x="745" 
d="M374 -18q-133 0 -208 92t-75 231q-1 76 24 149.5t70 133t115.5 95.5t153.5 34q111 0 183 -57.5t73 -158.5h-59q-5 74 -60 118t-142 44q-67 2 -125 -29t-95.5 -82t-58.5 -114.5t-20 -128.5q0 -116 60 -194.5t168 -78.5q86 0 154 51t87 139h61q-24 -111 -109.5 -177.5
t-196.5 -66.5z" />
    <glyph glyph-name="D" unicode="D" horiz-adv-x="701" 
d="M673 409q1 -74 -29 -147.5t-84.5 -132.5t-138 -95t-179.5 -34h-194l162 700h170q138 0 215.5 -83.5t77.5 -207.5zM613 410q0 104 -63.5 172t-176.5 68h-118l-139 -600h126q109 -2 196.5 53t131.5 137.5t43 169.5z" />
    <glyph glyph-name="E" unicode="E" horiz-adv-x="589" 
d="M210 700h419l-11 -50h-364l-63 -271h326l-11 -51h-326l-64 -278h382l-11 -50h-439z" />
    <glyph glyph-name="F" unicode="F" horiz-adv-x="569" 
d="M48 0l162 700h418l-11 -50h-363l-63 -271h335l-12 -51h-334l-76 -328h-56z" />
    <glyph glyph-name="G" unicode="G" horiz-adv-x="751" 
d="M372 296l13 50h292l-79 -346h-52l23 99q-83 -117 -223 -117q-121 0 -189 89.5t-68 223.5q-1 77 24 152.5t70.5 136.5t117.5 98t158 35q112 0 183 -58t72 -158h-58q-5 74 -60 118t-143 44q-93 2 -165 -52t-107 -137t-34 -177q0 -115 54.5 -189.5t153.5 -74.5
q95 0 166.5 68.5t93.5 194.5h-243z" />
    <glyph glyph-name="H" unicode="H" horiz-adv-x="710" 
d="M662 700h57l-161 -700h-57l75 327h-395l-76 -327h-57l162 700h57l-74 -322h395z" />
    <glyph glyph-name="I" unicode="I" horiz-adv-x="268" 
d="M53 0l161 700h58l-161 -700h-58z" />
    <glyph glyph-name="J" unicode="J" horiz-adv-x="499" 
d="M517 700l-122 -534q-21 -91 -75.5 -138t-131.5 -47q-73 0 -122 41q-48 41 -48 110q0 22 6 47l11 47h56l-10 -45q-6 -30 -6 -43q0 -50 30 -78t83 -28q118 0 149 138l123 530h57z" />
    <glyph glyph-name="K" unicode="K" horiz-adv-x="635" 
d="M690 700l-328 -282l201 -418h-63l-183 380l-156 -135l-57 -245h-56l161 700h57l-86 -372l434 372h76z" />
    <glyph glyph-name="L" unicode="L" horiz-adv-x="549" 
d="M48 0l162 700h58l-151 -650h361l-13 -50h-417z" />
    <glyph glyph-name="M" unicode="M" horiz-adv-x="880" 
d="M882 700l-154 -700h-56l145 651l-405 -651h-46l-112 661l-146 -661h-54l155 700h91l105 -619l380 619h97z" />
    <glyph glyph-name="N" unicode="N" horiz-adv-x="719" 
d="M672 700h55l-160 -700h-59l-260 634l-145 -634h-54l160 700h71l251 -619z" />
    <glyph glyph-name="O" unicode="O" horiz-adv-x="781" 
d="M747 390q1 -108 -44 -202t-129 -151t-186 -55q-134 0 -215.5 90t-81.5 237q-1 107 44 201t129 151.5t187 55.5q134 0 215 -90t81 -237zM691 389q0 129 -63.5 202.5t-176.5 73.5q-134 2 -220 -101.5t-84 -253.5q0 -129 63.5 -202.5t176.5 -73.5q134 -2 220 101.5t84 253.5
z" />
    <glyph glyph-name="P" unicode="P" horiz-adv-x="606" 
d="M620 527q0 -90 -70.5 -158t-187.5 -68h-188l-70 -301h-56l162 700h225q87 0 136 -50t49 -123zM563 523q0 56 -37 92.5t-101 36.5h-170l-70 -303h187q87 0 139 52.5t52 121.5z" />
    <glyph glyph-name="Q" unicode="Q" horiz-adv-x="781" 
d="M553 24l67 -151h-58l-58 129q-57 -20 -116 -20q-134 0 -215.5 90t-81.5 237q-1 107 44 201t129 151.5t187 55.5q134 0 215 -90t81 -237q0 -118 -52 -216q-51 -99 -142 -150zM691 389q0 129 -63.5 202.5t-176.5 73.5q-134 2 -220 -101.5t-84 -253.5q0 -129 63.5 -202.5
t176.5 -73.5q51 0 95 15l-99 221h62l87 -198q75 43 117 127.5t42 189.5z" />
    <glyph glyph-name="R" unicode="R" horiz-adv-x="639" 
d="M421 317l136 -317h-62l-132 309h-188l-71 -309h-56l162 700h244q83 0 130.5 -47t47.5 -122q0 -83 -57 -144t-154 -70zM573 522q0 58 -36.5 94t-104.5 36h-177l-69 -296h201q83 0 134.5 49t51.5 117z" />
    <glyph glyph-name="S" unicode="S" horiz-adv-x="608" 
d="M604 526h-59q-3 57 -54 99t-132 42q-77 0 -121.5 -36.5t-44.5 -99.5q0 -39 21 -68q20 -26 50.5 -44.5t91.5 -43.5q63 -26 100 -48q87 -48 87 -145q0 -90 -68 -145t-170 -55q-109 0 -181 59.5t-72 154.5q0 15 1 20h60q-1 -4 -1 -18q0 -72 56 -118t140 -46q78 0 126 39
t48 102q-3 58 -37 87.5t-118 66.5q-71 31 -102 50q-87 51 -87 151q0 86 60 136.5t165 50.5q108 0 172 -53.5t69 -137.5z" />
    <glyph glyph-name="T" unicode="T" horiz-adv-x="621" 
d="M690 700l-11 -50h-245l-149 -650h-58l150 650h-244l11 50h546z" />
    <glyph glyph-name="U" unicode="U" horiz-adv-x="698" 
d="M329 -18q-109 0 -173 57q-65 57 -65 154q0 33 9 70l99 437h56l-98 -432q-9 -39 -9 -71q0 -79 47.5 -120.5t130.5 -41.5q88 0 146 46t77 131l112 488h55l-110 -481q-27 -118 -98.5 -177.5t-178.5 -59.5z" />
    <glyph glyph-name="V" unicode="V" horiz-adv-x="627" 
d="M696 700l-373 -700h-63l-131 700h59l112 -636l334 636h62z" />
    <glyph glyph-name="W" unicode="W" horiz-adv-x="964" 
d="M1023 700l-312 -700h-63l-84 623l-302 -623h-63l-65 700h54l53 -637l302 637h63l85 -636l271 636h61z" />
    <glyph glyph-name="X" unicode="X" horiz-adv-x="639" 
d="M393 350l151 -350h-63l-128 307l-283 -307h-77l336 362l-145 338h63l121 -299l267 299h73z" />
    <glyph glyph-name="Y" unicode="Y" horiz-adv-x="586" 
d="M332 265l-59 -265h-56l61 271l-149 429h58l127 -382l283 382h68z" />
    <glyph glyph-name="Z" unicode="Z" horiz-adv-x="646" 
d="M659 700l-11 -50l-541 -600h448l-11 -50h-516l11 50l540 600h-421l11 50h490z" />
    <glyph glyph-name="bracketleft" unicode="[" horiz-adv-x="333" 
d="M406 787l-9 -38h-130l-198 -862h130l-9 -38h-182l216 938h182z" />
    <glyph glyph-name="backslash" unicode="\" horiz-adv-x="442" 
d="M325 -86h-53l-111 860h54z" />
    <glyph glyph-name="bracketright" unicode="]" horiz-adv-x="333" 
d="M-41 -152l9 38h130l198 862h-130l9 38h182l-216 -938h-182z" />
    <glyph glyph-name="asciicircum" unicode="^" horiz-adv-x="474" 
d="M401 436l-70 208l-166 -208h-62l212 264h51l91 -264h-56z" />
    <glyph glyph-name="underscore" unicode="_" horiz-adv-x="607" 
d="M9 -20h466l-12 -48h-466z" />
    <glyph glyph-name="grave" unicode="`" horiz-adv-x="148" 
d="M187 597l-69 161l57 18l54 -179h-42z" />
    <glyph glyph-name="a" unicode="a" horiz-adv-x="523" 
d="M472 373q0 -21 -6 -48l-75 -325h-54l20 84q-71 -95 -184 -95q-66 0 -104.5 33.5t-38.5 98.5q0 136 169 158l109 14q58 8 82.5 23t27.5 59q0 83 -118 83q-120 0 -152 -94h-59q42 142 213 142q81 0 125.5 -35t44.5 -98zM389 220l11 49q-42 -16 -103 -23l-70 -9
q-70 -9 -106 -33.5t-36 -79.5q0 -87 95 -87q70 0 130 49.5t79 133.5z" />
    <glyph glyph-name="b" unicode="b" horiz-adv-x="587" 
d="M539 297q1 -74 -31 -145.5t-92 -118t-131 -44.5q-61 0 -106 31.5t-66 92.5l-26 -113h-54l165 711h53l-67 -294q67 89 175 89q90 0 135 -60t45 -149zM484 292q0 73 -35 117t-101 44q-91 3 -150 -77t-57 -175q0 -71 37.5 -117t102.5 -46q58 -2 106 37.5t73 98t24 118.5z
" />
    <glyph glyph-name="c" unicode="c" horiz-adv-x="527" 
d="M406 170h53q-17 -84 -76 -132.5t-141 -48.5q-90 0 -139 58.5t-49 154.5q-1 74 28 143t90 116t139 45q82 0 131.5 -45t49.5 -122h-52q0 57 -35.5 87t-94.5 30q-91 2 -146.5 -76t-54.5 -175q0 -76 35.5 -120t105.5 -44q61 0 101 35t55 94z" />
    <glyph glyph-name="d" unicode="d" horiz-adv-x="593" 
d="M615 711l-164 -711h-53l16 78q-27 -40 -73 -64.5t-101 -24.5q-87 0 -136.5 62t-49.5 154q-2 115 72 209.5t184 91.5q69 0 115.5 -35t59.5 -88l77 328h53zM454 279q0 80 -38.5 129t-108.5 49q-57 2 -104 -36.5t-71 -96t-23 -117.5q0 -75 37 -122t104 -47q89 -2 147.5 73.5
t56.5 167.5z" />
    <glyph glyph-name="e" unicode="e" horiz-adv-x="533" 
d="M480 236h-369q-2 -34 -2 -39q0 -71 38 -113.5t103 -42.5q106 0 147 99h56q-26 -74 -81 -112.5t-128 -38.5q-89 0 -139 56.5t-50 152.5q0 134 71 221t185 87q84 0 132.5 -48t48.5 -132q0 -42 -12 -90zM119 285h318q4 17 4 43q0 61 -34 94.5t-96 33.5q-72 0 -122.5 -46.5
t-69.5 -124.5z" />
    <glyph glyph-name="f" unicode="f" horiz-adv-x="330" 
d="M411 711l-10 -49h-55q-44 0 -62.5 -16t-27.5 -57l-20 -93h112l-12 -48h-112l-103 -448h-53l103 448h-85l12 48h84l22 96q16 68 45.5 93.5t91.5 25.5h70z" />
    <glyph glyph-name="g" unicode="g" horiz-adv-x="567" 
d="M549 496l-111 -477q-52 -222 -242 -222q-84 0 -139 42q-57 43 -58 127h51q7 -121 144 -121q94 0 135 51q40 50 55 117l21 89q-57 -84 -157 -84q-83 0 -139 53.5t-56 150.5q-2 113 69.5 200t178.5 84q62 0 108 -28.5t63 -83.5l23 102h54zM441 294q0 78 -38 121.5t-99 43.5
q-76 0 -136.5 -62.5t-60.5 -162.5q0 -81 40.5 -124.5t104.5 -43.5q78 0 133.5 63.5t55.5 164.5z" />
    <glyph glyph-name="h" unicode="h" horiz-adv-x="562" 
d="M511 371q0 -21 -3 -33l-78 -338h-53l74 321q5 25 5 42q0 45 -27 69.5t-76 24.5q-75 0 -131 -55.5t-79 -155.5l-55 -246h-54l163 711h53l-70 -307q74 102 185 102q69 0 107.5 -35.5t38.5 -99.5z" />
    <glyph glyph-name="i" unicode="i" horiz-adv-x="244" 
d="M173 617l19 83h66l-19 -83h-66zM39 0l115 496h53l-115 -496h-53z" />
    <glyph glyph-name="j" unicode="j" horiz-adv-x="237" 
d="M173 617l19 83h66l-19 -83h-66zM154 496h53l-131 -574q-14 -62 -48 -88t-88 -26h-37l11 48h29q63 0 83 80z" />
    <glyph glyph-name="k" unicode="k" horiz-adv-x="511" 
d="M533 496l-245 -212l146 -284h-58l-128 249l-130 -112l-31 -137h-54l165 711h53l-116 -500l324 285h74z" />
    <glyph glyph-name="l" unicode="l" horiz-adv-x="224" 
d="M33 0l165 711h53l-164 -711h-54z" />
    <glyph glyph-name="m" unicode="m" horiz-adv-x="837" 
d="M787 382q0 -18 -5 -46l-77 -336h-53l75 325q5 25 5 38q0 43 -24.5 69.5t-70.5 26.5q-65 0 -112 -51.5t-68 -143.5l-61 -264h-53l74 325q5 22 5 38q0 43 -24 69.5t-70 26.5q-63 0 -111 -53t-69 -141l-61 -265h-54l114 496h50l-17 -78q60 88 161 88q55 0 91 -27.5t42 -77.5
q56 105 171 105q69 0 105.5 -33.5t36.5 -90.5z" />
    <glyph glyph-name="n" unicode="n" horiz-adv-x="562" 
d="M511 371q0 -21 -3 -33l-78 -338h-53l74 321q5 25 5 42q0 45 -27 69.5t-76 24.5q-75 0 -131 -55.5t-79 -155.5l-55 -246h-54l113 496h53l-20 -89q74 99 185 99q69 0 107.5 -35.5t38.5 -99.5z" />
    <glyph glyph-name="o" unicode="o" horiz-adv-x="562" 
d="M57 215q-1 73 27.5 139t87.5 109.5t136 42.5q102 0 151 -66q51 -64 51 -162q1 -115 -68.5 -203t-183.5 -86q-101 0 -151 65t-50 161zM455 272q0 76 -38 129q-37 54 -113 54q-85 0 -138.5 -71t-53.5 -164q0 -76 38 -129q37 -52 113 -52q84 0 138 69.5t54 163.5z" />
    <glyph glyph-name="p" unicode="p" horiz-adv-x="588" 
d="M541 299q1 -74 -31 -144t-92.5 -116t-132.5 -44q-62 0 -106.5 31t-65.5 90l-71 -308h-53l158 688h54l-18 -79q67 89 179 89q88 0 133 -60q46 -58 46 -147zM486 296q0 71 -35.5 114t-103.5 43q-89 2 -148 -74.5t-57 -169.5q0 -74 37 -119.5t103 -45.5q87 -3 146.5 77.5
t57.5 174.5z" />
    <glyph glyph-name="q" unicode="q" horiz-adv-x="582" 
d="M559 496l-159 -688h-55l63 269q-62 -81 -170 -81q-89 0 -138.5 61.5t-49.5 153.5q-2 111 73.5 204.5t184.5 90.5q65 0 111 -32t62 -81l24 103h54zM453 291q0 74 -38.5 120.5t-108.5 46.5q-56 2 -103.5 -36t-73 -94.5t-24.5 -114.5q0 -71 37 -120q38 -48 107 -48
q87 -3 146.5 75t57.5 171z" />
    <glyph glyph-name="r" unicode="r" horiz-adv-x="350" 
d="M148 267l-61 -267h-54l115 496h52l-20 -89q21 47 68 71t110 24h21l-12 -49h-27q-70 0 -120.5 -48.5t-71.5 -137.5z" />
    <glyph glyph-name="s" unicode="s" horiz-adv-x="484" 
d="M415 136q0 -67 -56 -107t-135 -40q-81 0 -138.5 42.5t-58.5 118.5h57q4 -53 45 -82.5t99 -29.5q55 0 93.5 26.5t38.5 67.5q0 33 -24 51.5t-79 34.5q-57 17 -88 31q-80 36 -80 115q0 66 51 104q53 38 129 38q75 0 130 -36q55 -34 58 -106h-56q-7 44 -43.5 68.5t-91.5 24.5
q-54 0 -87.5 -24.5t-33.5 -66.5q3 -40 26.5 -57t87.5 -36l21 -7q71 -23 103 -51t32 -79z" />
    <glyph glyph-name="t" unicode="t" horiz-adv-x="353" 
d="M358 496l-10 -48h-120l-75 -318q-5 -25 -5 -35q0 -46 54 -46h65l-11 -49h-68q-46 0 -71 21.5t-25 59.5q0 18 4 33l78 334h-102l10 48h102l34 146l56 16l-36 -162h120z" />
    <glyph glyph-name="u" unicode="u" horiz-adv-x="558" 
d="M535 496l-115 -496h-53l21 91q-72 -97 -182 -97q-69 0 -106 37t-37 96q0 19 6 49l73 320h53l-72 -315q-6 -24 -6 -47q0 -43 25 -68.5t72 -25.5q69 0 127 53q58 54 81 149l60 254h53z" />
    <glyph glyph-name="v" unicode="v" horiz-adv-x="513" 
d="M545 496l-302 -496h-61l-90 496h52l78 -447l266 447h57z" />
    <glyph glyph-name="w" unicode="w" horiz-adv-x="812" 
d="M839 496l-273 -496h-59l-55 418l-231 -418h-59l-65 496h52l52 -440l236 440h56l53 -440l235 440h58z" />
    <glyph glyph-name="x" unicode="x" horiz-adv-x="525" 
d="M301 246l132 -246h-55l-113 207l-200 -207h-72l246 251l-132 245h58l110 -211l199 211h69z" />
    <glyph glyph-name="y" unicode="y" horiz-adv-x="493" 
d="M474 496h56l-313 -543q-68 -117 -173 -117h-41l11 48h27q45 0 74 22.5t61 75.5l14 23l-103 491h55l84 -431z" />
    <glyph glyph-name="z" unicode="z" horiz-adv-x="502" 
d="M486 449l-392 -400h322l-11 -49h-389l11 49l390 399h-306l12 48h373z" />
    <glyph glyph-name="braceleft" unicode="{" horiz-adv-x="331" 
d="M91 308q87 -20 87 -92q0 -17 -4 -30l-57 -246q-7 -27 -7 -47q0 -28 14.5 -37.5t52.5 -9.5h31l-9 -39h-55q-85 0 -85 82q0 28 6 52l53 225q6 26 6 43q0 33 -19 51.5t-65 31.5l10 43q65 11 92.5 35t42.5 86l59 255q14 61 43 79.5t79 18.5h64l-8 -39h-32q-44 0 -65 -13
t-30 -49l-64 -279q-14 -61 -48.5 -89t-91.5 -32z" />
    <glyph glyph-name="bar" unicode="|" horiz-adv-x="233" 
d="M273 812l-214 -924h-52l214 924h52z" />
    <glyph glyph-name="braceright" unicode="}" horiz-adv-x="332" 
d="M268 307q-87 20 -87 92q0 17 4 30l57 246q7 27 7 47q0 28 -14.5 37.5t-52.5 9.5h-31l9 39h55q85 0 85 -82q0 -28 -6 -52l-53 -225q-6 -26 -6 -43q0 -33 19 -51.5t65 -31.5l-10 -43q-65 -11 -92.5 -35t-42.5 -86l-59 -255q-14 -61 -43 -79.5t-79 -18.5h-64l8 39h32
q44 0 65 13t30 49l64 279q14 61 48.5 89t91.5 32z" />
    <glyph glyph-name="asciitilde" unicode="~" 
d="M412 268q-34 0 -101 39q-57 34 -84 34q-50 0 -65 -69h-42q6 56 34.5 89.5t68.5 33.5q34 0 98 -39q59 -36 87 -36q59 0 65 84h44q-2 -64 -31.5 -100t-73.5 -36z" />
    <glyph glyph-name="exclamdown" unicode="&#xa1;" horiz-adv-x="281" 
d="M139 397l20 85h81l-20 -85h-81zM78 88l56 196h40l-34 -196l-71 -306h-62z" />
    <glyph glyph-name="cent" unicode="&#xa2;" horiz-adv-x="523" 
d="M340 451l-95 -416q66 0 107.5 36t49.5 99h52q-14 -85 -72 -133t-148 -48l-25 -107h-54l27 117q-62 21 -95.5 80t-33.5 141q0 121 67 203.5t179 82.5l22 94h54l-23 -101q58 -14 91 -56t33 -104h-50q-2 42 -27 75t-59 37zM194 48l95 412q-74 0 -129.5 -64t-55.5 -173
q0 -136 90 -175z" />
    <glyph glyph-name="sterling" unicode="&#xa3;" horiz-adv-x="622" 
d="M565 651h-82q-77 0 -100 -103l-30 -128h152l-9 -47h-154l-14 -59q-22 -94 -33 -126q-9 -28 -36 -83q71 -64 131 -64q41 0 72 25t45 74h57q-21 -75 -68 -113t-109 -38q-33 0 -57 10q-23 9 -40 21q-3 2 -52 41q-56 -72 -119 -72q-44 0 -68.5 26t-24.5 66q0 43 27 73t73 30
q51 0 97 -43q30 69 48 151l18 81h-119l9 47h121l32 137q34 143 153 143h91zM203 96q-41 41 -77 41q-24 0 -38.5 -14.5t-14.5 -38.5q0 -22 13 -35.5t36 -13.5q49 0 81 61z" />
    <glyph glyph-name="currency" unicode="&#xa4;" horiz-adv-x="577" 
d="M415 134l60 -104l-47 -30l-60 107q-44 -18 -92 -18q-60 0 -106 33l-126 -122l-38 35l128 123q-34 44 -34 104q0 105 81 167l-58 102l48 30l59 -104q43 17 89 17q64 0 110 -37l127 121l35 -33l-129 -123q33 -47 33 -103q0 -101 -80 -165zM282 136q69 0 116.5 43.5
t47.5 114.5q0 57 -37 94.5t-97 37.5q-69 0 -116 -43t-47 -114q0 -58 36.5 -95.5t96.5 -37.5z" />
    <glyph glyph-name="yen" unicode="&#xa5;" horiz-adv-x="627" 
d="M373 354l-6 -27h173l-12 -47h-171l-22 -93h171l-11 -47h-170l-31 -140h-58l31 140h-172l11 47h171l22 93h-171l11 47h171l4 20l-122 353h57l99 -301l227 301h66z" />
    <glyph glyph-name="brokenbar" unicode="&#xa6;" horiz-adv-x="233" 
d="M131 423l90 389h52l-90 -389h-52zM149 277l-90 -389h-52l90 389h52z" />
    <glyph glyph-name="section" unicode="&#xa7;" horiz-adv-x="538" 
d="M490 357q0 -51 -33.5 -85.5t-91.5 -43.5q71 -26 71 -99q0 -66 -54 -106.5t-140 -40.5q-85 0 -137.5 40t-57.5 116h55q1 -53 39.5 -84t97.5 -31q61 0 101 28t40 73q-4 41 -31 58.5t-98 35.5q-81 21 -114.5 46t-36.5 83q0 50 30 82.5t84 44.5q-65 32 -65 98q0 67 52 104
q53 38 131 38q80 0 132 -39q51 -37 53 -101h-55q-2 46 -37.5 71t-91.5 25q-58 0 -93.5 -25t-35.5 -69q3 -44 31.5 -61t96.5 -31q70 -14 113 -39q45 -25 45 -88zM433 347q0 53 -54 74q-51 22 -106 22q-52 0 -86.5 -25.5t-34.5 -66.5q0 -47 45 -70q48 -23 106 -23
q60 0 95 24.5t35 64.5z" />
    <glyph glyph-name="dieresis" unicode="&#xa8;" horiz-adv-x="250" 
d="M174 673l-18 -76h-75l18 76h75zM348 673l-18 -76h-74l17 76h75z" />
    <glyph glyph-name="copyright" unicode="&#xa9;" horiz-adv-x="859" 
d="M817 350q2 -157 -102 -260t-257 -101q-153 -2 -257 101t-102 260q-2 157 102 260t257 101q153 2 257 -101t102 -260zM770 350q1 141 -88.5 231t-223.5 88q-134 2 -224 -88t-88 -231q-2 -141 88 -231t224 -88q134 -2 223.5 88t88.5 231zM578 298h52q0 -75 -49 -119
t-121 -44q-79 0 -132 57t-53 161q0 106 53.5 161.5t132.5 55.5q71 0 117 -42q48 -42 48 -114h-52q0 48 -31 78t-80 30q-59 0 -97.5 -44t-38.5 -124q0 -79 38.5 -125t95.5 -46q52 0 84.5 31t32.5 84z" />
    <glyph glyph-name="ordfeminine" unicode="&#xaa;" horiz-adv-x="440" 
d="M312 700q61 0 95.5 -27t34.5 -75q0 -20 -7 -48l-56 -242h-51l15 64q-20 -33 -59 -53t-81 -20q-48 0 -79 26.5t-31 74.5q0 50 33 82.5t94 41.5l100 15q37 6 53 17t16 39q0 58 -80 58q-89 0 -113 -68h-54q35 115 170 115zM295 493l-45 -6q-105 -14 -105 -82q0 -59 69 -59
q50 0 94 35q45 36 58 97l7 34q-27 -13 -78 -19z" />
    <glyph glyph-name="guillemotleft" unicode="&#xab;" horiz-adv-x="560" 
d="M133 286l107 -166l-44 -30l-131 203l213 193l33 -43zM348 286l107 -166l-44 -30l-131 203l213 193l33 -43z" />
    <glyph glyph-name="logicalnot" unicode="&#xac;" 
d="M148 288l12 50h322l-53 -230h-52l41 180h-270z" />
    <glyph glyph-name="registered" unicode="&#xae;" horiz-adv-x="561" 
d="M563 487q0 -98 -65.5 -163t-161.5 -65q-97 0 -162.5 65t-65.5 163q0 99 65.5 164.5t162.5 65.5t162 -65.5t65 -164.5zM522 487q0 84 -53 137.5t-133 53.5q-79 0 -133 -53.5t-54 -137.5q0 -82 54 -135.5t133 -53.5q80 0 133 53t53 136zM386 460l53 -83h-48l-49 77h-43v-77
h-42v231h91q40 0 62 -22.5t22 -56.5q0 -51 -46 -69zM299 568v-75h51q18 0 29 10t11 26q0 39 -40 39h-51z" />
    <glyph glyph-name="overscore" unicode="&#xaf;" horiz-adv-x="299" 
d="M92 641h298l-10 -44h-299z" />
    <glyph glyph-name="degree" unicode="&#xb0;" horiz-adv-x="457" 
d="M305 752q73 0 119 -45q47 -45 47 -118q0 -71 -47.5 -117.5t-118.5 -46.5q-67 0 -114 47t-47 117q0 72 46.5 117.5t114.5 45.5zM307 705q-48 0 -79 -32t-31 -83q0 -52 31 -85t79 -33t79.5 33t31.5 85q0 51 -31.5 83t-79.5 32z" />
    <glyph glyph-name="plusminus" unicode="&#xb1;" 
d="M555 498l-12 -50h-170l-41 -180h-52l41 180h-170l12 50h170l41 180h52l-41 -180h170zM477 168l-12 -50h-392l12 50h392z" />
    <glyph glyph-name="uni00B2" unicode="&#xb2;" horiz-adv-x="357" 
d="M120 317h231l-10 -46h-296l10 45l118 91l38 28q45 34 70 55q53 46 53 93q0 32 -22 50.5t-58 18.5q-43 0 -73.5 -25t-37.5 -69h-50q9 67 55 104.5t109 37.5q56 0 91.5 -30t35.5 -80q0 -38 -21 -71q-21 -31 -54 -60q-25 -22 -96 -74z" />
    <glyph glyph-name="uni00B3" unicode="&#xb3;" horiz-adv-x="360" 
d="M294 484q29 -7 47.5 -30.5t18.5 -57.5q0 -57 -47.5 -94.5t-110.5 -37.5q-64 0 -98 34t-34 84q0 18 1 22h52l-1 -19q0 -34 21.5 -54t62.5 -20t70.5 22.5t29.5 59.5q0 32 -23.5 51t-69.5 19h-17l11 46h9q57 0 90.5 23.5t33.5 60.5q0 60 -81 60q-93 0 -103 -89h-51
q7 69 54 102q46 34 103 34q58 0 94.5 -27.5t36.5 -74.5q0 -39 -26.5 -69.5t-72.5 -44.5z" />
    <glyph glyph-name="acute" unicode="&#xb4;" horiz-adv-x="166" 
d="M272 709l-139 -112h-52l150 158z" />
    <glyph glyph-name="paragraph" unicode="&#xb6;" horiz-adv-x="654" 
d="M548 701l-191 -831h-50l98 431h-73q-97 0 -151 53t-54 139q0 89 58.5 148.5t164.5 59.5h198zM662 701l-190 -831h-50l190 831h50zM418 348l69 305h-136q-77 0 -122.5 -48.5t-45.5 -115.5q0 -63 42.5 -102t117.5 -39h75z" />
    <glyph glyph-name="middot" unicode="&#xb7;" horiz-adv-x="202" 
d="M181 375l-19 -85h-82l20 85h81z" />
    <glyph glyph-name="cedilla" unicode="&#xb8;" horiz-adv-x="194" 
d="M108 -118q0 -37 -30 -63.5t-76 -26.5q-59 0 -98 42l25 29q31 -34 73 -34q31 0 49.5 14t18.5 38q0 42 -86 43l18 77h35l-11 -55q82 -5 82 -64z" />
    <glyph glyph-name="uni00B9" unicode="&#xb9;" horiz-adv-x="363" 
d="M224 317h108l-10 -46h-270l10 46h111l73 309q-49 -32 -114 -43l12 49q63 10 119 56h47z" />
    <glyph glyph-name="ordmasculine" unicode="&#xba;" horiz-adv-x="463" 
d="M114 471q0 95 56.5 162t145.5 67q72 0 113 -46.5t41 -125.5q0 -95 -56.5 -162t-145.5 -67q-72 0 -113 46.5t-41 125.5zM417 523q0 60 -28 94.5t-79 34.5q-62 0 -102.5 -52.5t-40.5 -124.5q0 -59 28.5 -93.5t78.5 -34.5q62 0 102.5 51.5t40.5 124.5z" />
    <glyph glyph-name="guillemotright" unicode="&#xbb;" horiz-adv-x="560" 
d="M230 290l-107 166l44 30l131 -203l-213 -193l-33 43zM445 290l-107 166l44 30l131 -203l-213 -193l-33 43z" />
    <glyph glyph-name="onequarter" unicode="&#xbc;" horiz-adv-x="1056" 
d="M910 700l-597 -700h-64l597 700h64zM283 316h108l-10 -46h-270l10 46h111l73 309q-49 -32 -114 -43l12 49q63 10 119 56h47zM828 -1h-51l24 102h-204l10 46l250 269h68l-62 -269h74l-10 -47h-75zM860 357l-196 -210h147z" />
    <glyph glyph-name="onehalf" unicode="&#xbd;" horiz-adv-x="1086" 
d="M713 45h231l-10 -46h-296l10 45l118 91l38 28q45 34 70 55q53 46 53 93q0 32 -22 50.5t-58 18.5q-43 0 -73.5 -25t-37.5 -69h-50q9 67 55 104.5t109 37.5q56 0 91.5 -30t35.5 -80q0 -38 -21 -71q-21 -31 -54 -60q-25 -22 -96 -74zM910 700l-597 -700h-64l597 700h64z
M283 316h108l-10 -46h-270l10 46h111l73 309q-49 -32 -114 -43l12 49q63 10 119 56h47z" />
    <glyph glyph-name="threequarters" unicode="&#xbe;" horiz-adv-x="1088" 
d="M368 484q29 -7 47.5 -30.5t18.5 -57.5q0 -57 -47.5 -94.5t-110.5 -37.5q-64 0 -98 34t-34 84q0 18 1 22h52l-1 -19q0 -34 21.5 -54t62.5 -20t70.5 22.5t29.5 59.5q0 32 -23.5 51t-69.5 19h-17l11 46h9q57 0 90.5 23.5t33.5 60.5q0 60 -81 60q-93 0 -103 -89h-51
q7 69 54 102q46 34 103 34q58 0 94.5 -27.5t36.5 -74.5q0 -39 -26.5 -69.5t-72.5 -44.5zM929 700l-597 -700h-64l597 700h64zM860 -1h-51l24 102h-204l10 46l250 269h68l-62 -269h74l-10 -47h-75zM892 357l-196 -210h147z" />
    <glyph glyph-name="questiondown" unicode="&#xbf;" horiz-adv-x="533" 
d="M297 423l20 85h81l-20 -85h-81zM100 97l89 50q37 21 58.5 50t33.5 76l11 44h53l-13 -52q-16 -60 -43.5 -97.5t-73.5 -62.5l-60 -33q-49 -27 -74.5 -56.5t-25.5 -69.5q0 -49 38 -76t100 -27q69 0 114.5 36t56.5 103h53q-14 -90 -74.5 -137.5t-153.5 -47.5q-86 0 -138.5 38
t-52.5 108q0 97 102 154z" />
    <glyph glyph-name="Agrave" unicode="&#xc0;" horiz-adv-x="686" 
d="M558 0l-38 205h-350l-124 -205h-63l428 700h66l137 -700h-56zM200 255h311l-74 392zM425 776l-68 161l57 18l53 -179h-42z" />
    <glyph glyph-name="Aacute" unicode="&#xc1;" horiz-adv-x="686" 
d="M558 0l-38 205h-350l-124 -205h-63l428 700h66l137 -700h-56zM200 255h311l-74 392zM629 888l-139 -112h-52l150 158z" />
    <glyph glyph-name="Acircumflex" unicode="&#xc2;" horiz-adv-x="686" 
d="M558 0l-38 205h-350l-124 -205h-63l428 700h66l137 -700h-56zM200 255h311l-74 392zM309 776l156 152h36l85 -152h-53l-56 103l-103 -103h-65z" />
    <glyph glyph-name="Atilde" unicode="&#xc3;" horiz-adv-x="686" 
d="M535 776q-27 0 -75 39q-33 27 -47 27q-37 0 -49 -62h-41q5 55 29 86.5t58 31.5q28 0 73 -39q36 -30 52 -30q39 0 46 69h36q0 -55 -23 -88.5t-59 -33.5zM558 0l-38 205h-350l-124 -205h-63l428 700h66l137 -700h-56zM200 255h311l-74 392z" />
    <glyph glyph-name="Adieresis" unicode="&#xc4;" horiz-adv-x="686" 
d="M420 852l-18 -76h-75l18 76h75zM594 852l-18 -76h-74l17 76h75zM558 0l-38 205h-350l-124 -205h-63l428 700h66l137 -700h-56zM200 255h311l-74 392z" />
    <glyph glyph-name="Aring" unicode="&#xc5;" horiz-adv-x="686" 
d="M473 950q39 0 65.5 -25t26.5 -64t-26.5 -65t-65.5 -26q-38 0 -63.5 26t-25.5 65q0 38 26 63.5t63 25.5zM473 915q-22 0 -36.5 -15.5t-14.5 -38.5t14.5 -39.5t36.5 -16.5t37.5 16.5t15.5 39.5q0 22 -15.5 38t-37.5 16zM558 0l-38 205h-350l-124 -205h-63l428 700h66
l137 -700h-56zM200 255h311l-74 392z" />
    <glyph glyph-name="AE" unicode="&#xc6;" horiz-adv-x="969" 
d="M998 650h-364l-63 -271h326l-11 -51h-326l-64 -278h382l-11 -50h-439l51 220h-274l-154 -220h-68l494 700h532zM490 270l89 381h-73l-267 -381h251z" />
    <glyph glyph-name="Ccedilla" unicode="&#xc7;" horiz-adv-x="745" 
d="M619 226h61q-24 -111 -109.5 -177.5t-196.5 -66.5h-16l-7 -36q82 -5 82 -64q0 -37 -30 -63.5t-76 -26.5q-59 0 -98 42l25 29q31 -34 73 -34q31 0 49.5 14t18.5 38q0 42 -86 43l14 62q-110 17 -171 106t-61 213q-1 76 24 149.5t70 133t115.5 95.5t153.5 34
q111 0 183 -57.5t73 -158.5h-59q-5 74 -60 118t-142 44q-67 2 -125 -29t-95.5 -82t-58.5 -114.5t-20 -128.5q0 -116 60 -194.5t168 -78.5q86 0 154 51t87 139z" />
    <glyph glyph-name="Egrave" unicode="&#xc8;" horiz-adv-x="589" 
d="M210 700h419l-11 -50h-364l-63 -271h326l-11 -51h-326l-64 -278h382l-11 -50h-439zM411 776l-68 161l57 18l53 -179h-42z" />
    <glyph glyph-name="Eacute" unicode="&#xc9;" horiz-adv-x="589" 
d="M210 700h419l-11 -50h-364l-63 -271h326l-11 -51h-326l-64 -278h382l-11 -50h-439zM567 888l-139 -112h-52l150 158z" />
    <glyph glyph-name="Ecircumflex" unicode="&#xca;" horiz-adv-x="589" 
d="M210 700h419l-11 -50h-364l-63 -271h326l-11 -51h-326l-64 -278h382l-11 -50h-439zM299 776l156 152h36l85 -152h-53l-56 103l-103 -103h-65z" />
    <glyph glyph-name="Edieresis" unicode="&#xcb;" horiz-adv-x="589" 
d="M210 700h419l-11 -50h-364l-63 -271h326l-11 -51h-326l-64 -278h382l-11 -50h-439zM400 852l-18 -76h-75l18 76h75zM574 852l-18 -76h-74l17 76h75z" />
    <glyph glyph-name="Igrave" unicode="&#xcc;" horiz-adv-x="268" 
d="M53 0l161 700h58l-161 -700h-58zM225 776l-68 161l57 18l53 -179h-42z" />
    <glyph glyph-name="Iacute" unicode="&#xcd;" horiz-adv-x="268" 
d="M53 0l161 700h58l-161 -700h-58zM424 888l-139 -112h-52l150 158z" />
    <glyph glyph-name="Icircumflex" unicode="&#xce;" horiz-adv-x="268" 
d="M53 0l161 700h58l-161 -700h-58zM113 776l156 152h36l85 -152h-53l-56 103l-103 -103h-65z" />
    <glyph glyph-name="Idieresis" unicode="&#xcf;" horiz-adv-x="268" 
d="M53 0l161 700h58l-161 -700h-58zM232 852l-18 -76h-75l18 76h75zM406 852l-18 -76h-74l17 76h75z" />
    <glyph glyph-name="Eth" unicode="&#xd0;" horiz-adv-x="722" 
d="M694 409q1 -74 -29 -147.5t-84.5 -132.5t-138 -95t-179.5 -34h-194l76 329h-107l13 54h107l73 317h170q138 0 215.5 -83.5t77.5 -207.5zM634 410q0 104 -63.5 172t-176.5 68h-118l-62 -267h190l-12 -54h-190l-65 -279h126q109 -2 196.5 53t131.5 137.5t43 169.5z" />
    <glyph glyph-name="Ntilde" unicode="&#xd1;" horiz-adv-x="719" 
d="M672 700h55l-160 -700h-59l-260 634l-145 -634h-54l160 700h71l251 -619zM564 776q-27 0 -75 39q-33 27 -47 27q-37 0 -49 -62h-41q5 55 29 86.5t58 31.5q28 0 73 -39q36 -30 52 -30q39 0 46 69h36q0 -55 -23 -88.5t-59 -33.5z" />
    <glyph glyph-name="Ograve" unicode="&#xd2;" horiz-adv-x="781" 
d="M747 390q1 -108 -44 -202t-129 -151t-186 -55q-134 0 -215.5 90t-81.5 237q-1 107 44 201t129 151.5t187 55.5q134 0 215 -90t81 -237zM691 389q0 129 -63.5 202.5t-176.5 73.5q-134 2 -220 -101.5t-84 -253.5q0 -129 63.5 -202.5t176.5 -73.5q134 -2 220 101.5t84 253.5
zM457 776l-68 161l57 18l53 -179h-42z" />
    <glyph glyph-name="Oacute" unicode="&#xd3;" horiz-adv-x="781" 
d="M747 390q1 -108 -44 -202t-129 -151t-186 -55q-134 0 -215.5 90t-81.5 237q-1 107 44 201t129 151.5t187 55.5q134 0 215 -90t81 -237zM691 389q0 129 -63.5 202.5t-176.5 73.5q-134 2 -220 -101.5t-84 -253.5q0 -129 63.5 -202.5t176.5 -73.5q134 -2 220 101.5t84 253.5
zM647 888l-139 -112h-52l150 158z" />
    <glyph glyph-name="Ocircumflex" unicode="&#xd4;" horiz-adv-x="781" 
d="M747 390q1 -108 -44 -202t-129 -151t-186 -55q-134 0 -215.5 90t-81.5 237q-1 107 44 201t129 151.5t187 55.5q134 0 215 -90t81 -237zM691 389q0 129 -63.5 202.5t-176.5 73.5q-134 2 -220 -101.5t-84 -253.5q0 -129 63.5 -202.5t176.5 -73.5q134 -2 220 101.5t84 253.5
zM355 776l156 152h36l85 -152h-53l-56 103l-103 -103h-65z" />
    <glyph glyph-name="Otilde" unicode="&#xd5;" horiz-adv-x="781" 
d="M747 390q1 -108 -44 -202t-129 -151t-186 -55q-134 0 -215.5 90t-81.5 237q-1 107 44 201t129 151.5t187 55.5q134 0 215 -90t81 -237zM691 389q0 129 -63.5 202.5t-176.5 73.5q-134 2 -220 -101.5t-84 -253.5q0 -129 63.5 -202.5t176.5 -73.5q134 -2 220 101.5t84 253.5
zM555 776q-27 0 -75 39q-33 27 -47 27q-37 0 -49 -62h-41q5 55 29 86.5t58 31.5q28 0 73 -39q36 -30 52 -30q39 0 46 69h36q0 -55 -23 -88.5t-59 -33.5z" />
    <glyph glyph-name="Odieresis" unicode="&#xd6;" horiz-adv-x="781" 
d="M747 390q1 -108 -44 -202t-129 -151t-186 -55q-134 0 -215.5 90t-81.5 237q-1 107 44 201t129 151.5t187 55.5q134 0 215 -90t81 -237zM691 389q0 129 -63.5 202.5t-176.5 73.5q-134 2 -220 -101.5t-84 -253.5q0 -129 63.5 -202.5t176.5 -73.5q134 -2 220 101.5t84 253.5
zM474 852l-18 -76h-75l18 76h75zM648 852l-18 -76h-74l17 76h75z" />
    <glyph glyph-name="multiply" unicode="&#xd7;" 
d="M508 439l-157 -127l97 -127l-43 -34l-97 126l-158 -128l-28 38l157 127l-97 127l43 34l97 -126l158 128z" />
    <glyph glyph-name="Oslash" unicode="&#xd8;" horiz-adv-x="781" 
d="M747 390q1 -108 -44 -202t-129 -151t-186 -55q-97 0 -171 50l-49 -68l-37 28l51 70q-91 91 -91 247q-1 107 44 201t129 151.5t187 55.5q96 0 170 -50l50 70l37 -28l-52 -71q91 -91 91 -248zM213 105l377 520q-56 40 -139 40q-134 2 -220 -101.5t-84 -253.5
q0 -132 66 -205zM691 389q0 131 -66 205l-377 -520q56 -40 139 -40q134 -2 220 101.5t84 253.5z" />
    <glyph glyph-name="Ugrave" unicode="&#xd9;" horiz-adv-x="698" 
d="M329 -18q-109 0 -173 57q-65 57 -65 154q0 33 9 70l99 437h56l-98 -432q-9 -39 -9 -71q0 -79 47.5 -120.5t130.5 -41.5q88 0 146 46t77 131l112 488h55l-110 -481q-27 -118 -98.5 -177.5t-178.5 -59.5zM439 776l-68 161l57 18l53 -179h-42z" />
    <glyph glyph-name="Uacute" unicode="&#xda;" horiz-adv-x="698" 
d="M329 -18q-109 0 -173 57q-65 57 -65 154q0 33 9 70l99 437h56l-98 -432q-9 -39 -9 -71q0 -79 47.5 -120.5t130.5 -41.5q88 0 146 46t77 131l112 488h55l-110 -481q-27 -118 -98.5 -177.5t-178.5 -59.5zM604 888l-139 -112h-52l150 158z" />
    <glyph glyph-name="Ucircumflex" unicode="&#xdb;" horiz-adv-x="698" 
d="M329 -18q-109 0 -173 57q-65 57 -65 154q0 33 9 70l99 437h56l-98 -432q-9 -39 -9 -71q0 -79 47.5 -120.5t130.5 -41.5q88 0 146 46t77 131l112 488h55l-110 -481q-27 -118 -98.5 -177.5t-178.5 -59.5zM325 776l156 152h36l85 -152h-53l-56 103l-103 -103h-65z" />
    <glyph glyph-name="Udieresis" unicode="&#xdc;" horiz-adv-x="698" 
d="M329 -18q-109 0 -173 57q-65 57 -65 154q0 33 9 70l99 437h56l-98 -432q-9 -39 -9 -71q0 -79 47.5 -120.5t130.5 -41.5q88 0 146 46t77 131l112 488h55l-110 -481q-27 -118 -98.5 -177.5t-178.5 -59.5zM440 852l-18 -76h-75l18 76h75zM614 852l-18 -76h-74l17 76h75z" />
    <glyph glyph-name="Yacute" unicode="&#xdd;" horiz-adv-x="586" 
d="M332 265l-59 -265h-56l61 271l-149 429h58l127 -382l283 382h68zM544 888l-139 -112h-52l150 158z" />
    <glyph glyph-name="Thorn" unicode="&#xde;" horiz-adv-x="596" 
d="M589 434q2 -88 -70.5 -158t-188.5 -68h-177l-49 -208h-56l165 711h56l-25 -105h160q87 0 136 -50t49 -122zM532 430q0 56 -37 92.5t-101 36.5h-161l-70 -303h177q86 0 139 53t53 121z" />
    <glyph glyph-name="germandbls" unicode="&#xdf;" horiz-adv-x="607" 
d="M540 196q0 -78 -61.5 -137t-164.5 -59h-83l10 48h73q75 0 123 42t48 100q0 56 -49 99t-129 44l12 50q91 12 143 53.5t52 105.5q0 54 -37 86.5t-98 32.5q-63 0 -109 -35.5t-61 -99.5l-122 -526h-54l125 536q20 85 80 130.5t146 45.5q84 0 134.5 -43.5t50.5 -118.5
q0 -78 -51 -127q-50 -49 -114 -66q64 -15 100 -59t36 -102z" />
    <glyph glyph-name="agrave" unicode="&#xe0;" horiz-adv-x="523" 
d="M472 373q0 -21 -6 -48l-75 -325h-54l20 84q-71 -95 -184 -95q-66 0 -104.5 33.5t-38.5 98.5q0 136 169 158l109 14q58 8 82.5 23t27.5 59q0 83 -118 83q-120 0 -152 -94h-59q42 142 213 142q81 0 125.5 -35t44.5 -98zM389 220l11 49q-42 -16 -103 -23l-70 -9
q-70 -9 -106 -33.5t-36 -79.5q0 -87 95 -87q70 0 130 49.5t79 133.5zM323 597l-69 161l57 18l54 -179h-42z" />
    <glyph glyph-name="aacute" unicode="&#xe1;" horiz-adv-x="523" 
d="M472 373q0 -21 -6 -48l-75 -325h-54l20 84q-71 -95 -184 -95q-66 0 -104.5 33.5t-38.5 98.5q0 136 169 158l109 14q58 8 82.5 23t27.5 59q0 83 -118 83q-120 0 -152 -94h-59q42 142 213 142q81 0 125.5 -35t44.5 -98zM389 220l11 49q-42 -16 -103 -23l-70 -9
q-70 -9 -106 -33.5t-36 -79.5q0 -87 95 -87q70 0 130 49.5t79 133.5zM496 709l-139 -112h-52l150 158z" />
    <glyph glyph-name="acircumflex" unicode="&#xe2;" horiz-adv-x="523" 
d="M472 373q0 -21 -6 -48l-75 -325h-54l20 84q-71 -95 -184 -95q-66 0 -104.5 33.5t-38.5 98.5q0 136 169 158l109 14q58 8 82.5 23t27.5 59q0 83 -118 83q-120 0 -152 -94h-59q42 142 213 142q81 0 125.5 -35t44.5 -98zM389 220l11 49q-42 -16 -103 -23l-70 -9
q-70 -9 -106 -33.5t-36 -79.5q0 -87 95 -87q70 0 130 49.5t79 133.5zM200 597l156 152h36l85 -152h-53l-56 103l-103 -103h-65z" />
    <glyph glyph-name="atilde" unicode="&#xe3;" horiz-adv-x="523" 
d="M472 373q0 -21 -6 -48l-75 -325h-54l20 84q-71 -95 -184 -95q-66 0 -104.5 33.5t-38.5 98.5q0 136 169 158l109 14q58 8 82.5 23t27.5 59q0 83 -118 83q-120 0 -152 -94h-59q42 142 213 142q81 0 125.5 -35t44.5 -98zM389 220l11 49q-42 -16 -103 -23l-70 -9
q-70 -9 -106 -33.5t-36 -79.5q0 -87 95 -87q70 0 130 49.5t79 133.5zM422 597q-27 0 -75 39q-33 27 -47 27q-37 0 -49 -62h-41q5 54 29 85.5t58 31.5q26 0 73 -38q36 -30 52 -30q39 0 46 68h36q0 -55 -23 -88t-59 -33z" />
    <glyph glyph-name="adieresis" unicode="&#xe4;" horiz-adv-x="523" 
d="M472 373q0 -21 -6 -48l-75 -325h-54l20 84q-71 -95 -184 -95q-66 0 -104.5 33.5t-38.5 98.5q0 136 169 158l109 14q58 8 82.5 23t27.5 59q0 83 -118 83q-120 0 -152 -94h-59q42 142 213 142q81 0 125.5 -35t44.5 -98zM389 220l11 49q-42 -16 -103 -23l-70 -9
q-70 -9 -106 -33.5t-36 -79.5q0 -87 95 -87q70 0 130 49.5t79 133.5zM323 673l-18 -76h-75l18 76h75zM497 673l-18 -76h-74l17 76h75z" />
    <glyph glyph-name="aring" unicode="&#xe5;" horiz-adv-x="523" 
d="M472 373q0 -21 -6 -48l-75 -325h-54l20 84q-71 -95 -184 -95q-66 0 -104.5 33.5t-38.5 98.5q0 136 169 158l109 14q58 8 82.5 23t27.5 59q0 83 -118 83q-120 0 -152 -94h-59q42 142 213 142q81 0 125.5 -35t44.5 -98zM389 220l11 49q-42 -16 -103 -23l-70 -9
q-70 -9 -106 -33.5t-36 -79.5q0 -87 95 -87q70 0 130 49.5t79 133.5zM374 777q39 0 65 -25t26 -64t-26 -65t-65 -26q-38 0 -63.5 26t-25.5 65q0 38 26 63.5t63 25.5zM374 742q-21 0 -36 -16t-15 -38q0 -23 14.5 -39.5t36.5 -16.5t37 16.5t15 39.5q0 22 -15 38t-37 16z" />
    <glyph glyph-name="ae" unicode="&#xe6;" horiz-adv-x="873" 
d="M820 236h-369q-2 -34 -2 -39q0 -72 38 -114t106 -42q103 0 144 99h56q-26 -74 -81 -112.5t-128 -38.5q-72 0 -119.5 38t-62.5 105q-35 -70 -96.5 -106.5t-132.5 -36.5q-66 0 -104.5 33.5t-38.5 98.5q0 136 169 158l109 14q58 8 82.5 23t27.5 59q0 83 -118 83
q-120 0 -152 -94h-59q42 142 213 142q134 0 163 -93q70 93 188 93q83 0 131 -48t48 -132q0 -42 -12 -90zM459 285h318q4 17 4 43q0 61 -34 94.5t-96 33.5q-72 0 -122.5 -46.5t-69.5 -124.5zM389 220l11 49q-48 -16 -103 -23l-70 -9q-70 -9 -106 -33.5t-36 -79.5
q0 -87 95 -87q70 0 130 49.5t79 133.5z" />
    <glyph glyph-name="ccedilla" unicode="&#xe7;" horiz-adv-x="529" 
d="M406 170h53q-16 -81 -73 -130t-136 -51l-9 -43q82 -5 82 -64q0 -37 -30 -63.5t-76 -26.5q-59 0 -98 42l25 29q31 -34 73 -34q31 0 49.5 14t18.5 38q0 42 -86 43l16 67q-77 9 -119 66t-42 145q-1 74 28 143t90 116t139 45q82 0 131.5 -45t49.5 -122h-52q0 57 -35.5 87
t-94.5 30q-91 2 -146.5 -76t-54.5 -175q0 -76 35.5 -120t105.5 -44q61 0 101 35t55 94z" />
    <glyph glyph-name="egrave" unicode="&#xe8;" horiz-adv-x="533" 
d="M480 236h-369q-2 -34 -2 -39q0 -71 38 -113.5t103 -42.5q106 0 147 99h56q-26 -74 -81 -112.5t-128 -38.5q-89 0 -139 56.5t-50 152.5q0 134 71 221t185 87q84 0 132.5 -48t48.5 -132q0 -42 -12 -90zM119 285h318q4 17 4 43q0 61 -34 94.5t-96 33.5q-72 0 -122.5 -46.5
t-69.5 -124.5zM311 597l-69 161l57 18l54 -179h-42z" />
    <glyph glyph-name="eacute" unicode="&#xe9;" horiz-adv-x="533" 
d="M480 236h-369q-2 -34 -2 -39q0 -71 38 -113.5t103 -42.5q106 0 147 99h56q-26 -74 -81 -112.5t-128 -38.5q-89 0 -139 56.5t-50 152.5q0 134 71 221t185 87q84 0 132.5 -48t48.5 -132q0 -42 -12 -90zM119 285h318q4 17 4 43q0 61 -34 94.5t-96 33.5q-72 0 -122.5 -46.5
t-69.5 -124.5zM498 709l-139 -112h-52l150 158z" />
    <glyph glyph-name="ecircumflex" unicode="&#xea;" horiz-adv-x="533" 
d="M480 236h-369q-2 -34 -2 -39q0 -71 38 -113.5t103 -42.5q106 0 147 99h56q-26 -74 -81 -112.5t-128 -38.5q-89 0 -139 56.5t-50 152.5q0 134 71 221t185 87q84 0 132.5 -48t48.5 -132q0 -42 -12 -90zM119 285h318q4 17 4 43q0 61 -34 94.5t-96 33.5q-72 0 -122.5 -46.5
t-69.5 -124.5zM201 597l156 152h36l85 -152h-53l-56 103l-103 -103h-65z" />
    <glyph glyph-name="edieresis" unicode="&#xeb;" horiz-adv-x="533" 
d="M480 236h-369q-2 -34 -2 -39q0 -71 38 -113.5t103 -42.5q106 0 147 99h56q-26 -74 -81 -112.5t-128 -38.5q-89 0 -139 56.5t-50 152.5q0 134 71 221t185 87q84 0 132.5 -48t48.5 -132q0 -42 -12 -90zM119 285h318q4 17 4 43q0 61 -34 94.5t-96 33.5q-72 0 -122.5 -46.5
t-69.5 -124.5zM306 673l-18 -76h-75l18 76h75zM480 673l-18 -76h-74l17 76h75z" />
    <glyph glyph-name="igrave" unicode="&#xec;" horiz-adv-x="242" 
d="M37 0l115 496h53l-115 -496h-53zM166 597l-69 161l57 18l54 -179h-42z" />
    <glyph glyph-name="iacute" unicode="&#xed;" horiz-adv-x="242" 
d="M37 0l115 496h53l-115 -496h-53zM362 709l-139 -112h-52l150 158z" />
    <glyph glyph-name="icircumflex" unicode="&#xee;" horiz-adv-x="242" 
d="M37 0l115 496h53l-115 -496h-53zM56 597l156 152h36l85 -152h-53l-56 103l-103 -103h-65z" />
    <glyph glyph-name="idieresis" unicode="&#xef;" horiz-adv-x="242" 
d="M37 0l115 496h53l-115 -496h-53zM176 673l-18 -76h-75l18 76h75zM350 673l-18 -76h-74l17 76h75z" />
    <glyph glyph-name="eth" unicode="&#xf0;" horiz-adv-x="591" 
d="M557 398q1 -188 -82.5 -299.5t-207.5 -109.5q-90 0 -150.5 59t-60.5 158q0 105 65.5 170t165.5 65q72 0 130.5 -42t71.5 -111q13 66 13 128q0 109 -46 170l-101 -71l-30 43l93 64q-37 25 -88 25q-59 0 -100.5 -32.5t-52.5 -84.5h-57q17 80 71 125t134 45q86 0 141 -44
l78 54v-62l-42 -30q55 -74 55 -220zM449 222q0 77 -48 121.5t-115 44.5q-71 0 -122.5 -48t-51.5 -128t47 -126t115 -46q71 0 123 49.5t52 132.5z" />
    <glyph glyph-name="ntilde" unicode="&#xf1;" horiz-adv-x="562" 
d="M511 371q0 -21 -3 -33l-78 -338h-53l74 321q5 25 5 42q0 45 -27 69.5t-76 24.5q-75 0 -131 -55.5t-79 -155.5l-55 -246h-54l113 496h53l-20 -89q74 99 185 99q69 0 107.5 -35.5t38.5 -99.5zM447 597q-27 0 -75 39q-33 27 -47 27q-37 0 -49 -62h-41q5 54 29 85.5t58 31.5
q26 0 73 -38q36 -30 52 -30q39 0 46 68h36q0 -55 -23 -88t-59 -33z" />
    <glyph glyph-name="ograve" unicode="&#xf2;" horiz-adv-x="562" 
d="M57 215q-1 73 27.5 139t87.5 109.5t136 42.5q102 0 151 -66q51 -64 51 -162q1 -115 -68.5 -203t-183.5 -86q-101 0 -151 65t-50 161zM455 272q0 76 -38 129q-37 54 -113 54q-85 0 -138.5 -71t-53.5 -164q0 -76 38 -129q37 -52 113 -52q84 0 138 69.5t54 163.5zM329 597
l-69 161l57 18l54 -179h-42z" />
    <glyph glyph-name="oacute" unicode="&#xf3;" horiz-adv-x="562" 
d="M57 215q-1 73 27.5 139t87.5 109.5t136 42.5q102 0 151 -66q51 -64 51 -162q1 -115 -68.5 -203t-183.5 -86q-101 0 -151 65t-50 161zM455 272q0 76 -38 129q-37 54 -113 54q-85 0 -138.5 -71t-53.5 -164q0 -76 38 -129q37 -52 113 -52q84 0 138 69.5t54 163.5zM493 709
l-139 -112h-52l150 158z" />
    <glyph glyph-name="ocircumflex" unicode="&#xf4;" horiz-adv-x="562" 
d="M57 215q-1 73 27.5 139t87.5 109.5t136 42.5q102 0 151 -66q51 -64 51 -162q1 -115 -68.5 -203t-183.5 -86q-101 0 -151 65t-50 161zM455 272q0 76 -38 129q-37 54 -113 54q-85 0 -138.5 -71t-53.5 -164q0 -76 38 -129q37 -52 113 -52q84 0 138 69.5t54 163.5zM193 597
l156 152h36l85 -152h-53l-56 103l-103 -103h-65z" />
    <glyph glyph-name="otilde" unicode="&#xf5;" horiz-adv-x="562" 
d="M57 215q-1 73 27.5 139t87.5 109.5t136 42.5q102 0 151 -66q51 -64 51 -162q1 -115 -68.5 -203t-183.5 -86q-101 0 -151 65t-50 161zM455 272q0 76 -38 129q-37 54 -113 54q-85 0 -138.5 -71t-53.5 -164q0 -76 38 -129q37 -52 113 -52q84 0 138 69.5t54 163.5zM425 597
q-27 0 -75 39q-33 27 -47 27q-37 0 -49 -62h-41q5 54 29 85.5t58 31.5q26 0 73 -38q36 -30 52 -30q39 0 46 68h36q0 -55 -23 -88t-59 -33z" />
    <glyph glyph-name="odieresis" unicode="&#xf6;" horiz-adv-x="562" 
d="M57 215q-1 73 27.5 139t87.5 109.5t136 42.5q102 0 151 -66q51 -64 51 -162q1 -115 -68.5 -203t-183.5 -86q-101 0 -151 65t-50 161zM455 272q0 76 -38 129q-37 54 -113 54q-85 0 -138.5 -71t-53.5 -164q0 -76 38 -129q37 -52 113 -52q84 0 138 69.5t54 163.5zM314 673
l-18 -76h-75l18 76h75zM488 673l-18 -76h-74l17 76h75z" />
    <glyph glyph-name="divide" unicode="&#xf7;" 
d="M394 501l-17 -77h-74l18 77h73zM517 338l-12 -50h-392l12 50h392zM329 202l-17 -77h-74l18 77h73z" />
    <glyph glyph-name="oslash" unicode="&#xf8;" horiz-adv-x="562" 
d="M510 278q1 -115 -68.5 -203t-183.5 -86q-66 0 -112 30l-50 -69l-37 28l52 72q-54 62 -54 165q-1 73 27.5 139t87.5 109.5t136 42.5q68 0 112 -31l48 66l37 -27l-50 -69q55 -61 55 -167zM146 98l241 332q-32 25 -83 25q-85 0 -138.5 -71t-53.5 -164q0 -73 34 -122z
M455 272q0 75 -35 125l-241 -333q34 -25 84 -25q84 0 138 69.5t54 163.5z" />
    <glyph glyph-name="ugrave" unicode="&#xf9;" horiz-adv-x="558" 
d="M535 496l-115 -496h-53l21 91q-72 -97 -182 -97q-69 0 -106 37t-37 96q0 19 6 49l73 320h53l-72 -315q-6 -24 -6 -47q0 -43 25 -68.5t72 -25.5q69 0 127 53q58 54 81 149l60 254h53zM320 597l-69 161l57 18l54 -179h-42z" />
    <glyph glyph-name="uacute" unicode="&#xfa;" horiz-adv-x="558" 
d="M535 496l-115 -496h-53l21 91q-72 -97 -182 -97q-69 0 -106 37t-37 96q0 19 6 49l73 320h53l-72 -315q-6 -24 -6 -47q0 -43 25 -68.5t72 -25.5q69 0 127 53q58 54 81 149l60 254h53zM478 709l-139 -112h-52l150 158z" />
    <glyph glyph-name="ucircumflex" unicode="&#xfb;" horiz-adv-x="558" 
d="M535 496l-115 -496h-53l21 91q-72 -97 -182 -97q-69 0 -106 37t-37 96q0 19 6 49l73 320h53l-72 -315q-6 -24 -6 -47q0 -43 25 -68.5t72 -25.5q69 0 127 53q58 54 81 149l60 254h53zM218 597l156 152h36l85 -152h-53l-56 103l-103 -103h-65z" />
    <glyph glyph-name="udieresis" unicode="&#xfc;" horiz-adv-x="558" 
d="M535 496l-115 -496h-53l21 91q-72 -97 -182 -97q-69 0 -106 37t-37 96q0 19 6 49l73 320h53l-72 -315q-6 -24 -6 -47q0 -43 25 -68.5t72 -25.5q69 0 127 53q58 54 81 149l60 254h53zM314 673l-18 -76h-75l18 76h75zM488 673l-18 -76h-74l17 76h75z" />
    <glyph glyph-name="yacute" unicode="&#xfd;" horiz-adv-x="493" 
d="M474 496h56l-313 -543q-68 -117 -173 -117h-41l11 48h27q45 0 74 22.5t61 75.5l14 23l-103 491h55l84 -431zM448 709l-139 -112h-52l150 158z" />
    <glyph glyph-name="thorn" unicode="&#xfe;" horiz-adv-x="588" 
d="M541 299q1 -74 -31 -144t-92.5 -116t-132.5 -44q-62 0 -106.5 30.5t-65.5 89.5l-71 -307h-53l208 903h54l-68 -294q67 89 179 89q88 0 133 -60q46 -58 46 -147zM486 296q0 71 -35.5 114t-103.5 43q-89 2 -148 -74.5t-57 -169.5q0 -74 37 -119.5t103 -45.5
q87 -3 146.5 77.5t57.5 174.5z" />
    <glyph glyph-name="ydieresis" unicode="&#xff;" horiz-adv-x="493" 
d="M474 496h56l-313 -543q-68 -117 -173 -117h-41l11 48h27q45 0 74 22.5t61 75.5l14 23l-103 491h55l84 -431zM295 673l-18 -76h-75l18 76h75zM469 673l-18 -76h-74l17 76h75z" />
    <glyph glyph-name="Amacron" unicode="&#x100;" horiz-adv-x="686" 
d="M558 0l-38 205h-350l-124 -205h-63l428 700h66l137 -700h-56zM200 255h311l-74 392zM320 820h299l-10 -44h-299z" />
    <glyph glyph-name="amacron" unicode="&#x101;" horiz-adv-x="523" 
d="M472 373q0 -21 -6 -48l-75 -325h-54l20 84q-71 -95 -184 -95q-66 0 -104.5 33.5t-38.5 98.5q0 136 169 158l109 14q58 8 82.5 23t27.5 59q0 83 -118 83q-120 0 -152 -94h-59q42 142 213 142q81 0 125.5 -35t44.5 -98zM389 220l11 49q-42 -16 -103 -23l-70 -9
q-70 -9 -106 -33.5t-36 -79.5q0 -87 95 -87q70 0 130 49.5t79 133.5zM211 641h298l-10 -44h-299z" />
    <glyph glyph-name="Abreve" unicode="&#x102;" horiz-adv-x="686" 
d="M558 0l-38 205h-350l-124 -205h-63l428 700h66l137 -700h-56zM200 255h311l-74 392zM593 900q0 -46 -33.5 -85t-94.5 -39q-44 0 -66.5 21t-22.5 55q0 33 18 62h42q-14 -31 -14 -53q0 -46 50 -46q36 0 54.5 25.5t18.5 62.5v11h47q1 -3 1 -14z" />
    <glyph glyph-name="abreve" unicode="&#x103;" horiz-adv-x="523" 
d="M472 373q0 -21 -6 -48l-75 -325h-54l20 84q-71 -95 -184 -95q-66 0 -104.5 33.5t-38.5 98.5q0 136 169 158l109 14q58 8 82.5 23t27.5 59q0 83 -118 83q-120 0 -152 -94h-59q42 142 213 142q81 0 125.5 -35t44.5 -98zM389 220l11 49q-42 -16 -103 -23l-70 -9
q-70 -9 -106 -33.5t-36 -79.5q0 -87 95 -87q70 0 130 49.5t79 133.5zM473 721q0 -46 -33.5 -85t-94.5 -39q-44 0 -66.5 21t-22.5 55q0 33 17 62h43q-15 -35 -15 -53q0 -46 51 -46q36 0 54.5 25.5t18.5 62.5v11h47q1 -3 1 -14z" />
    <glyph glyph-name="Aogonek" unicode="&#x104;" horiz-adv-x="730" 
d="M630 -122l-10 -42q-47 4 -78.5 30t-31.5 62q0 49 47 76l-37 201h-350l-124 -205h-63l428 700h66l136 -693h1l-1 -1l1 -6h-12q-44 -30 -44 -67q0 -23 20.5 -37.5t51.5 -17.5zM200 255h311l-74 392z" />
    <glyph glyph-name="aogonek" unicode="&#x105;" horiz-adv-x="524" 
d="M336 -67q0 -23 20.5 -37.5t51.5 -17.5l-10 -42q-47 4 -78.5 30t-31.5 62q0 50 50 78l19 78q-71 -95 -184 -95q-66 0 -104.5 33.5t-38.5 98.5q0 136 169 158l109 14q58 8 82.5 23t27.5 59q0 83 -118 83q-120 0 -152 -94h-59q42 142 213 142q81 0 125.5 -35t44.5 -98
q0 -21 -6 -48l-75 -325h-11q-44 -30 -44 -67zM389 220l11 49q-42 -16 -103 -23l-70 -9q-70 -9 -106 -33.5t-36 -79.5q0 -87 95 -87q70 0 130 49.5t79 133.5z" />
    <glyph glyph-name="Cacute" unicode="&#x106;" horiz-adv-x="745" 
d="M374 -18q-133 0 -208 92t-75 231q-1 76 24 149.5t70 133t115.5 95.5t153.5 34q111 0 183 -57.5t73 -158.5h-59q-5 74 -60 118t-142 44q-67 2 -125 -29t-95.5 -82t-58.5 -114.5t-20 -128.5q0 -116 60 -194.5t168 -78.5q86 0 154 51t87 139h61q-24 -111 -109.5 -177.5
t-196.5 -66.5zM641 888l-139 -112h-52l150 158z" />
    <glyph glyph-name="cacute" unicode="&#x107;" horiz-adv-x="529" 
d="M406 170h53q-17 -84 -76 -132.5t-141 -48.5q-90 0 -139 58.5t-49 154.5q-1 74 28 143t90 116t139 45q82 0 131.5 -45t49.5 -122h-52q0 57 -35.5 87t-94.5 30q-91 2 -146.5 -76t-54.5 -175q0 -76 35.5 -120t105.5 -44q61 0 101 35t55 94zM498 709l-139 -112h-52l150 158z
" />
    <glyph glyph-name="Ccircumflex" unicode="&#x108;" horiz-adv-x="745" 
d="M374 -18q-133 0 -208 92t-75 231q-1 76 24 149.5t70 133t115.5 95.5t153.5 34q111 0 183 -57.5t73 -158.5h-59q-5 74 -60 118t-142 44q-67 2 -125 -29t-95.5 -82t-58.5 -114.5t-20 -128.5q0 -116 60 -194.5t168 -78.5q86 0 154 51t87 139h61q-24 -111 -109.5 -177.5
t-196.5 -66.5zM343 776l156 152h36l85 -152h-53l-56 103l-103 -103h-65z" />
    <glyph glyph-name="ccircumflex" unicode="&#x109;" horiz-adv-x="529" 
d="M406 170h53q-17 -84 -76 -132.5t-141 -48.5q-90 0 -139 58.5t-49 154.5q-1 74 28 143t90 116t139 45q82 0 131.5 -45t49.5 -122h-52q0 57 -35.5 87t-94.5 30q-91 2 -146.5 -76t-54.5 -175q0 -76 35.5 -120t105.5 -44q61 0 101 35t55 94zM207 597l156 152h36l85 -152h-53
l-56 103l-103 -103h-65z" />
    <glyph glyph-name="Cdotaccent" unicode="&#x10a;" horiz-adv-x="745" 
d="M374 -18q-133 0 -208 92t-75 231q-1 76 24 149.5t70 133t115.5 95.5t153.5 34q111 0 183 -57.5t73 -158.5h-59q-5 74 -60 118t-142 44q-67 2 -125 -29t-95.5 -82t-58.5 -114.5t-20 -128.5q0 -116 60 -194.5t168 -78.5q86 0 154 51t87 139h61q-24 -111 -109.5 -177.5
t-196.5 -66.5zM546 861l-19 -85h-82l20 85h81z" />
    <glyph glyph-name="cdotaccent" unicode="&#x10b;" horiz-adv-x="529" 
d="M406 170h53q-17 -84 -76 -132.5t-141 -48.5q-90 0 -139 58.5t-49 154.5q-1 74 28 143t90 116t139 45q82 0 131.5 -45t49.5 -122h-52q0 57 -35.5 87t-94.5 30q-91 2 -146.5 -76t-54.5 -175q0 -76 35.5 -120t105.5 -44q61 0 101 35t55 94zM388 682l-19 -85h-82l20 85h81z
" />
    <glyph glyph-name="Ccaron" unicode="&#x10c;" horiz-adv-x="745" 
d="M374 -18q-133 0 -208 92t-75 231q-1 76 24 149.5t70 133t115.5 95.5t153.5 34q111 0 183 -57.5t73 -158.5h-59q-5 74 -60 118t-142 44q-67 2 -125 -29t-95.5 -82t-58.5 -114.5t-20 -128.5q0 -116 60 -194.5t168 -78.5q86 0 154 51t87 139h61q-24 -111 -109.5 -177.5
t-196.5 -66.5zM668 928l-156 -152h-36l-85 152h54l56 -102l103 102h64z" />
    <glyph glyph-name="ccaron" unicode="&#x10d;" horiz-adv-x="529" 
d="M406 170h53q-17 -84 -76 -132.5t-141 -48.5q-90 0 -139 58.5t-49 154.5q-1 74 28 143t90 116t139 45q82 0 131.5 -45t49.5 -122h-52q0 57 -35.5 87t-94.5 30q-91 2 -146.5 -76t-54.5 -175q0 -76 35.5 -120t105.5 -44q61 0 101 35t55 94zM520 749l-156 -152h-36l-85 152
h54l56 -102l103 102h64z" />
    <glyph glyph-name="Dcaron" unicode="&#x10e;" horiz-adv-x="701" 
d="M673 409q1 -74 -29 -147.5t-84.5 -132.5t-138 -95t-179.5 -34h-194l162 700h170q138 0 215.5 -83.5t77.5 -207.5zM613 410q0 104 -63.5 172t-176.5 68h-118l-139 -600h126q109 -2 196.5 53t131.5 137.5t43 169.5zM582 928l-156 -152h-36l-85 152h54l56 -102l103 102h64z
" />
    <glyph glyph-name="dcaron" unicode="&#x10f;" horiz-adv-x="753" 
d="M615 711l-164 -711h-53l16 78q-27 -40 -73 -64.5t-101 -24.5q-87 0 -136.5 62t-49.5 154q-2 115 72 209.5t184 91.5q69 0 115.5 -35t59.5 -88l77 328h53zM454 279q0 80 -38.5 129t-108.5 49q-57 2 -104 -36.5t-71 -96t-23 -117.5q0 -75 37 -122t104 -47q89 -2 147.5 73.5
t56.5 167.5zM821 717l-20 -83q-16 -74 -54 -109q-37 -33 -107 -46l-10 38q57 11 87 40t38 82h-40l20 78h86z" />
    <glyph glyph-name="Dcroat" unicode="&#x110;" horiz-adv-x="722" 
d="M694 409q1 -74 -29 -147.5t-84.5 -132.5t-138 -95t-179.5 -34h-194l76 329h-107l13 54h107l73 317h170q138 0 215.5 -83.5t77.5 -207.5zM634 410q0 104 -63.5 172t-176.5 68h-118l-62 -267h190l-12 -54h-190l-65 -279h126q109 -2 196.5 53t131.5 137.5t43 169.5z" />
    <glyph glyph-name="dslash" unicode="&#x111;" horiz-adv-x="610" 
d="M658 632l-11 -50h-62l-134 -582h-53l16 78q-27 -40 -73 -64.5t-101 -24.5q-87 0 -136.5 62t-49.5 154q-2 115 72 209.5t184 91.5q69 0 115.5 -35t59.5 -88l47 199h-155l11 50h155l19 79h53l-18 -79h61zM454 279q0 80 -38.5 129t-108.5 49q-57 2 -104 -36.5t-71 -96
t-23 -117.5q0 -75 37 -122t104 -47q89 -2 147.5 73.5t56.5 167.5z" />
    <glyph glyph-name="Emacron" unicode="&#x112;" horiz-adv-x="589" 
d="M210 700h419l-11 -50h-364l-63 -271h326l-11 -51h-326l-64 -278h382l-11 -50h-439zM288 820h299l-10 -44h-299z" />
    <glyph glyph-name="emacron" unicode="&#x113;" horiz-adv-x="533" 
d="M480 236h-369q-2 -34 -2 -39q0 -71 38 -113.5t103 -42.5q106 0 147 99h56q-26 -74 -81 -112.5t-128 -38.5q-89 0 -139 56.5t-50 152.5q0 134 71 221t185 87q84 0 132.5 -48t48.5 -132q0 -42 -12 -90zM119 285h318q4 17 4 43q0 61 -34 94.5t-96 33.5q-72 0 -122.5 -46.5
t-69.5 -124.5zM214 641h298l-10 -44h-299z" />
    <glyph glyph-name="Ebreve" unicode="&#x114;" horiz-adv-x="589" 
d="M210 700h419l-11 -50h-364l-63 -271h326l-11 -51h-326l-64 -278h382l-11 -50h-439zM555 900q0 -46 -33.5 -85t-94.5 -39q-44 0 -66.5 21t-22.5 55q0 33 18 62h42q-14 -31 -14 -53q0 -46 50 -46q36 0 54.5 25.5t18.5 62.5v11h47q1 -3 1 -14z" />
    <glyph glyph-name="ebreve" unicode="&#x115;" horiz-adv-x="533" 
d="M480 236h-369q-2 -34 -2 -39q0 -71 38 -113.5t103 -42.5q106 0 147 99h56q-26 -74 -81 -112.5t-128 -38.5q-89 0 -139 56.5t-50 152.5q0 134 71 221t185 87q84 0 132.5 -48t48.5 -132q0 -42 -12 -90zM119 285h318q4 17 4 43q0 61 -34 94.5t-96 33.5q-72 0 -122.5 -46.5
t-69.5 -124.5zM478 721q0 -46 -33.5 -85t-94.5 -39q-44 0 -66.5 21t-22.5 55q0 33 17 62h43q-15 -35 -15 -53q0 -46 51 -46q36 0 54.5 25.5t18.5 62.5v11h47q1 -3 1 -14z" />
    <glyph glyph-name="Edotaccent" unicode="&#x116;" horiz-adv-x="589" 
d="M210 700h419l-11 -50h-364l-63 -271h326l-11 -51h-326l-64 -278h382l-11 -50h-439zM490 861l-19 -85h-82l20 85h81z" />
    <glyph glyph-name="edotaccent" unicode="&#x117;" horiz-adv-x="533" 
d="M480 236h-369q-2 -34 -2 -39q0 -71 38 -113.5t103 -42.5q106 0 147 99h56q-26 -74 -81 -112.5t-128 -38.5q-89 0 -139 56.5t-50 152.5q0 134 71 221t185 87q84 0 132.5 -48t48.5 -132q0 -42 -12 -90zM119 285h318q4 17 4 43q0 61 -34 94.5t-96 33.5q-72 0 -122.5 -46.5
t-69.5 -124.5zM394 682l-19 -85h-82l20 85h81z" />
    <glyph glyph-name="Eogonek" unicode="&#x118;" horiz-adv-x="589" 
d="M618 650h-364l-63 -271h326l-11 -51h-326l-64 -278h382l-11 -50h-56q-44 -30 -44 -67q0 -23 20.5 -37.5t51.5 -17.5l-10 -42q-47 4 -78.5 30t-31.5 62q0 44 40 72h-331l162 700h419z" />
    <glyph glyph-name="eogonek" unicode="&#x119;" horiz-adv-x="533" 
d="M480 236h-369q-2 -34 -2 -39q0 -71 38 -113.5t103 -42.5q106 0 147 99h56q-26 -74 -81 -112.5t-128 -38.5q-18 0 -23 1q-30 -22 -30 -57q0 -23 20.5 -37.5t51.5 -17.5l-10 -42q-47 4 -78.5 30t-31.5 62q0 42 37 70q-60 18 -92.5 70.5t-32.5 129.5q0 134 71 221t185 87
q84 0 132.5 -48t48.5 -132q0 -42 -12 -90zM119 285h318q4 17 4 43q0 61 -34 94.5t-96 33.5q-72 0 -122.5 -46.5t-69.5 -124.5z" />
    <glyph glyph-name="Ecaron" unicode="&#x11a;" horiz-adv-x="589" 
d="M210 700h419l-11 -50h-364l-63 -271h326l-11 -51h-326l-64 -278h382l-11 -50h-439zM604 928l-156 -152h-36l-85 152h54l56 -102l103 102h64z" />
    <glyph glyph-name="ecaron" unicode="&#x11b;" horiz-adv-x="533" 
d="M480 236h-369q-2 -34 -2 -39q0 -71 38 -113.5t103 -42.5q106 0 147 99h56q-26 -74 -81 -112.5t-128 -38.5q-89 0 -139 56.5t-50 152.5q0 134 71 221t185 87q84 0 132.5 -48t48.5 -132q0 -42 -12 -90zM119 285h318q4 17 4 43q0 61 -34 94.5t-96 33.5q-72 0 -122.5 -46.5
t-69.5 -124.5zM525 749l-156 -152h-36l-85 152h54l56 -102l103 102h64z" />
    <glyph glyph-name="Gcircumflex" unicode="&#x11c;" horiz-adv-x="751" 
d="M372 296l13 50h292l-79 -346h-52l23 99q-83 -117 -223 -117q-121 0 -189 89.5t-68 223.5q-1 77 24 152.5t70.5 136.5t117.5 98t158 35q112 0 183 -58t72 -158h-58q-5 74 -60 118t-143 44q-93 2 -165 -52t-107 -137t-34 -177q0 -115 54.5 -189.5t153.5 -74.5
q95 0 166.5 68.5t93.5 194.5h-243zM343 776l156 152h36l85 -152h-53l-56 103l-103 -103h-65z" />
    <glyph glyph-name="gcircumflex" unicode="&#x11d;" horiz-adv-x="563" 
d="M549 496l-111 -477q-52 -222 -242 -222q-84 0 -139 42q-57 43 -58 127h51q7 -121 144 -121q94 0 135 51q40 50 55 117l21 89q-57 -84 -157 -84q-83 0 -139 53.5t-56 150.5q-2 113 69.5 200t178.5 84q62 0 108 -28.5t63 -83.5l23 102h54zM441 294q0 78 -38 121.5t-99 43.5
q-76 0 -136.5 -62.5t-60.5 -162.5q0 -81 40.5 -124.5t104.5 -43.5q78 0 133.5 63.5t55.5 164.5zM216 597l156 152h36l85 -152h-53l-56 103l-103 -103h-65z" />
    <glyph glyph-name="Gbreve" unicode="&#x11e;" horiz-adv-x="751" 
d="M372 296l13 50h292l-79 -346h-52l23 99q-83 -117 -223 -117q-121 0 -189 89.5t-68 223.5q-1 77 24 152.5t70.5 136.5t117.5 98t158 35q112 0 183 -58t72 -158h-58q-5 74 -60 118t-143 44q-93 2 -165 -52t-107 -137t-34 -177q0 -115 54.5 -189.5t153.5 -74.5
q95 0 166.5 68.5t93.5 194.5h-243zM623 900q0 -46 -33.5 -85t-94.5 -39q-44 0 -66.5 21t-22.5 55q0 33 18 62h42q-14 -31 -14 -53q0 -46 50 -46q36 0 54.5 25.5t18.5 62.5v11h47q1 -3 1 -14z" />
    <glyph glyph-name="gbreve" unicode="&#x11f;" horiz-adv-x="563" 
d="M549 496l-111 -477q-52 -222 -242 -222q-84 0 -139 42q-57 43 -58 127h51q7 -121 144 -121q94 0 135 51q40 50 55 117l21 89q-57 -84 -157 -84q-83 0 -139 53.5t-56 150.5q-2 113 69.5 200t178.5 84q62 0 108 -28.5t63 -83.5l23 102h54zM441 294q0 78 -38 121.5t-99 43.5
q-76 0 -136.5 -62.5t-60.5 -162.5q0 -81 40.5 -124.5t104.5 -43.5q78 0 133.5 63.5t55.5 164.5zM478 721q0 -46 -33.5 -85t-94.5 -39q-44 0 -66.5 21t-22.5 55q0 33 17 62h43q-15 -35 -15 -53q0 -46 51 -46q36 0 54.5 25.5t18.5 62.5v11h47q1 -3 1 -14z" />
    <glyph glyph-name="Gdotaccent" unicode="&#x120;" horiz-adv-x="751" 
d="M372 296l13 50h292l-79 -346h-52l23 99q-83 -117 -223 -117q-121 0 -189 89.5t-68 223.5q-1 77 24 152.5t70.5 136.5t117.5 98t158 35q112 0 183 -58t72 -158h-58q-5 74 -60 118t-143 44q-93 2 -165 -52t-107 -137t-34 -177q0 -115 54.5 -189.5t153.5 -74.5
q95 0 166.5 68.5t93.5 194.5h-243zM548 861l-19 -85h-82l20 85h81z" />
    <glyph glyph-name="gdotaccent" unicode="&#x121;" horiz-adv-x="563" 
d="M549 496l-111 -477q-52 -222 -242 -222q-84 0 -139 42q-57 43 -58 127h51q7 -121 144 -121q94 0 135 51q40 50 55 117l21 89q-57 -84 -157 -84q-83 0 -139 53.5t-56 150.5q-2 113 69.5 200t178.5 84q62 0 108 -28.5t63 -83.5l23 102h54zM441 294q0 78 -38 121.5t-99 43.5
q-76 0 -136.5 -62.5t-60.5 -162.5q0 -81 40.5 -124.5t104.5 -43.5q78 0 133.5 63.5t55.5 164.5zM396 682l-19 -85h-82l20 85h81z" />
    <glyph glyph-name="uni0122" unicode="&#x122;" horiz-adv-x="751" 
d="M372 296l13 50h292l-79 -346h-52l23 99q-83 -117 -223 -117q-121 0 -189 89.5t-68 223.5q-1 77 24 152.5t70.5 136.5t117.5 98t158 35q112 0 183 -58t72 -158h-58q-5 74 -60 118t-143 44q-93 2 -165 -52t-107 -137t-34 -177q0 -115 54.5 -189.5t153.5 -74.5
q95 0 166.5 68.5t93.5 194.5h-243zM348 -83l-20 -83q-16 -75 -54 -108q-36 -33 -107 -47l-10 38q57 11 87 40t38 82h-40l20 78h86z" />
    <glyph glyph-name="uni0123" unicode="&#x123;" horiz-adv-x="567" 
d="M292 602l20 83q16 75 54 108q36 33 107 47l10 -38q-57 -11 -87 -40t-38 -82h40l-20 -78h-86zM549 496l-111 -477q-52 -222 -242 -222q-84 0 -139 42q-57 43 -58 127h51q7 -121 144 -121q94 0 135 51q40 50 55 117l21 89q-57 -84 -157 -84q-83 0 -139 53.5t-56 150.5
q-2 113 69.5 200t178.5 84q62 0 108 -28.5t63 -83.5l23 102h54zM441 294q0 78 -38 121.5t-99 43.5q-76 0 -136.5 -62.5t-60.5 -162.5q0 -81 40.5 -124.5t104.5 -43.5q78 0 133.5 63.5t55.5 164.5z" />
    <glyph glyph-name="Hcircumflex" unicode="&#x124;" horiz-adv-x="710" 
d="M662 700h57l-161 -700h-57l75 327h-395l-76 -327h-57l162 700h57l-74 -322h395zM320 776l156 152h36l85 -152h-53l-56 103l-103 -103h-65z" />
    <glyph glyph-name="hcircumflex" unicode="&#x125;" horiz-adv-x="562" 
d="M511 371q0 -21 -3 -33l-78 -338h-53l74 321q5 25 5 42q0 45 -27 69.5t-76 24.5q-75 0 -131 -55.5t-79 -155.5l-55 -246h-54l163 711h53l-70 -307q74 102 185 102q69 0 107.5 -35.5t38.5 -99.5zM256 597l156 152h36l85 -152h-53l-56 103l-103 -103h-65z" />
    <glyph glyph-name="Hbar" unicode="&#x126;" horiz-adv-x="775" 
d="M812 542l-10 -49h-100l-113 -493h-57l75 327h-395l-76 -327h-57l114 493h-105l10 49h106l37 158h57l-36 -158h395l36 158h57l-36 -158h98zM619 378l26 115h-395l-26 -115h395z" />
    <glyph glyph-name="hbar" unicode="&#x127;" horiz-adv-x="596" 
d="M545 371q0 -21 -3 -33l-78 -338h-53l74 321q5 25 5 42q0 45 -27 69.5t-76 24.5q-75 0 -131 -55.5t-79 -155.5l-55 -246h-54l133 582h-83l11 50h84l18 79h53l-18 -79h133l-12 -50h-132l-41 -178q74 102 185 102q69 0 107.5 -35.5t38.5 -99.5z" />
    <glyph glyph-name="Itilde" unicode="&#x128;" horiz-adv-x="268" 
d="M53 0l161 700h58l-161 -700h-58zM340 776q-27 0 -75 39q-33 27 -47 27q-37 0 -49 -62h-41q5 55 29 86.5t58 31.5q28 0 73 -39q36 -30 52 -30q39 0 46 69h36q0 -55 -23 -88.5t-59 -33.5z" />
    <glyph glyph-name="itilde" unicode="&#x129;" horiz-adv-x="242" 
d="M37 0l115 496h53l-115 -496h-53zM266 597q-27 0 -75 39q-33 27 -47 27q-37 0 -49 -62h-41q5 54 29 85.5t58 31.5q26 0 73 -38q36 -30 52 -30q39 0 46 68h36q0 -55 -23 -88t-59 -33z" />
    <glyph glyph-name="Imacron" unicode="&#x12a;" horiz-adv-x="268" 
d="M53 0l161 700h58l-161 -700h-58zM116 820h299l-10 -44h-299z" />
    <glyph glyph-name="imacron" unicode="&#x12b;" horiz-adv-x="242" 
d="M37 0l115 496h53l-115 -496h-53zM58 641h298l-10 -44h-299z" />
    <glyph glyph-name="Iogonek" unicode="&#x12e;" horiz-adv-x="268" 
d="M126 -122l-10 -42q-47 4 -78.5 30t-31.5 62q0 49 48 77l160 695h58l-161 -700h-13q-44 -30 -44 -67q0 -23 20.5 -37.5t51.5 -17.5z" />
    <glyph glyph-name="iogonek" unicode="&#x12f;" horiz-adv-x="244" 
d="M192 700h66l-19 -83h-66zM154 496h53l-113 -489h1l-2 -1l-1 -6h-9q-44 -30 -44 -67q0 -23 20.5 -37.5t51.5 -17.5l-10 -42q-47 4 -78.5 30t-31.5 62q0 49 49 78z" />
    <glyph glyph-name="Idot" unicode="&#x130;" horiz-adv-x="268" 
d="M53 0l161 700h58l-161 -700h-58zM320 861l-19 -85h-82l20 85h81z" />
    <glyph glyph-name="dotlessi" unicode="&#x131;" horiz-adv-x="244" 
d="M39 0l115 496h53l-115 -496h-53z" />
    <glyph glyph-name="IJ" unicode="&#x132;" horiz-adv-x="767" 
d="M53 0l161 700h58l-161 -700h-58zM785 700l-122 -534q-21 -91 -75.5 -138t-131.5 -47q-73 0 -122 41q-48 41 -48 110q0 22 6 47l11 47h56l-10 -45q-6 -30 -6 -43q0 -50 30 -78t83 -28q118 0 149 138l123 530h57z" />
    <glyph glyph-name="ij" unicode="&#x133;" horiz-adv-x="481" 
d="M173 617l19 83h66l-19 -83h-66zM39 0l115 496h53l-115 -496h-53zM417 617l19 83h66l-19 -83h-66zM398 496h53l-131 -574q-14 -62 -48 -88t-88 -26h-37l11 48h29q63 0 83 80z" />
    <glyph glyph-name="Jcircumflex" unicode="&#x134;" horiz-adv-x="499" 
d="M517 700l-122 -534q-21 -91 -75.5 -138t-131.5 -47q-73 0 -122 41q-48 41 -48 110q0 22 6 47l11 47h56l-10 -45q-6 -30 -6 -43q0 -50 30 -78t83 -28q118 0 149 138l123 530h57zM352 776l156 152h36l85 -152h-53l-56 103l-103 -103h-65z" />
    <glyph glyph-name="jcircumflex" unicode="&#x135;" horiz-adv-x="237" 
d="M57 597l156 152h36l85 -152h-53l-56 103l-103 -103h-65zM207 496l-131 -574q-14 -62 -48 -88t-88 -26h-37l11 48h29q63 0 83 80l128 560h53z" />
    <glyph glyph-name="uni0136" unicode="&#x136;" horiz-adv-x="635" 
d="M690 700l-328 -282l201 -418h-63l-183 380l-156 -135l-57 -245h-56l161 700h57l-86 -372l434 372h76zM315 -83l-20 -83q-17 -75 -54 -108q-36 -33 -107 -47l-10 38q57 11 87 40t38 82h-40l20 78h86z" />
    <glyph glyph-name="uni0137" unicode="&#x137;" horiz-adv-x="511" 
d="M533 496l-245 -212l146 -284h-58l-128 249l-130 -112l-31 -137h-54l165 711h53l-116 -500l324 285h74zM244 -83l-20 -83q-16 -75 -54 -108q-36 -33 -107 -47l-10 38q57 11 87 40t38 82h-40l20 78h86z" />
    <glyph glyph-name="kgreenlandic" unicode="&#x138;" horiz-adv-x="513" 
d="M535 496l-245 -212l146 -284h-58l-128 249l-130 -112l-31 -137h-54l112 496h53l-63 -285l324 285h74z" />
    <glyph glyph-name="Lacute" unicode="&#x139;" horiz-adv-x="549" 
d="M48 0l162 700h58l-151 -650h361l-13 -50h-417zM428 888l-139 -112h-52l150 158z" />
    <glyph glyph-name="lacute" unicode="&#x13a;" horiz-adv-x="224" 
d="M33 0l165 711h53l-164 -711h-54zM400 888l-139 -112h-52l150 158z" />
    <glyph glyph-name="uni013B" unicode="&#x13b;" horiz-adv-x="549" 
d="M48 0l162 700h58l-151 -650h361l-13 -50h-417zM275 -83l-20 -83q-17 -75 -54 -108q-36 -33 -107 -47l-10 38q57 11 87 40t38 82h-40l20 78h86z" />
    <glyph glyph-name="uni013C" unicode="&#x13c;" horiz-adv-x="224" 
d="M33 0l165 711h53l-164 -711h-54zM86 -83l-20 -83q-16 -75 -54 -108q-36 -33 -107 -47l-10 38q57 11 87 40t38 82h-40l20 78h86z" />
    <glyph glyph-name="Lcaron" unicode="&#x13d;" horiz-adv-x="611" 
d="M48 0l162 700h58l-151 -650h361l-13 -50h-417zM682 718l-20 -83q-16 -74 -54 -109q-37 -33 -107 -46l-10 38q57 11 87 40t38 82h-40l20 78h86z" />
    <glyph glyph-name="lcaron" unicode="&#x13e;" horiz-adv-x="393" 
d="M33 0l165 711h53l-164 -711h-54zM462 718l-20 -83q-16 -74 -54 -109q-37 -33 -107 -46l-10 38q57 11 87 40t38 82h-40l20 78h86z" />
    <glyph glyph-name="Ldot" unicode="&#x13f;" horiz-adv-x="549" 
d="M48 0l162 700h58l-151 -650h361l-13 -50h-417zM581 496l-19 -85h-82l20 85h81z" />
    <glyph glyph-name="ldot" unicode="&#x140;" horiz-adv-x="371" 
d="M33 0l165 711h53l-164 -711h-54zM388 496l-19 -85h-82l20 85h81z" />
    <glyph glyph-name="Lslash" unicode="&#x141;" horiz-adv-x="588" 
d="M156 50h361l-13 -50h-417l62 270l-128 -68v50l141 74l87 374h58l-79 -339l184 96v-49l-197 -104z" />
    <glyph glyph-name="lslash" unicode="&#x142;" horiz-adv-x="254" 
d="M282 422v-51l-117 -53l-73 -318h-54l68 291l-94 -42v50l107 49l84 363h53l-78 -336z" />
    <glyph glyph-name="Nacute" unicode="&#x143;" horiz-adv-x="719" 
d="M672 700h55l-160 -700h-59l-260 634l-145 -634h-54l160 700h71l251 -619zM622 888l-139 -112h-52l150 158z" />
    <glyph glyph-name="nacute" unicode="&#x144;" horiz-adv-x="562" 
d="M511 371q0 -21 -3 -33l-78 -338h-53l74 321q5 25 5 42q0 45 -27 69.5t-76 24.5q-75 0 -131 -55.5t-79 -155.5l-55 -246h-54l113 496h53l-20 -89q74 99 185 99q69 0 107.5 -35.5t38.5 -99.5zM531 709l-139 -112h-52l150 158z" />
    <glyph glyph-name="uni0145" unicode="&#x145;" horiz-adv-x="719" 
d="M672 700h55l-160 -700h-59l-260 634l-145 -634h-54l160 700h71l251 -619zM321 -83l-20 -83q-17 -75 -54 -108q-36 -33 -107 -47l-10 38q57 11 87 40t38 82h-40l20 78h86z" />
    <glyph glyph-name="uni0146" unicode="&#x146;" horiz-adv-x="562" 
d="M511 371q0 -21 -3 -33l-78 -338h-53l74 321q5 25 5 42q0 45 -27 69.5t-76 24.5q-75 0 -131 -55.5t-79 -155.5l-55 -246h-54l113 496h53l-20 -89q74 99 185 99q69 0 107.5 -35.5t38.5 -99.5zM258 -83l-20 -83q-16 -75 -54 -108q-36 -33 -107 -47l-10 38q57 11 87 40t38 82
h-40l20 78h86z" />
    <glyph glyph-name="Ncaron" unicode="&#x147;" horiz-adv-x="719" 
d="M672 700h55l-160 -700h-59l-260 634l-145 -634h-54l160 700h71l251 -619zM641 928l-156 -152h-36l-85 152h54l56 -102l103 102h64z" />
    <glyph glyph-name="ncaron" unicode="&#x148;" horiz-adv-x="562" 
d="M511 371q0 -21 -3 -33l-78 -338h-53l74 321q5 25 5 42q0 45 -27 69.5t-76 24.5q-75 0 -131 -55.5t-79 -155.5l-55 -246h-54l113 496h53l-20 -89q74 99 185 99q69 0 107.5 -35.5t38.5 -99.5zM544 749l-156 -152h-36l-85 152h54l56 -102l103 102h64z" />
    <glyph glyph-name="napostrophe" unicode="&#x149;" horiz-adv-x="737" 
d="M686 371q0 -21 -3 -33l-78 -338h-53l74 321q5 25 5 42q0 45 -27 69.5t-76 24.5q-75 0 -131 -55.5t-79 -155.5l-55 -246h-54l113 496h53l-20 -89q73 99 185 99q69 0 107.5 -35.5t38.5 -99.5zM293 718l-20 -83q-16 -74 -54 -109q-37 -33 -107 -46l-10 38q57 11 87 40t38 82
h-40l20 78h86z" />
    <glyph glyph-name="Eng" unicode="&#x14a;" horiz-adv-x="719" 
d="M727 700l-178 -777q-14 -63 -48 -89t-88 -26h-36l11 48h29q64 0 82 79l16 70l-267 629l-145 -634h-54l160 700h71l253 -606l139 606h55z" />
    <glyph glyph-name="eng" unicode="&#x14b;" horiz-adv-x="570" 
d="M511 371q0 -21 -3 -33l-96 -416q-14 -62 -48 -88t-88 -26h-37l11 48h29q63 0 83 80l89 385q5 25 5 42q0 45 -27 69.5t-76 24.5q-75 0 -131 -55.5t-79 -155.5l-55 -246h-54l113 496h53l-20 -89q74 99 185 99q69 0 107.5 -35.5t38.5 -99.5z" />
    <glyph glyph-name="Omacron" unicode="&#x14c;" horiz-adv-x="781" 
d="M747 390q1 -108 -44 -202t-129 -151t-186 -55q-134 0 -215.5 90t-81.5 237q-1 107 44 201t129 151.5t187 55.5q134 0 215 -90t81 -237zM691 389q0 129 -63.5 202.5t-176.5 73.5q-134 2 -220 -101.5t-84 -253.5q0 -129 63.5 -202.5t176.5 -73.5q134 -2 220 101.5t84 253.5
zM351 820h299l-10 -44h-299z" />
    <glyph glyph-name="omacron" unicode="&#x14d;" horiz-adv-x="562" 
d="M57 215q-1 73 27.5 139t87.5 109.5t136 42.5q102 0 151 -66q51 -64 51 -162q1 -115 -68.5 -203t-183.5 -86q-101 0 -151 65t-50 161zM455 272q0 76 -38 129q-37 54 -113 54q-85 0 -138.5 -71t-53.5 -164q0 -76 38 -129q37 -52 113 -52q84 0 138 69.5t54 163.5zM207 641
h298l-10 -44h-299z" />
    <glyph glyph-name="Obreve" unicode="&#x14e;" horiz-adv-x="781" 
d="M747 390q1 -108 -44 -202t-129 -151t-186 -55q-134 0 -215.5 90t-81.5 237q-1 107 44 201t129 151.5t187 55.5q134 0 215 -90t81 -237zM691 389q0 129 -63.5 202.5t-176.5 73.5q-134 2 -220 -101.5t-84 -253.5q0 -129 63.5 -202.5t176.5 -73.5q134 -2 220 101.5t84 253.5
zM634 900q0 -46 -33.5 -85t-94.5 -39q-44 0 -66.5 21t-22.5 55q0 33 18 62h42q-14 -31 -14 -53q0 -46 50 -46q36 0 54.5 25.5t18.5 62.5v11h47q1 -3 1 -14z" />
    <glyph glyph-name="obreve" unicode="&#x14f;" horiz-adv-x="562" 
d="M57 215q-1 73 27.5 139t87.5 109.5t136 42.5q102 0 151 -66q51 -64 51 -162q1 -115 -68.5 -203t-183.5 -86q-101 0 -151 65t-50 161zM455 272q0 76 -38 129q-37 54 -113 54q-85 0 -138.5 -71t-53.5 -164q0 -76 38 -129q37 -52 113 -52q84 0 138 69.5t54 163.5zM485 721
q0 -46 -33.5 -85t-94.5 -39q-44 0 -66.5 21t-22.5 55q0 33 17 62h43q-15 -35 -15 -53q0 -46 51 -46q36 0 54.5 25.5t18.5 62.5v11h47q1 -3 1 -14z" />
    <glyph glyph-name="Ohungarumlaut" unicode="&#x150;" horiz-adv-x="781" 
d="M747 390q1 -108 -44 -202t-129 -151t-186 -55q-134 0 -215.5 90t-81.5 237q-1 107 44 201t129 151.5t187 55.5q134 0 215 -90t81 -237zM691 389q0 129 -63.5 202.5t-176.5 73.5q-134 2 -220 -101.5t-84 -253.5q0 -129 63.5 -202.5t176.5 -73.5q134 -2 220 101.5t84 253.5
zM397 776l75 149h56l-86 -149h-45zM517 776l74 149h56l-86 -149h-44z" />
    <glyph glyph-name="ohungarumlaut" unicode="&#x151;" horiz-adv-x="562" 
d="M57 215q-1 73 27.5 139t87.5 109.5t136 42.5q102 0 151 -66q51 -64 51 -162q1 -115 -68.5 -203t-183.5 -86q-101 0 -151 65t-50 161zM455 272q0 76 -38 129q-37 54 -113 54q-85 0 -138.5 -71t-53.5 -164q0 -76 38 -129q37 -52 113 -52q84 0 138 69.5t54 163.5zM245 597
l75 148h56l-86 -148h-45zM365 597l74 148h56l-86 -148h-44z" />
    <glyph glyph-name="OE" unicode="&#x152;" horiz-adv-x="1054" 
d="M1094 700l-11 -50h-442q105 -92 105 -258v-13h236l-11 -51h-229q-12 -85 -53 -158t-104 -120h378l-11 -50h-461q-49 -18 -108 -18q-130 0 -211.5 91t-81.5 234q-2 106 45 201.5t132 153t185 55.5q52 0 103 -17h539zM454 665q-132 2 -221 -103t-87 -254q0 -125 64 -199
t174 -74q131 -2 219 104t86 254q0 124 -62 198t-173 74z" />
    <glyph glyph-name="oe" unicode="&#x153;" horiz-adv-x="932" 
d="M879 236h-373q-2 -30 -2 -35q0 -76 38.5 -119.5t106.5 -43.5q106 0 146 102h57q-26 -74 -81 -112.5t-128 -38.5q-137 0 -175 127q-32 -59 -86 -93t-124 -34q-101 0 -151 65t-50 161q-1 73 27.5 139t87.5 109.5t136 42.5q72 0 119.5 -35.5t66.5 -98.5q33 63 90 98.5
t129 35.5q84 0 131 -47.5t47 -132.5q0 -42 -12 -90zM517 285h319q4 17 4 43q0 61 -34 94.5t-96 33.5q-71 0 -122 -44t-71 -127zM455 272q0 76 -38 129q-37 54 -113 54q-85 0 -138.5 -71t-53.5 -164q0 -76 38 -129q37 -52 113 -52q84 0 138 69.5t54 163.5z" />
    <glyph glyph-name="Racute" unicode="&#x154;" horiz-adv-x="639" 
d="M421 317l136 -317h-62l-132 309h-188l-71 -309h-56l162 700h244q83 0 130.5 -47t47.5 -122q0 -83 -57 -144t-154 -70zM573 522q0 58 -36.5 94t-104.5 36h-177l-69 -296h201q83 0 134.5 49t51.5 117zM570 888l-139 -112h-52l150 158z" />
    <glyph glyph-name="racute" unicode="&#x155;" horiz-adv-x="350" 
d="M148 267l-61 -267h-54l115 496h52l-20 -89q21 47 68 71t110 24h21l-12 -49h-27q-70 0 -120.5 -48.5t-71.5 -137.5zM428 709l-139 -112h-52l150 158z" />
    <glyph glyph-name="uni0156" unicode="&#x156;" horiz-adv-x="639" 
d="M421 317l136 -317h-62l-132 309h-188l-71 -309h-56l162 700h244q83 0 130.5 -47t47.5 -122q0 -83 -57 -144t-154 -70zM573 522q0 58 -36.5 94t-104.5 36h-177l-69 -296h201q83 0 134.5 49t51.5 117zM303 -83l-20 -83q-17 -75 -54 -108q-36 -33 -107 -47l-10 38
q57 11 87 40t38 82h-40l20 78h86z" />
    <glyph glyph-name="uni0157" unicode="&#x157;" horiz-adv-x="350" 
d="M148 267l-61 -267h-54l115 496h52l-20 -89q21 47 68 71t110 24h21l-12 -49h-27q-70 0 -120.5 -48.5t-71.5 -137.5zM82 -83l-20 -83q-16 -75 -54 -108q-36 -33 -107 -47l-10 38q57 11 87 40t38 82h-40l20 78h86z" />
    <glyph glyph-name="Rcaron" unicode="&#x158;" horiz-adv-x="639" 
d="M421 317l136 -317h-62l-132 309h-188l-71 -309h-56l162 700h244q83 0 130.5 -47t47.5 -122q0 -83 -57 -144t-154 -70zM573 522q0 58 -36.5 94t-104.5 36h-177l-69 -296h201q83 0 134.5 49t51.5 117zM580 928l-156 -152h-36l-85 152h54l56 -102l103 102h64z" />
    <glyph glyph-name="rcaron" unicode="&#x159;" horiz-adv-x="350" 
d="M148 267l-61 -267h-54l115 496h52l-20 -89q21 47 68 71t110 24h21l-12 -49h-27q-70 0 -120.5 -48.5t-71.5 -137.5zM436 749l-156 -152h-36l-85 152h54l56 -102l103 102h64z" />
    <glyph glyph-name="Sacute" unicode="&#x15a;" horiz-adv-x="608" 
d="M604 526h-59q-3 57 -54 99t-132 42q-77 0 -121.5 -36.5t-44.5 -99.5q0 -39 21 -68q20 -26 50.5 -44.5t91.5 -43.5q63 -26 100 -48q87 -48 87 -145q0 -90 -68 -145t-170 -55q-109 0 -181 59.5t-72 154.5q0 15 1 20h60q-1 -4 -1 -18q0 -72 56 -118t140 -46q78 0 126 39
t48 102q-3 58 -37 87.5t-118 66.5q-71 31 -102 50q-87 51 -87 151q0 86 60 136.5t165 50.5q108 0 172 -53.5t69 -137.5zM560 888l-139 -112h-52l150 158z" />
    <glyph glyph-name="sacute" unicode="&#x15b;" horiz-adv-x="484" 
d="M415 136q0 -67 -56 -107t-135 -40q-81 0 -138.5 42.5t-58.5 118.5h57q4 -53 45 -82.5t99 -29.5q55 0 93.5 26.5t38.5 67.5q0 33 -24 51.5t-79 34.5q-57 17 -88 31q-80 36 -80 115q0 66 51 104q53 38 129 38q75 0 130 -36q55 -34 58 -106h-56q-7 44 -43.5 68.5t-91.5 24.5
q-54 0 -87.5 -24.5t-33.5 -66.5q3 -40 26.5 -57t87.5 -36l21 -7q71 -23 103 -51t32 -79zM451 709l-139 -112h-52l150 158z" />
    <glyph glyph-name="Scircumflex" unicode="&#x15c;" horiz-adv-x="608" 
d="M604 526h-59q-3 57 -54 99t-132 42q-77 0 -121.5 -36.5t-44.5 -99.5q0 -39 21 -68q20 -26 50.5 -44.5t91.5 -43.5q63 -26 100 -48q87 -48 87 -145q0 -90 -68 -145t-170 -55q-109 0 -181 59.5t-72 154.5q0 15 1 20h60q-1 -4 -1 -18q0 -72 56 -118t140 -46q78 0 126 39
t48 102q-3 58 -37 87.5t-118 66.5q-71 31 -102 50q-87 51 -87 151q0 86 60 136.5t165 50.5q108 0 172 -53.5t69 -137.5zM269 776l156 152h36l85 -152h-53l-56 103l-103 -103h-65z" />
    <glyph glyph-name="scircumflex" unicode="&#x15d;" horiz-adv-x="484" 
d="M415 136q0 -67 -56 -107t-135 -40q-81 0 -138.5 42.5t-58.5 118.5h57q4 -53 45 -82.5t99 -29.5q55 0 93.5 26.5t38.5 67.5q0 33 -24 51.5t-79 34.5q-57 17 -88 31q-80 36 -80 115q0 66 51 104q53 38 129 38q75 0 130 -36q55 -34 58 -106h-56q-7 44 -43.5 68.5t-91.5 24.5
q-54 0 -87.5 -24.5t-33.5 -66.5q3 -40 26.5 -57t87.5 -36l21 -7q71 -23 103 -51t32 -79zM170 597l156 152h36l85 -152h-53l-56 103l-103 -103h-65z" />
    <glyph glyph-name="Scedilla" unicode="&#x15e;" horiz-adv-x="608" 
d="M193 531q0 -39 21 -68q20 -26 50.5 -44.5t91.5 -43.5q63 -26 100 -48q87 -48 87 -145q0 -90 -68 -145t-170 -55h-3l-7 -36q82 -5 82 -64q0 -37 -30 -63.5t-76 -26.5q-59 0 -98 42l25 29q31 -34 73 -34q31 0 49.5 14t18.5 38q0 42 -86 43l14 60q-94 10 -155 68
q-60 58 -60 144q0 15 1 20h60q-1 -4 -1 -18q0 -72 56 -118t140 -46q78 0 126 39t48 102q-3 58 -37 87.5t-118 66.5q-71 31 -102 50q-87 51 -87 151q0 86 60 136.5t165 50.5q108 0 172 -53.5t69 -137.5h-59q-3 57 -54 99t-132 42q-77 0 -121.5 -36.5t-44.5 -99.5z" />
    <glyph glyph-name="scedilla" unicode="&#x15f;" horiz-adv-x="484" 
d="M415 136q0 -67 -56 -107t-135 -40h-1l-9 -43q82 -5 82 -64q0 -37 -30 -63.5t-76 -26.5q-59 0 -98 42l25 29q31 -34 73 -34q31 0 49.5 14t18.5 38q0 42 -86 43l16 67q-71 10 -115 51.5t-46 107.5h57q4 -53 45 -82.5t99 -29.5q55 0 93.5 26.5t38.5 67.5q0 33 -24 51.5
t-79 34.5q-57 17 -88 31q-80 36 -80 115q0 66 51 104q53 38 129 38q75 0 130 -36q55 -34 58 -106h-56q-7 44 -43.5 68.5t-91.5 24.5q-54 0 -87.5 -24.5t-33.5 -66.5q3 -40 26.5 -57t87.5 -36l21 -7q71 -23 103 -51t32 -79z" />
    <glyph glyph-name="Scaron" unicode="&#x160;" horiz-adv-x="608" 
d="M604 526h-59q-3 57 -54 99t-132 42q-77 0 -121.5 -36.5t-44.5 -99.5q0 -39 21 -68q20 -26 50.5 -44.5t91.5 -43.5q63 -26 100 -48q87 -48 87 -145q0 -90 -68 -145t-170 -55q-109 0 -181 59.5t-72 154.5q0 15 1 20h60q-1 -4 -1 -18q0 -72 56 -118t140 -46q78 0 126 39
t48 102q-3 58 -37 87.5t-118 66.5q-71 31 -102 50q-87 51 -87 151q0 86 60 136.5t165 50.5q108 0 172 -53.5t69 -137.5zM576 928l-156 -152h-36l-85 152h54l56 -102l103 102h64z" />
    <glyph glyph-name="scaron" unicode="&#x161;" horiz-adv-x="484" 
d="M415 136q0 -67 -56 -107t-135 -40q-81 0 -138.5 42.5t-58.5 118.5h57q4 -53 45 -82.5t99 -29.5q55 0 93.5 26.5t38.5 67.5q0 33 -24 51.5t-79 34.5q-57 17 -88 31q-80 36 -80 115q0 66 51 104q53 38 129 38q75 0 130 -36q55 -34 58 -106h-56q-7 44 -43.5 68.5t-91.5 24.5
q-54 0 -87.5 -24.5t-33.5 -66.5q3 -40 26.5 -57t87.5 -36l21 -7q71 -23 103 -51t32 -79zM486 749l-156 -152h-36l-85 152h54l56 -102l103 102h64z" />
    <glyph glyph-name="uni0162" unicode="&#x162;" horiz-adv-x="621" 
d="M144 700h546l-11 -50h-245l-149 -650h-23l-11 -54q82 -5 82 -64q0 -37 -30 -63.5t-76 -26.5q-59 0 -98 42l25 29q31 -34 73 -34q31 0 49.5 14t18.5 38q0 42 -86 43l18 77l150 649h-244z" />
    <glyph glyph-name="uni0163" unicode="&#x163;" horiz-adv-x="361" 
d="M228 448l-75 -318q-5 -25 -5 -35q0 -46 54 -46h65l-11 -49h-68q-11 0 -14 1l-9 -45q82 -5 82 -64q0 -37 -30 -63.5t-76 -26.5q-59 0 -98 42l25 29q31 -34 73 -34q31 0 49.5 14t18.5 38q0 42 -86 43l17 74q-48 19 -48 73q0 18 4 33l78 334h-102l10 48h102l34 146l56 16
l-36 -162h120l-10 -48h-120z" />
    <glyph glyph-name="Tcaron" unicode="&#x164;" horiz-adv-x="621" 
d="M690 700l-11 -50h-245l-149 -650h-58l150 650h-244l11 50h546zM598 928l-156 -152h-36l-85 152h54l56 -102l103 102h64z" />
    <glyph glyph-name="tcaron" unicode="&#x165;" horiz-adv-x="545" 
d="M358 496l-10 -48h-120l-75 -318q-5 -25 -5 -35q0 -46 54 -46h65l-11 -49h-68q-46 0 -71 21.5t-25 59.5q0 18 4 33l78 334h-102l10 48h102l34 146l56 16l-36 -162h120zM612 711l-20 -83q-16 -74 -54 -109q-37 -33 -107 -46l-10 38q57 11 87 40t38 82h-40l20 78h86z" />
    <glyph glyph-name="Tbar" unicode="&#x166;" horiz-adv-x="621" 
d="M679 650h-245l-46 -201h186l-13 -50h-185l-91 -399h-58l92 399h-191l13 50h190l46 201h-244l11 50h546z" />
    <glyph glyph-name="tbar" unicode="&#x167;" horiz-adv-x="353" 
d="M348 448h-120l-29 -121h120l-12 -48h-119l-35 -149q-5 -25 -5 -35q0 -46 54 -46h65l-11 -49h-68q-46 0 -71 21.5t-25 59.5q0 18 4 33l39 165h-102l12 48h101l28 121h-102l10 48h102l34 146l56 16l-36 -162h120z" />
    <glyph glyph-name="Utilde" unicode="&#x168;" horiz-adv-x="698" 
d="M329 -18q-109 0 -173 57q-65 57 -65 154q0 33 9 70l99 437h56l-98 -432q-9 -39 -9 -71q0 -79 47.5 -120.5t130.5 -41.5q88 0 146 46t77 131l112 488h55l-110 -481q-27 -118 -98.5 -177.5t-178.5 -59.5zM542 776q-27 0 -75 39q-33 27 -47 27q-37 0 -49 -62h-41
q5 55 29 86.5t58 31.5q28 0 73 -39q36 -30 52 -30q39 0 46 69h36q0 -55 -23 -88.5t-59 -33.5z" />
    <glyph glyph-name="utilde" unicode="&#x169;" horiz-adv-x="558" 
d="M535 496l-115 -496h-53l21 91q-72 -97 -182 -97q-69 0 -106 37t-37 96q0 19 6 49l73 320h53l-72 -315q-6 -24 -6 -47q0 -43 25 -68.5t72 -25.5q69 0 127 53q58 54 81 149l60 254h53zM435 597q-27 0 -75 39q-33 27 -47 27q-37 0 -49 -62h-41q5 54 29 85.5t58 31.5
q26 0 73 -38q36 -30 52 -30q39 0 46 68h36q0 -55 -23 -88t-59 -33z" />
    <glyph glyph-name="Umacron" unicode="&#x16a;" horiz-adv-x="698" 
d="M329 -18q-109 0 -173 57q-65 57 -65 154q0 33 9 70l99 437h56l-98 -432q-9 -39 -9 -71q0 -79 47.5 -120.5t130.5 -41.5q88 0 146 46t77 131l112 488h55l-110 -481q-27 -118 -98.5 -177.5t-178.5 -59.5zM323 820h299l-10 -44h-299z" />
    <glyph glyph-name="umacron" unicode="&#x16b;" horiz-adv-x="558" 
d="M535 496l-115 -496h-53l21 91q-72 -97 -182 -97q-69 0 -106 37t-37 96q0 19 6 49l73 320h53l-72 -315q-6 -24 -6 -47q0 -43 25 -68.5t72 -25.5q69 0 127 53q58 54 81 149l60 254h53zM208 641h298l-10 -44h-299z" />
    <glyph glyph-name="Ubreve" unicode="&#x16c;" horiz-adv-x="698" 
d="M329 -18q-109 0 -173 57q-65 57 -65 154q0 33 9 70l99 437h56l-98 -432q-9 -39 -9 -71q0 -79 47.5 -120.5t130.5 -41.5q88 0 146 46t77 131l112 488h55l-110 -481q-27 -118 -98.5 -177.5t-178.5 -59.5zM591 900q0 -46 -33.5 -85t-94.5 -39q-44 0 -66.5 21t-22.5 55
q0 33 18 62h42q-14 -31 -14 -53q0 -46 50 -46q36 0 54.5 25.5t18.5 62.5v11h47q1 -3 1 -14z" />
    <glyph glyph-name="ubreve" unicode="&#x16d;" horiz-adv-x="558" 
d="M535 496l-115 -496h-53l21 91q-72 -97 -182 -97q-69 0 -106 37t-37 96q0 19 6 49l73 320h53l-72 -315q-6 -24 -6 -47q0 -43 25 -68.5t72 -25.5q69 0 127 53q58 54 81 149l60 254h53zM476 721q0 -46 -33.5 -85t-94.5 -39q-44 0 -66.5 21t-22.5 55q0 33 17 62h43
q-15 -35 -15 -53q0 -46 51 -46q36 0 54.5 25.5t18.5 62.5v11h47q1 -3 1 -14z" />
    <glyph glyph-name="Uring" unicode="&#x16e;" horiz-adv-x="698" 
d="M329 -18q-109 0 -173 57q-65 57 -65 154q0 33 9 70l99 437h56l-98 -432q-9 -39 -9 -71q0 -79 47.5 -120.5t130.5 -41.5q88 0 146 46t77 131l112 488h55l-110 -481q-27 -118 -98.5 -177.5t-178.5 -59.5zM464 950q39 0 65.5 -25t26.5 -64t-26.5 -65t-65.5 -26
q-38 0 -63.5 26t-25.5 65q0 38 26 63.5t63 25.5zM464 915q-22 0 -36.5 -15.5t-14.5 -38.5t14.5 -39.5t36.5 -16.5t37.5 16.5t15.5 39.5q0 22 -15.5 38t-37.5 16z" />
    <glyph glyph-name="uring" unicode="&#x16f;" horiz-adv-x="558" 
d="M535 496l-115 -496h-53l21 91q-72 -97 -182 -97q-69 0 -106 37t-37 96q0 19 6 49l73 320h53l-72 -315q-6 -24 -6 -47q0 -43 25 -68.5t72 -25.5q69 0 127 53q58 54 81 149l60 254h53zM344 777q39 0 65 -25t26 -64t-26 -65t-65 -26q-38 0 -63.5 26t-25.5 65q0 38 26 63.5
t63 25.5zM344 742q-21 0 -36 -16t-15 -38q0 -23 14.5 -39.5t36.5 -16.5t37 16.5t15 39.5q0 22 -15 38t-37 16z" />
    <glyph glyph-name="Uhungarumlaut" unicode="&#x170;" horiz-adv-x="698" 
d="M329 -18q-109 0 -173 57q-65 57 -65 154q0 33 9 70l99 437h56l-98 -432q-9 -39 -9 -71q0 -79 47.5 -120.5t130.5 -41.5q88 0 146 46t77 131l112 488h55l-110 -481q-27 -118 -98.5 -177.5t-178.5 -59.5zM368 776l75 149h56l-86 -149h-45zM488 776l74 149h56l-86 -149h-44z
" />
    <glyph glyph-name="uhungarumlaut" unicode="&#x171;" horiz-adv-x="558" 
d="M535 496l-115 -496h-53l21 91q-72 -97 -182 -97q-69 0 -106 37t-37 96q0 19 6 49l73 320h53l-72 -315q-6 -24 -6 -47q0 -43 25 -68.5t72 -25.5q69 0 127 53q58 54 81 149l60 254h53zM261 597l75 148h56l-86 -148h-45zM381 597l74 148h56l-86 -148h-44z" />
    <glyph glyph-name="Uogonek" unicode="&#x172;" horiz-adv-x="698" 
d="M661 700h55l-110 -481q-27 -118 -98.5 -177.5t-178.5 -59.5h-8q-21 -21 -21 -49q0 -23 20.5 -37.5t51.5 -17.5l-10 -42q-47 4 -78.5 30t-31.5 62q0 34 24 58q-86 14 -135.5 69t-49.5 138q0 33 9 70l99 437h56l-98 -432q-9 -39 -9 -71q0 -79 47.5 -120.5t130.5 -41.5
q88 0 146 46t77 131z" />
    <glyph glyph-name="uogonek" unicode="&#x173;" horiz-adv-x="558" 
d="M438 -122l-10 -42q-47 4 -78.5 30t-31.5 62q0 50 50 78l20 85q-72 -97 -182 -97q-69 0 -106 37t-37 96q0 19 6 49l73 320h53l-72 -315q-6 -24 -6 -47q0 -43 25 -68.5t72 -25.5q69 0 127 53q58 54 81 149l60 254h53l-113 -489l-2 -7h-10q-44 -30 -44 -67q0 -23 20.5 -37.5
t51.5 -17.5z" />
    <glyph glyph-name="Wcircumflex" unicode="&#x174;" horiz-adv-x="964" 
d="M1023 700l-312 -700h-63l-84 623l-302 -623h-63l-65 700h54l53 -637l302 637h63l85 -636l271 636h61zM435 776l156 152h36l85 -152h-53l-56 103l-103 -103h-65z" />
    <glyph glyph-name="wcircumflex" unicode="&#x175;" horiz-adv-x="812" 
d="M839 496l-273 -496h-59l-55 418l-231 -418h-59l-65 496h52l52 -440l236 440h56l53 -440l235 440h58zM322 597l156 152h36l85 -152h-53l-56 103l-103 -103h-65z" />
    <glyph glyph-name="Ycircumflex" unicode="&#x176;" horiz-adv-x="586" 
d="M332 265l-59 -265h-56l61 271l-149 429h58l127 -382l283 382h68zM256 776l156 152h36l85 -152h-53l-56 103l-103 -103h-65z" />
    <glyph glyph-name="ycircumflex" unicode="&#x177;" horiz-adv-x="493" 
d="M474 496h56l-313 -543q-68 -117 -173 -117h-41l11 48h27q45 0 74 22.5t61 75.5l14 23l-103 491h55l84 -431zM169 597l156 152h36l85 -152h-53l-56 103l-103 -103h-65z" />
    <glyph glyph-name="Ydieresis" unicode="&#x178;" horiz-adv-x="586" 
d="M332 265l-59 -265h-56l61 271l-149 429h58l127 -382l283 382h68zM370 852l-18 -76h-75l18 76h75zM544 852l-18 -76h-74l17 76h75z" />
    <glyph glyph-name="Zacute" unicode="&#x179;" horiz-adv-x="646" 
d="M659 700l-11 -50l-541 -600h448l-11 -50h-516l11 50l540 600h-421l11 50h490zM573 888l-139 -112h-52l150 158z" />
    <glyph glyph-name="zacute" unicode="&#x17a;" horiz-adv-x="502" 
d="M486 449l-392 -400h322l-11 -49h-389l11 49l390 399h-306l12 48h373zM481 709l-139 -112h-52l150 158z" />
    <glyph glyph-name="Zdotaccent" unicode="&#x17b;" horiz-adv-x="646" 
d="M659 700l-11 -50l-541 -600h448l-11 -50h-516l11 50l540 600h-421l11 50h490zM485 861l-19 -85h-82l20 85h81z" />
    <glyph glyph-name="zdotaccent" unicode="&#x17c;" horiz-adv-x="502" 
d="M486 449l-392 -400h322l-11 -49h-389l11 49l390 399h-306l12 48h373zM385 682l-19 -85h-82l20 85h81z" />
    <glyph glyph-name="Zcaron" unicode="&#x17d;" horiz-adv-x="646" 
d="M659 700l-11 -50l-541 -600h448l-11 -50h-516l11 50l540 600h-421l11 50h490zM594 928l-156 -152h-36l-85 152h54l56 -102l103 102h64z" />
    <glyph glyph-name="zcaron" unicode="&#x17e;" horiz-adv-x="502" 
d="M486 449l-392 -400h322l-11 -49h-389l11 49l390 399h-306l12 48h373zM506 749l-156 -152h-36l-85 152h54l56 -102l103 102h64z" />
    <glyph glyph-name="longs" unicode="&#x17f;" horiz-adv-x="329" 
d="M411 711l-11 -49h-52q-46 0 -63.5 -16t-26.5 -57l-135 -589h-55l103 448h-85l12 48h84l22 96q15 68 45 93.5t92 25.5h70z" />
    <glyph glyph-name="florin" unicode="&#x192;" horiz-adv-x="338" 
d="M264 589l-20 -93h112l-12 -48h-112l-76 -334q-14 -62 -48 -88t-88 -26h-37l11 48h29q63 0 83 80l73 320h-85l12 48h84l22 96q16 68 45.5 93.5t91.5 25.5h70l-10 -49h-55q-44 0 -62.5 -16t-27.5 -57z" />
    <glyph glyph-name="Aringacute" unicode="&#x1fa;" horiz-adv-x="686" 
d="M632 1050l-111 -89h-41l120 126zM474 921q37 0 62.5 -24.5t25.5 -60.5t-26 -61t-62 -25q-35 0 -59.5 24.5t-24.5 61.5q0 36 24 60.5t60 24.5zM474 887q-20 0 -34 -15t-14 -36q0 -22 14 -37.5t34 -15.5q21 0 36 15.5t15 37.5q0 21 -15 36t-36 15zM558 0l-38 205h-350
l-124 -205h-63l428 700h66l137 -700h-56zM200 255h311l-74 392z" />
    <glyph glyph-name="aringacute" unicode="&#x1fb;" horiz-adv-x="524" 
d="M523 869l-125 -101h-47l135 143zM350 723q36 0 59.5 -22.5t23.5 -57.5t-24.5 -58.5t-58.5 -23.5t-57 23.5t-23 58.5t23 57.5t57 22.5zM350 692q-19 0 -32.5 -14.5t-13.5 -34.5q0 -21 13.5 -35.5t32.5 -14.5q20 0 33.5 14.5t13.5 35.5q0 20 -14 34.5t-33 14.5zM472 373
q0 -21 -6 -48l-75 -325h-54l20 84q-71 -95 -184 -95q-66 0 -104.5 33.5t-38.5 98.5q0 136 169 158l109 14q58 8 82.5 23t27.5 59q0 83 -118 83q-120 0 -152 -94h-59q42 142 213 142q81 0 125.5 -35t44.5 -98zM389 220l11 49q-42 -16 -103 -23l-70 -9q-70 -9 -106 -33.5
t-36 -79.5q0 -87 95 -87q70 0 130 49.5t79 133.5z" />
    <glyph glyph-name="AEacute" unicode="&#x1fc;" horiz-adv-x="969" 
d="M998 650h-364l-63 -271h326l-11 -51h-326l-64 -278h382l-11 -50h-439l51 220h-274l-154 -220h-68l494 700h532zM490 270l89 381h-73l-267 -381h251zM793 888l-139 -112h-52l150 158z" />
    <glyph glyph-name="aeacute" unicode="&#x1fd;" horiz-adv-x="869" 
d="M820 236h-369q-2 -34 -2 -39q0 -72 38 -114t106 -42q103 0 144 99h56q-26 -74 -81 -112.5t-128 -38.5q-72 0 -119.5 38t-62.5 105q-35 -70 -96.5 -106.5t-132.5 -36.5q-66 0 -104.5 33.5t-38.5 98.5q0 136 169 158l109 14q58 8 82.5 23t27.5 59q0 83 -118 83
q-120 0 -152 -94h-59q42 142 213 142q134 0 163 -93q70 93 188 93q83 0 131 -48t48 -132q0 -42 -12 -90zM459 285h318q4 17 4 43q0 61 -34 94.5t-96 33.5q-72 0 -122.5 -46.5t-69.5 -124.5zM389 220l11 49q-48 -16 -103 -23l-70 -9q-70 -9 -106 -33.5t-36 -79.5
q0 -87 95 -87q70 0 130 49.5t79 133.5zM652 709l-139 -112h-52l150 158z" />
    <glyph glyph-name="Oslashacute" unicode="&#x1fe;" horiz-adv-x="781" 
d="M747 390q1 -108 -44 -202t-129 -151t-186 -55q-97 0 -171 50l-49 -68l-37 28l51 70q-91 91 -91 247q-1 107 44 201t129 151.5t187 55.5q96 0 170 -50l50 70l37 -28l-52 -71q91 -91 91 -248zM213 105l377 520q-56 40 -139 40q-134 2 -220 -101.5t-84 -253.5
q0 -132 66 -205zM691 389q0 131 -66 205l-377 -520q56 -40 139 -40q134 -2 220 101.5t84 253.5zM623 888l-139 -112h-52l150 158z" />
    <glyph glyph-name="oslashacute" unicode="&#x1ff;" horiz-adv-x="562" 
d="M510 278q1 -115 -68.5 -203t-183.5 -86q-66 0 -112 30l-50 -69l-37 28l52 72q-54 62 -54 165q-1 73 27.5 139t87.5 109.5t136 42.5q68 0 112 -31l48 66l37 -27l-50 -69q55 -61 55 -167zM146 98l241 332q-32 25 -83 25q-85 0 -138.5 -71t-53.5 -164q0 -73 34 -122z
M455 272q0 75 -35 125l-241 -333q34 -25 84 -25q84 0 138 69.5t54 163.5zM472 709l-139 -112h-52l150 158z" />
    <glyph glyph-name="uni0218" unicode="&#x218;" horiz-adv-x="608" 
d="M604 526h-59q-3 57 -54 99t-132 42q-77 0 -121.5 -36.5t-44.5 -99.5q0 -39 21 -68q20 -26 50.5 -44.5t91.5 -43.5q63 -26 100 -48q87 -48 87 -145q0 -90 -68 -145t-170 -55q-109 0 -181 59.5t-72 154.5q0 15 1 20h60q-1 -4 -1 -18q0 -72 56 -118t140 -46q78 0 126 39
t48 102q-3 58 -37 87.5t-118 66.5q-71 31 -102 50q-87 51 -87 151q0 86 60 136.5t165 50.5q108 0 172 -53.5t69 -137.5zM304 -83l-20 -83q-16 -75 -54 -108q-36 -33 -107 -47l-10 38q57 11 87 40t38 82h-40l20 78h86z" />
    <glyph glyph-name="uni0219" unicode="&#x219;" horiz-adv-x="484" 
d="M415 136q0 -67 -56 -107t-135 -40q-81 0 -138.5 42.5t-58.5 118.5h57q4 -53 45 -82.5t99 -29.5q55 0 93.5 26.5t38.5 67.5q0 33 -24 51.5t-79 34.5q-57 17 -88 31q-80 36 -80 115q0 66 51 104q53 38 129 38q75 0 130 -36q55 -34 58 -106h-56q-7 44 -43.5 68.5t-91.5 24.5
q-54 0 -87.5 -24.5t-33.5 -66.5q3 -40 26.5 -57t87.5 -36l21 -7q71 -23 103 -51t32 -79zM239 -83l-20 -83q-17 -75 -54 -108q-36 -33 -107 -47l-10 38q57 11 87 40t38 82h-40l20 78h86z" />
    <glyph glyph-name="uni021A" unicode="&#x21a;" horiz-adv-x="621" 
d="M690 700l-11 -50h-245l-149 -650h-58l150 650h-244l11 50h546zM279 -83l-20 -83q-17 -75 -54 -108q-36 -33 -107 -47l-10 38q57 11 87 40t38 82h-40l20 78h86z" />
    <glyph glyph-name="uni021B" unicode="&#x21b;" horiz-adv-x="353" 
d="M358 496l-10 -48h-120l-75 -318q-5 -25 -5 -35q0 -46 54 -46h65l-11 -49h-68q-46 0 -71 21.5t-25 59.5q0 18 4 33l78 334h-102l10 48h102l34 146l56 16l-36 -162h120zM194 -83l-20 -83q-16 -75 -54 -108q-36 -33 -107 -47l-10 38q57 11 87 40t38 82h-40l20 78h86z" />
    <glyph glyph-name="circumflex" unicode="&#x2c6;" horiz-adv-x="277" 
d="M81 597l156 152h36l85 -152h-53l-56 103l-103 -103h-65z" />
    <glyph glyph-name="caron" unicode="&#x2c7;" horiz-adv-x="277" 
d="M393 749l-156 -152h-36l-85 152h54l56 -102l103 102h64z" />
    <glyph glyph-name="uni02C9" unicode="&#x2c9;" horiz-adv-x="299" 
d="M133 820h298l-10 -44h-299z" />
    <glyph glyph-name="breve" unicode="&#x2d8;" horiz-adv-x="212" 
d="M318 721q0 -46 -33.5 -85t-94.5 -39q-44 0 -66.5 21t-22.5 55q0 33 17 62h43q-15 -35 -15 -53q0 -46 51 -46q36 0 54.5 25.5t18.5 62.5v11h47q1 -3 1 -14z" />
    <glyph glyph-name="dotaccent" unicode="&#x2d9;" horiz-adv-x="82" 
d="M182 682l-19 -85h-82l20 85h81z" />
    <glyph glyph-name="ring" unicode="&#x2da;" horiz-adv-x="185" 
d="M193 777q39 0 65 -25t26 -64t-26 -65t-65 -26q-38 0 -63.5 26t-25.5 65q0 38 26 63.5t63 25.5zM193 742q-21 0 -36 -16t-15 -38q0 -23 14.5 -39.5t36.5 -16.5t37 16.5t15 39.5q0 22 -15 38t-37 16z" />
    <glyph glyph-name="ogonek" unicode="&#x2db;" horiz-adv-x="133" 
d="M48 -122l-10 -42q-47 4 -78.5 30t-31.5 62q0 52 52 79h52q-56 -31 -56 -74q0 -23 20.5 -37.5t51.5 -17.5z" />
    <glyph glyph-name="tilde" unicode="&#x2dc;" horiz-adv-x="275" 
d="M296 597q-27 0 -75 39q-33 27 -47 27q-37 0 -49 -62h-41q5 54 29 85.5t58 31.5q26 0 73 -38q36 -30 52 -30q39 0 46 68h36q0 -55 -23 -88t-59 -33z" />
    <glyph glyph-name="hungarumlaut" unicode="&#x2dd;" horiz-adv-x="216" 
d="M81 597l75 148h56l-86 -148h-45zM201 597l74 148h56l-86 -148h-44z" />
    <glyph glyph-name="uni0394" unicode="&#x394;" horiz-adv-x="692" 
d="M486 700l146 -649l-12 -51h-637l13 50l437 650h53zM576 49l-125 594l-394 -594h519z" />
    <glyph glyph-name="uni0394" unicode="&#x3b4;" horiz-adv-x="692" 
d="M486 700l146 -649l-12 -51h-637l13 50l437 650h53zM576 49l-125 594l-394 -594h519z" />
    <glyph glyph-name="uni03A9" unicode="&#x3a9;" horiz-adv-x="762" 
d="M451 132l-18 -83h153l-12 -49h-208l39 164q130 14 212 105t80 193q0 90 -63 148.5t-178 58.5q-137 0 -218.5 -81t-81.5 -191q0 -81 47 -149q46 -65 134 -88l-37 -160h-206l11 49h153l19 83q-82 32 -127 102.5t-45 157.5q-2 129 97 228t258 97q137 0 213.5 -72.5
t76.5 -179.5q1 -71 -34 -140.5t-105 -123t-160 -69.5z" />
    <glyph glyph-name="uni03A9" unicode="&#x3c9;" horiz-adv-x="762" 
d="M451 132l-18 -83h153l-12 -49h-208l39 164q130 14 212 105t80 193q0 90 -63 148.5t-178 58.5q-137 0 -218.5 -81t-81.5 -191q0 -81 47 -149q46 -65 134 -88l-37 -160h-206l11 49h153l19 83q-82 32 -127 102.5t-45 157.5q-2 129 97 228t258 97q137 0 213.5 -72.5
t76.5 -179.5q1 -71 -34 -140.5t-105 -123t-160 -69.5z" />
    <glyph glyph-name="uni03BC" unicode="&#x3bc;" horiz-adv-x="632" 
d="M444 79q0 -30 36 -30h26l-11 -49h-46q-32 0 -51.5 15.5t-21.5 40.5q-54 -67 -159 -67q-91 0 -118 67l-57 -248h-53l161 698h53l-73 -315q-6 -27 -6 -48q0 -49 28 -76t78 -27q70 0 121 52.5t75 153.5l61 260h53l-93 -403q-3 -13 -3 -24z" />
    <glyph glyph-name="pi" unicode="&#x3c0;" horiz-adv-x="700" 
d="M451 89q0 -39 47 -39h41l-13 -50h-45q-38 0 -61.5 20.5t-23.5 60.5q0 13 5 38l76 333h-176l-105 -452h-53l105 452h-141l10 44h358q151 0 232 43l-12 -53q-56 -28 -164 -34l-76 -331q-4 -15 -4 -32z" />
    <glyph glyph-name="uni1E02" unicode="&#x1e02;" horiz-adv-x="675" 
d="M602 214q0 -94 -77.5 -154t-204.5 -60h-272l162 700h263q81 0 126 -42t45 -107q0 -59 -40 -111q-38 -51 -108 -71q49 -18 77.5 -58t28.5 -97zM195 395h219q76 0 124.5 45t48.5 104q0 47 -35 76.5t-99 29.5h-199zM540 216q0 62 -37.5 95.5t-104.5 33.5h-215l-67 -295h218
q95 0 150.5 45.5t55.5 120.5zM468 861l-19 -85h-82l20 85h81z" />
    <glyph glyph-name="uni1E03" unicode="&#x1e03;" horiz-adv-x="587" 
d="M539 297q1 -74 -31 -145.5t-92 -118t-131 -44.5q-61 0 -106 31.5t-66 92.5l-26 -113h-54l165 711h53l-67 -294q67 89 175 89q90 0 135 -60t45 -149zM484 292q0 73 -35 117t-101 44q-91 3 -150 -77t-57 -175q0 -71 37.5 -117t102.5 -46q58 -2 106 37.5t73 98t24 118.5z
M456 682l-19 -85h-82l20 85h81z" />
    <glyph glyph-name="uni1E0A" unicode="&#x1e0a;" horiz-adv-x="701" 
d="M673 409q1 -74 -29 -147.5t-84.5 -132.5t-138 -95t-179.5 -34h-194l162 700h170q138 0 215.5 -83.5t77.5 -207.5zM613 410q0 104 -63.5 172t-176.5 68h-118l-139 -600h126q109 -2 196.5 53t131.5 137.5t43 169.5zM449 861l-19 -85h-82l20 85h81z" />
    <glyph glyph-name="uni1E0B" unicode="&#x1e0b;" horiz-adv-x="593" 
d="M615 711l-164 -711h-53l16 78q-27 -40 -73 -64.5t-101 -24.5q-87 0 -136.5 62t-49.5 154q-2 115 72 209.5t184 91.5q69 0 115.5 -35t59.5 -88l77 328h53zM454 279q0 80 -38.5 129t-108.5 49q-57 2 -104 -36.5t-71 -96t-23 -117.5q0 -75 37 -122t104 -47q89 -2 147.5 73.5
t56.5 167.5zM385 682l-19 -85h-82l20 85h81z" />
    <glyph glyph-name="uni1E1E" unicode="&#x1e1e;" horiz-adv-x="569" 
d="M48 0l162 700h418l-11 -50h-363l-63 -271h335l-12 -51h-334l-76 -328h-56zM487 861l-19 -85h-82l20 85h81z" />
    <glyph glyph-name="uni1E1F" unicode="&#x1e1f;" horiz-adv-x="320" 
d="M411 711l-10 -49h-55q-44 0 -62.5 -16t-27.5 -57l-20 -93h112l-12 -48h-112l-103 -448h-53l103 448h-85l12 48h84l22 96q16 68 45.5 93.5t91.5 25.5h70zM420 861l-19 -85h-82l20 85h81z" />
    <glyph glyph-name="uni1E40" unicode="&#x1e40;" horiz-adv-x="880" 
d="M882 700l-154 -700h-56l145 651l-405 -651h-46l-112 661l-146 -661h-54l155 700h91l105 -619l380 619h97zM598 861l-19 -85h-82l20 85h81z" />
    <glyph glyph-name="uni1E41" unicode="&#x1e41;" horiz-adv-x="837" 
d="M787 382q0 -18 -5 -46l-77 -336h-53l75 325q5 25 5 38q0 43 -24.5 69.5t-70.5 26.5q-65 0 -112 -51.5t-68 -143.5l-61 -264h-53l74 325q5 22 5 38q0 43 -24 69.5t-70 26.5q-63 0 -111 -53t-69 -141l-61 -265h-54l114 496h50l-17 -78q60 88 161 88q55 0 91 -27.5t42 -77.5
q56 105 171 105q69 0 105.5 -33.5t36.5 -90.5zM560 682l-19 -85h-82l20 85h81z" />
    <glyph glyph-name="uni1E56" unicode="&#x1e56;" horiz-adv-x="606" 
d="M620 527q0 -90 -70.5 -158t-187.5 -68h-188l-70 -301h-56l162 700h225q87 0 136 -50t49 -123zM563 523q0 56 -37 92.5t-101 36.5h-170l-70 -303h187q87 0 139 52.5t52 121.5zM449 861l-19 -85h-82l20 85h81z" />
    <glyph glyph-name="uni1E57" unicode="&#x1e57;" horiz-adv-x="588" 
d="M541 299q1 -74 -31 -144t-92.5 -116t-132.5 -44q-62 0 -106.5 31t-65.5 90l-71 -308h-53l158 688h54l-18 -79q67 89 179 89q88 0 133 -60q46 -58 46 -147zM486 296q0 71 -35.5 114t-103.5 43q-89 2 -148 -74.5t-57 -169.5q0 -74 37 -119.5t103 -45.5q87 -3 146.5 77.5
t57.5 174.5zM426 682l-19 -85h-82l20 85h81z" />
    <glyph glyph-name="uni1E60" unicode="&#x1e60;" horiz-adv-x="608" 
d="M604 526h-59q-3 57 -54 99t-132 42q-77 0 -121.5 -36.5t-44.5 -99.5q0 -39 21 -68q20 -26 50.5 -44.5t91.5 -43.5q63 -26 100 -48q87 -48 87 -145q0 -90 -68 -145t-170 -55q-109 0 -181 59.5t-72 154.5q0 15 1 20h60q-1 -4 -1 -18q0 -72 56 -118t140 -46q78 0 126 39
t48 102q-3 58 -37 87.5t-118 66.5q-71 31 -102 50q-87 51 -87 151q0 86 60 136.5t165 50.5q108 0 172 -53.5t69 -137.5zM464 861l-19 -85h-82l20 85h81z" />
    <glyph glyph-name="uni1E61" unicode="&#x1e61;" horiz-adv-x="484" 
d="M415 136q0 -67 -56 -107t-135 -40q-81 0 -138.5 42.5t-58.5 118.5h57q4 -53 45 -82.5t99 -29.5q55 0 93.5 26.5t38.5 67.5q0 33 -24 51.5t-79 34.5q-57 17 -88 31q-80 36 -80 115q0 66 51 104q53 38 129 38q75 0 130 -36q55 -34 58 -106h-56q-7 44 -43.5 68.5t-91.5 24.5
q-54 0 -87.5 -24.5t-33.5 -66.5q3 -40 26.5 -57t87.5 -36l21 -7q71 -23 103 -51t32 -79zM366 682l-19 -85h-82l20 85h81z" />
    <glyph glyph-name="uni1E6A" unicode="&#x1e6a;" horiz-adv-x="621" 
d="M690 700l-11 -50h-245l-149 -650h-58l150 650h-244l11 50h546zM492 861l-19 -85h-82l20 85h81z" />
    <glyph glyph-name="uni1E6B" unicode="&#x1e6b;" horiz-adv-x="353" 
d="M358 496l-10 -48h-120l-75 -318q-5 -25 -5 -35q0 -46 54 -46h65l-11 -49h-68q-46 0 -71 21.5t-25 59.5q0 18 4 33l78 334h-102l10 48h102l34 146l56 16l-36 -162h120zM317 785l-19 -85h-82l20 85h81z" />
    <glyph glyph-name="Wgrave" unicode="&#x1e80;" horiz-adv-x="964" 
d="M1023 700l-312 -700h-63l-84 623l-302 -623h-63l-65 700h54l53 -637l302 637h63l85 -636l271 636h61zM553 776l-68 161l57 18l53 -179h-42z" />
    <glyph glyph-name="wgrave" unicode="&#x1e81;" horiz-adv-x="812" 
d="M839 496l-273 -496h-59l-55 418l-231 -418h-59l-65 496h52l52 -440l236 440h56l53 -440l235 440h58zM445 597l-69 161l57 18l54 -179h-42z" />
    <glyph glyph-name="Wacute" unicode="&#x1e82;" horiz-adv-x="964" 
d="M1023 700l-312 -700h-63l-84 623l-302 -623h-63l-65 700h54l53 -637l302 637h63l85 -636l271 636h61zM748 888l-139 -112h-52l150 158z" />
    <glyph glyph-name="wacute" unicode="&#x1e83;" horiz-adv-x="812" 
d="M839 496l-273 -496h-59l-55 418l-231 -418h-59l-65 496h52l52 -440l236 440h56l53 -440l235 440h58zM649 709l-139 -112h-52l150 158z" />
    <glyph glyph-name="Wdieresis" unicode="&#x1e84;" horiz-adv-x="964" 
d="M1023 700l-312 -700h-63l-84 623l-302 -623h-63l-65 700h54l53 -637l302 637h63l85 -636l271 636h61zM553 852l-18 -76h-75l18 76h75zM727 852l-18 -76h-74l17 76h75z" />
    <glyph glyph-name="wdieresis" unicode="&#x1e85;" horiz-adv-x="812" 
d="M839 496l-273 -496h-59l-55 418l-231 -418h-59l-65 496h52l52 -440l236 440h56l53 -440l235 440h58zM450 673l-18 -76h-75l18 76h75zM624 673l-18 -76h-74l17 76h75z" />
    <glyph glyph-name="Ygrave" unicode="&#x1ef2;" horiz-adv-x="586" 
d="M332 265l-59 -265h-56l61 271l-149 429h58l127 -382l283 382h68zM362 776l-68 161l57 18l53 -179h-42z" />
    <glyph glyph-name="ygrave" unicode="&#x1ef3;" horiz-adv-x="493" 
d="M474 496h56l-313 -543q-68 -117 -173 -117h-41l11 48h27q45 0 74 22.5t61 75.5l14 23l-103 491h55l84 -431zM295 597l-69 161l57 18l54 -179h-42z" />
    <glyph glyph-name="endash" unicode="&#x2013;" horiz-adv-x="566" 
d="M522 274h-466l12 49h466z" />
    <glyph glyph-name="emdash" unicode="&#x2014;" horiz-adv-x="1033" 
d="M989 274h-933l12 49h933z" />
    <glyph glyph-name="quoteleft" unicode="&#x2018;" horiz-adv-x="225" 
d="M97 493l20 83q17 75 54 108q36 33 107 47l10 -38q-57 -11 -87 -40t-38 -82h40l-20 -78h-86z" />
    <glyph glyph-name="quoteright" unicode="&#x2019;" horiz-adv-x="225" 
d="M289 700l-20 -83q-16 -74 -54 -109q-37 -33 -107 -46l-10 38q57 11 87 40t38 82h-40l20 78h86z" />
    <glyph glyph-name="quotesinglbase" unicode="&#x201a;" horiz-adv-x="225" 
d="M147 85l-20 -83q-17 -75 -54 -108q-36 -33 -107 -47l-10 38q57 11 87 40t38 82h-40l20 78h86z" />
    <glyph glyph-name="quotedblleft" unicode="&#x201c;" horiz-adv-x="421" 
d="M97 493l20 83q17 75 54 108q36 33 107 47l10 -38q-57 -11 -87 -40t-38 -82h40l-20 -78h-86zM293 493l20 83q17 75 54 108q36 33 107 47l10 -38q-57 -11 -87 -40t-38 -82h40l-20 -78h-86z" />
    <glyph glyph-name="quotedblright" unicode="&#x201d;" horiz-adv-x="420" 
d="M292 711l-20 -83q-16 -74 -54 -109q-37 -33 -107 -46l-10 38q57 11 87 40t38 82h-40l20 78h86zM488 714l-20 -83q-16 -74 -54 -109q-37 -33 -107 -46l-10 38q57 11 87 40t38 82h-40l20 78h86z" />
    <glyph glyph-name="quotedblbase" unicode="&#x201e;" horiz-adv-x="421" 
d="M147 85l-20 -83q-17 -75 -54 -108q-36 -33 -107 -47l-10 38q57 11 87 40t38 82h-40l20 78h86zM343 85l-20 -83q-17 -75 -54 -108q-36 -33 -107 -47l-10 38q57 11 87 40t38 82h-40l20 78h86z" />
    <glyph glyph-name="dagger" unicode="&#x2020;" horiz-adv-x="510" 
d="M271 428h-179l11 49h179l52 223h52l-52 -223h180l-11 -49h-180l-121 -521h-52z" />
    <glyph glyph-name="daggerdbl" unicode="&#x2021;" horiz-adv-x="511" 
d="M505 438h-180l-62 -269h180l-11 -49h-180l-50 -213h-52l50 213h-179l11 49h179l62 269h-179l11 49h179l50 213h52l-50 -213h180z" />
    <glyph glyph-name="bullet" unicode="&#x2022;" horiz-adv-x="250" 
d="M204 353l-26 -109h-109l26 109h109z" />
    <glyph glyph-name="ellipsis" unicode="&#x2026;" horiz-adv-x="952" 
d="M166 83l-20 -83h-78l19 83h79zM477 83l-19 -83h-79l20 83h78zM789 83l-20 -83h-78l20 83h78z" />
    <glyph glyph-name="perthousand" unicode="&#x2030;" horiz-adv-x="1321" 
d="M1079 314q73 0 119 -45q47 -45 47 -118q0 -71 -47.5 -117.5t-118.5 -46.5q-67 0 -114 47t-47 117q0 72 46.5 117.5t114.5 45.5zM1081 267q-48 0 -79 -32t-31 -83q0 -52 31 -85t79 -33t79.5 33t31.5 85q0 51 -31.5 83t-79.5 32zM285 709q73 0 119 -45q47 -45 47 -118
q0 -71 -47.5 -117.5t-118.5 -46.5q-67 0 -114 47t-47 117q0 72 46.5 117.5t114.5 45.5zM831 700l-602 -700h-65l602 700h65zM287 662q-48 0 -79 -32t-31 -83q0 -52 31 -85t79 -33t79.5 33t31.5 85q0 51 -31.5 83t-79.5 32zM697 314q73 0 119 -45q47 -45 47 -118
q0 -71 -47.5 -117.5t-118.5 -46.5q-67 0 -114 47t-47 117q0 72 46.5 117.5t114.5 45.5zM699 267q-48 0 -79 -32t-31 -83q0 -52 31 -85t79 -33t79.5 33t31.5 85q0 51 -31.5 83t-79.5 32z" />
    <glyph glyph-name="guilsinglleft" unicode="&#x2039;" horiz-adv-x="345" 
d="M133 286l107 -166l-44 -30l-131 203l213 193l33 -43z" />
    <glyph glyph-name="guilsinglright" unicode="&#x203a;" horiz-adv-x="345" 
d="M228 281l-107 166l44 30l131 -203l-213 -193l-33 43z" />
    <glyph glyph-name="fraction" unicode="&#x2044;" horiz-adv-x="660" 
d="M694 700l-597 -700h-64l597 700h64z" />
    <glyph glyph-name="Euro" unicode="&#x20ac;" horiz-adv-x="635" 
d="M643 472h-54q1 6 1 26q0 72 -43.5 112t-119.5 40q-79 0 -138 -55t-90 -150h280l-11 -48h-282q-11 -50 -13 -98h273l-11 -47h-263q4 -101 51.5 -157t135.5 -56q78 0 127 50t60 138h53q-17 -116 -83 -177t-164 -61q-108 0 -168.5 68.5t-64.5 194.5h-88l11 47h78q2 53 11 98
h-67l11 48h68q34 118 109 186.5t182 68.5q99 0 155.5 -50.5t56.5 -139.5q0 -19 -3 -38z" />
    <glyph glyph-name="uni2113" unicode="&#x2113;" horiz-adv-x="406" 
d="M131 79q0 -45 41 -45q30 0 69.5 30t73.5 78l22 -19q-92 -134 -183 -134q-36 0 -57 22t-21 62q0 22 6 49l60 257l-82 -43l12 52l81 41l29 128q17 75 60 114.5t97 39.5q42 0 70.5 -23t28.5 -65q0 -46 -33 -90.5t-94 -76.5l-109 -57l-68 -295q-3 -13 -3 -25zM214 453l62 31
q108 56 108 128q0 27 -13.5 41t-37.5 14q-33 0 -57.5 -26.5t-34.5 -71.5z" />
    <glyph glyph-name="uni2116" unicode="&#x2116;" horiz-adv-x="1145" 
d="M672 700h55l-160 -700h-59l-260 634l-145 -634h-54l160 700h71l251 -619zM985 717q73 0 119 -45q47 -45 47 -118q0 -71 -47.5 -117.5t-118.5 -46.5q-67 0 -114 47t-47 117q0 72 46.5 117.5t114.5 45.5zM987 670q-48 0 -79 -32t-31 -83q0 -52 31 -85t79 -33t79.5 33
t31.5 85q0 51 -31.5 83t-79.5 32z" />
    <glyph glyph-name="trademark" unicode="&#x2122;" horiz-adv-x="725" 
d="M158 655h258l-9 -38h-108l-59 -253h-42l59 253h-108zM765 655l-68 -291h-42l57 245l-146 -245h-49l-32 245l-57 -245h-42l68 291h67l29 -250l146 250h69z" />
    <glyph glyph-name="estimated" unicode="&#x212e;" horiz-adv-x="534" 
d="M415 141h43q-9 -73 -60 -112.5t-126 -39.5q-92 0 -151.5 62t-59.5 179q0 119 59 183.5t149 64.5q82 0 137.5 -53t55.5 -147q0 -34 -2 -48h-323v-121q42 -80 139 -80q118 0 139 112zM137 273h241v112q-38 53 -109 53q-41 0 -76.5 -19t-55.5 -53v-93z" />
    <glyph glyph-name="uni2153" unicode="&#x2153;" horiz-adv-x="1093" 
d="M919 700l-597 -700h-64l597 700h64zM283 316h108l-10 -46h-270l10 46h111l73 309q-49 -32 -114 -43l12 49q63 10 119 56h47zM900 212q29 -7 47.5 -30.5t18.5 -57.5q0 -57 -47.5 -94.5t-110.5 -37.5q-64 0 -98 34t-34 84q0 18 1 22h52l-1 -19q0 -34 21.5 -54t62.5 -20
t70.5 22.5t29.5 59.5q0 32 -23.5 51t-69.5 19h-17l11 46h9q57 0 90.5 23.5t33.5 60.5q0 60 -81 60q-93 0 -103 -89h-51q7 69 54 102q46 34 103 34q58 0 94.5 -27.5t36.5 -74.5q0 -39 -26.5 -69.5t-72.5 -44.5z" />
    <glyph glyph-name="uni2154" unicode="&#x2154;" horiz-adv-x="1103" 
d="M910 212q29 -7 47.5 -30.5t18.5 -57.5q0 -57 -47.5 -94.5t-110.5 -37.5q-64 0 -98 34t-34 84q0 18 1 22h52l-1 -19q0 -34 21.5 -54t62.5 -20t70.5 22.5t29.5 59.5q0 32 -23.5 51t-69.5 19h-17l11 46h9q57 0 90.5 23.5t33.5 60.5q0 60 -81 60q-93 0 -103 -89h-51
q7 69 54 102q46 34 103 34q58 0 94.5 -27.5t36.5 -74.5q0 -39 -26.5 -69.5t-72.5 -44.5zM936 700l-597 -700h-64l597 700h64zM204 317h231l-10 -46h-296l10 45l118 91l38 28q45 34 70 55q53 46 53 93q0 32 -22 50.5t-58 18.5q-43 0 -73.5 -25t-37.5 -69h-50q9 67 55 104.5
t109 37.5q56 0 91.5 -30t35.5 -80q0 -38 -21 -71q-21 -31 -54 -60q-25 -22 -96 -74z" />
    <glyph glyph-name="uni2155" unicode="&#x2155;" horiz-adv-x="1056" 
d="M900 700l-597 -700h-64l597 700h64zM283 316h108l-10 -46h-270l10 46h111l73 309q-49 -32 -114 -43l12 49q63 10 119 56h47zM778 370l-35 -125q30 27 75 27q53 0 85 -33.5t32 -86.5q0 -62 -44 -111t-115 -49q-58 0 -95.5 34.5t-37.5 90.5v11h51v-10q0 -36 22.5 -57.5
t61.5 -21.5q47 0 76.5 31t29.5 74q0 39 -21.5 59.5t-57.5 20.5q-45 0 -83 -33h-43l67 225h213l-10 -46h-171z" />
    <glyph glyph-name="uni2156" unicode="&#x2156;" horiz-adv-x="1083" 
d="M927 700l-597 -700h-64l597 700h64zM805 370l-35 -125q30 27 75 27q53 0 85 -33.5t32 -86.5q0 -62 -44 -111t-115 -49q-58 0 -95.5 34.5t-37.5 90.5v11h51v-10q0 -36 22.5 -57.5t61.5 -21.5q47 0 76.5 31t29.5 74q0 39 -21.5 59.5t-57.5 20.5q-46 0 -83 -33h-43l67 225
h213l-10 -46h-171zM204 317h231l-10 -46h-296l10 45l118 91l38 28q45 34 70 55q53 46 53 93q0 32 -22 50.5t-58 18.5q-43 0 -73.5 -25t-37.5 -69h-50q9 67 55 104.5t109 37.5q56 0 91.5 -30t35.5 -80q0 -38 -21 -71q-21 -31 -54 -60q-25 -22 -96 -74z" />
    <glyph glyph-name="uni2157" unicode="&#x2157;" horiz-adv-x="1050" 
d="M895 700l-597 -700h-64l597 700h64zM772 370l-35 -125q30 27 75 27q53 0 85 -33.5t32 -86.5q0 -62 -44 -111t-115 -49q-58 0 -95.5 34.5t-37.5 90.5v11h51v-10q0 -36 22.5 -57.5t61.5 -21.5q47 0 76.5 31t29.5 74q0 39 -21.5 59.5t-57.5 20.5q-45 0 -83 -33h-43l67 225
h213l-10 -46h-171zM368 484q29 -7 47.5 -30.5t18.5 -57.5q0 -57 -47.5 -94.5t-110.5 -37.5q-64 0 -98 34t-34 84q0 18 1 22h52l-1 -19q0 -34 21.5 -54t62.5 -20t70.5 22.5t29.5 59.5q0 32 -23.5 51t-69.5 19h-17l11 46h9q57 0 90.5 23.5t33.5 60.5q0 60 -81 60
q-93 0 -103 -89h-51q7 69 54 102q46 34 103 34q58 0 94.5 -27.5t36.5 -74.5q0 -39 -26.5 -69.5t-72.5 -44.5z" />
    <glyph glyph-name="uni2158" unicode="&#x2158;" horiz-adv-x="1091" 
d="M936 700l-597 -700h-64l597 700h64zM813 370l-35 -125q30 27 75 27q53 0 85 -33.5t32 -86.5q0 -62 -44 -111t-115 -49q-58 0 -95.5 34.5t-37.5 90.5v11h51v-10q0 -36 22.5 -57.5t61.5 -21.5q47 0 76.5 31t29.5 74q0 39 -21.5 59.5t-57.5 20.5q-46 0 -83 -33h-43l67 225
h213l-10 -46h-171zM365 271h-51l24 102h-204l10 46l250 269h68l-62 -269h74l-10 -47h-75zM397 629l-196 -210h147z" />
    <glyph glyph-name="uni2159" unicode="&#x2159;" horiz-adv-x="1086" 
d="M911 700l-597 -700h-64l597 700h64zM283 316h108l-10 -46h-270l10 46h111l73 309q-49 -32 -114 -43l12 49q63 10 119 56h47zM991 311h-50q0 35 -22 52.5t-59 17.5q-57 0 -98 -44.5t-47 -122.5q40 62 122 62q56 0 91.5 -33t35.5 -92q0 -67 -44.5 -113t-112.5 -46
q-69 0 -105.5 48t-36.5 136q0 111 56.5 181.5t140.5 70.5q57 0 93 -32t36 -85zM721 129q0 -41 25.5 -64.5t65.5 -23.5q43 0 72.5 27.5t29.5 74.5q0 42 -24 65t-62 23q-44 0 -75.5 -28t-31.5 -74z" />
    <glyph glyph-name="uni215A" unicode="&#x215a;" horiz-adv-x="1071" 
d="M896 700l-597 -700h-64l597 700h64zM976 311h-50q0 35 -22 52.5t-59 17.5q-57 0 -98 -44.5t-47 -122.5q40 62 122 62q56 0 91.5 -33t35.5 -92q0 -67 -44.5 -113t-112.5 -46q-69 0 -105.5 48t-36.5 136q0 111 56.5 181.5t140.5 70.5q57 0 93 -32t36 -85zM706 129
q0 -41 25.5 -64.5t65.5 -23.5q43 0 72.5 27.5t29.5 74.5q0 42 -24 65t-62 23q-44 0 -75.5 -28t-31.5 -74zM275 642l-35 -125q30 27 75 27q53 0 85 -33.5t32 -86.5q0 -62 -44 -111t-115 -49q-58 0 -95.5 34.5t-37.5 90.5v11h51v-10q0 -36 22.5 -57.5t61.5 -21.5q47 0 76.5 31
t29.5 74q0 39 -21.5 59.5t-57.5 20.5q-46 0 -83 -33h-43l67 225h213l-10 -46h-171z" />
    <glyph glyph-name="oneeighth" unicode="&#x215b;" horiz-adv-x="1076" 
d="M901 700l-597 -700h-64l597 700h64zM283 316h108l-10 -46h-270l10 46h111l73 309q-49 -32 -114 -43l12 49q63 10 119 56h47zM888 216q61 -23 61 -92q0 -60 -46 -96t-109 -36q-58 0 -96 29.5t-38 79.5q0 45 30 77.5t79 42.5q-60 28 -60 86q0 57 42 89q44 32 100 32
q54 0 90.5 -28t36.5 -76q0 -40 -24.5 -70t-65.5 -38zM836 241q37 0 63.5 21t26.5 55q0 31 -21.5 47.5t-56.5 16.5q-38 0 -62.5 -19.5t-24.5 -54.5q0 -32 20.5 -49t54.5 -17zM813 194q-41 0 -70.5 -23.5t-29.5 -61.5q0 -34 23.5 -52t61.5 -18q43 0 71 22t28 60q0 35 -23.5 54
t-60.5 19z" />
    <glyph glyph-name="threeeighths" unicode="&#x215c;" horiz-adv-x="1059" 
d="M894 700l-597 -700h-64l597 700h64zM871 216q61 -23 61 -92q0 -60 -46 -96t-109 -36q-58 0 -96 29.5t-38 79.5q0 45 30 77.5t79 42.5q-60 28 -60 86q0 57 42 89q44 32 100 32q54 0 90.5 -28t36.5 -76q0 -40 -24.5 -70t-65.5 -38zM819 241q37 0 63.5 21t26.5 55
q0 31 -21.5 47.5t-56.5 16.5q-38 0 -62.5 -19.5t-24.5 -54.5q0 -32 20.5 -49t54.5 -17zM796 194q-41 0 -70.5 -23.5t-29.5 -61.5q0 -34 23.5 -52t61.5 -18q43 0 71 22t28 60q0 35 -23.5 54t-60.5 19zM368 484q29 -7 47.5 -30.5t18.5 -57.5q0 -57 -47.5 -94.5t-110.5 -37.5
q-64 0 -98 34t-34 84q0 18 1 22h52l-1 -19q0 -34 21.5 -54t62.5 -20t70.5 22.5t29.5 59.5q0 32 -23.5 51t-69.5 19h-17l11 46h9q57 0 90.5 23.5t33.5 60.5q0 60 -81 60q-93 0 -103 -89h-51q7 69 54 102q46 34 103 34q58 0 94.5 -27.5t36.5 -74.5q0 -39 -26.5 -69.5
t-72.5 -44.5z" />
    <glyph glyph-name="fiveeighths" unicode="&#x215d;" horiz-adv-x="1040" 
d="M852 216q61 -23 61 -92q0 -60 -46 -96t-109 -36q-58 0 -96 29.5t-38 79.5q0 45 30 77.5t79 42.5q-60 28 -60 86q0 57 42 89q44 32 100 32q54 0 90.5 -28t36.5 -76q0 -40 -24.5 -70t-65.5 -38zM800 241q37 0 63.5 21t26.5 55q0 31 -21.5 47.5t-56.5 16.5
q-38 0 -62.5 -19.5t-24.5 -54.5q0 -32 20.5 -49t54.5 -17zM777 194q-41 0 -70.5 -23.5t-29.5 -61.5q0 -34 23.5 -52t61.5 -18q43 0 71 22t28 60q0 35 -23.5 54t-60.5 19zM886 700l-597 -700h-64l597 700h64zM275 642l-35 -125q30 27 75 27q53 0 85 -33.5t32 -86.5
q0 -62 -44 -111t-115 -49q-58 0 -95.5 34.5t-37.5 90.5v11h51v-10q0 -36 22.5 -57.5t61.5 -21.5q47 0 76.5 31t29.5 74q0 39 -21.5 59.5t-57.5 20.5q-46 0 -83 -33h-43l67 225h213l-10 -46h-171z" />
    <glyph glyph-name="seveneighths" unicode="&#x215e;" horiz-adv-x="1069" 
d="M885 700l-597 -700h-64l597 700h64zM881 216q61 -23 61 -92q0 -60 -46 -96t-109 -36q-58 0 -96 29.5t-38 79.5q0 45 30 77.5t79 42.5q-60 28 -60 86q0 57 42 89q44 32 100 32q54 0 90.5 -28t36.5 -76q0 -40 -24.5 -70t-65.5 -38zM829 241q37 0 63.5 21t26.5 55
q0 31 -21.5 47.5t-56.5 16.5q-38 0 -62.5 -19.5t-24.5 -54.5q0 -32 20.5 -49t54.5 -17zM806 194q-41 0 -70.5 -23.5t-29.5 -61.5q0 -34 23.5 -52t61.5 -18q43 0 71 22t28 60q0 35 -23.5 54t-60.5 19zM520 688l-10 -46l-238 -371h-52l234 367h-258l11 50h313z" />
    <glyph glyph-name="arrowleft" unicode="&#x2190;" horiz-adv-x="681" 
d="M295 61l-234 234l234 233l33 -33l-176 -176h484v-49h-484l176 -176z" />
    <glyph glyph-name="arrowup" unicode="&#x2191;" horiz-adv-x="567" 
d="M538 341l-33 -33l-176 176v-484h-49v484l-176 -176l-33 33l233 234z" />
    <glyph glyph-name="arrowright" unicode="&#x2192;" horiz-adv-x="677" 
d="M406 61l-33 33l176 176h-484v49h484l-176 176l33 33l234 -233z" />
    <glyph glyph-name="arrowdown" unicode="&#x2193;" horiz-adv-x="566" 
d="M513 234l-234 -234l-233 234l33 33l176 -176v484h49v-484l176 176z" />
    <glyph glyph-name="partialdiff" unicode="&#x2202;" horiz-adv-x="601" 
d="M563 397q1 -186 -82.5 -298t-203.5 -110q-89 0 -150.5 60t-61.5 159q0 103 64.5 169.5t156.5 66.5q72 0 132.5 -40.5t74.5 -112.5q12 65 12 117q0 117 -50.5 177.5t-125.5 60.5q-55 0 -95 -31.5t-49 -80.5h-64q18 78 73.5 122t139.5 44q93 0 160 -64q69 -64 69 -239z
M292 391q-71 0 -123 -48t-52 -129q0 -82 49 -131t114 -49q69 0 123.5 53.5t54.5 136.5q0 79 -50 123t-116 44z" />
    <glyph glyph-name="product" unicode="&#x220f;" horiz-adv-x="826" 
d="M510 0l151 653h-298l-151 -653h-54l152 653h-111l11 47h625l-11 -47h-109l-152 -653h-53z" />
    <glyph glyph-name="summation" unicode="&#x2211;" horiz-adv-x="653" 
d="M682 700l-12 -48h-418l232 -316l-384 -287h462l-11 -49h-543l11 47l390 298l-229 309l11 46h491z" />
    <glyph glyph-name="minus" unicode="&#x2212;" 
d="M517 338l-12 -50h-392l12 50h392z" />
    <glyph glyph-name="radical" unicode="&#x221a;" horiz-adv-x="591" 
d="M660 700l-415 -700h-55l-98 496h60l77 -426l368 630h63z" />
    <glyph glyph-name="infinity" unicode="&#x221e;" horiz-adv-x="780" 
d="M735 303q1 -93 -58 -167.5t-150 -72.5q-62 0 -102 32.5t-50 81.5q-52 -114 -161 -114q-74 0 -114.5 54t-40.5 132q0 96 57 167t150 71q60 0 97 -31t47 -85q60 116 170 116q74 0 114 -54q41 -53 41 -130zM683 300q0 56 -28.5 92.5t-77.5 36.5q-60 0 -107 -52.5t-47 -131.5
q0 -61 30 -93.5t80 -32.5q66 0 108 55.5t42 125.5zM365 299q0 61 -29 94.5t-77 33.5q-63 0 -104.5 -54.5t-41.5 -123.5q0 -55 28 -91.5t77 -36.5q59 0 103 50t44 128z" />
    <glyph glyph-name="integral" unicode="&#x222b;" horiz-adv-x="322" 
d="M254 589l-152 -667q-14 -62 -48 -88t-88 -26h-37l12 48h28q63 0 82 80l151 656q16 68 45.5 93.5t91.5 25.5h70l-11 -49h-55q-44 0 -62 -16t-27 -57z" />
    <glyph glyph-name="approxequal" unicode="&#x2248;" 
d="M435 379q61 0 97 27l-12 -53q-45 -20 -98 -20q-36 0 -91 21q-54 22 -94 22q-62 0 -111 -32l12 50q49 29 111 29q39 0 92 -22t94 -22zM404 238q59 0 96 26l-13 -53q-42 -20 -98 -20q-31 0 -91 21q-51 22 -93 22q-63 0 -112 -32l12 50q49 29 112 29q33 0 90 -21
q54 -22 97 -22z" />
    <glyph glyph-name="notequal" unicode="&#x2260;" 
d="M522 360h-159l-52 -94h189l-11 -48h-204l-68 -124l-40 23l56 101h-136l11 48h151l52 94h-181l11 48h196l74 134l39 -23l-61 -111h144z" />
    <glyph glyph-name="lessequal" unicode="&#x2264;" 
d="M574 549l-405 -172l325 -174l-26 -41l-354 190l12 58l430 187zM465 50l-12 -50h-416l12 50h416z" />
    <glyph glyph-name="greaterequal" unicode="&#x2265;" 
d="M155 543l26 44l354 -182l-12 -58l-429 -177l-17 47l402 163zM471 50l-12 -50h-416l12 50h416z" />
    <glyph glyph-name="lozenge" unicode="&#x25ca;" horiz-adv-x="586" 
d="M568 336l-333 -347l-173 347l334 346zM382 591l-250 -263l117 -247l249 263z" />
    <glyph glyph-name="NULL" horiz-adv-x="37" 
 />
    <glyph glyph-name="zero.osf" horiz-adv-x="657" 
d="M310 -11q-102 0 -171 67t-69 190q-2 141 90 230.5t208 87.5q100 0 166.5 -67.5t66.5 -189.5q2 -140 -88.5 -230t-202.5 -88zM360 508q-93 0 -163 -71t-70 -187q0 -99 51.5 -154t128.5 -55q91 -2 165 72.5t72 187.5q0 98 -53 152.5t-131 54.5z" />
    <glyph glyph-name="one.osf" horiz-adv-x="540" 
d="M421 0h-418l11 47h183l108 459h-183l10 46h418l-10 -46h-183l-108 -459h183z" />
    <glyph glyph-name="two.osf" horiz-adv-x="530" 
d="M106 47l318 1l-12 -48h-406l11 48l180 121q93 63 130 93q92 73 92 145q0 50 -32 78t-82 28q-58 0 -106.5 -42t-55.5 -109h-56q14 95 77.5 148.5t142.5 53.5q70 0 118.5 -41.5t48.5 -110.5q0 -46 -24 -86q-22 -37 -64 -73.5t-127 -97.5z" />
    <glyph glyph-name="three.osf" horiz-adv-x="592" 
d="M363 211q48 -15 79.5 -54.5t31.5 -98.5q0 -89 -70 -147.5t-175 -58.5q-97 0 -157.5 53.5t-60.5 138.5q0 4 2 28h57q-2 -24 -2 -28q0 -62 45.5 -100t120.5 -38q77 0 130 41t53 108q0 61 -44.5 97t-129.5 36h-14l13 51h8q100 0 162 45t62 113q0 53 -40 82.5t-109 29.5
q-77 0 -132 -39q-54 -38 -62 -127h-56q10 107 82.5 163.5t175.5 56.5q90 0 143.5 -41.5t53.5 -117.5q0 -69 -44 -121t-123 -72z" />
    <glyph glyph-name="four.osf" horiz-adv-x="649" 
d="M545 83l-10 -49h-134l-39 -173h-53l40 174h-353l13 56l432 458h80l-108 -466h132zM457 499l-387 -416h290z" />
    <glyph glyph-name="five.osf" horiz-adv-x="587" 
d="M517 548l-12 -51h-293l-69 -237q63 45 140 45q89 0 139 -57q50 -58 50 -145q0 -105 -67.5 -179t-181.5 -74q-95 0 -152.5 54.5t-57.5 142.5q0 17 1 22h55q-1 -5 -1 -21q0 -70 40.5 -107.5t113.5 -37.5q89 0 142 57.5t53 138.5q0 69 -38 111.5t-112 42.5q-79 0 -146 -56
h-46l102 351h340z" />
    <glyph glyph-name="six.osf" horiz-adv-x="629" 
d="M590 520h-55q-2 60 -41.5 93t-106.5 33q-106 0 -177.5 -88.5t-80.5 -245.5q33 62 88 96t127 34q97 0 151.5 -59.5t54.5 -145.5q2 -98 -66.5 -174t-178.5 -74q-111 0 -171 77.5t-60 219.5q-1 179 91 298t228 116q89 0 143 -48.5t54 -131.5zM143 199q0 -66 44.5 -111
t122.5 -45q86 0 135 55.5t49 133.5q0 68 -42 112t-117 44q-86 0 -139 -55.5t-53 -133.5z" />
    <glyph glyph-name="seven.osf" horiz-adv-x="580" 
d="M589 549l-14 -56l-400 -632h-62l401 632h-437l13 56h499z" />
    <glyph glyph-name="eight.osf" horiz-adv-x="582" 
d="M505 195q0 -93 -73 -149.5t-173 -56.5q-89 0 -151.5 45.5t-62.5 125.5q0 79 48 135.5t136 73.5q-101 38 -101 147q0 83 66.5 133.5t157.5 50.5q83 0 142 -42.5t59 -117.5q0 -68 -46 -120q-44 -50 -113 -64q52 -21 81.5 -62.5t29.5 -98.5zM328 388q67 0 118.5 38.5
t51.5 100.5q0 57 -46 88q-44 31 -106 31q-67 0 -115 -36.5t-48 -98.5q0 -60 43 -91q44 -32 102 -32zM450 197q0 63 -46.5 100t-112.5 37q-73 0 -131.5 -44.5t-58.5 -116.5q0 -61 45 -95.5t116 -34.5q79 0 133.5 42.5t54.5 111.5z" />
    <glyph glyph-name="nine.osf" horiz-adv-x="623" 
d="M43 33h55q10 -60 51 -93t107 -33q104 0 171.5 87.5t76.5 246.5q-33 -62 -88 -96t-127 -34q-97 0 -151.5 59.5t-54.5 145.5q-2 98 66.5 174t178.5 74q111 0 171 -77.5t60 -219.5q2 -180 -86 -298t-223 -116q-88 0 -144 48.5t-63 131.5zM490 354q0 66 -44.5 111t-122.5 45
q-86 0 -135 -55.5t-49 -133.5q0 -68 42 -112t117 -44q86 0 139 55.5t53 133.5z" />
    <glyph glyph-name="zero.tf" 
d="M552 448q0 -104 -30 -211t-94 -178q-65 -71 -160 -71q-174 0 -174 251q0 103 29 211q30 106 93 178q64 72 161 72q175 0 175 -252zM496 444q0 201 -126 201q-68 2 -120 -59.5t-77 -153t-24 -189.5q0 -200 122 -200q68 -2 121 59.5t79 153t25 188.5z" />
    <glyph glyph-name="one.tf" 
d="M301 47h175l-11 -47h-403l10 47h176l135 581q-39 -32 -82.5 -49t-110.5 -31l10 46q106 22 196 94h52z" />
    <glyph glyph-name="two.tf" 
d="M116 51h389l-10 -51h-469l12 52l189 150l73 57q65 50 117 94q90 82 90 164q0 62 -41 95.5t-109 33.5q-77 0 -130 -43.5t-67 -122.5h-58q17 104 92.5 162t171.5 58q85 0 141 -47t56 -132q0 -60 -31 -109q-31 -51 -83 -97q-59 -52 -155 -126z" />
    <glyph glyph-name="three.tf" 
d="M408 348q48 -15 79.5 -54.5t31.5 -98.5q0 -89 -70 -147.5t-175 -58.5q-97 0 -157.5 53.5t-60.5 138.5q0 4 2 28h57q-2 -24 -2 -28q0 -62 45.5 -100t120.5 -38q77 0 130 41t53 108q0 61 -44.5 97t-129.5 36h-14l13 51h8q100 0 162 45t62 113q0 53 -40 82.5t-109 29.5
q-76 0 -132 -39q-54 -38 -62 -127h-56q10 107 82.5 163.5t175.5 56.5q90 0 143.5 -41.5t53.5 -117.5q0 -69 -44 -121t-123 -72z" />
    <glyph glyph-name="four.tf" 
d="M562 222l-10 -49h-134l-39 -173h-53l40 174h-353l13 56l432 458h80l-108 -466h132zM474 638l-387 -416h290z" />
    <glyph glyph-name="five.tf" 
d="M565 688l-12 -51h-293l-69 -237q63 45 140 45q89 0 139 -57q50 -58 50 -145q0 -105 -67.5 -179t-181.5 -74q-95 0 -152.5 54.5t-57.5 142.5q0 17 1 22h55q-1 -5 -1 -21q0 -70 40.5 -107.5t113.5 -37.5q89 0 142 57.5t53 138.5q0 69 -38 111.5t-112 42.5q-79 0 -146 -56
h-46l102 351h340z" />
    <glyph glyph-name="six.tf" 
d="M585 520h-55q-2 60 -41.5 93t-106.5 33q-106 0 -177.5 -88.5t-80.5 -245.5q33 62 88 96t127 34q97 0 151.5 -59.5t54.5 -145.5q2 -98 -66.5 -174t-178.5 -74q-111 0 -171 77.5t-60 219.5q-1 179 91 298t228 116q89 0 143 -48.5t54 -131.5zM138 199q0 -66 44.5 -111
t122.5 -45q86 0 135 55.5t49 133.5q0 68 -42 112t-117 44q-86 0 -139 -55.5t-53 -133.5z" />
    <glyph glyph-name="seven.tf" 
d="M652 688l-14 -56l-400 -632h-62l401 632h-437l13 56h499z" />
    <glyph glyph-name="eight.tf" 
d="M514 195q0 -93 -73 -149.5t-173 -56.5q-89 0 -151.5 45.5t-62.5 125.5q0 79 48 135.5t136 73.5q-101 38 -101 147q0 83 66.5 133.5t157.5 50.5q83 0 142 -42.5t59 -117.5q0 -68 -46 -120q-44 -50 -113 -64q52 -21 81.5 -62.5t29.5 -98.5zM337 388q67 0 118.5 38.5
t51.5 100.5q0 57 -46 88q-44 31 -106 31q-67 0 -115 -36.5t-48 -98.5q0 -60 43 -91q44 -32 102 -32zM459 197q0 63 -46.5 100t-112.5 37q-73 0 -131.5 -44.5t-58.5 -116.5q0 -61 45 -95.5t116 -34.5q79 0 133.5 42.5t54.5 111.5z" />
    <glyph glyph-name="nine.tf" 
d="M58 169h55q10 -60 51 -93t107 -33q104 0 171.5 87.5t76.5 246.5q-33 -62 -88 -96t-127 -34q-97 0 -151.5 59.5t-54.5 145.5q-2 98 66.5 174t178.5 74q111 0 171 -77.5t60 -219.5q2 -180 -86 -298t-223 -116q-88 0 -144 48.5t-63 131.5zM505 490q0 66 -44.5 111t-122.5 45
q-86 0 -135 -55.5t-49 -133.5q0 -68 42 -112t117 -44q86 0 139 55.5t53 133.5z" />
    <glyph glyph-name="zero.dnom" horiz-adv-x="359" 
d="M25 149q-1 65 16.5 127t59.5 107.5t100 44.5q114 0 114 -161q0 -48 -10.5 -96t-31 -89t-55.5 -66t-79 -24q-114 0 -114 157zM264 270q0 111 -71 111q-40 1 -68 -39.5t-39 -92t-11 -101.5q0 -109 70 -109q40 -1 68.5 39t40 91t10.5 101z" />
    <glyph glyph-name="one.dnom" horiz-adv-x="363" 
d="M161 45h108l-10 -46h-270l10 46h111l73 309q-49 -32 -114 -43l12 49q63 10 119 56h47z" />
    <glyph glyph-name="two.dnom" horiz-adv-x="357" 
d="M57 45h231l-10 -46h-296l10 45l118 91l38 28q45 34 70 55q53 46 53 93q0 32 -22 50.5t-58 18.5q-43 0 -73.5 -25t-37.5 -69h-50q9 67 55 104.5t109 37.5q56 0 91.5 -30t35.5 -80q0 -38 -21 -71q-21 -31 -54 -60q-25 -22 -96 -74z" />
    <glyph glyph-name="three.dnom" horiz-adv-x="360" 
d="M231 212q29 -7 47.5 -30.5t18.5 -57.5q0 -57 -47.5 -94.5t-110.5 -37.5q-64 0 -98 34t-34 84q0 18 1 22h52l-1 -19q0 -34 21.5 -54t62.5 -20t70.5 22.5t29.5 59.5q0 32 -23.5 51t-69.5 19h-17l11 46h9q57 0 90.5 23.5t33.5 60.5q0 60 -81 60q-93 0 -103 -89h-51
q8 69 54 102q46 34 103 34q58 0 94.5 -27.5t36.5 -74.5q0 -39 -26.5 -69.5t-72.5 -44.5z" />
    <glyph glyph-name="four.dnom" horiz-adv-x="356" 
d="M210 -1h-51l24 102h-204l10 46l250 269h68l-62 -269h74l-10 -47h-75zM242 357l-196 -210h147z" />
    <glyph glyph-name="five.dnom" horiz-adv-x="359" 
d="M141 370l-35 -125q30 27 75 27q53 0 85 -33.5t32 -86.5q0 -62 -44 -111t-115 -49q-58 0 -95.5 34.5t-37.5 90.5v11h51v-10q0 -36 22.5 -57.5t61.5 -21.5q47 0 76.5 31t29.5 74q0 39 -21.5 59.5t-57.5 20.5q-46 0 -83 -33h-43l67 225h213l-10 -46h-171z" />
    <glyph glyph-name="six.dnom" horiz-adv-x="357" 
d="M338 311h-50q0 35 -22 52.5t-59 17.5q-57 0 -98 -44.5t-47 -122.5q40 62 122 62q56 0 91.5 -33t35.5 -92q0 -67 -44.5 -113t-112.5 -46q-69 0 -105.5 48t-36.5 136q0 111 56.5 181.5t140.5 70.5q57 0 93 -32t36 -85zM68 129q0 -41 25.5 -64.5t65.5 -23.5q43 0 72.5 27.5
t29.5 74.5q0 42 -24 65t-62 23q-44 0 -75.5 -28t-31.5 -74z" />
    <glyph glyph-name="seven.dnom" horiz-adv-x="358" 
d="M374 416l-10 -46l-238 -371h-52l234 367h-258l11 50h313z" />
    <glyph glyph-name="eight.dnom" horiz-adv-x="360" 
d="M232 216q61 -23 61 -92q0 -60 -46 -96t-109 -36q-58 0 -96 29.5t-38 79.5q0 45 30 77.5t79 42.5q-60 28 -60 86q0 57 42 89q44 32 100 32q54 0 90.5 -28t36.5 -76q0 -40 -24.5 -70t-65.5 -38zM180 241q37 0 63.5 21t26.5 55q0 31 -21.5 47.5t-56.5 16.5
q-38 0 -62.5 -19.5t-24.5 -54.5q0 -32 20.5 -49t54.5 -17zM157 194q-41 0 -70.5 -23.5t-29.5 -61.5q0 -34 23.5 -52t61.5 -18q43 0 71 22t28 60q0 35 -23.5 54t-60.5 19z" />
    <glyph glyph-name="nine.dnom" horiz-adv-x="358" 
d="M1 108h51q0 -34 24.5 -51.5t62.5 -17.5q56 0 94 44t44 123q-41 -63 -122 -63q-56 0 -91.5 33t-35.5 92q0 67 44.5 113.5t113.5 46.5q68 0 105 -48.5t37 -135.5q0 -112 -54 -182t-138 -70q-58 0 -96.5 32t-38.5 84zM272 291q0 41 -25.5 64.5t-65.5 23.5q-43 0 -72.5 -27.5
t-29.5 -74.5q0 -42 24 -65t62 -23q44 0 75.5 28t31.5 74z" />
    <glyph glyph-name="zero.numr" horiz-adv-x="359" 
d="M88 421q-1 65 16.5 127t59.5 107.5t100 44.5q114 0 114 -161q0 -48 -10.5 -96t-31 -89t-55.5 -66t-79 -24q-114 0 -114 157zM327 542q0 111 -71 111q-40 1 -68 -39.5t-39 -92t-11 -101.5q0 -109 70 -109q40 -1 68.5 39t40 91t10.5 101z" />
    <glyph glyph-name="one.numr" horiz-adv-x="363" 
d="M224 317h108l-10 -46h-270l10 46h111l73 309q-49 -32 -114 -43l12 49q63 10 119 56h47z" />
    <glyph glyph-name="two.numr" horiz-adv-x="357" 
d="M120 317h231l-10 -46h-296l10 45l118 91l38 28q45 34 70 55q53 46 53 93q0 32 -22 50.5t-58 18.5q-43 0 -73.5 -25t-37.5 -69h-50q9 67 55 104.5t109 37.5q56 0 91.5 -30t35.5 -80q0 -38 -21 -71q-21 -31 -54 -60q-25 -22 -96 -74z" />
    <glyph glyph-name="three.numr" horiz-adv-x="360" 
d="M294 484q29 -7 47.5 -30.5t18.5 -57.5q0 -57 -47.5 -94.5t-110.5 -37.5q-64 0 -98 34t-34 84q0 18 1 22h52l-1 -19q0 -34 21.5 -54t62.5 -20t70.5 22.5t29.5 59.5q0 32 -23.5 51t-69.5 19h-17l11 46h9q57 0 90.5 23.5t33.5 60.5q0 60 -81 60q-93 0 -103 -89h-51
q7 69 54 102q46 34 103 34q58 0 94.5 -27.5t36.5 -74.5q0 -39 -26.5 -69.5t-72.5 -44.5z" />
    <glyph glyph-name="four.numr" horiz-adv-x="356" 
d="M273 271h-51l24 102h-204l10 46l250 269h68l-62 -269h74l-10 -47h-75zM305 629l-196 -210h147z" />
    <glyph glyph-name="five.numr" horiz-adv-x="359" 
d="M204 642l-35 -125q30 27 75 27q53 0 85 -33.5t32 -86.5q0 -62 -44 -111t-115 -49q-58 0 -95.5 34.5t-37.5 90.5v11h51v-10q0 -36 22.5 -57.5t61.5 -21.5q47 0 76.5 31t29.5 74q0 39 -21.5 59.5t-57.5 20.5q-45 0 -83 -33h-43l67 225h213l-10 -46h-171z" />
    <glyph glyph-name="six.numr" horiz-adv-x="357" 
d="M401 583h-50q0 35 -22 52.5t-59 17.5q-57 0 -98 -44.5t-47 -122.5q40 62 122 62q56 0 91.5 -33t35.5 -92q0 -67 -44.5 -113t-112.5 -46q-69 0 -105.5 48t-36.5 136q0 111 56.5 181.5t140.5 70.5q57 0 93 -32t36 -85zM131 401q0 -41 25.5 -64.5t65.5 -23.5q43 0 72.5 27.5
t29.5 74.5q0 42 -24 65t-62 23q-44 0 -75.5 -28t-31.5 -74z" />
    <glyph glyph-name="seven.numr" horiz-adv-x="358" 
d="M437 688l-10 -46l-238 -371h-52l234 367h-258l11 50h313z" />
    <glyph glyph-name="eight.numr" horiz-adv-x="360" 
d="M295 488q61 -23 61 -92q0 -60 -46 -96t-109 -36q-58 0 -96 29.5t-38 79.5q0 45 30 77.5t79 42.5q-60 28 -60 86q0 57 42 89q44 32 100 32q54 0 90.5 -28t36.5 -76q0 -40 -24.5 -70t-65.5 -38zM243 513q37 0 63.5 21t26.5 55q0 31 -21.5 47.5t-56.5 16.5
q-38 0 -62.5 -19.5t-24.5 -54.5q0 -32 20.5 -49t54.5 -17zM220 466q-41 0 -70.5 -23.5t-29.5 -61.5q0 -34 23.5 -52t61.5 -18q43 0 71 22t28 60q0 35 -23.5 54t-60.5 19z" />
    <glyph glyph-name="nine.numr" horiz-adv-x="358" 
d="M64 380h51q0 -34 24.5 -51.5t62.5 -17.5q56 0 94 44t44 123q-41 -63 -122 -63q-56 0 -91.5 33t-35.5 92q0 67 44.5 113.5t113.5 46.5q68 0 105 -48.5t37 -135.5q0 -112 -54 -182t-138 -70q-58 0 -96.5 32t-38.5 84zM335 563q0 41 -25.5 64.5t-65.5 23.5
q-43 0 -72.5 -27.5t-29.5 -74.5q0 -42 24 -65t62 -23q44 0 75.5 28t31.5 74z" />
    <glyph glyph-name="exclamdown.cap" horiz-adv-x="281" 
d="M178 565l20 85h81l-20 -85h-81zM117 256l56 196h40l-34 -196l-71 -306h-62z" />
    <glyph glyph-name="questiondown.cap" horiz-adv-x="509" 
d="M320 582l20 85h81l-20 -85h-81zM123 256l89 50q37 21 58.5 50t33.5 76l11 44h53l-13 -52q-16 -60 -43.5 -97.5t-73.5 -62.5l-60 -33q-49 -27 -74.5 -56.5t-25.5 -69.5q0 -49 38 -76t100 -27q69 0 114.5 36t56.5 103h53q-14 -90 -74.5 -137.5t-153.5 -47.5
q-86 0 -138.5 38t-52.5 108q0 97 102 154z" />
    <glyph glyph-name="periodcentered.cap" horiz-adv-x="202" 
d="M192 425l-19 -85h-82l20 85h81z" />
    <glyph glyph-name="bullet.cap" horiz-adv-x="230" 
d="M216 403l-26 -109h-109l26 109h109z" />
    <glyph glyph-name="hyphen.cap" horiz-adv-x="388" 
d="M371 390l-11 -49h-288l11 49h288z" />
    <glyph glyph-name="endash.cap" horiz-adv-x="566" 
d="M539 346h-466l12 49h466z" />
    <glyph glyph-name="emdash.cap" horiz-adv-x="1033" 
d="M1006 346h-933l12 49h933z" />
    <glyph glyph-name="guillemotleft.cap" horiz-adv-x="560" 
d="M148 351l107 -166l-44 -30l-131 203l213 193l33 -43zM363 351l107 -166l-44 -30l-131 203l213 193l33 -43z" />
    <glyph glyph-name="guillemotright.cap" horiz-adv-x="560" 
d="M245 355l-107 166l44 30l131 -203l-213 -193l-33 43zM460 355l-107 166l44 30l131 -203l-213 -193l-33 43z" />
    <glyph glyph-name="guilsinglleft.cap" horiz-adv-x="345" 
d="M148 351l107 -166l-44 -30l-131 203l213 193l33 -43z" />
    <glyph glyph-name="guilsinglright.cap" horiz-adv-x="345" 
d="M243 346l-107 166l44 30l131 -203l-213 -193l-33 43z" />
    <glyph glyph-name="at.cap" horiz-adv-x="886" 
d="M868 449q1 -76 -29 -151.5t-84 -124t-113 -46.5q-44 0 -71 26.5t-27 66.5q-29 -46 -73 -71.5t-93 -25.5q-61 0 -94.5 39.5t-33.5 111.5q-2 103 67.5 190.5t170.5 84.5q103 0 123 -85l31 76h58l-104 -262q-10 -24 -10 -45q0 -28 17.5 -46.5t44.5 -18.5q45 -2 86.5 44.5
t64.5 113t22 125.5q0 104 -71.5 166t-190.5 62t-220 -62t-159 -161q-58 -100 -58 -208q0 -117 69.5 -182.5t177.5 -65.5q61 0 125 23l12 -34q-72 -32 -145 -32q-57 0 -107 17t-91 51t-64.5 91t-23.5 130q-3 123 64.5 233.5t181 175.5t240.5 63q135 0 221 -69.5t86 -199.5z
M579 407q0 48 -24.5 75t-67.5 27q-73 2 -130 -74t-55 -159q0 -52 23.5 -81.5t64.5 -29.5q69 -4 130 80.5t59 161.5z" />
    <glyph glyph-name="acute.cap" horiz-adv-x="165" 
d="M313 888l-139 -112h-52l150 158z" />
    <glyph glyph-name="breve.cap" horiz-adv-x="211" 
d="M359 900q0 -46 -33.5 -85t-94.5 -39q-44 0 -66.5 21t-22.5 55q0 33 18 62h42q-14 -31 -14 -53q0 -46 50 -46q36 0 54.5 25.5t18.5 62.5v11h47q1 -3 1 -14z" />
    <glyph glyph-name="caron.cap" horiz-adv-x="277" 
d="M434 928l-156 -152h-36l-85 152h54l56 -102l103 102h64z" />
    <glyph glyph-name="cedilla.cap" horiz-adv-x="194" 
d="M108 -118q0 -37 -30 -63.5t-76 -26.5q-59 0 -98 42l25 29q31 -34 73 -34q31 0 49.5 14t18.5 38q0 42 -86 43l18 77h35l-11 -55q82 -5 82 -64z" />
    <glyph glyph-name="circumflex.cap" horiz-adv-x="277" 
d="M122 776l156 152h36l85 -152h-53l-56 103l-103 -103h-65z" />
    <glyph glyph-name="dieresis.cap" horiz-adv-x="250" 
d="M215 852l-18 -76h-75l18 76h75zM389 852l-18 -76h-74l17 76h75z" />
    <glyph glyph-name="dotaccent.cap" horiz-adv-x="82" 
d="M223 861l-19 -85h-82l20 85h81z" />
    <glyph glyph-name="grave.cap" horiz-adv-x="147" 
d="M227 776l-68 161l57 18l53 -179h-42z" />
    <glyph glyph-name="hungarumlaut.cap" horiz-adv-x="216" 
d="M122 776l75 149h56l-86 -149h-45zM242 776l74 149h56l-86 -149h-44z" />
    <glyph glyph-name="macron.cap" horiz-adv-x="299" 
d="M132 820h299l-10 -44h-299z" />
    <glyph glyph-name="ring.cap" horiz-adv-x="186" 
d="M233 950q39 0 65.5 -25t26.5 -64t-26.5 -65t-65.5 -26q-38 0 -63.5 26t-25.5 65q0 38 26 63.5t63 25.5zM233 915q-22 0 -36.5 -15.5t-14.5 -38.5t14.5 -39.5t36.5 -16.5t37.5 16.5t15.5 39.5q0 22 -15.5 38t-37.5 16z" />
    <glyph glyph-name="tilde.cap" horiz-adv-x="274" 
d="M337 776q-27 0 -75 39q-33 27 -47 27q-37 0 -49 -62h-41q5 55 29 86.5t58 31.5q28 0 73 -39q36 -30 52 -30q39 0 46 69h36q0 -55 -23 -88.5t-59 -33.5z" />
    </font>
</defs>
</svg>
