<?xml version="1.0" standalone="no"?>
<!DOCTYPE svg PUBLIC "-//W3C//DTD SVG 1.1//EN" "http://www.w3.org/Graphics/SVG/1.1/DTD/svg11.dtd" >
<svg xmlns="http://www.w3.org/2000/svg" xmlns:xlink="http://www.w3.org/1999/xlink" version="1.1">
<metadata>
Created by FontForge 20170731 at Thu May 16 07:55:58 2019
 By Aleksey,,,
Copyright (c) 2015 by Luzi Type. All rights reserved. |DCNT
</metadata>
<defs>
<font id="MessinaSans-BlackItalic" horiz-adv-x="600" >
  <font-face 
    font-family="Messina Sans Black"
    font-weight="900"
    font-style="italic"
    font-stretch="normal"
    units-per-em="1000"
    panose-1="0 0 10 0 0 0 0 0 0 0"
    ascent="757"
    descent="-243"
    x-height="524"
    cap-height="700"
    bbox="-118 -311 1283 1100"
    underline-thickness="50"
    underline-position="-250"
    slope="-13"
    unicode-range="U+000D-25CA"
  />
<missing-glyph horiz-adv-x="467" 
 />
    <glyph glyph-name=".notdef" horiz-adv-x="467" 
 />
    <glyph glyph-name=".null" horiz-adv-x="0" 
 />
    <glyph glyph-name="nonmarkingreturn" horiz-adv-x="333" 
 />
    <glyph glyph-name="CR" unicode="&#xd;" horiz-adv-x="485" 
 />
    <glyph glyph-name="space" unicode=" " horiz-adv-x="250" 
 />
    <glyph glyph-name="exclam" unicode="!" horiz-adv-x="333" 
d="M117 226l2 185l67 289h167l-71 -306l-78 -168h-87zM237 172l-40 -172h-168l40 172h168z" />
    <glyph glyph-name="quotedbl" unicode="&#x22;" horiz-adv-x="409" 
d="M298 735l-77 -272h-102l39 272h140zM466 735l-77 -272h-102l39 272h140z" />
    <glyph glyph-name="numbersign" unicode="#" horiz-adv-x="625" 
d="M603 419h-109l-31 -132h122v-68h-138l-50 -219h-80l50 219h-113l-50 -219h-80l50 219h-110v68h126l31 132h-139v68h154l47 203h79l-46 -203h113l47 203h80l-47 -203h94v-68zM383 287l31 132h-114l-30 -132h113z" />
    <glyph glyph-name="dollar" unicode="$" horiz-adv-x="633" 
d="M625 478h-164q1 3 1 14q0 48 -38 69l-33 -144q93 -33 136.5 -81t43.5 -122q0 -104 -75.5 -164.5t-184.5 -60.5h-19l-27 -116h-55l23 125q-87 22 -138.5 83.5t-51.5 154.5q0 17 1 22h163q-1 -5 -1 -23q0 -71 55 -99l34 150q-88 33 -131.5 83t-43.5 123q0 98 68.5 158.5
t183.5 60.5h21l21 90h65l-23 -101q80 -20 124.5 -78.5t44.5 -138.5v-5zM331 440l30 133q-80 -5 -80 -72q0 -22 10.5 -35.5t39.5 -25.5zM407 197q0 22 -11.5 36t-41.5 28l-31 -137q84 5 84 73z" />
    <glyph glyph-name="percent" unicode="%" horiz-adv-x="948" 
d="M277 723q79 0 129.5 -49.5t50.5 -127.5q0 -79 -50.5 -128.5t-129.5 -49.5q-75 0 -125 50t-50 128t50 127.5t125 49.5zM842 700l-567 -700h-135l567 700h135zM279 622q-32 0 -52.5 -20.5t-20.5 -54.5q0 -35 20.5 -56.5t52.5 -21.5q33 0 53.5 21.5t20.5 56.5
q0 34 -20.5 54.5t-53.5 20.5zM709 337q79 0 129.5 -49.5t50.5 -127.5q0 -79 -50.5 -128.5t-129.5 -49.5q-75 0 -125 50t-50 128t50 127.5t125 49.5zM711 236q-32 0 -52.5 -20.5t-20.5 -54.5q0 -35 20.5 -56.5t52.5 -21.5q33 0 53.5 21.5t20.5 56.5q0 34 -20.5 54.5
t-53.5 20.5z" />
    <glyph glyph-name="ampersand" unicode="&#x26;" horiz-adv-x="764" 
d="M532 0l-47 60q-30 -34 -81.5 -52.5t-111.5 -18.5q-107 0 -181.5 54t-74.5 149q0 76 50 124.5t142 62.5q-57 70 -57 138q0 83 64.5 133t151.5 50q84 0 145 -45.5t61 -126.5q0 -66 -44.5 -113t-122.5 -66l86 -106q26 48 36 83l9 34h136l-12 -45q-32 -116 -86 -176l114 -139
h-177zM316 510q0 -23 21 -50l23 -29q39 9 62 31.5t23 52.5q0 25 -17 40.5t-46 15.5q-30 0 -48 -16.5t-18 -44.5zM299 130q71 0 105 31l-108 133q-53 -9 -81 -32t-28 -55q0 -34 29.5 -55.5t82.5 -21.5z" />
    <glyph glyph-name="quotesingle" unicode="'" horiz-adv-x="240" 
d="M299 735l-77 -272h-102l39 272h140z" />
    <glyph glyph-name="parenleft" unicode="(" horiz-adv-x="389" 
d="M175 213q0 -180 102 -322l-79 -65q-155 149 -155 377q-1 119 46.5 238.5t135.5 218t200 151.5l47 -81q-136 -75 -216.5 -218t-80.5 -299z" />
    <glyph glyph-name="parenright" unicode=")" horiz-adv-x="378" 
d="M239 421q0 179 -102 322l79 65q155 -149 155 -377q1 -119 -46.5 -238.5t-135.5 -218t-200 -151.5l-47 81q136 75 216.5 218t80.5 299z" />
    <glyph glyph-name="asterisk" unicode="*" horiz-adv-x="445" 
d="M470 587l-96 -31l45 -71l-106 -71l-38 75l-60 -74l-91 73l62 69l-78 23l49 116l82 -29l11 89h121l-16 -88l86 24z" />
    <glyph glyph-name="plus" unicode="+" 
d="M544 383l-33 -143h-143l-35 -152h-145l35 152h-143l33 143h143l35 155h145l-35 -155h143z" />
    <glyph glyph-name="comma" unicode="," horiz-adv-x="245" 
d="M203 166l-33 -140q-24 -103 -81 -152.5t-152 -56.5l-1 79q60 8 91.5 35t42.5 78h-71l37 157h167z" />
    <glyph glyph-name="hyphen" unicode="-" horiz-adv-x="348" 
d="M343 370l-30 -129h-287l30 129h287z" />
    <glyph glyph-name="period" unicode="." horiz-adv-x="249" 
d="M198 172l-40 -172h-168l40 172h168z" />
    <glyph glyph-name="slash" unicode="/" horiz-adv-x="476" 
d="M574 774l-499 -860h-135l499 860h135z" />
    <glyph glyph-name="zero" unicode="0" horiz-adv-x="595" 
d="M53 248q0 94 32 201q33 105 103 178t176 73q101 0 158 -67t57 -194q0 -99 -33 -204q-33 -104 -104 -175t-174 -71q-100 0 -157.5 67t-57.5 192zM414 439q0 125 -63 125q-41 3 -72.5 -53t-46 -128t-13.5 -136q0 -122 58 -122q44 0 75 52q30 51 46 127q16 71 16 135z" />
    <glyph glyph-name="one" unicode="1" horiz-adv-x="442" 
d="M430 688l-159 -688h-160l111 483q-77 -28 -163 -28l36 148q115 12 198 85h137z" />
    <glyph glyph-name="two" unicode="2" horiz-adv-x="585" 
d="M265 149h269l-35 -149h-501l29 129l174 134q6 6 33 25q64 49 108 86q76 66 76 114q0 29 -20 45.5t-53 16.5q-48 0 -78.5 -32t-32.5 -86h-161q8 123 94 196.5t197 71.5q94 0 156.5 -53t62.5 -141q0 -62 -34 -112q-33 -51 -85 -94q-47 -39 -162 -124z" />
    <glyph glyph-name="three" unicode="3" horiz-adv-x="593" 
d="M535 208q0 -93 -76.5 -156t-187.5 -63q-104 0 -168 58t-64 153q0 10 2 26h161q-1 -3 -1 -13q0 -34 23 -56t59 -22q37 0 62.5 20t25.5 49q0 32 -21.5 51t-64.5 19h-55l31 137h41q53 0 85.5 26.5t32.5 65.5q0 21 -19 36t-50 15q-42 0 -69 -25.5t-32 -69.5h-161
q7 112 88 176.5t188 64.5q94 0 155.5 -51t61.5 -130q0 -63 -39 -111.5t-91 -62.5q83 -42 83 -137z" />
    <glyph glyph-name="four" unicode="4" horiz-adv-x="558" 
d="M474 265h79l-33 -148h-80l-27 -118h-154l27 119h-303l30 135l371 436h189zM183 265h139l52 225z" />
    <glyph glyph-name="five" unicode="5" horiz-adv-x="589" 
d="M562 538h-273l-37 -113q40 37 113 37q80 0 133 -56.5t53 -147.5q0 -111 -76 -190t-198 -79q-111 0 -175 63t-64 174h163q0 -101 82 -101q51 0 78 34.5t27 88.5q0 91 -77 91q-53 0 -84 -39h-154l123 388h399z" />
    <glyph glyph-name="six" unicode="6" horiz-adv-x="615" 
d="M368 564q-57 0 -95.5 -40.5t-51.5 -115.5q55 55 147 55q86 0 147 -53t61 -154q0 -113 -75 -190t-193 -77q-117 0 -181 80t-64 229q0 181 88 291.5t226 110.5q91 0 156 -50t74 -142h-162q-8 56 -77 56zM414 236q0 42 -22 68t-61 26q-47 0 -72.5 -33t-25.5 -84
q0 -43 20.5 -69t60.5 -26q50 0 75 36q25 37 25 82z" />
    <glyph glyph-name="seven" unicode="7" horiz-adv-x="570" 
d="M628 688l-30 -123l-357 -566h-178l347 532h-352l35 157h535z" />
    <glyph glyph-name="eight" unicode="8" horiz-adv-x="594" 
d="M536 210q0 -99 -79 -160t-190 -61q-101 0 -168.5 50t-67.5 143q0 73 43 122.5t115 60.5q-45 24 -66.5 55.5t-21.5 80.5q0 92 70.5 145.5t175.5 53.5q98 0 164 -47.5t66 -132.5q0 -66 -39.5 -111t-92.5 -55q91 -40 91 -144zM415 495q0 34 -20 51.5t-54 17.5
q-36 0 -56.5 -20.5t-20.5 -55.5q0 -33 19.5 -52t52.5 -19q36 0 57.5 21t21.5 57zM374 216q0 37 -25.5 59t-62.5 22q-39 0 -65.5 -27.5t-26.5 -67.5q0 -37 23 -57t60 -20q42 0 69.5 25.5t27.5 65.5z" />
    <glyph glyph-name="nine" unicode="9" horiz-adv-x="622" 
d="M300 125q110 0 137 156q-55 -55 -147 -55q-86 0 -147 53t-61 154q0 113 75 190t193 77q117 0 181 -80t64 -229q0 -183 -83.5 -292.5t-220.5 -109.5q-95 0 -163 50.5t-77 141.5h162q4 -25 27.5 -40.5t59.5 -15.5zM244 453q0 -42 22 -68t61 -26q47 0 72.5 33t25.5 83
q0 44 -21 70t-62 26q-48 0 -73 -37q-25 -35 -25 -81z" />
    <glyph glyph-name="colon" unicode=":" horiz-adv-x="260" 
d="M199 172l-40 -172h-168l40 172h168zM279 525l-40 -172h-168l40 172h168z" />
    <glyph glyph-name="semicolon" unicode=";" horiz-adv-x="275" 
d="M289 525l-40 -172h-168l40 172h168zM213 166l-33 -140q-24 -103 -81 -152.5t-152 -56.5l-1 79q60 8 91.5 35t42.5 78h-71l37 157h167z" />
    <glyph glyph-name="less" unicode="&#x3c;" 
d="M560 428l-295 -116l237 -109l-70 -130l-355 177l31 144l406 169z" />
    <glyph glyph-name="equal" unicode="=" 
d="M564 473l-31 -136h-431l31 136h431zM521 286l-31 -136h-431l31 136h431z" />
    <glyph glyph-name="greater" unicode="&#x3e;" 
d="M194 570l357 -183l-30 -144l-409 -170l-48 136l297 116l-239 115z" />
    <glyph glyph-name="question" unicode="?" horiz-adv-x="575" 
d="M182 226l6 24q27 110 124 164l42 24q40 23 58.5 42t18.5 44q0 50 -70 50q-89 0 -105 -81h-158q29 116 104 166q76 52 177 52q100 0 160.5 -45.5t60.5 -124.5q0 -70 -40 -111q-37 -40 -89 -70l-48 -27q-47 -27 -62 -44q-14 -15 -22 -43l-5 -20h-152zM124 0l40 172h168
l-40 -172h-168z" />
    <glyph glyph-name="at" unicode="@" horiz-adv-x="870" 
d="M864 386q2 -125 -75.5 -224t-171.5 -96q-45 0 -80.5 22.5t-42.5 56.5q-42 -79 -140 -79q-74 0 -113 47q-39 46 -39 115q-2 95 70.5 180.5t170.5 82.5q84 0 109 -67l24 58h129l-84 -210q-21 -53 -21 -79q0 -36 35 -36q48 -2 89.5 70.5t40.5 156.5q0 99 -60.5 153
t-169.5 54q-82 1 -158.5 -31.5t-131.5 -87t-87 -127.5t-31 -150q0 -107 57.5 -165.5t162.5 -58.5q67 0 133 30l27 -81q-88 -41 -172 -41q-138 0 -221 84.5t-83 227.5q-2 94 39.5 185t110.5 158.5t164 107.5t194 38q148 0 236.5 -79.5t88.5 -214.5zM509 321q0 69 -63 69
q-50 0 -84 -44t-34 -98q0 -36 17.5 -56.5t48.5 -20.5q47 0 81 47.5t34 102.5z" />
    <glyph glyph-name="A" unicode="A" horiz-adv-x="734" 
d="M513 0l-22 146h-262l-80 -146h-189l422 700h161l136 -700h-166zM314 302h153l-34 218z" />
    <glyph glyph-name="B" unicode="B" horiz-adv-x="682" 
d="M629 227q2 -88 -75 -158.5t-194 -68.5h-335l162 700h292q87 0 135.5 -46t48.5 -111q0 -57 -35 -107q-34 -49 -98 -66q99 -41 99 -143zM502 495q0 20 -16 34.5t-43 14.5h-128l-26 -115h132q38 0 59.5 19.5t21.5 46.5zM465 235q0 28 -17 45t-47 17h-144l-32 -140h145
q46 0 70.5 22.5t24.5 55.5z" />
    <glyph glyph-name="C" unicode="C" horiz-adv-x="748" 
d="M542 275h167q-15 -133 -109 -213t-228 -80q-141 0 -222.5 88.5t-81.5 235.5q-1 77 23.5 150t70.5 132t120.5 94t166.5 34q132 0 206.5 -67t74.5 -187q0 -10 -1 -15h-167l1 15q0 48 -33.5 75t-92.5 27q-95 0 -150 -67q-54 -67 -54 -177q0 -95 41 -139.5t112 -44.5
q66 0 107.5 36.5t48.5 102.5z" />
    <glyph glyph-name="D" unicode="D" horiz-adv-x="712" 
d="M700 404q1 -74 -27 -146t-78.5 -130.5t-130.5 -94t-174 -33.5h-265l162 700h223q142 0 216 -83.5t74 -212.5zM536 398q0 68 -33.5 107t-100.5 39h-87l-87 -387h70q107 -2 173.5 73.5t64.5 167.5z" />
    <glyph glyph-name="E" unicode="E" horiz-adv-x="601" 
d="M253 275l-27 -118h326l-36 -157h-491l161 700h476l-38 -156h-309l-25 -111h286l-36 -158h-287z" />
    <glyph glyph-name="F" unicode="F" horiz-adv-x="586" 
d="M290 433h286l-36 -158h-287l-63 -275h-165l161 700h476l-38 -156h-309z" />
    <glyph glyph-name="G" unicode="G" horiz-adv-x="777" 
d="M739 447h-165q0 117 -120 117q-101 0 -161.5 -76t-60.5 -182q0 -82 38.5 -128t110.5 -46q62 0 103 30.5t54 76.5h-188l34 144h345l-87 -383h-147l19 77q-64 -95 -184 -95q-119 0 -192 86t-73 223q-1 79 25 154.5t75 137.5t127 99t173 35q132 0 203.5 -64.5t71.5 -186.5
q0 -13 -1 -19z" />
    <glyph glyph-name="H" unicode="H" horiz-adv-x="715" 
d="M741 700l-161 -700h-165l63 274h-225l-63 -274h-165l162 700h164l-62 -269h225l61 269h166z" />
    <glyph glyph-name="I" unicode="I" horiz-adv-x="335" 
d="M30 0l161 700h165l-162 -700h-164z" />
    <glyph glyph-name="J" unicode="J" horiz-adv-x="543" 
d="M579 700l-119 -508q-50 -210 -246 -210q-98 0 -154 50.5t-56 132.5q0 30 7 57l11 44h164l-15 -60q-2 -10 -2 -17q0 -45 54 -45q36 0 54 21t27 62l110 473h165z" />
    <glyph glyph-name="K" unicode="K" horiz-adv-x="684" 
d="M790 700l-353 -303l184 -397h-202l-121 279l-53 -46l-55 -233h-165l162 700h165l-55 -237l266 237h227z" />
    <glyph glyph-name="L" unicode="L" horiz-adv-x="557" 
d="M25 0l162 700h164l-125 -543h302l-36 -157h-467z" />
    <glyph glyph-name="M" unicode="M" horiz-adv-x="895" 
d="M724 700h195l-159 -700h-159l96 419l-244 -419h-120l-54 427l-97 -427h-155l159 700h179l83 -477z" />
    <glyph glyph-name="N" unicode="N" horiz-adv-x="721" 
d="M746 700l-160 -700h-143l-157 421l-97 -421h-163l160 700h154l150 -407l92 407h164z" />
    <glyph glyph-name="O" unicode="O" horiz-adv-x="763" 
d="M744 386q1 -108 -44.5 -201t-131 -149t-191.5 -54q-141 0 -224.5 91.5t-83.5 239.5q-2 164 103.5 285.5t264.5 118.5q140 0 223.5 -91.5t83.5 -239.5zM580 384q0 85 -38 129t-109 44q-93 0 -146.5 -69.5t-53.5 -172.5q0 -84 39 -128.5t109 -44.5q92 0 145.5 69.5
t53.5 172.5z" />
    <glyph glyph-name="P" unicode="P" horiz-adv-x="643" 
d="M663 487q0 -103 -76 -179t-204 -76h-140l-54 -232h-164l162 700h264q98 0 155 -62t57 -151zM497 476q0 30 -18.5 50t-48.5 20h-116l-35 -160h117q45 0 73 26t28 64z" />
    <glyph glyph-name="Q" unicode="Q" horiz-adv-x="761" 
d="M566 43l56 -157h-144l-39 106q-33 -10 -63 -10q-141 0 -224.5 91.5t-83.5 239.5q-2 164 103.5 285.5t264.5 118.5q140 0 223.5 -91.5t83.5 -239.5q0 -112 -46.5 -202.5t-130.5 -140.5zM579 384q0 85 -38 129t-109 44q-93 0 -146.5 -69.5t-53.5 -172.5q0 -84 39 -128.5
t109 -44.5h4l-63 170h148l43 -121q67 67 67 193z" />
    <glyph glyph-name="R" unicode="R" horiz-adv-x="693" 
d="M525 280l103 -280h-176l-84 242h-122l-57 -242h-164l162 700h311q92 0 145.5 -55t53.5 -134q0 -75 -45 -139q-46 -65 -127 -92zM531 485q0 26 -17.5 42.5t-49.5 16.5h-149l-34 -147h151q43 0 71 26.5t28 61.5z" />
    <glyph glyph-name="S" unicode="S" horiz-adv-x="633" 
d="M643 483h-164q0 43 -32.5 64.5t-86.5 21.5q-90 0 -90 -63q4 -36 28 -52.5t99 -43.5q65 -25 101 -45q91 -49 91 -157q0 -101 -73 -163.5t-192 -62.5q-123 0 -206 65.5t-83 182.5l1 16h163q0 -56 34.5 -86t92.5 -30q45 0 71.5 17.5t26.5 47.5q0 28 -25 46t-88 42
q-69 27 -105 46q-99 53 -99 165q0 99 71 161t192 62q125 0 197.5 -64.5t75.5 -169.5z" />
    <glyph glyph-name="T" unicode="T" horiz-adv-x="608" 
d="M454 544l-126 -544h-165l125 544h-203l36 156h572l-35 -156h-204z" />
    <glyph glyph-name="U" unicode="U" horiz-adv-x="700" 
d="M734 700l-102 -452q-29 -130 -111.5 -198t-197.5 -68q-110 0 -180.5 61.5t-70.5 166.5q0 41 10 82l94 408h166l-100 -438q-4 -15 -4 -34q0 -41 25.5 -63.5t72.5 -22.5q108 0 137 123l97 435h164z" />
    <glyph glyph-name="V" unicode="V" horiz-adv-x="683" 
d="M595 700h174l-379 -700h-147l-137 700h170l84 -453z" />
    <glyph glyph-name="W" unicode="W" horiz-adv-x="957" 
d="M1033 700l-315 -700h-146l-56 398l-189 -398h-147l-69 700h162l39 -417l185 417h138l53 -407l170 407h175z" />
    <glyph glyph-name="X" unicode="X" horiz-adv-x="739" 
d="M505 343l147 -343h-180l-89 214l-195 -214h-218l343 369l-142 331h184l81 -204l181 204h208z" />
    <glyph glyph-name="Y" unicode="Y" horiz-adv-x="655" 
d="M751 700l-339 -436l-60 -264h-164l63 280l-145 420h177l87 -274l188 274h193z" />
    <glyph glyph-name="Z" unicode="Z" horiz-adv-x="636" 
d="M674 700l-33 -142l-382 -401h328l-37 -157h-548l32 145l379 399h-302l35 156h528z" />
    <glyph glyph-name="bracketleft" unicode="[" horiz-adv-x="307" 
d="M398 787l-20 -85h-64l-177 -768h64l-19 -85h-197l216 938h197z" />
    <glyph glyph-name="backslash" unicode="\" horiz-adv-x="458" 
d="M358 -86h-135l-85 860h135z" />
    <glyph glyph-name="bracketright" unicode="]" horiz-adv-x="308" 
d="M-55 -152l20 85h64l177 768h-64l19 85h197l-216 -938h-197z" />
    <glyph glyph-name="asciicircum" unicode="^" horiz-adv-x="508" 
d="M376 419l-47 146l-114 -146h-139l226 281h105l97 -281h-128z" />
    <glyph glyph-name="underscore" unicode="_" horiz-adv-x="567" 
d="M452 -20l-31 -128h-466l31 128h466z" />
    <glyph glyph-name="grave" unicode="`" horiz-adv-x="217" 
d="M297 607h-105l-75 162l126 38z" />
    <glyph glyph-name="a" unicode="a" horiz-adv-x="564" 
d="M529 382q0 -28 -7 -56l-73 -326h-146l14 62q-52 -73 -156 -73q-73 0 -112.5 38t-39.5 102q0 66 43.5 112t126.5 58l114 16q40 6 59.5 16.5t19.5 33.5q0 37 -60 37q-75 0 -102 -54h-152q27 89 98 137t176 48q95 0 146 -39t51 -112zM336 208l6 26q-22 -7 -71 -15l-28 -4
q-47 -7 -66 -18t-19 -38q0 -41 55 -41q46 0 80 23.5t43 66.5z" />
    <glyph glyph-name="b" unicode="b" horiz-adv-x="639" 
d="M612 318q1 -80 -32.5 -155.5t-99.5 -125.5t-148 -48q-116 0 -154 100l-23 -89h-145l165 711h158l-56 -251q51 73 146 73q96 0 142 -61q47 -62 47 -154zM452 293q0 89 -85 89q-64 0 -103.5 -47t-39.5 -111q0 -89 85 -89q64 0 103.5 47t39.5 111z" />
    <glyph glyph-name="c" unicode="c" horiz-adv-x="556" 
d="M352 196h158q-16 -93 -89 -150t-171 -57q-101 0 -158.5 61t-57.5 166q-1 57 17.5 112.5t53 102.5t92.5 75t129 27q98 0 155 -50.5t57 -135.5q0 -3 -2 -21h-157q0 61 -65 61q-61 0 -90 -50q-28 -49 -28 -108q0 -95 77 -95q62 0 79 62z" />
    <glyph glyph-name="d" unicode="d" horiz-adv-x="630" 
d="M669 711l-165 -711h-145l14 70q-18 -37 -57.5 -59t-92.5 -22q-91 0 -141 62q-49 62 -49 159q-1 79 31.5 153t98.5 123t149 47q112 0 141 -76l57 254h159zM409 295q0 42 -21 67t-64 25q-56 0 -95.5 -42.5t-39.5 -109.5q0 -96 84 -96q61 0 98.5 48t37.5 108z" />
    <glyph glyph-name="e" unicode="e" horiz-adv-x="569" 
d="M528 213h-330v-7q0 -36 21.5 -55t58.5 -19q57 0 75 34h159q-30 -87 -94.5 -132t-157.5 -45q-106 0 -165.5 60t-59.5 168q-2 129 78 223.5t213 92.5q102 0 158 -56.5t56 -159.5q0 -49 -12 -104zM208 314h179l1 14q0 62 -73 62q-79 0 -107 -76z" />
    <glyph glyph-name="f" unicode="f" horiz-adv-x="369" 
d="M318 533l-2 -9h98l-33 -140h-97l-90 -384h-158l87 384h-75l33 140h75l12 54q29 133 170 133h130l-34 -140h-67q-23 0 -34 -9t-15 -29z" />
    <glyph glyph-name="g" unicode="g" horiz-adv-x="614" 
d="M466 524h153l-114 -493q-19 -87 -76 -161q-55 -73 -191 -73q-102 0 -173 49.5t-75 142.5h156q2 -27 25.5 -43.5t64.5 -16.5q57 0 80 26.5t35 75.5l15 61q-47 -75 -142 -75q-86 0 -136.5 61t-50.5 154q-1 74 31.5 143t96.5 114.5t142 43.5q109 0 141 -82zM407 300
q0 41 -22.5 63.5t-63.5 22.5q-58 0 -94.5 -42.5t-36.5 -97.5q0 -42 23.5 -67.5t64.5 -25.5q55 0 92 45.5t37 101.5z" />
    <glyph glyph-name="h" unicode="h" horiz-adv-x="611" 
d="M579 391q0 -29 -7 -57l-76 -334h-160l68 290q8 34 8 49q0 53 -62 53q-89 0 -113 -105l-67 -287h-160l165 711h159l-56 -245q51 67 150 67q70 0 110.5 -38.5t40.5 -103.5z" />
    <glyph glyph-name="i" unicode="i" horiz-adv-x="296" 
d="M140 573l35 151h159l-35 -151h-159zM8 0l121 524h159l-121 -524h-159z" />
    <glyph glyph-name="j" unicode="j" horiz-adv-x="291" 
d="M140 573l35 151h159l-35 -151h-159zM130 524h158l-133 -574q-33 -142 -161 -142h-112l31 140h49q34 0 43 39z" />
    <glyph glyph-name="k" unicode="k" horiz-adv-x="604" 
d="M669 524l-282 -234l151 -290h-172l-97 192l-70 -59l-30 -133h-159l164 711h158l-83 -367l201 180h219z" />
    <glyph glyph-name="l" unicode="l" horiz-adv-x="291" 
d="M10 0l166 711h159l-166 -711h-159z" />
    <glyph glyph-name="m" unicode="m" horiz-adv-x="848" 
d="M810 339l-77 -339h-159l73 316q5 22 5 32q0 44 -46 44q-39 0 -58 -25.5t-30 -73.5l-68 -293h-158l73 320q3 13 3 26q0 46 -47 46q-36 0 -55 -26t-30 -71l-67 -295h-159l121 524h155l-15 -62q51 71 130 71q47 0 77.5 -22t37.5 -65q54 87 150 87q69 0 109.5 -39t40.5 -105
q0 -25 -6 -50z" />
    <glyph glyph-name="n" unicode="n" horiz-adv-x="601" 
d="M579 391q0 -29 -7 -57l-76 -334h-160l68 290q8 34 8 49q0 53 -62 53q-89 0 -113 -105l-67 -287h-160l122 524h155l-18 -71q21 36 63.5 58t95.5 22q70 0 110.5 -38.5t40.5 -103.5z" />
    <glyph glyph-name="o" unicode="o" horiz-adv-x="586" 
d="M553 293q0 -130 -77 -217t-203 -87q-108 0 -172 61.5t-64 178.5q0 130 77.5 217t203.5 87q105 0 169 -61q66 -60 66 -179zM393 287q0 97 -81 97q-54 0 -84.5 -42t-30.5 -107q0 -97 81 -97q54 0 84.5 42t30.5 107z" />
    <glyph glyph-name="p" unicode="p" horiz-adv-x="632" 
d="M605 315q1 -76 -32 -149.5t-98.5 -122.5t-146.5 -47q-102 0 -145 72l-59 -260h-159l165 716h156l-17 -79q45 88 152 88q86 0 135 -62t49 -156zM444 288q0 43 -24 69t-66 26q-56 0 -91.5 -44t-35.5 -101q0 -43 24 -69t66 -26q56 0 91.5 44t35.5 101z" />
    <glyph glyph-name="q" unicode="q" horiz-adv-x="615" 
d="M458 524h157l-165 -716h-158l58 258q-45 -70 -136 -70q-84 0 -135 59.5t-51 156.5q-1 78 31.5 151.5t98.5 122.5t149 47q102 0 136 -70zM400 298q0 42 -21.5 65.5t-60.5 23.5q-57 0 -95.5 -46.5t-38.5 -105.5q0 -42 21.5 -65.5t60.5 -23.5q57 0 95.5 46.5t38.5 105.5z
" />
    <glyph glyph-name="r" unicode="r" horiz-adv-x="425" 
d="M462 530l-36 -156h-54q-55 0 -93 -28.5t-50 -84.5l-60 -261h-159l121 524h158l-16 -65q15 33 51.5 52t77.5 19h60z" />
    <glyph glyph-name="s" unicode="s" horiz-adv-x="523" 
d="M250 -11q-100 0 -168.5 49.5t-71.5 137.5h161q4 -25 28 -41t60 -16q28 0 44.5 9t16.5 24q0 17 -17.5 25.5t-63.5 18.5q-50 12 -89 26q-89 35 -89 134q0 84 62 131q61 46 159 46q97 0 162 -47q66 -46 66 -137h-155q0 56 -77 56q-63 0 -63 -36q0 -17 16 -25t68 -20
q55 -14 89 -27q89 -35 89 -126q0 -84 -65.5 -133t-161.5 -49z" />
    <glyph glyph-name="t" unicode="t" horiz-adv-x="388" 
d="M236 180q0 -34 39 -34h66l-33 -146h-108q-63 0 -98.5 33t-35.5 90q0 18 5 43l51 218h-89l33 140h89l24 105l169 46l-35 -151h106l-33 -140h-105l-42 -182q-3 -12 -3 -22z" />
    <glyph glyph-name="u" unicode="u" horiz-adv-x="592" 
d="M592 524l-120 -524h-154l13 62q-43 -69 -137 -69q-70 0 -110.5 41t-40.5 108q0 25 11 74l72 308h160l-75 -322q-3 -12 -3 -22q0 -22 14 -34t39 -12q52 0 76 40q23 39 37 95l60 255h158z" />
    <glyph glyph-name="v" unicode="v" horiz-adv-x="592" 
d="M484 524h168l-325 -524h-150l-102 524h156l61 -340z" />
    <glyph glyph-name="w" unicode="w" horiz-adv-x="839" 
d="M720 524h169l-291 -524h-131l-38 269l-145 -269h-132l-72 524h156l36 -288l141 288h132l36 -281z" />
    <glyph glyph-name="x" unicode="x" horiz-adv-x="643" 
d="M423 260l145 -260h-176l-77 142l-134 -142h-211l269 273l-140 251h182l69 -136l126 136h207z" />
    <glyph glyph-name="y" unicode="y" horiz-adv-x="565" 
d="M451 524h174l-316 -541q-48 -84 -110 -116t-162 -32h-43l31 140h29q89 0 116 55l3 6l-103 488h160l55 -305z" />
    <glyph glyph-name="z" unicode="z" horiz-adv-x="523" 
d="M228 135h246l-32 -135h-451l28 129l288 260h-233l31 135h439l-29 -127z" />
    <glyph glyph-name="braceleft" unicode="{" horiz-adv-x="332" 
d="M447 808l-16 -73h-13q-33 0 -49 -12t-24 -44l-58 -252q-12 -53 -57 -84t-114 -37q54 -9 85.5 -34t31.5 -63q0 -15 -3 -25l-54 -233q-5 -22 -5 -36q0 -21 10.5 -27.5t36.5 -6.5h16l-18 -73h-83q-43 0 -68.5 24t-25.5 71q0 21 6 48l51 217q6 27 6 44q0 27 -18 40.5
t-70 26.5l15 65q68 11 93.5 32t40.5 82l57 247q14 60 47.5 81.5t93.5 21.5h86z" />
    <glyph glyph-name="bar" unicode="|" horiz-adv-x="273" 
d="M330 812l-214 -924h-132l214 924h132z" />
    <glyph glyph-name="braceright" unicode="}" horiz-adv-x="332" 
d="M-84 -193l16 73h13q33 0 49 12t24 44l58 252q12 53 57 84t114 37q-54 9 -85.5 34t-31.5 63q0 14 3 25l54 233q5 22 5 36q0 21 -10.5 27.5t-36.5 6.5h-16l18 73h83q43 0 68.5 -24t25.5 -71q0 -21 -6 -48l-51 -217q-6 -27 -6 -44q0 -27 18 -40.5t70 -26.5l-15 -65
q-68 -11 -93.5 -32t-40.5 -82l-57 -247q-14 -60 -47.5 -81.5t-93.5 -21.5h-86z" />
    <glyph glyph-name="asciitilde" unicode="~" 
d="M404 228q-54 0 -112 42q-35 24 -50 24q-18 0 -29 -12.5t-12 -35.5h-111q0 84 39.5 137t101.5 53q46 0 107 -41q38 -25 57 -25q33 0 33 61h114q0 -97 -36 -150t-102 -53z" />
    <glyph glyph-name="exclamdown" unicode="&#xa1;" horiz-adv-x="333" 
d="M96 310l40 172h168l-40 -172h-168zM216 256l-2 -185l-67 -289h-167l71 306l78 168h87z" />
    <glyph glyph-name="cent" unicode="&#xa2;" horiz-adv-x="547" 
d="M520 318h-144q1 3 1 15q0 42 -29 53l-57 -251q47 14 60 70h147q-15 -93 -82 -153t-159 -63l-25 -107h-67l26 114q-73 18 -114 81.5t-41 150.5q0 132 79.5 218.5t200.5 86.5l15 67h67l-17 -74q66 -17 103.5 -63.5t37.5 -112.5q0 -2 -2 -32zM225 139l57 250
q-44 -14 -70 -62q-26 -49 -26 -101q0 -62 39 -87z" />
    <glyph glyph-name="sterling" unicode="&#xa3;" horiz-adv-x="640" 
d="M599 700l-32 -136h-63q-20 0 -36 -12.5t-22 -34.5l-24 -97h118l-16 -71h-120l-6 -26q-32 -129 -57 -181q23 -14 49 -14q56 0 67 78h156q-15 -106 -73 -161.5t-143 -55.5q-84 0 -132 60q-57 -60 -124 -60q-59 0 -94 34.5t-35 89.5t36 94q36 40 94 40q42 0 73 -24
q8 27 27 101l6 25h-94l16 71h94l25 105q21 86 72.5 130.5t127.5 44.5h110zM201 125q-29 35 -56 35q-18 0 -28.5 -9.5t-10.5 -26.5q0 -34 40 -34q31 0 55 35z" />
    <glyph glyph-name="currency" unicode="&#xa4;" horiz-adv-x="591" 
d="M450 118l53 -91l-74 -48l-55 96q-42 -16 -91 -16q-65 0 -118 35l-119 -115l-63 59l123 118q-29 47 -29 105q0 113 84 184l-55 96l73 46l57 -98q43 15 91 15q65 0 114 -33l124 118l59 -53l-126 -121q35 -50 35 -115q0 -112 -83 -182zM295 189q46 0 76 28t30 72
q0 39 -23.5 62t-64.5 23q-45 0 -74.5 -28t-29.5 -73q0 -39 23 -61.5t63 -22.5z" />
    <glyph glyph-name="yen" unicode="&#xa5;" horiz-adv-x="697" 
d="M450 341h138l-17 -72h-138l-18 -82h138l-17 -72h-137l-26 -115h-165l25 115h-137l16 72h138l17 82h-136l17 72h136l3 15l-118 344h172l60 -186l132 186h195z" />
    <glyph glyph-name="brokenbar" unicode="&#xa6;" horiz-adv-x="273" 
d="M108 423l90 389h132l-90 -389h-132zM206 277l-90 -389h-132l90 389h132z" />
    <glyph glyph-name="section" unicode="&#xa7;" horiz-adv-x="542" 
d="M507 374q0 -48 -28 -83.5t-73 -43.5q56 -29 56 -95q0 -75 -55 -122.5t-144 -47.5t-153 45q-64 46 -74 137h152q2 -26 21 -41t50 -15q26 0 43 10t17 26q0 28 -74 48q-42 12 -65.5 21.5t-49.5 26t-38 41t-14 59.5q0 43 21 66.5t65 38.5q-44 42 -44 103q0 73 56.5 119
t139.5 46q79 0 140 -42.5t72 -118.5h-145q-14 44 -63 44q-27 0 -42 -11.5t-15 -30.5q0 -17 13.5 -25t58.5 -20q53 -13 88 -27q84 -30 84 -108zM363 350q0 23 -21.5 36t-57.5 13q-63 0 -63 -39q0 -23 22.5 -37t57.5 -14q62 0 62 41z" />
    <glyph glyph-name="dieresis" unicode="&#xa8;" horiz-adv-x="332" 
d="M237 738l-31 -131h-126l30 131h127zM441 738l-29 -131h-126l30 131h125z" />
    <glyph glyph-name="copyright" unicode="&#xa9;" horiz-adv-x="861" 
d="M835 350q2 -165 -108 -274.5t-271 -106.5q-161 -3 -271 106.5t-108 274.5q-2 165 108 274t271 107q161 2 271 -107t108 -274zM753 350q0 134 -84.5 219t-212.5 85t-212.5 -85t-84.5 -219t84.5 -219t212.5 -85t212.5 85t84.5 219zM522 308h124q0 -77 -54 -125t-136 -48
q-93 0 -149 64.5t-56 153.5t56 153t150 64q81 0 134 -48q54 -47 56 -124h-126q-5 54 -62 54q-38 0 -58.5 -27t-20.5 -72q0 -44 20 -70.5t57 -26.5q29 0 46 14t19 38z" />
    <glyph glyph-name="ordfeminine" unicode="&#xaa;" horiz-adv-x="455" 
d="M468 584q0 -15 -5 -43l-57 -251h-112l11 48q-39 -56 -120 -56q-56 0 -86.5 29t-30.5 78q0 51 33.5 86.5t97.5 44.5l87 12q61 8 61 39q0 28 -46 28q-57 0 -78 -41h-117q20 68 75 105t135 37q73 0 112.5 -30t39.5 -86zM320 450l4 20q-22 -8 -54 -12l-22 -3
q-35 -4 -50 -12.5t-15 -30.5q0 -31 42 -31q37 0 63 18t32 51z" />
    <glyph glyph-name="guillemotleft" unicode="&#xab;" horiz-adv-x="572" 
d="M174 276l91 -138l-87 -61l-137 211l223 201l63 -78zM407 276l91 -138l-87 -61l-137 211l223 201l63 -78z" />
    <glyph glyph-name="logicalnot" unicode="&#xac;" 
d="M101 240l33 143h388l-68 -295h-145l35 152h-243z" />
    <glyph glyph-name="registered" unicode="&#xae;" horiz-adv-x="522" 
d="M541 487q0 -98 -65.5 -163t-161.5 -65q-97 0 -162.5 65t-65.5 163q0 99 65.5 164.5t162.5 65.5t162 -65.5t65 -164.5zM500 487q0 84 -53 137.5t-133 53.5q-79 0 -133 -53.5t-54 -137.5q0 -82 54 -135.5t133 -53.5q80 0 133 53t53 136zM364 460l53 -83h-48l-49 77h-43v-77
h-42v231h91q40 0 62 -22.5t22 -56.5q0 -51 -46 -69zM277 568v-75h51q18 0 29 10t11 26q0 39 -40 39h-51z" />
    <glyph glyph-name="overscore" unicode="&#xaf;" horiz-adv-x="299" 
d="M106 719h299l-26 -112h-299z" />
    <glyph glyph-name="degree" unicode="&#xb0;" horiz-adv-x="446" 
d="M296 766q79 0 129.5 -49.5t50.5 -127.5q0 -79 -50.5 -128.5t-129.5 -49.5q-75 0 -125 50t-50 128t50 127.5t125 49.5zM298 665q-32 0 -52.5 -20.5t-20.5 -54.5q0 -35 20.5 -56.5t52.5 -21.5q33 0 53.5 21.5t20.5 56.5q0 34 -20.5 54.5t-53.5 20.5z" />
    <glyph glyph-name="plusminus" unicode="&#xb1;" 
d="M500 198l-33 -143h-431l33 143h431zM581 543l-33 -143h-143l-35 -152h-145l35 152h-143l33 143h143l35 155h145l-35 -155h143z" />
    <glyph glyph-name="uni00B2" unicode="&#xb2;" horiz-adv-x="357" 
d="M199 362h165l-21 -91h-307l17 79l107 82l19 15q69 53 89 73q25 25 25 50q0 38 -45 38q-28 0 -47.5 -20t-20.5 -52h-98q6 75 58 119.5t120 44.5q59 0 96.5 -32.5t37.5 -86.5q0 -37 -21 -69q-18 -28 -53 -59q-34 -28 -98 -74z" />
    <glyph glyph-name="uni00B3" unicode="&#xb3;" horiz-adv-x="358" 
d="M364 398q0 -57 -47 -95.5t-115 -38.5q-65 0 -103.5 34t-38.5 92q0 16 1 19h99q-3 -24 11 -40t39 -16q23 0 38.5 12.5t15.5 30.5q0 19 -13.5 31t-39.5 12h-34l19 84h25q32 0 52.5 16t20.5 40q0 13 -12 22t-31 9q-25 0 -41.5 -15.5t-20.5 -42.5h-98q4 69 53.5 108.5
t115.5 39.5q58 0 95.5 -31t37.5 -80q0 -38 -23 -68t-57 -39q51 -26 51 -84z" />
    <glyph glyph-name="acute" unicode="&#xb4;" horiz-adv-x="248" 
d="M354 719l-151 -113h-124l190 207z" />
    <glyph glyph-name="paragraph" unicode="&#xb6;" horiz-adv-x="785" 
d="M608 700l-192 -831h-119l88 384h-73q-100 0 -156.5 62.5t-56.5 153.5q0 92 64.5 161.5t170.5 69.5h274zM810 700l-191 -831h-119l191 831h119zM342 409h80l31 135h-105q-37 0 -59 -21t-22 -52q0 -62 75 -62z" />
    <glyph glyph-name="middot" unicode="&#xb7;" horiz-adv-x="248" 
d="M264 462l-40 -172h-168l40 172h168z" />
    <glyph glyph-name="cedilla" unicode="&#xb8;" horiz-adv-x="217" 
d="M129 -113q0 -40 -33.5 -67.5t-88.5 -27.5q-70 0 -107 37l51 58q23 -27 50 -27q38 0 38 29q0 26 -66 26l24 86h56l-10 -47q86 -5 86 -67z" />
    <glyph glyph-name="uni00B9" unicode="&#xb9;" horiz-adv-x="359" 
d="M251 362h109l-21 -91h-315l21 91h108l46 200q-47 -17 -100 -17l22 91q71 7 122 52h84z" />
    <glyph glyph-name="ordmasculine" unicode="&#xba;" horiz-adv-x="465" 
d="M486 515q0 -100 -59 -166.5t-156 -66.5q-83 0 -132 47t-49 137q0 101 59 167.5t157 66.5q83 0 131.5 -47.5t48.5 -137.5zM363 511q0 74 -62 74q-41 0 -64.5 -32t-23.5 -82q0 -75 62 -75q41 0 64.5 32.5t23.5 82.5z" />
    <glyph glyph-name="guillemotright" unicode="&#xbb;" horiz-adv-x="572" 
d="M177 300l-91 138l87 61l137 -211l-223 -201l-63 78zM410 300l-91 138l87 61l137 -211l-223 -201l-63 78z" />
    <glyph glyph-name="onequarter" unicode="&#xbc;" horiz-adv-x="1071" 
d="M953 700l-577 -700h-125l577 700h125zM314 361h109l-21 -91h-315l21 91h108l46 200q-47 -17 -100 -17l22 91q71 7 122 52h84zM924 162h48l-20 -91h-49l-17 -72h-94l16 73h-185l18 83l227 261h115zM745 162h85l31 132z" />
    <glyph glyph-name="onehalf" unicode="&#xbd;" horiz-adv-x="1125" 
d="M846 91h165l-21 -91h-307l17 79l107 82l19 15q69 53 89 73q25 25 25 50q0 38 -45 38q-28 0 -47.5 -20t-20.5 -52h-98q6 75 58 119.5t120 44.5q59 0 96.5 -32.5t37.5 -86.5q0 -38 -21 -69q-18 -28 -53 -59q-34 -28 -98 -74zM953 700l-577 -700h-125l577 700h125zM314 361
h109l-21 -91h-315l21 91h108l46 200q-47 -17 -100 -17l22 91q71 7 122 52h84z" />
    <glyph glyph-name="threequarters" unicode="&#xbe;" horiz-adv-x="1054" 
d="M427 398q0 -57 -47 -95.5t-115 -38.5q-65 0 -103.5 34t-38.5 92q0 16 1 19h99q-3 -24 11 -40t39 -16q23 0 38.5 12.5t15.5 30.5q0 19 -13.5 31t-39.5 12h-34l19 84h25q32 0 52.5 16t20.5 40q0 13 -12 22t-31 9q-25 0 -41.5 -15.5t-20.5 -42.5h-98q4 69 53.5 108.5
t115.5 39.5q58 0 95.5 -31t37.5 -80q0 -38 -23 -68t-57 -39q51 -26 51 -84zM935 700l-577 -700h-125l577 700h125zM907 162h48l-20 -91h-49l-17 -72h-94l16 73h-185l18 83l227 261h115zM728 162h85l31 132z" />
    <glyph glyph-name="questiondown" unicode="&#xbf;" horiz-adv-x="575" 
d="M457 508l-40 -172h-168l40 172h168zM399 282l-6 -24q-27 -110 -124 -164l-42 -24q-40 -23 -58.5 -42t-18.5 -44q0 -50 70 -50q89 0 105 81h158q-28 -115 -105 -166q-76 -52 -176 -52t-160.5 45.5t-60.5 124.5q0 69 39 111q39 41 90 70l48 27q47 27 62 44q14 15 22 43
l5 20h152z" />
    <glyph glyph-name="Agrave" unicode="&#xc0;" horiz-adv-x="734" 
d="M513 0l-22 146h-262l-80 -146h-189l422 700h161l136 -700h-166zM314 302h153l-34 218zM510 776h-89l-80 141l126 33z" />
    <glyph glyph-name="Aacute" unicode="&#xc1;" horiz-adv-x="734" 
d="M513 0l-22 146h-262l-80 -146h-189l422 700h161l136 -700h-166zM314 302h153l-34 218zM694 857l-144 -81h-123l182 174z" />
    <glyph glyph-name="Acircumflex" unicode="&#xc2;" horiz-adv-x="734" 
d="M513 0l-22 146h-262l-80 -146h-189l422 700h161l136 -700h-166zM314 302h153l-34 218zM536 766l-36 70l-69 -70h-145l190 184h80l103 -184h-123z" />
    <glyph glyph-name="Atilde" unicode="&#xc3;" horiz-adv-x="734" 
d="M564 776q-33 0 -73 28q-25 17 -38 17t-22 -10.5t-10 -28.5h-91q0 69 30 109t81 40q32 0 75 -29q23 -17 36 -17q26 0 32 42h91q0 -71 -30.5 -111t-80.5 -40zM513 0l-22 146h-262l-80 -146h-189l422 700h161l136 -700h-166zM314 302h153l-34 218z" />
    <glyph glyph-name="Adieresis" unicode="&#xc4;" horiz-adv-x="734" 
d="M455 907l-31 -131h-126l30 131h127zM659 907l-29 -131h-127l31 131h125zM513 0l-22 146h-262l-80 -146h-189l422 700h161l136 -700h-166zM314 302h153l-34 218z" />
    <glyph glyph-name="Aring" unicode="&#xc5;" horiz-adv-x="734" 
d="M479 950q45 0 74.5 -29t29.5 -74q0 -46 -29.5 -75t-74.5 -29q-44 0 -73 29.5t-29 74.5t29 74t73 29zM480 900q-23 0 -37 -15t-14 -38q0 -24 13.5 -39t37.5 -15q23 0 37 15t14 39q0 23 -14 38t-37 15zM513 0l-22 146h-262l-80 -146h-189l422 700h161l136 -700h-166z
M314 302h153l-34 218z" />
    <glyph glyph-name="AE" unicode="&#xc6;" horiz-adv-x="984" 
d="M1007 544h-309l-25 -111h286l-36 -158h-287l-27 -118h326l-36 -157h-491l34 146h-206l-93 -146h-183l467 700h618zM336 302h141l64 276h-28z" />
    <glyph glyph-name="Ccedilla" unicode="&#xc7;" horiz-adv-x="750" 
d="M729 447h-167l1 15q0 48 -33.5 75t-92.5 27q-95 0 -150 -67q-54 -67 -54 -177q0 -95 41 -139.5t112 -44.5q66 0 107.5 36.5t48.5 102.5h167q-15 -133 -109 -213t-228 -80h-7l-6 -28q86 -5 86 -67q0 -40 -33.5 -67.5t-88.5 -27.5q-70 0 -107 37l51 58q23 -27 50 -27
q38 0 38 29q0 26 -66 26l20 72q-114 19 -177.5 104t-63.5 215q-1 77 23.5 150t70.5 132t120.5 94t166.5 34q132 0 206.5 -67t74.5 -187q0 -10 -1 -15z" />
    <glyph glyph-name="Egrave" unicode="&#xc8;" horiz-adv-x="601" 
d="M253 275l-27 -118h326l-36 -157h-491l161 700h476l-38 -156h-309l-25 -111h286l-36 -158h-287zM486 776h-89l-80 141l126 33z" />
    <glyph glyph-name="Eacute" unicode="&#xc9;" horiz-adv-x="601" 
d="M253 275l-27 -118h326l-36 -157h-491l161 700h476l-38 -156h-309l-25 -111h286l-36 -158h-287zM603 857l-144 -81h-123l182 174z" />
    <glyph glyph-name="Ecircumflex" unicode="&#xca;" horiz-adv-x="601" 
d="M253 275l-27 -118h326l-36 -157h-491l161 700h476l-38 -156h-309l-25 -111h286l-36 -158h-287zM491 766l-36 70l-69 -70h-145l190 184h80l103 -184h-123z" />
    <glyph glyph-name="Edieresis" unicode="&#xcb;" horiz-adv-x="601" 
d="M253 275l-27 -118h326l-36 -157h-491l161 700h476l-38 -156h-309l-25 -111h286l-36 -158h-287zM423 907l-31 -131h-126l30 131h127zM627 907l-29 -131h-127l31 131h125z" />
    <glyph glyph-name="Igrave" unicode="&#xcc;" horiz-adv-x="335" 
d="M30 0l161 700h165l-162 -700h-164zM331 776h-89l-80 141l126 33z" />
    <glyph glyph-name="Iacute" unicode="&#xcd;" horiz-adv-x="335" 
d="M30 0l161 700h165l-162 -700h-164zM492 857l-144 -81h-123l182 174z" />
    <glyph glyph-name="Icircumflex" unicode="&#xce;" horiz-adv-x="335" 
d="M30 0l161 700h165l-162 -700h-164zM342 766l-36 70l-69 -70h-145l190 184h80l103 -184h-123z" />
    <glyph glyph-name="Idieresis" unicode="&#xcf;" horiz-adv-x="335" 
d="M30 0l161 700h165l-162 -700h-164zM287 907l-31 -131h-126l30 131h127zM491 907l-29 -131h-127l31 131h125z" />
    <glyph glyph-name="Eth" unicode="&#xd0;" horiz-adv-x="688" 
d="M676 404q1 -74 -27 -146t-78.5 -130.5t-130.5 -94t-174 -33.5h-265l76 329h-62l12 54h63l73 317h223q142 0 216 -83.5t74 -212.5zM512 398q0 68 -33.5 107t-100.5 39h-87l-36 -161h126l-12 -54h-126l-39 -172h70q107 -2 173.5 73.5t64.5 167.5z" />
    <glyph glyph-name="Ntilde" unicode="&#xd1;" horiz-adv-x="721" 
d="M746 700l-160 -700h-143l-157 421l-97 -421h-163l160 700h154l150 -407l92 407h164zM541 776q-33 0 -73 28q-25 17 -38 17t-22 -10.5t-10 -28.5h-91q0 69 30 109t81 40q32 0 75 -29q23 -17 36 -17q26 0 32 42h91q0 -71 -30.5 -111t-80.5 -40z" />
    <glyph glyph-name="Ograve" unicode="&#xd2;" horiz-adv-x="762" 
d="M744 386q1 -108 -44.5 -201t-131 -149t-191.5 -54q-141 0 -224.5 91.5t-83.5 239.5q-2 164 103.5 285.5t264.5 118.5q140 0 223.5 -91.5t83.5 -239.5zM580 384q0 85 -38 129t-109 44q-93 0 -146.5 -69.5t-53.5 -172.5q0 -84 39 -128.5t109 -44.5q92 0 145.5 69.5
t53.5 172.5zM511 776h-89l-80 141l126 33z" />
    <glyph glyph-name="Oacute" unicode="&#xd3;" horiz-adv-x="762" 
d="M744 386q1 -108 -44.5 -201t-131 -149t-191.5 -54q-141 0 -224.5 91.5t-83.5 239.5q-2 164 103.5 285.5t264.5 118.5q140 0 223.5 -91.5t83.5 -239.5zM580 384q0 85 -38 129t-109 44q-93 0 -146.5 -69.5t-53.5 -172.5q0 -84 39 -128.5t109 -44.5q92 0 145.5 69.5
t53.5 172.5zM684 857l-144 -81h-123l182 174z" />
    <glyph glyph-name="Ocircumflex" unicode="&#xd4;" horiz-adv-x="762" 
d="M744 386q1 -108 -44.5 -201t-131 -149t-191.5 -54q-141 0 -224.5 91.5t-83.5 239.5q-2 164 103.5 285.5t264.5 118.5q140 0 223.5 -91.5t83.5 -239.5zM580 384q0 85 -38 129t-109 44q-93 0 -146.5 -69.5t-53.5 -172.5q0 -84 39 -128.5t109 -44.5q92 0 145.5 69.5
t53.5 172.5zM532 766l-36 70l-69 -70h-145l190 184h80l103 -184h-123z" />
    <glyph glyph-name="Otilde" unicode="&#xd5;" horiz-adv-x="762" 
d="M744 386q1 -108 -44.5 -201t-131 -149t-191.5 -54q-141 0 -224.5 91.5t-83.5 239.5q-2 164 103.5 285.5t264.5 118.5q140 0 223.5 -91.5t83.5 -239.5zM580 384q0 85 -38 129t-109 44q-93 0 -146.5 -69.5t-53.5 -172.5q0 -84 39 -128.5t109 -44.5q92 0 145.5 69.5
t53.5 172.5zM544 776q-33 0 -73 28q-25 17 -38 17t-22 -10.5t-10 -28.5h-91q0 69 30 109t81 40q32 0 75 -29q23 -17 36 -17q26 0 32 42h91q0 -71 -30.5 -111t-80.5 -40z" />
    <glyph glyph-name="Odieresis" unicode="&#xd6;" horiz-adv-x="762" 
d="M744 386q1 -108 -44.5 -201t-131 -149t-191.5 -54q-141 0 -224.5 91.5t-83.5 239.5q-2 164 103.5 285.5t264.5 118.5q140 0 223.5 -91.5t83.5 -239.5zM580 384q0 85 -38 129t-109 44q-93 0 -146.5 -69.5t-53.5 -172.5q0 -84 39 -128.5t109 -44.5q92 0 145.5 69.5
t53.5 172.5zM476 907l-31 -131h-126l30 131h127zM680 907l-29 -131h-127l31 131h125z" />
    <glyph glyph-name="multiply" unicode="&#xd7;" 
d="M546 422l-139 -113l83 -109l-113 -91l-83 108l-139 -112l-77 99l139 113l-84 110l115 91l83 -109l139 113z" />
    <glyph glyph-name="Oslash" unicode="&#xd8;" horiz-adv-x="763" 
d="M744 386q1 -108 -44.5 -201t-131 -149t-191.5 -54q-85 0 -153 36l-57 -78l-65 48l57 78q-90 90 -90 247q-2 164 103.5 285.5t264.5 118.5q93 0 163 -42l62 86l65 -48l-65 -89q82 -93 82 -238zM259 204l245 338q-32 15 -71 15q-93 0 -146.5 -69.5t-53.5 -172.5
q0 -67 26 -111zM580 384q0 61 -19 100l-240 -332q23 -10 60 -10q92 0 145.5 69.5t53.5 172.5z" />
    <glyph glyph-name="Ugrave" unicode="&#xd9;" horiz-adv-x="700" 
d="M734 700l-102 -452q-29 -130 -111.5 -198t-197.5 -68q-110 0 -180.5 61.5t-70.5 166.5q0 41 10 82l94 408h166l-100 -438q-4 -15 -4 -34q0 -41 25.5 -63.5t72.5 -22.5q108 0 137 123l97 435h164zM485 776h-89l-80 141l126 33z" />
    <glyph glyph-name="Uacute" unicode="&#xda;" horiz-adv-x="700" 
d="M734 700l-102 -452q-29 -130 -111.5 -198t-197.5 -68q-110 0 -180.5 61.5t-70.5 166.5q0 41 10 82l94 408h166l-100 -438q-4 -15 -4 -34q0 -41 25.5 -63.5t72.5 -22.5q108 0 137 123l97 435h164zM645 857l-144 -81h-123l182 174z" />
    <glyph glyph-name="Ucircumflex" unicode="&#xdb;" horiz-adv-x="700" 
d="M734 700l-102 -452q-29 -130 -111.5 -198t-197.5 -68q-110 0 -180.5 61.5t-70.5 166.5q0 41 10 82l94 408h166l-100 -438q-4 -15 -4 -34q0 -41 25.5 -63.5t72.5 -22.5q108 0 137 123l97 435h164zM511 766l-36 70l-69 -70h-145l190 184h80l103 -184h-123z" />
    <glyph glyph-name="Udieresis" unicode="&#xdc;" horiz-adv-x="700" 
d="M734 700l-102 -452q-29 -130 -111.5 -198t-197.5 -68q-110 0 -180.5 61.5t-70.5 166.5q0 41 10 82l94 408h166l-100 -438q-4 -15 -4 -34q0 -41 25.5 -63.5t72.5 -22.5q108 0 137 123l97 435h164zM446 907l-31 -131h-126l30 131h127zM650 907l-29 -131h-127l31 131h125z
" />
    <glyph glyph-name="Yacute" unicode="&#xdd;" horiz-adv-x="655" 
d="M751 700l-339 -436l-60 -264h-164l63 280l-145 420h177l87 -274l188 274h193zM607 857l-144 -81h-123l182 174z" />
    <glyph glyph-name="Thorn" unicode="&#xde;" horiz-adv-x="631" 
d="M633 408q2 -99 -75.5 -175t-203.5 -74h-128l-37 -159h-164l164 711h164l-25 -105h94q98 0 154.5 -57.5t56.5 -140.5zM468 397q0 54 -59 54h-116l-31 -137h113q42 0 67.5 24t25.5 59z" />
    <glyph glyph-name="germandbls" unicode="&#xdf;" horiz-adv-x="635" 
d="M588 210q0 -80 -65 -145t-166 -65h-96l34 145h52q35 0 56.5 20t21.5 49q0 30 -26 47t-73 17l27 117q44 9 72.5 39.5t28.5 66.5q0 29 -19.5 47.5t-56.5 18.5q-76 0 -93 -74l-117 -493h-158l121 514q46 197 264 197q106 0 162.5 -47t56.5 -125q0 -67 -42 -120
q-40 -50 -113 -64q62 -15 95.5 -53t33.5 -92z" />
    <glyph glyph-name="agrave" unicode="&#xe0;" horiz-adv-x="564" 
d="M529 382q0 -28 -7 -56l-73 -326h-146l14 62q-52 -73 -156 -73q-73 0 -112.5 38t-39.5 102q0 66 43.5 112t126.5 58l114 16q40 6 59.5 16.5t19.5 33.5q0 37 -60 37q-75 0 -102 -54h-152q27 89 98 137t176 48q95 0 146 -39t51 -112zM336 208l6 26q-22 -7 -71 -15l-28 -4
q-47 -7 -66 -18t-19 -38q0 -41 55 -41q46 0 80 23.5t43 66.5zM402 607h-105l-75 162l126 38z" />
    <glyph glyph-name="aacute" unicode="&#xe1;" horiz-adv-x="564" 
d="M529 382q0 -28 -7 -56l-73 -326h-146l14 62q-52 -73 -156 -73q-73 0 -112.5 38t-39.5 102q0 66 43.5 112t126.5 58l114 16q40 6 59.5 16.5t19.5 33.5q0 37 -60 37q-75 0 -102 -54h-152q27 89 98 137t176 48q95 0 146 -39t51 -112zM336 208l6 26q-22 -7 -71 -15l-28 -4
q-47 -7 -66 -18t-19 -38q0 -41 55 -41q46 0 80 23.5t43 66.5zM555 719l-151 -113h-124l190 207z" />
    <glyph glyph-name="acircumflex" unicode="&#xe2;" horiz-adv-x="564" 
d="M529 382q0 -28 -7 -56l-73 -326h-146l14 62q-52 -73 -156 -73q-73 0 -112.5 38t-39.5 102q0 66 43.5 112t126.5 58l114 16q40 6 59.5 16.5t19.5 33.5q0 37 -60 37q-75 0 -102 -54h-152q27 89 98 137t176 48q95 0 146 -39t51 -112zM336 208l6 26q-22 -7 -71 -15l-28 -4
q-47 -7 -66 -18t-19 -38q0 -41 55 -41q46 0 80 23.5t43 66.5zM424 607l-35 70l-69 -70h-145l190 184h80l103 -184h-124z" />
    <glyph glyph-name="atilde" unicode="&#xe3;" horiz-adv-x="564" 
d="M529 382q0 -28 -7 -56l-73 -326h-146l14 62q-52 -73 -156 -73q-73 0 -112.5 38t-39.5 102q0 66 43.5 112t126.5 58l114 16q40 6 59.5 16.5t19.5 33.5q0 37 -60 37q-75 0 -102 -54h-152q27 89 98 137t176 48q95 0 146 -39t51 -112zM336 208l6 26q-22 -7 -71 -15l-28 -4
q-47 -7 -66 -18t-19 -38q0 -41 55 -41q46 0 80 23.5t43 66.5zM434 607q-33 0 -73 28q-25 17 -38 17t-22 -10.5t-10 -28.5h-91q0 69 30 109t81 40q31 0 75 -28q23 -17 36 -17q26 0 31 42h92q-1 -72 -31 -112t-80 -40z" />
    <glyph glyph-name="adieresis" unicode="&#xe4;" horiz-adv-x="564" 
d="M529 382q0 -28 -7 -56l-73 -326h-146l14 62q-52 -73 -156 -73q-73 0 -112.5 38t-39.5 102q0 66 43.5 112t126.5 58l114 16q40 6 59.5 16.5t19.5 33.5q0 37 -60 37q-75 0 -102 -54h-152q27 89 98 137t176 48q95 0 146 -39t51 -112zM336 208l6 26q-22 -7 -71 -15l-28 -4
q-47 -7 -66 -18t-19 -38q0 -41 55 -41q46 0 80 23.5t43 66.5zM351 738l-31 -131h-126l30 131h127zM555 738l-29 -131h-126l30 131h125z" />
    <glyph glyph-name="aring" unicode="&#xe5;" horiz-adv-x="564" 
d="M529 382q0 -28 -7 -56l-73 -326h-146l14 62q-52 -73 -156 -73q-73 0 -112.5 38t-39.5 102q0 66 43.5 112t126.5 58l114 16q40 6 59.5 16.5t19.5 33.5q0 37 -60 37q-75 0 -102 -54h-152q27 89 98 137t176 48q95 0 146 -39t51 -112zM336 208l6 26q-22 -7 -71 -15l-28 -4
q-47 -7 -66 -18t-19 -38q0 -41 55 -41q46 0 80 23.5t43 66.5zM369 851q59 0 96 -36.5t37 -95.5q0 -58 -37.5 -95t-95.5 -37q-56 0 -92.5 37t-36.5 95q0 59 36 95.5t93 36.5zM370 769q-23 0 -36.5 -13.5t-13.5 -36.5q0 -22 13.5 -37.5t36.5 -15.5t37.5 15.5t14.5 37.5
q0 23 -14 36.5t-38 13.5z" />
    <glyph glyph-name="ae" unicode="&#xe6;" horiz-adv-x="875" 
d="M834 213h-330v-7q0 -36 21.5 -55t58.5 -19q57 0 75 34h159q-30 -87 -94.5 -132t-157.5 -45q-141 0 -189 111q-65 -111 -216 -111q-73 0 -112.5 38t-39.5 102q0 66 43.5 112t126.5 58l114 16q40 6 59.5 16.5t19.5 33.5q0 37 -60 37q-75 0 -102 -54h-152q27 89 98 137
t176 48q100 0 147 -65q63 65 152 65q103 0 159 -56.5t56 -159.5q0 -49 -12 -104zM514 314h179q1 4 1 14q0 62 -73 62q-79 0 -107 -76zM336 208l6 26q-22 -7 -71 -15l-28 -4q-47 -7 -66 -18t-19 -38q0 -41 55 -41q46 0 80 23.5t43 66.5z" />
    <glyph glyph-name="ccedilla" unicode="&#xe7;" horiz-adv-x="545" 
d="M196 229q0 -95 77 -95q62 0 79 62h158q-17 -88 -80 -142q-66 -57 -153 -64l-8 -36q86 -5 86 -67q0 -40 -33.5 -67.5t-88.5 -27.5q-70 0 -107 37l51 58q23 -27 50 -27q38 0 38 29q0 26 -66 26l21 76q-87 9 -136.5 69t-49.5 156q-1 57 17.5 112.5t53 102.5t92.5 75t129 27
q98 0 155 -50.5t57 -135.5q0 -3 -2 -21h-157q0 61 -65 61q-61 0 -90 -50q-28 -49 -28 -108z" />
    <glyph glyph-name="egrave" unicode="&#xe8;" horiz-adv-x="548" 
d="M528 213h-330v-7q0 -36 21.5 -55t58.5 -19q57 0 75 34h159q-30 -87 -94.5 -132t-157.5 -45q-106 0 -165.5 60t-59.5 168q-2 129 78 223.5t213 92.5q102 0 158 -56.5t56 -159.5q0 -49 -12 -104zM208 314h179l1 14q0 62 -73 62q-79 0 -107 -76zM402 606h-105l-75 162
l126 38z" />
    <glyph glyph-name="eacute" unicode="&#xe9;" horiz-adv-x="548" 
d="M528 213h-330v-7q0 -36 21.5 -55t58.5 -19q57 0 75 34h159q-30 -87 -94.5 -132t-157.5 -45q-106 0 -165.5 60t-59.5 168q-2 129 78 223.5t213 92.5q102 0 158 -56.5t56 -159.5q0 -49 -12 -104zM208 314h179l1 14q0 62 -73 62q-79 0 -107 -76zM555 718l-151 -113h-124
l190 207z" />
    <glyph glyph-name="ecircumflex" unicode="&#xea;" horiz-adv-x="548" 
d="M528 213h-330v-7q0 -36 21.5 -55t58.5 -19q57 0 75 34h159q-30 -87 -94.5 -132t-157.5 -45q-106 0 -165.5 60t-59.5 168q-2 129 78 223.5t213 92.5q102 0 158 -56.5t56 -159.5q0 -49 -12 -104zM208 314h179l1 14q0 62 -73 62q-79 0 -107 -76zM414 607l-35 70l-69 -70
h-145l190 184h80l103 -184h-124z" />
    <glyph glyph-name="edieresis" unicode="&#xeb;" horiz-adv-x="548" 
d="M528 213h-330v-7q0 -36 21.5 -55t58.5 -19q57 0 75 34h159q-30 -87 -94.5 -132t-157.5 -45q-106 0 -165.5 60t-59.5 168q-2 129 78 223.5t213 92.5q102 0 158 -56.5t56 -159.5q0 -49 -12 -104zM208 314h179l1 14q0 62 -73 62q-79 0 -107 -76zM350 737l-31 -131h-126
l30 131h127zM554 737l-29 -131h-126l30 131h125z" />
    <glyph glyph-name="igrave" unicode="&#xec;" horiz-adv-x="296" 
d="M168 0h-160l122 524h158zM274 607h-105l-75 162l126 38z" />
    <glyph glyph-name="iacute" unicode="&#xed;" horiz-adv-x="296" 
d="M168 0h-160l122 524h158zM430 719l-151 -113h-124l190 207z" />
    <glyph glyph-name="icircumflex" unicode="&#xee;" horiz-adv-x="296" 
d="M168 0h-160l122 524h158zM290 607l-35 70l-69 -70h-145l190 184h80l103 -184h-124z" />
    <glyph glyph-name="idieresis" unicode="&#xef;" horiz-adv-x="296" 
d="M168 0h-160l122 524h158zM220 738l-31 -131h-126l30 131h127zM424 738l-29 -131h-126l30 131h125z" />
    <glyph glyph-name="eth" unicode="&#xf0;" horiz-adv-x="610" 
d="M595 408q1 -107 -26.5 -190t-75 -132t-104.5 -73t-119 -24q-97 0 -165.5 59.5t-68.5 153.5q-2 114 79.5 188.5t182.5 72.5q97 0 139 -70q5 32 5 48q0 51 -24 85l-62 -43l-31 46l44 31q-11 4 -30 4q-34 0 -60 -17t-33 -46h-156q17 92 89.5 145.5t164.5 53.5q90 0 153 -51
l79 54v-67l-39 -27q58 -77 58 -201zM397 243q0 41 -24 64t-64 23q-49 0 -81.5 -32.5t-32.5 -86.5q0 -42 23.5 -67.5t61.5 -25.5q46 0 81.5 36t35.5 89z" />
    <glyph glyph-name="ntilde" unicode="&#xf1;" horiz-adv-x="601" 
d="M579 391q0 -29 -7 -57l-76 -334h-160l68 290q8 34 8 49q0 53 -62 53q-89 0 -113 -105l-67 -287h-160l122 524h155l-18 -71q21 36 63.5 58t95.5 22q70 0 110.5 -38.5t40.5 -103.5zM472 607q-33 0 -73 28q-25 17 -38 17t-22 -10.5t-10 -28.5h-91q0 69 30 109t81 40
q31 0 75 -28q23 -17 36 -17q26 0 31 42h92q-1 -72 -31 -112t-80 -40z" />
    <glyph glyph-name="ograve" unicode="&#xf2;" horiz-adv-x="575" 
d="M553 293q0 -130 -77 -217t-203 -87q-108 0 -172 61.5t-64 178.5q0 130 77.5 217t203.5 87q105 0 169 -61q66 -60 66 -179zM393 287q0 97 -81 97q-54 0 -84.5 -42t-30.5 -107q0 -97 81 -97q54 0 84.5 42t30.5 107zM403 607h-105l-75 162l126 38z" />
    <glyph glyph-name="oacute" unicode="&#xf3;" horiz-adv-x="575" 
d="M553 293q0 -130 -77 -217t-203 -87q-108 0 -172 61.5t-64 178.5q0 130 77.5 217t203.5 87q105 0 169 -61q66 -60 66 -179zM393 287q0 97 -81 97q-54 0 -84.5 -42t-30.5 -107q0 -97 81 -97q54 0 84.5 42t30.5 107zM557 719l-151 -113h-124l190 207z" />
    <glyph glyph-name="ocircumflex" unicode="&#xf4;" horiz-adv-x="575" 
d="M553 293q0 -130 -77 -217t-203 -87q-108 0 -172 61.5t-64 178.5q0 130 77.5 217t203.5 87q105 0 169 -61q66 -60 66 -179zM393 287q0 97 -81 97q-54 0 -84.5 -42t-30.5 -107q0 -97 81 -97q54 0 84.5 42t30.5 107zM404 607l-35 70l-69 -70h-145l190 184h80l103 -184h-124z
" />
    <glyph glyph-name="otilde" unicode="&#xf5;" horiz-adv-x="575" 
d="M553 293q0 -130 -77 -217t-203 -87q-108 0 -172 61.5t-64 178.5q0 130 77.5 217t203.5 87q105 0 169 -61q66 -60 66 -179zM393 287q0 97 -81 97q-54 0 -84.5 -42t-30.5 -107q0 -97 81 -97q54 0 84.5 42t30.5 107zM434 607q-33 0 -73 28q-25 17 -38 17t-22 -10.5
t-10 -28.5h-91q0 69 30 109t81 40q31 0 75 -28q23 -17 36 -17q26 0 31 42h92q-1 -72 -31 -112t-80 -40z" />
    <glyph glyph-name="odieresis" unicode="&#xf6;" horiz-adv-x="575" 
d="M553 293q0 -130 -77 -217t-203 -87q-108 0 -172 61.5t-64 178.5q0 130 77.5 217t203.5 87q105 0 169 -61q66 -60 66 -179zM393 287q0 97 -81 97q-54 0 -84.5 -42t-30.5 -107q0 -97 81 -97q54 0 84.5 42t30.5 107zM346 738l-31 -131h-126l30 131h127zM550 738l-29 -131
h-126l30 131h125z" />
    <glyph glyph-name="divide" unicode="&#xf7;" 
d="M449 588l-36 -155h-151l36 155h151zM543 383l-33 -143h-431l33 143h431zM365 190l-36 -155h-151l36 155h151z" />
    <glyph glyph-name="oslash" unicode="&#xf8;" horiz-adv-x="586" 
d="M553 293q0 -130 -77 -217t-203 -87q-56 0 -104 18l-51 -71l-65 48l48 66q-64 64 -64 179q0 130 77.5 217t203.5 87q65 0 116 -24l48 66l65 -47l-48 -67q54 -61 54 -168zM203 190l138 190q-11 4 -29 4q-54 0 -84.5 -42t-30.5 -107q0 -25 6 -45zM393 287q0 4 -2 26
l-126 -174q3 -1 13 -1q54 0 84.5 42t30.5 107z" />
    <glyph glyph-name="ugrave" unicode="&#xf9;" horiz-adv-x="581" 
d="M592 524l-120 -524h-154l13 62q-43 -69 -137 -69q-70 0 -110.5 41t-40.5 108q0 25 11 74l72 308h160l-75 -322q-3 -12 -3 -22q0 -22 14 -34t39 -12q52 0 76 40q23 39 37 95l60 255h158zM412 607h-105l-75 162l126 38z" />
    <glyph glyph-name="uacute" unicode="&#xfa;" horiz-adv-x="581" 
d="M592 524l-120 -524h-154l13 62q-43 -69 -137 -69q-70 0 -110.5 41t-40.5 108q0 25 11 74l72 308h160l-75 -322q-3 -12 -3 -22q0 -22 14 -34t39 -12q52 0 76 40q23 39 37 95l60 255h158zM561 719l-151 -113h-124l190 207z" />
    <glyph glyph-name="ucircumflex" unicode="&#xfb;" horiz-adv-x="581" 
d="M592 524l-120 -524h-154l13 62q-43 -69 -137 -69q-70 0 -110.5 41t-40.5 108q0 25 11 74l72 308h160l-75 -322q-3 -12 -3 -22q0 -22 14 -34t39 -12q52 0 76 40q23 39 37 95l60 255h158zM434 607l-35 70l-69 -70h-145l190 184h80l103 -184h-124z" />
    <glyph glyph-name="udieresis" unicode="&#xfc;" horiz-adv-x="581" 
d="M592 524l-120 -524h-154l13 62q-43 -69 -137 -69q-70 0 -110.5 41t-40.5 108q0 25 11 74l72 308h160l-75 -322q-3 -12 -3 -22q0 -22 14 -34t39 -12q52 0 76 40q23 39 37 95l60 255h158zM357 738l-31 -131h-126l30 131h127zM561 738l-29 -131h-126l30 131h125z" />
    <glyph glyph-name="yacute" unicode="&#xfd;" horiz-adv-x="565" 
d="M451 524h174l-316 -541q-48 -84 -110 -116t-162 -32h-43l31 140h29q89 0 116 55l3 6l-103 488h160l55 -305zM541 719l-151 -113h-124l190 207z" />
    <glyph glyph-name="thorn" unicode="&#xfe;" horiz-adv-x="632" 
d="M605 315q1 -76 -32 -149.5t-98.5 -122.5t-146.5 -47q-100 0 -145 71l-58 -259h-160l209 903h156l-61 -265q47 87 152 87q86 0 135 -62t49 -156zM444 288q0 43 -24 69t-66 26q-56 0 -91.5 -44t-35.5 -101q0 -43 24 -69t66 -26q56 0 91.5 44t35.5 101z" />
    <glyph glyph-name="ydieresis" unicode="&#xff;" horiz-adv-x="565" 
d="M451 524h174l-316 -541q-48 -84 -110 -116t-162 -32h-43l31 140h29q89 0 116 55l3 6l-103 488h160l55 -305zM342 738l-31 -131h-126l30 131h127zM546 738l-29 -131h-126l30 131h125z" />
    <glyph glyph-name="Amacron" unicode="&#x100;" horiz-adv-x="734" 
d="M513 0l-22 146h-262l-80 -146h-189l422 700h161l136 -700h-166zM314 302h153l-34 218zM359 888h298l-25 -112h-299z" />
    <glyph glyph-name="amacron" unicode="&#x101;" horiz-adv-x="564" 
d="M529 382q0 -28 -7 -56l-73 -326h-146l14 62q-52 -73 -156 -73q-73 0 -112.5 38t-39.5 102q0 66 43.5 112t126.5 58l114 16q40 6 59.5 16.5t19.5 33.5q0 37 -60 37q-75 0 -102 -54h-152q27 89 98 137t176 48q95 0 146 -39t51 -112zM336 208l6 26q-22 -7 -71 -15l-28 -4
q-47 -7 -66 -18t-19 -38q0 -41 55 -41q46 0 80 23.5t43 66.5zM241 719h299l-26 -112h-299z" />
    <glyph glyph-name="Abreve" unicode="&#x102;" horiz-adv-x="734" 
d="M513 0l-22 146h-262l-80 -146h-189l422 700h161l136 -700h-166zM314 302h153l-34 218zM651 929q0 -63 -43.5 -118t-120.5 -55q-60 0 -90.5 30t-30.5 78q0 41 24 86h83q-10 -26 -10 -45q0 -45 37 -45q26 0 40.5 26.5t14.5 63.5h94q2 -16 2 -21z" />
    <glyph glyph-name="abreve" unicode="&#x103;" horiz-adv-x="564" 
d="M529 382q0 -28 -7 -56l-73 -326h-146l14 62q-52 -73 -156 -73q-73 0 -112.5 38t-39.5 102q0 66 43.5 112t126.5 58l114 16q40 6 59.5 16.5t19.5 33.5q0 37 -60 37q-75 0 -102 -54h-152q27 89 98 137t176 48q95 0 146 -39t51 -112zM336 208l6 26q-22 -7 -71 -15l-28 -4
q-47 -7 -66 -18t-19 -38q0 -41 55 -41q46 0 80 23.5t43 66.5zM529 780q0 -63 -44 -118t-122 -55q-60 0 -90.5 30t-30.5 78q0 41 24 86h83q-10 -26 -10 -45q0 -45 37 -45q27 0 42 26.5t15 63.5h94q2 -16 2 -21z" />
    <glyph glyph-name="Aogonek" unicode="&#x104;" horiz-adv-x="734" 
d="M601 -90l-17 -79q-49 5 -80 32t-31 66q0 44 40 72l-22 145h-262l-80 -146h-189l422 700h161l136 -700h-116q-25 -19 -25 -45q0 -22 18.5 -33.5t44.5 -11.5zM314 302h153l-34 218z" />
    <glyph glyph-name="aogonek" unicode="&#x105;" horiz-adv-x="552" 
d="M529 382q0 -28 -7 -56l-73 -326h-95q-25 -19 -25 -45q0 -22 18.5 -33.5t44.5 -11.5l-17 -79q-49 5 -80 32t-31 66q0 43 39 72l14 61q-52 -73 -156 -73q-73 0 -112.5 38t-39.5 102q0 66 43.5 112t126.5 58l114 16q40 6 59.5 16.5t19.5 33.5q0 37 -60 37q-75 0 -102 -54
h-152q27 89 98 137t176 48q95 0 146 -39t51 -112zM336 208l6 26q-22 -7 -71 -15l-28 -4q-47 -7 -66 -18t-19 -38q0 -41 55 -41q46 0 80 23.5t43 66.5z" />
    <glyph glyph-name="Cacute" unicode="&#x106;" horiz-adv-x="750" 
d="M542 275h167q-15 -133 -109 -213t-228 -80q-141 0 -222.5 88.5t-81.5 235.5q-1 77 23.5 150t70.5 132t120.5 94t166.5 34q132 0 206.5 -67t74.5 -187q0 -10 -1 -15h-167l1 15q0 48 -33.5 75t-92.5 27q-95 0 -150 -67q-54 -67 -54 -177q0 -95 41 -139.5t112 -44.5
q66 0 107.5 36.5t48.5 102.5zM668 857l-144 -81h-123l182 174z" />
    <glyph glyph-name="cacute" unicode="&#x107;" horiz-adv-x="545" 
d="M352 196h158q-16 -93 -89 -150t-171 -57q-101 0 -158.5 61t-57.5 166q-1 57 17.5 112.5t53 102.5t92.5 75t129 27q98 0 155 -50.5t57 -135.5q0 -3 -2 -21h-157q0 61 -65 61q-61 0 -90 -50q-28 -49 -28 -108q0 -95 77 -95q62 0 79 62zM553 719l-151 -113h-124l190 207z
" />
    <glyph glyph-name="Ccircumflex" unicode="&#x108;" horiz-adv-x="750" 
d="M542 275h167q-15 -133 -109 -213t-228 -80q-141 0 -222.5 88.5t-81.5 235.5q-1 77 23.5 150t70.5 132t120.5 94t166.5 34q132 0 206.5 -67t74.5 -187q0 -10 -1 -15h-167l1 15q0 48 -33.5 75t-92.5 27q-95 0 -150 -67q-54 -67 -54 -177q0 -95 41 -139.5t112 -44.5
q66 0 107.5 36.5t48.5 102.5zM524 766l-36 70l-69 -70h-145l190 184h80l103 -184h-123z" />
    <glyph glyph-name="ccircumflex" unicode="&#x109;" horiz-adv-x="545" 
d="M352 196h158q-16 -93 -89 -150t-171 -57q-101 0 -158.5 61t-57.5 166q-1 57 17.5 112.5t53 102.5t92.5 75t129 27q98 0 155 -50.5t57 -135.5q0 -3 -2 -21h-157q0 61 -65 61q-61 0 -90 -50q-28 -49 -28 -108q0 -95 77 -95q62 0 79 62zM414 607l-35 70l-69 -70h-145
l190 184h80l103 -184h-124z" />
    <glyph glyph-name="Cdotaccent" unicode="&#x10a;" horiz-adv-x="750" 
d="M542 275h167q-15 -133 -109 -213t-228 -80q-141 0 -222.5 88.5t-81.5 235.5q-1 77 23.5 150t70.5 132t120.5 94t166.5 34q132 0 206.5 -67t74.5 -187q0 -10 -1 -15h-167l1 15q0 48 -33.5 75t-92.5 27q-95 0 -150 -67q-54 -67 -54 -177q0 -95 41 -139.5t112 -44.5
q66 0 107.5 36.5t48.5 102.5zM596 948l-40 -172h-168l40 172h168z" />
    <glyph glyph-name="cdotaccent" unicode="&#x10b;" horiz-adv-x="545" 
d="M352 196h158q-16 -93 -89 -150t-171 -57q-101 0 -158.5 61t-57.5 166q-1 57 17.5 112.5t53 102.5t92.5 75t129 27q98 0 155 -50.5t57 -135.5q0 -3 -2 -21h-157q0 61 -65 61q-61 0 -90 -50q-28 -49 -28 -108q0 -95 77 -95q62 0 79 62zM490 778l-40 -172h-168l40 172h168z
" />
    <glyph glyph-name="Ccaron" unicode="&#x10c;" horiz-adv-x="750" 
d="M542 275h167q-15 -133 -109 -213t-228 -80q-141 0 -222.5 88.5t-81.5 235.5q-1 77 23.5 150t70.5 132t120.5 94t166.5 34q132 0 206.5 -67t74.5 -187q0 -10 -1 -15h-167l1 15q0 48 -33.5 75t-92.5 27q-95 0 -150 -67q-54 -67 -54 -177q0 -95 41 -139.5t112 -44.5
q66 0 107.5 36.5t48.5 102.5zM462 950l35 -70l69 70h145l-190 -184h-80l-103 184h124z" />
    <glyph glyph-name="ccaron" unicode="&#x10d;" horiz-adv-x="545" 
d="M352 196h158q-16 -93 -89 -150t-171 -57q-101 0 -158.5 61t-57.5 166q-1 57 17.5 112.5t53 102.5t92.5 75t129 27q98 0 155 -50.5t57 -135.5q0 -3 -2 -21h-157q0 61 -65 61q-61 0 -90 -50q-28 -49 -28 -108q0 -95 77 -95q62 0 79 62zM350 791l36 -70l69 70h144l-189 -184
h-80l-103 184h123z" />
    <glyph glyph-name="Dcaron" unicode="&#x10e;" horiz-adv-x="712" 
d="M700 404q1 -74 -27 -146t-78.5 -130.5t-130.5 -94t-174 -33.5h-265l162 700h223q142 0 216 -83.5t74 -212.5zM536 398q0 68 -33.5 107t-100.5 39h-87l-87 -387h70q107 -2 173.5 73.5t64.5 167.5zM378 950l35 -70l69 70h145l-190 -184h-80l-103 184h124z" />
    <glyph glyph-name="dcaron" unicode="&#x10f;" horiz-adv-x="832" 
d="M669 711l-165 -711h-145l14 70q-18 -37 -57.5 -59t-92.5 -22q-91 0 -141 62q-49 62 -49 159q-1 79 31.5 153t98.5 123t149 47q112 0 141 -76l57 254h159zM409 295q0 42 -21 67t-64 25q-56 0 -95.5 -42.5t-39.5 -109.5q0 -96 84 -96q61 0 98.5 48t37.5 108zM917 717
l-33 -140q-24 -103 -81 -152.5t-152 -56.5l-1 79q60 8 91.5 35t42.5 78h-71l37 157h167z" />
    <glyph glyph-name="Dcroat" unicode="&#x110;" horiz-adv-x="688" 
d="M676 404q1 -74 -27 -146t-78.5 -130.5t-130.5 -94t-174 -33.5h-265l76 329h-62l12 54h63l73 317h223q142 0 216 -83.5t74 -212.5zM512 398q0 68 -33.5 107t-100.5 39h-87l-36 -161h126l-12 -54h-126l-39 -172h70q107 -2 173.5 73.5t64.5 167.5z" />
    <glyph glyph-name="dslash" unicode="&#x111;" horiz-adv-x="661" 
d="M726 632l-12 -54h-76l-134 -578h-145l14 70q-18 -37 -57.5 -59t-92.5 -22q-91 0 -141 62q-49 62 -49 159q-1 79 31.5 153t98.5 123t149 47q112 0 141 -76l27 121h-82l12 54h82l18 79h159l-18 -79h75zM409 295q0 42 -21 67t-64 25q-56 0 -95.5 -42.5t-39.5 -109.5
q0 -96 84 -96q61 0 98.5 48t37.5 108z" />
    <glyph glyph-name="Emacron" unicode="&#x112;" horiz-adv-x="601" 
d="M253 275l-27 -118h326l-36 -157h-491l161 700h476l-38 -156h-309l-25 -111h286l-36 -158h-287zM305 888h298l-25 -112h-299z" />
    <glyph glyph-name="emacron" unicode="&#x113;" horiz-adv-x="548" 
d="M528 213h-330v-7q0 -36 21.5 -55t58.5 -19q57 0 75 34h159q-30 -87 -94.5 -132t-157.5 -45q-106 0 -165.5 60t-59.5 168q-2 129 78 223.5t213 92.5q102 0 158 -56.5t56 -159.5q0 -49 -12 -104zM208 314h179l1 14q0 62 -73 62q-79 0 -107 -76zM231 719h299l-26 -112h-299z
" />
    <glyph glyph-name="Ebreve" unicode="&#x114;" horiz-adv-x="601" 
d="M253 275l-27 -118h326l-36 -157h-491l161 700h476l-38 -156h-309l-25 -111h286l-36 -158h-287zM596 929q0 -63 -43.5 -118t-120.5 -55q-60 0 -90.5 30t-30.5 78q0 41 24 86h83q-10 -26 -10 -45q0 -45 37 -45q26 0 40.5 26.5t14.5 63.5h94q2 -16 2 -21z" />
    <glyph glyph-name="ebreve" unicode="&#x115;" horiz-adv-x="548" 
d="M528 213h-330v-7q0 -36 21.5 -55t58.5 -19q57 0 75 34h159q-30 -87 -94.5 -132t-157.5 -45q-106 0 -165.5 60t-59.5 168q-2 129 78 223.5t213 92.5q102 0 158 -56.5t56 -159.5q0 -49 -12 -104zM208 314h179l1 14q0 62 -73 62q-79 0 -107 -76zM530 780q0 -63 -44 -118
t-122 -55q-60 0 -90.5 30t-30.5 78q0 41 24 86h83q-10 -26 -10 -45q0 -45 37 -45q27 0 42 26.5t15 63.5h94q2 -16 2 -21z" />
    <glyph glyph-name="Edotaccent" unicode="&#x116;" horiz-adv-x="601" 
d="M253 275l-27 -118h326l-36 -157h-491l161 700h476l-38 -156h-309l-25 -111h286l-36 -158h-287zM551 948l-40 -172h-168l40 172h168z" />
    <glyph glyph-name="edotaccent" unicode="&#x117;" horiz-adv-x="548" 
d="M528 213h-330v-7q0 -36 21.5 -55t58.5 -19q57 0 75 34h159q-30 -87 -94.5 -132t-157.5 -45q-106 0 -165.5 60t-59.5 168q-2 129 78 223.5t213 92.5q102 0 158 -56.5t56 -159.5q0 -49 -12 -104zM208 314h179l1 14q0 62 -73 62q-79 0 -107 -76zM478 777l-40 -172h-168
l40 172h168z" />
    <glyph glyph-name="Eogonek" unicode="&#x118;" horiz-adv-x="601" 
d="M624 544h-309l-25 -111h286l-36 -158h-287l-27 -118h326l-36 -157h-62q-25 -19 -25 -45q0 -22 18.5 -33.5t44.5 -11.5l-17 -79q-49 5 -80 32t-31 66q0 42 38 71h-377l161 700h476z" />
    <glyph glyph-name="eogonek" unicode="&#x119;" horiz-adv-x="548" 
d="M528 213h-330v-7q0 -36 21.5 -55t58.5 -19q57 0 75 34h159q-29 -84 -91 -129t-149 -48q-14 -17 -14 -34q0 -22 18.5 -33.5t44.5 -11.5l-17 -79q-49 5 -80 32t-31 66q0 37 28 62q-90 11 -138 69t-48 157q-2 129 78 223.5t213 92.5q102 0 158 -56.5t56 -159.5
q0 -49 -12 -104zM208 314h179l1 14q0 62 -73 62q-79 0 -107 -76z" />
    <glyph glyph-name="Ecaron" unicode="&#x11a;" horiz-adv-x="601" 
d="M253 275l-27 -118h326l-36 -157h-491l161 700h476l-38 -156h-309l-25 -111h286l-36 -158h-287zM408 950l35 -70l69 70h145l-190 -184h-80l-103 184h124z" />
    <glyph glyph-name="ecaron" unicode="&#x11b;" horiz-adv-x="548" 
d="M528 213h-330v-7q0 -36 21.5 -55t58.5 -19q57 0 75 34h159q-30 -87 -94.5 -132t-157.5 -45q-106 0 -165.5 60t-59.5 168q-2 129 78 223.5t213 92.5q102 0 158 -56.5t56 -159.5q0 -49 -12 -104zM208 314h179l1 14q0 62 -73 62q-79 0 -107 -76zM335 790l36 -70l69 70h144
l-189 -184h-80l-103 184h123z" />
    <glyph glyph-name="Gcircumflex" unicode="&#x11c;" horiz-adv-x="768" 
d="M739 447h-165q0 117 -120 117q-101 0 -161.5 -76t-60.5 -182q0 -82 38.5 -128t110.5 -46q62 0 103 30.5t54 76.5h-188l34 144h345l-87 -383h-147l19 77q-64 -95 -184 -95q-119 0 -192 86t-73 223q-1 79 25 154.5t75 137.5t127 99t173 35q132 0 203.5 -64.5t71.5 -186.5
q0 -13 -1 -19zM530 766l-36 70l-69 -70h-145l190 184h80l103 -184h-123z" />
    <glyph glyph-name="gcircumflex" unicode="&#x11d;" horiz-adv-x="593" 
d="M466 524h153l-114 -493q-19 -87 -76 -161q-55 -73 -191 -73q-102 0 -173 49.5t-75 142.5h156q2 -27 25.5 -43.5t64.5 -16.5q57 0 80 26.5t35 75.5l15 61q-47 -75 -142 -75q-86 0 -136.5 61t-50.5 154q-1 74 31.5 143t96.5 114.5t142 43.5q109 0 141 -82zM407 300
q0 41 -22.5 63.5t-63.5 22.5q-58 0 -94.5 -42.5t-36.5 -97.5q0 -42 23.5 -67.5t64.5 -25.5q55 0 92 45.5t37 101.5zM439 607l-35 70l-69 -70h-145l190 184h80l103 -184h-124z" />
    <glyph glyph-name="Gbreve" unicode="&#x11e;" horiz-adv-x="768" 
d="M739 447h-165q0 117 -120 117q-101 0 -161.5 -76t-60.5 -182q0 -82 38.5 -128t110.5 -46q62 0 103 30.5t54 76.5h-188l34 144h345l-87 -383h-147l19 77q-64 -95 -184 -95q-119 0 -192 86t-73 223q-1 79 25 154.5t75 137.5t127 99t173 35q132 0 203.5 -64.5t71.5 -186.5
q0 -13 -1 -19zM646 929q0 -63 -43.5 -118t-120.5 -55q-60 0 -90.5 30t-30.5 78q0 41 24 86h83q-10 -26 -10 -45q0 -45 37 -45q26 0 40.5 26.5t14.5 63.5h94q2 -16 2 -21z" />
    <glyph glyph-name="gbreve" unicode="&#x11f;" horiz-adv-x="593" 
d="M466 524h153l-114 -493q-19 -87 -76 -161q-55 -73 -191 -73q-102 0 -173 49.5t-75 142.5h156q2 -27 25.5 -43.5t64.5 -16.5q57 0 80 26.5t35 75.5l15 61q-47 -75 -142 -75q-86 0 -136.5 61t-50.5 154q-1 74 31.5 143t96.5 114.5t142 43.5q109 0 141 -82zM407 300
q0 41 -22.5 63.5t-63.5 22.5q-58 0 -94.5 -42.5t-36.5 -97.5q0 -42 23.5 -67.5t64.5 -25.5q55 0 92 45.5t37 101.5zM527 780q0 -63 -44 -118t-122 -55q-60 0 -90.5 30t-30.5 78q0 41 24 86h83q-10 -26 -10 -45q0 -45 37 -45q27 0 42 26.5t15 63.5h94q2 -16 2 -21z" />
    <glyph glyph-name="Gdotaccent" unicode="&#x120;" horiz-adv-x="768" 
d="M739 447h-165q0 117 -120 117q-101 0 -161.5 -76t-60.5 -182q0 -82 38.5 -128t110.5 -46q62 0 103 30.5t54 76.5h-188l34 144h345l-87 -383h-147l19 77q-64 -95 -184 -95q-119 0 -192 86t-73 223q-1 79 25 154.5t75 137.5t127 99t173 35q132 0 203.5 -64.5t71.5 -186.5
q0 -13 -1 -19zM600 948l-40 -172h-168l40 172h168z" />
    <glyph glyph-name="gdotaccent" unicode="&#x121;" horiz-adv-x="593" 
d="M466 524h153l-114 -493q-19 -87 -76 -161q-55 -73 -191 -73q-102 0 -173 49.5t-75 142.5h156q2 -27 25.5 -43.5t64.5 -16.5q57 0 80 26.5t35 75.5l15 61q-47 -75 -142 -75q-86 0 -136.5 61t-50.5 154q-1 74 31.5 143t96.5 114.5t142 43.5q109 0 141 -82zM407 300
q0 41 -22.5 63.5t-63.5 22.5q-58 0 -94.5 -42.5t-36.5 -97.5q0 -42 23.5 -67.5t64.5 -25.5q55 0 92 45.5t37 101.5zM479 778l-40 -172h-168l40 172h168z" />
    <glyph glyph-name="uni0122" unicode="&#x122;" horiz-adv-x="777" 
d="M739 447h-165q0 117 -120 117q-101 0 -161.5 -76t-60.5 -182q0 -82 38.5 -128t110.5 -46q62 0 103 30.5t54 76.5h-188l34 144h345l-87 -383h-147l19 77q-64 -95 -184 -95q-119 0 -192 86t-73 223q-1 79 25 154.5t75 137.5t127 99t173 35q132 0 203.5 -64.5t71.5 -186.5
q0 -13 -1 -19zM361 -67l-23 -98q-17 -71 -56.5 -106t-106.5 -40l-1 55q42 6 64 24.5t30 54.5h-50l26 110h117z" />
    <glyph glyph-name="uni0123" unicode="&#x123;" horiz-adv-x="614" 
d="M271 586l23 98q32 135 163 146l1 -55q-42 -6 -64 -24.5t-30 -54.5h50l-26 -110h-117zM466 524h153l-114 -493q-19 -87 -76 -161q-55 -73 -191 -73q-102 0 -173 49.5t-75 142.5h156q2 -27 25.5 -43.5t64.5 -16.5q57 0 80 26.5t35 75.5l15 61q-47 -75 -142 -75
q-86 0 -136.5 61t-50.5 154q-1 74 31.5 143t96.5 114.5t142 43.5q109 0 141 -82zM407 300q0 41 -22.5 63.5t-63.5 22.5q-58 0 -94.5 -42.5t-36.5 -97.5q0 -42 23.5 -67.5t64.5 -25.5q55 0 92 45.5t37 101.5z" />
    <glyph glyph-name="Hcircumflex" unicode="&#x124;" horiz-adv-x="715" 
d="M741 700l-161 -700h-165l63 274h-225l-63 -274h-165l162 700h164l-62 -269h225l61 269h166zM523 766l-36 70l-69 -70h-145l190 184h80l103 -184h-123z" />
    <glyph glyph-name="hcircumflex" unicode="&#x125;" horiz-adv-x="601" 
d="M533 607l-29 58l-57 -58h-120l157 152h66l85 -152h-102zM579 391q0 -29 -7 -57l-76 -334h-160l68 290q8 34 8 49q0 53 -62 53q-89 0 -113 -105l-67 -287h-160l165 711h159l-56 -245q51 67 150 67q70 0 110.5 -38.5t40.5 -103.5z" />
    <glyph glyph-name="Hbar" unicode="&#x126;" horiz-adv-x="736" 
d="M793 562l-10 -49h-96l-118 -513h-165l63 274h-225l-63 -274h-165l119 513h-64l10 49h65l32 138h164l-32 -138h225l31 138h166l-32 -138h95zM503 431l19 82h-225l-19 -82h225z" />
    <glyph glyph-name="hbar" unicode="&#x127;" horiz-adv-x="619" 
d="M587 391q0 -29 -7 -57l-76 -334h-160l68 290q8 34 8 49q0 53 -62 53q-89 0 -113 -105l-67 -287h-160l134 578h-59l12 54h60l18 79h159l-18 -79h80l-12 -54h-80l-26 -112q51 67 150 67q70 0 110.5 -38.5t40.5 -103.5z" />
    <glyph glyph-name="Itilde" unicode="&#x128;" horiz-adv-x="335" 
d="M30 0l161 700h165l-162 -700h-164zM364 776q-33 0 -73 28q-25 17 -38 17t-22 -10.5t-10 -28.5h-91q0 69 30 109t81 40q32 0 75 -29q23 -17 36 -17q26 0 32 42h91q0 -71 -30.5 -111t-80.5 -40z" />
    <glyph glyph-name="itilde" unicode="&#x129;" horiz-adv-x="296" 
d="M168 0h-160l122 524h158zM299 607q-33 0 -73 28q-25 17 -38 17t-22 -10.5t-10 -28.5h-91q0 69 30 109t81 40q31 0 75 -28q23 -17 36 -17q27 0 31 42h92q-1 -72 -31 -112t-80 -40z" />
    <glyph glyph-name="Imacron" unicode="&#x12a;" horiz-adv-x="335" 
d="M30 0l161 700h165l-162 -700h-164zM163 888h298l-25 -112h-299z" />
    <glyph glyph-name="imacron" unicode="&#x12b;" horiz-adv-x="296" 
d="M168 0h-160l122 524h158zM98 719h299l-26 -112h-299z" />
    <glyph glyph-name="Iogonek" unicode="&#x12e;" horiz-adv-x="335" 
d="M49 -45q0 -22 18.5 -33.5t44.5 -11.5l-17 -79q-49 5 -80 32t-31 66q0 48 47 77l160 694h165l-162 -700h-120q-25 -19 -25 -45z" />
    <glyph glyph-name="iogonek" unicode="&#x12f;" horiz-adv-x="296" 
d="M175 724h159l-35 -151h-159zM9 6l120 518h159l-121 -524h-114q-25 -19 -25 -45q0 -22 18.5 -33.5t44.5 -11.5l-17 -79q-49 5 -80 32t-31 66q0 47 46 77z" />
    <glyph glyph-name="Idot" unicode="&#x130;" horiz-adv-x="335" 
d="M30 0l161 700h165l-162 -700h-164zM417 948l-40 -172h-168l40 172h168z" />
    <glyph glyph-name="dotlessi" unicode="&#x131;" horiz-adv-x="296" 
d="M168 0h-160l122 524h158z" />
    <glyph glyph-name="IJ" unicode="&#x132;" horiz-adv-x="878" 
d="M30 0l161 700h165l-162 -700h-164zM914 700l-119 -508q-50 -210 -246 -210q-98 0 -154 50.5t-56 132.5q0 30 7 57l11 44h164l-15 -60q-2 -10 -2 -17q0 -45 54 -45q36 0 54 21t27 62l110 473h165z" />
    <glyph glyph-name="ij" unicode="&#x133;" horiz-adv-x="587" 
d="M140 573l35 151h159l-35 -151h-159zM8 0l121 524h159l-121 -524h-159zM436 573l35 151h159l-35 -151h-159zM426 524h158l-133 -574q-33 -142 -161 -142h-112l31 140h49q34 0 43 39z" />
    <glyph glyph-name="Jcircumflex" unicode="&#x134;" horiz-adv-x="533" 
d="M579 700l-119 -508q-50 -210 -246 -210q-98 0 -154 50.5t-56 132.5q0 30 7 57l11 44h164l-15 -60q-2 -10 -2 -17q0 -45 54 -45q36 0 54 21t27 62l110 473h165zM561 766l-36 70l-69 -70h-145l190 184h80l103 -184h-123z" />
    <glyph glyph-name="jcircumflex" unicode="&#x135;" horiz-adv-x="291" 
d="M283 607l-35 70l-69 -70h-145l190 184h80l103 -184h-124zM288 524l-133 -574q-33 -142 -161 -142h-112l31 140h49q34 0 43 39l125 537h158z" />
    <glyph glyph-name="uni0136" unicode="&#x136;" horiz-adv-x="684" 
d="M790 700l-353 -303l184 -397h-202l-121 279l-53 -46l-55 -233h-165l162 700h165l-55 -237l266 237h227zM351 -67l-23 -98q-17 -71 -56.5 -106t-106.5 -40l-1 55q42 6 64 24.5t30 54.5h-50l26 110h117z" />
    <glyph glyph-name="uni0137" unicode="&#x137;" horiz-adv-x="604" 
d="M669 524l-282 -234l151 -290h-172l-97 192l-70 -59l-30 -133h-159l164 711h158l-83 -367l201 180h219zM311 -67l-23 -98q-17 -71 -56.5 -106t-106.5 -40l-1 55q42 6 64 24.5t30 54.5h-50l26 110h117z" />
    <glyph glyph-name="kgreenlandic" unicode="&#x138;" horiz-adv-x="604" 
d="M669 524l-282 -234l151 -290h-172l-97 192l-70 -59l-30 -133h-159l121 524h158l-40 -180l201 180h219z" />
    <glyph glyph-name="Lacute" unicode="&#x139;" horiz-adv-x="557" 
d="M25 0l162 700h164l-125 -543h302l-36 -157h-467zM496 857l-144 -81h-123l182 174z" />
    <glyph glyph-name="lacute" unicode="&#x13a;" horiz-adv-x="291" 
d="M10 0l166 711h159l-166 -711h-159zM467 857l-144 -81h-123l182 174z" />
    <glyph glyph-name="uni013B" unicode="&#x13b;" horiz-adv-x="557" 
d="M25 0l162 700h164l-125 -543h302l-36 -157h-467zM281 -67l-23 -98q-17 -71 -56.5 -106t-106.5 -40l-1 55q42 6 64 24.5t30 54.5h-50l26 110h117z" />
    <glyph glyph-name="uni013C" unicode="&#x13c;" horiz-adv-x="291" 
d="M10 0l166 711h159l-166 -711h-159zM141 -67l-23 -98q-17 -71 -56.5 -106t-106.5 -40l-1 55q42 6 64 24.5t30 54.5h-50l26 110h117z" />
    <glyph glyph-name="Lcaron" unicode="&#x13d;" horiz-adv-x="570" 
d="M25 0l162 700h164l-125 -543h302l-36 -157h-467zM665 717l-33 -140q-24 -103 -81 -152.5t-152 -56.5l-1 79q60 8 91.5 35t42.5 78h-71l37 157h167z" />
    <glyph glyph-name="lcaron" unicode="&#x13e;" horiz-adv-x="535" 
d="M10 0l166 711h159l-166 -711h-159zM620 717l-33 -140q-24 -103 -81 -152.5t-152 -56.5l-1 79q60 8 91.5 35t42.5 78h-71l37 157h167z" />
    <glyph glyph-name="Ldot" unicode="&#x13f;" horiz-adv-x="557" 
d="M25 0l162 700h164l-125 -543h302l-36 -157h-467zM606 524l-40 -172h-168l40 172h168z" />
    <glyph glyph-name="ldot" unicode="&#x140;" horiz-adv-x="523" 
d="M10 0l166 711h159l-166 -711h-159zM563 524l-40 -172h-168l40 172h168z" />
    <glyph glyph-name="Lslash" unicode="&#x141;" horiz-adv-x="554" 
d="M223 157h302l-36 -157h-467l56 243l-77 -41v58l92 49l91 391h164l-67 -293l111 59v-58l-127 -67z" />
    <glyph glyph-name="lslash" unicode="&#x142;" horiz-adv-x="291" 
d="M335 711l-70 -299l59 27v-63l-75 -34l-80 -342h-159l61 262l-47 -21v62l63 29l89 379h159z" />
    <glyph glyph-name="Nacute" unicode="&#x143;" horiz-adv-x="721" 
d="M746 700l-160 -700h-143l-157 421l-97 -421h-163l160 700h154l150 -407l92 407h164zM658 857l-144 -81h-123l182 174z" />
    <glyph glyph-name="nacute" unicode="&#x144;" horiz-adv-x="601" 
d="M579 391q0 -29 -7 -57l-76 -334h-160l68 290q8 34 8 49q0 53 -62 53q-89 0 -113 -105l-67 -287h-160l122 524h155l-18 -71q21 36 63.5 58t95.5 22q70 0 110.5 -38.5t40.5 -103.5zM586 719l-151 -113h-124l190 207z" />
    <glyph glyph-name="uni0145" unicode="&#x145;" horiz-adv-x="721" 
d="M746 700l-160 -700h-143l-157 421l-97 -421h-163l160 700h154l150 -407l92 407h164zM361 -67l-23 -98q-17 -71 -56.5 -106t-106.5 -40l-1 55q42 6 64 24.5t30 54.5h-50l26 110h117z" />
    <glyph glyph-name="uni0146" unicode="&#x146;" horiz-adv-x="601" 
d="M579 391q0 -29 -7 -57l-76 -334h-160l68 290q8 34 8 49q0 53 -62 53q-89 0 -113 -105l-67 -287h-160l122 524h155l-18 -71q21 36 63.5 58t95.5 22q70 0 110.5 -38.5t40.5 -103.5zM311 -67l-23 -98q-17 -71 -56.5 -106t-106.5 -40l-1 55q42 6 64 24.5t30 54.5h-50l26 110
h117z" />
    <glyph glyph-name="Ncaron" unicode="&#x147;" horiz-adv-x="721" 
d="M746 700l-160 -700h-143l-157 421l-97 -421h-163l160 700h154l150 -407l92 407h164zM444 950l35 -70l69 70h145l-190 -184h-80l-103 184h124z" />
    <glyph glyph-name="ncaron" unicode="&#x148;" horiz-adv-x="601" 
d="M579 391q0 -29 -7 -57l-76 -334h-160l68 290q8 34 8 49q0 53 -62 53q-89 0 -113 -105l-67 -287h-160l122 524h155l-18 -71q21 36 63.5 58t95.5 22q70 0 110.5 -38.5t40.5 -103.5zM388 791l36 -70l69 70h144l-189 -184h-80l-103 184h123z" />
    <glyph glyph-name="napostrophe" unicode="&#x149;" horiz-adv-x="828" 
d="M806 391q0 -29 -7 -57l-76 -334h-160l68 290q8 34 8 49q0 53 -62 53q-89 0 -113 -105l-67 -287h-160l122 524h155l-18 -71q21 36 63.5 58t95.5 22q70 0 110.5 -38.5t40.5 -103.5zM330 717l-33 -140q-24 -103 -81 -152.5t-152 -56.5l-1 79q60 8 91.5 35t42.5 78h-71
l37 157h167z" />
    <glyph glyph-name="Eng" unicode="&#x14a;" horiz-adv-x="721" 
d="M412 -192h-112l31 140h49q35 0 43 39l9 41l-146 393l-97 -421h-163l160 700h154l149 -417l93 417h164l-172 -749q-33 -143 -162 -143z" />
    <glyph glyph-name="eng" unicode="&#x14b;" horiz-adv-x="619" 
d="M572 334l-88 -384q-32 -142 -161 -142h-112l31 140h49q34 0 43 39l70 303q8 34 8 49q0 53 -62 53q-89 0 -113 -105l-67 -287h-160l122 524h155l-18 -71q21 36 63.5 58t95.5 22q70 0 110.5 -38.5t40.5 -103.5q0 -29 -7 -57z" />
    <glyph glyph-name="Omacron" unicode="&#x14c;" horiz-adv-x="762" 
d="M744 386q1 -108 -44.5 -201t-131 -149t-191.5 -54q-141 0 -224.5 91.5t-83.5 239.5q-2 164 103.5 285.5t264.5 118.5q140 0 223.5 -91.5t83.5 -239.5zM580 384q0 85 -38 129t-109 44q-93 0 -146.5 -69.5t-53.5 -172.5q0 -84 39 -128.5t109 -44.5q92 0 145.5 69.5
t53.5 172.5zM348 888h298l-25 -112h-299z" />
    <glyph glyph-name="omacron" unicode="&#x14d;" horiz-adv-x="575" 
d="M553 293q0 -130 -77 -217t-203 -87q-108 0 -172 61.5t-64 178.5q0 130 77.5 217t203.5 87q105 0 169 -61q66 -60 66 -179zM393 287q0 97 -81 97q-54 0 -84.5 -42t-30.5 -107q0 -97 81 -97q54 0 84.5 42t30.5 107zM232 719h299l-26 -112h-299z" />
    <glyph glyph-name="Obreve" unicode="&#x14e;" horiz-adv-x="762" 
d="M744 386q1 -108 -44.5 -201t-131 -149t-191.5 -54q-141 0 -224.5 91.5t-83.5 239.5q-2 164 103.5 285.5t264.5 118.5q140 0 223.5 -91.5t83.5 -239.5zM580 384q0 85 -38 129t-109 44q-93 0 -146.5 -69.5t-53.5 -172.5q0 -84 39 -128.5t109 -44.5q92 0 145.5 69.5
t53.5 172.5zM652 929q0 -63 -43.5 -118t-120.5 -55q-60 0 -90.5 30t-30.5 78q0 41 24 86h83q-10 -26 -10 -45q0 -45 37 -45q26 0 40.5 26.5t14.5 63.5h94q2 -16 2 -21z" />
    <glyph glyph-name="obreve" unicode="&#x14f;" horiz-adv-x="575" 
d="M553 293q0 -130 -77 -217t-203 -87q-108 0 -172 61.5t-64 178.5q0 130 77.5 217t203.5 87q105 0 169 -61q66 -60 66 -179zM393 287q0 97 -81 97q-54 0 -84.5 -42t-30.5 -107q0 -97 81 -97q54 0 84.5 42t30.5 107zM538 780q0 -63 -44 -118t-122 -55q-60 0 -90.5 30
t-30.5 78q0 41 24 86h83q-10 -26 -10 -45q0 -45 37 -45q27 0 42 26.5t15 63.5h94q2 -16 2 -21z" />
    <glyph glyph-name="Ohungarumlaut" unicode="&#x150;" horiz-adv-x="762" 
d="M744 386q1 -108 -44.5 -201t-131 -149t-191.5 -54q-141 0 -224.5 91.5t-83.5 239.5q-2 164 103.5 285.5t264.5 118.5q140 0 223.5 -91.5t83.5 -239.5zM580 384q0 85 -38 129t-109 44q-93 0 -146.5 -69.5t-53.5 -172.5q0 -84 39 -128.5t109 -44.5q92 0 145.5 69.5
t53.5 172.5zM340 776l71 161h116l-92 -161h-95zM499 776l71 161h116l-93 -161h-94z" />
    <glyph glyph-name="ohungarumlaut" unicode="&#x151;" horiz-adv-x="575" 
d="M553 293q0 -130 -77 -217t-203 -87q-108 0 -172 61.5t-64 178.5q0 130 77.5 217t203.5 87q105 0 169 -61q66 -60 66 -179zM393 287q0 97 -81 97q-54 0 -84.5 -42t-30.5 -107q0 -97 81 -97q54 0 84.5 42t30.5 107zM216 607l71 161h116l-92 -161h-95zM375 607l71 161h116
l-93 -161h-94z" />
    <glyph glyph-name="OE" unicode="&#x152;" horiz-adv-x="1056" 
d="M1078 544h-365q22 -50 29 -111h288l-36 -158h-265q-17 -66 -51 -118h329l-37 -157h-490q-54 -17 -109 -17q-136 0 -219.5 92t-83.5 236q-2 105 46.5 199t135.5 151t190 55q55 0 103 -16h573zM377 143q86 0 144 70t58 172q0 81 -37 126t-105 45q-88 0 -146.5 -69.5
t-58.5 -172.5q0 -80 38.5 -125.5t106.5 -45.5z" />
    <glyph glyph-name="oe" unicode="&#x153;" horiz-adv-x="919" 
d="M878 213h-330v-7q0 -36 21.5 -55t58.5 -19q57 0 75 34h159q-30 -87 -94.5 -132t-157.5 -45q-108 0 -159 69q-69 -69 -178 -69q-108 0 -172 61.5t-64 178.5q0 130 77.5 217t203.5 87q118 0 172 -76q70 76 185 76q103 0 159 -56.5t56 -159.5q0 -49 -12 -104zM558 314h179
l1 11q0 65 -73 65q-79 0 -107 -76zM393 287q0 97 -81 97q-54 0 -84.5 -42t-30.5 -107q0 -97 81 -97q54 0 84.5 42t30.5 107z" />
    <glyph glyph-name="Racute" unicode="&#x154;" horiz-adv-x="676" 
d="M525 280l103 -280h-176l-84 242h-122l-57 -242h-164l162 700h311q92 0 145.5 -55t53.5 -134q0 -75 -45 -139q-46 -65 -127 -92zM531 485q0 26 -17.5 42.5t-49.5 16.5h-149l-34 -147h151q43 0 71 26.5t28 61.5zM596 857l-144 -81h-123l182 174z" />
    <glyph glyph-name="racute" unicode="&#x155;" horiz-adv-x="415" 
d="M462 530l-36 -156h-54q-55 0 -93 -28.5t-50 -84.5l-60 -261h-159l121 524h158l-16 -65q15 33 51.5 52t77.5 19h60zM520 719l-151 -113h-124l190 207z" />
    <glyph glyph-name="uni0156" unicode="&#x156;" horiz-adv-x="693" 
d="M525 280l103 -280h-176l-84 242h-122l-57 -242h-164l162 700h311q92 0 145.5 -55t53.5 -134q0 -75 -45 -139q-46 -65 -127 -92zM531 485q0 26 -17.5 42.5t-49.5 16.5h-149l-34 -147h151q43 0 71 26.5t28 61.5zM351 -67l-23 -98q-17 -71 -56.5 -106t-106.5 -40l-1 55
q42 6 64 24.5t30 54.5h-50l26 110h117z" />
    <glyph glyph-name="uni0157" unicode="&#x157;" horiz-adv-x="415" 
d="M462 530l-36 -156h-54q-55 0 -93 -28.5t-50 -84.5l-60 -261h-159l121 524h158l-16 -65q15 33 51.5 52t77.5 19h60zM141 -67l-23 -98q-17 -71 -56.5 -106t-106.5 -40l-1 55q42 6 64 24.5t30 54.5h-50l26 110h117z" />
    <glyph glyph-name="Rcaron" unicode="&#x158;" horiz-adv-x="676" 
d="M525 280l103 -280h-176l-84 242h-122l-57 -242h-164l162 700h311q92 0 145.5 -55t53.5 -134q0 -75 -45 -139q-46 -65 -127 -92zM531 485q0 26 -17.5 42.5t-49.5 16.5h-149l-34 -147h151q43 0 71 26.5t28 61.5zM390 950l35 -70l69 70h145l-190 -184h-80l-103 184h124z" />
    <glyph glyph-name="rcaron" unicode="&#x159;" horiz-adv-x="415" 
d="M462 530l-36 -156h-54q-55 0 -93 -28.5t-50 -84.5l-60 -261h-159l121 524h158l-16 -65q15 33 51.5 52t77.5 19h60zM278 791l36 -70l69 70h144l-189 -184h-80l-103 184h123z" />
    <glyph glyph-name="Sacute" unicode="&#x15a;" horiz-adv-x="616" 
d="M643 483h-164q0 43 -32.5 64.5t-86.5 21.5q-90 0 -90 -63q4 -36 28 -52.5t99 -43.5q65 -25 101 -45q91 -49 91 -157q0 -101 -73 -163.5t-192 -62.5q-123 0 -206 65.5t-83 182.5l1 16h163q0 -56 34.5 -86t92.5 -30q45 0 71.5 17.5t26.5 47.5q0 28 -25 46t-88 42
q-69 27 -105 46q-99 53 -99 165q0 99 71 161t192 62q125 0 197.5 -64.5t75.5 -169.5zM593 857l-144 -81h-123l182 174z" />
    <glyph glyph-name="sacute" unicode="&#x15b;" horiz-adv-x="497" 
d="M250 -11q-100 0 -168.5 49.5t-71.5 137.5h161q4 -25 28 -41t60 -16q28 0 44.5 9t16.5 24q0 17 -17.5 25.5t-63.5 18.5q-50 12 -89 26q-89 35 -89 134q0 84 62 131q61 46 159 46q97 0 162 -47q66 -46 66 -137h-155q0 56 -77 56q-63 0 -63 -36q0 -17 16 -25t68 -20
q55 -14 89 -27q89 -35 89 -126q0 -84 -65.5 -133t-161.5 -49zM515 719l-151 -113h-124l190 207z" />
    <glyph glyph-name="Scircumflex" unicode="&#x15c;" horiz-adv-x="616" 
d="M643 483h-164q0 43 -32.5 64.5t-86.5 21.5q-90 0 -90 -63q4 -36 28 -52.5t99 -43.5q65 -25 101 -45q91 -49 91 -157q0 -101 -73 -163.5t-192 -62.5q-123 0 -206 65.5t-83 182.5l1 16h163q0 -56 34.5 -86t92.5 -30q45 0 71.5 17.5t26.5 47.5q0 28 -25 46t-88 42
q-69 27 -105 46q-99 53 -99 165q0 99 71 161t192 62q125 0 197.5 -64.5t75.5 -169.5zM479 766l-36 70l-69 -70h-145l190 184h80l103 -184h-123z" />
    <glyph glyph-name="scircumflex" unicode="&#x15d;" horiz-adv-x="497" 
d="M250 -11q-100 0 -168.5 49.5t-71.5 137.5h161q4 -25 28 -41t60 -16q28 0 44.5 9t16.5 24q0 17 -17.5 25.5t-63.5 18.5q-50 12 -89 26q-89 35 -89 134q0 84 62 131q61 46 159 46q97 0 162 -47q66 -46 66 -137h-155q0 56 -77 56q-63 0 -63 -36q0 -17 16 -25t68 -20
q55 -14 89 -27q89 -35 89 -126q0 -84 -65.5 -133t-161.5 -49zM394 607l-35 70l-69 -70h-145l190 184h80l103 -184h-124z" />
    <glyph glyph-name="Scedilla" unicode="&#x15e;" horiz-adv-x="616" 
d="M589 208q0 -101 -73 -163.5t-192 -62.5h-6l-6 -28q86 -5 86 -67q0 -40 -33.5 -67.5t-88.5 -27.5q-70 0 -107 37l51 58q23 -27 50 -27q38 0 38 29q0 26 -66 26l20 72q-99 15 -164 77q-63 62 -63 166l1 16h163q0 -56 34.5 -86t92.5 -30q45 0 71.5 17.5t26.5 47.5
q0 28 -25 46t-88 42q-69 27 -105 46q-99 53 -99 165q0 99 71 161t192 62q125 0 197.5 -64.5t75.5 -169.5h-164q0 43 -32.5 64.5t-86.5 21.5q-90 0 -90 -63q4 -36 28 -52.5t99 -43.5q65 -25 101 -45q91 -49 91 -157z" />
    <glyph glyph-name="scedilla" unicode="&#x15f;" horiz-adv-x="497" 
d="M477 171q0 -84 -64.5 -132t-161.5 -50l-7 -35q86 -5 86 -67q0 -40 -33.5 -67.5t-88.5 -27.5q-70 0 -107 37l51 58q23 -27 50 -27q38 0 38 29q0 26 -66 26l22 78q-82 13 -132.5 61t-53.5 122h161q4 -25 28 -41t60 -16q28 0 44.5 9t16.5 24q0 17 -17.5 25.5t-63.5 18.5
q-50 12 -89 26q-89 35 -89 134q0 84 62 131q61 46 159 46q97 0 162 -47q66 -46 66 -137h-155q0 56 -77 56q-63 0 -63 -36q0 -17 16 -25t68 -20q55 -14 89 -27q89 -35 89 -126z" />
    <glyph glyph-name="Scaron" unicode="&#x160;" horiz-adv-x="616" 
d="M643 483h-164q0 43 -32.5 64.5t-86.5 21.5q-90 0 -90 -63q4 -36 28 -52.5t99 -43.5q65 -25 101 -45q91 -49 91 -157q0 -101 -73 -163.5t-192 -62.5q-123 0 -206 65.5t-83 182.5l1 16h163q0 -56 34.5 -86t92.5 -30q45 0 71.5 17.5t26.5 47.5q0 28 -25 46t-88 42
q-69 27 -105 46q-99 53 -99 165q0 99 71 161t192 62q125 0 197.5 -64.5t75.5 -169.5zM389 950l35 -70l69 70h145l-190 -184h-80l-103 184h124z" />
    <glyph glyph-name="scaron" unicode="&#x161;" horiz-adv-x="497" 
d="M250 -11q-100 0 -168.5 49.5t-71.5 137.5h161q4 -25 28 -41t60 -16q28 0 44.5 9t16.5 24q0 17 -17.5 25.5t-63.5 18.5q-50 12 -89 26q-89 35 -89 134q0 84 62 131q61 46 159 46q97 0 162 -47q66 -46 66 -137h-155q0 56 -77 56q-63 0 -63 -36q0 -17 16 -25t68 -20
q55 -14 89 -27q89 -35 89 -126q0 -84 -65.5 -133t-161.5 -49zM300 791l36 -70l69 70h144l-189 -184h-80l-103 184h123z" />
    <glyph glyph-name="uni0162" unicode="&#x162;" horiz-adv-x="608" 
d="M121 700h572l-35 -156h-204l-126 -544h-109l-10 -46q86 -5 86 -67q0 -40 -33.5 -67.5t-88.5 -27.5q-70 0 -107 37l51 58q23 -27 50 -27q38 0 38 29q0 26 -66 26l24 86l125 543h-203z" />
    <glyph glyph-name="uni0163" unicode="&#x163;" horiz-adv-x="378" 
d="M281 384l-42 -182q-3 -12 -3 -22q0 -34 39 -34h66l-33 -146h-103l-8 -36q86 -5 86 -67q0 -40 -33.5 -67.5t-88.5 -27.5q-70 0 -107 37l51 58q23 -27 50 -27q38 0 38 29q0 26 -66 26l23 82q-40 12 -62 42.5t-22 73.5q0 18 5 43l51 218h-89l33 140h89l24 105l169 46
l-35 -151h106l-33 -140h-105z" />
    <glyph glyph-name="Tcaron" unicode="&#x164;" horiz-adv-x="608" 
d="M454 544l-126 -544h-165l125 544h-203l36 156h572l-35 -156h-204zM397 950l35 -70l69 70h145l-190 -184h-80l-103 184h124z" />
    <glyph glyph-name="tcaron" unicode="&#x165;" horiz-adv-x="635" 
d="M236 180q0 -34 39 -34h66l-33 -146h-108q-63 0 -98.5 33t-35.5 90q0 18 5 43l51 218h-89l33 140h89l24 105l169 46l-35 -151h106l-33 -140h-105l-42 -182q-3 -12 -3 -22zM720 717l-33 -140q-24 -103 -81 -152.5t-152 -56.5l-1 79q60 8 91.5 35t42.5 78h-71l37 157h167z
" />
    <glyph glyph-name="Tbar" unicode="&#x166;" horiz-adv-x="608" 
d="M658 544h-204l-22 -95h143l-12 -50h-143l-92 -399h-165l92 399h-125l12 50h124l22 95h-203l36 156h572z" />
    <glyph glyph-name="tbar" unicode="&#x167;" horiz-adv-x="388" 
d="M386 384h-105l-11 -46h110l-32 -140h-110q-2 -16 -2 -18q0 -34 39 -34h66l-33 -146h-108q-63 0 -98.5 33t-35.5 90q0 18 5 43l7 32h-83l32 140h84l11 46h-89l33 140h89l24 105l169 46l-35 -151h106z" />
    <glyph glyph-name="Utilde" unicode="&#x168;" horiz-adv-x="700" 
d="M734 700l-102 -452q-29 -130 -111.5 -198t-197.5 -68q-110 0 -180.5 61.5t-70.5 166.5q0 41 10 82l94 408h166l-100 -438q-4 -15 -4 -34q0 -41 25.5 -63.5t72.5 -22.5q108 0 137 123l97 435h164zM538 776q-33 0 -73 28q-25 17 -38 17t-22 -10.5t-10 -28.5h-91
q0 69 30 109t81 40q32 0 75 -29q23 -17 36 -17q26 0 32 42h91q0 -71 -30.5 -111t-80.5 -40z" />
    <glyph glyph-name="utilde" unicode="&#x169;" horiz-adv-x="581" 
d="M592 524l-120 -524h-154l13 62q-43 -69 -137 -69q-70 0 -110.5 41t-40.5 108q0 25 11 74l72 308h160l-75 -322q-3 -12 -3 -22q0 -22 14 -34t39 -12q52 0 76 40q23 39 37 95l60 255h158zM443 607q-33 0 -73 28q-25 17 -38 17t-22 -10.5t-10 -28.5h-91q0 69 30 109t81 40
q31 0 75 -28q23 -17 36 -17q26 0 31 42h92q-1 -72 -31 -112t-80 -40z" />
    <glyph glyph-name="Umacron" unicode="&#x16a;" horiz-adv-x="700" 
d="M734 700l-102 -452q-29 -130 -111.5 -198t-197.5 -68q-110 0 -180.5 61.5t-70.5 166.5q0 41 10 82l94 408h166l-100 -438q-4 -15 -4 -34q0 -41 25.5 -63.5t72.5 -22.5q108 0 137 123l97 435h164zM345 888h298l-25 -112h-299z" />
    <glyph glyph-name="umacron" unicode="&#x16b;" horiz-adv-x="581" 
d="M592 524l-120 -524h-154l13 62q-43 -69 -137 -69q-70 0 -110.5 41t-40.5 108q0 25 11 74l72 308h160l-75 -322q-3 -12 -3 -22q0 -22 14 -34t39 -12q52 0 76 40q23 39 37 95l60 255h158zM250 719h299l-26 -112h-299z" />
    <glyph glyph-name="Ubreve" unicode="&#x16c;" horiz-adv-x="700" 
d="M734 700l-102 -452q-29 -130 -111.5 -198t-197.5 -68q-110 0 -180.5 61.5t-70.5 166.5q0 41 10 82l94 408h166l-100 -438q-4 -15 -4 -34q0 -41 25.5 -63.5t72.5 -22.5q108 0 137 123l97 435h164zM621 929q0 -63 -43.5 -118t-120.5 -55q-60 0 -90.5 30t-30.5 78
q0 41 24 86h83q-10 -26 -10 -45q0 -45 37 -45q26 0 40.5 26.5t14.5 63.5h94q2 -16 2 -21z" />
    <glyph glyph-name="ubreve" unicode="&#x16d;" horiz-adv-x="581" 
d="M592 524l-120 -524h-154l13 62q-43 -69 -137 -69q-70 0 -110.5 41t-40.5 108q0 25 11 74l72 308h160l-75 -322q-3 -12 -3 -22q0 -22 14 -34t39 -12q52 0 76 40q23 39 37 95l60 255h158zM542 780q0 -63 -44 -118t-122 -55q-60 0 -90.5 30t-30.5 78q0 41 24 86h83
q-10 -26 -10 -45q0 -45 37 -45q27 0 42 26.5t15 63.5h94q2 -16 2 -21z" />
    <glyph glyph-name="Uring" unicode="&#x16e;" horiz-adv-x="700" 
d="M734 700l-102 -452q-29 -130 -111.5 -198t-197.5 -68q-110 0 -180.5 61.5t-70.5 166.5q0 41 10 82l94 408h166l-100 -438q-4 -15 -4 -34q0 -41 25.5 -63.5t72.5 -22.5q108 0 137 123l97 435h164zM458 950q45 0 74.5 -29t29.5 -74q0 -46 -29.5 -75t-74.5 -29
q-44 0 -73 29.5t-29 74.5t29 74t73 29zM459 900q-23 0 -37 -15t-14 -38q0 -24 13.5 -39t37.5 -15q23 0 37 15t14 39q0 23 -14 38t-37 15z" />
    <glyph glyph-name="uring" unicode="&#x16f;" horiz-adv-x="581" 
d="M592 524l-120 -524h-154l13 62q-43 -69 -137 -69q-70 0 -110.5 41t-40.5 108q0 25 11 74l72 308h160l-75 -322q-3 -12 -3 -22q0 -22 14 -34t39 -12q52 0 76 40q23 39 37 95l60 255h158zM379 871q59 0 96 -36.5t37 -95.5q0 -58 -37.5 -95t-95.5 -37q-56 0 -92.5 37
t-36.5 95q0 59 36 95.5t93 36.5zM380 789q-23 0 -36.5 -13.5t-13.5 -36.5q0 -22 13.5 -37.5t36.5 -15.5t37.5 15.5t14.5 37.5q0 23 -14 36.5t-38 13.5z" />
    <glyph glyph-name="Uhungarumlaut" unicode="&#x170;" horiz-adv-x="700" 
d="M734 700l-102 -452q-29 -130 -111.5 -198t-197.5 -68q-110 0 -180.5 61.5t-70.5 166.5q0 41 10 82l94 408h166l-100 -438q-4 -15 -4 -34q0 -41 25.5 -63.5t72.5 -22.5q108 0 137 123l97 435h164zM310 776l71 161h116l-92 -161h-95zM469 776l71 161h116l-93 -161h-94z" />
    <glyph glyph-name="uhungarumlaut" unicode="&#x171;" horiz-adv-x="581" 
d="M592 524l-120 -524h-154l13 62q-43 -69 -137 -69q-70 0 -110.5 41t-40.5 108q0 25 11 74l72 308h160l-75 -322q-3 -12 -3 -22q0 -22 14 -34t39 -12q52 0 76 40q23 39 37 95l60 255h158zM243 607l71 161h116l-92 -161h-95zM402 607l71 161h116l-93 -161h-94z" />
    <glyph glyph-name="Uogonek" unicode="&#x172;" horiz-adv-x="700" 
d="M570 700h164l-102 -452q-29 -130 -111.5 -198t-197.5 -68q-22 0 -28 1q-9 -12 -9 -28q0 -22 18.5 -33.5t44.5 -11.5l-17 -79q-49 5 -80 32t-31 66q0 34 27 61q-82 19 -129 76.5t-47 143.5q0 41 10 82l94 408h166l-100 -438q-4 -15 -4 -34q0 -41 25.5 -63.5t72.5 -22.5
q108 0 137 123z" />
    <glyph glyph-name="uogonek" unicode="&#x173;" horiz-adv-x="591" 
d="M339 -45q0 -22 18.5 -33.5t44.5 -11.5l-17 -79q-49 5 -80 32t-31 66q0 49 45 76l12 57q-43 -69 -137 -69q-70 0 -110.5 41t-40.5 108q0 25 11 74l72 308h160l-75 -322q-3 -12 -3 -22q0 -22 14 -34t39 -12q52 0 76 40q23 39 37 95l60 255h158l-120 -524h-108
q-25 -19 -25 -45z" />
    <glyph glyph-name="Wcircumflex" unicode="&#x174;" horiz-adv-x="957" 
d="M1033 700l-315 -700h-146l-56 398l-189 -398h-147l-69 700h162l39 -417l185 417h138l53 -407l170 407h175zM621 766l-36 70l-69 -70h-145l190 184h80l103 -184h-123z" />
    <glyph glyph-name="wcircumflex" unicode="&#x175;" horiz-adv-x="839" 
d="M720 524h169l-291 -524h-131l-38 269l-145 -269h-132l-72 524h156l36 -288l141 288h132l36 -281zM540 607l-35 70l-69 -70h-145l190 184h80l103 -184h-124z" />
    <glyph glyph-name="Ycircumflex" unicode="&#x176;" horiz-adv-x="655" 
d="M751 700l-339 -436l-60 -264h-164l63 280l-145 420h177l87 -274l188 274h193zM495 766l-36 70l-69 -70h-145l190 184h80l103 -184h-123z" />
    <glyph glyph-name="ycircumflex" unicode="&#x177;" horiz-adv-x="565" 
d="M451 524h174l-316 -541q-48 -84 -110 -116t-162 -32h-43l31 140h29q89 0 116 55l3 6l-103 488h160l55 -305zM409 607l-35 70l-69 -70h-145l190 184h80l103 -184h-124z" />
    <glyph glyph-name="Ydieresis" unicode="&#x178;" horiz-adv-x="655" 
d="M751 700l-339 -436l-60 -264h-164l63 280l-145 420h177l87 -274l188 274h193zM414 907l-31 -131h-126l30 131h127zM618 907l-29 -131h-127l31 131h125z" />
    <glyph glyph-name="Zacute" unicode="&#x179;" horiz-adv-x="636" 
d="M674 700l-33 -142l-382 -401h328l-37 -157h-548l32 145l379 399h-302l35 156h528zM608 857l-144 -81h-123l182 174z" />
    <glyph glyph-name="zacute" unicode="&#x17a;" horiz-adv-x="513" 
d="M228 135h246l-32 -135h-451l28 129l288 260h-233l31 135h439l-29 -127zM546 719l-151 -113h-124l190 207z" />
    <glyph glyph-name="Zdotaccent" unicode="&#x17b;" horiz-adv-x="636" 
d="M674 700l-33 -142l-382 -401h328l-37 -157h-548l32 145l379 399h-302l35 156h528zM566 948l-40 -172h-168l40 172h168z" />
    <glyph glyph-name="zdotaccent" unicode="&#x17c;" horiz-adv-x="513" 
d="M228 135h246l-32 -135h-451l28 129l288 260h-233l31 135h439l-29 -127zM452 778l-40 -172h-168l40 172h168z" />
    <glyph glyph-name="Zcaron" unicode="&#x17d;" horiz-adv-x="636" 
d="M674 700l-33 -142l-382 -401h328l-37 -157h-548l32 145l379 399h-302l35 156h528zM397 950l35 -70l69 70h145l-190 -184h-80l-103 184h124z" />
    <glyph glyph-name="zcaron" unicode="&#x17e;" horiz-adv-x="513" 
d="M228 135h246l-32 -135h-451l28 129l288 260h-233l31 135h439l-29 -127zM315 791l36 -70l69 70h144l-189 -184h-80l-103 184h123z" />
    <glyph glyph-name="longs" unicode="&#x17f;" horiz-adv-x="368" 
d="M338 711h129l-34 -140h-70q-36 0 -47 -44l-122 -527h-158l88 384h-76l33 140h75l12 54q30 133 170 133z" />
    <glyph glyph-name="florin" unicode="&#x192;" horiz-adv-x="370" 
d="M323 529l-1 -5h93l-33 -140h-91l-57 -242q-33 -142 -161 -142h-112l31 140h49q34 0 43 39l46 205h-70l33 140h70l12 54q30 133 170 133h124l-34 -140h-65q-39 0 -47 -42z" />
    <glyph glyph-name="Aringacute" unicode="&#x1fa;" horiz-adv-x="734" 
d="M660 1026l-115 -65h-99l146 139zM482 931q43 0 71 -27.5t28 -70.5t-28 -71t-71 -28q-42 0 -69.5 28t-27.5 71t27.5 70.5t69.5 27.5zM483 883q-22 0 -35 -14t-13 -36q0 -23 13 -37.5t35 -14.5t35 14.5t13 37.5q0 21 -13.5 35.5t-34.5 14.5zM513 0l-22 146h-262l-80 -146
h-189l422 700h161l136 -700h-166zM314 302h153l-34 218z" />
    <glyph glyph-name="aringacute" unicode="&#x1fb;" horiz-adv-x="542" 
d="M566 859l-129 -73h-111l164 157zM366 753q41 0 67.5 -26t26.5 -67t-26.5 -67t-67.5 -26q-39 0 -65.5 26t-26.5 67t26.5 67t65.5 26zM367 708q-21 0 -33.5 -13.5t-12.5 -34.5t12.5 -34.5t33.5 -13.5t33.5 13.5t12.5 34.5t-12.5 34.5t-33.5 13.5zM529 382q0 -28 -7 -56
l-73 -326h-146l14 62q-52 -73 -156 -73q-73 0 -112.5 38t-39.5 102q0 66 43.5 112t126.5 58l114 16q40 6 59.5 16.5t19.5 33.5q0 37 -60 37q-75 0 -102 -54h-152q27 89 98 137t176 48q95 0 146 -39t51 -112zM336 208l6 26q-22 -7 -71 -15l-28 -4q-47 -7 -66 -18t-19 -38
q0 -41 55 -41q46 0 80 23.5t43 66.5z" />
    <glyph glyph-name="AEacute" unicode="&#x1fc;" horiz-adv-x="984" 
d="M1007 544h-309l-25 -111h286l-36 -158h-287l-27 -118h326l-36 -157h-491l34 146h-206l-93 -146h-183l467 700h618zM336 302h141l64 276h-28zM856 857l-144 -81h-123l182 174z" />
    <glyph glyph-name="aeacute" unicode="&#x1fd;" horiz-adv-x="837" 
d="M834 213h-330v-7q0 -36 21.5 -55t58.5 -19q57 0 75 34h159q-30 -87 -94.5 -132t-157.5 -45q-141 0 -189 111q-65 -111 -216 -111q-73 0 -112.5 38t-39.5 102q0 66 43.5 112t126.5 58l114 16q40 6 59.5 16.5t19.5 33.5q0 37 -60 37q-75 0 -102 -54h-152q27 89 98 137
t176 48q100 0 147 -65q63 65 152 65q103 0 159 -56.5t56 -159.5q0 -49 -12 -104zM514 314h179q1 4 1 14q0 62 -73 62q-79 0 -107 -76zM336 208l6 26q-22 -7 -71 -15l-28 -4q-47 -7 -66 -18t-19 -38q0 -41 55 -41q46 0 80 23.5t43 66.5zM694 719l-151 -113h-124l190 207z" />
    <glyph glyph-name="Oslashacute" unicode="&#x1fe;" horiz-adv-x="762" 
d="M744 386q1 -108 -44.5 -201t-131 -149t-191.5 -54q-85 0 -153 36l-57 -78l-65 48l57 78q-90 90 -90 247q-2 164 103.5 285.5t264.5 118.5q93 0 163 -42l62 86l65 -48l-65 -89q82 -93 82 -238zM259 204l245 338q-32 15 -71 15q-93 0 -146.5 -69.5t-53.5 -172.5
q0 -67 26 -111zM580 384q0 61 -19 100l-240 -332q23 -10 60 -10q92 0 145.5 69.5t53.5 172.5zM636 857l-144 -81h-123l182 174z" />
    <glyph glyph-name="oslashacute" unicode="&#x1ff;" horiz-adv-x="575" 
d="M553 293q0 -130 -77 -217t-203 -87q-56 0 -104 18l-51 -71l-65 48l48 66q-64 64 -64 179q0 130 77.5 217t203.5 87q65 0 116 -24l48 66l65 -47l-48 -67q54 -61 54 -168zM203 190l138 190q-11 4 -29 4q-54 0 -84.5 -42t-30.5 -107q0 -25 6 -45zM393 287q0 4 -2 26
l-126 -174q3 -1 13 -1q54 0 84.5 42t30.5 107zM543 719l-151 -113h-124l190 207z" />
    <glyph glyph-name="uni0218" unicode="&#x218;" horiz-adv-x="633" 
d="M643 483h-164q0 43 -32.5 64.5t-86.5 21.5q-90 0 -90 -63q4 -36 28 -52.5t99 -43.5q65 -25 101 -45q91 -49 91 -157q0 -101 -73 -163.5t-192 -62.5q-123 0 -206 65.5t-83 182.5l1 16h163q0 -56 34.5 -86t92.5 -30q45 0 71.5 17.5t26.5 47.5q0 28 -25 46t-88 42
q-69 27 -105 46q-99 53 -99 165q0 99 71 161t192 62q125 0 197.5 -64.5t75.5 -169.5zM351 -67l-23 -98q-17 -71 -56.5 -106t-106.5 -40l-1 55q42 6 64 24.5t30 54.5h-50l26 110h117z" />
    <glyph glyph-name="uni0219" unicode="&#x219;" horiz-adv-x="523" 
d="M250 -11q-100 0 -168.5 49.5t-71.5 137.5h161q4 -25 28 -41t60 -16q28 0 44.5 9t16.5 24q0 17 -17.5 25.5t-63.5 18.5q-50 12 -89 26q-89 35 -89 134q0 84 62 131q61 46 159 46q97 0 162 -47q66 -46 66 -137h-155q0 56 -77 56q-63 0 -63 -36q0 -17 16 -25t68 -20
q55 -14 89 -27q89 -35 89 -126q0 -84 -65.5 -133t-161.5 -49zM281 -67l-23 -98q-17 -71 -56.5 -106t-106.5 -40l-1 55q42 6 64 24.5t30 54.5h-50l26 110h117z" />
    <glyph glyph-name="uni021A" unicode="&#x21a;" horiz-adv-x="608" 
d="M454 544l-126 -544h-165l125 544h-203l36 156h572l-35 -156h-204zM291 -67l-23 -98q-17 -71 -56.5 -106t-106.5 -40l-1 55q42 6 64 24.5t30 54.5h-50l26 110h117z" />
    <glyph glyph-name="uni021B" unicode="&#x21b;" horiz-adv-x="388" 
d="M236 180q0 -34 39 -34h66l-33 -146h-108q-63 0 -98.5 33t-35.5 90q0 18 5 43l51 218h-89l33 140h89l24 105l169 46l-35 -151h106l-33 -140h-105l-42 -182q-3 -12 -3 -22zM241 -67l-23 -98q-17 -71 -56.5 -106t-106.5 -40l-1 55q42 6 64 24.5t30 54.5h-50l26 110h117z" />
    <glyph glyph-name="circumflex" unicode="&#x2c6;" horiz-adv-x="373" 
d="M329 607l-35 70l-69 -70h-145l190 184h80l103 -184h-124z" />
    <glyph glyph-name="caron" unicode="&#x2c7;" horiz-adv-x="372" 
d="M245 791l36 -70l69 70h144l-189 -184h-80l-103 184h123z" />
    <glyph glyph-name="uni02C9" unicode="&#x2c9;" horiz-adv-x="299" 
d="M144 887h299l-26 -112h-299z" />
    <glyph glyph-name="breve" unicode="&#x2d8;" horiz-adv-x="280" 
d="M395 780q0 -63 -44 -118t-122 -55q-60 0 -90.5 30t-30.5 78q0 41 24 86h83q-10 -26 -10 -45q0 -45 37 -45q27 0 42 26.5t15 63.5h94q2 -16 2 -21z" />
    <glyph glyph-name="dotaccent" unicode="&#x2d9;" horiz-adv-x="168" 
d="M282 778l-40 -172h-168l40 172h168z" />
    <glyph glyph-name="ring" unicode="&#x2da;" horiz-adv-x="270" 
d="M243 871q59 0 96 -36.5t37 -95.5q0 -58 -37.5 -95t-95.5 -37q-56 0 -92.5 37t-36.5 95q0 59 36 95.5t93 36.5zM244 789q-23 0 -36.5 -13.5t-13.5 -36.5q0 -22 13.5 -37.5t36.5 -15.5t37.5 15.5t14.5 37.5q0 23 -14 36.5t-38 13.5z" />
    <glyph glyph-name="ogonek" unicode="&#x2db;" horiz-adv-x="136" 
d="M53 -90l-17 -79q-49 5 -80 32t-31 66q0 52 54 81h50q-39 -26 -39 -55q0 -22 18.5 -33.5t44.5 -11.5z" />
    <glyph glyph-name="tilde" unicode="&#x2dc;" horiz-adv-x="325" 
d="M322 607q-33 0 -73 28q-25 17 -38 17t-22 -10.5t-10 -28.5h-91q0 69 30 109t81 40q31 0 75 -28q23 -17 36 -17q26 0 31 42h92q-1 -72 -31 -112t-80 -40z" />
    <glyph glyph-name="hungarumlaut" unicode="&#x2dd;" horiz-adv-x="309" 
d="M80 607l71 161h116l-92 -161h-95zM239 607l71 161h116l-93 -161h-94z" />
    <glyph glyph-name="uni0394" unicode="&#x394;" horiz-adv-x="676" 
d="M651 132l-31 -132h-660l33 141l392 559h119zM480 157l-74 321l-222 -321h296z" />
    <glyph glyph-name="uni0394" unicode="&#x3b4;" horiz-adv-x="676" 
d="M651 132l-31 -132h-660l33 141l392 559h119zM480 157l-74 321l-222 -321h296z" />
    <glyph glyph-name="uni03A9" unicode="&#x3a9;" horiz-adv-x="802" 
d="M522 155l-5 -24h143l-30 -131h-262l55 234q93 7 153 61q58 54 58 134q0 71 -46 108t-126 37q-91 0 -151 -48.5t-60 -133.5q0 -123 128 -152l-57 -240h-260l30 131h143l7 32q-72 22 -115.5 80t-43.5 147q-2 96 55 173t147.5 116.5t191.5 37.5q138 0 232 -70.5t94 -195.5
q2 -80 -40.5 -148.5t-107 -106t-133.5 -41.5z" />
    <glyph glyph-name="uni03A9" unicode="&#x3c9;" horiz-adv-x="802" 
d="M522 155l-5 -24h143l-30 -131h-262l55 234q93 7 153 61q58 54 58 134q0 71 -46 108t-126 37q-91 0 -151 -48.5t-60 -133.5q0 -123 128 -152l-57 -240h-260l30 131h143l7 32q-72 22 -115.5 80t-43.5 147q-2 96 55 173t147.5 116.5t191.5 37.5q138 0 232 -70.5t94 -195.5
q2 -80 -40.5 -148.5t-107 -106t-133.5 -41.5z" />
    <glyph glyph-name="uni03BC" unicode="&#x3bc;" horiz-adv-x="657" 
d="M569 140l-33 -140h-41q-108 0 -130 67q-52 -78 -137 -78q-36 0 -58 16l-46 -197h-159l167 716h158l-73 -313q-3 -13 -3 -25q0 -52 56 -52q37 0 67.5 25.5t41.5 70.5l68 294h159l-80 -342q-2 -10 -2 -16q0 -26 31 -26h14z" />
    <glyph glyph-name="pi" unicode="&#x3c0;" horiz-adv-x="688" 
d="M552 397l-46 -197q-4 -17 -4 -28q0 -21 13 -29t43 -8h51l-31 -135h-91q-148 0 -148 126q0 30 9 69l46 202h-67l-92 -397h-164l92 397h-92l32 135h450q115 0 168 45l-33 -142q-42 -36 -136 -38z" />
    <glyph glyph-name="uni1E02" unicode="&#x1e02;" horiz-adv-x="682" 
d="M629 227q2 -88 -75 -158.5t-194 -68.5h-335l162 700h292q87 0 135.5 -46t48.5 -111q0 -57 -35 -107q-34 -49 -98 -66q99 -41 99 -143zM502 495q0 20 -16 34.5t-43 14.5h-128l-26 -115h132q38 0 59.5 19.5t21.5 46.5zM465 235q0 28 -17 45t-47 17h-144l-32 -140h145
q46 0 70.5 22.5t24.5 55.5zM540 948l-40 -172h-168l40 172h168z" />
    <glyph glyph-name="uni1E03" unicode="&#x1e03;" horiz-adv-x="628" 
d="M612 318q1 -80 -32.5 -155.5t-99.5 -125.5t-148 -48q-116 0 -154 100l-23 -89h-145l165 711h158l-56 -251q51 73 146 73q96 0 142 -61q47 -62 47 -154zM452 293q0 89 -85 89q-64 0 -103.5 -47t-39.5 -111q0 -89 85 -89q64 0 103.5 47t39.5 111zM606 779l-40 -172h-168
l40 172h168z" />
    <glyph glyph-name="uni1E0A" unicode="&#x1e0a;" horiz-adv-x="712" 
d="M700 404q1 -74 -27 -146t-78.5 -130.5t-130.5 -94t-174 -33.5h-265l162 700h223q142 0 216 -83.5t74 -212.5zM536 398q0 68 -33.5 107t-100.5 39h-87l-87 -387h70q107 -2 173.5 73.5t64.5 167.5zM520 948l-40 -172h-168l40 172h168z" />
    <glyph glyph-name="uni1E0B" unicode="&#x1e0b;" horiz-adv-x="620" 
d="M669 711l-165 -711h-145l14 70q-18 -37 -57.5 -59t-92.5 -22q-91 0 -141 62q-49 62 -49 159q-1 79 31.5 153t98.5 123t149 47q112 0 141 -76l57 254h159zM409 295q0 42 -21 67t-64 25q-56 0 -95.5 -42.5t-39.5 -109.5q0 -96 84 -96q61 0 98.5 48t37.5 108zM372 778
l-40 -172h-168l40 172h168z" />
    <glyph glyph-name="uni1E1E" unicode="&#x1e1e;" horiz-adv-x="586" 
d="M290 433h286l-36 -158h-287l-63 -275h-165l161 700h476l-38 -156h-309zM546 948l-40 -172h-168l40 172h168z" />
    <glyph glyph-name="uni1E1F" unicode="&#x1e1f;" horiz-adv-x="348" 
d="M318 533l-2 -9h98l-33 -140h-97l-90 -384h-158l87 384h-75l33 140h75l12 54q29 133 170 133h130l-34 -140h-67q-23 0 -34 -9t-15 -29zM488 948l-40 -172h-168l40 172h168z" />
    <glyph glyph-name="uni1E40" unicode="&#x1e40;" horiz-adv-x="875" 
d="M724 700h195l-159 -700h-159l96 419l-244 -419h-120l-54 427l-97 -427h-155l159 700h179l83 -477zM670 948l-40 -172h-168l40 172h168z" />
    <glyph glyph-name="uni1E41" unicode="&#x1e41;" horiz-adv-x="840" 
d="M810 339l-77 -339h-159l73 316q5 22 5 32q0 44 -46 44q-39 0 -58 -25.5t-30 -73.5l-68 -293h-158l73 320q3 13 3 26q0 46 -47 46q-36 0 -55 -26t-30 -71l-67 -295h-159l121 524h155l-15 -62q51 71 130 71q47 0 77.5 -22t37.5 -65q54 87 150 87q69 0 109.5 -39t40.5 -105
q0 -25 -6 -50zM652 778l-40 -172h-168l40 172h168z" />
    <glyph glyph-name="uni1E56" unicode="&#x1e56;" horiz-adv-x="623" 
d="M663 487q0 -103 -76 -179t-204 -76h-140l-54 -232h-164l162 700h264q98 0 155 -62t57 -151zM497 476q0 30 -18.5 50t-48.5 20h-116l-35 -160h117q45 0 73 26t28 64zM520 948l-40 -172h-168l40 172h168z" />
    <glyph glyph-name="uni1E57" unicode="&#x1e57;" horiz-adv-x="622" 
d="M605 315q1 -76 -32 -149.5t-98.5 -122.5t-146.5 -47q-102 0 -145 72l-59 -260h-159l165 716h156l-17 -79q45 88 152 88q86 0 135 -62t49 -156zM444 288q0 43 -24 69t-66 26q-56 0 -91.5 -44t-35.5 -101q0 -43 24 -69t66 -26q56 0 91.5 44t35.5 101zM546 778l-40 -172
h-168l40 172h168z" />
    <glyph glyph-name="uni1E60" unicode="&#x1e60;" horiz-adv-x="616" 
d="M643 483h-164q0 43 -32.5 64.5t-86.5 21.5q-90 0 -90 -63q4 -36 28 -52.5t99 -43.5q65 -25 101 -45q91 -49 91 -157q0 -101 -73 -163.5t-192 -62.5q-123 0 -206 65.5t-83 182.5l1 16h163q0 -56 34.5 -86t92.5 -30q45 0 71.5 17.5t26.5 47.5q0 28 -25 46t-88 42
q-69 27 -105 46q-99 53 -99 165q0 99 71 161t192 62q125 0 197.5 -64.5t75.5 -169.5zM522 948l-40 -172h-168l40 172h168z" />
    <glyph glyph-name="uni1E61" unicode="&#x1e61;" horiz-adv-x="497" 
d="M250 -11q-100 0 -168.5 49.5t-71.5 137.5h161q4 -25 28 -41t60 -16q28 0 44.5 9t16.5 24q0 17 -17.5 25.5t-63.5 18.5q-50 12 -89 26q-89 35 -89 134q0 84 62 131q61 46 159 46q97 0 162 -47q66 -46 66 -137h-155q0 56 -77 56q-63 0 -63 -36q0 -17 16 -25t68 -20
q55 -14 89 -27q89 -35 89 -126q0 -84 -65.5 -133t-161.5 -49zM439 778l-40 -172h-168l40 172h168z" />
    <glyph glyph-name="uni1E6A" unicode="&#x1e6a;" horiz-adv-x="608" 
d="M454 544l-126 -544h-165l125 544h-203l36 156h572l-35 -156h-204zM536 948l-40 -172h-168l40 172h168z" />
    <glyph glyph-name="uni1E6B" unicode="&#x1e6b;" horiz-adv-x="388" 
d="M236 180q0 -34 39 -34h66l-33 -146h-108q-63 0 -98.5 33t-35.5 90q0 18 5 43l51 218h-89l33 140h89l24 105l169 46l-35 -151h106l-33 -140h-105l-42 -182q-3 -12 -3 -22zM401 872l-40 -172h-168l40 172h168z" />
    <glyph glyph-name="Wgrave" unicode="&#x1e80;" horiz-adv-x="957" 
d="M1033 700l-315 -700h-146l-56 398l-189 -398h-147l-69 700h162l39 -417l185 417h138l53 -407l170 407h175zM614 776h-89l-80 141l126 33z" />
    <glyph glyph-name="wgrave" unicode="&#x1e81;" horiz-adv-x="839" 
d="M720 524h169l-291 -524h-131l-38 269l-145 -269h-132l-72 524h156l36 -288l141 288h132l36 -281zM532 607h-105l-75 162l126 38z" />
    <glyph glyph-name="Wacute" unicode="&#x1e82;" horiz-adv-x="957" 
d="M1033 700l-315 -700h-146l-56 398l-189 -398h-147l-69 700h162l39 -417l185 417h138l53 -407l170 407h175zM789 857l-144 -81h-123l182 174z" />
    <glyph glyph-name="wacute" unicode="&#x1e83;" horiz-adv-x="839" 
d="M720 524h169l-291 -524h-131l-38 269l-145 -269h-132l-72 524h156l36 -288l141 288h132l36 -281zM710 719l-151 -113h-124l190 207z" />
    <glyph glyph-name="Wdieresis" unicode="&#x1e84;" horiz-adv-x="957" 
d="M1033 700l-315 -700h-146l-56 398l-189 -398h-147l-69 700h162l39 -417l185 417h138l53 -407l170 407h175zM567 907l-31 -131h-126l30 131h127zM771 907l-29 -131h-127l31 131h125z" />
    <glyph glyph-name="wdieresis" unicode="&#x1e85;" horiz-adv-x="839" 
d="M720 524h169l-291 -524h-131l-38 269l-145 -269h-132l-72 524h156l36 -288l141 288h132l36 -281zM483 738l-31 -131h-126l30 131h127zM687 738l-29 -131h-126l30 131h125z" />
    <glyph glyph-name="Ygrave" unicode="&#x1ef2;" horiz-adv-x="655" 
d="M751 700l-339 -436l-60 -264h-164l63 280l-145 420h177l87 -274l188 274h193zM448 776h-89l-80 141l126 33z" />
    <glyph glyph-name="ygrave" unicode="&#x1ef3;" horiz-adv-x="565" 
d="M451 524h174l-316 -541q-48 -84 -110 -116t-162 -32h-43l31 140h29q89 0 116 55l3 6l-103 488h160l55 -305zM385 607h-105l-75 162l126 38z" />
    <glyph glyph-name="endash" unicode="&#x2013;" horiz-adv-x="529" 
d="M513 323l-32 -129h-466l32 129h466z" />
    <glyph glyph-name="emdash" unicode="&#x2014;" horiz-adv-x="994" 
d="M978 323l-30 -129h-933l30 129h933z" />
    <glyph glyph-name="quoteleft" unicode="&#x2018;" horiz-adv-x="245" 
d="M55 412l33 140q24 103 81 152.5t152 56.5l1 -79q-60 -8 -91.5 -35t-42.5 -78h71l-37 -157h-167z" />
    <glyph glyph-name="quoteright" unicode="&#x2019;" horiz-adv-x="245" 
d="M341 766l-33 -140q-24 -103 -81 -152.5t-152 -56.5l-1 79q60 8 91.5 35t42.5 78h-71l37 157h167z" />
    <glyph glyph-name="quotesinglbase" unicode="&#x201a;" horiz-adv-x="245" 
d="M203 166l-33 -140q-24 -103 -81 -152.5t-152 -56.5l-1 79q60 8 91.5 35t42.5 78h-71l37 157h167z" />
    <glyph glyph-name="quotedblleft" unicode="&#x201c;" horiz-adv-x="479" 
d="M55 412l33 140q24 103 81 152.5t152 56.5l1 -79q-60 -8 -91.5 -35t-42.5 -78h71l-37 -157h-167zM289 412l33 140q24 103 81 152.5t152 56.5l1 -79q-60 -8 -91.5 -35t-42.5 -78h71l-37 -157h-167z" />
    <glyph glyph-name="quotedblright" unicode="&#x201d;" horiz-adv-x="478" 
d="M341 766l-33 -140q-24 -103 -81 -152.5t-152 -56.5l-1 79q60 8 91.5 35t42.5 78h-71l37 157h167zM574 766l-33 -140q-24 -103 -81 -152.5t-152 -56.5l-1 79q60 8 91.5 35t42.5 78h-71l37 157h167z" />
    <glyph glyph-name="quotedblbase" unicode="&#x201e;" horiz-adv-x="478" 
d="M203 166l-33 -140q-24 -103 -81 -152.5t-152 -56.5l-1 79q60 8 91.5 35t42.5 78h-71l37 157h167zM436 166l-33 -140q-24 -103 -81 -152.5t-152 -56.5l-1 79q60 8 91.5 35t42.5 78h-71l37 157h167z" />
    <glyph glyph-name="dagger" unicode="&#x2020;" horiz-adv-x="510" 
d="M216 380h-158l29 126h158l45 194h133l-45 -194h158l-29 -126h-158l-110 -473h-133z" />
    <glyph glyph-name="daggerdbl" unicode="&#x2021;" horiz-adv-x="511" 
d="M508 380h-158l-36 -153h158l-29 -126h-158l-45 -194h-133l45 194h-158l29 126h158l36 153h-158l29 126h158l45 194h133l-45 -194h158z" />
    <glyph glyph-name="bullet" unicode="&#x2022;" horiz-adv-x="309" 
d="M282 363l-49 -213h-209l50 213h208z" />
    <glyph glyph-name="ellipsis" unicode="&#x2026;" horiz-adv-x="1051" 
d="M238 172l-40 -172h-168l40 172h168zM574 172l-40 -172h-168l40 172h168zM910 172l-40 -172h-168l40 172h168z" />
    <glyph glyph-name="perthousand" unicode="&#x2030;" horiz-adv-x="1342" 
d="M1103 337q79 0 129.5 -49.5t50.5 -127.5q0 -79 -50.5 -128.5t-129.5 -49.5q-75 0 -125 50t-50 128t50 127.5t125 49.5zM1105 236q-32 0 -52.5 -20.5t-20.5 -54.5q0 -35 20.5 -56.5t52.5 -21.5q33 0 53.5 21.5t20.5 56.5q0 34 -20.5 54.5t-53.5 20.5zM277 723
q79 0 129.5 -49.5t50.5 -127.5q0 -79 -50.5 -128.5t-129.5 -49.5q-75 0 -125 50t-50 128t50 127.5t125 49.5zM842 700l-567 -700h-135l567 700h135zM279 622q-32 0 -52.5 -20.5t-20.5 -54.5q0 -35 20.5 -56.5t52.5 -21.5q33 0 53.5 21.5t20.5 56.5q0 34 -20.5 54.5
t-53.5 20.5zM709 337q79 0 129.5 -49.5t50.5 -127.5q0 -79 -50.5 -128.5t-129.5 -49.5q-75 0 -125 50t-50 128t50 127.5t125 49.5zM711 236q-32 0 -52.5 -20.5t-20.5 -54.5q0 -35 20.5 -56.5t52.5 -21.5q33 0 53.5 21.5t20.5 56.5q0 34 -20.5 54.5t-53.5 20.5z" />
    <glyph glyph-name="guilsinglleft" unicode="&#x2039;" horiz-adv-x="339" 
d="M174 276l91 -138l-87 -61l-137 211l223 201l63 -78z" />
    <glyph glyph-name="guilsinglright" unicode="&#x203a;" horiz-adv-x="339" 
d="M175 291l-91 138l87 61l137 -211l-223 -201l-63 78z" />
    <glyph glyph-name="fraction" unicode="&#x2044;" horiz-adv-x="701" 
d="M732 700l-577 -700h-125l577 700h125z" />
    <glyph glyph-name="Euro" unicode="&#x20ac;" horiz-adv-x="611" 
d="M627 453h-155q2 22 2 26q0 38 -20.5 59.5t-56.5 21.5q-82 0 -123 -111h138l-17 -72h-142q-6 -27 -9 -58h138l-17 -71h-124q1 -64 20 -90.5t64 -26.5q47 0 72.5 27t35.5 87h157q-18 -122 -92.5 -189t-188.5 -67q-213 0 -219 259h-81l17 71h66q5 47 8 58h-61l17 72h60
q33 112 106 181q73 70 183 70q100 0 162 -59t62 -154q0 -8 -2 -34z" />
    <glyph glyph-name="uni2113" unicode="&#x2113;" horiz-adv-x="367" 
d="M162 93q0 -35 26 -35q40 0 104 84l23 -19q-87 -134 -186 -134q-44 0 -69 24.5t-25 64.5q0 15 6 45l57 246l-61 -33l12 52l60 31l32 138q18 77 68 115q49 39 106 39q44 0 72 -23t28 -68q0 -92 -127 -164l-53 -30l-68 -293q-5 -22 -5 -40zM246 480l8 4q57 32 82 62.5
t25 67.5q0 50 -36 50t-48 -55z" />
    <glyph glyph-name="uni2116" unicode="&#x2116;" horiz-adv-x="1146" 
d="M746 700l-160 -700h-143l-157 421l-97 -421h-163l160 700h154l150 -407l92 407h164zM985 717q79 0 129.5 -49.5t50.5 -127.5q0 -79 -50.5 -128.5t-129.5 -49.5q-75 0 -125 50t-50 128t50 127.5t125 49.5zM987 616q-32 0 -52.5 -20.5t-20.5 -54.5q0 -35 20.5 -56.5
t52.5 -21.5q33 0 53.5 21.5t20.5 56.5q0 34 -20.5 54.5t-53.5 20.5z" />
    <glyph glyph-name="trademark" unicode="&#x2122;" horiz-adv-x="734" 
d="M120 589l16 66h277l-16 -66h-104l-52 -225h-70l52 225h-103zM678 655h112l-68 -291h-70l53 227l-129 -227h-58l-22 227l-53 -227h-68l68 291h105l17 -204z" />
    <glyph glyph-name="estimated" unicode="&#x212e;" horiz-adv-x="494" 
d="M392 141h43q-9 -73 -60.5 -112.5t-125.5 -39.5q-92 0 -151.5 62t-59.5 179q0 119 59 183.5t149 64.5q82 0 137.5 -53t55.5 -147q0 -18 -2 -48h-323v-121q42 -80 139 -80q118 0 139 112zM114 273h240v112q-38 53 -108 53q-41 0 -76.5 -19t-55.5 -53v-93z" />
    <glyph glyph-name="uni2153" unicode="&#x2153;" horiz-adv-x="1135" 
d="M963 700l-577 -700h-125l577 700h125zM314 361h109l-21 -91h-315l21 91h108l46 200q-47 -17 -100 -17l22 91q71 7 122 52h84zM1025 126q0 -57 -47 -95.5t-115 -38.5q-65 0 -103.5 34t-38.5 92q0 16 1 19h99q-3 -24 11 -40t39 -16q23 0 38.5 12.5t15.5 30.5q0 19 -13.5 31
t-39.5 12h-34l19 84h25q32 0 52.5 16t20.5 40q0 13 -12 22t-31 9q-25 0 -41.5 -15.5t-20.5 -42.5h-98q4 69 53.5 108.5t115.5 39.5q58 0 95.5 -31t37.5 -80q0 -38 -23 -68t-57 -39q51 -26 51 -84z" />
    <glyph glyph-name="uni2154" unicode="&#x2154;" horiz-adv-x="1125" 
d="M1015 126q0 -57 -47 -95.5t-115 -38.5q-65 0 -103.5 34t-38.5 92q0 16 1 19h99q-3 -24 11 -40t39 -16q23 0 38.5 12.5t15.5 30.5q0 19 -13.5 31t-39.5 12h-34l19 84h25q32 0 52.5 16t20.5 40q0 13 -12 22t-31 9q-25 0 -41.5 -15.5t-20.5 -42.5h-98q4 69 53.5 108.5
t115.5 39.5q58 0 95.5 -31t37.5 -80q0 -38 -23 -68t-57 -39q51 -26 51 -84zM961 700l-577 -700h-125l577 700h125zM268 362h165l-21 -91h-307l17 79l107 82l19 15q69 53 89 73q25 25 25 50q0 38 -45 38q-28 0 -47.5 -20t-20.5 -52h-98q6 75 58 119.5t120 44.5
q59 0 96.5 -32.5t37.5 -86.5q0 -37 -21 -69q-18 -28 -53 -59q-34 -28 -98 -74z" />
    <glyph glyph-name="uni2155" unicode="&#x2155;" horiz-adv-x="1121" 
d="M944 700l-577 -700h-125l577 700h125zM314 361h109l-21 -91h-315l21 91h108l46 200q-47 -17 -100 -17l22 91q71 7 122 52h84zM1023 324h-168l-23 -69q22 22 70 22q50 0 82 -34.5t32 -90.5q0 -65 -46.5 -112.5t-121.5 -47.5q-68 0 -107.5 38t-39.5 103h100q0 -57 50 -57
q31 0 48 20t17 50q0 56 -47 56q-33 0 -52 -24h-94l75 238h245z" />
    <glyph glyph-name="uni2156" unicode="&#x2156;" horiz-adv-x="1090" 
d="M942 700l-577 -700h-125l577 700h125zM992 324h-168l-23 -69q22 22 70 22q50 0 82 -34.5t32 -90.5q0 -65 -46.5 -112.5t-121.5 -47.5q-68 0 -107.5 38t-39.5 103h100q0 -57 50 -57q31 0 48 20t17 50q0 56 -47 56q-32 0 -52 -24h-94l75 238h245zM268 362h165l-21 -91h-307
l17 79l107 82l19 15q69 53 89 73q25 25 25 50q0 38 -45 38q-28 0 -47.5 -20t-20.5 -52h-98q6 75 58 119.5t120 44.5q59 0 96.5 -32.5t37.5 -86.5q0 -37 -21 -69q-18 -28 -53 -59q-34 -28 -98 -74z" />
    <glyph glyph-name="uni2157" unicode="&#x2157;" horiz-adv-x="1085" 
d="M921 700l-577 -700h-125l577 700h125zM987 324h-168l-23 -69q22 22 70 22q50 0 82 -34.5t32 -90.5q0 -65 -46.5 -112.5t-121.5 -47.5q-68 0 -107.5 38t-39.5 103h100q0 -57 50 -57q31 0 48 20t17 50q0 56 -47 56q-33 0 -52 -24h-94l75 238h245zM427 398q0 -57 -47 -95.5
t-115 -38.5q-65 0 -103.5 34t-38.5 92q0 16 1 19h99q-3 -24 11 -40t39 -16q23 0 38.5 12.5t15.5 30.5q0 19 -13.5 31t-39.5 12h-34l19 84h25q32 0 52.5 16t20.5 40q0 13 -12 22t-31 9q-25 0 -41.5 -15.5t-20.5 -42.5h-98q4 69 53.5 108.5t115.5 39.5q58 0 95.5 -31t37.5 -80
q0 -38 -23 -68t-57 -39q51 -26 51 -84z" />
    <glyph glyph-name="uni2158" unicode="&#x2158;" horiz-adv-x="1093" 
d="M937 700l-577 -700h-125l577 700h125zM995 324h-168l-23 -69q22 22 70 22q50 0 82 -34.5t32 -90.5q0 -65 -46.5 -112.5t-121.5 -47.5q-68 0 -107.5 38t-39.5 103h100q0 -57 50 -57q31 0 48 20t17 50q0 56 -47 56q-33 0 -52 -24h-94l75 238h245zM406 434h48l-20 -91h-49
l-17 -72h-94l16 73h-185l18 83l227 261h115zM227 434h85l31 132z" />
    <glyph glyph-name="uni2159" unicode="&#x2159;" horiz-adv-x="1136" 
d="M953 700l-577 -700h-125l577 700h125zM314 361h109l-21 -91h-315l21 91h108l46 200q-47 -17 -100 -17l22 91q71 7 122 52h84zM908 345q-36 0 -60.5 -24.5t-32.5 -71.5q32 34 90 34q54 0 90.5 -33t36.5 -94q0 -69 -46 -116.5t-118 -47.5t-111 49t-39 140q0 112 55 179.5
t140 67.5q58 0 97 -31t44 -87h-99q-7 35 -47 35zM933 143q0 25 -14 41.5t-37 16.5q-29 0 -44.5 -20t-15.5 -51q0 -59 51 -59q28 0 44 21t16 51z" />
    <glyph glyph-name="uni215A" unicode="&#x215a;" horiz-adv-x="1091" 
d="M928 700l-577 -700h-125l577 700h125zM863 345q-36 0 -60.5 -24.5t-32.5 -71.5q32 34 90 34q54 0 90.5 -33t36.5 -94q0 -69 -46 -116.5t-118 -47.5t-111 49t-39 140q0 112 55 179.5t140 67.5q58 0 97 -31t44 -87h-99q-7 35 -47 35zM888 143q0 25 -14 41.5t-37 16.5
q-29 0 -44.5 -20t-15.5 -51q0 -59 51 -59q28 0 44 21t16 51zM440 596h-168l-23 -69q22 22 70 22q50 0 82 -34.5t32 -90.5q0 -65 -46.5 -112.5t-121.5 -47.5q-68 0 -107.5 38t-39.5 103h100q0 -57 50 -57q31 0 48 20t17 50q0 56 -47 56q-32 0 -52 -24h-94l75 238h245z" />
    <glyph glyph-name="oneeighth" unicode="&#x215b;" horiz-adv-x="1121" 
d="M943 700l-577 -700h-125l577 700h125zM314 361h109l-21 -91h-315l21 91h108l46 200q-47 -17 -100 -17l22 91q71 7 122 52h84zM1011 127q0 -61 -48.5 -98t-116.5 -37q-62 0 -103.5 31.5t-41.5 86.5q0 45 26.5 75t70.5 37q-54 30 -54 84q0 56 43 89t108 33q61 0 101 -29
t40 -81q0 -40 -23.5 -68t-57.5 -34q56 -26 56 -89zM937 302q0 42 -46 42q-22 0 -34.5 -12t-12.5 -34q0 -21 12 -32.5t32 -11.5q21 0 35 13.5t14 34.5zM911 131q0 23 -15.5 36.5t-38.5 13.5q-24 0 -40 -17t-16 -42q0 -23 14.5 -35.5t36.5 -12.5q25 0 42 16t17 41z" />
    <glyph glyph-name="threeeighths" unicode="&#x215c;" horiz-adv-x="1110" 
d="M942 700l-577 -700h-125l577 700h125zM1000 127q0 -61 -48.5 -98t-116.5 -37q-62 0 -103.5 31.5t-41.5 86.5q0 45 26.5 75t70.5 37q-54 30 -54 84q0 56 43 89t108 33q61 0 101 -29t40 -81q0 -40 -23.5 -68t-57.5 -34q56 -26 56 -89zM926 302q0 42 -46 42q-22 0 -34.5 -12
t-12.5 -34q0 -21 12 -32.5t32 -11.5q21 0 35 13.5t14 34.5zM900 131q0 23 -15.5 36.5t-38.5 13.5q-24 0 -40 -17t-16 -42q0 -23 14.5 -35.5t36.5 -12.5q25 0 42 16t17 41zM427 398q0 -57 -47 -95.5t-115 -38.5q-65 0 -103.5 34t-38.5 92q0 16 1 19h99q-3 -24 11 -40t39 -16
q23 0 38.5 12.5t15.5 30.5q0 19 -13.5 31t-39.5 12h-34l19 84h25q32 0 52.5 16t20.5 40q0 13 -12 22t-31 9q-25 0 -41.5 -15.5t-20.5 -42.5h-98q4 69 53.5 108.5t115.5 39.5q58 0 95.5 -31t37.5 -80q0 -38 -23 -68t-57 -39q51 -26 51 -84z" />
    <glyph glyph-name="fiveeighths" unicode="&#x215d;" horiz-adv-x="1079" 
d="M969 127q0 -61 -48.5 -98t-116.5 -37q-62 0 -103.5 31.5t-41.5 86.5q0 45 26.5 75t70.5 37q-54 30 -54 84q0 56 43 89t108 33q61 0 101 -29t40 -81q0 -40 -23.5 -68t-57.5 -34q56 -26 56 -89zM895 302q0 42 -46 42q-22 0 -34.5 -12t-12.5 -34q0 -21 12 -32.5t32 -11.5
q21 0 35 13.5t14 34.5zM869 131q0 23 -15.5 36.5t-38.5 13.5q-24 0 -40 -17t-16 -42q0 -23 14.5 -35.5t36.5 -12.5q25 0 42 16t17 41zM918 700l-577 -700h-125l577 700h125zM440 596h-168l-23 -69q22 22 70 22q50 0 82 -34.5t32 -90.5q0 -65 -46.5 -112.5t-121.5 -47.5
q-68 0 -107.5 38t-39.5 103h100q0 -57 50 -57q31 0 48 20t17 50q0 56 -47 56q-32 0 -52 -24h-94l75 238h245z" />
    <glyph glyph-name="seveneighths" unicode="&#x215e;" horiz-adv-x="1090" 
d="M923 700l-577 -700h-125l577 700h125zM980 127q0 -61 -48.5 -98t-116.5 -37q-62 0 -103.5 31.5t-41.5 86.5q0 45 26.5 75t70.5 37q-54 30 -54 84q0 56 43 89t108 33q61 0 101 -29t40 -81q0 -40 -23.5 -68t-57.5 -34q56 -26 56 -89zM906 302q0 42 -46 42q-22 0 -34.5 -12
t-12.5 -34q0 -21 12 -32.5t32 -11.5q21 0 35 13.5t14 34.5zM880 131q0 23 -15.5 36.5t-38.5 13.5q-24 0 -40 -17t-16 -42q0 -23 14.5 -35.5t36.5 -12.5q25 0 42 16t17 41zM511 688l-18 -75l-219 -342h-109l213 321h-216l21 96h328z" />
    <glyph glyph-name="arrowleft" unicode="&#x2190;" horiz-adv-x="647" 
d="M334 22l-294 294l294 294l77 -77l-169 -162h373v-110h-373l169 -163z" />
    <glyph glyph-name="arrowup" unicode="&#x2191;" horiz-adv-x="648" 
d="M622 281l-76 -77l-163 169v-373h-110v373l-162 -169l-77 77l294 294z" />
    <glyph glyph-name="arrowright" unicode="&#x2192;" horiz-adv-x="645" 
d="M333 23l-77 76l169 163h-373v110h373l-169 162l77 77l294 -294z" />
    <glyph glyph-name="arrowdown" unicode="&#x2193;" horiz-adv-x="647" 
d="M584 294l-294 -294l-294 294l77 77l162 -169v373h110v-373l163 169z" />
    <glyph glyph-name="partialdiff" unicode="&#x2202;" horiz-adv-x="614" 
d="M437 393q5 32 5 48q0 58 -28.5 90.5t-74.5 32.5q-34 0 -60 -17t-33 -46h-156q17 92 89.5 145.5t164.5 53.5q105 0 178 -75t73 -217q1 -106 -28.5 -189.5t-78.5 -132t-107 -73t-121 -24.5q-95 0 -159.5 59t-64.5 154q-2 114 79.5 188.5t182.5 72.5q97 0 139 -70zM397 243
q0 41 -24 64t-64 23q-49 0 -81.5 -32.5t-32.5 -86.5q0 -42 23.5 -67.5t61.5 -25.5q46 0 81.5 36t35.5 89z" />
    <glyph glyph-name="product" unicode="&#x220f;" horiz-adv-x="804" 
d="M718 564l-129 -564h-158l130 564h-168l-130 -564h-157l129 564h-80l32 136h643l-31 -136h-81z" />
    <glyph glyph-name="summation" unicode="&#x2211;" horiz-adv-x="663" 
d="M358 543l158 -202l-235 -184h333l-37 -157h-592l33 142l284 207l-169 211l32 140h544l-36 -157h-315z" />
    <glyph glyph-name="minus" unicode="&#x2212;" 
d="M544 383l-33 -143h-431l33 143h431z" />
    <glyph glyph-name="radical" unicode="&#x221a;" horiz-adv-x="631" 
d="M717 700l-406 -700h-150l-86 524h156l45 -300l264 476h177z" />
    <glyph glyph-name="infinity" unicode="&#x221e;" horiz-adv-x="754" 
d="M726 317q2 -116 -63.5 -203.5t-162.5 -85.5q-64 0 -98 36q-33 37 -40 80q-19 -42 -63 -80q-43 -36 -107 -36q-75 0 -117 58q-41 59 -41 147q-2 116 64.5 203.5t163.5 85.5q64 0 97 -36q32 -35 40 -79q17 42 62 79q45 36 109 36q75 0 115 -58q41 -59 41 -147zM322 291
q0 33 -17 53t-44 20q-38 0 -62.5 -28t-24.5 -78q0 -34 17 -52.5t45 -18.5q37 0 61.5 29t24.5 75zM587 292q0 34 -17 53t-44 19q-37 0 -62 -29t-25 -76q0 -34 16.5 -53t45.5 -19q37 0 61.5 27.5t24.5 77.5z" />
    <glyph glyph-name="integral" unicode="&#x222b;" horiz-adv-x="356" 
d="M460 711l-33 -140h-66q-35 0 -46 -44l-134 -577q-33 -142 -161 -142h-112l31 140h48q34 0 43 39l136 591q30 133 170 133h124z" />
    <glyph glyph-name="approxequal" unicode="&#x2248;" 
d="M457 449q70 0 108 27l-29 -126q-47 -20 -110 -20q-38 0 -96 21q-60 22 -104 22q-73 0 -123 -32l28 123q53 29 125 29q42 0 101 -22q54 -22 100 -22zM413 260q70 0 108 26l-29 -126q-47 -20 -110 -20q-38 0 -96 21q-60 22 -104 22q-73 0 -123 -32l28 123q53 29 125 29
q39 0 101 -21q54 -22 100 -22z" />
    <glyph glyph-name="notequal" unicode="&#x2260;" 
d="M533 337h-154l-29 -51h171l-31 -136h-215l-65 -118l-93 54l35 64h-93l31 136h138l28 51h-154l31 136h198l69 125l93 -54l-39 -71h110z" />
    <glyph glyph-name="lessequal" unicode="&#x2264;" 
d="M586 548l-295 -116l237 -109l-70 -130l-355 177l31 144l406 169zM497 143l-34 -143h-440l34 143h440z" />
    <glyph glyph-name="greaterequal" unicode="&#x2265;" 
d="M211 680l357 -183l-30 -144l-409 -170l-48 136l297 116l-239 115zM505 143l-34 -143h-440l34 143h440z" />
    <glyph glyph-name="lozenge" unicode="&#x25ca;" horiz-adv-x="546" 
d="M545 336l-333 -347l-173 347l334 346zM253 186l148 155l-69 145l-149 -156z" />
    <glyph glyph-name="NULL" horiz-adv-x="19" 
 />
    <glyph glyph-name="zero.osf" horiz-adv-x="625" 
d="M581 305q1 -76 -33.5 -148.5t-103 -121t-153.5 -46.5q-114 0 -177 77.5t-63 183.5q-1 77 33.5 149t103 119.5t153.5 45.5q114 0 177 -76.5t63 -182.5zM424 300q0 50 -24 82t-67 32q-54 0 -89.5 -49.5t-35.5 -113.5q0 -51 23.5 -82.5t66.5 -31.5q55 0 90.5 50t35.5 113z
" />
    <glyph glyph-name="one.osf" horiz-adv-x="575" 
d="M399 403l-58 -254h162l-34 -149h-482l33 149h163l58 254h-163l36 149h483l-35 -149h-163z" />
    <glyph glyph-name="two.osf" horiz-adv-x="599" 
d="M344 167l-35 -18h219l-36 -149h-476l31 130l161 85q100 54 141 84q40 30 40 64q0 24 -18.5 37.5t-49.5 13.5q-40 0 -66 -22.5t-32 -65.5h-162q14 111 96 174.5t183 63.5q87 0 145.5 -49t58.5 -129q0 -49 -26 -89q-23 -36 -63 -65t-111 -65z" />
    <glyph glyph-name="three.osf" horiz-adv-x="603" 
d="M499 71q0 -93 -76.5 -156t-187.5 -63q-104 0 -168 58t-64 153q0 10 2 26h161q-1 -3 -1 -13q0 -34 23 -56t59 -22q37 0 62.5 20t25.5 49q0 32 -21.5 51t-64.5 19h-55l31 137h41q53 0 85.5 26.5t32.5 65.5q0 21 -19 36t-50 15q-42 0 -69 -25.5t-32 -69.5h-161
q7 112 88 176.5t188 64.5q94 0 155.5 -51t61.5 -130q0 -63 -39 -111.5t-91 -62.5q83 -42 83 -137z" />
    <glyph glyph-name="four.osf" horiz-adv-x="619" 
d="M457 126h79l-33 -148h-80l-27 -118h-154l27 119h-303l30 135l371 436h189zM166 126h139l52 225z" />
    <glyph glyph-name="five.osf" horiz-adv-x="614" 
d="M525 398h-273l-37 -113q40 37 113 37q80 0 133 -56.5t53 -147.5q0 -111 -76 -190t-198 -79q-111 0 -175 63t-64 174h163q0 -101 82 -101q51 0 78 34.5t27 88.5q0 91 -77 91q-53 0 -84 -39h-154l123 388h399z" />
    <glyph glyph-name="six.osf" horiz-adv-x="635" 
d="M363 564q-57 0 -95.5 -40.5t-51.5 -115.5q55 55 147 55q86 0 147 -53t61 -154q0 -113 -75 -190t-193 -77q-117 0 -181 80t-64 229q0 181 88 291.5t226 110.5q91 0 156 -50t74 -142h-162q-8 56 -77 56zM409 236q0 42 -22 68t-61 26q-47 0 -72.5 -33t-25.5 -84
q0 -43 20.5 -69t60.5 -26q49 0 75 36q25 37 25 82z" />
    <glyph glyph-name="seven.osf" horiz-adv-x="585" 
d="M606 549l-30 -123l-357 -566h-178l347 532h-352l35 157h535z" />
    <glyph glyph-name="eight.osf" horiz-adv-x="594" 
d="M536 210q0 -99 -79 -160t-190 -61q-101 0 -168.5 50t-67.5 143q0 73 43 122.5t115 60.5q-45 24 -66.5 55.5t-21.5 80.5q0 92 70.5 145.5t175.5 53.5q98 0 164 -47.5t66 -132.5q0 -66 -39.5 -111t-92.5 -55q91 -40 91 -144zM415 495q0 34 -20 51.5t-54 17.5
q-36 0 -56.5 -20.5t-20.5 -55.5q0 -33 19.5 -52t52.5 -19q36 0 57.5 21t21.5 57zM374 216q0 37 -25.5 59t-62.5 22q-39 0 -65.5 -27.5t-26.5 -67.5q0 -37 23 -57t60 -20q42 0 69.5 25.5t27.5 65.5z" />
    <glyph glyph-name="nine.osf" horiz-adv-x="635" 
d="M279 -11q110 0 137 156q-55 -55 -147 -55q-86 0 -147 53t-61 154q0 113 75 190t193 77q117 0 181 -80t64 -229q0 -183 -83.5 -292.5t-220.5 -109.5q-95 0 -163 50.5t-77 141.5h162q4 -25 27.5 -40.5t59.5 -15.5zM223 317q0 -42 22 -68t61 -26q47 0 72.5 33t25.5 83
q0 44 -21 70t-62 26q-48 0 -73 -37q-25 -35 -25 -81z" />
    <glyph glyph-name="zero.tf" 
d="M56 248q0 94 32 201q33 105 103 178t176 73q101 0 158 -67t57 -194q0 -99 -33 -204q-33 -104 -104 -175t-174 -71q-100 0 -157.5 67t-57.5 192zM417 439q0 125 -63 125q-41 3 -72.5 -53t-46 -128t-13.5 -136q0 -122 58 -122q44 0 75 52q30 51 46 127q16 71 16 135z" />
    <glyph glyph-name="one.tf" 
d="M375 148h156l-35 -148h-473l36 148h156l77 335q-77 -28 -163 -28l36 148q115 12 198 85h137z" />
    <glyph glyph-name="two.tf" 
d="M270 149h269l-35 -149h-501l29 129l174 134q6 6 33 25q64 49 108 86q76 66 76 114q0 29 -20 45.5t-53 16.5q-48 0 -78.5 -32t-32.5 -86h-161q8 123 94 196.5t197 71.5q94 0 156.5 -53t62.5 -141q0 -62 -34 -112q-33 -51 -85 -94q-47 -39 -162 -124z" />
    <glyph glyph-name="three.tf" 
d="M539 208q0 -93 -76.5 -156t-187.5 -63q-104 0 -168 58t-64 153q0 10 2 26h161q-1 -3 -1 -13q0 -34 23 -56t59 -22q37 0 62.5 20t25.5 49q0 32 -21.5 51t-64.5 19h-55l31 137h41q53 0 85.5 26.5t32.5 65.5q0 21 -19 36t-50 15q-42 0 -69 -25.5t-32 -69.5h-161
q7 112 88 176.5t188 64.5q94 0 155.5 -51t61.5 -130q0 -63 -39 -111.5t-91 -62.5q83 -42 83 -137z" />
    <glyph glyph-name="four.tf" 
d="M490 265h79l-33 -148h-80l-27 -118h-154l27 119h-303l30 135l371 436h189zM199 265h139l52 225z" />
    <glyph glyph-name="five.tf" 
d="M559 538h-273l-37 -113q40 37 113 37q80 0 133 -56.5t53 -147.5q0 -111 -76 -190t-198 -79q-111 0 -175 63t-64 174h163q0 -101 82 -101q51 0 78 34.5t27 88.5q0 91 -77 91q-53 0 -84 -39h-154l123 388h399z" />
    <glyph glyph-name="six.tf" 
d="M356 564q-57 0 -95.5 -40.5t-51.5 -115.5q55 55 147 55q86 0 147 -53t61 -154q0 -113 -75 -190t-193 -77q-117 0 -181 80t-64 229q0 181 88 291.5t226 110.5q91 0 156 -50t74 -142h-162q-8 56 -77 56zM402 236q0 42 -22 68t-61 26q-47 0 -72.5 -33t-25.5 -84
q0 -43 20.5 -69t60.5 -26q50 0 75 36q25 37 25 82z" />
    <glyph glyph-name="seven.tf" 
d="M666 688l-30 -123l-357 -566h-178l347 532h-352l35 157h535z" />
    <glyph glyph-name="eight.tf" 
d="M539 210q0 -99 -79 -160t-190 -61q-101 0 -168.5 50t-67.5 143q0 73 43 122.5t115 60.5q-45 24 -66.5 55.5t-21.5 80.5q0 92 70.5 145.5t175.5 53.5q98 0 164 -47.5t66 -132.5q0 -66 -39.5 -111t-92.5 -55q91 -40 91 -144zM418 495q0 34 -20 51.5t-54 17.5
q-36 0 -56.5 -20.5t-20.5 -55.5q0 -33 19.5 -52t52.5 -19q36 0 57.5 21t21.5 57zM377 216q0 37 -25.5 59t-62.5 22q-39 0 -65.5 -27.5t-26.5 -67.5q0 -37 23 -57t60 -20q42 0 69.5 25.5t27.5 65.5z" />
    <glyph glyph-name="nine.tf" 
d="M292 125q110 0 137 156q-55 -55 -147 -55q-86 0 -147 53t-61 154q0 113 75 190t193 77q117 0 181 -80t64 -229q0 -183 -83.5 -292.5t-220.5 -109.5q-95 0 -163 50.5t-77 141.5h162q4 -25 27.5 -40.5t59.5 -15.5zM236 453q0 -42 22 -68t61 -26q47 0 72.5 33t25.5 83
q0 44 -21 70t-62 26q-48 0 -73 -37q-25 -35 -25 -81z" />
    <glyph glyph-name="zero.dnom" horiz-adv-x="358" 
d="M5 151q0 44 11.5 91.5t34 90.5t60.5 69.5t85 25.5q62 0 97 -41t35 -119q0 -46 -12 -94t-34.5 -89.5t-60.5 -67.5t-84 -25q-61 0 -96.5 41t-35.5 118zM227 268q0 70 -39 70q-36 2 -59 -61t-22 -127q0 -38 8.5 -53t27.5 -15q37 -2 60.5 60.5t23.5 125.5z" />
    <glyph glyph-name="one.dnom" horiz-adv-x="359" 
d="M188 90h109l-21 -91h-315l21 91h108l46 200q-47 -17 -100 -17l22 91q71 7 122 52h84z" />
    <glyph glyph-name="two.dnom" horiz-adv-x="357" 
d="M136 91h165l-21 -91h-307l17 79l107 82l19 15q69 53 89 73q25 25 25 50q0 38 -45 38q-28 0 -47.5 -20t-20.5 -52h-98q6 75 58 119.5t120 44.5q59 0 96.5 -32.5t37.5 -86.5q0 -38 -21 -69q-18 -28 -53 -59q-34 -28 -98 -74z" />
    <glyph glyph-name="three.dnom" horiz-adv-x="358" 
d="M301 126q0 -57 -47 -95.5t-115 -38.5q-65 0 -103.5 34t-38.5 92q0 16 1 19h99q-3 -24 11 -40t39 -16q23 0 38.5 12.5t15.5 30.5q0 19 -13.5 31t-39.5 12h-34l19 84h25q32 0 52.5 16t20.5 40q0 13 -12 22t-31 9q-25 0 -41.5 -15.5t-20.5 -42.5h-98q4 69 53.5 108.5
t115.5 39.5q58 0 95.5 -31t37.5 -80q0 -38 -23 -68t-57 -39q51 -26 51 -84z" />
    <glyph glyph-name="four.dnom" horiz-adv-x="357" 
d="M272 162h48l-20 -91h-49l-17 -72h-94l16 73h-185l18 83l227 261h115zM93 162h85l31 132z" />
    <glyph glyph-name="five.dnom" horiz-adv-x="357" 
d="M313 324h-168l-23 -69q22 22 70 22q50 0 82 -34.5t32 -90.5q0 -65 -46.5 -112.5t-121.5 -47.5q-68 0 -107.5 38t-39.5 103h100q0 -57 50 -57q31 0 48 20t17 50q0 56 -47 56q-33 0 -52 -24h-94l75 238h245z" />
    <glyph glyph-name="six.dnom" horiz-adv-x="357" 
d="M192 345q-36 0 -60.5 -24.5t-32.5 -71.5q32 34 90 34q54 0 90.5 -33t36.5 -94q0 -69 -46 -116.5t-118 -47.5t-111 49t-39 140q0 112 55 179.5t140 67.5q58 0 97 -31t44 -87h-99q-7 35 -47 35zM217 143q0 25 -14 41.5t-37 16.5q-29 0 -44.5 -20t-15.5 -51q0 -59 51 -59
q28 0 44 21t16 51z" />
    <glyph glyph-name="seven.dnom" horiz-adv-x="357" 
d="M377 416l-18 -75l-219 -342h-109l213 321h-216l21 96h328z" />
    <glyph glyph-name="eight.dnom" horiz-adv-x="358" 
d="M302 127q0 -61 -48.5 -98t-116.5 -37q-62 0 -103.5 31.5t-41.5 86.5q0 45 26.5 75t70.5 37q-54 30 -54 84q0 56 43 89t108 33q61 0 101 -29t40 -81q0 -40 -23.5 -68t-57.5 -34q56 -26 56 -89zM228 302q0 42 -46 42q-22 0 -34.5 -12t-12.5 -34q0 -21 12 -32.5t32 -11.5
q21 0 35 13.5t14 34.5zM202 131q0 23 -15.5 36.5t-38.5 13.5q-24 0 -40 -17t-16 -42q0 -23 14.5 -35.5t36.5 -12.5q25 0 42 16t17 41z" />
    <glyph glyph-name="nine.dnom" horiz-adv-x="357" 
d="M141 75q36 0 60.5 24.5t32.5 71.5q-34 -34 -90 -34q-54 0 -91 33t-37 94q0 70 46 117t119 47q72 0 111 -49t39 -141q0 -111 -55.5 -178.5t-140.5 -67.5q-58 0 -97 31t-44 87h99q7 -35 48 -35zM116 276q0 -25 13.5 -41t36.5 -16q29 0 45 20t16 51q0 59 -51 59
q-28 0 -44 -21.5t-16 -51.5z" />
    <glyph glyph-name="zero.numr" horiz-adv-x="358" 
d="M68 423q0 44 11.5 91.5t34 90.5t60.5 69.5t85 25.5q62 0 97 -41t35 -119q0 -46 -12 -94t-34.5 -89.5t-60.5 -67.5t-84 -25q-61 0 -96.5 41t-35.5 118zM290 540q0 70 -39 70q-36 2 -59 -61t-22 -127q0 -38 8.5 -53t27.5 -15q37 -2 60.5 60.5t23.5 125.5z" />
    <glyph glyph-name="one.numr" horiz-adv-x="359" 
d="M251 362h109l-21 -91h-315l21 91h108l46 200q-47 -17 -100 -17l22 91q71 7 122 52h84z" />
    <glyph glyph-name="two.numr" horiz-adv-x="357" 
d="M199 362h165l-21 -91h-307l17 79l107 82l19 15q69 53 89 73q25 25 25 50q0 38 -45 38q-28 0 -47.5 -20t-20.5 -52h-98q6 75 58 119.5t120 44.5q59 0 96.5 -32.5t37.5 -86.5q0 -37 -21 -69q-18 -28 -53 -59q-34 -28 -98 -74z" />
    <glyph glyph-name="three.numr" horiz-adv-x="358" 
d="M364 398q0 -57 -47 -95.5t-115 -38.5q-65 0 -103.5 34t-38.5 92q0 16 1 19h99q-3 -24 11 -40t39 -16q23 0 38.5 12.5t15.5 30.5q0 19 -13.5 31t-39.5 12h-34l19 84h25q32 0 52.5 16t20.5 40q0 13 -12 22t-31 9q-25 0 -41.5 -15.5t-20.5 -42.5h-98q4 69 53.5 108.5
t115.5 39.5q58 0 95.5 -31t37.5 -80q0 -38 -23 -68t-57 -39q51 -26 51 -84z" />
    <glyph glyph-name="four.numr" horiz-adv-x="357" 
d="M335 434h48l-20 -91h-49l-17 -72h-94l16 73h-185l18 83l227 261h115zM156 434h85l31 132z" />
    <glyph glyph-name="five.numr" horiz-adv-x="357" 
d="M376 596h-168l-23 -69q22 22 70 22q50 0 82 -34.5t32 -90.5q0 -65 -46.5 -112.5t-121.5 -47.5q-68 0 -107.5 38t-39.5 103h100q0 -57 50 -57q31 0 48 20t17 50q0 56 -47 56q-32 0 -52 -24h-94l75 238h245z" />
    <glyph glyph-name="six.numr" horiz-adv-x="357" 
d="M255 617q-36 0 -60.5 -24.5t-32.5 -71.5q32 34 90 34q54 0 90.5 -33t36.5 -94q0 -69 -46 -116.5t-118 -47.5t-111 49t-39 140q0 112 55 179.5t140 67.5q58 0 97 -31t44 -87h-99q-7 35 -47 35zM280 415q0 25 -14 41.5t-37 16.5q-29 0 -44.5 -20t-15.5 -51q0 -59 51 -59
q28 0 44 21t16 51z" />
    <glyph glyph-name="seven.numr" horiz-adv-x="357" 
d="M440 688l-18 -75l-219 -342h-109l213 321h-216l21 96h328z" />
    <glyph glyph-name="eight.numr" horiz-adv-x="358" 
d="M365 399q0 -61 -48.5 -98t-116.5 -37q-62 0 -103.5 31.5t-41.5 86.5q0 45 26.5 75t70.5 37q-54 30 -54 84q0 56 43 89t108 33q61 0 101 -29t40 -81q0 -40 -23.5 -68t-57.5 -34q56 -26 56 -89zM291 574q0 42 -46 42q-22 0 -34.5 -12t-12.5 -34q0 -21 12 -32.5t32 -11.5
q21 0 35 13.5t14 34.5zM265 403q0 23 -15.5 36.5t-38.5 13.5q-24 0 -40 -17t-16 -42q0 -23 14.5 -35.5t36.5 -12.5q25 0 42 16t17 41z" />
    <glyph glyph-name="nine.numr" horiz-adv-x="357" 
d="M204 347q36 0 60.5 24.5t32.5 71.5q-34 -34 -90 -34q-54 0 -91 33t-37 94q0 70 46 117t119 47q72 0 111 -49t39 -141q0 -111 -55.5 -178.5t-140.5 -67.5q-58 0 -97 31t-44 87h99q7 -35 48 -35zM179 548q0 -25 13.5 -41t36.5 -16q29 0 45 20t16 51q0 59 -51 59
q-28 0 -44 -21.5t-16 -51.5z" />
    <glyph glyph-name="exclamdown.cap" horiz-adv-x="333" 
d="M135 478l40 172h168l-40 -172h-168zM255 424l-2 -185l-67 -289h-167l71 306l78 168h87z" />
    <glyph glyph-name="questiondown.cap" horiz-adv-x="550" 
d="M479 667l-40 -172h-168l40 172h168zM421 441l-6 -24q-27 -110 -124 -164l-42 -24q-40 -23 -58.5 -42t-18.5 -44q0 -50 70 -50q89 0 105 81h158q-28 -114 -105 -167q-77 -51 -176 -51q-100 0 -160.5 45.5t-60.5 124.5q0 69 39 111q39 41 90 70l48 27q47 27 62 44
q14 15 22 43l5 20h152z" />
    <glyph glyph-name="periodcentered.cap" horiz-adv-x="248" 
d="M276 512l-40 -172h-168l40 172h168z" />
    <glyph glyph-name="bullet.cap" horiz-adv-x="289" 
d="M294 413l-49 -213h-209l50 213h208z" />
    <glyph glyph-name="hyphen.cap" horiz-adv-x="348" 
d="M353 414l-30 -129h-287l30 129h287z" />
    <glyph glyph-name="endash.cap" horiz-adv-x="529" 
d="M530 395l-32 -129h-466l32 129h466z" />
    <glyph glyph-name="emdash.cap" horiz-adv-x="994" 
d="M995 395l-30 -129h-933l30 129h933z" />
    <glyph glyph-name="guillemotleft.cap" horiz-adv-x="572" 
d="M189 341l91 -138l-87 -61l-137 211l223 201l63 -78zM422 341l91 -138l-87 -61l-137 211l223 201l63 -78z" />
    <glyph glyph-name="guillemotright.cap" horiz-adv-x="572" 
d="M192 365l-91 138l87 61l137 -211l-223 -201l-63 78zM425 365l-91 138l87 61l137 -211l-223 -201l-63 78z" />
    <glyph glyph-name="guilsinglleft.cap" horiz-adv-x="339" 
d="M189 341l91 -138l-87 -61l-137 211l223 201l63 -78z" />
    <glyph glyph-name="guilsinglright.cap" horiz-adv-x="339" 
d="M190 356l-91 138l87 61l137 -211l-223 -201l-63 78z" />
    <glyph glyph-name="at.cap" horiz-adv-x="890" 
d="M887 443q2 -125 -75.5 -224t-171.5 -96q-45 0 -80.5 22.5t-42.5 56.5q-42 -79 -140 -79q-74 0 -113 47t-39 115q-2 95 70.5 180.5t170.5 82.5q84 0 109 -67l24 58h129l-84 -210q-21 -52 -21 -79q0 -36 35 -36q48 -2 89.5 70.5t40.5 156.5q0 99 -60.5 153t-169.5 54
q-82 1 -158.5 -31.5t-131.5 -87t-87 -127.5t-31 -150q0 -107 57.5 -165.5t162.5 -58.5q67 0 133 30l27 -81q-88 -41 -172 -41q-138 0 -221 84.5t-83 227.5q-2 94 39.5 185t110.5 158.5t164 107.5t194 38q148 0 236.5 -79.5t88.5 -214.5zM532 378q0 69 -63 69q-50 0 -84 -44
t-34 -98q0 -36 17.5 -56.5t48.5 -20.5q47 0 81 47.5t34 102.5z" />
    <glyph glyph-name="acute.cap" horiz-adv-x="249" 
d="M386 857l-144 -81h-123l182 174z" />
    <glyph glyph-name="breve.cap" horiz-adv-x="278" 
d="M428 929q0 -63 -43.5 -118t-120.5 -55q-60 0 -90.5 30t-30.5 78q0 41 24 86h83q-10 -26 -10 -45q0 -45 37 -45q26 0 40.5 26.5t14.5 63.5h94q2 -16 2 -21z" />
    <glyph glyph-name="caron.cap" horiz-adv-x="373" 
d="M283 950l35 -70l69 70h145l-190 -184h-80l-103 184h124z" />
    <glyph glyph-name="cedilla.cap" horiz-adv-x="218" 
d="M129 -113q0 -40 -33.5 -67.5t-88.5 -27.5q-70 0 -107 37l51 58q23 -27 50 -27q38 0 38 29q0 26 -66 26l24 86h56l-10 -47q86 -5 86 -67z" />
    <glyph glyph-name="circumflex.cap" horiz-adv-x="373" 
d="M366 766l-36 70l-69 -70h-145l190 184h80l103 -184h-123z" />
    <glyph glyph-name="dieresis.cap" horiz-adv-x="332" 
d="M276 907l-31 -131h-126l30 131h127zM480 907l-29 -131h-127l31 131h125z" />
    <glyph glyph-name="dotaccent.cap" horiz-adv-x="169" 
d="M322 948l-40 -172h-168l40 172h168z" />
    <glyph glyph-name="grave.cap" horiz-adv-x="201" 
d="M320 776h-89l-80 141l126 33z" />
    <glyph glyph-name="hungarumlaut.cap" horiz-adv-x="309" 
d="M119 776l71 161h116l-92 -161h-95zM278 776l71 161h116l-93 -161h-94z" />
    <glyph glyph-name="macron.cap" horiz-adv-x="299" 
d="M145 888h298l-25 -112h-299z" />
    <glyph glyph-name="ring.cap" horiz-adv-x="212" 
d="M240 950q45 0 74.5 -29t29.5 -74q0 -46 -29.5 -75t-74.5 -29q-44 0 -73 29.5t-29 74.5t29 74t73 29zM241 900q-23 0 -37 -15t-14 -38q0 -24 13.5 -39t37.5 -15q23 0 37 15t14 39q0 23 -14 38t-37 15z" />
    <glyph glyph-name="tilde.cap" horiz-adv-x="325" 
d="M361 776q-33 0 -73 28q-25 17 -38 17t-22 -10.5t-10 -28.5h-91q0 69 30 109t81 40q32 0 75 -29q23 -17 36 -17q26 0 32 42h91q0 -71 -30.5 -111t-80.5 -40z" />
    </font>
</defs>
</svg>
