<svg width="6" height="11" viewBox="0 0 6 11" fill="none" xmlns="http://www.w3.org/2000/svg">
<path fill-rule="evenodd" clip-rule="evenodd" d="M0.19206 9.20047L3.95872 5.16344L0.192059 1.12641C0.0698296 1.00191 0.000951891 0.834665 5.87596e-05 0.660197C-0.000833895 0.48573 0.0663296 0.317787 0.187279 0.192046C0.246415 0.130874 0.317329 0.0823169 0.395743 0.0492997C0.474157 0.0162816 0.558447 -0.000510739 0.643528 -6.34729e-05C0.728609 0.000382839 0.812718 0.0180582 0.890782 0.0518975C0.968845 0.0857367 1.03924 0.135039 1.09773 0.196828L5.28987 4.68909C5.29306 4.69227 5.29678 4.69387 5.29997 4.69705C5.41631 4.81698 5.4826 4.97672 5.48535 5.14378C5.48535 5.15016 5.48535 5.15653 5.48535 5.16291C5.48535 5.16928 5.48535 5.17565 5.48535 5.18203C5.48306 5.34904 5.41736 5.50892 5.30156 5.62929C5.29837 5.63248 5.29518 5.6346 5.29147 5.63726L1.09986 10.1295C1.04137 10.1913 0.97097 10.2406 0.892906 10.2744C0.814843 10.3083 0.730735 10.326 0.645654 10.3264C0.560573 10.3269 0.476282 10.3101 0.397868 10.277C0.319453 10.244 0.248539 10.1955 0.189404 10.1343C0.0683293 10.0089 0.000887352 9.84118 0.00138277 9.66684C0.00187867 9.49251 0.0702743 9.32522 0.19206 9.20047Z" fill="#818181"/>
</svg>
