<svg width="18" height="11" viewBox="0 0 18 11" fill="none" xmlns="http://www.w3.org/2000/svg">
<path fill-rule="evenodd" clip-rule="evenodd" d="M5.29329 9.20047L1.52664 5.16344L5.29329 1.12641C5.41552 1.00191 5.4844 0.834665 5.48529 0.660197C5.48619 0.48573 5.41902 0.317787 5.29807 0.192046C5.23894 0.130874 5.16802 0.0823169 5.08961 0.0492997C5.01119 0.0162816 4.9269 -0.000510739 4.84182 -6.34729e-05C4.75674 0.000382839 4.67263 0.0180582 4.59457 0.0518975C4.51651 0.0857367 4.44611 0.135039 4.38762 0.196828L0.195478 4.68909C0.192291 4.69227 0.188572 4.69387 0.185385 4.69705C0.0690387 4.81698 0.0027491 4.97672 4.5308e-07 5.14378C4.52523e-07 5.15016 4.51966e-07 5.15653 4.51408e-07 5.16291C4.50851e-07 5.16928 4.50294e-07 5.17565 4.49737e-07 5.18203C0.00229205 5.34904 0.0679949 5.50892 0.183792 5.62929C0.186979 5.63248 0.190167 5.6346 0.193885 5.63726L4.38549 10.1295C4.44398 10.1913 4.51438 10.2406 4.59245 10.2744C4.67051 10.3083 4.75462 10.326 4.8397 10.3264C4.92478 10.3269 5.00907 10.3101 5.08748 10.277C5.1659 10.244 5.23681 10.1955 5.29595 10.1343C5.41702 10.0089 5.48446 9.84118 5.48397 9.66684C5.48347 9.49251 5.41508 9.32522 5.29329 9.20047Z" fill="#E15529"/>
<line x1="1" y1="5.3" x2="18" y2="5.3" stroke="#E15529" stroke-width="1.4"/>
</svg>
