<svg width="16" height="15" viewBox="0 0 16 15" fill="none" xmlns="http://www.w3.org/2000/svg">
<path d="M14.0919 13.97C13.883 13.9898 13.6733 13.9423 13.4933 13.8343C13.3134 13.7264 13.1728 13.5636 13.0919 13.37C13.8393 12.9571 14.4625 12.3515 14.8967 11.6163C15.3309 10.881 15.5603 10.0429 15.5609 9.189C15.5609 8.99407 15.4835 8.80712 15.3457 8.66928C15.2078 8.53144 15.0209 8.454 14.8259 8.454H8.70293C8.70486 8.40814 8.69808 8.36233 8.68293 8.319C8.66652 8.27358 8.6413 8.23185 8.60872 8.1962C8.57615 8.16054 8.53686 8.13167 8.4931 8.11123C8.44934 8.09079 8.40198 8.07919 8.35374 8.07709C8.30549 8.07499 8.2573 8.08244 8.21193 8.099C8.14025 8.12563 8.07878 8.17416 8.03624 8.23771C7.9937 8.30125 7.97225 8.37658 7.97493 8.453H2.76393V2.206C2.7642 1.81595 2.91926 1.44195 3.19507 1.16614C3.47088 0.89033 3.84488 0.735265 4.23493 0.735C4.57075 0.736531 4.89547 0.855383 5.15293 1.071C4.82093 1.30144 4.57423 1.63499 4.45111 2.01992C4.32798 2.40485 4.3353 2.81965 4.47193 3.2C4.53866 3.38311 4.67539 3.53222 4.85204 3.61455C5.02869 3.69687 5.2308 3.70567 5.41393 3.639L7.48693 2.888C7.67004 2.82127 7.81916 2.68455 7.90148 2.5079C7.98381 2.33125 7.9926 2.12913 7.92593 1.946C7.79652 1.59192 7.5617 1.286 7.25309 1.06948C6.94448 0.852952 6.57692 0.736217 6.19993 0.735C6.08922 0.735258 5.97876 0.745634 5.86993 0.766C5.66902 0.527668 5.4188 0.335758 5.13652 0.203512C4.85425 0.0712666 4.54665 0.0018323 4.23493 0C3.65003 0.000529566 3.08923 0.233117 2.67564 0.646707C2.26205 1.0603 2.02946 1.62109 2.02893 2.206V8.456H1.59193C1.49541 8.456 1.39984 8.47501 1.31066 8.51195C1.22149 8.54889 1.14046 8.60303 1.07221 8.67128C1.00396 8.73953 0.949819 8.82055 0.912882 8.90973C0.875945 8.9989 0.856934 9.09448 0.856934 9.191C0.857655 10.0439 1.08651 10.881 1.51976 11.6157C1.95302 12.3503 2.5749 12.9557 3.32093 13.369C3.2412 13.5622 3.10164 13.7247 2.92273 13.8327C2.74382 13.9407 2.535 13.9884 2.32693 13.969C2.27706 13.9664 2.22718 13.974 2.18033 13.9913C2.13348 14.0086 2.09063 14.0352 2.05441 14.0696C2.01819 14.104 1.98934 14.1454 1.96963 14.1913C1.94992 14.2371 1.93976 14.2866 1.93976 14.3365C1.93976 14.3864 1.94992 14.4359 1.96963 14.4817C1.98934 14.5276 2.01819 14.569 2.05441 14.6034C2.09063 14.6378 2.13348 14.6644 2.18033 14.6817C2.22718 14.699 2.27706 14.7066 2.32693 14.704C2.67682 14.7273 3.02516 14.64 3.3227 14.4544C3.62024 14.2688 3.8519 13.9944 3.98493 13.67C4.51305 13.8674 5.07214 13.969 5.63593 13.97H10.7829C11.3464 13.9687 11.9051 13.8671 12.4329 13.67C12.5659 13.9945 12.7976 14.2691 13.0951 14.4548C13.3926 14.6405 13.741 14.728 14.0909 14.705C14.1408 14.7076 14.1907 14.7 14.2375 14.6827C14.2844 14.6654 14.3272 14.6388 14.3635 14.6044C14.3997 14.57 14.4285 14.5286 14.4482 14.4827C14.4679 14.4369 14.4781 14.3874 14.4781 14.3375C14.4781 14.2876 14.4679 14.2381 14.4482 14.1923C14.4285 14.1464 14.3997 14.105 14.3635 14.0706C14.3272 14.0362 14.2844 14.0096 14.2375 13.9923C14.1907 13.975 14.1418 13.9674 14.0919 13.97ZM5.82293 1.537C5.95921 1.48725 6.10398 1.46495 6.24891 1.47139C6.39384 1.47782 6.53606 1.51285 6.66739 1.57448C6.79873 1.6361 6.91657 1.72309 7.01415 1.83045C7.11172 1.9378 7.1871 2.0634 7.23593 2.2L5.16293 2.954C5.1125 2.81768 5.08958 2.67271 5.0955 2.52748C5.10143 2.38225 5.13608 2.23963 5.19745 2.10787C5.25882 1.97611 5.34569 1.85782 5.45305 1.75983C5.56041 1.66185 5.68613 1.58611 5.82293 1.537ZM10.7839 13.237H5.63593C5.1047 13.237 4.57867 13.1323 4.0879 12.929C3.59713 12.7256 3.15123 12.4276 2.77569 12.0518C2.40014 11.6761 2.1023 11.2301 1.89919 10.7392C1.69608 10.2483 1.59167 9.72223 1.59193 9.191H14.8269C14.8269 10.2635 14.4009 11.2921 13.6425 12.0505C12.8841 12.8089 11.8555 13.235 10.7829 13.235L10.7839 13.237Z" fill="#434955"/>
<path d="M6.82894 4.66569C7.03218 4.66569 7.19694 4.50093 7.19694 4.29769C7.19694 4.09445 7.03218 3.92969 6.82894 3.92969C6.6257 3.92969 6.46094 4.09445 6.46094 4.29769C6.46094 4.50093 6.6257 4.66569 6.82894 4.66569Z" fill="#434955"/>
<path d="M7.33089 6.0485C7.53413 6.0485 7.69889 5.88374 7.69889 5.6805C7.69889 5.47726 7.53413 5.3125 7.33089 5.3125C7.12765 5.3125 6.96289 5.47726 6.96289 5.6805C6.96289 5.88374 7.12765 6.0485 7.33089 6.0485Z" fill="#434955"/>
<path d="M7.83394 7.43131C8.03718 7.43131 8.20194 7.26655 8.20194 7.06331C8.20194 6.86007 8.03718 6.69531 7.83394 6.69531C7.6307 6.69531 7.46594 6.86007 7.46594 7.06331C7.46594 7.26655 7.6307 7.43131 7.83394 7.43131Z" fill="#434955"/>
<path d="M7.86495 4.29069C8.06819 4.29069 8.23295 4.12593 8.23295 3.92269C8.23295 3.71945 8.06819 3.55469 7.86495 3.55469C7.66171 3.55469 7.49695 3.71945 7.49695 3.92269C7.49695 4.12593 7.66171 4.29069 7.86495 4.29069Z" fill="#434955"/>
<path d="M8.48714 5.62663C8.69038 5.62663 8.85514 5.46187 8.85514 5.25863C8.85514 5.05538 8.69038 4.89062 8.48714 4.89062C8.2839 4.89062 8.11914 5.05538 8.11914 5.25863C8.11914 5.46187 8.2839 5.62663 8.48714 5.62663Z" fill="#434955"/>
<path d="M9.10823 6.95475C9.31148 6.95475 9.47623 6.78999 9.47623 6.58675C9.47623 6.38351 9.31148 6.21875 9.10823 6.21875C8.90499 6.21875 8.74023 6.38351 8.74023 6.58675C8.74023 6.78999 8.90499 6.95475 9.10823 6.95475Z" fill="#434955"/>
<path d="M9.72994 8.29069C9.93318 8.29069 10.0979 8.12593 10.0979 7.92269C10.0979 7.71945 9.93318 7.55469 9.72994 7.55469C9.5267 7.55469 9.36194 7.71945 9.36194 7.92269C9.36194 8.12593 9.5267 8.29069 9.72994 8.29069Z" fill="#434955"/>
<path d="M5.7939 5.0485C5.99714 5.0485 6.1619 4.88374 6.1619 4.6805C6.1619 4.47726 5.99714 4.3125 5.7939 4.3125C5.59066 4.3125 5.4259 4.47726 5.4259 4.6805C5.4259 4.88374 5.59066 5.0485 5.7939 5.0485Z" fill="#434955"/>
<path d="M6.17269 6.47038C6.37593 6.47038 6.54069 6.30562 6.54069 6.10238C6.54069 5.89913 6.37593 5.73438 6.17269 5.73438C5.96945 5.73438 5.80469 5.89913 5.80469 6.10238C5.80469 6.30562 5.96945 6.47038 6.17269 6.47038Z" fill="#434955"/>
<path d="M6.55294 7.88444C6.75618 7.88444 6.92094 7.71968 6.92094 7.51644C6.92094 7.3132 6.75618 7.14844 6.55294 7.14844C6.3497 7.14844 6.18494 7.3132 6.18494 7.51644C6.18494 7.71968 6.3497 7.88444 6.55294 7.88444Z" fill="#434955"/>
</svg>
