<svg width="19" height="15" viewBox="0 0 19 15" fill="none" xmlns="http://www.w3.org/2000/svg">
<path d="M18.44 6.702V2.197L18.259 2.072C18.137 1.987 15.197 0 9.221 0C3.245 0 0.3 1.989 0.181 2.072L0 2.197V7.122V13.822H0.045V14.26C0.045 14.3713 0.0891972 14.478 0.167869 14.5566C0.24654 14.6353 0.353242 14.6795 0.4645 14.6795C0.575758 14.6795 0.68246 14.6353 0.761131 14.5566C0.839803 14.478 0.884 14.3713 0.884 14.26V13.822H17.556V14.26C17.556 14.3713 17.6002 14.478 17.6789 14.5566C17.7575 14.6353 17.8642 14.6795 17.9755 14.6795C18.0868 14.6795 18.1935 14.6353 18.2721 14.5566C18.3508 14.478 18.395 14.3713 18.395 14.26V13.822H18.439L18.44 6.702ZM15.283 6.702H9.59V4.817C10.521 4.67119 11.4601 4.58269 12.402 4.552C13.3671 4.58462 14.3294 4.67377 15.284 4.819L15.283 6.702ZM8.723 6.702H3.029V4.817C3.96002 4.67119 4.89913 4.58269 5.841 4.552C6.80606 4.58462 7.76837 4.67377 8.723 4.819V6.702ZM17.602 7.541V8.689H0.839V7.541H17.602ZM0.839 9.531H17.6V12.984H0.839V9.531ZM9.22 0.838001C12.1221 0.719953 15.0063 1.34395 17.6 2.651V6.702H16.122V4.102L15.767 4.047C14.6526 3.87009 13.5286 3.76022 12.401 3.718C11.3133 3.75598 10.2291 3.8632 9.155 4.039C8.05782 3.86526 6.95113 3.75806 5.841 3.718C4.73516 3.75793 3.63296 3.86781 2.541 4.047L2.189 4.104V6.704H0.839V2.651C3.433 1.3437 6.31761 0.719693 9.22 0.838001Z" fill="#434955"/>
</svg>
