<svg width="23" height="22" viewBox="0 0 23 22" fill="none" xmlns="http://www.w3.org/2000/svg">
<path d="M20.0305 20.124C20.5675 20.124 21.0361 20.1222 21.4298 20.1193C21.4173 20.071 21.4046 20.0215 21.3915 19.971C20.7847 17.6087 20.5385 17.0026 20.1477 16.4774C19.7684 15.9651 19.1406 15.5822 18.2417 15.3178C18.2458 15.9993 18.2481 16.8155 18.2481 17.6532V20.124H20.0305ZM14.605 20.124V17.613C14.605 16.3718 14.6072 15.5202 14.6118 14.9301C14.2791 14.9283 13.8595 14.9274 13.3442 14.927V20.124H14.605ZM9.65581 20.124V14.927C9.14047 14.9274 8.72095 14.9283 8.38821 14.9301C8.39278 15.5202 8.395 16.3718 8.395 17.613V20.124H9.65581ZM4.75191 20.124V17.6532C4.75191 16.8161 4.75416 16.0004 4.7583 15.3192C3.57595 15.6673 3.10977 16.1281 2.85677 16.4689C2.46445 16.9984 2.21687 17.6072 1.60826 19.9719C1.59538 20.0219 1.5827 20.0711 1.57024 20.1193C1.96398 20.1222 2.4325 20.124 2.96951 20.124H4.75191ZM15.7289 4.33212C15.594 3.91918 15.4077 3.53921 15.1548 3.1583C15.0083 2.93742 14.6599 2.56889 14.3446 2.28467C14.3203 2.34423 14.2949 2.40635 14.2684 2.47126C14.1225 2.8319 13.974 3.19086 13.8502 3.48223C13.7227 3.78253 13.5856 4.10515 13.349 4.33212H15.7289ZM11.7119 4.33212L11.6215 4.27788L11.4634 3.96181C11.3829 3.80103 11.3505 3.69359 11.3394 3.4973L9.2085 3.79895L8.6959 2.34243C8.67694 2.28921 8.65866 2.2379 8.64107 2.1886C8.14416 2.58551 7.70836 3.12029 7.41425 3.70278C7.35019 3.82892 7.24972 4.09486 7.16946 4.33212H11.7119ZM20.0305 21.3383H17.0338V17.6532C17.0338 15.6246 17.0204 13.9372 17.007 13.8965C16.9756 13.807 16.9618 13.807 17.4615 13.8965C19.2338 14.2027 20.4175 14.8012 21.1236 15.7548C21.6593 16.4747 21.9516 17.2708 22.5676 19.6689C22.793 20.5417 22.9865 21.2796 22.9999 21.2977C23.0133 21.3203 21.6994 21.3383 20.0305 21.3383ZM15.8193 21.3383H7.18072V17.613C7.18072 15.5659 7.16734 13.8517 7.15396 13.8023C7.13132 13.7123 7.15396 13.7123 11.5 13.7123C15.846 13.7123 15.8687 13.7123 15.846 13.8023C15.8327 13.8517 15.8193 15.5659 15.8193 17.613V21.3383ZM10.8701 18.6839V19.9437H12.1299V18.6839H10.8701ZM10.8701 15.5345V16.7943H12.1299V15.5345H10.8701ZM5.96619 21.3383H2.96951C1.30057 21.3383 -0.0132801 21.3203 0.00010131 21.2977C0.0139927 21.2796 0.207495 20.5417 0.432386 19.6689C1.0484 17.2754 1.34122 16.4747 1.88107 15.746C2.56913 14.8192 3.68073 14.2433 5.42635 13.9145C5.98421 13.807 6.02898 13.807 5.99296 13.8965C5.97958 13.9372 5.96619 15.6246 5.96619 17.6532V21.3383ZM11.6863 13.1188C11.5655 13.1188 11.4297 13.0928 11.1495 13.0371C10.3261 12.8662 9.77291 12.6594 9.24181 12.313C8.0947 11.5751 7.4648 10.392 7.22189 8.53836C7.1766 8.16938 7.15447 8.11071 6.97435 7.86782L6.77622 7.59816V6.40117H7.58625V7.30123L7.78438 7.57088C7.95987 7.80967 7.98663 7.87245 8.01339 8.16475C8.10345 9.08282 8.29232 9.80688 8.6119 10.428C8.77401 10.7383 8.90421 10.9184 9.18314 11.1974C9.49398 11.5123 9.62006 11.6024 10.0204 11.7953C10.569 12.0655 11.2664 12.259 11.6806 12.2636C12.027 12.2677 12.7017 12.0521 13.1653 11.7912C14.2991 11.1521 14.9691 10.041 15.2259 8.35824C15.298 7.89509 15.334 7.77776 15.4735 7.54824C15.635 7.28322 15.6397 7.26932 15.6397 6.81492V6.3564H16.4497V7.54413L16.2742 7.83642C16.1348 8.07057 16.0853 8.21003 16.0447 8.49307C15.6803 11.026 14.2811 12.61 12.0043 13.0731C11.8661 13.1029 11.7808 13.1188 11.6863 13.1188ZM17.7594 5.5464H5.24263L5.26991 4.75905L5.82313 4.73228L5.84989 4.54291C5.89518 4.26399 6.16484 3.48126 6.33158 3.15294C6.78137 2.26214 7.4967 1.45678 8.30673 0.934963C8.71174 0.669423 9.25571 0.403886 9.29636 0.449171C9.31437 0.467178 9.55727 1.14183 9.84084 1.93794L10.3539 3.39584L10.3807 2.92805C10.3987 2.67589 10.4255 1.93383 10.4435 1.28129C10.4615 0.602006 10.4975 0.0889411 10.5201 0.0755597C10.5474 0.0575458 10.7584 0.0349055 10.9972 0.0168916C11.2401 0.00351626 11.5638 -0.00523268 11.7259 0.00351625C12.0182 0.0168916 12.5807 0.0843086 12.6034 0.111581C12.608 0.12033 12.5987 0.862919 12.5761 1.76246C12.554 2.66715 12.5447 3.40922 12.5493 3.41848C12.558 3.42315 12.8283 2.79322 13.1432 2.01462C13.4628 1.23189 13.7371 0.570617 13.7597 0.538712C13.7999 0.471291 14.0834 0.606642 14.6053 0.943712C15.0731 1.24991 15.8563 2.01925 16.1667 2.48703C16.567 3.09016 16.8413 3.71078 17.0122 4.40808L17.0889 4.73228L17.7322 4.75905L17.7594 5.5464Z" fill="black"/>
</svg>
