<svg width="23" height="23" viewBox="0 0 23 23" fill="none" xmlns="http://www.w3.org/2000/svg">
<path d="M8.50387 12.3529C9.3011 13.1371 10.374 13.5775 11.4923 13.5796C12.6106 13.5816 13.6851 13.1451 14.4852 12.3639C15.4233 12.7946 16.2475 13.4389 16.8919 14.2453C17.5364 15.0516 17.9832 15.9976 18.1965 17.0076C18.5809 16.5414 17.9204 17.5343 18.1971 17.0053C17.5003 15.1767 16.2423 13.264 14.4875 12.3529C14.7399 11.9299 12.9056 13.5793 11.5006 13.5793C9.65991 13.5752 8.24915 11.9247 8.50387 12.3529ZM8.50387 12.3529C7.5634 12.7809 6.73773 13.4257 6.09453 14.2344C5.45133 15.043 3.70539 17.1082 3.5 18.1208C3.68846 17.1016 5.428 15.0287 6.07324 14.2174C6.71847 13.4062 7.55315 12.7659 8.50387 12.3529ZM11.5 1C9.4233 1 7.39323 1.61581 5.66652 2.76957C3.9398 3.92332 2.59399 5.5632 1.79927 7.48182C1.00455 9.40045 0.796614 11.5116 1.20176 13.5484C1.6069 15.5852 2.60693 17.4562 4.07538 18.9246C5.54383 20.3931 7.41475 21.3931 9.45156 21.7982C11.4884 22.2034 13.5996 21.9955 15.5182 21.2007C17.4368 20.406 19.0767 19.0602 20.2304 17.3335C21.3842 15.6068 22 13.5767 22 11.5C22.0002 10.1211 21.7288 8.75558 21.2012 7.48155C20.6736 6.20753 19.9002 5.04993 18.9251 4.07487C17.9501 3.09981 16.7925 2.3264 15.5184 1.7988C14.2444 1.27121 12.8789 0.999773 11.5 1Z" stroke="black" stroke-width="1.8"/>
<path d="M11.353 12C13.1398 12 14.5883 10.2618 14.5883 8.11757C14.5883 5.97335 13.1398 4.23511 11.353 4.23511C9.56616 4.23511 8.11768 5.97335 8.11768 8.11757C8.11768 10.2618 9.56616 12 11.353 12Z" stroke="black" stroke-width="1.8"/>
</svg>
