<svg width="18" height="15" viewBox="0 0 18 15" fill="none" xmlns="http://www.w3.org/2000/svg">
<path d="M16.226 5.456L15.777 4.811L13.898 0H3.95497L2.07597 4.811L1.62697 5.456C1.26699 5.6193 0.961587 5.88271 0.747213 6.21482C0.53284 6.54694 0.418546 6.93371 0.417969 7.329V10.086C0.418498 10.5657 0.586407 11.0301 0.892736 11.3993C1.19907 11.7684 1.62461 12.0191 2.09597 12.108V12.793C2.09597 13.2933 2.29472 13.7732 2.64851 14.127C3.0023 14.4807 3.48214 14.6795 3.98247 14.6795C4.4828 14.6795 4.96264 14.4807 5.31643 14.127C5.67021 13.7732 5.86897 13.2933 5.86897 12.793V12.143H11.984V12.793C11.984 13.0407 12.0328 13.286 12.1276 13.5149C12.2224 13.7438 12.3613 13.9518 12.5365 14.127C12.7117 14.3021 12.9197 14.4411 13.1485 14.5359C13.3774 14.6307 13.6227 14.6795 13.8705 14.6795C14.1182 14.6795 14.3635 14.6307 14.5924 14.5359C14.8213 14.4411 15.0292 14.3021 15.2044 14.127C15.3796 13.9518 15.5186 13.7438 15.6134 13.5149C15.7082 13.286 15.757 13.0407 15.757 12.793V12.108C16.2288 12.02 16.6549 11.7696 16.9614 11.4002C17.2678 11.0309 17.4354 10.5659 17.435 10.086V7.329C17.4344 6.93371 17.3201 6.54694 17.1057 6.21482C16.8914 5.88271 16.586 5.6193 16.226 5.456ZM4.49097 0.785H8.53397V2.3H9.31897V0.785H13.361L15.114 5.271H2.73897L4.49097 0.785ZM5.08397 12.793C5.08397 13.0847 4.96808 13.3645 4.76179 13.5708C4.5555 13.7771 4.27571 13.893 3.98397 13.893C3.69223 13.893 3.41244 13.7771 3.20615 13.5708C2.99986 13.3645 2.88397 13.0847 2.88397 12.793V12.143H5.08397V12.793ZM13.869 13.893C13.5772 13.893 13.2974 13.7771 13.0912 13.5708C12.8849 13.3645 12.769 13.0847 12.769 12.793V12.143H14.969V12.793C14.9691 12.9375 14.9407 13.0807 14.8855 13.2143C14.8303 13.3478 14.7493 13.4692 14.6471 13.5715C14.545 13.6737 14.4237 13.7548 14.2902 13.8102C14.1566 13.8655 14.0135 13.893 13.869 13.893ZM16.648 10.085C16.6486 10.2913 16.5985 10.4946 16.502 10.677C16.3942 10.8823 16.2324 11.0543 16.0339 11.1741C15.8354 11.294 15.6078 11.3572 15.376 11.357H2.47497C2.13804 11.3565 1.81506 11.2224 1.57682 10.9841C1.33858 10.7459 1.2045 10.4229 1.20397 10.086V7.329C1.20423 6.99172 1.33833 6.66834 1.57682 6.42985C1.81531 6.19136 2.13869 6.05726 2.47597 6.057H15.376C15.7132 6.05726 16.0366 6.19136 16.2751 6.42985C16.5136 6.66834 16.6477 6.99172 16.648 7.329V10.085Z" fill="#434955"/>
<path d="M14.1728 7.30469C13.8602 7.30489 13.5546 7.39775 13.2948 7.57155C13.035 7.74535 12.8325 7.99228 12.7129 8.28113C12.5934 8.56998 12.5622 8.88779 12.6232 9.19438C12.6842 9.50097 12.8348 9.78258 13.0559 10.0036C13.2769 10.2247 13.5585 10.3752 13.8651 10.4363C14.1717 10.4973 14.4895 10.4661 14.7783 10.3465C15.0672 10.227 15.3141 10.0245 15.4879 9.76468C15.6617 9.50484 15.7546 9.1993 15.7548 8.88669C15.7545 8.4672 15.5878 8.06497 15.2911 7.76834C14.9945 7.47172 14.5923 7.30495 14.1728 7.30469ZM14.8668 9.27669C14.7676 9.44296 14.6128 9.56876 14.4298 9.63173C14.2467 9.6947 14.0472 9.69079 13.8668 9.6207C13.7165 9.55879 13.5886 9.45257 13.5002 9.31618C13.4118 9.17979 13.367 9.01969 13.3718 8.85722C13.3767 8.69475 13.4309 8.5376 13.5273 8.40671C13.6236 8.27581 13.7576 8.17739 13.9113 8.12451C14.065 8.07164 14.2311 8.06684 14.3876 8.11075C14.5441 8.15466 14.6835 8.2452 14.7873 8.37032C14.8911 8.49543 14.9542 8.64918 14.9684 8.8111C14.9826 8.97302 14.9472 9.13542 14.8668 9.27669Z" fill="#434955"/>
<path d="M3.67775 7.30469C3.36476 7.3041 3.05863 7.39643 2.79816 7.56996C2.53768 7.7435 2.33458 7.99044 2.21458 8.27951C2.09457 8.56858 2.06307 8.88677 2.12406 9.19376C2.18505 9.50075 2.33578 9.78274 2.55717 10.004C2.77856 10.2252 3.06063 10.3758 3.36766 10.4366C3.67469 10.4974 3.99286 10.4657 4.28185 10.3455C4.57085 10.2253 4.81766 10.022 4.99104 9.76145C5.16441 9.50086 5.25654 9.19469 5.25575 8.8817C5.25417 8.46377 5.08737 8.06341 4.79175 7.76798C4.49614 7.47255 4.09568 7.30601 3.67775 7.30469ZM3.67775 9.6827C3.51952 9.6827 3.36485 9.63577 3.23329 9.54787C3.10173 9.45996 2.99919 9.33503 2.93864 9.18885C2.87809 9.04266 2.86225 8.88181 2.89312 8.72663C2.92399 8.57144 3.00018 8.42889 3.11206 8.317C3.22394 8.20512 3.36649 8.12894 3.52167 8.09807C3.67686 8.0672 3.83771 8.08304 3.98389 8.14359C4.13007 8.20414 4.25502 8.30668 4.34292 8.43824C4.43083 8.56979 4.47775 8.72447 4.47775 8.88269C4.47748 9.09469 4.39308 9.29793 4.24308 9.44774C4.09308 9.59755 3.88975 9.68169 3.67775 9.68169V9.6827Z" fill="#434955"/>
<path d="M10.3602 8.49219H7.49219V9.27719H10.3602V8.49219Z" fill="#434955"/>
</svg>
