<svg width="130" height="130" viewBox="0 0 130 130" fill="none" xmlns="http://www.w3.org/2000/svg">
<circle cx="65" cy="65" r="65" fill="#FFF8F8"/>
<g clip-path="url(#clip0_283_19)">
<path d="M48.221 78.1908C50.8702 83.2 56.1601 85 65.5 85C78.4056 85 83.5786 81.5634 84.7369 70.9722M48.221 78.1908C46.6406 75.2023 46 71.072 46 65.5C46 50.5882 50.5882 46 65.5 46C80.4118 46 85 50.5882 85 65.5C85 67.5062 84.917 69.3257 84.7369 70.9722M48.221 78.1908L55.3733 71.0385C57.1651 69.2468 60.0702 69.2468 61.862 71.0385L62.2557 71.4321C64.0474 73.2238 66.9526 73.2238 68.7443 71.4321L73.7262 66.4502C75.518 64.6585 78.4232 64.6585 80.2149 66.4502L84.7369 70.9722M62.497 58.2644C62.497 60.6021 60.5998 62.4993 58.2621 62.4993C55.9266 62.4993 54.0294 60.6021 54.0294 58.2644C54.0294 55.9266 55.9266 54.0294 58.2621 54.0294C60.5998 54.0294 62.497 55.9266 62.497 58.2644Z" stroke="#EBAFA1" stroke-width="2" stroke-linecap="round" stroke-linejoin="round"/>
</g>
<defs>
<clipPath id="clip0_283_19">
<rect width="41" height="41" fill="white" transform="translate(45 45)"/>
</clipPath>
</defs>
</svg>
