<svg width="21" height="21" viewBox="0 0 21 21" fill="none" xmlns="http://www.w3.org/2000/svg">
<path d="M10.4718 14.3073C9.00451 14.3134 7.58229 14.8163 6.43577 15.7346C5.28924 16.6529 4.48565 17.9326 4.15529 19.3663L4.14719 19.4102C4.13981 19.444 4.13619 19.4785 4.13639 19.5131C4.13534 19.6324 4.17839 19.7479 4.25723 19.8372C4.33606 19.9266 4.4451 19.9835 4.5633 19.9969C4.6815 20.0104 4.80048 19.9795 4.89728 19.9101C4.99409 19.8408 5.06186 19.738 5.08751 19.6215V19.6182C5.35678 18.3906 6.03505 17.2917 7.01053 16.5024C7.98601 15.7132 9.2005 15.2808 10.4538 15.2766C11.7072 15.2723 12.9246 15.6963 13.9054 16.4788C14.8862 17.2614 15.572 18.3557 15.8496 19.5814L15.8566 19.6182C15.8801 19.7257 15.9395 19.8218 16.025 19.8908C16.1104 19.9597 16.2168 19.9973 16.3265 19.9974C16.3628 19.9973 16.3991 19.9932 16.4345 19.9849H16.4313C16.4933 19.9712 16.552 19.9453 16.6041 19.9088C16.6561 19.8723 16.7005 19.8258 16.7346 19.7721C16.7687 19.7184 16.7919 19.6584 16.8029 19.5957C16.8139 19.5329 16.8124 19.4686 16.7985 19.4064V19.4097C16.4743 17.9677 15.6727 16.6784 14.5242 15.7519C13.3758 14.8253 11.9484 14.3161 10.4745 14.3073H10.4718ZM6.08238 7.02209C6.6762 7.02209 7.25669 6.8455 7.75044 6.51464C8.24418 6.18378 8.62901 5.71352 8.85626 5.16332C9.0835 4.61313 9.14296 4.00771 9.02711 3.42362C8.91126 2.83953 8.62531 2.30302 8.20541 1.88192C7.78552 1.46081 7.25054 1.17404 6.66812 1.05786C6.08571 0.941676 5.48202 1.0013 4.9334 1.2292C4.38478 1.4571 3.91586 1.84304 3.58595 2.3382C3.25604 2.83336 3.07995 3.41552 3.07995 4.01105C3.08095 4.80922 3.39752 5.57443 3.96025 6.13888C4.52299 6.70332 5.28594 7.02094 6.08184 7.02209H6.08238ZM6.08238 1.96577C6.48574 1.96577 6.88004 2.08572 7.21542 2.31046C7.5508 2.5352 7.8122 2.85463 7.96656 3.22835C8.12092 3.60208 8.16131 4.01331 8.08261 4.41006C8.00392 4.80681 7.80969 5.17124 7.52447 5.45728C7.23925 5.74331 6.87586 5.93811 6.48025 6.01703C6.08464 6.09594 5.67458 6.05544 5.30192 5.90064C4.92927 5.74584 4.61075 5.48369 4.38666 5.14734C4.16256 4.811 4.04295 4.41556 4.04295 4.01105C4.04352 3.46887 4.2585 2.94906 4.64073 2.56564C5.02295 2.18222 5.54122 1.96648 6.08184 1.96577H6.08238ZM14.919 7.02209C15.5128 7.02198 16.0932 6.8453 16.5869 6.51438C17.0806 6.18345 17.4653 5.71315 17.6925 5.16295C17.9196 4.61274 17.979 4.00734 17.8631 3.42329C17.7472 2.83924 17.4612 2.30277 17.0413 1.88172C16.6214 1.46068 16.0864 1.17396 15.504 1.05782C14.9216 0.94168 14.3179 1.00134 13.7693 1.22926C13.2207 1.45717 12.7519 1.8431 12.422 2.33826C12.0921 2.83341 11.916 3.41554 11.916 4.01105C11.917 4.80922 12.2336 5.57443 12.7963 6.13888C13.3591 6.70332 14.122 7.02094 14.9179 7.02209H14.919ZM14.919 1.96577C15.3223 1.96577 15.7166 2.08572 16.052 2.31046C16.3874 2.5352 16.6488 2.85463 16.8032 3.22835C16.9575 3.60208 16.9979 4.01331 16.9192 4.41006C16.8405 4.80681 16.6463 5.17124 16.3611 5.45728C16.0759 5.74331 15.7125 5.93811 15.3169 6.01703C14.9212 6.09594 14.5112 6.05544 14.1385 5.90064C13.7659 5.74584 13.4474 5.48369 13.2233 5.14734C12.9992 4.811 12.8796 4.41556 12.8796 4.01105C12.8801 3.46878 13.0952 2.94889 13.4775 2.56545C13.8599 2.18201 14.3783 1.96634 14.919 1.96577ZM19.9884 12.9705C19.7162 11.7378 19.0332 10.6348 18.0521 9.84364C17.0709 9.05246 15.8501 8.62026 14.5911 8.61834C14.3235 8.61852 14.0562 8.63771 13.7912 8.67575L13.821 8.67196C13.7916 8.67924 13.763 8.6894 13.7356 8.7023C13.5025 8.02354 13.0651 7.43409 12.4836 7.01534C11.9022 6.59659 11.2055 6.3692 10.4897 6.36457C9.77386 6.35993 9.07427 6.57827 8.48749 6.98945C7.90072 7.40063 7.4557 7.98436 7.21389 8.66005L7.20633 8.68442C7.19553 8.68442 7.18689 8.67521 7.17608 8.67359C6.92188 8.63712 6.66539 8.61902 6.4086 8.61942H6.40428C5.15335 8.62519 3.94097 9.05418 2.96342 9.83696C1.98586 10.6197 1.30034 11.7105 1.01784 12.9326L1.01082 12.97C1.00344 13.0038 0.999815 13.0383 1.00002 13.0729C0.99897 13.1922 1.04202 13.3076 1.12085 13.397C1.19969 13.4863 1.30873 13.5432 1.42693 13.5567C1.54512 13.5701 1.66411 13.5392 1.76091 13.4699C1.85772 13.4005 1.92548 13.2977 1.95114 13.1812V13.1763C2.17949 12.1608 2.74426 11.2529 3.5533 10.6007C4.36234 9.94853 5.36789 9.59055 6.4059 9.58519C6.61751 9.5851 6.82887 9.60012 7.03836 9.63015H7.01459C7.00919 9.70652 6.99137 9.77964 6.99137 9.85818C6.99137 10.7832 7.3578 11.6704 8.01005 12.3245C8.6623 12.9787 9.54693 13.3462 10.4694 13.3462C11.3918 13.3462 12.2764 12.9787 12.9287 12.3245C13.5809 11.6704 13.9473 10.7832 13.9473 9.85818C13.9473 9.78072 13.9295 9.70814 13.9241 9.63177C13.9344 9.63177 13.9441 9.63502 13.9544 9.63177C14.1629 9.60096 14.3734 9.58539 14.5841 9.58519H14.5906C15.624 9.58903 16.6258 9.94286 17.4335 10.5893C18.2412 11.2357 18.8075 12.1369 19.0405 13.1466L19.0464 13.1774C19.0702 13.2847 19.1297 13.3807 19.2151 13.4496C19.3005 13.5185 19.4067 13.5563 19.5163 13.5566C19.5527 13.5566 19.5889 13.5524 19.6243 13.5441H19.6211C19.6831 13.5304 19.7419 13.5046 19.7939 13.468C19.846 13.4315 19.8903 13.3851 19.9244 13.3313C19.9586 13.2776 19.9818 13.2176 19.9927 13.1549C20.0037 13.0921 20.0022 13.0278 19.9884 12.9656V12.9689V12.9705ZM10.4712 12.3747C9.97359 12.3748 9.48709 12.2269 9.0733 11.9496C8.65952 11.6723 8.33705 11.2782 8.14671 10.817C7.95636 10.3559 7.9067 9.8485 8.00399 9.35905C8.10129 8.8696 8.34118 8.42009 8.6933 8.06742C9.04542 7.71474 9.49395 7.47474 9.98212 7.3778C10.4703 7.28085 10.9762 7.33131 11.4357 7.5228C11.8953 7.71429 12.2879 8.03819 12.5639 8.45352C12.8398 8.86884 12.9867 9.35693 12.986 9.85602C12.9851 10.5245 12.7199 11.1653 12.2486 11.638C11.7773 12.1106 11.1383 12.3765 10.4718 12.3774L10.4712 12.3747Z" fill="black" stroke="black"/>
</svg>
