<svg width="20" height="20" viewBox="0 0 20 20" fill="none" xmlns="http://www.w3.org/2000/svg">
<path d="M1 4.78947C1 2.6966 2.6966 1 4.78947 1C6.88234 1 8.57895 2.6966 8.57895 4.78947V7.31579C8.57895 7.60947 8.57895 7.7563 8.54664 7.87678C8.45911 8.2037 8.2037 8.45911 7.87678 8.54664C7.7563 8.57895 7.60947 8.57895 7.31579 8.57895H4.78947C2.6966 8.57895 1 6.88234 1 4.78947Z" stroke="black" stroke-width="2"/>
<path d="M11.4209 12.6841C11.4209 12.3905 11.4209 12.2436 11.4532 12.1232C11.5407 11.7963 11.7962 11.5409 12.1231 11.4533C12.2435 11.421 12.3903 11.421 12.684 11.421H15.2104C17.3032 11.421 18.9998 13.1177 18.9998 15.2105C18.9998 17.3033 17.3032 19 15.2104 19C13.1175 19 11.4209 17.3033 11.4209 15.2105V12.6841Z" stroke="black" stroke-width="2"/>
<path d="M1 15.2105C1 13.1177 2.6966 11.421 4.78947 11.421H7.06316C7.59373 11.421 7.85902 11.421 8.06168 11.5243C8.23998 11.6151 8.38483 11.76 8.47569 11.9383C8.57895 12.1409 8.57895 12.4062 8.57895 12.9368V15.2105C8.57895 17.3033 6.88234 19 4.78947 19C2.6966 19 1 17.3033 1 15.2105Z" stroke="black" stroke-width="2"/>
<path d="M11.4209 4.78947C11.4209 2.6966 13.1175 1 15.2104 1C17.3032 1 18.9998 2.6966 18.9998 4.78947C18.9998 6.88234 17.3032 8.57895 15.2104 8.57895H12.5036C12.3779 8.57895 12.315 8.57895 12.2622 8.57298C11.823 8.52353 11.4763 8.17689 11.4269 7.73765C11.4209 7.68478 11.4209 7.62194 11.4209 7.49624V4.78947Z" stroke="black" stroke-width="2"/>
</svg>
