<svg width="15" height="8" viewBox="0 0 15 8" fill="none" xmlns="http://www.w3.org/2000/svg">
<path fill-rule="evenodd" clip-rule="evenodd" d="M2.07219 0.595088L7.71968 5.86435L13.3672 0.595087C13.5413 0.424097 13.7753 0.327743 14.0194 0.326494C14.2634 0.325245 14.4984 0.419202 14.6743 0.588401C14.7599 0.671127 14.8278 0.77033 14.874 0.880026C14.9202 0.989722 14.9437 1.10764 14.943 1.22666C14.9424 1.34568 14.9177 1.46334 14.8703 1.57255C14.823 1.68175 14.754 1.78023 14.6676 1.86206L8.38327 7.72654C8.37881 7.731 8.37658 7.7362 8.37212 7.74066C8.20436 7.90342 7.98089 7.99615 7.74718 8C7.73826 8 7.72934 8 7.72043 8C7.71151 8 7.70259 8 7.69368 8C7.46005 7.99679 7.23637 7.90488 7.06799 7.74289C7.06353 7.73843 7.06056 7.73397 7.05685 7.72877L0.772517 1.86503C0.686079 1.78321 0.617111 1.68472 0.569773 1.57552C0.522435 1.46631 0.497707 1.34865 0.497082 1.22963C0.496457 1.11061 0.519947 0.992693 0.566136 0.882997C0.612325 0.773301 0.680256 0.674098 0.76583 0.591372C0.941312 0.421998 1.17587 0.327652 1.41976 0.328346C1.66365 0.329039 1.89767 0.424719 2.07219 0.595088Z" fill="white"/>
</svg>
