<svg width="30" height="30" viewBox="0 0 30 30" fill="none" xmlns="http://www.w3.org/2000/svg">
<circle cx="15" cy="15" r="14.5" fill="white" stroke="#585858"/>
<path d="M14.3335 8.33447H13.0002C9.66683 8.33447 8.3335 9.66781 8.3335 13.0011V17.0011C8.3335 20.3345 9.66683 21.6678 13.0002 21.6678H17.0002C20.3335 21.6678 21.6668 20.3345 21.6668 17.0011V15.6678" stroke="#585858" stroke-width="1.5" stroke-linecap="round" stroke-linejoin="round"/>
<path d="M17.6933 9.01301L12.4399 14.2663C12.2399 14.4663 12.0399 14.8597 11.9999 15.1463L11.7133 17.153C11.6066 17.8797 12.1199 18.3863 12.8466 18.2863L14.8533 17.9997C15.1333 17.9597 15.5266 17.7597 15.7333 17.5597L20.9866 12.3063C21.8933 11.3997 22.3199 10.3463 20.9866 9.01301C19.6533 7.67968 18.5999 8.10635 17.6933 9.01301Z" stroke="#585858" stroke-width="1.5" stroke-miterlimit="10" stroke-linecap="round" stroke-linejoin="round"/>
<path d="M16.9399 9.7666C17.3866 11.3599 18.6333 12.6066 20.2333 13.0599" stroke="#585858" stroke-width="1.5" stroke-miterlimit="10" stroke-linecap="round" stroke-linejoin="round"/>
</svg>
