<svg width="38" height="38" viewBox="0 0 38 38" fill="none" xmlns="http://www.w3.org/2000/svg">
<path d="M28.5001 11.338C28.4051 11.3221 28.2942 11.3221 28.1992 11.338C26.0142 11.2588 24.2726 9.46964 24.2726 7.25297C24.2726 4.98881 26.0934 3.16797 28.3576 3.16797C30.6217 3.16797 32.4426 5.00464 32.4426 7.25297C32.4267 9.46964 30.6851 11.2588 28.5001 11.338Z" stroke="#292D32" stroke-width="1.5" stroke-linecap="round" stroke-linejoin="round"/>
<path d="M26.8693 22.8649C29.0384 23.2291 31.4293 22.8491 33.1076 21.7249C35.3401 20.2366 35.3401 17.7982 33.1076 16.3099C31.4135 15.1857 28.9909 14.8057 26.8218 15.1857" stroke="#292D32" stroke-width="1.5" stroke-linecap="round" stroke-linejoin="round"/>
<path d="M9.45251 11.338C9.54751 11.3221 9.65834 11.3221 9.75334 11.338C11.9383 11.2588 13.68 9.46964 13.68 7.25297C13.68 4.98881 11.8592 3.16797 9.59501 3.16797C7.33085 3.16797 5.51001 5.00464 5.51001 7.25297C5.52584 9.46964 7.26751 11.2588 9.45251 11.338Z" stroke="#292D32" stroke-width="1.5" stroke-linecap="round" stroke-linejoin="round"/>
<path d="M11.0834 22.8649C8.91419 23.2291 6.52336 22.8491 4.84503 21.7249C2.61253 20.2366 2.61253 17.7982 4.84503 16.3099C6.5392 15.1857 8.96169 14.8057 11.1309 15.1857" stroke="#292D32" stroke-width="1.5" stroke-linecap="round" stroke-linejoin="round"/>
<path d="M18.9998 23.1641C18.9048 23.1483 18.794 23.1483 18.699 23.1641C16.514 23.085 14.7723 21.2958 14.7723 19.0791C14.7723 16.815 16.5932 14.9941 18.8573 14.9941C21.1215 14.9941 22.9423 16.8308 22.9423 19.0791C22.9265 21.2958 21.1848 23.1008 18.9998 23.1641Z" stroke="#292D32" stroke-width="1.5" stroke-linecap="round" stroke-linejoin="round"/>
<path d="M14.3924 28.1533C12.1599 29.6416 12.1599 32.0799 14.3924 33.5683C16.9257 35.2624 21.0741 35.2624 23.6074 33.5683C25.8399 32.0799 25.8399 29.6416 23.6074 28.1533C21.0899 26.4749 16.9257 26.4749 14.3924 28.1533Z" stroke="#292D32" stroke-width="1.5" stroke-linecap="round" stroke-linejoin="round"/>
</svg>
