<svg width="21" height="24" viewBox="0 0 21 24" fill="none" xmlns="http://www.w3.org/2000/svg">
<path d="M9.44439 9.44444C11.7763 9.44444 13.6666 7.55409 13.6666 5.22222C13.6666 2.89035 11.7763 1 9.44439 1C7.11252 1 5.22217 2.89035 5.22217 5.22222C5.22217 7.55409 7.11252 9.44444 9.44439 9.44444Z" stroke="black" stroke-width="2"/>
<path d="M15.7778 9.76108C16.3275 10.2557 16.6356 10.5331 17.1852 11.0278L20.0001 7.86108" stroke="black" stroke-width="2" stroke-linecap="round" stroke-linejoin="round"/>
<path d="M17.8862 17.8889C17.8889 17.7155 17.8889 17.5395 17.8889 17.3611C17.8889 14.7377 14.1082 12.6111 9.44444 12.6111C4.7807 12.6111 1 14.7377 1 17.3611C1 19.9845 1 22.1111 9.44444 22.1111C11.7994 22.1111 13.4976 21.9457 14.7222 21.6502" stroke="black" stroke-width="2" stroke-linecap="round"/>
</svg>
