<svg width="368" height="115" viewBox="0 0 368 115" fill="none" xmlns="http://www.w3.org/2000/svg">
<g clip-path="url(#clip0_1946_2672)">
<path d="M67.9372 92.8429C67.6416 83.5799 35.8416 110.033 34.3603 83.4655C34.2516 81.5064 32.3791 79.5301 31.3632 78.5867C31.0084 78.2608 30.5536 78.0475 30.0627 77.9769C29.4266 77.9278 28.8153 77.7234 28.2895 77.384C27.7637 77.0447 27.3418 76.5822 27.0656 76.0425C26.1309 73.9748 29.0163 72.8027 29.0163 72.8027L27.6142 72.3739C27.0534 72.2181 26.5657 71.8879 26.2315 71.4376C25.8973 70.9874 25.7364 70.4438 25.7753 69.8964C25.8667 68.6767 25.9887 67.1998 26.1004 66.5327C26.1599 66.1974 26.0983 65.8531 25.9253 65.5544C25.7522 65.2557 25.4777 65.0199 25.1454 64.8843L22.0365 63.6169C21.6717 63.4688 21.3417 63.2544 21.0657 62.986C20.7898 62.7177 20.5733 62.4006 20.4287 62.0533C20.2842 61.7059 20.2145 61.3352 20.2236 60.9624C20.2328 60.5897 20.3206 60.2223 20.4821 59.8816L27.8885 44.2066C28.3711 43.1583 28.6544 42.039 28.7257 40.8991C22.07 40.2817 22.3017 37.1571 22.3017 37.1571C23.7664 38.0236 25.4589 38.4914 27.1905 38.5083C27.4116 38.5049 27.6297 38.4591 27.8313 38.3739C28.0329 38.2887 28.2138 38.1658 28.363 38.0127C28.5123 37.8597 28.6266 37.6797 28.6991 37.4837C28.7716 37.2878 28.8007 37.08 28.7846 36.8732C28.553 33.9192 28.0429 30.5565 27.7768 29.2653C27.6853 28.5286 27.6547 27.7863 27.6853 27.0451C26.903 8.71157 56.5898 -0.159812 50.1892 0.00217835C24.7593 6.8439 0 28.6726 0 58.7057C0 95.3471 18.6777 111.877 38.2881 114.037C50.683 115.402 62.4683 107.609 66.8857 96.9613C67.5237 95.6674 67.8811 94.2675 67.9372 92.8429Z" fill="#EC881D"/>
<path d="M72.3179 14.2373C70.9564 14.2289 69.5999 14.3938 68.2857 14.7275C69.3889 13.4398 70.2272 11.9711 70.758 10.3962C72.242 6.14433 69.091 1.35938 69.091 1.35938C69.091 1.35938 63.5339 3.46979 62.05 7.72167C61.4945 9.26051 61.2427 10.8814 61.307 12.5048C60.4493 11.4902 59.4463 10.5914 58.3265 9.83391C54.4725 7.1968 48.6467 8.52769 48.6467 8.52769C48.6467 8.52769 49.0712 14.1351 52.9252 16.7722C53.9648 17.4887 55.0981 18.0774 56.2972 18.5239C54.7607 18.9747 53.3146 19.6613 52.0177 20.5558C48.1511 23.1774 47.7012 28.783 47.7012 28.783C47.7012 28.783 53.5211 30.1367 57.3878 27.5151C59.0683 26.4186 60.4602 24.9776 61.458 23.3016C61.2064 25.2063 61.4205 27.1398 62.0841 28.9555C63.5447 33.2138 69.0949 35.3452 69.0949 35.3452C69.0949 35.3452 72.2673 30.5758 70.8018 26.3184C70.3343 24.9265 69.6329 23.6135 68.7239 22.4289C69.8941 22.6913 71.0933 22.8236 72.2965 22.8233C77.0677 22.8333 80.9471 18.5458 80.9471 18.5458C80.9471 18.5458 77.0901 14.2474 72.3179 14.2373ZM63.123 19.6229C62.6759 19.6227 62.2389 19.4983 61.8673 19.2654C61.4956 19.0324 61.206 18.7013 61.035 18.3141C60.8639 17.9268 60.8192 17.5007 60.9065 17.0897C60.9938 16.6786 61.2091 16.301 61.5253 16.0046C61.8414 15.7083 62.2442 15.5064 62.6827 15.4246C63.1212 15.3428 63.5757 15.3847 63.9888 15.545C64.4019 15.7053 64.755 15.9768 65.0035 16.3253C65.2521 16.6737 65.3848 17.0833 65.385 17.5025C65.3842 18.0643 65.1455 18.6028 64.7214 18.9998C64.2973 19.3967 63.7224 19.6195 63.123 19.6193V19.6229Z" fill="#EC881D"/>
<path d="M225.043 49.8576C223.991 49.2813 222.914 48.8053 221.811 48.4295C220.734 48.0536 219.719 47.8657 218.767 47.8657C217.589 47.8657 216.662 48.1038 215.986 48.5798C215.309 49.0558 214.971 49.7699 214.971 50.722C214.971 51.3734 215.222 51.9622 215.723 52.4884C216.249 52.9895 216.913 53.4404 217.715 53.8413C218.542 54.2422 219.393 54.6055 220.27 54.9312C221.072 55.2319 221.861 55.5952 222.638 56.0211C223.44 56.422 224.154 56.9356 224.78 57.562C225.407 58.1633 225.908 58.9275 226.284 59.8545C226.659 60.7565 226.847 61.8714 226.847 63.1993C226.847 64.6024 226.484 65.9052 225.757 67.1079C225.031 68.3105 223.966 69.2876 222.563 70.0393C221.16 70.7659 219.431 71.1292 217.377 71.1292C216.324 71.1292 215.247 71.029 214.144 70.8285C213.067 70.603 212.002 70.2773 210.95 69.8514C209.898 69.4004 208.883 68.8367 207.906 68.1602L210.311 63.9134C210.962 64.3894 211.664 64.8154 212.416 65.1912C213.192 65.5419 213.969 65.8175 214.746 66.018C215.522 66.2184 216.237 66.3186 216.888 66.3186C217.539 66.3186 218.191 66.231 218.842 66.0556C219.519 65.8551 220.07 65.5294 220.496 65.0784C220.947 64.6274 221.172 64.0011 221.172 63.1993C221.172 62.6481 220.984 62.147 220.609 61.696C220.258 61.245 219.769 60.8316 219.143 60.4558C218.542 60.08 217.878 59.7543 217.151 59.4787C216.299 59.153 215.422 58.7771 214.52 58.3512C213.618 57.9253 212.766 57.4116 211.965 56.8103C211.188 56.184 210.549 55.4198 210.048 54.5178C209.572 53.5908 209.334 52.4633 209.334 51.1354C209.334 49.5319 209.685 48.1413 210.386 46.9638C211.113 45.7862 212.128 44.8591 213.43 44.1827C214.733 43.4811 216.237 43.0928 217.94 43.0176C220.17 43.0176 221.974 43.2807 223.352 43.8068C224.755 44.333 226.008 44.9594 227.11 45.686L225.043 49.8576Z" fill="#EC881D"/>
<path d="M232.184 43.168H251.051V48.4296H237.634V54.33H249.51V59.5915H237.634V65.5671H251.577V70.8286H232.184V43.168Z" fill="#EC881D"/>
<path d="M265.595 43.168C267.324 43.168 268.865 43.3935 270.218 43.8445C271.571 44.2705 272.699 44.8968 273.601 45.7236C274.528 46.5254 275.229 47.5025 275.705 48.6551C276.181 49.7825 276.419 51.0603 276.419 52.4885C276.419 53.6159 276.244 54.7434 275.893 55.8709C275.567 56.9983 275.016 58.0256 274.239 58.9526C273.488 59.8796 272.486 60.6313 271.233 61.2076C269.98 61.7588 268.427 62.0344 266.573 62.0344H262.664V70.8286H257.215V43.168H265.595ZM266.535 56.7728C267.362 56.7728 268.051 56.635 268.602 56.3594C269.153 56.0838 269.579 55.7331 269.88 55.3071C270.206 54.8812 270.431 54.4427 270.556 53.9917C270.707 53.5157 270.782 53.0772 270.782 52.6764C270.782 52.3757 270.732 51.9999 270.632 51.5489C270.556 51.0729 270.381 50.5968 270.105 50.1208C269.83 49.6447 269.404 49.2439 268.828 48.9181C268.276 48.5924 267.525 48.4296 266.573 48.4296H262.664V56.7728H266.535ZM271.646 60.1552L278.486 70.8286H272.135L265.144 60.3056L271.646 60.1552Z" fill="#EC881D"/>
<path d="M285.646 43.168L293.726 63.0867L290.569 62.4478L297.898 43.168H304.362L291.734 72.1064L279.107 43.168H285.646Z" fill="#EC881D"/>
<path d="M309.146 43.168H314.596V70.8286H309.146V43.168Z" fill="#EC881D"/>
<path d="M342.481 68.5359C342.181 68.7864 341.617 69.1247 340.79 69.5506C339.988 69.9766 338.999 70.3524 337.821 70.6781C336.643 71.0038 335.341 71.1541 333.912 71.1291C331.733 71.079 329.778 70.6906 328.05 69.964C326.346 69.2124 324.893 68.1977 323.69 66.9199C322.513 65.6421 321.611 64.1764 320.984 62.5227C320.358 60.8691 320.045 59.1027 320.045 57.2236C320.045 55.119 320.358 53.1898 320.984 51.436C321.636 49.6821 322.55 48.1663 323.728 46.8885C324.93 45.6107 326.358 44.621 328.012 43.9195C329.666 43.218 331.495 42.8672 333.499 42.8672C335.353 42.8672 336.994 43.1177 338.422 43.6188C339.85 44.1199 341.016 44.6586 341.918 45.2349L339.775 50.3836C339.149 49.9076 338.31 49.419 337.257 48.9179C336.23 48.3918 335.04 48.1287 333.687 48.1287C332.635 48.1287 331.62 48.3542 330.643 48.8052C329.691 49.2311 328.839 49.845 328.087 50.6467C327.361 51.4485 326.784 52.388 326.358 53.4654C325.933 54.5177 325.72 55.6702 325.72 56.923C325.72 58.2509 325.907 59.466 326.283 60.5685C326.684 61.6709 327.248 62.623 327.974 63.4247C328.701 64.2014 329.565 64.8027 330.568 65.2287C331.595 65.6546 332.747 65.8676 334.025 65.8676C335.503 65.8676 336.769 65.6295 337.821 65.1535C338.873 64.6775 339.675 64.1764 340.226 63.6502L342.481 68.5359Z" fill="#EC881D"/>
<path d="M347.941 43.168H366.807V48.4296H353.39V54.33H365.266V59.5915H353.39V65.5671H367.333V70.8286H347.941V43.168Z" fill="#EC881D"/>
<path d="M51.2695 43.168H70.1358V48.4296H56.7189V54.33H68.595V59.5915H56.7189V65.5671H70.662V70.8286H51.2695V43.168Z" fill="white"/>
<path d="M91.0712 49.8576C90.0188 49.2813 88.9415 48.8053 87.8391 48.4295C86.7617 48.0536 85.747 47.8657 84.7949 47.8657C83.6173 47.8657 82.6903 48.1038 82.0138 48.5798C81.3373 49.0558 80.9991 49.7699 80.9991 50.722C80.9991 51.3734 81.2496 51.9622 81.7507 52.4884C82.2769 52.9895 82.9409 53.4404 83.7426 53.8413C84.5694 54.2422 85.4213 54.6055 86.2982 54.9312C87.1 55.2319 87.8892 55.5952 88.6659 56.0211C89.4676 56.422 90.1817 56.9356 90.8081 57.562C91.4345 58.1633 91.9355 58.9275 92.3114 59.8545C92.6872 60.7565 92.8751 61.8714 92.8751 63.1993C92.8751 64.6024 92.5118 65.9052 91.7852 67.1079C91.0586 68.3105 89.9938 69.2876 88.5907 70.0393C87.1877 70.7659 85.4589 71.1292 83.4044 71.1292C82.3521 71.1292 81.2747 71.029 80.1723 70.8285C79.0949 70.603 78.0301 70.2773 76.9778 69.8514C75.9255 69.4004 74.9108 68.8367 73.9336 68.1602L76.3389 63.9134C76.9903 64.3894 77.6919 64.8154 78.4435 65.1912C79.2202 65.5419 79.9969 65.8175 80.7736 66.018C81.5503 66.2184 82.2644 66.3186 82.9158 66.3186C83.5672 66.3186 84.2186 66.231 84.8701 66.0556C85.5466 65.8551 86.0978 65.5294 86.5237 65.0784C86.9747 64.6274 87.2002 64.0011 87.2002 63.1993C87.2002 62.6481 87.0123 62.147 86.6364 61.696C86.2857 61.245 85.7971 60.8316 85.1707 60.4558C84.5694 60.08 83.9055 59.7543 83.1789 59.4787C82.327 59.153 81.4501 58.7771 80.5481 58.3512C79.6461 57.9253 78.7943 57.4116 77.9925 56.8103C77.2158 56.184 76.5769 55.4198 76.0758 54.5178C75.5998 53.5908 75.3618 52.4633 75.3618 51.1354C75.3618 49.5319 75.7125 48.1413 76.4141 46.9638C77.1406 45.7862 78.1554 44.8591 79.4582 44.1827C80.7611 43.4811 82.2644 43.0928 83.9681 43.0176C86.198 43.0176 88.0019 43.2807 89.38 43.8068C90.783 44.333 92.0358 44.9594 93.1382 45.686L91.0712 49.8576Z" fill="white"/>
<path d="M118.956 68.5359C118.655 68.7864 118.092 69.1247 117.265 69.5506C116.463 69.9766 115.473 70.3524 114.296 70.6781C113.118 71.0038 111.815 71.1541 110.387 71.1291C108.208 71.079 106.253 70.6906 104.525 69.964C102.821 69.2124 101.368 68.1977 100.165 66.9199C98.9874 65.6421 98.0854 64.1764 97.459 62.5227C96.8327 60.8691 96.5195 59.1027 96.5195 57.2236C96.5195 55.119 96.8327 53.1898 97.459 51.436C98.1105 49.6821 99.025 48.1663 100.203 46.8885C101.405 45.6107 102.833 44.621 104.487 43.9195C106.141 43.218 107.97 42.8672 109.974 42.8672C111.828 42.8672 113.469 43.1177 114.897 43.6188C116.325 44.1199 117.49 44.6586 118.392 45.2349L116.25 50.3836C115.624 49.9076 114.784 49.419 113.732 48.9179C112.705 48.3918 111.515 48.1287 110.162 48.1287C109.11 48.1287 108.095 48.3542 107.118 48.8052C106.166 49.2311 105.314 49.845 104.562 50.6467C103.836 51.4485 103.259 52.388 102.833 53.4654C102.407 54.5177 102.194 55.6702 102.194 56.923C102.194 58.2509 102.382 59.466 102.758 60.5685C103.159 61.6709 103.723 62.623 104.449 63.4247C105.176 64.2014 106.04 64.8027 107.043 65.2287C108.07 65.6546 109.222 65.8676 110.5 65.8676C111.978 65.8676 113.244 65.6295 114.296 65.1535C115.348 64.6775 116.15 64.1764 116.701 63.6502L118.956 68.5359Z" fill="white"/>
<path d="M122.725 57.0357C122.725 55.1315 123.089 53.3276 123.815 51.6239C124.542 49.9201 125.544 48.4168 126.822 47.114C128.125 45.7861 129.628 44.7463 131.332 43.9947C133.035 43.243 134.864 42.8672 136.819 42.8672C138.748 42.8672 140.564 43.243 142.268 43.9947C143.972 44.7463 145.475 45.7861 146.778 47.114C148.106 48.4168 149.133 49.9201 149.86 51.6239C150.611 53.3276 150.987 55.1315 150.987 57.0357C150.987 58.99 150.611 60.819 149.86 62.5227C149.133 64.2265 148.106 65.7298 146.778 67.0326C145.475 68.3104 143.972 69.3126 142.268 70.0392C140.564 70.7658 138.748 71.1291 136.819 71.1291C134.864 71.1291 133.035 70.7658 131.332 70.0392C129.628 69.3126 128.125 68.3104 126.822 67.0326C125.544 65.7298 124.542 64.2265 123.815 62.5227C123.089 60.819 122.725 58.99 122.725 57.0357ZM128.363 57.0357C128.363 58.2634 128.576 59.4159 129.002 60.4933C129.453 61.5456 130.066 62.4851 130.843 63.312C131.645 64.1137 132.559 64.7401 133.587 65.1911C134.639 65.6421 135.779 65.8676 137.007 65.8676C138.184 65.8676 139.274 65.6421 140.276 65.1911C141.304 64.7401 142.193 64.1137 142.945 63.312C143.696 62.4851 144.285 61.5456 144.711 60.4933C145.137 59.4159 145.35 58.2634 145.35 57.0357C145.35 55.783 145.124 54.6179 144.673 53.5406C144.247 52.4632 143.646 51.5236 142.869 50.7219C142.118 49.8951 141.228 49.2562 140.201 48.8052C139.174 48.3542 138.059 48.1287 136.856 48.1287C135.654 48.1287 134.539 48.3542 133.511 48.8052C132.484 49.2562 131.582 49.8951 130.806 50.7219C130.029 51.5236 129.428 52.4632 129.002 53.5406C128.576 54.6179 128.363 55.783 128.363 57.0357Z" fill="white"/>
<path d="M164.801 43.168C166.53 43.168 168.071 43.3935 169.424 43.8445C170.777 44.2705 171.904 44.8968 172.806 45.7236C173.733 46.5254 174.435 47.5025 174.911 48.6551C175.387 49.7825 175.625 51.0603 175.625 52.4885C175.625 53.6159 175.449 54.7434 175.099 55.8709C174.773 56.9983 174.222 58.0256 173.445 58.9526C172.693 59.8796 171.691 60.6313 170.438 61.2076C169.186 61.7588 167.632 62.0344 165.778 62.0344H161.87V70.8286H156.42V43.168H164.801ZM165.741 56.7728C166.567 56.7728 167.256 56.635 167.808 56.3594C168.359 56.0838 168.785 55.7331 169.085 55.3071C169.411 54.8812 169.637 54.4427 169.762 53.9917C169.912 53.5157 169.987 53.0772 169.987 52.6764C169.987 52.3757 169.937 51.9999 169.837 51.5489C169.762 51.0729 169.587 50.5968 169.311 50.1208C169.035 49.6447 168.609 49.2439 168.033 48.9181C167.482 48.5924 166.73 48.4296 165.778 48.4296H161.87V56.7728H165.741ZM170.852 60.1552L177.692 70.8286H171.34L164.35 60.3056L170.852 60.1552Z" fill="white"/>
<path d="M179.756 43.168H198.397V48.4296H191.67V70.8286H186.22V48.4296H179.756V43.168Z" fill="white"/>
</g>
<defs>
<clipPath id="clip0_1946_2672">
<rect width="368" height="115" fill="white"/>
</clipPath>
</defs>
</svg>
