<svg width="16" height="13" viewBox="0 0 16 13" fill="none" xmlns="http://www.w3.org/2000/svg">
<path d="M9.51367 9.1438V10.5011C9.51367 10.8611 9.37067 11.2063 9.11613 11.4609C8.86159 11.7154 8.51635 11.8584 8.15637 11.8584H2.72717C2.36719 11.8584 2.02196 11.7154 1.76742 11.4609C1.51287 11.2063 1.36987 10.8611 1.36987 10.5011V2.3573C1.36987 1.99732 1.51287 1.65209 1.76742 1.39754C2.02196 1.143 2.36719 1 2.72717 1H7.88491C8.63448 1 9.51367 1.60773 9.51367 2.3573V3.7146M11.6854 9.1438L14.4 6.4292L11.6854 3.7146M5.17031 6.4292H13.857" stroke="white" stroke-width="1.5" stroke-linecap="round" stroke-linejoin="round"/>
</svg>