<svg width="20" height="21" viewBox="0 0 20 21" fill="none" xmlns="http://www.w3.org/2000/svg">
<path d="M19.0879 19.4448L18.711 19.0039L16.9205 20.8223L16.9188 20.8206C16.7186 21.0239 16.3938 21.0273 16.1902 20.8257L14.366 19.0244L12.5789 20.7676C12.3837 20.9727 12.0623 20.9829 11.8536 20.7881L9.95709 19.009L8.23559 20.8086C8.22549 20.8206 8.2154 20.8308 8.2053 20.8428C8.00168 21.0496 7.67186 21.0496 7.46992 20.8428L5.66428 19.009L3.80311 20.8103C3.5995 21.0068 3.2764 21.0034 3.07783 20.8001L1.30753 18.9834L0.938999 19.4141C0.844762 19.5439 0.691628 19.6277 0.519983 19.6277C0.232225 19.6277 0 19.3901 0 19.0996V0.528076C0 0.23584 0.232225 0 0.519983 0H19.48C19.7678 0 20 0.23584 20 0.528076V19.0996H19.9983C19.9983 19.2466 19.9377 19.3936 19.8183 19.4978C19.6029 19.6892 19.2747 19.6653 19.0879 19.4448ZM4.98612 14.7725V13.9334C4.78082 13.9077 4.59403 13.8701 4.42743 13.824C4.25747 13.7761 4.1077 13.718 3.97644 13.6497C3.84518 13.5813 3.72402 13.4907 3.60959 13.3796C3.49685 13.2686 3.39251 13.137 3.29828 12.9849C3.20236 12.8311 3.12831 12.6619 3.07278 12.4756C3.01725 12.2893 2.98191 12.0859 2.96676 11.8655V11.8569L2.97518 11.8552L3.80984 11.6912L3.81826 11.6895L3.81994 11.698C3.85191 11.927 3.89735 12.1235 3.95288 12.291C4.0101 12.4585 4.07909 12.5935 4.15987 12.6995C4.27598 12.8499 4.40387 12.9661 4.54354 13.0498C4.67985 13.1318 4.82793 13.1814 4.98612 13.2002V10.5615C4.81615 10.5171 4.64451 10.4573 4.47287 10.3855C4.29785 10.312 4.12116 10.2231 3.94279 10.1223C3.80984 10.0471 3.69205 9.95825 3.5894 9.854C3.48675 9.74976 3.39924 9.63013 3.32688 9.49512C3.25452 9.36011 3.20067 9.21655 3.16533 9.06445C3.13 8.91235 3.11149 8.75171 3.11149 8.58252C3.11149 8.28003 3.16365 8.00659 3.26967 7.76221C3.37568 7.51782 3.53387 7.30078 3.74422 7.11279C3.88557 6.98633 4.06058 6.8855 4.26925 6.80859C4.47623 6.73169 4.71687 6.68042 4.98948 6.65137V6.25488V6.24634H4.9979H5.49096H5.49937V6.25488V6.65137C5.73664 6.67529 5.95204 6.72315 6.14051 6.79492C6.33235 6.86841 6.50063 6.96582 6.64367 7.08716C6.82541 7.24268 6.97181 7.42554 7.0812 7.63745C7.19058 7.84937 7.26462 8.09204 7.30164 8.36206L7.30332 8.37061L7.29491 8.37232L6.44173 8.50733L6.43332 8.50903L6.43164 8.50049C6.40808 8.33301 6.36937 8.18604 6.31889 8.05786C6.26841 7.92969 6.20446 7.82202 6.12705 7.73486C6.04964 7.646 5.95877 7.57251 5.85276 7.51441C5.75011 7.45801 5.63231 7.41528 5.50273 7.38623V9.80786C5.70804 9.86084 5.878 9.90869 6.0143 9.94971C6.15566 9.99243 6.25999 10.03 6.32899 10.0591C6.45856 10.1172 6.57636 10.1821 6.68237 10.2522C6.78839 10.3223 6.88263 10.4009 6.9634 10.4846C7.04586 10.5684 7.11822 10.6589 7.18216 10.7581C7.24611 10.8572 7.29828 10.9648 7.34371 11.0793C7.38746 11.1938 7.42112 11.3135 7.443 11.4382C7.46487 11.563 7.47665 11.6912 7.47665 11.8245C7.47665 12.4124 7.29323 12.9028 6.9247 13.2976C6.74127 13.4941 6.52924 13.6445 6.29197 13.7505C6.05637 13.8547 5.79386 13.9146 5.5061 13.9299V14.7776V14.7861H5.49769H5.00463H4.99621V14.7725H4.98612ZM14.8473 14.0154C15.0593 14.0154 15.231 14.1897 15.231 14.405C15.231 14.6204 15.0593 14.7947 14.8473 14.7947H9.45393C9.2419 14.7947 9.07026 14.6204 9.07026 14.405C9.07026 14.1897 9.2419 14.0154 9.45393 14.0154H14.8473ZM17.0416 6.23096C17.2537 6.23096 17.4253 6.40527 17.4253 6.62061C17.4253 6.83594 17.2537 7.01025 17.0416 7.01025H9.45393C9.2419 7.01025 9.07026 6.83594 9.07026 6.62061C9.07026 6.40527 9.2419 6.23096 9.45393 6.23096H17.0416ZM17.0215 11.4211C17.2335 11.4211 17.4051 11.5955 17.4051 11.8108C17.4051 12.0261 17.2335 12.2004 17.0215 12.2004H9.45393C9.2419 12.2004 9.07026 12.0261 9.07026 11.8108C9.07026 11.5955 9.2419 11.4211 9.45393 11.4211H17.0215ZM17.0416 8.8252C17.2537 8.8252 17.4253 8.99951 17.4253 9.21484C17.4253 9.43018 17.2537 9.60449 17.0416 9.60449H9.45393C9.2419 9.60449 9.07026 9.43018 9.07026 9.21484C9.07026 8.99951 9.2419 8.8252 9.45393 8.8252H17.0416ZM4.98612 7.36914C4.82962 7.39478 4.68826 7.43921 4.56542 7.50415C4.43921 7.56909 4.32983 7.65454 4.23896 7.76221C4.1464 7.86816 4.07741 7.98438 4.03029 8.10913C3.98486 8.23389 3.9613 8.3689 3.9613 8.51416C3.9613 8.65772 3.98149 8.78931 4.02019 8.90894C4.0589 9.02857 4.1178 9.13623 4.19689 9.23364C4.27598 9.32935 4.38199 9.4148 4.51494 9.48828C4.64619 9.56006 4.80269 9.61987 4.9878 9.66943V7.36914H4.98612ZM5.496 13.2036C5.6525 13.1831 5.79722 13.1387 5.9268 13.0686C6.05974 12.9985 6.17922 12.9011 6.28355 12.7798C6.38788 12.6584 6.46698 12.5234 6.51914 12.373C6.57131 12.2227 6.59823 12.0586 6.59823 11.8792C6.59823 11.7253 6.57972 11.5886 6.5427 11.4656C6.50568 11.3425 6.45015 11.2366 6.3761 11.1426C6.30206 11.0503 6.191 10.9666 6.04291 10.8914C5.89651 10.8179 5.71477 10.7512 5.49769 10.6931V13.2036H5.496ZM16.9575 2.67456C17.2537 2.67456 17.4943 2.91895 17.4943 3.22144C17.4943 3.52222 17.2537 3.7666 16.9575 3.7666C16.6613 3.7666 16.4207 3.52222 16.4207 3.22144C16.4207 2.91895 16.6613 2.67456 16.9575 2.67456ZM13.4792 2.67456C13.7753 2.67456 14.016 2.91895 14.016 3.22144C14.016 3.52222 13.7753 3.7666 13.4792 3.7666C13.183 3.7666 12.9424 3.52222 12.9424 3.22144C12.9407 2.91895 13.1813 2.67456 13.4792 2.67456ZM10.0008 2.67456C10.297 2.67456 10.5377 2.91895 10.5377 3.22144C10.5377 3.52222 10.297 3.7666 10.0008 3.7666C9.70467 3.7666 9.46403 3.52222 9.46403 3.22144C9.46235 2.91895 9.70299 2.67456 10.0008 2.67456ZM6.52082 2.67456C6.817 2.67456 7.05764 2.91895 7.05764 3.22144C7.05764 3.52222 6.817 3.7666 6.52082 3.7666C6.22465 3.7666 5.98401 3.52222 5.98401 3.22144C5.98401 2.91895 6.22465 2.67456 6.52082 2.67456ZM3.04249 2.67456C3.33866 2.67456 3.5793 2.91895 3.5793 3.22144C3.5793 3.52222 3.33866 3.7666 3.04249 3.7666C2.74632 3.7666 2.50568 3.52222 2.50568 3.22144C2.504 2.91895 2.74464 2.67456 3.04249 2.67456ZM18.96 17.7529V1.05786H1.04165V17.7444C1.22507 17.647 1.45562 17.6675 1.62221 17.8127C1.63231 17.8213 1.64241 17.8298 1.65082 17.8401L3.45646 19.6926L5.31594 17.8948C5.52125 17.6965 5.84266 17.7017 6.04123 17.9033L6.04291 17.9016L7.8334 19.72L9.56668 17.9067C9.76357 17.7017 10.085 17.6931 10.2903 17.8862L12.2003 19.6772L14.0109 17.9136C14.2146 17.7153 14.5377 17.7188 14.7362 17.9187L16.5486 19.708L18.3711 17.8572C18.5276 17.6948 18.7665 17.6606 18.96 17.7529Z" fill="black"/>
</svg>
