<svg width="21" height="19" viewBox="0 0 21 19" fill="none" xmlns="http://www.w3.org/2000/svg">
<path d="M10.5001 12.0344C11.931 12.0344 13.091 10.8744 13.091 9.44345C13.091 8.01249 11.931 6.85254 10.5001 6.85254C9.06913 6.85254 7.90918 8.01249 7.90918 9.44345C7.90918 10.8744 9.06913 12.0344 10.5001 12.0344Z" stroke="black" stroke-width="1.6" stroke-miterlimit="10" stroke-linecap="round" stroke-linejoin="round"/>
<path d="M1 10.2487V8.63829C1 7.68672 1.8071 6.89987 2.8041 6.89987C4.52274 6.89987 5.22539 5.7287 4.36132 4.29219C3.86757 3.46871 4.16192 2.39818 5.02599 1.9224L6.66867 1.01657C7.41879 0.586529 8.38731 0.842723 8.83358 1.56555L8.93803 1.7394C9.7926 3.17592 11.1979 3.17592 12.062 1.7394L12.1664 1.56555C12.6127 0.842723 13.5812 0.586529 14.3313 1.01657L15.974 1.9224C16.8381 2.39818 17.1324 3.46871 16.6387 4.29219C15.7746 5.7287 16.4773 6.89987 18.1959 6.89987C19.1834 6.89987 20 7.67757 20 8.63829V10.2487C20 11.2002 19.1929 11.9871 18.1959 11.9871C16.4773 11.9871 15.7746 13.1583 16.6387 14.5948C17.1324 15.4274 16.8381 16.4888 15.974 16.9646L14.3313 17.8704C13.5812 18.3005 12.6127 18.0443 12.1664 17.3214L12.062 17.1476C11.2074 15.7111 9.8021 15.7111 8.93803 17.1476L8.83358 17.3214C8.38731 18.0443 7.41879 18.3005 6.66867 17.8704L5.02599 16.9646C4.16192 16.4888 3.86757 15.4183 4.36132 14.5948C5.22539 13.1583 4.52274 11.9871 2.8041 11.9871C1.8071 11.9871 1 11.2002 1 10.2487Z" stroke="black" stroke-width="1.6" stroke-miterlimit="10" stroke-linecap="round" stroke-linejoin="round"/>
</svg>
