<svg width="51" height="51" viewBox="0 0 51 51" fill="none" xmlns="http://www.w3.org/2000/svg">
<g clip-path="url(#clip0_1595_295)">
<path fill-rule="evenodd" clip-rule="evenodd" d="M18.1953 32.6598L22.2378 44.5678L24.2715 37.4995L23.2754 36.406C22.8271 35.7491 22.7275 35.1753 22.9766 34.6805C23.5161 33.6119 24.6326 33.8115 25.6743 33.8115C26.7659 33.8115 28.1189 33.6036 28.4592 34.9757C28.5754 35.4331 28.4302 35.9154 28.1106 36.406L27.1145 37.4995L29.1482 44.5678L32.8088 32.6598C35.4485 35.0381 43.2637 35.5162 46.1731 37.1419C47.0945 37.6575 47.9246 38.3103 48.5928 39.1917C49.6055 40.5347 50.228 42.2852 50.3982 44.5096L51.0042 48.3889C50.8547 49.9605 49.9666 50.8669 48.2109 51.0041H25.6909H2.79321C1.0376 50.8711 0.149414 49.9647 0 48.3889L0.605957 44.5096C0.776123 42.2852 1.39868 40.5347 2.41138 39.1917C3.07959 38.3061 3.90967 37.6533 4.83105 37.1419C7.74048 35.5162 15.5557 35.0381 18.1953 32.6598ZM16.365 15.6168C15.8628 15.6376 15.4851 15.7416 15.2278 15.9162C15.0784 16.016 14.9705 16.1449 14.8999 16.2945C14.821 16.4609 14.7878 16.6646 14.792 16.9016C14.8127 17.5918 15.1738 18.4899 15.8669 19.5252L15.8752 19.5418L18.1331 23.1425C19.0378 24.5853 19.9883 26.0571 21.167 27.1382C22.3 28.1776 23.678 28.8803 25.5 28.8845C27.4714 28.8886 28.9158 28.1568 30.082 27.0592C31.2981 25.9158 32.261 24.3524 33.2073 22.7891L35.7515 18.5897C36.2246 17.5045 36.3989 16.781 36.291 16.3528C36.2246 16.0991 35.9465 15.9744 35.4734 15.9536C35.3738 15.9494 35.27 15.9494 35.1621 15.9494C35.05 15.9536 34.9297 15.9619 34.8052 15.9702C34.7388 15.9744 34.6724 15.9702 34.6101 15.9578C34.3818 15.9702 34.1494 15.9536 33.9128 15.9203L34.7844 12.0577C30.1318 11.9995 26.9485 11.1887 23.1841 8.77718C21.9473 7.98719 21.5737 7.08078 20.3369 7.1681C19.4031 7.34688 18.6187 7.76682 17.9919 8.44039C17.3943 9.08486 16.9419 9.96632 16.6472 11.0931L17.1411 15.6459C16.8672 15.6626 16.6057 15.6542 16.365 15.6168ZM36.345 14.806C36.9717 14.9973 37.3743 15.3965 37.5361 16.0409C37.7188 16.7561 37.5195 17.7581 36.9177 19.1302C36.9053 19.1551 36.8928 19.1801 36.8804 19.205L34.3071 23.4543C33.3152 25.0925 32.3066 26.7307 30.9619 27.9947C29.5715 29.3003 27.8533 30.1692 25.5083 30.1651C23.3169 30.1609 21.6692 29.321 20.3162 28.082C19.0088 26.8846 18.0085 25.3378 17.0581 23.8244L14.8003 20.2279C13.9744 18.993 13.5469 17.8662 13.5178 16.939C13.5054 16.5024 13.5801 16.1074 13.7378 15.7623C13.908 15.3965 14.1653 15.0929 14.5139 14.8601C14.6758 14.752 14.8584 14.6564 15.0618 14.5815C14.9165 12.6315 14.8584 10.1701 14.9539 8.11193C15.0037 7.62546 15.095 7.13483 15.2319 6.64421C15.8088 4.57777 17.2573 2.91463 19.0503 1.77123C19.6812 1.36792 20.3743 1.03529 21.1047 0.76919C25.4419 -0.810787 31.1943 0.0498845 34.2739 3.38447C35.5273 4.74408 36.3159 6.54858 36.4861 8.93102L36.345 14.806Z" fill="black"/>
</g>
<defs>
<clipPath id="clip0_1595_295">
<rect width="51" height="51" fill="white"/>
</clipPath>
</defs>
</svg>
