<svg width="22" height="22" viewBox="0 0 22 22" fill="none" xmlns="http://www.w3.org/2000/svg">
<path d="M11 0C4.939 0 0 4.939 0 11C0 17.061 4.939 22 11 22C17.061 22 22 17.061 22 11C22 4.939 17.061 0 11 0ZM16.258 8.47L10.021 14.707C9.867 14.861 9.658 14.949 9.438 14.949C9.218 14.949 9.009 14.861 8.855 14.707L5.742 11.594C5.423 11.275 5.423 10.747 5.742 10.428C6.061 10.109 6.589 10.109 6.908 10.428L9.438 12.958L15.092 7.304C15.411 6.985 15.939 6.985 16.258 7.304C16.577 7.623 16.577 8.14 16.258 8.47Z" fill="#0BC196"/>
</svg>
