<svg width="47" height="47" viewBox="0 0 47 47" fill="none" xmlns="http://www.w3.org/2000/svg">
<path d="M17.9383 21.2864C17.7424 21.2668 17.5074 21.2668 17.292 21.2864C12.6312 21.1298 8.92993 17.311 8.92993 12.611C8.92993 7.8131 12.8074 3.91602 17.6249 3.91602C22.4228 3.91602 26.3199 7.8131 26.3199 12.611C26.3003 17.311 22.5991 21.1298 17.9383 21.2864Z" stroke="black" stroke-width="1.8" stroke-linecap="round" stroke-linejoin="round"/>
<path d="M32.1362 7.83398C35.9353 7.83398 38.9903 10.9086 38.9903 14.6882C38.9903 18.3894 36.0528 21.4052 32.3908 21.5423C32.2341 21.5227 32.0578 21.5227 31.8816 21.5423" stroke="black" stroke-width="1.8" stroke-linecap="round" stroke-linejoin="round"/>
<path d="M8.14666 28.514C3.40749 31.6865 3.40749 36.8565 8.14666 40.0094C13.5321 43.6127 22.3642 43.6127 27.7496 40.0094C32.4887 36.8369 32.4887 31.6669 27.7496 28.514C22.3837 24.9302 13.5517 24.9302 8.14666 28.514Z" stroke="black" stroke-width="1.8" stroke-linecap="round" stroke-linejoin="round"/>
<path d="M35.9158 39.166C37.3258 38.8723 38.6574 38.3043 39.7541 37.4623C42.8091 35.171 42.8091 31.3914 39.7541 29.1002C38.677 28.2777 37.3649 27.7293 35.9745 27.416" stroke="black" stroke-width="1.8" stroke-linecap="round" stroke-linejoin="round"/>
</svg>
