<svg width="30" height="30" viewBox="0 0 30 30" fill="none" xmlns="http://www.w3.org/2000/svg">
<circle cx="15" cy="15" r="14.5" fill="white" stroke="#FB6A57"/>
<path d="M21 11.4867C18.78 11.2667 16.5467 11.1533 14.32 11.1533C13 11.1533 11.68 11.22 10.36 11.3533L9 11.4867" stroke="#FB6A57" stroke-width="1.5" stroke-linecap="round" stroke-linejoin="round"/>
<path d="M12.6665 10.8135L12.8132 9.94016C12.9198 9.30683 12.9998 8.8335 14.1265 8.8335H15.8732C16.9998 8.8335 17.0865 9.3335 17.1865 9.94683L17.3332 10.8135" stroke="#FB6A57" stroke-width="1.5" stroke-linecap="round" stroke-linejoin="round"/>
<path d="M19.5669 13.5933L19.1336 20.3066C19.0603 21.3533 19.0003 22.1666 17.1403 22.1666H12.8603C11.0003 22.1666 10.9403 21.3533 10.8669 20.3066L10.4336 13.5933" stroke="#FB6A57" stroke-width="1.5" stroke-linecap="round" stroke-linejoin="round"/>
<path d="M13.8867 18.5H16.1067" stroke="#FB6A57" stroke-width="1.5" stroke-linecap="round" stroke-linejoin="round"/>
<path d="M13.3335 15.8335H16.6668" stroke="#FB6A57" stroke-width="1.5" stroke-linecap="round" stroke-linejoin="round"/>
</svg>
