<svg width="40" height="40" viewBox="0 0 40 40" fill="none" xmlns="http://www.w3.org/2000/svg">
<rect x="1" y="1" width="38" height="38" rx="19" fill="white" stroke="#F8EBF4" stroke-width="2"/>
<path d="M20.1515 18.9316C20.0569 18.9221 19.9434 18.9221 19.8394 18.9316C17.588 18.8559 15.8002 17.0113 15.8002 14.741C15.8002 12.4234 17.6731 10.541 20.0002 10.541C22.3177 10.541 24.2002 12.4234 24.2002 14.741C24.1907 17.0113 22.4029 18.8559 20.1515 18.9316Z" stroke="#D87EBD" stroke-width="1.5" stroke-linecap="round" stroke-linejoin="round"/>
<path d="M15.4216 22.4214C13.1324 23.9538 13.1324 26.4511 15.4216 27.9741C18.023 29.7146 22.2892 29.7146 24.8905 27.9741C27.1797 26.4416 27.1797 23.9443 24.8905 22.4214C22.2986 20.6903 18.0324 20.6903 15.4216 22.4214Z" stroke="#D87EBD" stroke-width="1.5" stroke-linecap="round" stroke-linejoin="round"/>
</svg>
