<svg width="150" height="50" viewBox="0 0 150 50" fill="none" xmlns="http://www.w3.org/2000/svg">
<rect x="0.5" y="0.5" width="149" height="49" rx="24.5" fill="#57B74E" stroke="#4EAD45"/>
<path d="M114.5 38C121.375 38 127 32.375 127 25.5C127 18.625 121.375 13 114.5 13C107.625 13 102 18.625 102 25.5C102 32.375 107.625 38 114.5 38Z" fill="white"/>
<path d="M109.188 25.5004L112.725 29.0379L119.812 21.9629" stroke="#57B74E" stroke-width="1.5" stroke-linecap="round" stroke-linejoin="round"/>
<path d="M30.3574 29.2168L33.9023 17.7812H36.8809L31.8613 32H29.8789L30.3574 29.2168ZM27.0859 17.7812L30.6113 29.2168L31.1191 32H29.1172L24.1172 17.7812H27.0859ZM42.4668 32.1953C41.666 32.1953 40.9466 32.0651 40.3086 31.8047C39.6706 31.5443 39.127 31.1829 38.6777 30.7207C38.235 30.252 37.8932 29.7083 37.6523 29.0898C37.418 28.4648 37.3008 27.7943 37.3008 27.0781V26.6875C37.3008 25.8737 37.418 25.1348 37.6523 24.4707C37.8867 23.8001 38.2188 23.224 38.6484 22.7422C39.0781 22.2604 39.5924 21.8893 40.1914 21.6289C40.7904 21.3685 41.4512 21.2383 42.1738 21.2383C42.9225 21.2383 43.5833 21.3652 44.1562 21.6191C44.7292 21.8665 45.2077 22.2181 45.5918 22.6738C45.9759 23.1296 46.2656 23.6764 46.4609 24.3145C46.6562 24.946 46.7539 25.6458 46.7539 26.4141V27.498H38.4727V25.7207H44.2148V25.5254C44.2018 25.1152 44.1237 24.7409 43.9805 24.4023C43.8372 24.0573 43.6159 23.7839 43.3164 23.582C43.0169 23.3737 42.6296 23.2695 42.1543 23.2695C41.7702 23.2695 41.4349 23.3542 41.1484 23.5234C40.8685 23.6862 40.6341 23.9206 40.4453 24.2266C40.263 24.526 40.1263 24.8841 40.0352 25.3008C39.944 25.7174 39.8984 26.1797 39.8984 26.6875V27.0781C39.8984 27.5208 39.957 27.931 40.0742 28.3086C40.1979 28.6862 40.377 29.015 40.6113 29.2949C40.8522 29.5684 41.1387 29.7832 41.4707 29.9395C41.8092 30.0892 42.1934 30.1641 42.623 30.1641C43.1634 30.1641 43.6517 30.0599 44.0879 29.8516C44.5306 29.6367 44.9147 29.321 45.2402 28.9043L46.5391 30.252C46.3177 30.5775 46.0182 30.89 45.6406 31.1895C45.2695 31.4889 44.8203 31.7331 44.293 31.9219C43.7656 32.1042 43.1569 32.1953 42.4668 32.1953ZM51.0605 23.5918V32H48.4824V21.4336H50.9238L51.0605 23.5918ZM54.2734 21.3652L54.2344 23.7676C54.0911 23.7415 53.9284 23.722 53.7461 23.709C53.5703 23.696 53.4043 23.6895 53.248 23.6895C52.8509 23.6895 52.5026 23.7448 52.2031 23.8555C51.9036 23.9596 51.653 24.1126 51.4512 24.3145C51.2559 24.5163 51.1061 24.7637 51.002 25.0566C50.8978 25.3431 50.8392 25.6686 50.8262 26.0332L50.2695 25.9648C50.2695 25.2943 50.3379 24.6725 50.4746 24.0996C50.6113 23.5267 50.8099 23.0254 51.0703 22.5957C51.3307 22.166 51.6562 21.834 52.0469 21.5996C52.444 21.3587 52.8997 21.2383 53.4141 21.2383C53.5573 21.2383 53.7103 21.2513 53.873 21.2773C54.0423 21.2969 54.1758 21.3262 54.2734 21.3652ZM58.4238 21.4336V32H55.8359V21.4336H58.4238ZM55.6602 18.6699C55.6602 18.2858 55.7904 17.9668 56.0508 17.7129C56.3177 17.459 56.6758 17.332 57.125 17.332C57.5742 17.332 57.929 17.459 58.1895 17.7129C58.4564 17.9668 58.5898 18.2858 58.5898 18.6699C58.5898 19.0475 58.4564 19.3633 58.1895 19.6172C57.929 19.8711 57.5742 19.998 57.125 19.998C56.6758 19.998 56.3177 19.8711 56.0508 19.6172C55.7904 19.3633 55.6602 19.0475 55.6602 18.6699ZM64.1465 32H61.5488V20.8477C61.5488 19.9753 61.7246 19.2396 62.0762 18.6406C62.4342 18.0352 62.9453 17.5762 63.6094 17.2637C64.2799 16.9512 65.0775 16.7949 66.002 16.7949C66.5423 16.7949 67.0632 16.8503 67.5645 16.9609C68.0723 17.0651 68.5931 17.2018 69.127 17.3711L68.7461 19.4609C68.401 19.3503 68.0234 19.2461 67.6133 19.1484C67.2096 19.0508 66.7311 19.002 66.1777 19.002C65.4941 19.002 64.9831 19.1582 64.6445 19.4707C64.3125 19.7832 64.1465 20.2422 64.1465 20.8477V32ZM66.2559 21.4336V23.2891H59.957V21.4336H66.2559ZM70.3379 21.4336V32H67.75V21.4336H70.3379ZM77.584 32.1953C76.7832 32.1953 76.0638 32.0651 75.4258 31.8047C74.7878 31.5443 74.2441 31.1829 73.7949 30.7207C73.3522 30.252 73.0104 29.7083 72.7695 29.0898C72.5352 28.4648 72.418 27.7943 72.418 27.0781V26.6875C72.418 25.8737 72.5352 25.1348 72.7695 24.4707C73.0039 23.8001 73.3359 23.224 73.7656 22.7422C74.1953 22.2604 74.7096 21.8893 75.3086 21.6289C75.9076 21.3685 76.5684 21.2383 77.291 21.2383C78.0397 21.2383 78.7005 21.3652 79.2734 21.6191C79.8464 21.8665 80.3249 22.2181 80.709 22.6738C81.0931 23.1296 81.3828 23.6764 81.5781 24.3145C81.7734 24.946 81.8711 25.6458 81.8711 26.4141V27.498H73.5898V25.7207H79.332V25.5254C79.319 25.1152 79.2409 24.7409 79.0977 24.4023C78.9544 24.0573 78.7331 23.7839 78.4336 23.582C78.1341 23.3737 77.7467 23.2695 77.2715 23.2695C76.8874 23.2695 76.5521 23.3542 76.2656 23.5234C75.9857 23.6862 75.7513 23.9206 75.5625 24.2266C75.3802 24.526 75.2435 24.8841 75.1523 25.3008C75.0612 25.7174 75.0156 26.1797 75.0156 26.6875V27.0781C75.0156 27.5208 75.0742 27.931 75.1914 28.3086C75.3151 28.6862 75.4941 29.015 75.7285 29.2949C75.9694 29.5684 76.2559 29.7832 76.5879 29.9395C76.9264 30.0892 77.3105 30.1641 77.7402 30.1641C78.2806 30.1641 78.7689 30.0599 79.2051 29.8516C79.6478 29.6367 80.0319 29.321 80.3574 28.9043L81.6562 30.252C81.4349 30.5775 81.1354 30.89 80.7578 31.1895C80.3867 31.4889 79.9375 31.7331 79.4102 31.9219C78.8828 32.1042 78.2741 32.1953 77.584 32.1953ZM89.9375 29.7539V17H92.5352V32H90.1914L89.9375 29.7539ZM83.1504 26.8438V26.6387C83.1504 25.8314 83.2415 25.099 83.4238 24.4414C83.6126 23.7773 83.8861 23.2077 84.2441 22.7324C84.6022 22.2572 85.0352 21.8893 85.543 21.6289C86.0573 21.3685 86.64 21.2383 87.291 21.2383C87.9225 21.2383 88.4727 21.3652 88.9414 21.6191C89.4167 21.873 89.8203 22.2344 90.1523 22.7031C90.4909 23.1719 90.7611 23.7285 90.9629 24.373C91.1647 25.0111 91.3112 25.7142 91.4023 26.4824V27.0391C91.3112 27.7878 91.1647 28.4746 90.9629 29.0996C90.7611 29.7246 90.4909 30.2715 90.1523 30.7402C89.8203 31.2025 89.4167 31.5605 88.9414 31.8145C88.4661 32.0684 87.9095 32.1953 87.2715 32.1953C86.627 32.1953 86.0475 32.0618 85.5332 31.7949C85.0254 31.528 84.5924 31.1536 84.2344 30.6719C83.8828 30.1901 83.6126 29.6237 83.4238 28.9727C83.2415 28.3216 83.1504 27.612 83.1504 26.8438ZM85.7383 26.6387V26.8438C85.7383 27.2995 85.7773 27.7259 85.8555 28.123C85.9336 28.5202 86.0605 28.8717 86.2363 29.1777C86.4121 29.4772 86.6367 29.7116 86.9102 29.8809C87.1901 30.0501 87.5286 30.1348 87.9258 30.1348C88.4336 30.1348 88.8503 30.0241 89.1758 29.8027C89.5078 29.5749 89.765 29.2656 89.9473 28.875C90.1296 28.4779 90.2467 28.0319 90.2988 27.5371V26.0039C90.2728 25.6133 90.2044 25.252 90.0938 24.9199C89.9896 24.5879 89.8398 24.3014 89.6445 24.0605C89.4557 23.8197 89.2214 23.6309 88.9414 23.4941C88.6615 23.3574 88.3294 23.2891 87.9453 23.2891C87.5482 23.2891 87.2096 23.377 86.9297 23.5527C86.6497 23.722 86.4219 23.9596 86.2461 24.2656C86.0703 24.5716 85.9401 24.9264 85.8555 25.3301C85.7773 25.7337 85.7383 26.1699 85.7383 26.6387Z" fill="white"/>
</svg>
