<svg width="365" height="139" viewBox="0 0 365 139" fill="none" xmlns="http://www.w3.org/2000/svg">
<g clip-path="url(#clip0_1946_2688)">
<path d="M66.2969 86H59.0469L70.0938 54H78.8125L89.8438 86H82.5938L74.5781 61.3125H74.3281L66.2969 86ZM65.8438 73.4219H82.9688V78.7031H65.8438V73.4219ZM105.039 86H93.6953V54H105.133C108.352 54 111.122 54.6406 113.445 55.9219C115.768 57.1927 117.555 59.0208 118.805 61.4062C120.065 63.7917 120.695 66.6458 120.695 69.9687C120.695 73.3021 120.065 76.1667 118.805 78.5625C117.555 80.9583 115.758 82.7969 113.414 84.0781C111.081 85.3594 108.289 86 105.039 86ZM100.461 80.2031H104.758C106.758 80.2031 108.44 79.849 109.805 79.1406C111.18 78.4219 112.211 77.3125 112.898 75.8125C113.596 74.3021 113.945 72.3542 113.945 69.9687C113.945 67.6042 113.596 65.6719 112.898 64.1719C112.211 62.6719 111.185 61.5677 109.82 60.8594C108.456 60.151 106.773 59.7969 104.773 59.7969H100.461V80.2031ZM129.418 86H122.168L133.215 54H141.934L152.965 86H145.715L137.699 61.3125H137.449L129.418 86ZM128.965 73.4219H146.09V78.7031H128.965V73.4219ZM156.816 54H165.16L173.973 75.5H174.348L183.16 54H191.504V86H184.941V65.1719H184.676L176.395 85.8437H171.926L163.645 65.0937H163.379V86H156.816V54ZM236.668 70C236.668 73.4896 236.007 76.4583 234.684 78.9062C233.371 81.3542 231.579 83.224 229.309 84.5156C227.048 85.7969 224.507 86.4375 221.684 86.4375C218.84 86.4375 216.288 85.7917 214.027 84.5C211.767 83.2083 209.98 81.3385 208.668 78.8906C207.355 76.4427 206.699 73.4792 206.699 70C206.699 66.5104 207.355 63.5417 208.668 61.0938C209.98 58.6458 211.767 56.7812 214.027 55.5C216.288 54.2083 218.84 53.5625 221.684 53.5625C224.507 53.5625 227.048 54.2083 229.309 55.5C231.579 56.7812 233.371 58.6458 234.684 61.0938C236.007 63.5417 236.668 66.5104 236.668 70ZM229.809 70C229.809 67.7396 229.47 65.8333 228.793 64.2812C228.126 62.7292 227.184 61.5521 225.965 60.75C224.746 59.9479 223.319 59.5469 221.684 59.5469C220.048 59.5469 218.621 59.9479 217.402 60.75C216.184 61.5521 215.236 62.7292 214.559 64.2812C213.892 65.8333 213.559 67.7396 213.559 70C213.559 72.2604 213.892 74.1667 214.559 75.7187C215.236 77.2708 216.184 78.4479 217.402 79.25C218.621 80.0521 220.048 80.4531 221.684 80.4531C223.319 80.4531 224.746 80.0521 225.965 79.25C227.184 78.4479 228.126 77.2708 228.793 75.7187C229.47 74.1667 229.809 72.2604 229.809 70ZM241.68 86V54H254.305C256.721 54 258.784 54.4323 260.492 55.2969C262.211 56.151 263.518 57.3646 264.414 58.9375C265.32 60.5 265.773 62.3385 265.773 64.4531C265.773 66.5781 265.315 68.4062 264.398 69.9375C263.482 71.4583 262.154 72.625 260.414 73.4375C258.685 74.25 256.591 74.6562 254.133 74.6562H245.68V69.2187H253.039C254.331 69.2187 255.404 69.0417 256.258 68.6875C257.112 68.3333 257.747 67.8021 258.164 67.0938C258.591 66.3854 258.805 65.5052 258.805 64.4531C258.805 63.3906 258.591 62.4948 258.164 61.7656C257.747 61.0365 257.107 60.4844 256.242 60.1094C255.388 59.724 254.31 59.5312 253.008 59.5312H248.445V86H241.68ZM258.961 71.4375L266.914 86H259.445L251.664 71.4375H258.961Z" fill="white"/>
<path d="M280.738 86V54H302.301V59.5781H287.504V67.2031H301.191V72.7812H287.504V80.4219H302.363V86H280.738ZM313.461 54L321.195 78.3125H321.492L329.242 54H336.742L325.711 86H316.992L305.945 54H313.461ZM340.594 86V54H362.156V59.5781H347.359V67.2031H361.047V72.7812H347.359V80.4219H362.219V86H340.594Z" fill="#EC881D"/>
<path d="M82.6962 113.012C82.3363 101.737 43.628 133.937 41.8249 101.598C41.6925 99.2132 39.4133 96.8075 38.1766 95.6592C37.7448 95.2625 37.1911 95.0029 36.5937 94.9169C35.8194 94.8571 35.0753 94.6083 34.4353 94.1953C33.7952 93.7822 33.2816 93.2193 32.9454 92.5623C31.8077 90.0454 35.3199 88.6187 35.3199 88.6187L33.6132 88.0967C32.9305 87.907 32.337 87.5051 31.9302 86.957C31.5234 86.4089 31.3275 85.7473 31.3748 85.081C31.4861 83.5963 31.6345 81.7985 31.7706 80.9866C31.843 80.5784 31.768 80.1593 31.5574 79.7957C31.3467 79.4321 31.0126 79.145 30.6081 78.98L26.8238 77.4373C26.3797 77.2571 25.9781 76.9961 25.6421 76.6694C25.3062 76.3427 25.0427 75.9568 24.8667 75.534C24.6908 75.1112 24.606 74.6599 24.6171 74.2062C24.6282 73.7524 24.7352 73.3053 24.9317 72.8905L33.9472 53.8102C34.5345 52.5342 34.8793 51.1717 34.9662 49.7842C26.8646 49.0326 27.1466 45.2293 27.1466 45.2293C28.9295 46.284 30.9897 46.8534 33.0975 46.874C33.3667 46.8698 33.632 46.8142 33.8774 46.7104C34.1228 46.6067 34.3431 46.4571 34.5247 46.2708C34.7064 46.0844 34.8455 45.8654 34.9338 45.6269C35.022 45.3883 35.0575 45.1354 35.0379 44.8837C34.7559 41.288 34.1351 37.1947 33.8111 35.6231C33.6997 34.7263 33.6625 33.8227 33.6998 32.9205C32.7476 10.6041 68.8836 -0.194531 61.0925 0.00265161C30.1381 8.3307 0 34.9016 0 71.4592C0 116.061 22.7353 136.181 46.6059 138.811C61.6935 140.473 76.0391 130.986 81.4163 118.026C82.1929 116.451 82.6279 114.747 82.6962 113.012Z" fill="#EC881D"/>
<path d="M88.0271 17.3304C86.3697 17.3201 84.7186 17.5209 83.1189 17.9271C84.4617 16.3596 85.4822 14.5718 86.1283 12.6548C87.9346 7.47925 84.0991 1.65479 84.0991 1.65479C84.0991 1.65479 77.3348 4.22368 75.5285 9.39925C74.8523 11.2724 74.5458 13.2454 74.6241 15.2215C73.5801 13.9865 72.3592 12.8925 70.9961 11.9704C66.3048 8.76037 59.2134 10.3804 59.2134 10.3804C59.2134 10.3804 59.7301 17.206 64.4214 20.416C65.6869 21.2881 67.0663 22.0047 68.526 22.5482C66.6556 23.097 64.8953 23.9328 63.3168 25.0215C58.6101 28.2127 58.0625 35.036 58.0625 35.036C58.0625 35.036 65.1468 36.6838 69.8535 33.4927C71.899 32.158 73.5933 30.404 74.8078 28.3638C74.5017 30.6824 74.7623 33.0358 75.57 35.246C77.3479 40.4294 84.1039 43.0238 84.1039 43.0238C84.1039 43.0238 87.9654 37.2183 86.1816 32.036C85.6126 30.3418 84.7587 28.7435 83.6523 27.3016C85.0767 27.6209 86.5363 27.782 88.001 27.7816C93.8088 27.7938 98.5308 22.5749 98.5308 22.5749C98.5308 22.5749 93.836 17.3426 88.0271 17.3304ZM76.8347 23.886C76.2904 23.8858 75.7585 23.7343 75.3061 23.4507C74.8537 23.1672 74.5011 22.7642 74.2929 22.2928C74.0848 21.8214 74.0304 21.3027 74.1366 20.8024C74.2428 20.302 74.5049 19.8424 74.8898 19.4816C75.2746 19.1209 75.7649 18.8752 76.2986 18.7756C76.8324 18.676 77.3857 18.727 77.8885 18.9221C78.3914 19.1173 78.8212 19.4478 79.1237 19.8719C79.4262 20.296 79.5878 20.7947 79.588 21.3049C79.5871 21.9887 79.2965 22.6443 78.7802 23.1274C78.264 23.6106 77.5642 23.8818 76.8347 23.8815V23.886Z" fill="#EC881D"/>
</g>
<defs>
<clipPath id="clip0_1946_2688">
<rect width="365" height="139" fill="white"/>
</clipPath>
</defs>
</svg>
